<svg width="17" height="16" viewBox="0 0 17 16" fill="none" xmlns="http://www.w3.org/2000/svg">
<path d="M3.16663 7.81738C3.16663 7.56425 3.35473 7.35506 3.59878 7.32195L3.66663 7.31738L13.6666 7.31738C13.9428 7.31738 14.1666 7.54124 14.1666 7.81738C14.1666 8.07051 13.9785 8.27971 13.7345 8.31282L13.6666 8.31738H3.66663C3.39048 8.31738 3.16663 8.09353 3.16663 7.81738Z" fill="#1D1D42"/>
<path d="M9.28063 4.15563C9.08495 3.96079 9.08427 3.64421 9.27911 3.44853C9.45624 3.27063 9.73398 3.2539 9.93003 3.39871L9.98621 3.447L14.0195 7.463C14.198 7.64066 14.2142 7.9194 14.0682 8.11545L14.0196 8.1716L9.98624 12.1883C9.79058 12.3831 9.474 12.3825 9.27914 12.1868C9.102 12.0089 9.08643 11.7311 9.23207 11.5357L9.2806 11.4797L12.958 7.81712L9.28063 4.15563Z" fill="#1D1D42"/>
</svg>
