<svg width="20" height="20" viewBox="0 0 20 20" fill="none" xmlns="http://www.w3.org/2000/svg">
<path fill-rule="evenodd" clip-rule="evenodd" d="M1.66658 13.4001V6.59175C1.66658 3.65008 3.55908 1.66675 6.38325 1.66675H13.6082C16.4332 1.66675 18.3332 3.65008 18.3332 6.59175V13.4001C18.3332 16.3501 16.4332 18.3334 13.6082 18.3334H6.38325C3.55908 18.3334 1.66658 16.3501 1.66658 13.4001ZM10.6249 11.8917V6.60008C10.6249 6.25008 10.3416 5.97508 9.99991 5.97508C9.64991 5.97508 9.37491 6.25008 9.37491 6.60008V11.8917L7.31658 9.82508C7.19991 9.70842 7.03325 9.64175 6.87491 9.64175C6.71741 9.64175 6.55825 9.70842 6.43325 9.82508C6.19158 10.0667 6.19158 10.4667 6.43325 10.7084L9.55825 13.8501C9.79158 14.0834 10.2082 14.0834 10.4416 13.8501L13.5666 10.7084C13.8082 10.4667 13.8082 10.0667 13.5666 9.82508C13.3166 9.58342 12.9249 9.58342 12.6749 9.82508L10.6249 11.8917Z" fill="white" fill-opacity="0.5"/>
</svg>
