<svg width="21" height="20" viewBox="0 0 21 20" fill="none" xmlns="http://www.w3.org/2000/svg">
<path fill-rule="evenodd" clip-rule="evenodd" d="M18.8333 6.59996V13.4083C18.8333 16.35 16.9408 18.3333 14.1166 18.3333H6.89158C4.06658 18.3333 2.16658 16.35 2.16658 13.4083V6.59996C2.16658 3.64996 4.06658 1.66663 6.89158 1.66663H14.1166C16.9408 1.66663 18.8333 3.64996 18.8333 6.59996ZM9.87492 8.10829V13.4C9.87492 13.75 10.1583 14.025 10.4999 14.025C10.8499 14.025 11.1249 13.75 11.1249 13.4V8.10829L13.1833 10.175C13.2999 10.2916 13.4666 10.3583 13.6249 10.3583C13.7824 10.3583 13.9416 10.2916 14.0666 10.175C14.3083 9.93329 14.3083 9.53329 14.0666 9.29163L10.9416 6.14996C10.7083 5.91663 10.2916 5.91663 10.0583 6.14996L6.93325 9.29163C6.69158 9.53329 6.69158 9.93329 6.93325 10.175C7.18325 10.4166 7.57492 10.4166 7.82492 10.175L9.87492 8.10829Z" fill="white" fill-opacity="0.5"/>
</svg>
