<svg width="21" height="20" viewBox="0 0 21 20" fill="none" xmlns="http://www.w3.org/2000/svg">
<path fill-rule="evenodd" clip-rule="evenodd" d="M18.8333 6.60008V13.4084C18.8333 16.3501 16.9408 18.3334 14.1166 18.3334H6.89158C4.06658 18.3334 2.16658 16.3501 2.16658 13.4084V6.60008C2.16658 3.65008 4.06658 1.66675 6.89158 1.66675H14.1166C16.9408 1.66675 18.8333 3.65008 18.8333 6.60008ZM9.87492 8.10841V13.4001C9.87492 13.7501 10.1583 14.0251 10.4999 14.0251C10.8499 14.0251 11.1249 13.7501 11.1249 13.4001V8.10841L13.1833 10.1751C13.2999 10.2917 13.4666 10.3584 13.6249 10.3584C13.7824 10.3584 13.9416 10.2917 14.0666 10.1751C14.3083 9.93341 14.3083 9.53341 14.0666 9.29175L10.9416 6.15008C10.7083 5.91675 10.2916 5.91675 10.0583 6.15008L6.93325 9.29175C6.69158 9.53341 6.69158 9.93341 6.93325 10.1751C7.18325 10.4167 7.57492 10.4167 7.82492 10.1751L9.87492 8.10841Z" fill="#FF647C"/>
</svg>
