<svg width="33" height="32" viewBox="0 0 33 32" fill="none" xmlns="http://www.w3.org/2000/svg">
<g clip-path="url(#clip0_657_4796)">
<path d="M30.0792 9.32324L24.5 3.7334V26.1334H31.9667V13.8619C31.9667 12.1579 31.2872 10.5243 30.0792 9.32324Z" fill="#FFDCBF"/>
<path d="M5.39388 22.0513L1.1763 11.102C0.752839 10.0028 1.30059 8.7681 2.40029 8.34463L22.308 0.676363C23.4072 0.2529 24.6419 0.800652 25.0654 1.90036L29.2829 12.8497C29.7064 13.9489 29.1586 15.1836 28.0589 15.607L8.15175 23.2753C7.05199 23.6988 5.81787 23.1505 5.39388 22.0513Z" fill="#EC4F4F"/>
<path d="M26.5854 5.8457L2.71545 15.098L4.30481 19.2239L28.1758 9.97584L26.5854 5.8457Z" fill="#892B2B"/>
<path d="M1.03333 14.3999V2.66653C1.03333 1.48841 1.98853 0.533203 3.16665 0.533203H24.5C25.6781 0.533203 26.6333 1.48841 26.6333 2.66653V14.3998C26.6333 15.578 25.6781 16.5332 24.5 16.5332H3.16665C1.98853 16.5332 1.03333 15.578 1.03333 14.3999Z" fill="#71ABFF"/>
<path d="M24.5 0.533203H22.2334L6.23334 16.5332H24.5C25.6781 16.5332 26.6333 15.578 26.6333 14.3999V2.66653C26.6333 1.48841 25.6781 0.533203 24.5 0.533203Z" fill="#0076FA"/>
<path d="M5.29998 9.06641H3.16666V10.1331H5.29998V9.06641Z" fill="#0076FA"/>
<path d="M5.29998 12.2666H3.16666V13.3333H5.29998V12.2666Z" fill="#0076FA"/>
<path d="M14.9 12.2666H12.7667V13.3333H14.9V12.2666Z" fill="#0076FA"/>
<path d="M8.5 9.06641H6.36667V10.1331H8.5V9.06641Z" fill="#0076FA"/>
<path d="M11.7 9.06641H9.56668V10.1331H11.7V9.06641Z" fill="#0076FA"/>
<path d="M14.9 9.06641H12.7667V10.1331H14.9V9.06641Z" fill="#0076FA"/>
<path d="M23.9667 2.66699H22.9V4.267H23.9667V2.66699Z" fill="#0076FA"/>
<path d="M21.8334 2.66699H20.7667V4.267H21.8334V2.66699Z" fill="#0076FA"/>
<path d="M19.7 2.66699H18.6333V4.267H19.7V2.66699Z" fill="#0076FA"/>
<path d="M17.5667 2.66699H16.5V4.267H17.5667V2.66699Z" fill="#0076FA"/>
<path d="M31.9667 26.1338H22.3667V31.4671H31.9667V26.1338Z" fill="#ADDF48"/>
<path d="M20.8013 10.1684C19.8968 9.26707 18.4328 9.26974 17.5314 10.1743C16.66 11.049 16.6296 12.4543 17.4626 13.3658L21.8333 18.1338C20.5197 20.433 20.5757 23.2682 21.9789 25.5135L22.3666 26.1338H29.3V18.6671L20.8013 10.1684Z" fill="#FFDCBF"/>
<path d="M25.0334 27.7334H23.9667V28.8001H25.0334V27.7334Z" fill="#1D1D42"/>
<path d="M3.16666 6.08031V3.52032C3.16666 3.04883 3.5485 2.66699 4.01999 2.66699H6.57998C7.05147 2.66699 7.43331 3.04883 7.43331 3.52032V6.08031C7.43331 6.5518 7.05147 6.93364 6.57998 6.93364H4.02004C3.54855 6.93364 3.16666 6.55175 3.16666 6.08031Z" fill="#FFCD08"/>
<path d="M4.76666 4.2666H3.16666V5.33329H4.76666V4.2666Z" fill="#FD7B2F"/>
<path d="M7.43335 4.2666H5.83334V5.33329H7.43335V4.2666Z" fill="#FD7B2F"/>
<path d="M28.7667 18.6669C28.6253 18.6669 28.4893 18.6109 28.3896 18.5107L26.2563 16.3774C26.0515 16.1656 26.0574 15.828 26.2696 15.6232C26.4766 15.4238 26.804 15.4238 27.0104 15.6232L29.1437 17.7565C29.3517 17.9651 29.3517 18.3027 29.1437 18.5107C29.0435 18.6109 28.908 18.6669 28.7667 18.6669Z" fill="#FFDCBF"/>
<path d="M27.1667 5.65015V2.66664C27.1651 1.19465 25.972 0.0015746 24.5 0H3.16664C1.69465 0.0015746 0.501575 1.19465 0.5 2.66664V14.4C0.504251 15.7621 1.53625 16.9008 2.89146 17.0389L4.89624 22.2432C5.42583 23.6176 6.96879 24.3024 8.34316 23.7728L20.8626 18.9504C19.9975 21.2101 20.2434 23.7446 21.5272 25.7957L21.8333 26.2859V31.4667C21.8333 31.7611 22.0722 32 22.3666 32H31.9666C32.261 32 32.4999 31.7611 32.4999 31.4667V13.8619C32.4952 12.0176 31.7607 10.2507 30.4567 8.94611L27.1667 5.65015ZM27.1667 8.83946L28.7854 13.0416C29.1027 13.8661 28.6916 14.792 27.867 15.1093L26.9416 15.4667C27.0894 15.1306 27.1662 14.7675 27.1667 14.4V8.83946ZM1.56669 14.4V2.66664C1.56669 1.78292 2.28298 1.06664 3.1667 1.06664H24.5001C25.3838 1.06664 26.1001 1.78292 26.1001 2.66664V6.05651H26.0953L26.1001 6.06879V14.4C26.0958 14.4928 26.0841 14.5856 26.0638 14.6763L21.1785 9.79042C20.0542 8.69229 18.2531 8.71307 17.155 9.83734C16.1075 10.9093 16.0713 12.6096 17.0718 13.7254L19.1545 16H3.16664C2.28292 16 1.56669 15.2837 1.56669 14.4ZM8.39921 17.0667L4.60667 18.527L4.04559 17.0667H8.39921ZM7.95974 22.7776C7.13523 23.0955 6.20936 22.6843 5.8915 21.8597L4.99177 19.5199L11.3582 17.0666V17.0635H20.132L20.8254 17.8192L7.95974 22.7776ZM31.4334 30.9334H22.9V26.6667H31.4334V30.9334ZM31.4334 25.6H22.6627L22.4312 25.2304C21.1309 23.1526 21.0792 20.5275 22.2962 18.4C22.4115 18.1984 22.3832 17.9461 22.2264 17.7749L17.8557 13.0069C17.1933 12.2816 17.244 11.1568 17.9693 10.4938C18.6706 9.8533 19.7517 9.87676 20.4242 10.5472L28.9229 19.0437L29.677 18.2896L27.7036 16.3163L28.2509 16.1029C29.6242 15.5733 30.3085 14.0315 29.7799 12.6576L27.9746 7.97007L29.7026 9.70129C30.8066 10.8048 31.429 12.3008 31.4333 13.8618L31.4334 25.6Z" fill="#1D1D42"/>
<path d="M6.58003 7.46708C7.34592 7.46708 7.96668 6.84626 7.96668 6.08043V3.52044C7.96668 2.75455 7.34587 2.13379 6.58003 2.13379H4.02004C3.25415 2.13379 2.63339 2.7546 2.63339 3.52044V6.08043C2.63339 6.84632 3.25421 7.46708 4.02004 7.46708H6.58003ZM3.70003 6.08043V5.33375H4.76667V4.26706H3.70003V3.52044C3.70003 3.34393 3.84348 3.20043 4.02004 3.20043H6.58003C6.75655 3.20043 6.90004 3.34387 6.90004 3.52044V4.26706H5.83336V5.33375H6.90004V6.08043C6.90004 6.25694 6.7566 6.40044 6.58003 6.40044H4.02004C3.84348 6.40039 3.70003 6.25694 3.70003 6.08043Z" fill="#1D1D42"/>
<path d="M5.29998 9.06641H3.16666V10.1331H5.29998V9.06641Z" fill="#1D1D42"/>
<path d="M5.29998 12.2666H3.16666V13.3333H5.29998V12.2666Z" fill="#1D1D42"/>
<path d="M14.9 12.2666H12.7667V13.3333H14.9V12.2666Z" fill="#1D1D42"/>
<path d="M8.5 9.06641H6.36667V10.1331H8.5V9.06641Z" fill="#1D1D42"/>
<path d="M11.7 9.06641H9.56668V10.1331H11.7V9.06641Z" fill="#1D1D42"/>
<path d="M14.9 9.06641H12.7667V10.1331H14.9V9.06641Z" fill="#1D1D42"/>
<path d="M23.9667 2.66699H22.9V4.267H23.9667V2.66699Z" fill="#1D1D42"/>
<path d="M21.8334 2.66699H20.7667V4.267H21.8334V2.66699Z" fill="#1D1D42"/>
<path d="M19.7 2.66699H18.6333V4.267H19.7V2.66699Z" fill="#1D1D42"/>
<path d="M17.5667 2.66699H16.5V4.267H17.5667V2.66699Z" fill="#1D1D42"/>
<path d="M25.0334 27.7334H23.9667V28.8001H25.0334V27.7334Z" fill="#1D1D42"/>
</g>
<defs>
<clipPath id="clip0_657_4796">
<rect width="32" height="32" fill="white" transform="translate(0.5)"/>
</clipPath>
</defs>
</svg>
