<svg width="28" height="28" viewBox="0 0 28 28" fill="none" xmlns="http://www.w3.org/2000/svg">
<rect width="28" height="28" rx="14" fill="#F7931A"/>
<path d="M20.1743 12.0054C20.4526 10.1423 19.0341 9.14076 17.0942 8.47266L17.7242 5.94909L16.1875 5.56632L15.5738 8.02353C15.1703 7.92301 14.7556 7.82753 14.3434 7.734L14.9594 5.26056L13.4243 4.87778L12.7961 7.40037L9.69753 6.63287L9.28872 8.27386C9.28872 8.27386 10.4286 8.5351 10.4045 8.55134C11.0267 8.70675 11.1396 9.11836 11.1205 9.44485L9.39652 16.3582C9.32036 16.5472 9.12743 16.8306 8.69258 16.7222C8.70798 16.7446 7.57591 16.4422 7.57591 16.4422L6.81317 18.2033L9.90725 18.9846L9.27136 21.5375L10.8058 21.9203L11.4358 19.3948C11.8558 19.5085 12.2618 19.6135 12.6597 19.7123L12.0322 22.2261L13.5686 22.6088L14.2045 20.0608C16.8244 20.5564 18.7946 20.3565 19.6227 17.9887C20.2908 16.0812 19.5899 14.9807 18.2114 14.2628C19.2153 14.0304 19.9713 13.3704 20.173 12.0064L20.1743 12.0054ZM16.663 16.9278C16.187 18.8353 12.976 17.8045 11.9341 17.5455L12.7778 14.1637C13.8191 14.4235 17.1583 14.9382 16.6636 16.9275L16.663 16.9278ZM17.1396 11.9784C16.7064 13.7144 14.0327 12.8324 13.165 12.6159L13.9289 9.54789C14.7969 9.76462 17.5901 10.1681 17.1385 11.9782" fill="white"/>
</svg>
