<svg width="33" height="32" viewBox="0 0 33 32" fill="none" xmlns="http://www.w3.org/2000/svg">
<g clip-path="url(#clip0_323_1128)">
<path d="M32.5 16C32.5 21.4923 29.7323 26.3386 25.5155 29.2199C22.9483 30.9741 19.8443 32 16.5 32C15.0417 32 13.6298 31.8048 12.2871 31.4397C11.6674 31.2712 11.0626 31.0655 10.4749 30.8264C4.62475 28.4467 0.5 22.705 0.5 16C0.5 7.16344 7.66344 0 16.5 0C25.3366 0 32.5 7.16344 32.5 16Z" fill="#374266"/>
<path d="M26.7823 1.66113H6.21732C5.02569 1.66113 4.05969 2.62713 4.05969 3.81876V14.5884C4.05969 15.78 5.02569 16.746 6.21732 16.746H26.7823C27.9739 16.746 28.9399 15.78 28.9399 14.5884V3.81876C28.9399 2.62713 27.9739 1.66113 26.7823 1.66113Z" fill="#FFE261"/>
<path d="M25.972 22.6931V26.4312C25.972 27.3494 25.8165 28.3075 25.5155 29.2198C22.9483 30.9739 19.8443 31.9999 16.5 31.9999C14.3684 31.9999 12.3347 31.5832 10.4749 30.8263C9.5658 28.8005 9.55467 26.5415 9.55467 26.5415C9.55467 26.5207 9.55336 24.6032 9.07861 23.7464C8.58292 22.853 8.90492 21.7272 9.79892 21.2309C10.693 20.7352 11.8189 21.0578 12.3145 21.9512C12.9323 23.0653 13.008 23.6165 13.008 23.6165V14.923C13.008 14.4763 13.1889 14.0707 13.4828 13.7775C13.776 13.4836 14.1815 13.3027 14.6282 13.3027C15.5229 13.3027 16.2478 14.0276 16.2485 14.9217V20.6595C16.2485 19.7648 16.974 19.0392 17.8694 19.0392C18.3167 19.0392 18.7216 19.2208 19.0149 19.514C19.3081 19.8072 19.4896 20.2121 19.4896 20.6595V21.0729C19.4896 20.6255 19.6712 20.22 19.9644 19.9267C20.2576 19.6335 20.6625 19.452 21.1105 19.452C21.5579 19.452 21.9627 19.6335 22.256 19.9267C22.5492 20.22 22.7307 20.6255 22.7307 21.0729V22.6931C22.7307 21.7984 23.4563 21.0729 24.3516 21.0729C24.799 21.0729 25.2039 21.2544 25.4971 21.5476C25.7904 21.8409 25.972 22.2457 25.972 22.6931Z" fill="#FFDCBF"/>
<path d="M13.7845 26.6005C13.3611 26.62 13.008 26.2794 13.008 25.8555V14.923C13.008 14.4756 13.1896 14.0707 13.4828 13.7775C13.7766 13.4836 14.1815 13.3027 14.6289 13.3027C14.8999 13.3027 15.1559 13.3694 15.3799 13.4875C15.2336 13.5633 15.1004 13.6619 14.9848 13.7775C14.6915 14.0707 14.51 14.4756 14.51 14.923V25.855C14.51 26.2511 14.2004 26.5802 13.8048 26.5996C13.7981 26.5999 13.7913 26.6002 13.7845 26.6005Z" fill="#FCBB8D"/>
<path d="M17.0253 23.9255C16.6019 23.9449 16.2488 23.6043 16.2488 23.1804V20.6593C16.2488 20.2119 16.4304 19.8071 16.7236 19.5138C17.0174 19.2199 17.4223 19.0391 17.8697 19.0391C18.1407 19.0391 18.3967 19.1057 18.6207 19.2239C18.4744 19.2996 18.3412 19.3982 18.2256 19.5138C17.9323 19.8071 17.7508 20.2119 17.7508 20.6593V23.1799C17.7508 23.576 17.4413 23.9051 17.0456 23.9245C17.0389 23.9249 17.0321 23.9252 17.0253 23.9255Z" fill="#FCBB8D"/>
<path d="M20.2664 23.3589C19.843 23.3783 19.4899 23.0377 19.4899 22.6139V21.0724C19.4899 20.625 19.6715 20.2201 19.9647 19.9269C20.2586 19.633 20.6634 19.4521 21.1108 19.4521C21.3818 19.4521 21.6378 19.5188 21.8618 19.637C21.7155 19.7127 21.5823 19.8113 21.4667 19.9269C21.1734 20.2201 20.9919 20.625 20.9919 21.0724V22.6133C20.9919 23.0094 20.6824 23.3385 20.2867 23.3579C20.2801 23.3582 20.2733 23.3585 20.2664 23.3589Z" fill="#FCBB8D"/>
<path d="M23.5076 24.0004C23.0841 24.0198 22.7311 23.6792 22.7311 23.2553V22.6935C22.7311 22.2461 22.9126 21.8412 23.2058 21.548C23.4997 21.2541 23.9046 21.0732 24.3519 21.0732C24.6229 21.0732 24.8789 21.1399 25.1029 21.2581C24.9566 21.3338 24.8234 21.4324 24.7078 21.548C24.4146 21.8412 24.2331 22.2461 24.2331 22.6935V23.2548C24.2331 23.6509 23.9235 23.98 23.5278 23.9994C23.5211 23.9997 23.5143 24.0001 23.5076 24.0004Z" fill="#FCBB8D"/>
<path d="M12.2871 31.4394C11.6674 31.2709 11.0626 31.0652 10.4749 30.8262C9.56582 28.8004 9.55538 26.5414 9.55538 26.5414C9.55538 26.531 9.55476 24.6044 9.07863 23.7457C8.58294 22.8529 8.90557 21.7264 9.79895 21.2307C10.3266 20.9382 10.9359 20.9303 11.4479 21.1576C11.3983 21.1798 11.3493 21.204 11.301 21.2307C10.4076 21.7264 10.085 22.8529 10.5807 23.7457C11.0568 24.6044 11.0574 26.531 11.0574 26.5414C11.0574 26.5414 11.0704 29.2876 12.2871 31.4394Z" fill="#FCBB8D"/>
<path d="M8.19287 5.77904C8.19287 5.48273 8.50012 5.3291 8.81837 5.3291H10.9364C12.0778 5.3291 13.1423 5.70223 13.1423 7.2606C13.1423 8.16054 12.7911 8.7531 12.2095 9.00554C12.8789 9.26891 13.3399 9.69691 13.3399 10.7944V11.0249C13.3399 12.7369 12.3852 13.3514 11.1451 13.3514H8.81843C8.43431 13.3514 8.19293 13.1429 8.19293 12.9124V5.77904H8.19287ZM9.60856 8.44579H10.8377C11.4302 8.44579 11.7156 8.06173 11.7156 7.50198C11.7156 6.93135 11.3864 6.5801 10.8267 6.5801H9.60862V8.44579H9.60856ZM10.8487 12.1003C11.5181 12.1003 11.9132 11.7382 11.9132 10.9041V10.7285C11.9132 9.87248 11.5181 9.56523 10.8487 9.56523H9.60856V12.1003H10.8487Z" fill="#F58D2C"/>
<path d="M18.1685 5.7681C18.1685 5.46085 18.5196 5.3291 18.8818 5.3291C19.2329 5.3291 19.5951 5.46085 19.5951 5.7681V10.9041C19.5951 12.7368 18.4318 13.4172 16.9613 13.4172C15.4797 13.4172 14.3274 12.7368 14.3274 10.9041V5.7681C14.3274 5.46085 14.6786 5.3291 15.0408 5.3291C15.3919 5.3291 15.7541 5.46085 15.7541 5.7681V10.9041C15.7541 11.76 16.204 12.1662 16.9612 12.1662C17.7185 12.1662 18.1684 11.7601 18.1684 10.9041V5.7681H18.1685Z" fill="#F58D2C"/>
<path d="M22.6569 10.1359C22.6569 10.081 22.6459 10.0262 22.624 9.99316L20.3523 6.06435C20.3304 6.00948 20.3194 5.95466 20.3194 5.92166C20.3194 5.57054 20.8791 5.3291 21.2631 5.3291C21.4936 5.3291 21.6034 5.41685 21.7022 5.61441L23.3702 8.78598L25.0494 5.61441C25.1482 5.42785 25.2469 5.3291 25.4774 5.3291C25.8615 5.3291 26.4212 5.57054 26.4212 5.92166C26.4212 5.9546 26.4212 6.00941 26.3882 6.06435L24.1276 9.99316C24.1056 10.0261 24.0836 10.0809 24.0836 10.1359V12.9014C24.0836 13.1977 23.7325 13.3514 23.3703 13.3514C23.0192 13.3514 22.657 13.1977 22.657 12.9014L22.6569 10.1359Z" fill="#F58D2C"/>
</g>
<defs>
<clipPath id="clip0_323_1128">
<rect width="32" height="32" fill="white" transform="translate(0.5)"/>
</clipPath>
</defs>
</svg>
