<svg width="20" height="20" viewBox="0 0 20 20" fill="none" xmlns="http://www.w3.org/2000/svg">
<path fill-rule="evenodd" clip-rule="evenodd" d="M4.06247 4.375C3.19952 4.375 2.49997 5.07455 2.49997 5.9375V14.0625C2.49997 14.9254 3.19952 15.625 4.06247 15.625H15.9375C16.8004 15.625 17.5 14.9254 17.5 14.0625V5.9375C17.5 5.07455 16.8004 4.375 15.9375 4.375H4.06247ZM1.24997 5.9375C1.24997 4.3842 2.50917 3.125 4.06247 3.125H15.9375C17.4908 3.125 18.75 4.3842 18.75 5.9375V14.0625C18.75 15.6158 17.4908 16.875 15.9375 16.875H4.06247C2.50917 16.875 1.24997 15.6158 1.24997 14.0625V5.9375Z" fill="#F6F6F6"/>
<path fill-rule="evenodd" clip-rule="evenodd" d="M18.125 8.67187H1.87497V6.32812H18.125V8.67187Z" fill="#F6F6F6"/>
<rect x="3.82812" y="11.875" width="5" height="1.83333" rx="0.916667" fill="#F6F6F6"/>
</svg>
