<svg width="20" height="20" viewBox="0 0 20 20" fill="none" xmlns="http://www.w3.org/2000/svg">
<path fill-rule="evenodd" clip-rule="evenodd" d="M9.99996 18.3334C5.39996 18.3334 1.66663 14.6084 1.66663 10.0001C1.66663 5.40008 5.39996 1.66675 9.99996 1.66675C14.6083 1.66675 18.3333 5.40008 18.3333 10.0001C18.3333 14.6084 14.6083 18.3334 9.99996 18.3334ZM12.6583 13.0917C12.7583 13.1501 12.8666 13.1834 12.9833 13.1834C13.1916 13.1834 13.4 13.0751 13.5166 12.8751C13.6916 12.5834 13.6 12.2001 13.3 12.0167L10.3333 10.2501V6.40008C10.3333 6.05008 10.05 5.77508 9.70829 5.77508C9.36663 5.77508 9.08329 6.05008 9.08329 6.40008V10.6084C9.08329 10.8251 9.19996 11.0251 9.39163 11.1417L12.6583 13.0917Z" fill="#EC4F4F"/>
</svg>
