<svg width="20" height="20" viewBox="0 0 20 20" fill="none" xmlns="http://www.w3.org/2000/svg">
<path fill-rule="evenodd" clip-rule="evenodd" d="M9.77343 18.2617C9.86571 18.3099 9.9689 18.3344 10.0721 18.3336C10.1753 18.3328 10.2776 18.3075 10.3708 18.2584L13.344 16.669C14.1871 16.2196 14.8474 15.717 15.3625 15.1319C16.4825 13.8572 17.0941 12.2302 17.0832 10.5525L17.0479 5.01864C17.0446 4.38125 16.626 3.8125 16.0068 3.60576L10.4756 1.74996C10.1426 1.63719 9.77762 1.63964 9.45043 1.75568L3.94022 3.67767C3.32443 3.89258 2.91335 4.46542 2.9167 5.10363L2.95194 10.6334C2.96284 12.3135 3.59541 13.9332 4.73386 15.1949C5.25401 15.7718 5.92014 16.267 6.77251 16.7091L9.77343 18.2617ZM8.98632 11.7578C9.11049 11.8771 9.27156 11.9359 9.43264 11.9343C9.59372 11.9335 9.75396 11.873 9.87645 11.752L13.1257 8.54874C13.3698 8.30767 13.3673 7.92033 13.1207 7.68254C12.8732 7.44474 12.4747 7.44638 12.2305 7.68744L9.42341 10.4544L8.27405 9.34957C8.02656 9.11177 7.6289 9.11422 7.38393 9.35529C7.1398 9.59635 7.14231 9.98369 7.3898 10.2215L8.98632 11.7578Z" fill="#36FFB5"/>
</svg>
