<svg width="12" height="12" viewBox="0 0 12 12" fill="none" xmlns="http://www.w3.org/2000/svg">
<path fill-rule="evenodd" clip-rule="evenodd" d="M10.3333 4.95215H1.42126C1.21426 4.95215 1.04626 4.78415 1.04626 4.57715C1.04626 4.37015 1.21426 4.20215 1.42126 4.20215H10.3333C10.5403 4.20215 10.7083 4.37015 10.7083 4.57715C10.7083 4.78415 10.5403 4.95215 10.3333 4.95215Z" fill="#36FFB5"/>
<path fill-rule="evenodd" clip-rule="evenodd" d="M8.10063 6.90479C7.89363 6.90479 7.72363 6.73679 7.72363 6.52979C7.72363 6.32279 7.88913 6.15479 8.09613 6.15479H8.10063C8.30763 6.15479 8.47563 6.32279 8.47563 6.52979C8.47563 6.73679 8.30763 6.90479 8.10063 6.90479Z" fill="#36FFB5"/>
<path fill-rule="evenodd" clip-rule="evenodd" d="M5.88188 6.90479C5.67488 6.90479 5.50488 6.73679 5.50488 6.52979C5.50488 6.32279 5.67038 6.15479 5.87738 6.15479H5.88188C6.08888 6.15479 6.25688 6.32279 6.25688 6.52979C6.25688 6.73679 6.08888 6.90479 5.88188 6.90479Z" fill="#36FFB5"/>
<path fill-rule="evenodd" clip-rule="evenodd" d="M3.65851 6.90479C3.45151 6.90479 3.28101 6.73679 3.28101 6.52979C3.28101 6.32279 3.44701 6.15479 3.65401 6.15479H3.65851C3.86551 6.15479 4.03351 6.32279 4.03351 6.52979C4.03351 6.73679 3.86551 6.90479 3.65851 6.90479Z" fill="#36FFB5"/>
<path fill-rule="evenodd" clip-rule="evenodd" d="M8.10063 8.84814C7.89363 8.84814 7.72363 8.68014 7.72363 8.47314C7.72363 8.26614 7.88913 8.09814 8.09613 8.09814H8.10063C8.30763 8.09814 8.47563 8.26614 8.47563 8.47314C8.47563 8.68014 8.30763 8.84814 8.10063 8.84814Z" fill="#36FFB5"/>
<path fill-rule="evenodd" clip-rule="evenodd" d="M5.88188 8.84814C5.67488 8.84814 5.50488 8.68014 5.50488 8.47314C5.50488 8.26614 5.67038 8.09814 5.87738 8.09814H5.88188C6.08888 8.09814 6.25688 8.26614 6.25688 8.47314C6.25688 8.68014 6.08888 8.84814 5.88188 8.84814Z" fill="#36FFB5"/>
<path fill-rule="evenodd" clip-rule="evenodd" d="M3.65851 8.84814C3.45151 8.84814 3.28101 8.68014 3.28101 8.47314C3.28101 8.26614 3.44701 8.09814 3.65401 8.09814H3.65851C3.86551 8.09814 4.03351 8.26614 4.03351 8.47314C4.03351 8.68014 3.86551 8.84814 3.65851 8.84814Z" fill="#36FFB5"/>
<path fill-rule="evenodd" clip-rule="evenodd" d="M7.89673 2.8955C7.68973 2.8955 7.52173 2.7275 7.52173 2.5205V0.875C7.52173 0.668 7.68973 0.5 7.89673 0.5C8.10373 0.5 8.27173 0.668 8.27173 0.875V2.5205C8.27173 2.7275 8.10373 2.8955 7.89673 2.8955Z" fill="#36FFB5"/>
<path fill-rule="evenodd" clip-rule="evenodd" d="M3.85767 2.8955C3.65067 2.8955 3.48267 2.7275 3.48267 2.5205V0.875C3.48267 0.668 3.65067 0.5 3.85767 0.5C4.06467 0.5 4.23267 0.668 4.23267 0.875V2.5205C4.23267 2.7275 4.06467 2.8955 3.85767 2.8955Z" fill="#36FFB5"/>
<mask id="mask0_253_15387" style="mask-type:alpha" maskUnits="userSpaceOnUse" x="1" y="1" width="10" height="11">
<path fill-rule="evenodd" clip-rule="evenodd" d="M1 1.28955H10.75V11.25H1V1.28955Z" fill="white"/>
</mask>
<g mask="url(#mask0_253_15387)">
<path fill-rule="evenodd" clip-rule="evenodd" d="M3.7605 2.03955C2.464 2.03955 1.75 2.73105 1.75 3.98655V8.51105C1.75 9.79405 2.464 10.5001 3.7605 10.5001H7.9895C9.286 10.5001 10 9.80705 10 8.54905V3.98655C10.002 3.36905 9.836 2.88905 9.5065 2.55905C9.1675 2.21905 8.645 2.03955 7.994 2.03955H3.7605ZM7.9895 11.2501H3.7605C2.058 11.2501 1 10.2006 1 8.51105V3.98655C1 2.32255 2.058 1.28955 3.7605 1.28955H7.994C8.8485 1.28955 9.555 1.54555 10.0375 2.02905C10.506 2.49955 10.7525 3.17605 10.75 3.98755V8.54905C10.75 10.2151 9.692 11.2501 7.9895 11.2501Z" fill="#36FFB5"/>
</g>
</svg>
