<svg width="20" height="20" viewBox="0 0 20 20" fill="none" xmlns="http://www.w3.org/2000/svg">
<mask id="mask0_97_9494" style="mask-type:alpha" maskUnits="userSpaceOnUse" x="0" y="0" width="20" height="20">
<rect width="20" height="20" fill="#D9D9D9"/>
</mask>
<g mask="url(#mask0_97_9494)">
<path d="M4.16667 18.3333C3.70833 18.3333 3.31583 18.1702 2.98917 17.8441C2.66306 17.5175 2.5 17.125 2.5 16.6666V4.99996H4.16667V16.6666H13.3333V18.3333H4.16667ZM7.5 15C7.04167 15 6.64944 14.8369 6.32333 14.5108C5.99667 14.1841 5.83333 13.7916 5.83333 13.3333V3.33329C5.83333 2.87496 5.99667 2.48246 6.32333 2.15579C6.64944 1.82968 7.04167 1.66663 7.5 1.66663H15C15.4583 1.66663 15.8508 1.82968 16.1775 2.15579C16.5036 2.48246 16.6667 2.87496 16.6667 3.33329V13.3333C16.6667 13.7916 16.5036 14.1841 16.1775 14.5108C15.8508 14.8369 15.4583 15 15 15H7.5ZM7.5 13.3333H15V3.33329H7.5V13.3333Z" fill="#FFCD08"/>
</g>
</svg>
