<svg width="40" height="40" viewBox="0 0 40 40" fill="none" xmlns="http://www.w3.org/2000/svg">
<path fill-rule="evenodd" clip-rule="evenodd" d="M11.9901 8.05247C12.66 6.83493 13.3888 6.02102 14.4702 5.59059C16.4519 4.80262 23.5492 4.80262 25.5293 5.59075C26.6102 6.02094 27.3392 6.83471 28.0097 8.05201L28.7633 9.49726C28.7806 9.52589 28.7964 9.55107 28.8107 9.57275L28.8747 9.66026C29.2181 10.0344 29.7927 10.2605 30.1721 10.2605C33.7588 10.2605 36.6671 13.1681 36.6671 16.7538V26.4121C36.6671 30.9858 32.9574 34.6955 28.3837 34.6955H11.6171C7.04225 34.6955 3.33374 30.9864 3.33374 26.4121V16.7538C3.33374 13.1681 6.24204 10.2605 9.82874 10.2605C10.2067 10.2605 10.7822 10.0341 11.1261 9.66026C11.133 9.65277 11.142 9.64162 11.1528 9.62686L11.2385 9.49539L11.9901 8.05247ZM25.8198 9.2581C25.4032 8.50171 25.0267 8.08145 24.6048 7.91352L24.4059 7.84741C22.6907 7.3626 16.7244 7.38464 15.3943 7.91352C14.9726 8.08136 14.5965 8.50139 14.1804 9.25764L13.539 10.4978L13.3811 10.7835C13.2493 11.0027 13.1175 11.1878 12.967 11.3518C12.1229 12.2693 10.8742 12.7605 9.82874 12.7605L9.55525 12.7697C7.47666 12.9102 5.83374 14.6408 5.83374 16.7538V26.4121C5.83374 29.6057 8.42305 32.1955 11.6171 32.1955H28.3837C31.5767 32.1955 34.1671 29.6051 34.1671 26.4121V16.7538C34.1671 14.549 32.3782 12.7605 30.1721 12.7605L29.8819 12.7483C28.901 12.6676 27.7992 12.1857 27.0328 11.3507C26.8843 11.1888 26.7532 11.0051 26.6222 10.7878C26.6034 10.7566 26.58 10.7155 26.5532 10.6669L26.3597 10.304L25.8198 9.2581Z" fill="white"/>
<path d="M29.1743 14.1666C30.0948 14.1666 30.841 14.9128 30.841 15.8333C30.841 16.688 30.1976 17.3925 29.3687 17.4887L29.1743 17.5C28.2389 17.5 27.4927 16.7538 27.4927 15.8333C27.4927 14.9786 28.1361 14.2741 28.965 14.1778L29.1743 14.1666Z" fill="white"/>
<path fill-rule="evenodd" clip-rule="evenodd" d="M13.4517 21.88C13.4517 18.263 16.383 15.3317 20 15.3317C23.617 15.3317 26.5483 18.263 26.5483 21.88C26.5483 25.497 23.617 28.4283 20 28.4283C16.383 28.4283 13.4517 25.497 13.4517 21.88ZM24.0483 21.88C24.0483 19.6437 22.2363 17.8317 20 17.8317C17.7637 17.8317 15.9517 19.6437 15.9517 21.88C15.9517 24.1163 17.7637 25.9283 20 25.9283C22.2363 25.9283 24.0483 24.1163 24.0483 21.88Z" fill="white"/>
</svg>
