<svg width="29" height="28" viewBox="0 0 29 28" fill="none" xmlns="http://www.w3.org/2000/svg">
<circle cx="14.5" cy="14" r="14" fill="#FFCD08"/>
<path fill-rule="evenodd" clip-rule="evenodd" d="M11.296 9.22113C11.564 8.73412 11.8555 8.40855 12.2881 8.23638C13.0808 7.9212 15.9197 7.9212 16.7117 8.23645C17.1441 8.40852 17.4357 8.73403 17.7039 9.22095L18.0053 9.79905C18.0122 9.8105 18.0186 9.82058 18.0243 9.82924L18.0499 9.86425C18.1872 10.0139 18.4171 10.1043 18.5688 10.1043C20.0035 10.1043 21.1668 11.2674 21.1668 12.7017V16.565C21.1668 18.3945 19.683 19.8783 17.8535 19.8783H11.1468C9.3169 19.8783 7.8335 18.3947 7.8335 16.565V12.7017C7.8335 11.2674 8.99681 10.1043 10.4315 10.1043C10.5827 10.1043 10.8129 10.0138 10.9505 9.86425C10.9532 9.86125 10.9568 9.85679 10.9611 9.85089L10.9954 9.7983L11.296 9.22113ZM16.8279 9.70339C16.6613 9.40083 16.5107 9.23273 16.3419 9.16556L16.2624 9.13911C15.5763 8.94519 13.1898 8.954 12.6577 9.16556C12.4891 9.23269 12.3386 9.4007 12.1722 9.7032L11.9156 10.1993L11.8525 10.3136C11.7997 10.4012 11.747 10.4753 11.6868 10.5409C11.3492 10.9079 10.8497 11.1043 10.4315 11.1043L10.3221 11.108C9.49066 11.1642 8.8335 11.8565 8.8335 12.7017V16.565C8.8335 17.8424 9.86922 18.8783 11.1468 18.8783H17.8535C19.1307 18.8783 20.1668 17.8422 20.1668 16.565V12.7017C20.1668 11.8197 19.4513 11.1043 18.5688 11.1043L18.4528 11.0995C18.0604 11.0672 17.6197 10.8744 17.3131 10.5404C17.2537 10.4757 17.2013 10.4022 17.1489 10.3152C17.1413 10.3028 17.132 10.2864 17.1213 10.2669L17.0439 10.1218L16.8279 9.70339Z" fill="#1D1D42"/>
<path d="M18.1697 11.667C18.5379 11.667 18.8364 11.9655 18.8364 12.3337C18.8364 12.6755 18.579 12.9573 18.2475 12.9958L18.1697 13.0003C17.7955 13.0003 17.4971 12.7018 17.4971 12.3337C17.4971 11.9918 17.7544 11.71 18.086 11.6715L18.1697 11.667Z" fill="#1D1D42"/>
<path fill-rule="evenodd" clip-rule="evenodd" d="M11.8806 14.7521C11.8806 13.3053 13.0531 12.1328 14.4999 12.1328C15.9468 12.1328 17.1193 13.3053 17.1193 14.7521C17.1193 16.199 15.9468 17.3715 14.4999 17.3715C13.0531 17.3715 11.8806 16.199 11.8806 14.7521ZM16.1193 14.7521C16.1193 13.8576 15.3945 13.1328 14.4999 13.1328C13.6054 13.1328 12.8806 13.8576 12.8806 14.7521C12.8806 15.6467 13.6054 16.3715 14.4999 16.3715C15.3945 16.3715 16.1193 15.6467 16.1193 14.7521Z" fill="#1D1D42"/>
</svg>
