<svg width="49" height="48" viewBox="0 0 49 48" fill="none" xmlns="http://www.w3.org/2000/svg">
<rect x="0.5" width="48" height="48" rx="12" fill="#151530"/>
<path fill-rule="evenodd" clip-rule="evenodd" d="M24.2055 34.7398C24.3254 34.8025 24.4596 34.8344 24.5937 34.8333C24.7279 34.8322 24.8609 34.7993 24.982 34.7356L28.8472 32.6693C29.9433 32.0851 30.8016 31.4317 31.4713 30.6711C32.9272 29.0139 33.7223 26.8988 33.7081 24.7179L33.6623 17.5238C33.658 16.6952 33.1137 15.9558 32.3089 15.6871L25.1183 13.2745C24.6853 13.1279 24.2109 13.1311 23.7856 13.282L16.6223 15.7805C15.8218 16.0599 15.2874 16.8046 15.2917 17.6343L15.3375 24.823C15.3517 27.0072 16.174 29.1127 17.654 30.7529C18.3302 31.5029 19.1962 32.1467 20.3043 32.7214L24.2055 34.7398ZM23.1822 26.2847C23.3436 26.4398 23.553 26.5163 23.7624 26.5141C23.9718 26.5131 24.1802 26.4345 24.3394 26.2772L28.5634 22.1129C28.8808 21.7996 28.8775 21.296 28.5569 20.9869C28.2351 20.6777 27.7171 20.6799 27.3997 20.9933L23.7504 24.5903L22.2563 23.154C21.9345 22.8449 21.4176 22.8481 21.0991 23.1615C20.7817 23.4748 20.785 23.9784 21.1068 24.2875L23.1822 26.2847Z" fill="#36FFB5"/>
</svg>
