<svg width="20" height="20" viewBox="0 0 20 20" fill="none" xmlns="http://www.w3.org/2000/svg">
<path fill-rule="evenodd" clip-rule="evenodd" d="M9.77349 18.2613C9.86578 18.3096 9.96897 18.3341 10.0722 18.3333C10.1753 18.3324 10.2777 18.3071 10.3708 18.2581L13.3441 16.6687C14.1872 16.2192 14.8475 15.7167 15.3626 15.1316C16.4826 13.8568 17.0942 12.2298 17.0833 10.5522L17.048 5.01828C17.0447 4.38089 16.626 3.81213 16.0069 3.60539L10.4757 1.7496C10.1426 1.63683 9.77769 1.63928 9.4505 1.75532L3.94029 3.6773C3.3245 3.89222 2.91341 4.46505 2.91677 5.10326L2.952 10.6331C2.96291 12.3132 3.59548 13.9328 4.73393 15.1945C5.25408 15.7714 5.9202 16.2666 6.77258 16.7087L9.77349 18.2613ZM8.98639 11.7574C9.11055 11.8767 9.27163 11.9355 9.43271 11.9339C9.59379 11.9331 9.75403 11.8726 9.87651 11.7517L13.1258 8.54837C13.3699 8.30731 13.3674 7.91997 13.1207 7.68217C12.8732 7.44438 12.4747 7.44601 12.2306 7.68708L9.42348 10.454L8.27412 9.3492C8.02663 9.1114 7.62897 9.11385 7.384 9.35492C7.13986 9.59599 7.14238 9.98332 7.38987 10.2211L8.98639 11.7574Z" fill="white" fill-opacity="0.5"/>
</svg>
