<svg width="49" height="48" viewBox="0 0 49 48" fill="none" xmlns="http://www.w3.org/2000/svg">
<rect x="0.5" width="48" height="48" rx="12" fill="#151530"/>
<path fill-rule="evenodd" clip-rule="evenodd" d="M33.6024 25.7117C33.9899 25.9176 34.2888 26.2426 34.4992 26.5676C34.9088 27.2392 34.8756 28.0626 34.4771 28.7884L33.7021 30.0884C33.2924 30.7817 32.5285 31.2151 31.7425 31.2151C31.355 31.2151 30.9232 31.1067 30.5689 30.8901C30.2811 30.7059 29.9489 30.6409 29.5947 30.6409C28.4986 30.6409 27.5797 31.5401 27.5465 32.6126C27.5465 33.8584 26.5279 34.8334 25.2547 34.8334H23.7491C22.4648 34.8334 21.4462 33.8584 21.4462 32.6126C21.4241 31.5401 20.5052 30.6409 19.4091 30.6409C19.0438 30.6409 18.7117 30.7059 18.4349 30.8901C18.0806 31.1067 17.6378 31.2151 17.2613 31.2151C16.4642 31.2151 15.7003 30.7817 15.2907 30.0884L14.5267 28.7884C14.1171 28.0842 14.095 27.2392 14.5046 26.5676C14.6817 26.2426 15.0139 25.9176 15.3903 25.7117C15.7003 25.5601 15.8996 25.3109 16.0878 25.0184C16.6413 24.0867 16.3092 22.8626 15.3682 22.3101C14.2721 21.6926 13.9178 20.3167 14.5489 19.2442L15.2907 17.9659C15.9328 16.8934 17.3056 16.5142 18.4127 17.1426C19.3759 17.6626 20.627 17.3159 21.1916 16.3951C21.3687 16.0917 21.4684 15.7667 21.4462 15.4417C21.4241 15.0192 21.5459 14.6184 21.7562 14.2934C22.1659 13.6217 22.9076 13.1884 23.7158 13.1667H25.2769C26.0962 13.1667 26.8379 13.6217 27.2476 14.2934C27.4468 14.6184 27.5797 15.0192 27.5465 15.4417C27.5243 15.7667 27.624 16.0917 27.8011 16.3951C28.3657 17.3159 29.6168 17.6626 30.5911 17.1426C31.6871 16.5142 33.071 16.8934 33.7021 17.9659L34.4438 19.2442C35.086 20.3167 34.7317 21.6926 33.6246 22.3101C32.6835 22.8626 32.3514 24.0867 32.916 25.0184C33.0932 25.3109 33.2924 25.5601 33.6024 25.7117ZM21.3687 24.0109C21.3687 25.7117 22.7748 27.0659 24.513 27.0659C26.2511 27.0659 27.624 25.7117 27.624 24.0109C27.624 22.3101 26.2511 20.9451 24.513 20.9451C22.7748 20.9451 21.3687 22.3101 21.3687 24.0109Z" fill="#36FFB5"/>
</svg>
