<svg width="40" height="40" viewBox="0 0 40 40" fill="none" xmlns="http://www.w3.org/2000/svg">
<rect width="40" height="40" rx="10" fill="#FF647C"/>
<path fill-rule="evenodd" clip-rule="evenodd" d="M12.2812 12.6875C11.1594 12.6875 10.25 13.5969 10.25 14.7187V25.2812C10.25 26.4031 11.1594 27.3125 12.2812 27.3125H27.7187C28.8405 27.3125 29.7499 26.4031 29.7499 25.2812V14.7187C29.7499 13.5969 28.8405 12.6875 27.7187 12.6875H12.2812ZM8.62495 14.7187C8.62495 12.6995 10.2619 11.0625 12.2812 11.0625H27.7187C29.738 11.0625 31.3749 12.6995 31.3749 14.7187V25.2812C31.3749 27.3005 29.738 28.9375 27.7187 28.9375H12.2812C10.2619 28.9375 8.62495 27.3005 8.62495 25.2812V14.7187Z" fill="white"/>
<path fill-rule="evenodd" clip-rule="evenodd" d="M30.5625 18.2734H9.43745V15.2266H30.5625V18.2734Z" fill="white"/>
<rect x="11.9765" y="22.4375" width="6.5" height="2.38334" rx="1.19167" fill="white"/>
</svg>
