<svg width="17" height="16" viewBox="0 0 17 16" fill="none" xmlns="http://www.w3.org/2000/svg">
<g clip-path="url(#clip0_193_2088)">
<path d="M8.88667 7.16446C8.64667 7.03113 8.32222 6.88446 7.91333 6.72446C7.53556 6.58224 7.25111 6.46224 7.06444 6.37335C6.88222 6.27557 6.74444 6.17335 6.65111 6.0578C6.56222 5.94224 6.51778 5.79557 6.51778 5.6178C6.51778 5.36446 6.60667 5.16891 6.78 5.03113C6.95333 4.89335 7.20222 4.82224 7.51778 4.82224C7.9 4.82224 8.20222 4.92002 8.42 5.12002C8.64222 5.31113 8.75333 5.55113 8.75333 5.83113V5.92891C8.75333 5.96002 8.76222 5.98668 8.78 6.00891C8.80222 6.02668 8.82889 6.03557 8.86 6.03557H9.62444C9.65556 6.03557 9.67778 6.02668 9.69556 6.00891C9.71778 5.98668 9.73111 5.96002 9.73111 5.92891V5.7778C9.73111 5.30224 9.58 4.90224 9.28222 4.5778C8.98889 4.25335 8.58444 4.04891 8.07333 3.96446C8.04222 3.95113 8.02889 3.93335 8.02889 3.91113L8.04667 3.23557C8.04667 3.20446 8.03333 3.18224 8.01111 3.16446C7.99333 3.14224 7.97111 3.12891 7.94 3.12891H7.23778C7.20667 3.12891 7.18 3.14224 7.15778 3.16446C7.14 3.18224 7.13111 3.20446 7.13111 3.23557L7.14889 3.90224C7.14889 3.92446 7.13556 3.94224 7.10444 3.95557C6.62444 4.02668 6.24222 4.20891 5.96222 4.50668C5.68667 4.80002 5.54889 5.1778 5.54889 5.63113C5.54889 5.98668 5.63333 6.28446 5.80222 6.52446C5.97111 6.76002 6.18 6.94668 6.43333 7.08446C6.68667 7.22224 7.01111 7.36891 7.41556 7.52446C7.77556 7.67557 8.04667 7.79557 8.22444 7.89335C8.41111 7.98224 8.55333 8.08891 8.64667 8.20891C8.74444 8.32446 8.78889 8.46224 8.78889 8.63113C8.78889 8.87557 8.7 9.08002 8.51778 9.23557C8.34444 9.39113 8.07778 9.47113 7.72667 9.47113C7.32222 9.47113 7.00667 9.38224 6.77111 9.20002C6.53556 9.01335 6.42 8.78224 6.42 8.50668V8.33335C6.42 8.30224 6.40667 8.28002 6.38444 8.26224C6.36667 8.24002 6.34444 8.22668 6.31333 8.22668H5.55778C5.52667 8.22668 5.5 8.24002 5.47778 8.26224C5.46 8.28002 5.45111 8.30224 5.45111 8.33335V8.56002C5.45111 9.03557 5.59778 9.42668 5.89111 9.74224C6.19333 10.0489 6.60222 10.2445 7.12667 10.3289C7.15778 10.3422 7.17111 10.36 7.17111 10.3822L7.16222 10.9867C7.16222 11.0178 7.17111 11.04 7.18889 11.0578C7.21111 11.08 7.23778 11.0933 7.26889 11.0933H7.97111C8.00222 11.0933 8.02444 11.08 8.04222 11.0578C8.06444 11.04 8.07778 11.0178 8.07778 10.9867L8.06889 10.3911C8.06889 10.3689 8.08222 10.3511 8.11333 10.3378C8.63778 10.2711 9.04222 10.0845 9.34 9.77779C9.63333 9.47113 9.78 9.08002 9.78 8.60446C9.78 8.24891 9.69111 7.95557 9.51778 7.72002C9.34444 7.48446 9.13111 7.2978 8.88667 7.16446Z" fill="#36FFB5"/>
<path d="M14.4067 9.20444C14.6111 8.54222 14.7222 7.84 14.7222 7.11111C14.7222 3.18222 11.54 0 7.61111 0C3.68222 0 0.5 3.18222 0.5 7.11111C0.5 11.04 3.68222 14.2222 7.61111 14.2222C8.34 14.2222 9.04222 14.1111 9.70444 13.9067C10.2644 15.1422 11.5044 16 12.9444 16C14.9089 16 16.5 14.4089 16.5 12.4444C16.5 11.0044 15.6422 9.76444 14.4067 9.20444ZM9.38889 12.4444C9.38889 12.5422 9.39778 12.64 9.40222 12.7378C8.83778 12.92 8.23333 13.0178 7.61111 13.0178C4.34889 13.0178 1.70444 10.3733 1.70444 7.11111C1.70444 3.84889 4.34889 1.20444 7.61111 1.20444C10.8733 1.20444 13.5178 3.84889 13.5178 7.11111C13.5178 7.73778 13.42 8.33778 13.2378 8.90222C13.14 8.89778 13.0422 8.88889 12.9444 8.88889C10.98 8.88889 9.38889 10.48 9.38889 12.4444ZM14.4689 12.6356C14.4689 12.6711 14.4422 12.6978 14.4067 12.6978H13.2022V13.9022C13.2022 13.9378 13.1756 13.9644 13.14 13.9644H12.7578C12.7222 13.9644 12.6956 13.9378 12.6956 13.9022V12.6978H11.4911C11.4556 12.6978 11.4289 12.6711 11.4289 12.6356V12.2533C11.4289 12.2178 11.4556 12.1911 11.4911 12.1911H12.6956V10.9867C12.6956 10.9511 12.7222 10.9244 12.7578 10.9244H13.14C13.1756 10.9244 13.2022 10.9511 13.2022 10.9867V12.1911H14.4067C14.4422 12.1911 14.4689 12.2178 14.4689 12.2533V12.6356Z" fill="#36FFB5"/>
</g>
<defs>
<clipPath id="clip0_193_2088">
<rect width="16" height="16" fill="white" transform="translate(0.5)"/>
</clipPath>
</defs>
</svg>
