<svg width="20" height="20" viewBox="0 0 20 20" fill="none" xmlns="http://www.w3.org/2000/svg">
<path fill-rule="evenodd" clip-rule="evenodd" d="M6.3916 1.66602H13.6166C16.4416 1.66602 18.3333 3.64935 18.3333 6.59935V13.4085C18.3333 16.3502 16.4416 18.3327 13.6166 18.3327H6.3916C3.5666 18.3327 1.6666 16.3502 1.6666 13.4085V6.59935C1.6666 3.64935 3.5666 1.66602 6.3916 1.66602ZM9.9786 7.75849C9.30717 7.75849 8.75003 7.19992 8.75003 6.51564C8.75003 5.81564 9.30717 5.25849 10.0072 5.25849C10.6929 5.25849 11.25 5.81564 11.25 6.51564C11.25 7.19992 10.6929 7.75849 9.9786 7.75849ZM11.25 14.327C11.25 14.8409 10.6929 15.2585 9.99289 15.2585C9.30717 15.2585 8.75003 14.8409 8.75003 14.327V9.59469C8.75003 9.0797 9.30717 8.65251 9.99289 8.65251C10.6929 8.65251 11.25 9.0797 11.25 9.59469V14.327Z" fill="#36FFB5"/>
</svg>
