<svg width="17" height="16" viewBox="0 0 17 16" fill="none" xmlns="http://www.w3.org/2000/svg">
<path fill-rule="evenodd" clip-rule="evenodd" d="M14.3339 14.626H9.49854C9.22254 14.626 8.99854 14.402 8.99854 14.126C8.99854 13.85 9.22254 13.626 9.49854 13.626H14.3339C14.6099 13.626 14.8339 13.85 14.8339 14.126C14.8339 14.402 14.6099 14.626 14.3339 14.626Z" fill="#1D1D42"/>
<mask id="mask0_233_1612" style="mask-type:alpha" maskUnits="userSpaceOnUse" x="1" y="2" width="13" height="13">
<path fill-rule="evenodd" clip-rule="evenodd" d="M1.8335 2H13.2872V14.6264H1.8335V2Z" fill="white"/>
</mask>
<g mask="url(#mask0_233_1612)">
<path fill-rule="evenodd" clip-rule="evenodd" d="M9.24035 3.34443L2.96368 11.1944C2.84968 11.3371 2.80768 11.5211 2.84968 11.6978L3.30368 13.6211L5.32968 13.5958C5.52235 13.5938 5.70035 13.5078 5.81835 13.3611C7.96301 10.6778 12.0517 5.56176 12.1677 5.41176C12.277 5.23443 12.3197 4.98376 12.2623 4.74243C12.2037 4.4951 12.0497 4.2851 11.8277 4.1511C11.7803 4.11843 10.657 3.24643 10.6223 3.2191C10.1997 2.88043 9.58301 2.9391 9.24035 3.34443ZM2.90901 14.6264C2.67768 14.6264 2.47635 14.4678 2.42235 14.2418L1.87635 11.9278C1.76368 11.4484 1.87568 10.9538 2.18301 10.5698L8.46301 2.7151C8.46568 2.71243 8.46768 2.7091 8.47035 2.70643C9.15901 1.8831 10.4043 1.76176 11.2443 2.43576C11.2777 2.46176 12.393 3.32843 12.393 3.32843C12.7983 3.56976 13.115 4.0011 13.235 4.51176C13.3543 5.0171 13.2677 5.53843 12.9897 5.97909C12.969 6.01176 12.951 6.03976 6.59901 13.9864C6.29301 14.3678 5.83435 14.5898 5.34168 14.5958L2.91568 14.6264H2.90901Z" fill="#1D1D42"/>
</g>
<path fill-rule="evenodd" clip-rule="evenodd" d="M11.3155 7.78959C11.2089 7.78959 11.1022 7.75559 11.0109 7.68625L7.3762 4.89425C7.15753 4.72625 7.1162 4.41292 7.2842 4.19292C7.45286 3.97425 7.7662 3.93359 7.98553 4.10159L11.6209 6.89292C11.8395 7.06092 11.8809 7.37492 11.7122 7.59425C11.6142 7.72225 11.4655 7.78959 11.3155 7.78959Z" fill="#1D1D42"/>
</svg>
