<svg width="20" height="20" viewBox="0 0 20 20" fill="none" xmlns="http://www.w3.org/2000/svg">
<path fill-rule="evenodd" clip-rule="evenodd" d="M13.4653 6.86038C13.4653 8.81845 11.9043 10.3885 9.95753 10.3885C8.01078 10.3885 6.44979 8.81845 6.44979 6.86038C6.44979 4.90156 8.01078 3.33301 9.95753 3.33301C11.9043 3.33301 13.4653 4.90156 13.4653 6.86038ZM9.95753 16.6663C7.09822 16.6663 4.65675 16.213 4.65675 14.3998C4.65675 12.5858 7.08255 12.116 9.95753 12.116C12.8169 12.116 15.2583 12.5693 15.2583 14.3833C15.2583 16.1965 12.8325 16.6663 9.95753 16.6663ZM14.9643 6.92403C14.9643 7.9222 14.6665 8.85208 14.1442 9.6251C14.0905 9.70465 14.1382 9.81197 14.233 9.82848C14.3636 9.851 14.4986 9.86376 14.6359 9.86751C16.0052 9.90353 17.2341 9.01719 17.5736 7.68279C18.0765 5.7007 16.5999 3.92125 14.7195 3.92125C14.5151 3.92125 14.3196 3.94302 14.1293 3.98205C14.1032 3.98805 14.0756 4.00006 14.0606 4.02332C14.0427 4.05184 14.0562 4.09012 14.0741 4.11488C14.6389 4.91117 14.9643 5.88233 14.9643 6.92403ZM17.2319 11.2601C18.1519 11.441 18.757 11.8103 19.0077 12.3469C19.2197 12.7874 19.2197 13.2985 19.0077 13.7383C18.6242 14.5706 17.3878 14.8378 16.9073 14.9069C16.808 14.9219 16.7282 14.8356 16.7386 14.7357C16.9841 12.4294 15.0314 11.3359 14.5263 11.0845C14.5046 11.0733 14.5001 11.056 14.5024 11.0455C14.5039 11.038 14.5128 11.026 14.5292 11.0237C15.6224 11.0035 16.7976 11.1536 17.2319 11.2601ZM5.36427 9.86744C5.50156 9.86368 5.63587 9.85167 5.7672 9.82841C5.86196 9.8119 5.90972 9.70458 5.85599 9.62502C5.33368 8.852 5.03595 7.92212 5.03595 6.92395C5.03595 5.88225 5.36128 4.9111 5.92613 4.11481C5.94404 4.09004 5.95673 4.05177 5.93956 4.02325C5.92464 4.00073 5.89629 3.98797 5.87092 3.98197C5.6799 3.94294 5.4844 3.92118 5.27995 3.92118C3.39961 3.92118 1.92294 5.70063 2.4266 7.68271C2.76611 9.01711 3.99505 9.90346 5.36427 9.86744ZM5.49746 11.0451C5.4997 11.0563 5.49522 11.0728 5.47433 11.0848C4.96842 11.3363 3.0157 12.4297 3.26119 14.7353C3.27164 14.8359 3.19254 14.9214 3.0933 14.9072C2.61277 14.8381 1.37637 14.5709 0.992837 13.7386C0.780179 13.2981 0.780179 12.7877 0.992837 12.3472C1.24355 11.8106 1.84795 11.4413 2.76797 11.2597C3.20299 11.1539 4.37746 11.0038 5.47134 11.024C5.48776 11.0263 5.49597 11.0383 5.49746 11.0451Z" fill="#36FFB5"/>
</svg>
