<svg width="49" height="48" viewBox="0 0 49 48" fill="none" xmlns="http://www.w3.org/2000/svg">
<rect x="0.5" width="48" height="48" rx="12" fill="#151530"/>
<path fill-rule="evenodd" clip-rule="evenodd" d="M29.0048 19.9189C29.0048 22.4644 26.9756 24.5055 24.4448 24.5055C21.914 24.5055 19.8847 22.4644 19.8847 19.9189C19.8847 17.3725 21.914 15.3333 24.4448 15.3333C26.9756 15.3333 29.0048 17.3725 29.0048 19.9189ZM24.4448 32.6667C20.7277 32.6667 17.5538 32.0774 17.5538 29.7202C17.5538 27.362 20.7073 26.7513 24.4448 26.7513C28.1619 26.7513 31.3358 27.3405 31.3358 29.6987C31.3358 32.0559 28.1823 32.6667 24.4448 32.6667ZM30.9535 20.0017C30.9535 21.2993 30.5665 22.5081 29.8875 23.513C29.8176 23.6165 29.8797 23.756 30.0029 23.7774C30.1726 23.8067 30.3482 23.8233 30.5267 23.8282C32.3067 23.875 33.9043 22.7228 34.3457 20.988C34.9995 18.4113 33.0798 16.098 30.6353 16.098C30.3696 16.098 30.1154 16.1263 29.8681 16.1771C29.8341 16.1849 29.7982 16.2005 29.7788 16.2307C29.7555 16.2678 29.773 16.3176 29.7963 16.3498C30.5306 17.3849 30.9535 18.6474 30.9535 20.0017ZM33.9014 25.6386C35.0974 25.8737 35.8841 26.3538 36.21 27.0514C36.4855 27.6241 36.4855 28.2885 36.21 28.8602C35.7115 29.9422 34.1041 30.2896 33.4794 30.3793C33.3504 30.3988 33.2466 30.2866 33.2602 30.1569C33.5794 27.1587 31.0408 25.7372 30.3841 25.4103C30.356 25.3957 30.3502 25.3732 30.3531 25.3596C30.355 25.3498 30.3666 25.3342 30.388 25.3313C31.8091 25.3049 33.3368 25.5001 33.9014 25.6386ZM18.4735 23.8281C18.652 23.8232 18.8266 23.8076 18.9973 23.7773C19.1205 23.7559 19.1826 23.6164 19.1128 23.5129C18.4338 22.508 18.0467 21.2992 18.0467 20.0016C18.0467 18.6473 18.4696 17.3848 19.204 16.3497C19.2272 16.3175 19.2437 16.2677 19.2214 16.2306C19.202 16.2014 19.1652 16.1848 19.1322 16.177C18.8838 16.1262 18.6297 16.098 18.3639 16.098C15.9195 16.098 13.9998 18.4112 14.6546 20.9879C15.0959 22.7227 16.6935 23.8749 18.4735 23.8281ZM18.6467 25.359C18.6496 25.3736 18.6438 25.3951 18.6166 25.4107C17.9589 25.7375 15.4204 27.1591 15.7395 30.1563C15.7531 30.287 15.6503 30.3983 15.5213 30.3797C14.8966 30.29 13.2893 29.9426 12.7907 28.8606C12.5142 28.2879 12.5142 27.6245 12.7907 27.0518C13.1166 26.3542 13.9023 25.8741 15.0983 25.638C15.6639 25.5005 17.1907 25.3053 18.6127 25.3317C18.6341 25.3346 18.6447 25.3502 18.6467 25.359Z" fill="#36FFB5"/>
</svg>
