<svg width="49" height="48" viewBox="0 0 49 48" fill="none" xmlns="http://www.w3.org/2000/svg">
<rect x="0.5" width="48" height="48" rx="12" fill="#151530"/>
<path fill-rule="evenodd" clip-rule="evenodd" d="M19.9608 13.1667H29.0403C32.3867 13.1667 34.25 15.095 34.25 18.3992V29.59C34.25 32.9483 32.3867 34.8333 29.0403 34.8333H19.9608C16.6675 34.8333 14.75 32.9483 14.75 29.59V18.3992C14.75 15.095 16.6675 13.1667 19.9608 13.1667ZM20.2533 18.215V18.2042H23.4914C23.9583 18.2042 24.3375 18.5833 24.3375 19.0481C24.3375 19.5258 23.9583 19.905 23.4914 19.905H20.2533C19.7864 19.905 19.4083 19.5258 19.4083 19.06C19.4083 18.5942 19.7864 18.215 20.2533 18.215ZM20.2533 24.8017H28.7467C29.2125 24.8017 29.5917 24.4225 29.5917 23.9567C29.5917 23.4908 29.2125 23.1106 28.7467 23.1106H20.2533C19.7864 23.1106 19.4083 23.4908 19.4083 23.9567C19.4083 24.4225 19.7864 24.8017 20.2533 24.8017ZM20.2533 29.7525H28.7467C29.1789 29.7092 29.505 29.3397 29.505 28.9075C29.505 28.4633 29.1789 28.095 28.7467 28.0517H20.2533C19.9283 28.0192 19.6142 28.1708 19.4408 28.4525C19.2675 28.7233 19.2675 29.0808 19.4408 29.3625C19.6142 29.6333 19.9283 29.7958 20.2533 29.7525Z" fill="#36FFB5"/>
</svg>
