<svg width="25" height="24" viewBox="0 0 25 24" fill="none" xmlns="http://www.w3.org/2000/svg">
<path fill-rule="evenodd" clip-rule="evenodd" d="M7.7163 16.0029C7.5563 16.0029 7.3953 15.9519 7.2593 15.8479C6.9313 15.5949 6.8693 15.1239 7.1223 14.7959L10.1153 10.9059C10.2373 10.7469 10.4183 10.6439 10.6163 10.6189C10.8183 10.5929 11.0163 10.6489 11.1733 10.7739L13.9933 12.9889L16.4603 9.80593C16.7143 9.47693 17.1843 9.41593 17.5123 9.67193C17.8403 9.92593 17.9003 10.3969 17.6463 10.7239L14.7163 14.5039C14.5943 14.6619 14.4143 14.7649 14.2163 14.7889C14.0163 14.8159 13.8183 14.7579 13.6603 14.6349L10.8423 12.4209L8.3113 15.7099C8.1633 15.9019 7.9413 16.0029 7.7163 16.0029Z" fill="white" fill-opacity="0.5"/>
<mask id="mask0_145_613" style="mask-type:alpha" maskUnits="userSpaceOnUse" x="17" y="2" width="7" height="6">
<path fill-rule="evenodd" clip-rule="evenodd" d="M17.7953 2.00012H23.1393V7.34502H17.7953V2.00012Z" fill="white"/>
</mask>
<g mask="url(#mask0_145_613)">
<path fill-rule="evenodd" clip-rule="evenodd" d="M20.4673 3.5C19.8213 3.5 19.2953 4.025 19.2953 4.672C19.2953 5.318 19.8213 5.845 20.4673 5.845C21.1133 5.845 21.6393 5.318 21.6393 4.672C21.6393 4.025 21.1133 3.5 20.4673 3.5ZM20.4673 7.345C18.9943 7.345 17.7953 6.146 17.7953 4.672C17.7953 3.198 18.9943 2 20.4673 2C21.9413 2 23.1393 3.198 23.1393 4.672C23.1393 6.146 21.9413 7.345 20.4673 7.345Z" fill="white" fill-opacity="0.5"/>
</g>
<mask id="mask1_145_613" style="mask-type:alpha" maskUnits="userSpaceOnUse" x="2" y="2" width="21" height="21">
<path fill-rule="evenodd" clip-rule="evenodd" d="M2.5 2.8421H22.3619V22.7031H2.5V2.8421Z" fill="white"/>
</mask>
<g mask="url(#mask1_145_613)">
<path fill-rule="evenodd" clip-rule="evenodd" d="M16.7329 22.7031H8.12889C4.76189 22.7031 2.49989 20.3381 2.49989 16.8181V8.7361C2.49989 5.2111 4.76189 2.8421 8.12889 2.8421H15.3969C15.8109 2.8421 16.1469 3.1781 16.1469 3.5921C16.1469 4.0061 15.8109 4.3421 15.3969 4.3421H8.12889C5.62089 4.3421 3.99989 6.0661 3.99989 8.7361V16.8181C3.99989 19.5231 5.58189 21.2031 8.12889 21.2031H16.7329C19.2409 21.2031 20.8619 19.4821 20.8619 16.8181V9.7791C20.8619 9.3651 21.1979 9.0291 21.6119 9.0291C22.0259 9.0291 22.3619 9.3651 22.3619 9.7791V16.8181C22.3619 20.3381 20.0999 22.7031 16.7329 22.7031Z" fill="white" fill-opacity="0.5"/>
</g>
</svg>
