<svg width="49" height="48" viewBox="0 0 49 48" fill="none" xmlns="http://www.w3.org/2000/svg">
<rect x="0.5" width="48" height="48" rx="12" fill="#151530"/>
<path fill-rule="evenodd" clip-rule="evenodd" d="M19.675 14.5511C19.8551 14.681 20.1454 14.9796 20.1454 14.9796C21.2725 16.036 22.9702 18.6634 23.5154 19.9965C23.5268 19.9965 23.8501 20.7891 23.8628 21.1661V21.2163C23.8628 21.794 23.5394 22.3344 23.0196 22.6111C22.8053 22.7251 22.2841 22.8312 22.0326 22.8824C21.9494 22.8993 21.8957 22.9103 21.8925 22.9135C21.1495 23.0267 20.0097 23.1013 18.7584 23.1013C17.4449 23.1013 16.2556 23.0267 15.5241 22.8877C15.5114 22.8877 14.8432 22.75 14.6201 22.6613C14.2981 22.5236 14.0255 22.2714 13.8518 21.9574C13.7275 21.7065 13.6667 21.4415 13.6667 21.1661C13.6781 20.8766 13.8645 20.3362 13.9507 20.1226C14.4958 18.7136 16.2797 16.0231 17.3701 14.9924C17.4833 14.8775 17.6122 14.7571 17.7019 14.6733C17.7498 14.6286 17.7865 14.5943 17.8037 14.5768C18.0763 14.3632 18.411 14.25 18.771 14.25C19.0918 14.25 19.4139 14.3504 19.675 14.5511ZM31.2477 22.0086C31.2477 22.576 30.7951 23.0354 30.2359 23.0354C29.6768 23.0354 29.2242 22.576 29.2242 22.0086L28.9453 17.0482C28.9453 16.3251 29.5234 15.7396 30.2359 15.7396C30.9485 15.7396 31.5253 16.3251 31.5253 17.0482L31.2477 22.0086ZM34.3799 25.3386C34.7019 25.4775 34.9745 25.7284 35.1482 26.0424C35.2725 26.2933 35.3333 26.5584 35.3333 26.835C35.3219 27.1233 35.1356 27.665 35.0481 27.8786C34.5042 29.2863 32.719 31.9769 31.6299 33.0088C31.5186 33.121 31.3921 33.2391 31.3026 33.3226L31.3025 33.3227C31.2525 33.3693 31.2141 33.4052 31.1963 33.4232C30.9225 33.6368 30.589 33.75 30.2302 33.75C29.9069 33.75 29.5849 33.6496 29.325 33.4476C29.1449 33.3189 28.8546 33.0204 28.8546 33.0204C27.7262 31.9653 26.0298 29.3365 25.4847 28.0034C25.472 28.0034 25.1499 27.2121 25.1373 26.835V26.7849C25.1373 26.2058 25.4593 25.6654 25.9804 25.3887C26.1942 25.2759 26.7138 25.1695 26.9659 25.1179L26.9659 25.1179C27.05 25.1007 27.1043 25.0896 27.1075 25.0864C27.8505 24.9731 28.9903 24.8985 30.2416 24.8985C31.5551 24.8985 32.7444 24.9731 33.4759 25.1121C33.4873 25.1121 34.1568 25.2498 34.3799 25.3386ZM18.7643 24.9647C18.2052 24.9647 17.7526 25.4241 17.7526 25.9915L17.4737 30.9518C17.4737 31.675 18.0518 32.2604 18.7643 32.2604C19.4769 32.2604 20.0537 31.675 20.0537 30.9518L19.7761 25.9915C19.7761 25.4241 19.3235 24.9647 18.7643 24.9647Z" fill="#36FFB5"/>
</svg>
