<svg width="25" height="24" viewBox="0 0 25 24" fill="none" xmlns="http://www.w3.org/2000/svg">
<mask id="mask0_145_1615" style="mask-type:alpha" maskUnits="userSpaceOnUse" x="2" y="1" width="21" height="22">
<path fill-rule="evenodd" clip-rule="evenodd" d="M2.5 1H22.9998V22.505H2.5V1Z" fill="white"/>
</mask>
<g mask="url(#mask0_145_1615)">
<path fill-rule="evenodd" clip-rule="evenodd" d="M14.2168 15.2913C15.4208 15.2913 16.4008 16.2643 16.4008 17.4603V20.5362C16.4008 20.7932 16.6068 20.9992 16.8708 21.0052H18.7768C20.2788 21.0052 21.4998 19.7993 21.4998 18.3173V9.59325C21.4928 9.08325 21.2498 8.60325 20.8328 8.28425L14.2398 3.02625C13.3548 2.32525 12.1168 2.32525 11.2288 3.02825L4.68079 8.28225C4.24779 8.61125 4.00479 9.09125 3.99979 9.61025V18.3173C3.99979 19.7993 5.22079 21.0052 6.72279 21.0052H8.64679C8.91779 21.0052 9.13779 20.7902 9.13779 20.5262C9.13779 20.4682 9.14479 20.4102 9.15679 20.3552V17.4603C9.15679 16.2713 10.1308 15.2993 11.3258 15.2913H14.2168ZM18.7768 22.5053H16.8528C15.7508 22.4793 14.9008 21.6143 14.9008 20.5363V17.4603C14.9008 17.0913 14.5938 16.7913 14.2168 16.7913H11.3308C10.9618 16.7933 10.6568 17.0943 10.6568 17.4603V20.5263C10.6568 20.6013 10.6468 20.6733 10.6258 20.7413C10.5178 21.7313 9.67179 22.5053 8.64679 22.5053H6.72279C4.39379 22.5053 2.49979 20.6262 2.49979 18.3172V9.60325C2.50979 8.60925 2.96779 7.69925 3.75879 7.10025L10.2938 1.85525C11.7328 0.71525 13.7378 0.71525 15.1738 1.85325L21.7558 7.10325C22.5288 7.69225 22.9868 8.60025 22.9998 9.58225V18.3172C22.9998 20.6262 21.1058 22.5053 18.7768 22.5053Z" fill="white" fill-opacity="0.5"/>
</g>
</svg>
