<svg width="42" height="21" viewBox="0 0 42 21" fill="none" xmlns="http://www.w3.org/2000/svg">
<circle cx="5" cy="10.5" r="5" fill="#FFCD08"/>
<path fill-rule="evenodd" clip-rule="evenodd" d="M32.2055 18.8336C31.0763 18.8336 29.9755 18.8211 28.8863 18.7986C27.493 18.7711 26.5288 17.8678 26.3713 16.4411C26.1088 14.0745 25.6596 8.49612 25.6555 8.44029C25.6271 8.09612 25.8838 7.79445 26.228 7.76695C26.5671 7.75779 26.8738 7.99612 26.9013 8.33945C26.9055 8.39612 27.3538 13.9553 27.6138 16.3036C27.703 17.1145 28.1405 17.5328 28.9121 17.5486C30.9955 17.5928 33.1213 17.5953 35.413 17.5536C36.233 17.5378 36.6763 17.1278 36.768 16.2978C37.0263 13.9695 37.4763 8.39612 37.4813 8.33945C37.5088 7.99612 37.813 7.75612 38.1538 7.76695C38.498 7.79529 38.7546 8.09612 38.7271 8.44029C38.7221 8.49695 38.2705 14.0895 38.0105 16.4353C37.8488 17.8911 36.8871 18.777 35.4355 18.8036C34.3246 18.8228 33.253 18.8336 32.2055 18.8336Z" fill="white"/>
<path fill-rule="evenodd" clip-rule="evenodd" d="M39.2567 6.32422H25.125C24.78 6.32422 24.5 6.04422 24.5 5.69922C24.5 5.35422 24.78 5.07422 25.125 5.07422H39.2567C39.6017 5.07422 39.8817 5.35422 39.8817 5.69922C39.8817 6.04422 39.6017 6.32422 39.2567 6.32422Z" fill="white"/>
<path fill-rule="evenodd" clip-rule="evenodd" d="M36.5336 6.32449C35.5853 6.32449 34.7619 5.64866 34.5753 4.71866L34.3728 3.70533C34.3303 3.55116 34.1544 3.41699 33.9544 3.41699H30.4269C30.2269 3.41699 30.0511 3.55116 30.0003 3.74366L29.8061 4.71866C29.6203 5.64866 28.7961 6.32449 27.8478 6.32449C27.5028 6.32449 27.2228 6.04449 27.2228 5.69949C27.2228 5.35449 27.5028 5.07449 27.8478 5.07449C28.2028 5.07449 28.5111 4.82116 28.5811 4.47283L28.7836 3.45949C28.9894 2.68283 29.6619 2.16699 30.4269 2.16699H33.9544C34.7194 2.16699 35.3919 2.68283 35.5894 3.42199L35.8011 4.47283C35.8703 4.82116 36.1786 5.07449 36.5336 5.07449C36.8786 5.07449 37.1586 5.35449 37.1586 5.69949C37.1586 6.04449 36.8786 6.32449 36.5336 6.32449Z" fill="white"/>
</svg>
