<svg width="49" height="48" viewBox="0 0 49 48" fill="none" xmlns="http://www.w3.org/2000/svg">
<rect x="0.5" width="48" height="48" rx="12" fill="#151530"/>
<path fill-rule="evenodd" clip-rule="evenodd" d="M23.7626 34.8334H18.4694C15.8217 34.8334 13.667 32.6787 13.667 30.0288V17.9724C13.667 15.3226 15.8217 13.1667 18.4694 13.1667H23.7507C26.4005 13.1667 28.5563 15.3226 28.5563 17.9724V18.9821C28.5563 19.4306 28.1923 19.7946 27.7438 19.7946C27.2953 19.7946 26.9313 19.4306 26.9313 18.9821V17.9724C26.9313 16.2174 25.5046 14.7917 23.7507 14.7917H18.4694C16.7177 14.7917 15.292 16.2174 15.292 17.9724V30.0288C15.292 31.7827 16.7177 33.2084 18.4694 33.2084H23.7626C25.5089 33.2084 26.9313 31.7871 26.9313 30.0407V29.0192C26.9313 28.5707 27.2953 28.2067 27.7438 28.2067C28.1923 28.2067 28.5563 28.5707 28.5563 29.0192V30.0407C28.5563 32.6841 26.4048 34.8334 23.7626 34.8334Z" fill="#EC4F4F"/>
<mask id="mask0_1290_3202" style="mask-type:alpha" maskUnits="userSpaceOnUse" x="21" y="23" width="15" height="2">
<path fill-rule="evenodd" clip-rule="evenodd" d="M21.2458 23.1875H35.9151V24.8125H21.2458V23.1875Z" fill="white"/>
</mask>
<g mask="url(#mask0_1290_3202)">
<path fill-rule="evenodd" clip-rule="evenodd" d="M35.1027 24.8125H22.0583C21.6098 24.8125 21.2458 24.4485 21.2458 24C21.2458 23.5515 21.6098 23.1875 22.0583 23.1875H35.1027C35.5512 23.1875 35.9152 23.5515 35.9152 24C35.9152 24.4485 35.5512 24.8125 35.1027 24.8125Z" fill="#EC4F4F"/>
</g>
<mask id="mask1_1290_3202" style="mask-type:alpha" maskUnits="userSpaceOnUse" x="31" y="20" width="5" height="8">
<path fill-rule="evenodd" clip-rule="evenodd" d="M31.1188 20.03H35.9151V27.9717H31.1188V20.03Z" fill="white"/>
</mask>
<g mask="url(#mask1_1290_3202)">
<path fill-rule="evenodd" clip-rule="evenodd" d="M31.931 27.9717C31.723 27.9717 31.5139 27.8926 31.3558 27.7323C31.0394 27.4138 31.0405 26.9003 31.3579 26.5839L33.9514 24.0002L31.3579 21.4175C31.0405 21.1012 31.0384 20.5877 31.3558 20.2692C31.6721 19.9507 32.1856 19.9507 32.5041 20.267L35.6761 23.4249C35.8299 23.5766 35.9155 23.7846 35.9155 24.0002C35.9155 24.2158 35.8299 24.4238 35.6761 24.5754L32.5041 27.7344C32.3459 27.8926 32.1379 27.9717 31.931 27.9717Z" fill="#EC4F4F"/>
</g>
</svg>
