<svg width="16" height="16" viewBox="0 0 16 16" fill="none" xmlns="http://www.w3.org/2000/svg">
<path fill-rule="evenodd" clip-rule="evenodd" d="M7.5462 14.6663H4.28887C2.65953 14.6663 1.33353 13.3403 1.33353 11.7097V4.29034C1.33353 2.65967 2.65953 1.33301 4.28887 1.33301H7.53887C9.16953 1.33301 10.4962 2.65967 10.4962 4.29034V4.91167C10.4962 5.18767 10.2722 5.41167 9.9962 5.41167C9.7202 5.41167 9.4962 5.18767 9.4962 4.91167V4.29034C9.4962 3.21034 8.6182 2.33301 7.53887 2.33301H4.28887C3.21087 2.33301 2.33353 3.21034 2.33353 4.29034V11.7097C2.33353 12.789 3.21087 13.6663 4.28887 13.6663H7.5462C8.62087 13.6663 9.4962 12.7917 9.4962 11.717V11.0883C9.4962 10.8123 9.7202 10.5883 9.9962 10.5883C10.2722 10.5883 10.4962 10.8123 10.4962 11.0883V11.717C10.4962 13.3437 9.1722 14.6663 7.5462 14.6663Z" fill="#EC4F4F"/>
<mask id="mask0_193_2076" style="mask-type:alpha" maskUnits="userSpaceOnUse" x="5" y="7" width="11" height="2">
<path fill-rule="evenodd" clip-rule="evenodd" d="M5.9974 7.5H15.0247V8.5H5.9974V7.5Z" fill="white"/>
</mask>
<g mask="url(#mask0_193_2076)">
<path fill-rule="evenodd" clip-rule="evenodd" d="M14.5247 8.5H6.4974C6.2214 8.5 5.9974 8.276 5.9974 8C5.9974 7.724 6.2214 7.5 6.4974 7.5H14.5247C14.8007 7.5 15.0247 7.724 15.0247 8C15.0247 8.276 14.8007 8.5 14.5247 8.5Z" fill="#EC4F4F"/>
</g>
<mask id="mask1_193_2076" style="mask-type:alpha" maskUnits="userSpaceOnUse" x="12" y="5" width="4" height="6">
<path fill-rule="evenodd" clip-rule="evenodd" d="M12.0731 5.55664H15.0247V10.4438H12.0731V5.55664Z" fill="white"/>
</mask>
<g mask="url(#mask1_193_2076)">
<path fill-rule="evenodd" clip-rule="evenodd" d="M12.5729 10.4438C12.4449 10.4438 12.3163 10.3951 12.2189 10.2965C12.0243 10.1005 12.0249 9.78447 12.2203 9.58981L13.8163 7.99981L12.2203 6.41047C12.0249 6.21581 12.0236 5.89981 12.2189 5.70381C12.4136 5.50781 12.7296 5.50781 12.9256 5.70247L14.8776 7.64581C14.9723 7.73914 15.0249 7.86714 15.0249 7.99981C15.0249 8.13247 14.9723 8.26047 14.8776 8.35381L12.9256 10.2978C12.8283 10.3951 12.7003 10.4438 12.5729 10.4438Z" fill="#EC4F4F"/>
</g>
</svg>
