<svg width="17" height="16" viewBox="0 0 17 16" fill="none" xmlns="http://www.w3.org/2000/svg">
<mask id="mask0_1605_13012" style="mask-type:alpha" maskUnits="userSpaceOnUse" x="0" y="0" width="17" height="16">
<rect x="0.5" width="16" height="16" fill="#D9D9D9"/>
</mask>
<g mask="url(#mask0_1605_13012)">
<path d="M8.5 14.6666C7.58889 14.6666 6.72778 14.4915 5.91667 14.1413C5.10556 13.7915 4.39733 13.3137 3.792 12.7079C3.18622 12.1026 2.70845 11.3944 2.35867 10.5833C2.00845 9.77214 1.83333 8.91103 1.83333 7.99992C1.83333 7.0777 2.00845 6.21392 2.35867 5.40859C2.70845 4.60281 3.18622 3.89725 3.792 3.29192C4.39733 2.68614 5.10556 2.20814 5.91667 1.85792C6.72778 1.50814 7.58889 1.33325 8.5 1.33325C9.42222 1.33325 10.286 1.50814 11.0913 1.85792C11.8971 2.20814 12.6027 2.68614 13.208 3.29192C13.8138 3.89725 14.2916 4.60281 14.6413 5.40859C14.9916 6.21392 15.1667 7.0777 15.1667 7.99992C15.1667 8.91103 14.9916 9.77214 14.6413 10.5833C14.2916 11.3944 13.8138 12.1026 13.208 12.7079C12.6027 13.3137 11.8971 13.7915 11.0913 14.1413C10.286 14.4915 9.42222 14.6666 8.5 14.6666ZM8.5 13.2999C8.78889 12.8999 9.03889 12.4833 9.25 12.0499C9.46111 11.6166 9.63333 11.1555 9.76667 10.6666H7.23333C7.36667 11.1555 7.53889 11.6166 7.75 12.0499C7.96111 12.4833 8.21111 12.8999 8.5 13.2999ZM6.76667 13.0333C6.56667 12.6666 6.39178 12.2859 6.242 11.8913C6.09178 11.497 5.96667 11.0888 5.86667 10.6666H3.9C4.22222 11.2221 4.62489 11.7055 5.108 12.1166C5.59156 12.5277 6.14444 12.8333 6.76667 13.0333ZM10.2333 13.0333C10.8556 12.8333 11.4082 12.5277 11.8913 12.1166C12.3749 11.7055 12.7778 11.2221 13.1 10.6666H11.1333C11.0333 11.0888 10.9084 11.497 10.7587 11.8913C10.6084 12.2859 10.4333 12.6666 10.2333 13.0333ZM3.33333 9.33325H5.6C5.56667 9.11103 5.54156 8.89147 5.52467 8.67459C5.50822 8.45814 5.5 8.23325 5.5 7.99992C5.5 7.76659 5.50822 7.5417 5.52467 7.32525C5.54156 7.10836 5.56667 6.88881 5.6 6.66659H3.33333C3.27778 6.88881 3.236 7.10836 3.208 7.32525C3.18044 7.5417 3.16667 7.76659 3.16667 7.99992C3.16667 8.23325 3.18044 8.45814 3.208 8.67459C3.236 8.89147 3.27778 9.11103 3.33333 9.33325ZM6.93333 9.33325H10.0667C10.1 9.11103 10.1251 8.89147 10.142 8.67459C10.1584 8.45814 10.1667 8.23325 10.1667 7.99992C10.1667 7.76659 10.1584 7.5417 10.142 7.32525C10.1251 7.10836 10.1 6.88881 10.0667 6.66659H6.93333C6.9 6.88881 6.87511 7.10836 6.85867 7.32525C6.84178 7.5417 6.83333 7.76659 6.83333 7.99992C6.83333 8.23325 6.84178 8.45814 6.85867 8.67459C6.87511 8.89147 6.9 9.11103 6.93333 9.33325ZM11.4 9.33325H13.6667C13.7222 9.11103 13.764 8.89147 13.792 8.67459C13.8196 8.45814 13.8333 8.23325 13.8333 7.99992C13.8333 7.76659 13.8196 7.5417 13.792 7.32525C13.764 7.10836 13.7222 6.88881 13.6667 6.66659H11.4C11.4333 6.88881 11.4582 7.10836 11.4747 7.32525C11.4916 7.5417 11.5 7.76659 11.5 7.99992C11.5 8.23325 11.4916 8.45814 11.4747 8.67459C11.4582 8.89147 11.4333 9.11103 11.4 9.33325ZM11.1333 5.33325H13.1C12.7778 4.7777 12.3749 4.29436 11.8913 3.88325C11.4082 3.47214 10.8556 3.16659 10.2333 2.96659C10.4333 3.33325 10.6084 3.7137 10.7587 4.10792C10.9084 4.50259 11.0333 4.91103 11.1333 5.33325ZM7.23333 5.33325H9.76667C9.63333 4.84436 9.46111 4.38325 9.25 3.94992C9.03889 3.51659 8.78889 3.09992 8.5 2.69992C8.21111 3.09992 7.96111 3.51659 7.75 3.94992C7.53889 4.38325 7.36667 4.84436 7.23333 5.33325ZM3.9 5.33325H5.86667C5.96667 4.91103 6.09178 4.50259 6.242 4.10792C6.39178 3.7137 6.56667 3.33325 6.76667 2.96659C6.14444 3.16659 5.59156 3.47214 5.108 3.88325C4.62489 4.29436 4.22222 4.7777 3.9 5.33325Z" fill="#36FFB5"/>
</g>
</svg>
