<svg width="25" height="24" viewBox="0 0 25 24" fill="none" xmlns="http://www.w3.org/2000/svg">
<mask id="mask0_145_629" style="mask-type:alpha" maskUnits="userSpaceOnUse" x="2" y="3" width="21" height="19">
<path fill-rule="evenodd" clip-rule="evenodd" d="M2.5 3.00049H22.5V21.1665H2.5V3.00049Z" fill="white"/>
</mask>
<g mask="url(#mask0_145_629)">
<path fill-rule="evenodd" clip-rule="evenodd" d="M4 14.9795V17.0245C4 17.7305 4.274 18.3935 4.773 18.8925C5.272 19.3915 5.936 19.6665 6.641 19.6665H18.357C19.813 19.6665 20.999 18.4825 21 17.0265V14.9785C19.714 14.6455 18.761 13.4745 18.76 12.0855C18.76 10.6965 19.713 9.52549 20.999 9.19149L21 7.14649C21.001 5.68849 19.818 4.50149 18.361 4.50049H6.644C5.187 4.50049 4.001 5.68549 4 7.14249V9.25949C4.486 9.37549 4.937 9.61449 5.312 9.96449C5.881 10.4955 6.209 11.2155 6.237 11.9935C6.24 13.4595 5.287 14.6435 4 14.9795M18.357 21.1665H6.642C5.535 21.1665 4.495 20.7365 3.712 19.9535C2.93 19.1705 2.5 18.1305 2.5 17.0245V14.3245C2.5 13.9105 2.836 13.5745 3.25 13.5745C4.074 13.5735 4.74 12.9055 4.739 12.0855C4.725 11.6675 4.565 11.3195 4.289 11.0615C4.014 10.8035 3.658 10.6625 3.276 10.6835C3.069 10.6855 2.875 10.6145 2.729 10.4735C2.583 10.3325 2.5 10.1365 2.5 9.93349V7.14349C2.501 4.85849 4.36 3.00049 6.644 3.00049H18.356C20.646 3.00149 22.502 4.86349 22.5 7.14749V9.84649C22.5 10.2605 22.164 10.5965 21.75 10.5965C20.929 10.5965 20.26 11.2645 20.26 12.0845C20.261 12.9065 20.929 13.5745 21.75 13.5745C22.164 13.5745 22.5 13.9105 22.5 14.3245V17.0245C22.499 19.3085 20.64 21.1665 18.357 21.1665" fill="white" fill-opacity="0.5"/>
</g>
<path fill-rule="evenodd" clip-rule="evenodd" d="M10.6039 11.3815L11.1129 11.8775C11.3889 12.1485 11.5139 12.5345 11.4479 12.9115L11.3279 13.6095L11.9569 13.2785C12.2959 13.0975 12.7029 13.0985 13.0449 13.2805L13.6699 13.6085L13.5499 12.9095C13.4869 12.5265 13.6129 12.1435 13.8859 11.8775L14.3949 11.3815L13.6899 11.2795C13.3119 11.2245 12.9839 10.9865 12.8149 10.6415L12.4999 10.0045L12.1849 10.6425C12.0159 10.9865 11.6879 11.2245 11.3079 11.2795L10.6039 11.3815ZM14.1179 15.3875C13.9319 15.3875 13.7459 15.3425 13.5739 15.2515L12.4999 14.6885L11.4249 15.2525C11.0289 15.4595 10.5579 15.4265 10.1979 15.1645C9.8369 14.9015 9.6599 14.4655 9.7349 14.0255L9.9399 12.8295L9.0709 11.9825C8.7519 11.6715 8.6379 11.2145 8.7749 10.7905C8.9129 10.3655 9.2729 10.0605 9.7139 9.99646L10.9179 9.82046L11.4549 8.73146C11.6519 8.33146 12.0519 8.08246 12.4999 8.08246C12.9459 8.08246 13.3469 8.33146 13.5439 8.73246L14.0819 9.82046L15.2839 9.99646C15.7259 10.0605 16.0869 10.3655 16.2239 10.7905C16.3609 11.2145 16.2479 11.6715 15.9279 11.9835L15.0579 12.8305L15.2639 14.0255C15.3389 14.4665 15.1609 14.9035 14.7989 15.1655C14.5949 15.3125 14.3569 15.3875 14.1179 15.3875V15.3875Z" fill="white" fill-opacity="0.5"/>
</svg>
