<svg width="25" height="24" viewBox="0 0 25 24" fill="none" xmlns="http://www.w3.org/2000/svg">
<path fill-rule="evenodd" clip-rule="evenodd" d="M20.261 12.001C20.261 12.8145 20.929 13.4764 21.75 13.4764C22.164 13.4764 22.5 13.8093 22.5 14.2195V16.8958C22.5 19.159 20.642 21 18.358 21H6.643C4.359 21 2.5 19.159 2.5 16.8958V14.2195C2.5 13.8093 2.836 13.4764 3.25 13.4764C4.072 13.4764 4.74 12.8145 4.74 12.001C4.74 11.2083 4.099 10.6118 3.25 10.6118C3.051 10.6118 2.861 10.5335 2.72 10.3938C2.579 10.2541 2.5 10.0648 2.5 9.86866L2.502 7.10514C2.502 4.84201 4.36 3 6.644 3H18.356C20.64 3 22.499 4.84201 22.499 7.10514L22.5 9.78245C22.5 9.97864 22.421 10.1689 22.281 10.3076C22.14 10.4473 21.95 10.5256 21.75 10.5256C20.929 10.5256 20.261 11.1875 20.261 12.001ZM14.752 12.648L15.931 11.5105C16.136 11.3143 16.207 11.025 16.118 10.7575C16.03 10.4899 15.8 10.2997 15.522 10.261L13.893 10.0252L13.164 8.5627C13.039 8.31102 12.785 8.15446 12.502 8.15347H12.5C12.218 8.15347 11.964 8.31003 11.837 8.56171L11.108 10.0252L9.482 10.26C9.201 10.2997 8.971 10.4899 8.882 10.7575C8.794 11.025 8.865 11.3143 9.069 11.5105L10.248 12.648L9.97 14.2562C9.922 14.5336 10.035 14.8091 10.265 14.9746C10.395 15.0667 10.546 15.1143 10.699 15.1143C10.816 15.1143 10.934 15.0855 11.042 15.0291L12.5 14.2701L13.955 15.0271C14.207 15.1608 14.506 15.14 14.735 14.9736C14.966 14.8091 15.079 14.5336 15.031 14.2562L14.752 12.648Z" fill="#36FFB5"/>
</svg>
