<svg width="40" height="40" viewBox="0 0 40 40" fill="none" xmlns="http://www.w3.org/2000/svg">
<rect width="40" height="40" rx="10" fill="#ADDF48"/>
<path fill-rule="evenodd" clip-rule="evenodd" d="M29.099 16.9078L29.8793 17.6878C30.497 18.2945 30.833 19.1178 30.833 19.9845C30.8438 20.8512 30.5079 21.6756 29.901 22.292C29.8938 22.2999 29.8865 22.3069 29.8793 22.3139C29.8757 22.3174 29.8721 22.3209 29.8685 22.3245L29.099 23.0937C28.7956 23.397 28.6222 23.8087 28.6222 24.2431V25.3578C28.6222 27.1562 27.1592 28.6197 25.3602 28.6197H24.2439C23.8104 28.6197 23.3986 28.792 23.0952 29.0953L22.3149 29.8753C21.6755 30.5156 20.841 30.8287 20.0066 30.8287C19.1721 30.8287 18.3376 30.5156 17.6982 29.8872L16.9071 29.0953C16.6037 28.792 16.1919 28.6197 15.7584 28.6197H14.6421C12.8431 28.6197 11.3801 27.1562 11.3801 25.3578V24.2431C11.3801 23.8087 11.2067 23.397 10.9033 23.0828L10.123 22.3137C8.85503 21.0472 8.84419 18.977 10.1121 17.6997L10.9033 16.9078C11.2067 16.6045 11.3801 16.1928 11.3801 15.7487V14.6437C11.3801 12.8453 12.8431 11.3839 14.6421 11.3839H15.7584C16.1919 11.3839 16.6037 11.2095 16.9071 10.9062L17.6874 10.1262C18.9554 8.8489 21.0253 8.8489 22.3041 10.1164L23.0952 10.9062C23.3986 11.2095 23.8104 11.3839 24.2439 11.3839H25.3602C27.1592 11.3839 28.6222 12.8453 28.6222 14.6437V15.7606C28.6222 16.1928 28.7956 16.6045 29.099 16.9078ZM17.2105 23.7329C17.4706 23.7329 17.709 23.6354 17.8824 23.4512L23.4527 17.884C23.8212 17.5156 23.8212 16.9079 23.4527 16.5395C23.0843 16.1723 22.4882 16.1723 22.1198 16.5395L16.5494 22.1079C16.1809 22.4762 16.1809 23.0829 16.5494 23.4512C16.7228 23.6354 16.9612 23.7329 17.2105 23.7329ZM21.8379 22.7795C21.8379 23.3103 22.2606 23.7328 22.7916 23.7328C23.3118 23.7328 23.7345 23.3103 23.7345 22.7795C23.7345 22.2606 23.3118 21.837 22.7916 21.837C22.2606 21.837 21.8379 22.2606 21.8379 22.7795ZM17.2212 16.2687C17.7414 16.2687 18.1641 16.6912 18.1641 17.2112C18.1641 17.7431 17.7414 18.1645 17.2212 18.1645C16.7011 18.1645 16.2676 17.7431 16.2676 17.2112C16.2676 16.6912 16.7011 16.2687 17.2212 16.2687Z" fill="white"/>
</svg>
