<svg width="40" height="40" viewBox="0 0 40 40" fill="none" xmlns="http://www.w3.org/2000/svg">
<circle cx="19" cy="19" r="16" fill="white"/>
<path d="M24.8108 20.2396H20.3117V24.6997C20.3117 25.4178 19.7244 26 19 26C18.2756 26 17.6883 25.4178 17.6883 24.6997V20.2396H13.1892C12.5135 20.1702 12 19.6057 12 18.9323C12 18.2589 12.5135 17.6944 13.1892 17.625H17.6742V13.1789C17.7442 12.509 18.3136 12 18.9929 12C19.6723 12 20.2417 12.509 20.3117 13.1789V17.625H24.8108C25.4865 17.6944 26 18.2589 26 18.9323C26 19.6057 25.4865 20.1702 24.8108 20.2396Z" fill="#4E2ECF"/>
</svg>
