<svg width="20" height="20" viewBox="0 0 20 20" fill="none" xmlns="http://www.w3.org/2000/svg">
<path fill-rule="evenodd" clip-rule="evenodd" d="M14.1756 12.1677C14.5206 12.1677 14.8006 11.8877 14.8006 11.5427V9.99935C14.8006 9.65435 14.5206 9.37435 14.1756 9.37435H9.43225C9.16225 8.48518 8.34391 7.83185 7.36725 7.83185C6.17225 7.83185 5.19975 8.80435 5.19975 9.99935C5.19975 11.1952 6.17225 12.1677 7.36725 12.1677C8.34391 12.1677 9.16225 11.5143 9.43225 10.6243H11.1922V11.5427C11.1922 11.8877 11.4722 12.1677 11.8172 12.1677C12.1622 12.1677 12.4422 11.8877 12.4422 11.5427V10.6243H13.5506V11.5427C13.5506 11.8877 13.8306 12.1677 14.1756 12.1677ZM6.38808 1.66602H13.6122C16.4356 1.66602 18.3331 3.64768 18.3331 6.59685V13.4027C18.3331 16.3518 16.4356 18.3327 13.6114 18.3327H6.38808C3.56391 18.3327 1.66641 16.3518 1.66641 13.4027V6.59685C1.66641 3.64768 3.56391 1.66602 6.38808 1.66602ZM6.449 10.0001C6.449 9.49343 6.8615 9.08177 7.36733 9.08177C7.87316 9.08177 8.28566 9.49343 8.28566 10.0001C8.28566 10.5059 7.87316 10.9176 7.36733 10.9176C6.8615 10.9176 6.449 10.5059 6.449 10.0001Z" fill="white" fill-opacity="0.5"/>
</svg>
