<svg width="20" height="20" viewBox="0 0 20 20" fill="none" xmlns="http://www.w3.org/2000/svg">
<mask id="mask0_1721_4481" style="mask-type:alpha" maskUnits="userSpaceOnUse" x="3" y="12" width="14" height="7">
<path fill-rule="evenodd" clip-rule="evenodd" d="M3.33337 12.0806H16.5333V18.2256H3.33337V12.0806Z" fill="white"/>
</mask>
<g mask="url(#mask0_1721_4481)">
<path fill-rule="evenodd" clip-rule="evenodd" d="M9.93409 13.3306C6.38325 13.3306 4.58325 13.9406 4.58325 15.1447C4.58325 16.3597 6.38325 16.9756 9.93409 16.9756C13.4841 16.9756 15.2833 16.3656 15.2833 15.1614C15.2833 13.9464 13.4841 13.3306 9.93409 13.3306ZM9.93409 18.2256C8.30159 18.2256 3.33325 18.2256 3.33325 15.1447C3.33325 12.3981 7.10075 12.0806 9.93409 12.0806C11.5666 12.0806 16.5333 12.0806 16.5333 15.1614C16.5333 17.9081 12.7666 18.2256 9.93409 18.2256Z" fill="#F6F6F6"/>
</g>
<mask id="mask1_1721_4481" style="mask-type:alpha" maskUnits="userSpaceOnUse" x="5" y="1" width="10" height="10">
<path fill-rule="evenodd" clip-rule="evenodd" d="M5.5083 1.66699H14.3583V10.5158H5.5083V1.66699Z" fill="white"/>
</mask>
<g mask="url(#mask1_1721_4481)">
<path fill-rule="evenodd" clip-rule="evenodd" d="M9.93416 2.8565C8.14999 2.8565 6.69833 4.30734 6.69833 6.0915C6.69249 7.86984 8.13333 9.31984 9.90999 9.3265L9.93416 9.9215V9.3265C11.7175 9.3265 13.1683 7.87484 13.1683 6.0915C13.1683 4.30734 11.7175 2.8565 9.93416 2.8565ZM9.93416 10.5157H9.90749C7.47249 10.5082 5.49999 8.52234 5.50833 6.089C5.50833 3.6515 7.49333 1.6665 9.93416 1.6665C12.3742 1.6665 14.3583 3.6515 14.3583 6.0915C14.3583 8.5315 12.3742 10.5157 9.93416 10.5157Z" fill="#F6F6F6"/>
</g>
</svg>
