<svg width="24" height="24" viewBox="0 0 24 24" fill="none" xmlns="http://www.w3.org/2000/svg">
<path d="M19.75 21.875L15.725 17.85C15.2083 18.05 14.6377 18.2083 14.013 18.325C13.3877 18.4417 12.7167 18.5 12 18.5C9.65 18.5 7.53734 17.854 5.662 16.562C3.78734 15.2707 2.41667 13.5833 1.55 11.5C1.91667 10.6167 2.39167 9.79167 2.975 9.025C3.55834 8.25834 4.2 7.6 4.9 7.05L2.125 4.25L3.175 3.175L20.825 20.825L19.75 21.875ZM12 15.575C12.2167 15.575 12.4333 15.5583 12.65 15.525C12.8667 15.4917 13.0583 15.4417 13.225 15.375L8.125 10.275C8.05834 10.4583 8.00834 10.6583 7.975 10.875C7.94167 11.0917 7.925 11.3 7.925 11.5C7.925 12.6333 8.321 13.5957 9.113 14.387C9.90434 15.179 10.8667 15.575 12 15.575ZM18.95 16.075L15.825 12.975C15.8917 12.7583 15.95 12.529 16 12.287C16.05 12.0457 16.075 11.7833 16.075 11.5C16.075 10.3667 15.679 9.40434 14.887 8.613C14.0957 7.821 13.1333 7.425 12 7.425C11.7167 7.425 11.4583 7.45 11.225 7.5C10.9917 7.55 10.7583 7.625 10.525 7.725L8.025 5.225C8.65834 4.975 9.30434 4.79167 9.963 4.675C10.621 4.55834 11.3 4.5 12 4.5C14.35 4.5 16.4667 5.146 18.35 6.438C20.2333 7.72934 21.6 9.41667 22.45 11.5C22.0833 12.4 21.6083 13.2373 21.025 14.012C20.4417 14.7873 19.75 15.475 18.95 16.075V16.075ZM14.675 11.85L11.675 8.85C12.1083 8.76667 12.521 8.8 12.913 8.95C13.3043 9.1 13.6417 9.31667 13.925 9.6C14.225 9.9 14.4417 10.2457 14.575 10.637C14.7083 11.029 14.7417 11.4333 14.675 11.85V11.85Z" fill="#BEBECA"/>
</svg>
