<svg width="20" height="20" viewBox="0 0 20 20" fill="none" xmlns="http://www.w3.org/2000/svg">
<path fill-rule="evenodd" clip-rule="evenodd" d="M7.43808 13.6587H11.9265C12.2648 13.6587 12.5453 13.3753 12.5453 13.0337C12.5453 12.692 12.2648 12.417 11.9265 12.417H7.43808C7.09979 12.417 6.81927 12.692 6.81927 13.0337C6.81927 13.3753 7.09979 13.6587 7.43808 13.6587ZM10.2269 8.25033H7.43808C7.09979 8.25033 6.81927 8.53366 6.81927 8.87533C6.81927 9.21699 7.09979 9.49199 7.43808 9.49199H10.2269C10.5651 9.49199 10.8457 9.21699 10.8457 8.87533C10.8457 8.53366 10.5651 8.25033 10.2269 8.25033ZM16.115 7.52167C16.309 7.51943 16.5201 7.51699 16.712 7.51699C16.9183 7.51699 17.0833 7.68366 17.0833 7.89199V14.592C17.0833 16.6587 15.4249 18.3337 13.3787 18.3337H6.81102C4.6658 18.3337 2.91663 16.5753 2.91663 14.4087V5.42533C2.91663 3.35866 4.58329 1.66699 6.63775 1.66699H11.0437C11.2582 1.66699 11.4232 1.84199 11.4232 2.05033V4.73366C11.4232 6.25866 12.6691 7.50866 14.179 7.51699C14.5317 7.51699 14.8426 7.51963 15.1147 7.52194C15.3264 7.52373 15.5146 7.52533 15.6807 7.52533C15.7981 7.52533 15.9503 7.52357 16.115 7.52167ZM16.3425 6.30533C15.6643 6.30783 14.8648 6.30533 14.2897 6.29949C13.3772 6.29949 12.6255 5.54033 12.6255 4.61866V2.42199C12.6255 2.06283 13.0571 1.88449 13.3038 2.14366C13.7508 2.61315 14.3654 3.25871 14.9769 3.90112C15.5854 4.54035 16.191 5.17646 16.6255 5.63283C16.8665 5.88533 16.6899 6.30449 16.3425 6.30533Z" fill="#36FFB5"/>
</svg>
