<svg width="48" height="21" viewBox="0 0 48 21" fill="none" xmlns="http://www.w3.org/2000/svg">
<path fill-rule="evenodd" clip-rule="evenodd" d="M38.2055 18.8336C37.0763 18.8336 35.9755 18.8211 34.8863 18.7986C33.493 18.7711 32.5288 17.8678 32.3713 16.4411C32.1088 14.0745 31.6596 8.49612 31.6555 8.44029C31.6271 8.09612 31.8838 7.79445 32.228 7.76695C32.5671 7.75779 32.8738 7.99612 32.9013 8.33945C32.9055 8.39612 33.3538 13.9553 33.6138 16.3036C33.703 17.1145 34.1405 17.5328 34.9121 17.5486C36.9955 17.5928 39.1213 17.5953 41.413 17.5536C42.233 17.5378 42.6763 17.1278 42.768 16.2978C43.0263 13.9695 43.4763 8.39612 43.4813 8.33945C43.5088 7.99612 43.813 7.75612 44.1538 7.76695C44.498 7.79529 44.7546 8.09612 44.7271 8.44029C44.7221 8.49695 44.2705 14.0895 44.0105 16.4353C43.8488 17.8911 42.8871 18.777 41.4355 18.8036C40.3246 18.8228 39.253 18.8336 38.2055 18.8336Z" fill="white"/>
<path fill-rule="evenodd" clip-rule="evenodd" d="M45.2567 6.32422H31.125C30.78 6.32422 30.5 6.04422 30.5 5.69922C30.5 5.35422 30.78 5.07422 31.125 5.07422H45.2567C45.6017 5.07422 45.8817 5.35422 45.8817 5.69922C45.8817 6.04422 45.6017 6.32422 45.2567 6.32422Z" fill="white"/>
<path fill-rule="evenodd" clip-rule="evenodd" d="M42.5336 6.32449C41.5853 6.32449 40.7619 5.64866 40.5753 4.71866L40.3728 3.70533C40.3303 3.55116 40.1544 3.41699 39.9544 3.41699H36.4269C36.2269 3.41699 36.0511 3.55116 36.0003 3.74366L35.8061 4.71866C35.6203 5.64866 34.7961 6.32449 33.8478 6.32449C33.5028 6.32449 33.2228 6.04449 33.2228 5.69949C33.2228 5.35449 33.5028 5.07449 33.8478 5.07449C34.2028 5.07449 34.5111 4.82116 34.5811 4.47283L34.7836 3.45949C34.9894 2.68283 35.6619 2.16699 36.4269 2.16699H39.9544C40.7194 2.16699 41.3919 2.68283 41.5894 3.42199L41.8011 4.47283C41.8703 4.82116 42.1786 5.07449 42.5336 5.07449C42.8786 5.07449 43.1586 5.35449 43.1586 5.69949C43.1586 6.04449 42.8786 6.32449 42.5336 6.32449Z" fill="white"/>
</svg>
