<svg width="49" height="48" viewBox="0 0 49 48" fill="none" xmlns="http://www.w3.org/2000/svg">
<rect x="0.5" width="48" height="48" rx="12" fill="#151530"/>
<path fill-rule="evenodd" clip-rule="evenodd" d="M21.7917 24.5998C24.7758 24.5998 27.1678 22.1768 27.1678 19.1541C27.1678 16.1314 24.7758 13.7083 21.7917 13.7083C18.8075 13.7083 16.4155 16.1314 16.4155 19.1541C16.4155 22.1768 18.8075 24.5998 21.7917 24.5998ZM21.7917 27.2665C17.4087 27.2665 13.6667 27.9672 13.6667 30.767C13.6667 33.5657 17.386 34.2917 21.7917 34.2917C26.1735 34.2917 29.9167 33.5909 29.9167 30.7912C29.9167 27.9914 26.1974 27.2665 21.7917 27.2665ZM33.0561 21.3869H34.3594C34.8959 21.3869 35.3333 21.8304 35.3333 22.3744C35.3333 22.9185 34.8959 23.362 34.3594 23.362H33.0561V24.6374C33.0561 25.1814 32.6198 25.625 32.0822 25.625C31.5457 25.625 31.1083 25.1814 31.1083 24.6374V23.362H29.8072C29.2696 23.362 28.8333 22.9185 28.8333 22.3744C28.8333 21.8304 29.2696 21.3869 29.8072 21.3869H31.1083V20.1126C31.1083 19.5686 31.5457 19.125 32.0822 19.125C32.6198 19.125 33.0561 19.5686 33.0561 20.1126V21.3869Z" fill="#36FFB5"/>
</svg>
