<svg width="16" height="16" viewBox="0 0 16 16" fill="none" xmlns="http://www.w3.org/2000/svg">
<path d="M11.6067 8.09432C11.5226 7.93832 11.3626 7.84107 11.1885 7.84107H8.4782V2.48953C8.4782 2.21931 8.26398 2 8.00003 2C7.73607 2 7.52185 2.21931 7.52185 2.48953V7.84107H4.81155C4.63686 7.84107 4.47683 7.93832 4.39331 8.09432C4.30851 8.25031 4.31425 8.4409 4.4067 8.59168L7.59517 13.7716C7.68316 13.9138 7.83554 14 8.00003 14C8.16452 14 8.3169 13.9138 8.40488 13.7716L11.5934 8.59168C11.6418 8.51205 11.6667 8.42132 11.6667 8.3306C11.6667 8.24966 11.6463 8.16807 11.6067 8.09432Z" fill="#FF647C"/>
</svg>
