<svg width="25" height="24" viewBox="0 0 25 24" fill="none" xmlns="http://www.w3.org/2000/svg">
<mask id="mask0_145_644" style="mask-type:alpha" maskUnits="userSpaceOnUse" x="4" y="14" width="17" height="8">
<path fill-rule="evenodd" clip-rule="evenodd" d="M4.5 14.4961H20.3399V21.8701H4.5V14.4961Z" fill="white"/>
</mask>
<g mask="url(#mask0_145_644)">
<path fill-rule="evenodd" clip-rule="evenodd" d="M12.4209 15.9961C8.1599 15.9961 5.9999 16.7281 5.9999 18.1731C5.9999 19.6311 8.1599 20.3701 12.4209 20.3701C16.6809 20.3701 18.8399 19.6381 18.8399 18.1931C18.8399 16.7351 16.6809 15.9961 12.4209 15.9961ZM12.4209 21.8701C10.4619 21.8701 4.4999 21.8701 4.4999 18.1731C4.4999 14.8771 9.0209 14.4961 12.4209 14.4961C14.3799 14.4961 20.3399 14.4961 20.3399 18.1931C20.3399 21.4891 15.8199 21.8701 12.4209 21.8701Z" fill="white" fill-opacity="0.5"/>
</g>
<mask id="mask1_145_644" style="mask-type:alpha" maskUnits="userSpaceOnUse" x="7" y="2" width="11" height="11">
<path fill-rule="evenodd" clip-rule="evenodd" d="M7.10987 2.00012H17.7299V12.6187H7.10987V2.00012Z" fill="white"/>
</mask>
<g mask="url(#mask1_145_644)">
<path fill-rule="evenodd" clip-rule="evenodd" d="M12.4209 3.42769C10.2799 3.42769 8.5379 5.16869 8.5379 7.30969C8.5309 9.4437 10.2599 11.1837 12.3919 11.1917L12.4209 11.9057V11.1917C14.5609 11.1917 16.3019 9.44969 16.3019 7.30969C16.3019 5.16869 14.5609 3.42769 12.4209 3.42769ZM12.4209 12.6187H12.3889C9.4669 12.6097 7.0999 10.2267 7.1099 7.30669C7.1099 4.3817 9.4919 1.99969 12.4209 1.99969C15.3489 1.99969 17.7299 4.38169 17.7299 7.30969C17.7299 10.2377 15.3489 12.6187 12.4209 12.6187Z" fill="white" fill-opacity="0.5"/>
</g>
</svg>
