<svg width="20" height="20" viewBox="0 0 20 20" fill="none" xmlns="http://www.w3.org/2000/svg">
<path fill-rule="evenodd" clip-rule="evenodd" d="M9.7916 3.75C9.71576 3.75 9.5291 3.77083 9.42993 3.96917L7.90826 7.01167C7.66743 7.4925 7.20326 7.82667 6.6666 7.90333L3.25993 8.39417C3.03493 8.42667 2.95826 8.59333 2.93493 8.66333C2.9141 8.73083 2.88076 8.9025 3.03576 9.05083L5.4991 11.4175C5.8916 11.795 6.06993 12.3392 5.9766 12.8717L5.3966 16.2133C5.36076 16.4225 5.4916 16.5442 5.54993 16.5858C5.6116 16.6325 5.7766 16.725 5.98076 16.6183L9.0266 15.0392C9.5066 14.7917 10.0783 14.7917 10.5566 15.0392L13.6016 16.6175C13.8066 16.7233 13.9716 16.6308 14.0341 16.5858C14.0924 16.5442 14.2233 16.4225 14.1874 16.2133L13.6058 12.8717C13.5124 12.3392 13.6908 11.795 14.0833 11.4175L16.5466 9.05083C16.7024 8.9025 16.6691 8.73 16.6474 8.66333C16.6249 8.59333 16.5483 8.42667 16.3233 8.39417L12.9166 7.90333C12.3808 7.82667 11.9166 7.4925 11.6758 7.01083L10.1524 3.96917C10.0541 3.77083 9.86743 3.75 9.7916 3.75ZM5.7891 17.9167C5.44493 17.9167 5.10326 17.8083 4.81076 17.595C4.30576 17.225 4.05826 16.6142 4.16576 15.9992L4.74576 12.6575C4.76743 12.5333 4.72493 12.4075 4.63326 12.3192L2.16993 9.9525C1.7166 9.51833 1.5541 8.87667 1.74576 8.28083C1.9391 7.67833 2.45076 7.2475 3.0816 7.1575L6.48826 6.66667C6.61993 6.64833 6.73326 6.5675 6.78993 6.4525L8.31243 3.40917C8.59326 2.84833 9.15993 2.5 9.7916 2.5C10.4233 2.5 10.9899 2.84833 11.2708 3.40917L12.7941 6.45167C12.8516 6.5675 12.9641 6.64833 13.0949 6.66667L16.5016 7.1575C17.1324 7.2475 17.6441 7.67833 17.8374 8.28083C18.0291 8.87667 17.8658 9.51833 17.4124 9.9525L14.9491 12.3192C14.8574 12.4075 14.8158 12.5333 14.8374 12.6567L15.4183 15.9992C15.5249 16.615 15.2774 17.2258 14.7716 17.595C14.2591 17.9708 13.5916 18.0217 13.0258 17.7267L9.9816 16.1492C9.86243 16.0875 9.71993 16.0875 9.60076 16.1492L6.5566 17.7275C6.31326 17.8542 6.05076 17.9167 5.7891 17.9167Z" fill="white"/>
</svg>
