<svg width="33" height="32" viewBox="0 0 33 32" fill="none" xmlns="http://www.w3.org/2000/svg">
<g clip-path="url(#clip0_657_4839)">
<path d="M21.1953 28.625H11.8047L12.7109 25.125H20.2891L21.1953 28.625Z" fill="#DFEDFF"/>
<path d="M22.375 31.375H10.625C9.86563 31.375 9.25 30.7594 9.25 30C9.25 29.2406 9.86563 28.625 10.625 28.625H22.375C23.1344 28.625 23.75 29.2406 23.75 30C23.75 30.7594 23.1344 31.375 22.375 31.375Z" fill="#71ABFF"/>
<path d="M29.375 25.125H3.625C2.24431 25.125 1.125 24.0057 1.125 22.625V5.625C1.125 4.24431 2.24431 3.125 3.625 3.125H29.375C30.7557 3.125 31.875 4.24431 31.875 5.625V22.625C31.875 24.0057 30.7557 25.125 29.375 25.125Z" fill="white" fill-opacity="0.06"/>
<path d="M31.875 20.625V22.625C31.875 24.0057 30.7557 25.125 29.375 25.125H3.625C2.24431 25.125 1.125 24.0057 1.125 22.625V20.625H31.875Z" fill="#71ABFF"/>
<path d="M15.375 17.875H29.375V20.625H15.375V17.875Z" fill="#FFCD08"/>
<path d="M17.5 15.125H27.25V17.875H17.5V15.125Z" fill="#FFCD08"/>
<path d="M20.7501 10.5691L16.6121 14.7071C16.1122 15.207 15.3017 15.207 14.8017 14.7071C14.3018 14.2071 14.3018 13.3966 14.8017 12.8967L18.9397 8.75874C19.4396 8.2588 20.2501 8.2588 20.7501 8.75874C21.25 9.25868 21.25 10.0692 20.7501 10.5691Z" fill="#FFDCBF"/>
<path d="M12.9914 2.81033L8.85343 6.94827C8.3535 7.4482 7.543 7.4482 7.04306 6.94827C6.54312 6.44833 6.54312 5.63783 7.04306 5.13789L11.181 0.999953C11.6809 0.500016 12.4914 0.500016 12.9914 0.999953C13.4913 1.49989 13.4913 2.31045 12.9914 2.81033Z" fill="#FFDCBF"/>
<path d="M8.72261 7.07812L13.1185 2.68222L19.0659 8.62964L14.67 13.0255L8.72261 7.07812Z" fill="#FF9D46"/>
<path d="M12.7812 11.1347L3.73956 20.1764C3.14144 20.7745 2.17169 20.7745 1.57362 20.1764C0.975499 19.5783 0.975499 18.6085 1.57362 18.0104L10.6153 8.96875L12.7812 11.1347Z" fill="#FF9D46"/>
<path d="M8.66328 10.9189L10.6131 8.96917L12.7787 11.1348L10.8289 13.0846L8.66328 10.9189Z" fill="#FFDCBF"/>
<path d="M29.375 2.50004H13.8953C14.1114 1.83904 13.9578 1.08248 13.4333 0.558039C12.6905 -0.184773 11.4819 -0.184648 10.7391 0.558039L8.79706 2.50004H3.625C1.90188 2.50004 0.5 3.90191 0.5 5.62504V22.625C0.5 24.3482 1.90188 25.75 3.625 25.75H11.9035L11.3209 28H10.625C9.52219 28 8.625 28.8972 8.625 30C8.625 31.1029 9.52219 32 10.625 32H22.375C23.4778 32 24.375 31.1029 24.375 30C24.375 28.8972 23.4778 28 22.375 28H21.6791L21.0965 25.75H29.375C31.0981 25.75 32.5 24.3482 32.5 22.625V15.8973C32.5 15.5521 32.2201 15.2723 31.875 15.2723C31.5299 15.2723 31.25 15.5521 31.25 15.8973V20H30V17.875C30 17.5298 29.7201 17.25 29.375 17.25H27.875V15.125C27.875 14.7798 27.5951 14.5 27.25 14.5H17.7029L21.1921 11.0109C21.5519 10.651 21.7501 10.1726 21.7501 9.66373C21.7501 9.15485 21.5519 8.67648 21.1921 8.3166C20.6534 7.77798 19.8699 7.63035 19.1966 7.87285L15.0737 3.74991H29.375C30.4089 3.74991 31.25 4.59104 31.25 5.62491V10.2722C31.25 10.6174 31.5299 10.8972 31.875 10.8972C32.2201 10.8972 32.5 10.6174 32.5 10.2722V5.62504C32.5 3.90185 31.0981 2.50004 29.375 2.50004ZM14.6724 12.142L9.608 7.0776L13.1207 3.56491L13.122 3.56623C13.1225 3.56673 13.1229 3.56716 13.1234 3.56766L18.1851 8.62935L14.6724 12.142ZM15.375 17.25C15.0298 17.25 14.75 17.5299 14.75 17.875V20H4.79987L12.7812 12.0186L13.915 13.1524C13.8407 13.3578 13.8018 13.5768 13.8018 13.8017C13.8018 14.3106 13.9999 14.789 14.3598 15.1489C14.7312 15.5203 15.219 15.7059 15.7069 15.7059C16.1199 15.7059 16.5327 15.5723 16.875 15.3061V17.25H15.375V17.25ZM2.01556 19.7345C1.84431 19.5633 1.75 19.3356 1.75 19.0935C1.75 18.8514 1.84431 18.6237 2.01556 18.4525L8.66525 11.8028L9.94731 13.0849L3.29756 19.7345C3.12638 19.9057 2.89869 20 2.65656 20C2.41444 20 2.18675 19.9057 2.01556 19.7345ZM11.8974 11.1347L10.8312 12.2009L9.54912 10.9189L10.6153 9.85266L11.8974 11.1347ZM11.623 1.44191C11.7507 1.31423 11.9185 1.25035 12.0863 1.25035C12.254 1.25035 12.4218 1.31423 12.5495 1.44191C12.8048 1.69723 12.8049 2.1126 12.5498 2.3681L12.5495 2.36841L8.4115 6.50641C8.28781 6.63016 8.12325 6.69829 7.94825 6.69829C7.77325 6.69829 7.60875 6.63016 7.485 6.50635C7.22956 6.25098 7.22956 5.83535 7.485 5.57991L11.623 1.44191ZM3.625 3.75004H7.54706L6.60112 4.69598C5.85837 5.43879 5.85837 6.64741 6.60112 7.39023C6.97256 7.7616 7.46044 7.94735 7.94825 7.94735C8.16794 7.94735 8.38756 7.90935 8.59663 7.83404L9.73137 8.96879L8.22331 10.4769L8.22325 10.4769L8.22319 10.477L1.75 16.9502V5.62504C1.75 4.59116 2.59113 3.75004 3.625 3.75004ZM23.125 30C23.125 30.4136 22.7886 30.75 22.375 30.75H10.625C10.2114 30.75 9.875 30.4136 9.875 30C9.875 29.5865 10.2114 29.25 10.625 29.25H22.375C22.7886 29.25 23.125 29.5865 23.125 30ZM20.3879 28H12.6121L13.1947 25.75H19.8053L20.3879 28ZM31.25 22.625C31.25 23.6589 30.4089 24.5 29.375 24.5H3.625C2.59113 24.5 1.75 23.6589 1.75 22.625V21.25H31.25V22.625ZM28.75 20H16V18.5H28.75V20ZM18.125 15.75H26.625V17.25H18.125V15.75ZM19.8449 9.00904C20.0127 9.00904 20.1804 9.07285 20.3081 9.2006C20.4319 9.32429 20.5 9.48885 20.5 9.66385C20.5 9.83885 20.4319 10.0034 20.3081 10.1271L16.1702 14.2651C15.9148 14.5205 15.4991 14.5205 15.2437 14.2651C15.1199 14.1414 15.0518 13.9769 15.0518 13.8019C15.0518 13.6269 15.1199 13.4624 15.2437 13.3386L19.3819 9.20035C19.5096 9.07279 19.6772 9.00904 19.8449 9.00904Z" fill="white" fill-opacity="0.2"/>
<path d="M31.875 12.46C31.7106 12.46 31.5494 12.5262 31.4331 12.6425C31.3169 12.7593 31.25 12.9206 31.25 13.085C31.25 13.2493 31.3168 13.41 31.4331 13.5268C31.5494 13.6431 31.7106 13.71 31.875 13.71C32.0394 13.71 32.2006 13.6431 32.3168 13.5268C32.4331 13.4106 32.5 13.2493 32.5 13.085C32.5 12.9206 32.4331 12.7593 32.3168 12.6425C32.2006 12.5262 32.0394 12.46 31.875 12.46Z" fill="white" fill-opacity="0.2"/>
</g>
<defs>
<clipPath id="clip0_657_4839">
<rect width="32" height="32" fill="white" transform="translate(0.5)"/>
</clipPath>
</defs>
</svg>
