<svg width="49" height="48" viewBox="0 0 49 48" fill="none" xmlns="http://www.w3.org/2000/svg">
<rect x="0.5" width="48" height="48" rx="12" fill="#151530"/>
<path d="M27.1198 16.9474C26.6041 16.8521 26.1305 17.1813 26.0323 17.6847C25.9341 18.1881 26.2643 18.6796 26.766 18.7781C28.2764 19.0725 29.4427 20.2417 29.7383 21.7574V21.7584C29.8225 22.1947 30.2065 22.5119 30.6489 22.5119C30.7082 22.5119 30.7676 22.5065 30.828 22.4957C31.3297 22.395 31.6598 21.9046 31.5616 21.4001C31.1204 19.1364 29.378 17.388 27.1198 16.9474" fill="#36FFB5"/>
<path d="M27.0524 13.1752C26.8107 13.1406 26.568 13.2121 26.3749 13.3658C26.1763 13.5217 26.0523 13.7469 26.0253 13.9991C25.9681 14.509 26.336 14.9702 26.8453 15.0276C30.3571 15.4195 33.0867 18.1552 33.4815 21.6779C33.5344 22.1499 33.9303 22.5061 34.4029 22.5061C34.4385 22.5061 34.473 22.5039 34.5086 22.4996C34.7557 22.4725 34.9758 22.3502 35.1312 22.1553C35.2854 21.9605 35.3556 21.718 35.3275 21.47C34.8355 17.0747 31.4338 13.6635 27.0524 13.1752" fill="#36FFB5"/>
<path fill-rule="evenodd" clip-rule="evenodd" d="M23.4511 25.0534C27.7726 29.3737 28.7529 24.3756 31.5045 27.1252C34.1571 29.7772 35.6818 30.3085 32.3208 33.6685C31.8999 34.0068 29.2251 38.0771 19.825 28.6796C10.4237 19.281 14.4917 16.6035 14.8301 16.1826C18.1992 12.8133 18.7214 14.3468 21.374 16.9988C24.1256 19.7495 19.1295 20.7331 23.4511 25.0534Z" fill="#36FFB5"/>
</svg>
