<svg width="24" height="24" viewBox="0 0 24 24" fill="none" xmlns="http://www.w3.org/2000/svg">
<mask id="mask0_193_1076" style="mask-type:alpha" maskUnits="userSpaceOnUse" x="2" y="2" width="20" height="21">
<path fill-rule="evenodd" clip-rule="evenodd" d="M2 2.00098H21.2849V22.722H2V2.00098Z" fill="white"/>
</mask>
<g mask="url(#mask0_193_1076)">
<path fill-rule="evenodd" clip-rule="evenodd" d="M7.2022 17.441C7.4312 17.441 7.6602 17.47 7.8842 17.53C8.5602 17.712 9.1472 18.164 9.4952 18.771C9.7212 19.152 9.8462 19.597 9.8502 20.051C9.8502 20.701 10.3722 21.222 11.0142 21.222H12.2672C12.9062 21.222 13.4282 20.704 13.4312 20.065C13.4272 19.359 13.7032 18.688 14.2082 18.183C14.7062 17.685 15.4022 17.386 16.0982 17.406C16.5542 17.417 16.9932 17.54 17.3802 17.76C17.9372 18.079 18.6482 17.889 18.9702 17.339L19.6342 16.232C19.7822 15.977 19.8252 15.657 19.7462 15.362C19.6682 15.067 19.4722 14.811 19.2082 14.66C18.5902 14.304 18.1492 13.73 17.9662 13.042C17.7852 12.367 17.8842 11.63 18.2372 11.023C18.4672 10.623 18.8042 10.286 19.2082 10.054C19.7502 9.73698 19.9402 9.02798 19.6252 8.47598C19.6122 8.45398 19.6002 8.43098 19.5902 8.40698L19.0042 7.39098C18.6852 6.83598 17.9752 6.64498 17.4182 6.96198C16.8162 7.31798 16.1002 7.41998 15.4122 7.23898C14.7252 7.06098 14.1492 6.62598 13.7902 6.01198C13.5602 5.62798 13.4352 5.18098 13.4312 4.72598C13.4402 4.38398 13.3202 4.07698 13.1022 3.85198C12.8852 3.62798 12.5802 3.50098 12.2672 3.50098H11.0142C10.7042 3.50098 10.4142 3.62198 10.1952 3.83998C9.9772 4.05898 9.8582 4.34998 9.8602 4.65998C9.8392 6.12198 8.6442 7.29898 7.1972 7.29898C6.7332 7.29398 6.2862 7.16898 5.8982 6.93698C5.3532 6.62698 4.6412 6.81798 4.3222 7.37298L3.6452 8.48598C3.3352 9.02398 3.5252 9.73498 4.0772 10.056C4.8962 10.53 5.4072 11.414 5.4072 12.362C5.4072 13.31 4.8962 14.193 4.0752 14.668C3.5262 14.986 3.3362 15.693 3.6542 16.243L4.2852 17.331C4.4412 17.612 4.6962 17.815 4.9912 17.898C5.2852 17.98 5.6092 17.945 5.8792 17.795C6.2762 17.562 6.7382 17.441 7.2022 17.441ZM12.2672 22.722H11.0142C9.5452 22.722 8.3502 21.528 8.3502 20.059C8.3482 19.878 8.2962 19.69 8.1992 19.527C8.0422 19.253 7.7882 19.057 7.4952 18.979C7.2042 18.901 6.8852 18.944 6.6232 19.096C5.9952 19.446 5.2562 19.531 4.5802 19.341C3.9052 19.15 3.3222 18.686 2.9802 18.071L2.3552 16.994C1.6242 15.726 2.0592 14.101 3.3252 13.369C3.6842 13.162 3.9072 12.776 3.9072 12.362C3.9072 11.948 3.6842 11.561 3.3252 11.354C2.0582 10.618 1.6242 8.98898 2.3542 7.72098L3.0322 6.60798C3.7532 5.35398 5.3832 4.91198 6.6542 5.64198C6.8272 5.74498 7.0152 5.79698 7.2062 5.79898C7.8292 5.79898 8.3502 5.28498 8.3602 4.65298C8.3562 3.95598 8.6312 3.28698 9.1322 2.78198C9.6352 2.27798 10.3032 2.00098 11.0142 2.00098H12.2672C12.9832 2.00098 13.6792 2.29498 14.1782 2.80598C14.6762 3.31998 14.9512 4.02498 14.9302 4.73998C14.9322 4.90098 14.9852 5.08698 15.0812 5.24998C15.2402 5.51998 15.4912 5.70998 15.7892 5.78798C16.0872 5.86198 16.3992 5.82198 16.6642 5.66498C17.9442 4.93398 19.5732 5.37198 20.3042 6.64198L20.9272 7.72098C20.9432 7.74998 20.9572 7.77798 20.9692 7.80698C21.6312 9.05798 21.1892 10.633 19.9592 11.352C19.7802 11.455 19.6352 11.599 19.5352 11.773C19.3802 12.042 19.3372 12.362 19.4152 12.656C19.4952 12.956 19.6862 13.205 19.9552 13.359C20.5622 13.708 21.0152 14.296 21.1962 14.975C21.3772 15.653 21.2782 16.389 20.9252 16.996L20.2612 18.102C19.5302 19.358 17.9012 19.793 16.6342 19.061C16.4652 18.964 16.2702 18.911 16.0762 18.906H16.0702C15.7812 18.906 15.4842 19.029 15.2682 19.244C15.0492 19.463 14.9292 19.755 14.9312 20.065C14.9242 21.534 13.7292 22.722 12.2672 22.722Z" fill="white"/>
</g>
<path fill-rule="evenodd" clip-rule="evenodd" d="M11.6451 10.4746C10.6051 10.4746 9.75909 11.3216 9.75909 12.3616C9.75909 13.4016 10.6051 14.2466 11.6451 14.2466C12.6851 14.2466 13.5311 13.4016 13.5311 12.3616C13.5311 11.3216 12.6851 10.4746 11.6451 10.4746ZM11.6451 15.7466C9.77809 15.7466 8.25909 14.2286 8.25909 12.3616C8.25909 10.4946 9.77809 8.97461 11.6451 8.97461C13.5121 8.97461 15.0311 10.4946 15.0311 12.3616C15.0311 14.2286 13.5121 15.7466 11.6451 15.7466Z" fill="white"/>
</svg>
