<svg width="20" height="20" viewBox="0 0 20 20" fill="none" xmlns="http://www.w3.org/2000/svg">
<path fill-rule="evenodd" clip-rule="evenodd" d="M7.02325 2.5C7.37325 2.5 7.65741 2.77865 7.65741 3.12268C7.65741 3.46589 7.37408 3.74455 7.02325 3.74455L5.66575 3.74536C4.53908 3.747 3.62241 4.6467 3.62241 5.75233V7.30167C3.62241 7.64488 3.33741 7.92436 2.98741 7.92436C2.63741 7.92436 2.35325 7.64488 2.35325 7.30167V5.75233C2.35325 3.96109 3.83908 2.50245 5.66491 2.50082L7.02241 2.5H7.02325ZM13.0007 2.50025H14.3282C16.159 2.50025 17.6473 3.95971 17.6473 5.75502V7.30192C17.6473 7.64513 17.364 7.9246 17.0132 7.9246C16.6632 7.9246 16.379 7.64513 16.379 7.30192V5.75502C16.379 4.64613 15.459 3.74397 14.3282 3.74397H13.0007C12.6507 3.74397 12.3665 3.46614 12.3665 3.12293C12.3665 2.7789 12.6507 2.50025 13.0007 2.50025ZM12.3022 5.61888H7.69891C6.64558 5.6295 5.79891 6.47364 5.80808 7.50735V8.54516C5.81058 8.6661 5.90975 8.76497 6.03308 8.76906H13.9664C14.0906 8.76579 14.1897 8.66691 14.1939 8.54516V7.50735C14.1947 7.00807 13.9981 6.52839 13.6431 6.17129C13.2906 5.81745 12.8064 5.61888 12.3022 5.61888ZM1.4685 10.0344H18.5327C18.8827 10.0344 19.1668 10.313 19.1668 10.657C19.1668 11.0003 18.8827 11.2781 18.5327 11.2781H17.6477V14.2444C17.6477 16.0405 16.1585 17.5 14.3285 17.5H13.001C12.6502 17.5 12.366 17.2213 12.366 16.8773C12.366 16.5341 12.6502 16.2555 13.001 16.2555H14.3285C15.4593 16.2555 16.3793 15.3541 16.3793 14.2444V11.2781H14.1935V12.1042C14.2018 13.138 13.356 13.9829 12.3018 13.9927H7.6985C6.64516 13.9829 5.79933 13.138 5.80766 12.1042V11.2781H3.62183V14.2477C3.62183 15.3533 4.53933 16.253 5.66683 16.2546L7.0235 16.2555C7.3735 16.2555 7.65766 16.5341 7.65766 16.8773C7.65683 17.2213 7.3735 17.5 7.02266 17.5L5.66516 17.4992C3.83933 17.4975 2.35266 16.0389 2.35266 14.2477V11.2781H1.4685C1.1185 11.2781 0.833496 11.0003 0.833496 10.657C0.833496 10.313 1.1185 10.0344 1.4685 10.0344Z" fill="white" fill-opacity="0.5"/>
</svg>
