<svg width="33" height="32" viewBox="0 0 33 32" fill="none" xmlns="http://www.w3.org/2000/svg">
<g clip-path="url(#clip0_323_1146)">
<circle cx="15.5" cy="16" r="15" fill="#374266"/>
<path d="M20.5678 0.271484L17.3136 4.61048L20.5678 8.94948H32.5V0.271484H20.5678ZM21.1102 5.69523C20.5109 5.69523 20.0254 5.2098 20.0254 4.61048C20.0254 4.01117 20.5109 3.52573 21.1102 3.52573C21.7095 3.52573 22.1949 4.01117 22.1949 4.61048C22.1949 5.2098 21.7095 5.69523 21.1102 5.69523Z" fill="#46A9EB"/>
<path d="M32.5 2.22461L22.8235 8.94892H32.5V2.22461Z" fill="#2683C0"/>
<path d="M24.3644 13.2881H9.17794V26.8474H24.3644V13.2881Z" fill="#FFC46B"/>
<path d="M18.3983 13.2881H15.1441V16.5423H18.3983V13.2881Z" fill="#F77219"/>
<path d="M27.7466 3.52556H29.7881V2.44081H28.7034V1.89844H27.6186V2.45381C26.9548 2.52162 26.4715 3.11494 26.5393 3.77881C26.5816 4.19156 26.8328 4.55387 27.2043 4.73825L28.6318 5.452C28.6952 5.48294 28.7218 5.55994 28.6903 5.62337C28.6692 5.66675 28.6253 5.69444 28.5775 5.69494H26.5338V6.77969H27.6186V7.32206H28.7033V6.76669C29.3672 6.69887 29.8504 6.10556 29.7826 5.44169C29.7403 5.02894 29.4892 4.66662 29.1177 4.48225L27.6902 3.7685C27.6268 3.73756 27.6001 3.66056 27.6316 3.59712C27.6528 3.55375 27.6967 3.52606 27.7444 3.52556H27.7466Z" fill="white"/>
<path d="M26.8051 16.542H24.3644V15.4573H26.8051C27.8535 15.4573 28.7034 14.6074 28.7034 13.5589C28.7034 12.5105 27.8535 11.6606 26.8051 11.6606H15.1441C13.0472 11.6606 11.3474 9.96082 11.3474 7.86401C11.3474 5.7672 13.0472 4.06738 15.1441 4.06738H20.0254V5.15213H15.1441C13.6466 5.15213 12.4322 6.36651 12.4322 7.86401C12.4322 9.36151 13.6466 10.5759 15.1441 10.5759H26.8051C28.4528 10.5759 29.7881 11.9112 29.7881 13.5589C29.7881 15.2067 28.4528 16.542 26.8051 16.542Z" fill="#46A9EB"/>
<path d="M9.17794 26.5763V26.8475H24.3644V15.1865L9.17794 26.5763Z" fill="#FCAF3C"/>
<path d="M21.6526 26.305H20.5678C21.6162 26.305 22.4661 25.4552 22.4661 24.4067C22.4661 23.3583 21.6162 22.5084 20.5678 22.5084H15.1441C12.7918 21.1639 9.90312 21.1639 7.55081 22.5084V31.7287H21.6525L31.4911 25.8255C32.1171 25.4503 32.5 24.7739 32.5 24.0439C32.5 22.8962 31.5698 21.9661 30.4222 21.9661H30.3078C29.9671 21.9667 29.6319 22.0502 29.3315 22.2107L21.6526 26.305Z" fill="#FFDCBF"/>
<path d="M7.55088 22.5088H0.5V31.7291H7.55088V22.5088Z" fill="#46A9EB"/>
<path d="M21.6526 26.8474H15.6864C15.3871 26.8474 15.1441 26.6044 15.1441 26.3051C15.1441 26.0057 15.3871 25.7627 15.6864 25.7627H21.6526C21.9519 25.7627 22.1949 26.0057 22.1949 26.3051C22.1949 26.6044 21.9519 26.8474 21.6526 26.8474Z" fill="#FCBB8D"/>
<path d="M7.55088 26.3047H0.5V31.7284H7.55088V26.3047Z" fill="#2683C0"/>
<path d="M4.29663 29.5591C4.89572 29.5591 5.38138 29.0735 5.38138 28.4744C5.38138 27.8753 4.89572 27.3896 4.29663 27.3896C3.69753 27.3896 3.21188 27.8753 3.21188 28.4744C3.21188 29.0735 3.69753 29.5591 4.29663 29.5591Z" fill="white"/>
</g>
<defs>
<clipPath id="clip0_323_1146">
<rect width="32" height="32" fill="white" transform="translate(0.5)"/>
</clipPath>
</defs>
</svg>
