<svg width="20" height="20" viewBox="0 0 20 20" fill="none" xmlns="http://www.w3.org/2000/svg">
<path d="M14.9321 11.9334C14.7162 12.1426 14.6171 12.4451 14.6662 12.7418L15.4071 16.8418C15.4696 17.1893 15.3229 17.5409 15.0321 17.7418C14.7471 17.9501 14.3679 17.9751 14.0571 17.8084L10.3662 15.8834C10.2379 15.8151 10.0954 15.7784 9.94958 15.7743H9.72375C9.64542 15.7859 9.56875 15.8109 9.49875 15.8493L5.80708 17.7834C5.62458 17.8751 5.41792 17.9076 5.21542 17.8751C4.72208 17.7818 4.39292 17.3118 4.47375 16.8159L5.21542 12.7159C5.26458 12.4168 5.16542 12.1126 4.94958 11.9001L1.94042 8.98342C1.68875 8.73925 1.60125 8.37259 1.71625 8.04175C1.82792 7.71175 2.11292 7.47092 2.45708 7.41675L6.59875 6.81592C6.91375 6.78342 7.19042 6.59175 7.33208 6.30842L9.15708 2.56675C9.20042 2.48342 9.25625 2.40675 9.32375 2.34175L9.39875 2.28342C9.43792 2.24009 9.48292 2.20425 9.53292 2.17509L9.62375 2.14175L9.76542 2.08342H10.1162C10.4296 2.11592 10.7054 2.30342 10.8496 2.58342L12.6987 6.30842C12.8321 6.58092 13.0912 6.77009 13.3904 6.81592L17.5321 7.41675C17.8821 7.46675 18.1746 7.70842 18.2904 8.04175C18.3996 8.37592 18.3054 8.74259 18.0487 8.98342L14.9321 11.9334Z" fill="#FF9D46"/>
</svg>
