<svg width="16" height="16" viewBox="0 0 16 16" fill="none" xmlns="http://www.w3.org/2000/svg">
<mask id="mask0_1633_4308" style="mask-type:alpha" maskUnits="userSpaceOnUse" x="1" y="5" width="14" height="11">
<path fill-rule="evenodd" clip-rule="evenodd" d="M1.3336 5.8623H14.6667V15.025H1.3336V5.8623Z" fill="white"/>
</mask>
<g mask="url(#mask0_1633_4308)">
<path fill-rule="evenodd" clip-rule="evenodd" d="M11.7103 15.025H4.29027C2.66027 15.025 1.3336 13.699 1.3336 12.0683V8.8183C1.3336 7.1883 2.66027 5.8623 4.29027 5.8623H4.91227C5.18827 5.8623 5.41227 6.0863 5.41227 6.3623C5.41227 6.6383 5.18827 6.8623 4.91227 6.8623H4.29027C3.21093 6.8623 2.3336 7.73964 2.3336 8.8183V12.0683C2.3336 13.1476 3.21093 14.025 4.29027 14.025H11.7103C12.7889 14.025 13.6669 13.1476 13.6669 12.0683V8.8123C13.6669 7.73697 12.7923 6.8623 11.7176 6.8623H11.0889C10.8129 6.8623 10.5889 6.6383 10.5889 6.3623C10.5889 6.0863 10.8129 5.8623 11.0889 5.8623H11.7176C13.3436 5.8623 14.6669 7.18564 14.6669 8.8123V12.0683C14.6669 13.699 13.3403 15.025 11.7103 15.025Z" fill="white"/>
</g>
<mask id="mask1_1633_4308" style="mask-type:alpha" maskUnits="userSpaceOnUse" x="7" y="1" width="2" height="10">
<path fill-rule="evenodd" clip-rule="evenodd" d="M7.5 1.33301H8.5V10.3603H7.5V1.33301Z" fill="white"/>
</mask>
<g mask="url(#mask1_1633_4308)">
<path fill-rule="evenodd" clip-rule="evenodd" d="M8 10.3603C7.724 10.3603 7.5 10.1363 7.5 9.86034V1.83301C7.5 1.55701 7.724 1.33301 8 1.33301C8.276 1.33301 8.5 1.55701 8.5 1.83301V9.86034C8.5 10.1363 8.276 10.3603 8 10.3603Z" fill="white"/>
</g>
<path fill-rule="evenodd" clip-rule="evenodd" d="M6.05667 4.28503C5.92933 4.28503 5.80133 4.23637 5.704 4.13903C5.50867 3.94437 5.50733 3.62837 5.70267 3.43237L7.646 1.48037C7.83333 1.2917 8.16667 1.2917 8.354 1.48037L10.298 3.43237C10.4927 3.62837 10.492 3.94437 10.2967 4.13903C10.1007 4.3337 9.78467 4.3337 9.59 4.1377L8 2.5417L6.41067 4.1377C6.31333 4.23637 6.18467 4.28503 6.05667 4.28503Z" fill="white"/>
</svg>
