<svg width="28" height="28" viewBox="0 0 28 28" fill="none" xmlns="http://www.w3.org/2000/svg">
<rect width="28" height="28" rx="14" fill="#26A17B"/>
<path d="M15.4923 15.292V15.2897C15.3955 15.2965 14.8958 15.3257 13.7839 15.3257C12.8949 15.3257 12.2714 15.301 12.0508 15.2897V15.292C8.63185 15.1412 6.08169 14.547 6.08169 13.8335C6.08169 13.1222 8.6341 12.5257 12.0508 12.3749V14.7C12.2737 14.7158 12.9151 14.754 13.7997 14.754C14.8621 14.754 15.3933 14.709 15.4923 14.7V12.3772C18.9045 12.5302 21.4479 13.1245 21.4479 13.8357C21.4479 14.547 18.9023 15.1412 15.4923 15.2942V15.292ZM15.4923 12.1364V10.0566H20.2528V6.88523H7.29262V10.0566H12.0531V12.1364C8.18394 12.3142 5.2759 13.0794 5.2759 13.9978C5.2759 14.9161 8.18619 15.6814 12.0531 15.8614V22.5283H15.4946V15.8614C19.3569 15.6836 22.2605 14.9183 22.2605 14C22.2605 13.0839 19.3569 12.3164 15.4946 12.1386" fill="white"/>
</svg>
