<svg width="20" height="20" viewBox="0 0 20 20" fill="none" xmlns="http://www.w3.org/2000/svg">
<path fill-rule="evenodd" clip-rule="evenodd" d="M18.2406 13.2467H14.8672C13.2864 13.2467 11.9997 11.9609 11.9989 10.3809C11.9989 8.79922 13.2856 7.51255 14.8672 7.51172H18.2406C18.5856 7.51172 18.8656 7.79172 18.8656 8.13672C18.8656 8.48172 18.5856 8.76172 18.2406 8.76172H14.8672C13.9747 8.76255 13.2489 9.48839 13.2489 10.3801C13.2489 11.2709 13.9756 11.9967 14.8672 11.9967H18.2406C18.5856 11.9967 18.8656 12.2767 18.8656 12.6217C18.8656 12.9667 18.5856 13.2467 18.2406 13.2467Z" fill="#F6F6F6"/>
<path fill-rule="evenodd" clip-rule="evenodd" d="M15.2486 10.9531H14.9886C14.6436 10.9531 14.3636 10.6731 14.3636 10.3281C14.3636 9.98313 14.6436 9.70312 14.9886 9.70312H15.2486C15.5936 9.70312 15.8736 9.98313 15.8736 10.3281C15.8736 10.6731 15.5936 10.9531 15.2486 10.9531Z" fill="#F6F6F6"/>
<mask id="mask0_1721_4581" style="mask-type:alpha" maskUnits="userSpaceOnUse" x="1" y="2" width="18" height="17">
<path fill-rule="evenodd" clip-rule="evenodd" d="M1.66666 2.5H18.8655V18.4774H1.66666V2.5Z" fill="white"/>
</mask>
<g mask="url(#mask0_1721_4581)">
<path fill-rule="evenodd" clip-rule="evenodd" d="M6.66465 3.75C4.59799 3.75 2.91632 5.43167 2.91632 7.49833V13.4792C2.91632 15.5458 4.59799 17.2275 6.66465 17.2275H13.868C15.9347 17.2275 17.6155 15.5458 17.6155 13.4792V7.49833C17.6155 5.43167 15.9347 3.75 13.868 3.75H6.66465ZM13.868 18.4775H6.66465C3.90882 18.4775 1.66632 16.235 1.66632 13.4792V7.49833C1.66632 4.74167 3.90882 2.5 6.66465 2.5H13.868C16.6238 2.5 18.8655 4.74167 18.8655 7.49833V13.4792C18.8655 16.235 16.6238 18.4775 13.868 18.4775Z" fill="#F6F6F6"/>
</g>
<path fill-rule="evenodd" clip-rule="evenodd" d="M10.5705 7.53223H6.07132C5.72632 7.53223 5.44632 7.25223 5.44632 6.90723C5.44632 6.56223 5.72632 6.28223 6.07132 6.28223H10.5705C10.9155 6.28223 11.1955 6.56223 11.1955 6.90723C11.1955 7.25223 10.9155 7.53223 10.5705 7.53223Z" fill="#F6F6F6"/>
</svg>
