<svg width="40" height="40" viewBox="0 0 40 40" fill="none" xmlns="http://www.w3.org/2000/svg">
<path fill-rule="evenodd" clip-rule="evenodd" d="M29.6148 13.9697H36.6667C36.6667 8.30766 33.2741 5 27.5259 5H12.4741C6.72594 5 3.33334 8.30766 3.33334 13.8974V26.1026C3.33334 31.6923 6.72594 35 12.4741 35H27.5259C33.2741 35 36.6667 31.6923 36.6667 26.1026V25.5826H29.6148C26.342 25.5826 23.6889 22.9959 23.6889 19.805C23.6889 16.6141 26.342 14.0274 29.6148 14.0274V13.9697ZM29.6148 16.454H35.4222C36.1095 16.454 36.6667 16.9972 36.6667 17.6673V21.8849C36.6587 22.5518 36.1062 23.0904 35.4222 23.0982H29.7482C28.0913 23.12 26.6425 22.014 26.2667 20.4405C26.0785 19.4638 26.3427 18.4559 26.9885 17.687C27.6342 16.9181 28.5956 16.4668 29.6148 16.454ZM29.8667 20.8883H30.4148C31.1185 20.8883 31.6889 20.3322 31.6889 19.6461C31.6889 18.9601 31.1185 18.4039 30.4148 18.4039H29.8667C29.5301 18.4001 29.206 18.5277 28.9667 18.7584C28.7273 18.9891 28.5926 19.3035 28.5926 19.6317C28.5926 20.3201 29.1606 20.8804 29.8667 20.8883ZM11.2296 13.9697H20.637C21.3407 13.9697 21.9111 13.4135 21.9111 12.7275C21.9111 12.0415 21.3407 11.4853 20.637 11.4853H11.2296C10.5317 11.4853 9.96368 12.0327 9.95557 12.713C9.95552 13.4015 10.5236 13.9618 11.2296 13.9697Z" fill="#36FFB5"/>
</svg>
