<svg width="20" height="20" viewBox="0 0 20 20" fill="none" xmlns="http://www.w3.org/2000/svg">
<path fill-rule="evenodd" clip-rule="evenodd" d="M9.99591 14.5224C9.65091 14.5224 9.37091 14.2424 9.37091 13.8974V11.7832C9.37091 11.4382 9.65091 11.1582 9.99591 11.1582C10.3409 11.1582 10.6209 11.4382 10.6209 11.7832V13.8974C10.6209 14.2424 10.3409 14.5224 9.99591 14.5224Z" fill="#F6F6F6"/>
<mask id="mask0_1721_4596" style="mask-type:alpha" maskUnits="userSpaceOnUse" x="1" y="3" width="18" height="10">
<path fill-rule="evenodd" clip-rule="evenodd" d="M1.66684 3.81641H18.325V12.4089H1.66684V3.81641Z" fill="white"/>
</mask>
<g mask="url(#mask0_1721_4596)">
<path fill-rule="evenodd" clip-rule="evenodd" d="M2.91684 9.49391C4.89684 10.5697 7.39351 11.1589 9.99184 11.1589C12.5952 11.1589 15.0943 10.5697 17.0752 9.49391V6.99224C17.0752 5.92974 16.216 5.06641 15.1585 5.06641H4.84184C3.78017 5.06641 2.91684 5.92641 2.91684 6.98391V9.49391ZM9.99184 12.4089C7.03767 12.4089 4.19017 11.6939 1.97601 10.3972C1.78434 10.2856 1.66684 10.0806 1.66684 9.85807V6.98391C1.66684 5.23724 3.09101 3.81641 4.84184 3.81641H15.1585C16.9052 3.81641 18.3252 5.24057 18.3252 6.99224V9.85807C18.3252 10.0806 18.2068 10.2856 18.016 10.3972C15.8018 11.6939 12.9518 12.4089 9.99184 12.4089Z" fill="#F6F6F6"/>
</g>
<mask id="mask1_1721_4596" style="mask-type:alpha" maskUnits="userSpaceOnUse" x="6" y="1" width="8" height="5">
<path fill-rule="evenodd" clip-rule="evenodd" d="M6.45425 1.66699H13.5376V5.06358H6.45425V1.66699Z" fill="white"/>
</mask>
<g mask="url(#mask1_1721_4596)">
<path fill-rule="evenodd" clip-rule="evenodd" d="M12.9126 5.06366C12.5676 5.06366 12.2876 4.78366 12.2876 4.43866V4.13366C12.2876 3.46283 11.7418 2.91699 11.0709 2.91699H8.92092C8.25009 2.91699 7.70425 3.46283 7.70425 4.13366V4.43866C7.70425 4.78366 7.42425 5.06366 7.07925 5.06366C6.73425 5.06366 6.45425 4.78366 6.45425 4.43866V4.13366C6.45425 2.77366 7.56092 1.66699 8.92092 1.66699H11.0709C12.4309 1.66699 13.5376 2.77366 13.5376 4.13366V4.43866C13.5376 4.78366 13.2576 5.06366 12.9126 5.06366Z" fill="#F6F6F6"/>
</g>
<path fill-rule="evenodd" clip-rule="evenodd" d="M14.8291 18.1173H5.16241C3.43324 18.1173 1.97741 16.7665 1.84658 15.0415L1.68824 12.9506C1.66241 12.6065 1.92074 12.3056 2.26491 12.2798C2.61074 12.2673 2.90908 12.5115 2.93574 12.8565L3.09324 14.9465C3.17491 16.0231 4.08324 16.8673 5.16241 16.8673H14.8291C15.9082 16.8673 16.8174 16.0231 16.8982 14.9465L17.0566 12.8565C17.0832 12.5115 17.3891 12.2665 17.7274 12.2798C18.0716 12.3056 18.3291 12.6065 18.3032 12.9506L18.1449 15.0415C18.0141 16.7665 16.5582 18.1173 14.8291 18.1173Z" fill="#F6F6F6"/>
</svg>
