<svg width="40" height="40" viewBox="0 0 40 40" fill="none" xmlns="http://www.w3.org/2000/svg">
<rect width="40" height="40" rx="10" fill="#00D1FF"/>
<g clip-path="url(#clip0_193_2540)">
<path d="M17.8645 24.1922L23.5017 25.7003C24.0862 25.8608 24.5581 26.2925 24.7698 26.8603L29.99 23.848C30.1747 23.7418 30.3769 23.6687 30.5868 23.6319L30.5402 23.4485C30.2702 22.3732 30.1341 21.2687 30.135 20.1601V18.0319C30.135 14.157 26.9937 11.0156 23.1187 11.0156C19.2438 11.0156 16.1024 14.157 16.1024 18.0319V20.1601C16.1029 21.2694 15.9661 22.3746 15.6954 23.4503L15.5312 24.1127H17.262C17.4655 24.1127 17.6681 24.1396 17.8645 24.1922ZM23.1187 18.9674C21.2829 18.9674 19.8445 17.9383 19.8445 16.6287C19.8445 15.4312 21.0447 14.4733 22.651 14.3152V12.8866H23.5865V14.3152C25.1928 14.4733 26.393 15.4312 26.393 16.6287H25.4575C25.4575 15.8681 24.3863 15.2254 23.1187 15.2254C21.8511 15.2254 20.78 15.8681 20.78 16.6287C20.78 17.3892 21.8511 18.0319 23.1187 18.0319C24.9546 18.0319 26.393 19.0611 26.393 20.3707C26.393 21.5681 25.1928 22.526 23.5865 22.6841V24.1127H22.651V22.6841C21.0447 22.526 19.8445 21.5681 19.8445 20.3707H20.78C20.78 21.1312 21.8511 21.7739 23.1187 21.7739C24.3863 21.7739 25.4575 21.1312 25.4575 20.3707C25.4575 19.6101 24.3863 18.9674 23.1187 18.9674Z" fill="white"/>
<path d="M19.7248 7.07149L19.366 7L21.2838 10.3028C22.4915 10.0066 23.753 10.0066 24.9607 10.3028L26.8738 7.00091L26.5147 7.0724C24.2737 7.5228 21.9656 7.52257 19.7248 7.07149Z" fill="white"/>
<path d="M13.565 25.2477L11.8927 26.249V31.288L13.6088 31.9664C13.7726 32.031 13.9473 32.0644 14.1234 32.0646H21.6495C21.9105 32.0648 22.1663 31.9917 22.3881 31.854L31.3798 26.2878C31.6753 26.1215 31.8576 25.8084 31.8564 25.4692C31.8557 25.3034 31.8119 25.1406 31.7292 24.9969C31.6376 24.8386 31.5006 24.7114 31.3357 24.6324C31.2608 24.5952 31.1806 24.5687 31.0981 24.5538C30.8791 24.5104 30.6516 24.5474 30.4577 24.6582L24.8388 27.9044C24.8326 27.9334 24.8326 27.9633 24.8246 27.9919C24.6042 28.81 23.8631 29.3787 23.0157 29.3798C22.7608 29.3567 22.5082 29.3122 22.2609 29.2464L17.3851 27.9418L17.6263 27.0381L22.4863 28.3386C22.6836 28.3854 22.9588 28.4395 23.0285 28.4443C23.4472 28.4391 23.8117 28.1563 23.9204 27.752C23.9325 27.6959 23.9416 27.6392 23.9476 27.5821C23.9476 27.5821 23.9508 27.4688 23.9476 27.4174C23.9081 27.0296 23.6338 26.7062 23.2576 26.6037L17.6226 25.0951C17.5043 25.0636 17.3826 25.0479 17.2602 25.0483H14.2858C14.0318 25.0483 13.7826 25.1173 13.565 25.2477Z" fill="white"/>
<path d="M8.15065 24.5801H10.9572V32.9996H8.15065V24.5801Z" fill="white"/>
</g>
<defs>
<clipPath id="clip0_193_2540">
<rect width="26" height="26" fill="white" transform="translate(6.99998 7)"/>
</clipPath>
</defs>
</svg>
