<svg width="49" height="48" viewBox="0 0 49 48" fill="none" xmlns="http://www.w3.org/2000/svg">
<rect x="0.5" width="48" height="48" rx="12" fill="#151530"/>
<path fill-rule="evenodd" clip-rule="evenodd" d="M30.7496 20.0803H35.3333C35.3333 16.4 33.1282 14.25 29.3919 14.25H19.6082C15.8719 14.25 13.6667 16.4 13.6667 20.0333V27.9667C13.6667 31.6 15.8719 33.75 19.6082 33.75H29.3919C33.1282 33.75 35.3333 31.6 35.3333 27.9667V27.6287H30.7496C28.6223 27.6287 26.8978 25.9473 26.8978 23.8733C26.8978 21.7992 28.6223 20.1178 30.7496 20.1178V20.0803ZM30.7496 21.6951H34.5245C34.9712 21.6951 35.3333 22.0482 35.3333 22.4838V25.2252C35.3281 25.6586 34.969 26.0088 34.5245 26.0138H30.8363C29.7593 26.028 28.8176 25.3091 28.5733 24.2864C28.451 23.6515 28.6227 22.9964 29.0425 22.4966C29.4623 21.9968 30.0871 21.7034 30.7496 21.6951ZM30.9133 24.5774H31.2696C31.727 24.5774 32.0978 24.2159 32.0978 23.77C32.0978 23.3241 31.727 22.9626 31.2696 22.9626H30.9133C30.6946 22.9601 30.4839 23.043 30.3283 23.193C30.1727 23.3429 30.0852 23.5473 30.0852 23.7606C30.0852 24.2081 30.4544 24.5723 30.9133 24.5774ZM18.7993 20.0803H24.9141C25.3715 20.0803 25.7422 19.7188 25.7422 19.2729C25.7422 18.8269 25.3715 18.4655 24.9141 18.4655H18.7993C18.3456 18.4654 17.9764 18.8212 17.9711 19.2635C17.9711 19.7109 18.3403 20.0751 18.7993 20.0803Z" fill="#36FFB5"/>
</svg>
