<svg width="17" height="16" viewBox="0 0 17 16" fill="none" xmlns="http://www.w3.org/2000/svg">
<path fill-rule="evenodd" clip-rule="evenodd" d="M9.91436 7.48866H11.7596C12.0394 7.48866 12.2592 7.25735 12.2592 6.97841C12.2592 6.69267 12.0394 6.46816 11.7596 6.46816H9.91436C9.63458 6.46816 9.41475 6.69267 9.41475 6.97841C9.41475 7.25735 9.63458 7.48866 9.91436 7.48866ZM13.9512 3.95158C14.3576 3.95158 14.624 4.09445 14.8905 4.40741C15.1569 4.72036 15.2036 5.16939 15.1436 5.57691L14.5108 10.0399C14.3909 10.8978 13.6714 11.5299 12.8254 11.5299H5.55775C4.67178 11.5299 3.93902 10.8366 3.86574 9.93857L3.25288 2.52219L2.247 2.3453C1.98054 2.29768 1.79402 2.03234 1.84065 1.76021C1.88728 1.48195 2.14708 1.29758 2.4202 1.33908L4.00896 1.58332C4.23545 1.62482 4.40199 1.81463 4.42197 2.04595L4.54854 3.56991C4.56853 3.7883 4.74172 3.95158 4.95489 3.95158H13.9512ZM5.45104 12.6052C4.89147 12.6052 4.43849 13.0678 4.43849 13.6393C4.43849 14.204 4.89147 14.6666 5.45104 14.6666C6.00394 14.6666 6.45692 14.204 6.45692 13.6393C6.45692 13.0678 6.00394 12.6052 5.45104 12.6052ZM12.9452 12.6052C12.3856 12.6052 11.9327 13.0678 11.9327 13.6393C11.9327 14.204 12.3856 14.6666 12.9452 14.6666C13.4981 14.6666 13.9511 14.204 13.9511 13.6393C13.9511 13.0678 13.4981 12.6052 12.9452 12.6052Z" fill="white"/>
</svg>
