<svg width="260" height="20" viewBox="0 0 260 20" fill="none" xmlns="http://www.w3.org/2000/svg">
<path fill-rule="evenodd" clip-rule="evenodd" d="M11.2869 6.66683C11.3081 6.61958 11.318 6.56809 11.3159 6.51638H11.3333C11.2588 4.73744 9.78993 3.3335 8.0033 3.3335C6.21666 3.3335 4.74781 4.73744 4.67326 6.51638C4.66447 6.56615 4.66447 6.61706 4.67326 6.66683H4.62114C3.76681 6.66683 2.85356 7.23081 2.58843 8.74688L2.06994 12.8767C1.64572 15.9088 3.20708 16.6668 5.24569 16.6668H10.7723C12.805 16.6668 14.3193 15.5692 13.9422 12.8767L13.4296 8.74688C13.1173 7.27326 12.2335 6.66683 11.391 6.66683H11.2869ZM10.3288 6.66683C10.3103 6.61879 10.3004 6.56785 10.2998 6.51638C10.2998 5.23805 9.25991 4.20175 7.97717 4.20175C6.69443 4.20175 5.65456 5.23805 5.65456 6.51638C5.66335 6.56615 5.66335 6.61706 5.65456 6.66683H10.3288ZM6.06466 10.0992C5.73926 10.0992 5.47547 9.8277 5.47547 9.49278C5.47547 9.15786 5.73926 8.88636 6.06466 8.88636C6.39007 8.88636 6.65386 9.15786 6.65386 9.49278C6.65386 9.8277 6.39007 10.0992 6.06466 10.0992ZM9.33469 9.49278C9.33469 9.8277 9.59848 10.0992 9.92388 10.0992C10.2493 10.0992 10.5131 9.8277 10.5131 9.49278C10.5131 9.15786 10.2493 8.88636 9.92388 8.88636C9.59848 8.88636 9.33469 9.15786 9.33469 9.49278Z" fill="#0073FF"/>
<path d="M33.432 15.112C32.4987 15.112 31.6867 14.9113 30.996 14.51C30.3053 14.0993 29.7733 13.516 29.4 12.76C29.036 11.9947 28.854 11.094 28.854 10.058C28.854 9.022 29.036 8.126 29.4 7.37C29.7733 6.614 30.3053 6.03533 30.996 5.634C31.6867 5.22333 32.4987 5.018 33.432 5.018C34.1133 5.018 34.7387 5.12533 35.308 5.34C35.8773 5.54533 36.372 5.85333 36.792 6.264L36.358 7.146C35.882 6.74467 35.4153 6.45533 34.958 6.278C34.5007 6.10067 33.9967 6.012 33.446 6.012C32.3633 6.012 31.5233 6.36667 30.926 7.076C30.338 7.776 30.044 8.77 30.044 10.058C30.044 11.3553 30.338 12.3587 30.926 13.068C31.5233 13.768 32.3633 14.118 33.446 14.118C33.9967 14.118 34.5007 14.0293 34.958 13.852C35.4153 13.6747 35.882 13.3853 36.358 12.984L36.792 13.866C36.372 14.2767 35.8773 14.5893 35.308 14.804C34.7387 15.0093 34.1133 15.112 33.432 15.112ZM41.9546 8.014C43.5879 8.014 44.4046 8.91467 44.4046 10.716V15H43.2706V10.786C43.2706 10.1513 43.1446 9.68933 42.8926 9.4C42.6499 9.11067 42.2579 8.966 41.7166 8.966C41.0913 8.966 40.5919 9.15733 40.2186 9.54C39.8453 9.92267 39.6586 10.4407 39.6586 11.094V15H38.5246V5.13H39.6586V9.274C39.8826 8.86333 40.1906 8.55067 40.5826 8.336C40.9839 8.12133 41.4413 8.014 41.9546 8.014ZM52.2216 8.182V15H51.1156V13.838C50.901 14.2487 50.5976 14.5613 50.2056 14.776C49.823 14.9907 49.389 15.098 48.9036 15.098C48.0916 15.098 47.4803 14.874 47.0696 14.426C46.659 13.9687 46.4536 13.2967 46.4536 12.41V8.182H47.5876V12.382C47.5876 12.9887 47.709 13.4367 47.9516 13.726C48.1943 14.006 48.577 14.146 49.0996 14.146C49.697 14.146 50.1776 13.9547 50.5416 13.572C50.9056 13.18 51.0876 12.6667 51.0876 12.032V8.182H52.2216ZM59.2153 8.196H60.3493L56.3173 17.52H55.1553L56.3033 14.916L53.4193 8.196H54.6233L56.9053 13.768L59.2153 8.196ZM67.1507 11.766H62.1667C62.204 12.5593 62.4187 13.1613 62.8107 13.572C63.2027 13.9733 63.758 14.174 64.4767 14.174C65.27 14.174 65.998 13.9033 66.6607 13.362L67.0387 14.188C66.74 14.468 66.3573 14.692 65.8907 14.86C65.424 15.0187 64.948 15.098 64.4627 15.098C63.3987 15.098 62.5587 14.7853 61.9427 14.16C61.336 13.5347 61.0327 12.6713 61.0327 11.57C61.0327 10.87 61.168 10.254 61.4387 9.722C61.7093 9.18067 62.0873 8.76067 62.5727 8.462C63.0673 8.16333 63.6273 8.014 64.2527 8.014C65.158 8.014 65.8673 8.31267 66.3807 8.91C66.894 9.498 67.1507 10.31 67.1507 11.346V11.766ZM64.2667 8.896C63.6693 8.896 63.1887 9.08267 62.8247 9.456C62.47 9.82933 62.26 10.3567 62.1947 11.038H66.1567C66.138 10.3473 65.9653 9.82 65.6387 9.456C65.312 9.08267 64.8547 8.896 64.2667 8.896ZM66.1707 5.844H65.4287V5.606C65.4287 5.44733 65.48 5.326 65.5827 5.242C65.6853 5.14867 65.83 5.06467 66.0167 4.99C66.138 4.934 66.2267 4.88733 66.2827 4.85C66.3387 4.81267 66.3667 4.766 66.3667 4.71C66.3667 4.63533 66.3153 4.57467 66.2127 4.528C66.11 4.48133 65.97 4.458 65.7927 4.458C65.522 4.458 65.2373 4.514 64.9387 4.626L64.7427 4.024C65.1347 3.86533 65.5127 3.786 65.8767 3.786C66.306 3.786 66.642 3.87 66.8847 4.038C67.1367 4.19667 67.2627 4.40667 67.2627 4.668C67.2627 4.836 67.2113 4.962 67.1087 5.046C67.006 5.13 66.8473 5.22333 66.6327 5.326C66.4833 5.39133 66.3667 5.452 66.2827 5.508C66.208 5.564 66.1707 5.634 66.1707 5.718V5.844ZM63.2307 7.286H62.2087L63.8747 5.228H64.6307L66.2967 7.286H65.2747L64.2527 5.9L63.2307 7.286ZM72.2515 8.014C73.8848 8.014 74.7015 8.91467 74.7015 10.716V15H73.5675V10.786C73.5675 10.1513 73.4415 9.68933 73.1895 9.4C72.9468 9.11067 72.5548 8.966 72.0135 8.966C71.3882 8.966 70.8888 9.15733 70.5155 9.54C70.1422 9.92267 69.9555 10.4407 69.9555 11.094V15H68.8215V8.182H69.9415V9.302C70.1655 8.882 70.4782 8.56467 70.8795 8.35C71.2808 8.126 71.7382 8.014 72.2515 8.014ZM83.3839 14.188C83.5892 14.188 83.7946 14.174 83.9999 14.146L83.9439 15.042C83.7292 15.0793 83.4959 15.098 83.2439 15.098C82.4226 15.098 81.8019 14.8833 81.3819 14.454C80.9712 14.0247 80.7659 13.4273 80.7659 12.662V9.078H79.4359V8.182H80.7659V6.11H81.8999V8.182H83.8319V9.078H81.8999V12.578C81.8999 13.6513 82.3946 14.188 83.3839 14.188ZM85.1457 15V8.182H86.2797V15H85.1457ZM85.0337 5.228H86.4057V6.502H85.0337V5.228ZM94.1116 11.766H89.1276C89.1649 12.5593 89.3796 13.1613 89.7716 13.572C90.1636 13.9733 90.7189 14.174 91.4376 14.174C92.2309 14.174 92.9589 13.9033 93.6216 13.362L93.9996 14.188C93.7009 14.468 93.3183 14.692 92.8516 14.86C92.3849 15.0187 91.9089 15.098 91.4236 15.098C90.3596 15.098 89.5196 14.7853 88.9036 14.16C88.2969 13.5347 87.9936 12.6713 87.9936 11.57C87.9936 10.87 88.1289 10.254 88.3996 9.722C88.6703 9.18067 89.0483 8.76067 89.5336 8.462C90.0283 8.16333 90.5883 8.014 91.2136 8.014C92.1189 8.014 92.8283 8.31267 93.3416 8.91C93.8549 9.498 94.1116 10.31 94.1116 11.346V11.766ZM91.2276 8.896C90.6303 8.896 90.1496 9.08267 89.7856 9.456C89.4309 9.82933 89.2209 10.3567 89.1556 11.038H93.1176C93.0989 10.3473 92.9263 9.82 92.5996 9.456C92.2729 9.08267 91.8156 8.896 91.2276 8.896ZM92.9916 5.844L91.4236 3.856H92.6136L93.6916 5.844H92.9916ZM90.1916 7.286H89.1696L90.8356 5.228H91.5916L93.2576 7.286H92.2356L91.2136 5.9L90.1916 7.286ZM99.2124 8.014C100.846 8.014 101.662 8.91467 101.662 10.716V15H100.528V10.786C100.528 10.1513 100.402 9.68933 100.15 9.4C99.9078 9.11067 99.5158 8.966 98.9744 8.966C98.3491 8.966 97.8498 9.15733 97.4764 9.54C97.1031 9.92267 96.9164 10.4407 96.9164 11.094V15H95.7824V8.182H96.9024V9.302C97.1264 8.882 97.4391 8.56467 97.8404 8.35C98.2418 8.126 98.6991 8.014 99.2124 8.014ZM113.397 8.182V17.52H112.263V13.754C112.057 14.1833 111.754 14.5147 111.353 14.748C110.961 14.9813 110.499 15.098 109.967 15.098C109.36 15.098 108.828 14.9533 108.371 14.664C107.923 14.3747 107.573 13.9687 107.321 13.446C107.069 12.914 106.943 12.2933 106.943 11.584C106.943 10.8747 107.069 10.254 107.321 9.722C107.573 9.18067 107.927 8.76067 108.385 8.462C108.842 8.16333 109.369 8.014 109.967 8.014C110.499 8.014 110.961 8.13067 111.353 8.364C111.754 8.59733 112.057 8.92867 112.263 9.358V8.182H113.397ZM110.191 14.16C110.853 14.16 111.362 13.936 111.717 13.488C112.081 13.0307 112.263 12.3867 112.263 11.556C112.263 10.7253 112.081 10.086 111.717 9.638C111.362 9.19 110.853 8.966 110.191 8.966C109.528 8.966 109.01 9.19933 108.637 9.666C108.273 10.1233 108.091 10.7627 108.091 11.584C108.091 12.4053 108.273 13.04 108.637 13.488C109.01 13.936 109.528 14.16 110.191 14.16ZM121.237 8.182V15H120.131V13.838C119.917 14.2487 119.613 14.5613 119.221 14.776C118.839 14.9907 118.405 15.098 117.919 15.098C117.107 15.098 116.496 14.874 116.085 14.426C115.675 13.9687 115.469 13.2967 115.469 12.41V8.182H116.603V12.382C116.603 12.9887 116.725 13.4367 116.967 13.726C117.21 14.006 117.593 14.146 118.115 14.146C118.713 14.146 119.193 13.9547 119.557 13.572C119.921 13.18 120.103 12.6667 120.103 12.032V8.182H121.237ZM126.117 8.014C126.985 8.014 127.629 8.238 128.049 8.686C128.478 9.12467 128.693 9.79667 128.693 10.702V15H127.587V13.838C127.41 14.2393 127.139 14.552 126.775 14.776C126.411 14.9907 125.991 15.098 125.515 15.098C125.076 15.098 124.67 15.0093 124.297 14.832C123.933 14.6547 123.644 14.4073 123.429 14.09C123.214 13.7727 123.107 13.4227 123.107 13.04C123.107 12.5267 123.238 12.13 123.499 11.85C123.76 11.5607 124.19 11.3553 124.787 11.234C125.384 11.1033 126.215 11.038 127.279 11.038H127.587V10.576C127.587 10.0067 127.47 9.596 127.237 9.344C127.004 9.08267 126.626 8.952 126.103 8.952C125.319 8.952 124.54 9.19467 123.765 9.68L123.387 8.854C123.742 8.602 124.166 8.40133 124.661 8.252C125.165 8.09333 125.65 8.014 126.117 8.014ZM125.669 14.202C126.229 14.202 126.686 14.0153 127.041 13.642C127.405 13.2593 127.587 12.7693 127.587 12.172V11.766H127.335C126.514 11.766 125.888 11.8033 125.459 11.878C125.03 11.9433 124.722 12.06 124.535 12.228C124.358 12.3867 124.269 12.6247 124.269 12.942C124.269 13.306 124.4 13.6093 124.661 13.852C124.932 14.0853 125.268 14.202 125.669 14.202ZM142.358 9.862V14.426C141.966 14.6313 141.453 14.7993 140.818 14.93C140.193 15.0513 139.558 15.112 138.914 15.112C137.934 15.112 137.089 14.9113 136.38 14.51C135.671 14.1087 135.125 13.53 134.742 12.774C134.369 12.018 134.182 11.1127 134.182 10.058C134.182 9.01267 134.369 8.112 134.742 7.356C135.115 6.6 135.652 6.02133 136.352 5.62C137.052 5.21867 137.878 5.018 138.83 5.018C139.521 5.018 140.155 5.12533 140.734 5.34C141.313 5.54533 141.807 5.85333 142.218 6.264L141.784 7.146C141.308 6.73533 140.837 6.44133 140.37 6.264C139.913 6.08667 139.399 5.998 138.83 5.998C137.719 5.998 136.865 6.348 136.268 7.048C135.671 7.748 135.372 8.75133 135.372 10.058C135.372 11.3927 135.675 12.41 136.282 13.11C136.889 13.8007 137.775 14.146 138.942 14.146C139.791 14.146 140.58 14.02 141.308 13.768V10.758H138.858V9.862H142.358ZM144.509 15V8.182H145.643V15H144.509ZM144.397 5.228H145.769V6.502H144.397V5.228ZM155.351 8.014C156.863 8.014 157.619 8.91467 157.619 10.716V15H156.485V10.772C156.485 10.1467 156.373 9.68933 156.149 9.4C155.934 9.11067 155.584 8.966 155.099 8.966C154.53 8.966 154.082 9.15733 153.755 9.54C153.428 9.92267 153.265 10.4453 153.265 11.108V15H152.131V10.772C152.131 10.1373 152.019 9.68 151.795 9.4C151.571 9.11067 151.216 8.966 150.731 8.966C150.162 8.966 149.714 9.15733 149.387 9.54C149.06 9.92267 148.897 10.4453 148.897 11.108V15H147.763V8.182H148.883V9.26C149.088 8.85867 149.373 8.55067 149.737 8.336C150.101 8.12133 150.521 8.014 150.997 8.014C152.052 8.014 152.747 8.462 153.083 9.358C153.279 8.938 153.578 8.61133 153.979 8.378C154.38 8.13533 154.838 8.014 155.351 8.014ZM162.513 15.098C161.869 15.098 161.299 14.9533 160.805 14.664C160.319 14.3747 159.941 13.964 159.671 13.432C159.409 12.8907 159.279 12.2653 159.279 11.556C159.279 10.8467 159.409 10.226 159.671 9.694C159.941 9.15267 160.319 8.73733 160.805 8.448C161.299 8.15867 161.869 8.014 162.513 8.014C163.157 8.014 163.726 8.15867 164.221 8.448C164.715 8.73733 165.093 9.15267 165.355 9.694C165.625 10.226 165.761 10.8467 165.761 11.556C165.761 12.2653 165.625 12.8907 165.355 13.432C165.093 13.964 164.715 14.3747 164.221 14.664C163.726 14.9533 163.157 15.098 162.513 15.098ZM162.513 14.16C163.185 14.16 163.698 13.9407 164.053 13.502C164.417 13.054 164.599 12.4053 164.599 11.556C164.599 10.7253 164.417 10.086 164.053 9.638C163.689 9.18067 163.175 8.952 162.513 8.952C161.85 8.952 161.337 9.18067 160.973 9.638C160.609 10.086 160.427 10.7253 160.427 11.556C160.427 12.396 160.604 13.04 160.959 13.488C161.323 13.936 161.841 14.16 162.513 14.16ZM167.45 15V5.13H168.584V15H167.45ZM173.532 15.098C172.888 15.098 172.319 14.9533 171.824 14.664C171.339 14.3747 170.961 13.964 170.69 13.432C170.429 12.8907 170.298 12.2653 170.298 11.556C170.298 10.8467 170.429 10.226 170.69 9.694C170.961 9.15267 171.339 8.73733 171.824 8.448C172.319 8.15867 172.888 8.014 173.532 8.014C174.176 8.014 174.746 8.15867 175.24 8.448C175.735 8.73733 176.113 9.15267 176.374 9.694C176.645 10.226 176.78 10.8467 176.78 11.556C176.78 12.2653 176.645 12.8907 176.374 13.432C176.113 13.964 175.735 14.3747 175.24 14.664C174.746 14.9533 174.176 15.098 173.532 15.098ZM173.532 14.16C174.204 14.16 174.718 13.9407 175.072 13.502C175.436 13.054 175.618 12.4053 175.618 11.556C175.618 10.7253 175.436 10.086 175.072 9.638C174.708 9.18067 174.195 8.952 173.532 8.952C172.87 8.952 172.356 9.18067 171.992 9.638C171.628 10.086 171.446 10.7253 171.446 11.556C171.446 12.396 171.624 13.04 171.978 13.488C172.342 13.936 172.86 14.16 173.532 14.16ZM181.452 14.188C181.658 14.188 181.863 14.174 182.068 14.146L182.012 15.042C181.798 15.0793 181.564 15.098 181.312 15.098C180.491 15.098 179.87 14.8833 179.45 14.454C179.04 14.0247 178.834 13.4273 178.834 12.662V9.078H177.504V8.182H178.834V6.11H179.968V8.182H181.9V9.078H179.968V12.578C179.968 13.6513 180.463 14.188 181.452 14.188ZM186.251 14.188C186.456 14.188 186.662 14.174 186.867 14.146L186.811 15.042C186.596 15.0793 186.363 15.098 186.111 15.098C185.29 15.098 184.669 14.8833 184.249 14.454C183.838 14.0247 183.633 13.4273 183.633 12.662V9.078H182.303V8.182H183.633V6.11H184.767V8.182H186.699V9.078H184.767V12.578C184.767 13.6513 185.262 14.188 186.251 14.188Z" fill="#092249"/>
</svg>
