<svg width="32" height="32" viewBox="0 0 32 32" fill="none" xmlns="http://www.w3.org/2000/svg">
<circle cx="16" cy="16" r="16" fill="#FAFAFA"/>
<circle cx="16" cy="16" r="15.5" stroke="#AEB9C7" stroke-opacity="0.2"/>
<mask id="mask0_1561_7770" style="mask-type:alpha" maskUnits="userSpaceOnUse" x="9" y="9" width="14" height="14">
<path fill-rule="evenodd" clip-rule="evenodd" d="M9.3335 9.33301H22.6687V22.667H9.3335V9.33301Z" fill="white"/>
</mask>
<g mask="url(#mask0_1561_7770)">
<path fill-rule="evenodd" clip-rule="evenodd" d="M15.2966 21.3833C15.69 21.7673 16.3233 21.7626 16.714 21.3699L17.1953 20.8899C17.5686 20.5173 18.0846 20.3046 18.6106 20.3046H19.2973C19.8533 20.3046 20.3053 19.8526 20.3053 19.2973V18.6113C20.3053 18.0773 20.512 17.5753 20.8893 17.1973L21.3693 16.7166C21.5646 16.5206 21.6693 16.2666 21.6686 15.9973C21.668 15.7286 21.562 15.4759 21.3706 15.2853L20.89 14.8039C20.512 14.4233 20.3053 13.9219 20.3053 13.3879V12.7033C20.3053 12.1473 19.8533 11.6953 19.2973 11.6953H18.612C18.078 11.6953 17.576 11.4879 17.198 11.1126L16.7166 10.6306C16.316 10.2339 15.6766 10.2359 15.2853 10.6299L14.806 11.1106C14.4233 11.4886 13.9213 11.6953 13.3893 11.6953H12.7033C12.148 11.6959 11.696 12.1479 11.696 12.7033V13.3866C11.696 13.9206 11.4886 14.4226 11.1126 14.8013L10.6393 15.2753C10.6346 15.2806 10.63 15.2846 10.6253 15.2893C10.234 15.6833 10.236 16.3226 10.63 16.7139L11.1113 17.1953C11.4886 17.5739 11.696 18.0759 11.696 18.6099V19.2973C11.696 19.8526 12.1473 20.3046 12.7033 20.3046H13.388C13.9226 20.3053 14.4246 20.5126 14.8026 20.8893L15.2833 21.3686C15.2873 21.3733 15.292 21.3779 15.2966 21.3833ZM15.9993 22.6673C15.488 22.6673 14.9766 22.4739 14.5853 22.0859C14.58 22.0806 14.5746 22.0753 14.5693 22.0693L14.096 21.5966C13.9073 21.4093 13.6553 21.3053 13.3873 21.3046H12.7033C11.596 21.3046 10.696 20.4039 10.696 19.2973V18.6099C10.696 18.3419 10.5913 18.0906 10.4033 17.9013L9.92398 17.4226C9.14531 16.6479 9.13598 15.3866 9.90064 14.5999C9.90664 14.5939 9.91264 14.5879 9.91864 14.5819L10.404 14.0953C10.5913 13.9066 10.696 13.6539 10.696 13.3866V12.7033C10.696 11.5966 11.596 10.6959 12.7026 10.6953H13.3893C13.6566 10.6953 13.9086 10.5906 14.1 10.4019L14.5766 9.92393C15.356 9.13927 16.63 9.13527 17.416 9.9166L17.9033 10.4039C18.092 10.5913 18.344 10.6953 18.612 10.6953H19.2973C20.4046 10.6953 21.3053 11.5959 21.3053 12.7033V13.3879C21.3053 13.6553 21.4093 13.9079 21.598 14.0979L22.0766 14.5773C22.456 14.9539 22.6666 15.4573 22.6686 15.9939C22.6706 16.5306 22.4633 17.0353 22.0853 17.4159L21.5966 17.9033C21.4093 18.0919 21.3053 18.3433 21.3053 18.6113V19.2973C21.3053 20.4039 20.4046 21.3046 19.298 21.3046H18.6106C18.3466 21.3046 18.0886 21.4113 17.9013 21.5973L17.4226 22.0759C17.0313 22.4699 16.5153 22.6673 15.9993 22.6673Z" fill="#00985A"/>
</g>
<path fill-rule="evenodd" clip-rule="evenodd" d="M14.2869 18.2143C14.1589 18.2143 14.0309 18.1656 13.9336 18.0676C13.7383 17.8723 13.7383 17.5563 13.9336 17.3609L17.3603 13.9336C17.5556 13.7383 17.8723 13.7383 18.0676 13.9336C18.2629 14.1289 18.2629 14.4456 18.0676 14.6409L14.6403 18.0676C14.5429 18.1656 14.4149 18.2143 14.2869 18.2143Z" fill="#00985A"/>
<path fill-rule="evenodd" clip-rule="evenodd" d="M17.669 18.3324C17.3004 18.3324 16.999 18.0344 16.999 17.6657C16.999 17.297 17.2944 16.999 17.663 16.999H17.669C18.0377 16.999 18.3357 17.297 18.3357 17.6657C18.3357 18.0344 18.0377 18.3324 17.669 18.3324Z" fill="#00985A"/>
<path fill-rule="evenodd" clip-rule="evenodd" d="M14.3355 14.9993C13.9669 14.9993 13.6655 14.7013 13.6655 14.3327C13.6655 13.964 13.9609 13.666 14.3295 13.666H14.3355C14.7042 13.666 15.0022 13.964 15.0022 14.3327C15.0022 14.7013 14.7042 14.9993 14.3355 14.9993Z" fill="#00985A"/>
</svg>
