<svg width="140" height="140" viewBox="0 0 140 140" fill="none" xmlns="http://www.w3.org/2000/svg">
<path opacity="0.1" d="M70 140C108.66 140 140 108.66 140 70C140 31.3401 108.66 0 70 0C31.3401 0 0 31.3401 0 70C0 108.66 31.3401 140 70 140Z" fill="#4E86F4"/>
<path opacity="0.1" d="M70 130C103.137 130 130 103.137 130 70C130 36.8629 103.137 10 70 10C36.8629 10 10 36.8629 10 70C10 103.137 36.8629 130 70 130Z" fill="#4E86F4"/>
<path d="M70 120C97.6142 120 120 97.6142 120 70C120 42.3858 97.6142 20 70 20C42.3858 20 20 42.3858 20 70C20 97.6142 42.3858 120 70 120Z" fill="#4E86F4"/>
<rect x="44" y="44" width="52" height="52" fill="#4E86F4"/>
<rect width="36" height="36" transform="translate(52 52)" fill="#4E86F4"/>
<path d="M73.6274 60.2349C72.9133 60.103 72.2575 60.5587 72.1216 61.2557C71.9857 61.9527 72.4428 62.6332 73.1374 62.7696C75.2288 63.1774 76.8437 64.7963 77.253 66.8948V66.8963C77.3695 67.5004 77.9013 67.9396 78.5138 67.9396C78.5959 67.9396 78.6781 67.9321 78.7618 67.9171C79.4564 67.7777 79.9135 67.0987 79.7776 66.4001C79.1666 63.2658 76.754 60.845 73.6274 60.2349Z" fill="white"/>
<path d="M73.5343 55.0119C73.1996 54.9639 72.8635 55.0629 72.5961 55.2757C72.3213 55.4916 72.1495 55.8034 72.1121 56.1526C72.0329 56.8586 72.5423 57.4972 73.2474 57.5766C78.1099 58.1193 81.8894 61.9072 82.4361 66.7848C82.5093 67.4384 83.0576 67.9315 83.7119 67.9315C83.7612 67.9315 83.809 67.9285 83.8583 67.9225C84.2004 67.8851 84.5051 67.7157 84.7202 67.4459C84.9339 67.176 85.031 66.8403 84.9921 66.497C84.3109 60.4112 79.6008 55.6879 73.5343 55.0119Z" fill="white"/>
<path fill-rule="evenodd" clip-rule="evenodd" d="M68.5476 71.4586C74.5312 77.4405 75.8887 70.5201 79.6985 74.3272C83.3714 77.9991 85.4824 78.7348 80.8289 83.3871C80.246 83.8555 76.5424 89.4914 63.5269 76.4795C50.5098 63.466 56.1424 59.7587 56.611 59.1759C61.2758 54.5108 61.9988 56.6341 65.6717 60.306C69.4815 64.1147 62.564 65.4766 68.5476 71.4586Z" fill="white"/>
</svg>
