<svg width="16" height="16" viewBox="0 0 16 16" fill="none" xmlns="http://www.w3.org/2000/svg">
<path fill-rule="evenodd" clip-rule="evenodd" d="M11.682 4.93083V5.95306C12.8302 6.31147 13.6668 7.35092 13.6668 8.59243V11.8837C13.6668 13.4207 12.3926 14.6668 10.8216 14.6668H5.17936C3.60773 14.6668 2.3335 13.4207 2.3335 11.8837V8.59243C2.3335 7.35092 3.17079 6.31147 4.31835 5.95306V4.93083C4.32513 2.94335 5.97127 1.3335 7.99 1.3335C10.0358 1.3335 11.682 2.94335 11.682 4.93083ZM8.00355 2.49286C9.37872 2.49286 10.4965 3.58597 10.4965 4.93083V5.8093H5.50385V4.91758C5.51062 3.57935 6.62838 2.49286 8.00355 2.49286ZM8.59291 10.9701C8.59291 11.2947 8.32871 11.5531 7.99678 11.5531C7.67161 11.5531 7.40742 11.2947 7.40742 10.9701V9.49938C7.40742 9.18139 7.67161 8.92302 7.99678 8.92302C8.32871 8.92302 8.59291 9.18139 8.59291 9.49938V10.9701Z" fill="#0073FF"/>
</svg>
