<svg width="20" height="20" viewBox="0 0 20 20" fill="none" xmlns="http://www.w3.org/2000/svg">
<circle cx="10" cy="10" r="10" fill="#0073FF" fill-opacity="0.08"/>
<path fill-rule="evenodd" clip-rule="evenodd" d="M8.28633 5.75586C7.45733 5.75586 6.76983 6.42686 6.75033 7.25436V12.6699C6.73583 13.4934 7.38933 14.1694 8.20683 14.1834L8.28033 14.1829H12.2863C13.1073 14.1739 13.7768 13.4954 13.7758 12.6704V8.17086L11.4588 5.75586H8.29233H8.28633ZM8.19983 14.9334C6.96333 14.9119 5.97933 13.8934 6.00033 12.6634V7.24536C6.02883 6.00486 7.05333 5.00586 8.28483 5.00586H8.29383H11.6183C11.7203 5.00586 11.8178 5.04736 11.8888 5.12086L14.4218 7.76036C14.4883 7.82986 14.5258 7.92336 14.5258 8.01986V12.6699C14.5278 13.9044 13.5248 14.9199 12.2903 14.9329L8.19983 14.9334Z" fill="#0073FF"/>
<path fill-rule="evenodd" clip-rule="evenodd" d="M14.1486 8.492H12.7716C11.8561 8.4895 11.1121 7.7435 11.1121 6.8295V5.375C11.1121 5.168 11.2801 5 11.4871 5C11.6941 5 11.8621 5.168 11.8621 5.375V6.8295C11.8621 7.3315 12.2706 7.7405 12.7726 7.742H14.1486C14.3556 7.742 14.5236 7.91 14.5236 8.117C14.5236 8.324 14.3556 8.492 14.1486 8.492Z" fill="#0073FF"/>
<path fill-rule="evenodd" clip-rule="evenodd" d="M11.3968 10.832H8.94727C8.74027 10.832 8.57227 10.664 8.57227 10.457C8.57227 10.25 8.74027 10.082 8.94727 10.082H11.3968C11.6038 10.082 11.7718 10.25 11.7718 10.457C11.7718 10.664 11.6038 10.832 11.3968 10.832Z" fill="#0073FF"/>
<path fill-rule="evenodd" clip-rule="evenodd" d="M10.1721 12.0574C9.96512 12.0574 9.79712 11.8894 9.79712 11.6824V9.23242C9.79712 9.02542 9.96512 8.85742 10.1721 8.85742C10.3791 8.85742 10.5471 9.02542 10.5471 9.23242V11.6824C10.5471 11.8894 10.3791 12.0574 10.1721 12.0574Z" fill="#0073FF"/>
</svg>
