<svg width="16" height="16" viewBox="0 0 16 16" fill="none" xmlns="http://www.w3.org/2000/svg">
<path fill-rule="evenodd" clip-rule="evenodd" d="M10.9406 1.84591L10.9413 2.34566C12.7777 2.48959 13.9908 3.74096 13.9928 5.66L14 11.2772C14.0026 13.3695 12.6882 14.6568 10.5812 14.6602L5.4346 14.6668C3.3408 14.6695 2.00988 13.3515 2.00725 11.2532L2.00001 5.70198C1.99738 3.77028 3.16769 2.52224 5.00412 2.35366L5.00346 1.85391C5.0028 1.56072 5.22002 1.34016 5.50963 1.34016C5.79925 1.3395 6.01646 1.55939 6.01712 1.85257L6.01778 2.31901L9.9276 2.31368L9.92694 1.84724C9.92628 1.55406 10.1435 1.33417 10.4331 1.3335C10.7161 1.33283 10.9399 1.55272 10.9406 1.84591ZM3.01432 5.90788L12.9798 5.89455V5.66133C12.9515 4.22872 12.2327 3.47709 10.9426 3.36515L10.9432 3.87822C10.9432 4.16475 10.7201 4.39197 10.4371 4.39197C10.1474 4.39263 9.92957 4.16608 9.92957 3.87956L9.92891 3.33983L6.01909 3.34516L6.01975 3.88422C6.01975 4.17141 5.8032 4.39796 5.51358 4.39796C5.22396 4.39863 5.00609 4.17274 5.00609 3.88555L5.00543 3.37248C3.72191 3.50108 3.01169 4.25537 3.01367 5.70065L3.01432 5.90788ZM10.1599 8.93636V8.94369C10.1665 9.2502 10.4166 9.48275 10.7201 9.47609C11.0163 9.46876 11.2526 9.21489 11.246 8.90837C11.2322 8.61519 10.9946 8.37597 10.699 8.37664C10.3962 8.3833 10.1593 8.62985 10.1599 8.93636ZM10.7036 11.9282C10.4009 11.9215 10.1567 11.669 10.156 11.3625C10.1494 11.056 10.3923 10.8021 10.6951 10.7948H10.7017C11.011 10.7948 11.2618 11.0473 11.2618 11.3605C11.2625 11.6737 11.0123 11.9275 10.7036 11.9282ZM7.44808 8.94702C7.46125 9.25353 7.71203 9.49275 8.01481 9.47942C8.31101 9.46543 8.54731 9.21222 8.53414 8.90571C8.5269 8.60586 8.28336 8.37264 7.98716 8.37331C7.68438 8.38663 7.44743 8.64051 7.44808 8.94702ZM8.01744 11.8982C7.71466 11.9115 7.46454 11.6723 7.45072 11.3658C7.45072 11.0593 7.68702 10.8061 7.9898 10.7921C8.286 10.7914 8.5302 11.0246 8.53678 11.3238C8.5506 11.631 8.31364 11.8842 8.01744 11.8982ZM4.73622 8.97034C4.74939 9.27685 5.00017 9.51673 5.30295 9.50274C5.59915 9.48941 5.83545 9.23554 5.82163 8.92903C5.81504 8.62918 5.5715 8.39596 5.27465 8.39663C4.97187 8.40996 4.73557 8.66383 4.73622 8.97034ZM5.30558 11.9015C5.0028 11.9155 4.75268 11.6757 4.73886 11.3691C4.7382 11.0626 4.97516 10.8088 5.27794 10.7954C5.57414 10.7948 5.81833 11.028 5.82492 11.3278C5.83874 11.6343 5.60244 11.8882 5.30558 11.9015Z" fill="#0073FF"/>
</svg>
