<svg width="32" height="32" viewBox="0 0 32 32" fill="none" xmlns="http://www.w3.org/2000/svg">
<circle cx="16" cy="16" r="16" fill="url(#paint0_linear_88_8753)"/>
<g filter="url(#filter0_d_88_8753)">
<path d="M16.0134 9.3335C12.14 9.3335 9.33337 12.4935 9.33337 16.0002C9.33337 17.1202 9.66004 18.2735 10.2334 19.3268C10.34 19.5002 10.3534 19.7202 10.28 19.9268L9.83337 21.4202C9.73337 21.7802 10.04 22.0468 10.38 21.9402L11.7267 21.5402C12.0934 21.4202 12.38 21.5735 12.7207 21.7802C13.694 22.3535 14.9067 22.6468 16 22.6468C19.3067 22.6468 22.6667 20.0935 22.6667 15.9802C22.6667 12.4335 19.8 9.3335 16.0134 9.3335Z" fill="white"/>
</g>
<path fill-rule="evenodd" clip-rule="evenodd" d="M15.987 16.8601C15.5137 16.8534 15.1337 16.4734 15.1337 16.0001C15.1337 15.5334 15.5203 15.1467 15.987 15.1534C16.4603 15.1534 16.8403 15.5334 16.8403 16.0067C16.8403 16.4734 16.4603 16.8601 15.987 16.8601ZM12.9134 16.8601C12.4467 16.8601 12.0601 16.4734 12.0601 16.0068C12.0601 15.5334 12.4401 15.1534 12.9134 15.1534C13.3867 15.1534 13.7667 15.5334 13.7667 16.0068C13.7667 16.4734 13.3867 16.8534 12.9134 16.8601ZM18.2069 16.0067C18.2069 16.4734 18.5869 16.8601 19.0602 16.8601C19.5335 16.8601 19.9135 16.4734 19.9135 16.0067C19.9135 15.5334 19.5335 15.1534 19.0602 15.1534C18.5869 15.1534 18.2069 15.5334 18.2069 16.0067Z" fill="#F5493A"/>
<defs>
<filter id="filter0_d_88_8753" x="9.33337" y="9.3335" width="14.6667" height="14.6468" filterUnits="userSpaceOnUse" color-interpolation-filters="sRGB">
<feFlood flood-opacity="0" result="BackgroundImageFix"/>
<feColorMatrix in="SourceAlpha" type="matrix" values="0 0 0 0 0 0 0 0 0 0 0 0 0 0 0 0 0 0 127 0" result="hardAlpha"/>
<feOffset dx="0.666667" dy="0.666667"/>
<feGaussianBlur stdDeviation="0.333333"/>
<feComposite in2="hardAlpha" operator="out"/>
<feColorMatrix type="matrix" values="0 0 0 0 0 0 0 0 0 0 0 0 0 0 0 0 0 0 0.16 0"/>
<feBlend mode="normal" in2="BackgroundImageFix" result="effect1_dropShadow_88_8753"/>
<feBlend mode="normal" in="SourceGraphic" in2="effect1_dropShadow_88_8753" result="shape"/>
</filter>
<linearGradient id="paint0_linear_88_8753" x1="17.0667" y1="29.3333" x2="17.0667" y2="2.4" gradientUnits="userSpaceOnUse">
<stop stop-color="#C72114"/>
<stop offset="1" stop-color="#F5493A"/>
</linearGradient>
</defs>
</svg>
