<svg width="20" height="20" viewBox="0 0 20 20" fill="none" xmlns="http://www.w3.org/2000/svg">
<path fill-rule="evenodd" clip-rule="evenodd" d="M4.06247 4.37494C3.19952 4.37494 2.49997 5.07449 2.49997 5.93744V14.0624C2.49997 14.9254 3.19952 15.6249 4.06247 15.6249H15.9375C16.8004 15.6249 17.5 14.9254 17.5 14.0624V5.93744C17.5 5.07449 16.8004 4.37494 15.9375 4.37494H4.06247ZM1.24997 5.93744C1.24997 4.38414 2.50917 3.12494 4.06247 3.12494H15.9375C17.4908 3.12494 18.75 4.38414 18.75 5.93744V14.0624C18.75 15.6157 17.4908 16.8749 15.9375 16.8749H4.06247C2.50917 16.8749 1.24997 15.6157 1.24997 14.0624V5.93744Z" fill="#D3D3D3" fill-opacity="0.75"/>
<path fill-rule="evenodd" clip-rule="evenodd" d="M18.125 8.67209H1.87497V6.32834H18.125V8.67209Z" fill="#D3D3D3" fill-opacity="0.75"/>
<rect x="3.82812" y="11.875" width="5" height="1.83333" rx="0.916667" fill="#D3D3D3" fill-opacity="0.75"/>
</svg>
