<svg width="17" height="19" viewBox="0 0 17 19" fill="none" xmlns="http://www.w3.org/2000/svg">
<path fill-rule="evenodd" clip-rule="evenodd" d="M16.222 8.25293H1.36865C1.02365 8.25293 0.743652 7.97293 0.743652 7.62793C0.743652 7.28293 1.02365 7.00293 1.36865 7.00293H16.222C16.567 7.00293 16.847 7.28293 16.847 7.62793C16.847 7.97293 16.567 8.25293 16.222 8.25293Z" fill="#C82215"/>
<path fill-rule="evenodd" clip-rule="evenodd" d="M12.5009 11.5078C12.1559 11.5078 11.8726 11.2278 11.8726 10.8828C11.8726 10.5378 12.1484 10.2578 12.4934 10.2578H12.5009C12.8459 10.2578 13.1259 10.5378 13.1259 10.8828C13.1259 11.2278 12.8459 11.5078 12.5009 11.5078Z" fill="#C82215"/>
<path fill-rule="evenodd" clip-rule="evenodd" d="M8.80314 11.5078C8.45814 11.5078 8.1748 11.2278 8.1748 10.8828C8.1748 10.5378 8.45064 10.2578 8.79564 10.2578H8.80314C9.14814 10.2578 9.42814 10.5378 9.42814 10.8828C9.42814 11.2278 9.14814 11.5078 8.80314 11.5078Z" fill="#C82215"/>
<path fill-rule="evenodd" clip-rule="evenodd" d="M5.09743 11.5078C4.75243 11.5078 4.46826 11.2278 4.46826 10.8828C4.46826 10.5378 4.74493 10.2578 5.08993 10.2578H5.09743C5.44243 10.2578 5.72243 10.5378 5.72243 10.8828C5.72243 11.2278 5.44243 11.5078 5.09743 11.5078Z" fill="#C82215"/>
<path fill-rule="evenodd" clip-rule="evenodd" d="M12.5009 14.7471C12.1559 14.7471 11.8726 14.4671 11.8726 14.1221C11.8726 13.7771 12.1484 13.4971 12.4934 13.4971H12.5009C12.8459 13.4971 13.1259 13.7771 13.1259 14.1221C13.1259 14.4671 12.8459 14.7471 12.5009 14.7471Z" fill="#C82215"/>
<path fill-rule="evenodd" clip-rule="evenodd" d="M8.80314 14.7471C8.45814 14.7471 8.1748 14.4671 8.1748 14.1221C8.1748 13.7771 8.45064 13.4971 8.79564 13.4971H8.80314C9.14814 13.4971 9.42814 13.7771 9.42814 14.1221C9.42814 14.4671 9.14814 14.7471 8.80314 14.7471Z" fill="#C82215"/>
<path fill-rule="evenodd" clip-rule="evenodd" d="M5.09743 14.7471C4.75243 14.7471 4.46826 14.4671 4.46826 14.1221C4.46826 13.7771 4.74493 13.4971 5.08993 13.4971H5.09743C5.44243 13.4971 5.72243 13.7771 5.72243 14.1221C5.72243 14.4671 5.44243 14.7471 5.09743 14.7471Z" fill="#C82215"/>
<path fill-rule="evenodd" clip-rule="evenodd" d="M12.1611 4.82551C11.8161 4.82551 11.5361 4.54551 11.5361 4.20051V1.45801C11.5361 1.11301 11.8161 0.833008 12.1611 0.833008C12.5061 0.833008 12.7861 1.11301 12.7861 1.45801V4.20051C12.7861 4.54551 12.5061 4.82551 12.1611 4.82551Z" fill="#C82215"/>
<path fill-rule="evenodd" clip-rule="evenodd" d="M5.4292 4.82551C5.0842 4.82551 4.8042 4.54551 4.8042 4.20051V1.45801C4.8042 1.11301 5.0842 0.833008 5.4292 0.833008C5.7742 0.833008 6.0542 1.11301 6.0542 1.45801V4.20051C6.0542 4.54551 5.7742 4.82551 5.4292 4.82551Z" fill="#C82215"/>
<mask id="mask0_1503_1440" style="mask-type:alpha" maskUnits="userSpaceOnUse" x="0" y="2" width="17" height="17">
<path fill-rule="evenodd" clip-rule="evenodd" d="M0.666504 2.14844H16.9165V18.7492H0.666504V2.14844Z" fill="white"/>
</mask>
<g mask="url(#mask0_1503_1440)">
<path fill-rule="evenodd" clip-rule="evenodd" d="M5.26734 3.39844C3.1065 3.39844 1.9165 4.55094 1.9165 6.64344V14.1843C1.9165 16.3226 3.1065 17.4993 5.26734 17.4993H12.3157C14.4765 17.4993 15.6665 16.3443 15.6665 14.2476V6.64344C15.6698 5.61427 15.3932 4.81427 14.844 4.26427C14.279 3.6976 13.4082 3.39844 12.3232 3.39844H5.26734ZM12.3157 18.7493H5.26734C2.42984 18.7493 0.666504 17.0001 0.666504 14.1843V6.64344C0.666504 3.8701 2.42984 2.14844 5.26734 2.14844H12.3232C13.7473 2.14844 14.9248 2.5751 15.729 3.38094C16.5098 4.1651 16.9207 5.2926 16.9165 6.6451V14.2476C16.9165 17.0243 15.1532 18.7493 12.3157 18.7493Z" fill="#C82215"/>
</g>
</svg>
