<svg width="12" height="12" viewBox="0 0 12 12" fill="none" xmlns="http://www.w3.org/2000/svg">
<path fill-rule="evenodd" clip-rule="evenodd" d="M6.27475 6.865H7.13119C7.33416 6.865 7.50248 6.7 7.50248 6.495C7.50248 6.285 7.33416 6.12 7.13119 6.12H6.27475V5.255C6.27475 5.05 6.11139 4.885 5.90842 4.885C5.70545 4.885 5.53713 5.05 5.53713 5.255V6.12H4.68564C4.48267 6.12 4.31436 6.285 4.31436 6.495C4.31436 6.7 4.48267 6.865 4.68564 6.865H5.53713V7.73C5.53713 7.935 5.70545 8.1 5.90842 8.1C6.11139 8.1 6.27475 7.935 6.27475 7.73V6.865ZM9.66903 4.51281C9.7854 4.51146 9.9121 4.51 10.0272 4.51C10.151 4.51 10.25 4.61 10.25 4.735V8.755C10.25 9.995 9.25495 11 8.02228 11H4.08663C2.7995 11 1.75 9.945 1.75 8.645V3.255C1.75 2.015 2.75 1 3.98267 1H6.62624C6.75495 1 6.85396 1.105 6.85396 1.23V2.84C6.85396 3.755 7.60149 4.505 8.50743 4.51C8.71903 4.51 8.90559 4.51158 9.06885 4.51297C9.19586 4.51404 9.30877 4.515 9.40842 4.515C9.47889 4.515 9.57023 4.51395 9.66903 4.51281ZM9.805 3.7831C9.39807 3.7846 8.91837 3.7831 8.57332 3.7796C8.02579 3.7796 7.5748 3.3241 7.5748 2.7711V1.4531C7.5748 1.2376 7.83371 1.1306 7.98173 1.2861L9.9748 3.3796C10.1194 3.5311 10.0134 3.7826 9.805 3.7831Z" fill="white"/>
</svg>
