<svg width="16" height="16" viewBox="0 0 16 16" fill="none" xmlns="http://www.w3.org/2000/svg">
<path d="M13.4547 5.57548C13.7762 5.57548 14.0845 5.70319 14.3118 5.93052C14.5391 6.15784 14.6668 6.46617 14.6668 6.78766V9.21202C14.6668 9.53351 14.5391 9.84183 14.3118 10.0692C14.0845 10.2965 13.7762 10.4242 13.4547 10.4242H12.8111C12.6633 11.596 12.0931 12.6735 11.2073 13.4546C10.3215 14.2358 9.18114 14.6668 8.00016 14.6668V13.4546C8.96459 13.4546 9.88951 13.0715 10.5715 12.3895C11.2534 11.7075 11.6365 10.7826 11.6365 9.81811V6.18157C11.6365 5.2171 11.2534 4.29213 10.5715 3.61014C9.88951 2.92816 8.96459 2.54502 8.00016 2.54502C7.03574 2.54502 6.11082 2.92816 5.42887 3.61014C4.74692 4.29213 4.3638 5.2171 4.3638 6.18157V10.4242H2.54562C2.22414 10.4242 1.91584 10.2965 1.68852 10.0692C1.4612 9.84183 1.3335 9.53351 1.3335 9.21202V6.78766C1.3335 6.46617 1.4612 6.15784 1.68852 5.93052C1.91584 5.70319 2.22414 5.57548 2.54562 5.57548H3.18925C3.33715 4.40384 3.90748 3.32644 4.79324 2.54543C5.67899 1.76443 6.81929 1.3335 8.00016 1.3335C9.18104 1.3335 10.3213 1.76443 11.2071 2.54543C12.0928 3.32644 12.6632 4.40384 12.8111 5.57548H13.4547ZM5.43047 10.2939L6.07289 9.26596C6.65051 9.62782 7.31857 9.81921 8.00016 9.81811C8.68176 9.81921 9.34981 9.62782 9.92744 9.26596L10.5699 10.2939C9.79971 10.7764 8.90898 11.0317 8.00016 11.0303C7.09135 11.0317 6.20061 10.7764 5.43047 10.2939Z" fill="#0073FF"/>
</svg>
