<svg width="20" height="20" viewBox="0 0 20 20" fill="none" xmlns="http://www.w3.org/2000/svg">
<path fill-rule="evenodd" clip-rule="evenodd" d="M16.9992 7.62147L17.5994 8.22147C18.0745 8.68814 18.333 9.32147 18.333 9.98814C18.3413 10.6548 18.0829 11.289 17.616 11.7631C17.6105 11.7692 17.6049 11.7746 17.5994 11.78C17.5966 11.7827 17.5938 11.7854 17.591 11.7881L16.9992 12.3798C16.7657 12.6131 16.6324 12.9298 16.6324 13.264V14.1215C16.6324 15.5048 15.507 16.6306 14.1231 16.6306H13.2645C12.931 16.6306 12.6142 16.7631 12.3808 16.9965L11.7806 17.5965C11.2888 18.089 10.6469 18.3298 10.005 18.3298C9.36306 18.3298 8.72116 18.089 8.22931 17.6056L7.62076 16.9965C7.38734 16.7631 7.07056 16.6306 6.7371 16.6306H5.87846C4.49463 16.6306 3.36922 15.5048 3.36922 14.1215V13.264C3.36922 12.9298 3.23584 12.6131 3.00242 12.3715L2.4022 11.7798C1.42685 10.8056 1.41851 9.21314 2.39386 8.23064L3.00242 7.62147C3.23584 7.38814 3.36922 7.07147 3.36922 6.72981V5.87981C3.36922 4.49647 4.49463 3.37231 5.87846 3.37231H6.7371C7.07056 3.37231 7.38734 3.23814 7.62076 3.00481L8.22098 2.40481C9.19633 1.42231 10.7886 1.42231 11.7723 2.39731L12.3808 3.00481C12.6142 3.23814 12.931 3.37231 13.2645 3.37231H14.1231C15.507 3.37231 16.6324 4.49647 16.6324 5.87981V6.73897C16.6324 7.07147 16.7657 7.38814 16.9992 7.62147ZM7.85418 12.8715C8.05425 12.8715 8.23765 12.7965 8.37103 12.6548L12.6559 8.37231C12.9394 8.08897 12.9394 7.62147 12.6559 7.33814C12.3725 7.05564 11.914 7.05564 11.6305 7.33814L7.34566 11.6215C7.06222 11.9048 7.06222 12.3715 7.34566 12.6548C7.47904 12.7965 7.66244 12.8715 7.85418 12.8715ZM11.4138 12.1381C11.4138 12.5465 11.7389 12.8715 12.1474 12.8715C12.5475 12.8715 12.8727 12.5465 12.8727 12.1381C12.8727 11.739 12.5475 11.4131 12.1474 11.4131C11.7389 11.4131 11.4138 11.739 11.4138 12.1381ZM7.86251 7.12981C8.26266 7.12981 8.58778 7.45481 8.58778 7.85481C8.58778 8.26397 8.26266 8.58814 7.86251 8.58814C7.46237 8.58814 7.12891 8.26397 7.12891 7.85481C7.12891 7.45481 7.46237 7.12981 7.86251 7.12981Z" fill="url(#paint0_linear_823_23740)"/>
<defs>
<linearGradient id="paint0_linear_823_23740" x1="10.5554" y1="16.9412" x2="10.5554" y2="2.9167" gradientUnits="userSpaceOnUse">
<stop stop-color="#C72114"/>
<stop offset="1" stop-color="#F5493A"/>
</linearGradient>
</defs>
</svg>
