<svg width="12" height="12" viewBox="0 0 12 12" fill="none" xmlns="http://www.w3.org/2000/svg">
<path fill-rule="evenodd" clip-rule="evenodd" d="M6.12318 10.9996C5.44568 10.9996 4.78518 10.9921 4.13168 10.9786C3.29568 10.9621 2.71718 10.4201 2.62268 9.56409C2.46518 8.14409 2.19568 4.79709 2.19318 4.76359C2.17618 4.55709 2.33018 4.37609 2.53668 4.35959C2.74018 4.35409 2.92418 4.49709 2.94068 4.70309C2.94318 4.73709 3.21218 8.07259 3.36818 9.48159C3.42168 9.96809 3.68418 10.2191 4.14718 10.2286C5.39718 10.2551 6.67268 10.2566 8.04768 10.2316C8.53968 10.2221 8.80568 9.97609 8.86068 9.47809C9.01568 8.08109 9.28568 4.73709 9.28868 4.70309C9.30518 4.49709 9.48768 4.35309 9.69218 4.35959C9.89868 4.37659 10.0527 4.55709 10.0362 4.76359C10.0332 4.79759 9.76218 8.15309 9.60618 9.56059C9.50918 10.4341 8.93218 10.9656 8.06118 10.9816C7.39468 10.9931 6.75168 10.9996 6.12318 10.9996Z" fill="#061731" fill-opacity="0.75"/>
<path fill-rule="evenodd" clip-rule="evenodd" d="M10.354 3.49414H1.875C1.668 3.49414 1.5 3.32614 1.5 3.11914C1.5 2.91214 1.668 2.74414 1.875 2.74414H10.354C10.561 2.74414 10.729 2.91214 10.729 3.11914C10.729 3.32614 10.561 3.49414 10.354 3.49414Z" fill="#061731" fill-opacity="0.75"/>
<path fill-rule="evenodd" clip-rule="evenodd" d="M8.72029 3.4945C8.15129 3.4945 7.65729 3.089 7.54529 2.531L7.42379 1.923C7.39829 1.8305 7.29279 1.75 7.17279 1.75H5.05629C4.93629 1.75 4.83079 1.8305 4.80029 1.946L4.68379 2.531C4.57229 3.089 4.07779 3.4945 3.50879 3.4945C3.30179 3.4945 3.13379 3.3265 3.13379 3.1195C3.13379 2.9125 3.30179 2.7445 3.50879 2.7445C3.72179 2.7445 3.90679 2.5925 3.94879 2.3835L4.07029 1.7755C4.19379 1.3095 4.59729 1 5.05629 1H7.17279C7.63179 1 8.03529 1.3095 8.15379 1.753L8.28079 2.3835C8.32229 2.5925 8.50729 2.7445 8.72029 2.7445C8.92729 2.7445 9.09529 2.9125 9.09529 3.1195C9.09529 3.3265 8.92729 3.4945 8.72029 3.4945Z" fill="#061731" fill-opacity="0.75"/>
</svg>
