<svg width="24" height="24" viewBox="0 0 24 24" fill="none" xmlns="http://www.w3.org/2000/svg">
<circle cx="12" cy="12" r="12" fill="white" fill-opacity="0.12"/>
<path fill-rule="evenodd" clip-rule="evenodd" d="M17.8339 18.6265H12.9985C12.7225 18.6265 12.4985 18.4025 12.4985 18.1265C12.4985 17.8505 12.7225 17.6265 12.9985 17.6265H17.8339C18.1099 17.6265 18.3339 17.8505 18.3339 18.1265C18.3339 18.4025 18.1099 18.6265 17.8339 18.6265Z" fill="white"/>
<mask id="mask0_802_25509" style="mask-type:alpha" maskUnits="userSpaceOnUse" x="5" y="6" width="12" height="13">
<path fill-rule="evenodd" clip-rule="evenodd" d="M5.3335 6H16.7872V18.6264H5.3335V6Z" fill="white"/>
</mask>
<g mask="url(#mask0_802_25509)">
<path fill-rule="evenodd" clip-rule="evenodd" d="M12.7403 7.34443L6.46368 15.1944C6.34968 15.3371 6.30768 15.5211 6.34968 15.6978L6.80368 17.6211L8.82968 17.5958C9.02235 17.5938 9.20035 17.5078 9.31835 17.3611C11.463 14.6778 15.5517 9.56176 15.6677 9.41176C15.777 9.23443 15.8197 8.98376 15.7623 8.74243C15.7037 8.4951 15.5497 8.28509 15.3277 8.15109C15.2803 8.11843 14.157 7.24643 14.1223 7.2191C13.6997 6.88043 13.083 6.9391 12.7403 7.34443ZM6.40901 18.6264C6.17768 18.6264 5.97635 18.4678 5.92235 18.2418L5.37635 15.9278C5.26368 15.4484 5.37568 14.9538 5.68301 14.5698L11.963 6.7151C11.9657 6.71243 11.9677 6.7091 11.9703 6.70643C12.659 5.8831 13.9043 5.76176 14.7443 6.43576C14.7777 6.46176 15.893 7.32843 15.893 7.32843C16.2983 7.56976 16.615 8.0011 16.735 8.51176C16.8543 9.0171 16.7677 9.53843 16.4897 9.97909C16.469 10.0118 16.451 10.0398 10.099 17.9864C9.79301 18.3678 9.33435 18.5898 8.84168 18.5958L6.41568 18.6264H6.40901Z" fill="white"/>
</g>
<path fill-rule="evenodd" clip-rule="evenodd" d="M14.8158 11.7896C14.7091 11.7896 14.6024 11.7556 14.5111 11.6863L10.8764 8.89425C10.6578 8.72625 10.6164 8.41292 10.7844 8.19292C10.9531 7.97425 11.2664 7.93359 11.4858 8.10159L15.1211 10.8929C15.3398 11.0609 15.3811 11.3749 15.2124 11.5943C15.1144 11.7223 14.9658 11.7896 14.8158 11.7896Z" fill="white"/>
</svg>
