<svg width="16" height="16" viewBox="0 0 16 16" fill="none" xmlns="http://www.w3.org/2000/svg">
<circle cx="8" cy="8" r="8" fill="#0073FF" fill-opacity="0.08"/>
<path fill-rule="evenodd" clip-rule="evenodd" d="M9.90725 12.3213H6.23058C4.79683 12.3213 3.8335 11.315 3.8335 9.81753V6.35336C3.8335 4.85586 4.79683 3.84961 6.23058 3.84961H7.7885C7.961 3.84961 8.101 3.98961 8.101 4.16211C8.101 4.33461 7.961 4.47461 7.7885 4.47461H6.23058C5.15391 4.47461 4.4585 5.21211 4.4585 6.35336V9.81753C4.4585 10.9588 5.15391 11.6963 6.23058 11.6963H9.90725C10.9839 11.6963 11.6797 10.9588 11.6797 9.81753V8.13919C11.6797 7.96669 11.8197 7.82669 11.9922 7.82669C12.1647 7.82669 12.3047 7.96669 12.3047 8.13919V9.81753C12.3047 11.315 11.341 12.3213 9.90725 12.3213Z" fill="#0073FF"/>
<path fill-rule="evenodd" clip-rule="evenodd" d="M6.69502 9.42898H7.93544C8.09377 9.42898 8.24211 9.36773 8.35419 9.25565L11.4829 6.1269C11.6113 5.99857 11.6821 5.82773 11.6821 5.64607C11.6821 5.46398 11.6113 5.29273 11.4829 5.1644L10.9759 4.65732C10.7104 4.39273 10.2788 4.39273 10.0129 4.65732L6.89919 7.77107C6.79127 7.87898 6.73002 8.02232 6.72627 8.1744L6.69502 9.42898ZM7.93544 10.054H6.37461C6.29044 10.054 6.20961 10.0198 6.15086 9.9594C6.09211 9.8994 6.06002 9.81815 6.06211 9.73357L6.10127 8.15898C6.10919 7.84565 6.23544 7.55107 6.45711 7.32898H6.45752L9.57127 4.21523C10.0804 3.7069 10.9084 3.7069 11.4175 4.21523L11.9246 4.72232C12.1717 4.96898 12.3075 5.2969 12.3071 5.64607C12.3071 5.99523 12.1713 6.32273 11.9246 6.56898L8.79586 9.69773C8.56627 9.92732 8.26044 10.054 7.93544 10.054Z" fill="#0073FF"/>
<path fill-rule="evenodd" clip-rule="evenodd" d="M11.2212 7.13328C11.1412 7.13328 11.0612 7.10286 11.0004 7.04161L9.09791 5.13911C8.97583 5.01703 8.97583 4.81911 9.09791 4.69703C9.21999 4.57495 9.41749 4.57495 9.53958 4.69703L11.4421 6.59995C11.5642 6.72203 11.5642 6.91953 11.4421 7.04161C11.3812 7.10286 11.3012 7.13328 11.2212 7.13328Z" fill="#0073FF"/>
</svg>
