<svg width="60" height="60" viewBox="0 0 60 60" fill="none" xmlns="http://www.w3.org/2000/svg">
<g style="mix-blend-mode:multiply" opacity="0.28" filter="url(#filter0_f_1024_3072)">
<ellipse cx="30" cy="55" rx="18" ry="1" fill="#1324D6"/>
</g>
<circle cx="30" cy="28" r="26" fill="url(#paint0_linear_1024_3072)"/>
<g filter="url(#filter1_d_1024_3072)">
<path d="M13.98 4C19.79 4 24 8.74 24 14C24 15.68 23.51 17.41 22.65 18.99C22.49 19.25 22.47 19.58 22.58 19.89L23.25 22.13C23.4 22.67 22.94 23.07 22.43 22.91L20.41 22.31C19.86 22.13 19.43 22.36 18.919 22.67C17.459 23.53 15.64 23.97 14 23.97C9.04 23.97 4 20.14 4 13.97C4 8.65 8.3 4 13.98 4Z" fill="#17A8FF"/>
</g>
<path d="M14.0116 8.25C12.3495 8.25 11.0917 8.94629 10.1483 10.3389C9.72157 10.9678 9.85633 11.8213 10.4628 12.293L11.2938 12.9219C11.5184 13.1016 11.8329 13.2139 12.1249 13.2139C11.8778 13.6406 11.7431 14.1123 11.7431 14.6514V14.9209C11.7431 15.2803 11.8778 15.6172 12.1024 15.8643C11.7206 16.291 11.5184 16.8301 11.5184 17.4141C11.5184 18.7168 12.5516 19.75 13.8544 19.75C15.1347 19.75 16.1903 18.7168 16.1903 17.4141C16.1903 16.8301 15.9657 16.291 15.5839 15.8643C15.786 15.6621 15.9208 15.3701 15.9432 15.0781C16.5722 14.6963 18.0995 13.9775 18.0995 11.9785C18.0995 9.86719 16.0556 8.25 14.0116 8.25ZM13.8544 18.6719C13.1581 18.6719 12.5966 18.1104 12.5966 17.4141C12.5966 16.7402 13.1581 16.1562 13.8544 16.1562C14.5282 16.1562 15.1122 16.7402 15.1122 17.4141C15.1122 18.1104 14.5282 18.6719 13.8544 18.6719ZM14.8651 14.7188V14.9209C14.8651 15.1006 14.7079 15.2578 14.5282 15.2578H13.1581C12.9784 15.2578 12.8212 15.1006 12.8212 14.9209V14.6514C12.8212 13.5957 13.6073 13.1689 14.2138 12.832C14.7528 12.54 15.0673 12.3379 15.0673 11.9561C15.0673 11.4395 14.4159 11.1025 13.8768 11.1025C13.203 11.1025 12.8661 11.4395 12.4393 12.001C12.3046 12.1357 12.08 12.1807 11.9452 12.0459L11.1141 11.4395C10.9569 11.3271 10.9345 11.1025 11.0243 10.9453C11.7431 9.91211 12.619 9.32812 14.0116 9.32812C15.4716 9.32812 17.0214 10.4736 17.0214 11.9785C17.0214 13.9551 14.8651 14 14.8651 14.7188Z" fill="white"/>
<g filter="url(#filter2_d_1024_3072)">
<path d="M37.531 16.0833C28.5739 16.0833 22.0835 23.3908 22.0835 31.4999C22.0835 34.0899 22.8389 36.757 24.1647 39.1928C24.4114 39.5937 24.4422 40.1024 24.2727 40.5803L23.2397 44.0337C23.0085 44.8662 23.7177 45.4828 24.5039 45.2362L27.6181 44.3112C28.466 44.0337 29.1289 44.3883 29.9167 44.8662C32.1675 46.192 34.9718 46.8703 37.5002 46.8703C45.1468 46.8703 52.9168 40.9658 52.9168 31.4537C52.9168 23.252 46.2877 16.0833 37.531 16.0833Z" fill="white"/>
</g>
<path fill-rule="evenodd" clip-rule="evenodd" d="M37.4947 39.4053C36.809 39.4053 36.2524 38.8488 36.2524 38.1631V31.5379C36.2524 30.8522 36.809 30.2957 37.4947 30.2957C38.1804 30.2957 38.7369 30.8522 38.7369 31.5379V38.1631C38.7369 38.8488 38.1804 39.4053 37.4947 39.4053Z" fill="#0073FF"/>
<path fill-rule="evenodd" clip-rule="evenodd" d="M37.5039 26.9071C36.588 26.9071 35.8394 26.1667 35.8394 25.2508C35.8394 24.3348 36.5731 23.5945 37.4874 23.5945H37.5039C38.4199 23.5945 39.1602 24.3348 39.1602 25.2508C39.1602 26.1667 38.4199 26.9071 37.5039 26.9071Z" fill="#0073FF"/>
<defs>
<filter id="filter0_f_1024_3072" x="8" y="50" width="44" height="10" filterUnits="userSpaceOnUse" color-interpolation-filters="sRGB">
<feFlood flood-opacity="0" result="BackgroundImageFix"/>
<feBlend mode="normal" in="SourceGraphic" in2="BackgroundImageFix" result="shape"/>
<feGaussianBlur stdDeviation="2" result="effect1_foregroundBlur_1024_3072"/>
</filter>
<filter id="filter1_d_1024_3072" x="4" y="4" width="20" height="20.97" filterUnits="userSpaceOnUse" color-interpolation-filters="sRGB">
<feFlood flood-opacity="0" result="BackgroundImageFix"/>
<feColorMatrix in="SourceAlpha" type="matrix" values="0 0 0 0 0 0 0 0 0 0 0 0 0 0 0 0 0 0 127 0" result="hardAlpha"/>
<feOffset dy="1"/>
<feComposite in2="hardAlpha" operator="out"/>
<feColorMatrix type="matrix" values="0 0 0 0 0.0745098 0 0 0 0 0.137255 0 0 0 0 0.835294 0 0 0 0.2 0"/>
<feBlend mode="normal" in2="BackgroundImageFix" result="effect1_dropShadow_1024_3072"/>
<feBlend mode="normal" in="SourceGraphic" in2="effect1_dropShadow_1024_3072" result="shape"/>
</filter>
<filter id="filter2_d_1024_3072" x="22.0835" y="16.0833" width="31.8335" height="31.7871" filterUnits="userSpaceOnUse" color-interpolation-filters="sRGB">
<feFlood flood-opacity="0" result="BackgroundImageFix"/>
<feColorMatrix in="SourceAlpha" type="matrix" values="0 0 0 0 0 0 0 0 0 0 0 0 0 0 0 0 0 0 127 0" result="hardAlpha"/>
<feOffset dx="1" dy="1"/>
<feComposite in2="hardAlpha" operator="out"/>
<feColorMatrix type="matrix" values="0 0 0 0 0 0 0 0 0 0 0 0 0 0 0 0 0 0 0.2 0"/>
<feBlend mode="normal" in2="BackgroundImageFix" result="effect1_dropShadow_1024_3072"/>
<feBlend mode="normal" in="SourceGraphic" in2="effect1_dropShadow_1024_3072" result="shape"/>
</filter>
<linearGradient id="paint0_linear_1024_3072" x1="30" y1="2" x2="30" y2="54" gradientUnits="userSpaceOnUse">
<stop stop-color="#0073FF"/>
<stop offset="0.130208" stop-color="#0073FF"/>
<stop offset="1" stop-color="#141ED2"/>
</linearGradient>
</defs>
</svg>
