<svg width="16" height="16" viewBox="0 0 16 16" fill="none" xmlns="http://www.w3.org/2000/svg">
<g clip-path="url(#clip0_1253_18033)">
<path d="M4.7815 5.73459C4.64047 6.04725 4.54559 6.37903 4.5 6.71862H7.188L5.84478 4.39209C5.38931 4.74406 5.02172 5.20453 4.7815 5.73459Z" fill="white"/>
<path d="M4.5 7.65625C4.54559 7.99584 4.64047 8.32766 4.7815 8.64031C5.02169 9.17037 5.38928 9.63084 5.84475 9.98281L7.188 7.65625H4.5Z" fill="white"/>
<path d="M8.00019 8.125L6.65625 10.4528C7.07075 10.624 7.52456 10.7188 8.00019 10.7188C8.47581 10.7188 8.92963 10.624 9.34413 10.4528L8.00019 8.125Z" fill="white"/>
<path d="M8.81201 7.65625L10.1553 9.98281C10.6107 9.63084 10.9783 9.17041 11.2185 8.64031C11.3596 8.32766 11.4544 7.99584 11.5 7.65625H8.81201Z" fill="white"/>
<path d="M11.2185 5.73483C10.9783 5.20474 10.6107 4.7443 10.1552 4.39233L8.81201 6.71887H11.5C11.4544 6.37927 11.3595 6.04746 11.2185 5.73483Z" fill="white"/>
<path d="M7.32666 2.03809L7.99994 3.23277L8.67322 2.03809H7.32666Z" fill="white"/>
<path d="M13.0823 2.10516C11.7248 0.747625 9.91984 0 8 0C6.08016 0 4.27522 0.747625 2.91766 2.10516C1.56012 3.46272 0.8125 5.26762 0.8125 7.1875C0.8125 9.10738 1.56012 10.9123 2.91766 12.2698C4.27522 13.6274 6.08016 14.375 8 14.375C9.91984 14.375 11.7248 13.6274 13.0823 12.2698C14.4399 10.9123 15.1875 9.10738 15.1875 7.1875C15.1875 5.26762 14.4399 3.46272 13.0823 2.10516ZM11.4472 3.07744C11.6302 2.89437 11.927 2.89437 12.1101 3.07744C12.2931 3.2605 12.2931 3.55728 12.1101 3.74034C11.927 3.92341 11.6302 3.92341 11.4472 3.74034C11.2641 3.55728 11.2641 3.2605 11.4472 3.07744ZM3.88994 3.07744C4.073 2.89437 4.36978 2.89437 4.55284 3.07744C4.73591 3.2605 4.73591 3.55728 4.55284 3.74034C4.36978 3.92341 4.073 3.92341 3.88994 3.74034C3.70687 3.55728 3.70687 3.2605 3.88994 3.07744ZM2.65625 7.65625C2.39737 7.65625 2.1875 7.44637 2.1875 7.1875C2.1875 6.92863 2.39737 6.71875 2.65625 6.71875C2.91512 6.71875 3.125 6.92863 3.125 7.1875C3.125 7.44637 2.91512 7.65625 2.65625 7.65625ZM4.55284 11.2976C4.36978 11.4806 4.073 11.4806 3.88994 11.2976C3.70687 11.1145 3.70687 10.8177 3.88994 10.6347C4.073 10.4516 4.36978 10.4516 4.55284 10.6347C4.73591 10.8177 4.73591 11.1145 4.55284 11.2976ZM8 13C7.74113 13 7.53125 12.7901 7.53125 12.5312C7.53125 12.2724 7.74113 12.0625 8 12.0625C8.25887 12.0625 8.46875 12.2724 8.46875 12.5312C8.46875 12.7901 8.25887 13 8 13ZM12.1101 11.2976C11.927 11.4806 11.6302 11.4806 11.4472 11.2976C11.2641 11.1145 11.2641 10.8177 11.4472 10.6347C11.6302 10.4516 11.927 10.4516 12.1101 10.6347C12.2931 10.8177 12.2931 11.1145 12.1101 11.2976ZM12.4665 7.32288C12.4662 7.33388 12.4657 7.34487 12.4653 7.35588C12.4639 7.39281 12.4621 7.42966 12.4598 7.46637C12.4593 7.47466 12.4588 7.48297 12.4582 7.49125C12.4251 7.98281 12.3121 8.45278 12.1321 8.88841C12.1303 8.89291 12.1285 8.89741 12.1266 8.90191C12.1093 8.9435 12.0915 8.98487 12.0729 9.02581C12.0666 9.03997 12.0598 9.05391 12.0532 9.068C12.043 9.08997 12.0328 9.11194 12.0222 9.13369C12.0097 9.15963 11.9967 9.18538 11.9837 9.21106C11.9805 9.21728 11.9773 9.22347 11.9742 9.22966C11.9409 9.29444 11.9065 9.35872 11.8701 9.42191C11.4784 10.1003 10.9128 10.6659 10.2344 11.0576L10.2313 11.0582C9.57431 11.4384 8.81213 11.6562 8 11.6562C7.18787 11.6562 6.42569 11.4384 5.76869 11.0582L5.76562 11.0576C5.08725 10.6659 4.52162 10.1003 4.12997 9.42188C4.09347 9.35866 4.05913 9.29441 4.02588 9.22962C4.02269 9.22344 4.0195 9.21725 4.01634 9.21103C4.00328 9.18534 3.99038 9.15959 3.97784 9.13366C3.96728 9.11188 3.95703 9.08994 3.94681 9.06797C3.94028 9.05387 3.93347 9.03994 3.92709 9.02578C3.90853 8.98484 3.89078 8.94347 3.87344 8.90187C3.87156 8.89737 3.86975 8.89288 3.86791 8.88838C3.68794 8.45278 3.57497 7.98281 3.54181 7.49122C3.54125 7.48294 3.54075 7.47466 3.54022 7.46634C3.53794 7.42963 3.53612 7.39281 3.53475 7.35584C3.53434 7.34484 3.53384 7.33384 3.5335 7.32284C3.53212 7.27787 3.53125 7.23281 3.53125 7.1875C3.53125 7.14219 3.53212 7.09713 3.53347 7.05212C3.53381 7.04112 3.53431 7.03013 3.53472 7.01912C3.53609 6.98216 3.53791 6.94531 3.54019 6.90859C3.54072 6.90031 3.54119 6.89206 3.54175 6.88378C3.57491 6.39203 3.68794 5.92191 3.868 5.48619C3.86975 5.48194 3.87147 5.47766 3.87325 5.47337C3.89066 5.43162 3.90847 5.39013 3.92709 5.34903C3.93328 5.33534 3.93987 5.32184 3.94619 5.30822C3.95662 5.28578 3.96709 5.26334 3.97787 5.24113C3.99034 5.21534 4.00319 5.18975 4.01616 5.16422C4.01941 5.15784 4.02269 5.15147 4.02597 5.14509C4.05919 5.08041 4.0935 5.01622 4.12994 4.95309C4.52163 4.27469 5.08722 3.70906 5.76559 3.31741L5.76762 3.31737C6.07016 3.14219 6.39519 3.00197 6.73694 2.90106L5.72222 1.10047H10.2777L9.263 2.90103C9.60437 3.00181 9.92906 3.14184 10.2313 3.31675L10.2343 3.31737C10.9127 3.70903 11.4783 4.27466 11.87 4.95306C11.9065 5.01628 11.9408 5.08053 11.9741 5.14531C11.9773 5.1515 11.9805 5.15769 11.9836 5.16391C11.9967 5.18959 12.0096 5.21534 12.0221 5.24128C12.0327 5.26306 12.0429 5.285 12.0532 5.30697C12.0597 5.32106 12.0665 5.335 12.0729 5.34916C12.0914 5.39009 12.1092 5.43144 12.1265 5.47303C12.1284 5.47756 12.1302 5.48209 12.1321 5.48663C12.312 5.92222 12.425 6.39216 12.4581 6.88372C12.4587 6.892 12.4592 6.90028 12.4597 6.90859C12.462 6.94531 12.4638 6.98212 12.4652 7.01909C12.4656 7.03009 12.4661 7.04109 12.4664 7.05209C12.4679 7.09713 12.4688 7.14219 12.4688 7.1875C12.4688 7.23281 12.4679 7.27787 12.4665 7.32288ZM13.3438 7.65625C13.0849 7.65625 12.875 7.44637 12.875 7.1875C12.875 6.92863 13.0849 6.71875 13.3438 6.71875C13.6026 6.71875 13.8125 6.92863 13.8125 7.1875C13.8125 7.44637 13.6026 7.65625 13.3438 7.65625Z" fill="white"/>
<path d="M12.4298 14.0012C11.1233 14.8543 9.597 15.3124 8.0001 15.3124C6.40319 15.3124 4.87691 14.8543 3.57041 14.0012L2.54541 15.9999H13.4548L12.4298 14.0012Z" fill="white"/>
<path d="M8.78762 3.74512L8.00019 5.1424L7.21275 3.74512C7.02091 3.78902 6.83491 3.84852 6.65625 3.92234L8.00019 6.25012L9.34413 3.92234C9.16547 3.84852 8.97947 3.78902 8.78762 3.74512Z" fill="white"/>
</g>
<defs>
<clipPath id="clip0_1253_18033">
<rect width="16" height="16" fill="white"/>
</clipPath>
</defs>
</svg>
