<svg width="17" height="16" viewBox="0 0 17 16" fill="none" xmlns="http://www.w3.org/2000/svg">
<path d="M6.58969 13.8488V11.8103C6.58969 11.29 7.01462 10.8681 7.53879 10.8681H9.45491C9.70663 10.8681 9.94804 10.9674 10.126 11.1441C10.304 11.3208 10.404 11.5604 10.404 11.8103V13.8488C10.4024 14.0652 10.4879 14.2732 10.6414 14.4267C10.795 14.5802 11.0039 14.6666 11.2218 14.6666H12.5291C13.1396 14.6682 13.7257 14.4285 14.1579 14.0005C14.5902 13.5724 14.8332 12.9912 14.8332 12.3851V6.57782C14.8332 6.08823 14.6145 5.62381 14.2362 5.3097L9.78919 1.78383C9.01561 1.16563 7.90725 1.18559 7.15676 1.83124L2.81118 5.3097C2.415 5.61455 2.17821 6.08034 2.1665 6.57782V12.3792C2.1665 13.6425 3.19809 14.6666 4.47062 14.6666H5.74803C6.20065 14.6666 6.5685 14.3041 6.57178 13.8547L6.58969 13.8488Z" fill="#0073FF"/>
</svg>
