<svg width="16" height="16" viewBox="0 0 16 16" fill="none" xmlns="http://www.w3.org/2000/svg">
<path fill-rule="evenodd" clip-rule="evenodd" d="M8.00016 14.6668C4.32016 14.6668 1.3335 11.6868 1.3335 8.00016C1.3335 4.32016 4.32016 1.3335 8.00016 1.3335C11.6868 1.3335 14.6668 4.32016 14.6668 8.00016C14.6668 11.6868 11.6868 14.6668 8.00016 14.6668ZM10.1268 10.4735C10.2068 10.5202 10.2935 10.5468 10.3868 10.5468C10.5535 10.5468 10.7202 10.4602 10.8135 10.3002C10.9535 10.0668 10.8802 9.76016 10.6402 9.6135L8.26683 8.20016V5.12016C8.26683 4.84016 8.04016 4.62016 7.76683 4.62016C7.4935 4.62016 7.26683 4.84016 7.26683 5.12016V8.48683C7.26683 8.66016 7.36016 8.82016 7.5135 8.9135L10.1268 10.4735Z" fill="#0073FF"/>
</svg>
