<svg width="10" height="10" viewBox="0 0 10 10" fill="none" xmlns="http://www.w3.org/2000/svg">
<mask id="mask0_1733_8923" style="mask-type:alpha" maskUnits="userSpaceOnUse" x="1" y="1" width="8" height="8">
<path fill-rule="evenodd" clip-rule="evenodd" d="M1.00049 1H8.98169V8.98156H1.00049V1Z" fill="white"/>
</mask>
<g mask="url(#mask0_1733_8923)">
<path fill-rule="evenodd" clip-rule="evenodd" d="M3.26079 1.6C2.25239 1.6 1.60039 2.2916 1.60039 3.3616V6.62C1.60039 7.6904 2.25239 8.3816 3.26079 8.3816H6.71919C7.72919 8.3816 8.38159 7.6904 8.38159 6.62V3.3616C8.38239 2.8164 8.21599 2.3612 7.90079 2.0456C7.60959 1.754 7.20199 1.6 6.72119 1.6H3.26079ZM6.71929 8.9816H3.26089C1.90889 8.9816 1.00049 8.0324 1.00049 6.62V3.3616C1.00049 1.9492 1.90889 1 3.26089 1H6.72129C7.36449 1 7.91929 1.2148 8.32529 1.6216C8.74969 2.0464 8.98249 2.6644 8.98169 3.362V6.62C8.98169 8.0324 8.07249 8.9816 6.71929 8.9816V8.9816Z" fill="#0073FF"/>
</g>
<path fill-rule="evenodd" clip-rule="evenodd" d="M3.74318 3.27578C3.50158 3.27578 3.30518 3.47218 3.30518 3.71418C3.30518 3.95578 3.50158 4.15218 3.74358 4.15218C3.98518 4.15218 4.18198 3.95578 4.18198 3.71458C4.18158 3.47258 3.98478 3.27618 3.74318 3.27578ZM3.74348 4.75218C3.17068 4.75218 2.70508 4.28658 2.70508 3.71418C2.70508 3.14138 3.17068 2.67578 3.74348 2.67578C4.31588 2.67618 4.78148 3.14178 4.78188 3.71378V3.71418C4.78188 4.28658 4.31628 4.75218 3.74348 4.75218Z" fill="#0073FF"/>
<path fill-rule="evenodd" clip-rule="evenodd" d="M1.69996 8.24402C1.65036 8.24402 1.59996 8.23162 1.55356 8.20562C1.40876 8.12442 1.35796 7.94162 1.43876 7.79722C1.46276 7.75402 2.03676 6.73922 2.66836 6.21922C3.16916 5.80722 3.70836 6.03362 4.14276 6.21642C4.39836 6.32402 4.63996 6.42562 4.87196 6.42562C5.08476 6.42562 5.35156 6.04962 5.58756 5.71802C5.91516 5.25562 6.28716 4.73242 6.83196 4.73242C7.69996 4.73242 8.44916 5.50682 8.85196 5.92282L8.89836 5.97082C9.01356 6.08962 9.01076 6.27962 8.89196 6.39522C8.77396 6.51082 8.58396 6.50802 8.46796 6.38882L8.42076 6.34002C8.07996 5.98762 7.44556 5.33242 6.83196 5.33242C6.59676 5.33242 6.32076 5.72162 6.07636 6.06522C5.74116 6.53722 5.39436 7.02562 4.87196 7.02562C4.51876 7.02562 4.19516 6.88962 3.90996 6.76922C3.45636 6.57802 3.25076 6.51682 3.04956 6.68242C2.50396 7.13202 1.96716 8.08162 1.96196 8.09082C1.90716 8.18882 1.80516 8.24402 1.69996 8.24402Z" fill="#0073FF"/>
</svg>
