<svg width="16" height="16" viewBox="0 0 16 16" fill="none" xmlns="http://www.w3.org/2000/svg">
<mask id="mask0_912_1145" style="mask-type:alpha" maskUnits="userSpaceOnUse" x="2" y="1" width="12" height="14">
<path fill-rule="evenodd" clip-rule="evenodd" d="M2.66699 1.33362H13.9782V14.904H2.66699V1.33362Z" fill="white"/>
</mask>
<g mask="url(#mask0_912_1145)">
<path fill-rule="evenodd" clip-rule="evenodd" d="M8.3226 2.33337C7.75727 2.33337 4.1906 3.58937 3.77927 3.93271C3.65794 4.05471 3.65327 4.26671 3.67927 5.68604C3.69127 6.37004 3.70794 7.29937 3.70794 8.58604C3.70794 12.0534 7.5226 13.5927 8.32194 13.876C9.1206 13.5914 12.9373 12.0434 12.9373 8.58604C12.9373 7.29804 12.9539 6.36804 12.9666 5.68404C12.9919 4.26604 12.9873 4.05404 12.8586 3.92604C12.4553 3.58937 8.88794 2.33337 8.3226 2.33337ZM8.3226 14.904C8.27394 14.904 8.22527 14.8974 8.17794 14.8827C7.9546 14.8154 2.70794 13.174 2.70794 8.58604C2.70794 7.30804 2.69127 6.38337 2.67927 5.70471C2.6486 4.00937 2.64194 3.65604 3.07994 3.21871C3.60327 2.69404 7.5666 1.33337 8.3226 1.33337C9.07794 1.33337 13.0413 2.69404 13.5659 3.21871C14.0033 3.65604 13.9966 4.00937 13.9659 5.70271C13.9539 6.38137 13.9373 7.30604 13.9373 8.58604C13.9373 13.174 8.6906 14.8154 8.46727 14.8827C8.41994 14.8974 8.37127 14.904 8.3226 14.904Z" fill="#0073FF"/>
</g>
<path fill-rule="evenodd" clip-rule="evenodd" d="M7.85158 9.67967C7.71892 9.67967 7.59158 9.627 7.49758 9.533L6.23625 8.27033C6.04158 8.075 6.04158 7.75767 6.23692 7.563C6.43158 7.36767 6.74892 7.36767 6.94425 7.563L7.85158 8.47167L10.0969 6.22633C10.2922 6.031 10.6082 6.031 10.8036 6.22633C10.9989 6.42167 10.9989 6.73833 10.8036 6.93367L8.20492 9.533C8.11158 9.627 7.98425 9.67967 7.85158 9.67967Z" fill="#0073FF"/>
</svg>
