<svg width="16" height="16" viewBox="0 0 16 16" fill="none" xmlns="http://www.w3.org/2000/svg">
<mask id="mask0_1024_1212" style="mask-type:alpha" maskUnits="userSpaceOnUse" x="1" y="1" width="14" height="14">
<path fill-rule="evenodd" clip-rule="evenodd" d="M1.3335 1.33337H14.6668V14.6667H1.3335V1.33337Z" fill="white"/>
</mask>
<g mask="url(#mask0_1024_1212)">
<path fill-rule="evenodd" clip-rule="evenodd" d="M5.1095 2.33337C3.4235 2.33337 2.3335 3.48871 2.3335 5.27737V10.7227C2.3335 12.5114 3.4235 13.6667 5.1095 13.6667H10.8882C12.5762 13.6667 13.6668 12.5114 13.6668 10.7227V5.27737C13.6668 3.48871 12.5762 2.33337 10.8895 2.33337H5.1095ZM10.8882 14.6667H5.1095C2.85083 14.6667 1.3335 13.0814 1.3335 10.7227V5.27737C1.3335 2.91871 2.85083 1.33337 5.1095 1.33337H10.8895C13.1488 1.33337 14.6668 2.91871 14.6668 5.27737V10.7227C14.6668 13.0814 13.1488 14.6667 10.8882 14.6667Z" fill="#0073FF"/>
</g>
<path fill-rule="evenodd" clip-rule="evenodd" d="M5.89274 7.26562C5.48607 7.26562 5.15674 7.59496 5.15674 8.00029C5.15674 8.40562 5.48607 8.73496 5.8914 8.73496C6.29607 8.73496 6.62607 8.40562 6.62607 8.00029C6.62607 7.59562 6.29674 7.26629 5.89274 7.26562ZM5.8914 9.73496C4.93474 9.73496 4.15674 8.95629 4.15674 8.00029C4.15674 7.04362 4.93474 6.26562 5.8914 6.26562C6.8494 6.26629 7.62607 7.04429 7.62607 8.00029C7.62607 8.95629 6.84807 9.73496 5.8914 9.73496Z" fill="#0073FF"/>
<path fill-rule="evenodd" clip-rule="evenodd" d="M11.3399 9.73509C11.0639 9.73509 10.8399 9.51109 10.8399 9.23509V8.49976H7.12793C6.85193 8.49976 6.62793 8.27642 6.62793 7.99976C6.62793 7.72376 6.85193 7.49976 7.12793 7.49976H11.3399C11.6159 7.49976 11.8399 7.72376 11.8399 7.99976V9.23509C11.8399 9.51109 11.6159 9.73509 11.3399 9.73509Z" fill="#0073FF"/>
<path fill-rule="evenodd" clip-rule="evenodd" d="M9.45459 9.73509C9.17859 9.73509 8.95459 9.51109 8.95459 9.23509V7.99976C8.95459 7.72376 9.17859 7.49976 9.45459 7.49976C9.73059 7.49976 9.95459 7.72376 9.95459 7.99976V9.23509C9.95459 9.51109 9.73059 9.73509 9.45459 9.73509Z" fill="#0073FF"/>
</svg>
