<svg width="20" height="20" viewBox="0 0 20 20" fill="none" xmlns="http://www.w3.org/2000/svg">
<path fill-rule="evenodd" clip-rule="evenodd" d="M10 2.91667C6.09416 2.91667 2.91666 6.09417 2.91666 10C2.91666 13.9058 6.09416 17.0833 10 17.0833C13.9058 17.0833 17.0833 13.9058 17.0833 10C17.0833 6.09417 13.9058 2.91667 10 2.91667M10 18.3333C5.405 18.3333 1.66666 14.595 1.66666 10C1.66666 5.405 5.405 1.66667 10 1.66667C14.595 1.66667 18.3333 5.405 18.3333 10C18.3333 14.595 14.595 18.3333 10 18.3333" fill="#092249"/>
<path fill-rule="evenodd" clip-rule="evenodd" d="M11.202 13.5173C11.0428 13.5173 10.8828 13.4564 10.7612 13.3348L7.85533 10.4431C7.73783 10.3256 7.672 10.1664 7.672 9.99975C7.672 9.83392 7.73783 9.67475 7.85533 9.55725L10.7612 6.66475C11.0053 6.42142 11.4003 6.42142 11.6445 6.66642C11.8887 6.91142 11.887 7.30725 11.6428 7.55058L9.18283 9.99975L11.6428 12.4498C11.887 12.6931 11.8887 13.0881 11.6445 13.3331C11.5228 13.4564 11.362 13.5173 11.202 13.5173" fill="#092249"/>
</svg>
