<svg width="16" height="16" viewBox="0 0 16 16" fill="none" xmlns="http://www.w3.org/2000/svg">
<path fill-rule="evenodd" clip-rule="evenodd" d="M7.9239 1.33325H11.2834C12.9632 1.33325 14.3332 2.66659 14.3332 4.29325V11.7066C14.3332 13.3399 12.9632 14.6666 11.2697 14.6666H7.91701C6.23725 14.6666 4.86039 13.3399 4.86039 11.7133V8.51325H9.12865L8.02716 9.57992C7.82063 9.77992 7.82063 10.1066 8.02716 10.3066C8.13042 10.4066 8.26811 10.4533 8.4058 10.4533C8.5366 10.4533 8.67428 10.4066 8.77755 10.3066L10.7878 8.36659C10.891 8.27325 10.9461 8.13992 10.9461 7.99992C10.9461 7.86659 10.891 7.73325 10.7878 7.63992L8.77755 5.69992C8.57102 5.49992 8.23369 5.49992 8.02716 5.69992C7.82063 5.89992 7.82063 6.22659 8.02716 6.42659L9.12865 7.48659H4.86039V4.29992C4.86039 2.66659 6.23725 1.33325 7.9239 1.33325ZM1.6665 7.99985C1.6665 7.71985 1.90332 7.48652 2.18751 7.48652H4.86019V8.51319H2.18751C1.90332 8.51319 1.6665 8.28652 1.6665 7.99985Z" fill="white"/>
</svg>
