<svg width="20" height="20" viewBox="0 0 20 20" fill="none" xmlns="http://www.w3.org/2000/svg">
<path fill-rule="evenodd" clip-rule="evenodd" d="M10 2.91666C13.9058 2.91666 17.0833 6.09416 17.0833 10C17.0833 13.9058 13.9058 17.0833 10 17.0833C6.09417 17.0833 2.91667 13.9058 2.91667 10C2.91667 6.09416 6.09417 2.91666 10 2.91666M10 18.3333C14.595 18.3333 18.3333 14.595 18.3333 10C18.3333 5.405 14.595 1.66666 10 1.66666C5.405 1.66666 1.66667 5.405 1.66667 10C1.66667 14.595 5.405 18.3333 10 18.3333" fill="#ACACAC"/>
<path fill-rule="evenodd" clip-rule="evenodd" d="M11.2012 13.5172C11.3612 13.5172 11.522 13.4564 11.6437 13.3331C11.887 13.0881 11.8862 12.6931 11.642 12.4497L9.18201 9.99974L11.642 7.55058C11.8862 7.30724 11.887 6.91141 11.6437 6.66641C11.4003 6.42058 11.0053 6.42224 10.7603 6.66474L7.85534 9.55724C7.73784 9.67474 7.67201 9.83391 7.67201 9.99974C7.67201 10.1664 7.73784 10.3256 7.85534 10.4431L10.7603 13.3347C10.882 13.4564 11.042 13.5172 11.2012 13.5172" fill="#ACACAC"/>
</svg>
