<svg width="16" height="16" viewBox="0 0 16 16" fill="none" xmlns="http://www.w3.org/2000/svg">
<path fill-rule="evenodd" clip-rule="evenodd" d="M7.85116 8.97662C7.40516 8.97662 6.96049 8.82928 6.58849 8.53462L3.59849 6.12395C3.38316 5.95062 3.34982 5.63528 3.52249 5.42062C3.69649 5.20662 4.01116 5.17262 4.22582 5.34528L7.21316 7.75328C7.58849 8.05062 8.11716 8.05062 8.49516 7.75062L11.4525 5.34662C11.6672 5.17128 11.9818 5.20462 12.1565 5.41928C12.3305 5.63328 12.2978 5.94795 12.0838 6.12262L9.12116 8.53062C8.74649 8.82795 8.29849 8.97662 7.85116 8.97662Z" fill="#0073FF"/>
<mask id="mask0_912_1169" style="mask-type:alpha" maskUnits="userSpaceOnUse" x="0" y="1" width="15" height="14">
<path fill-rule="evenodd" clip-rule="evenodd" d="M0.666504 1.33337H14.9998V14.3334H0.666504V1.33337Z" fill="white"/>
</mask>
<g mask="url(#mask0_912_1169)">
<path fill-rule="evenodd" clip-rule="evenodd" d="M4.55917 13.3334H11.1058C11.1072 13.332 11.1125 13.3334 11.1165 13.3334C11.8772 13.3334 12.5518 13.0614 13.0692 12.5447C13.6698 11.9467 13.9998 11.0874 13.9998 10.1254V5.54671C13.9998 3.68471 12.7825 2.33337 11.1058 2.33337H4.5605C2.88384 2.33337 1.6665 3.68471 1.6665 5.54671V10.1254C1.6665 11.0874 1.99717 11.9467 2.59717 12.5447C3.1145 13.0614 3.78984 13.3334 4.54984 13.3334H4.55917ZM4.54784 14.3334C3.51917 14.3334 2.6005 13.96 1.89117 13.2534C1.10117 12.4654 0.666504 11.3547 0.666504 10.1254V5.54671C0.666504 3.14471 2.3405 1.33337 4.5605 1.33337H11.1058C13.3258 1.33337 14.9998 3.14471 14.9998 5.54671V10.1254C14.9998 11.3547 14.5652 12.4654 13.7752 13.2534C13.0665 13.9594 12.1472 14.3334 11.1165 14.3334H11.1058H4.5605H4.54784Z" fill="#0073FF"/>
</g>
</svg>
