<svg width="24" height="24" viewBox="0 0 24 24" fill="none" xmlns="http://www.w3.org/2000/svg">
<circle cx="12" cy="12" r="12" fill="url(#paint0_linear_1024_6009)"/>
<path d="M6.6665 11.8171C6.6665 11.564 6.85461 11.3548 7.09866 11.3217L7.1665 11.3171H17.1665C17.4426 11.3171 17.6665 11.541 17.6665 11.8171C17.6665 12.0703 17.4784 12.2795 17.2344 12.3126L17.1665 12.3171H7.1665C6.89036 12.3171 6.6665 12.0933 6.6665 11.8171Z" fill="white"/>
<path d="M12.7805 8.15514C12.5848 7.9603 12.5841 7.64372 12.779 7.44804C12.9561 7.27015 13.2339 7.25341 13.4299 7.39822L13.4861 7.44652L17.5194 11.4625C17.6978 11.6402 17.7141 11.9189 17.5681 12.115L17.5195 12.1711L13.4861 16.1878C13.2905 16.3826 12.9739 16.382 12.779 16.1863C12.6019 16.0084 12.5863 15.7306 12.732 15.5352L12.7805 15.4792L16.4578 11.8166L12.7805 8.15514Z" fill="white"/>
<defs>
<linearGradient id="paint0_linear_1024_6009" x1="12.8" y1="22" x2="12.8" y2="1.8" gradientUnits="userSpaceOnUse">
<stop stop-color="#C72114"/>
<stop offset="1" stop-color="#F5493A"/>
</linearGradient>
</defs>
</svg>
