<svg width="32" height="32" viewBox="0 0 32 32" fill="none" xmlns="http://www.w3.org/2000/svg">
<circle cx="16" cy="16" r="16" fill="#FAFAFA"/>
<circle cx="16" cy="16" r="15.5" stroke="#AEB9C7" stroke-opacity="0.2"/>
<path fill-rule="evenodd" clip-rule="evenodd" d="M21.0303 13.5972C21.0303 14.5392 21.2793 15.0944 21.8271 15.7342C22.2423 16.2055 22.375 16.8106 22.375 17.467C22.375 18.1227 22.1596 18.7451 21.728 19.2504C21.163 19.8563 20.3662 20.243 19.5529 20.3102C18.3745 20.4107 17.1952 20.4953 16.0004 20.4953C14.8048 20.4953 13.6263 20.4447 12.4478 20.3102C11.6338 20.243 10.837 19.8563 10.2727 19.2504C9.84116 18.7451 9.625 18.1227 9.625 17.467C9.625 16.8106 9.75843 16.2055 10.1729 15.7342C10.7379 15.0944 10.9704 14.5392 10.9704 13.5972V13.2777C10.9704 12.0163 11.285 11.1914 11.9327 10.3839C12.8958 9.20627 14.4395 8.5 15.9668 8.5H16.0339C17.594 8.5 19.1877 9.24026 20.1343 10.4685C20.7485 11.2594 21.0303 12.0495 21.0303 13.2777V13.5972ZM13.8053 22.0456C13.8053 21.6679 14.1519 21.495 14.4724 21.4209C14.8473 21.3416 17.132 21.3416 17.5069 21.4209C17.8274 21.495 18.174 21.6679 18.174 22.0456C18.1554 22.4052 17.9444 22.7239 17.653 22.9264C17.2751 23.221 16.8316 23.4076 16.3679 23.4748C16.1115 23.508 15.8596 23.5088 15.6121 23.4748C15.1477 23.4076 14.7042 23.221 14.327 22.9256C14.0348 22.7239 13.8239 22.4052 13.8053 22.0456Z" fill="#0073FF"/>
</svg>
