<svg width="16" height="16" viewBox="0 0 16 16" fill="none" xmlns="http://www.w3.org/2000/svg">
<path d="M7 12C6.72386 12 6.5 12.2239 6.5 12.5C6.5 12.7761 6.72386 13 7 13H9C9.27614 13 9.5 12.7761 9.5 12.5C9.5 12.2239 9.27614 12 9 12H7Z" fill="#0073FF"/>
<path fill-rule="evenodd" clip-rule="evenodd" d="M5 0C3.89543 0 3 0.895431 3 2V14C3 15.1046 3.89543 16 5 16H11C12.1046 16 13 15.1046 13 14V2C13 0.89543 12.1046 0 11 0H5ZM4 2C4 1.44772 4.44772 1 5 1H11C11.5523 1 12 1.44772 12 2V14C12 14.5523 11.5523 15 11 15H5C4.44772 15 4 14.5523 4 14V2Z" fill="#0073FF"/>
</svg>
