<svg width="20" height="20" viewBox="0 0 20 20" fill="none" xmlns="http://www.w3.org/2000/svg">
<path d="M6.875 18.1245H13.125" stroke="white" stroke-width="1.2" stroke-linecap="round" stroke-linejoin="round"/>
<path d="M10 18.126V13.126" stroke="white" stroke-width="1.2" stroke-linecap="round" stroke-linejoin="round"/>
<path d="M15.0001 8.75C15.0001 6.77187 14.997 3.49102 14.9954 2.5C14.9954 2.33424 14.9296 2.17527 14.8123 2.05806C14.6951 1.94085 14.5362 1.875 14.3704 1.875L5.62861 1.88516C5.46319 1.88516 5.30451 1.95074 5.18736 2.06752C5.07021 2.18431 5.00413 2.34278 5.00361 2.5082C5.00361 3.70273 4.99854 7.5539 4.99854 8.75C4.99854 11.2609 8.24072 13.125 9.99853 13.125C11.7563 13.125 15.0001 11.2609 15.0001 8.75Z" stroke="white" stroke-width="1.2" stroke-linecap="round" stroke-linejoin="round"/>
<path d="M5 3.74854H1.875V4.37354C1.875 6.53057 3.18555 8.74854 5 8.74854" stroke="white" stroke-width="1.2" stroke-linecap="round" stroke-linejoin="round"/>
<path d="M15 3.74854H18.125V4.37354C18.125 6.53057 16.8145 8.74854 15 8.74854" stroke="white" stroke-width="1.2" stroke-linecap="round" stroke-linejoin="round"/>
</svg>
