<svg width="13" height="12" viewBox="0 0 13 12" fill="none" xmlns="http://www.w3.org/2000/svg">
<g clip-path="url(#clip0_812_20719)">
<path d="M4.10596 8.79465L4.76889 9.45755L6.03116 8.19528V11.9998H6.96866V8.17707L8.24914 9.45755L8.91207 8.79465L6.50903 6.3916L4.10596 8.79465Z" fill="white"/>
<path d="M11.0938 0H1.90625C1.13084 0 0.5 0.630844 0.5 1.40625V7.40625C0.5 8.18166 1.13084 8.8125 1.90625 8.8125H3.17188V7.875H1.90625C1.64778 7.875 1.4375 7.66472 1.4375 7.40625V3.42188H11.5625V7.40625C11.5625 7.66472 11.3522 7.875 11.0938 7.875H9.85156V8.8125H11.0938C11.8692 8.8125 12.5 8.18166 12.5 7.40625V1.40625C12.5 0.630844 11.8692 0 11.0938 0ZM11.5625 2.01562H1.4375V1.40625C1.4375 1.14778 1.64778 0.9375 1.90625 0.9375H11.0938C11.3522 0.9375 11.5625 1.14778 11.5625 1.40625V2.01562Z" fill="white"/>
</g>
<defs>
<clipPath id="clip0_812_20719">
<rect width="12" height="12" fill="white" transform="translate(0.5)"/>
</clipPath>
</defs>
</svg>
