<svg width="25" height="24" viewBox="0 0 25 24" fill="none" xmlns="http://www.w3.org/2000/svg">
<path d="M19.2444 6.02842C18.8697 5.23773 18.3371 4.52713 17.6573 3.9199C16.2762 2.68217 14.4429 2 12.4998 2C10.5568 2 8.72344 2.68217 7.34242 3.91731C6.66261 4.52713 6.13001 5.23514 5.75531 6.02842C5.36456 6.8553 5.1665 7.73127 5.1665 8.63566V9.33333C5.1665 9.49354 5.30032 9.62274 5.46626 9.62274H6.91152C7.07745 9.62274 7.21127 9.49354 7.21127 9.33333V8.63566C7.21127 6.0646 9.58256 3.97416 12.4998 3.97416C15.4171 3.97416 17.7884 6.0646 17.7884 8.63566C17.7884 9.68992 17.4003 10.6822 16.6643 11.509C15.9363 12.3282 14.9086 12.9147 13.7711 13.1628C13.1208 13.3049 12.5346 13.6589 12.1198 14.1654C11.7064 14.6701 11.4811 15.2945 11.4801 15.938V16.7494C11.4801 16.9096 11.6139 17.0388 11.7799 17.0388H13.2251C13.3911 17.0388 13.5249 16.9096 13.5249 16.7494V15.938C13.5249 15.5323 13.8166 15.1757 14.2208 15.0879C15.7838 14.7468 17.2023 13.9328 18.2166 12.7959C18.7278 12.2196 19.1266 11.5788 19.4023 10.8837C19.6886 10.1628 19.8332 9.40568 19.8332 8.63566C19.8332 7.73127 19.6351 6.85271 19.2444 6.02842ZM12.4998 19.1059C11.6728 19.1059 11.0011 19.7545 11.0011 20.553C11.0011 21.3514 11.6728 22 12.4998 22C13.3268 22 13.9986 21.3514 13.9986 20.553C13.9986 19.7545 13.3268 19.1059 12.4998 19.1059Z" fill="#70B3F9"/>
</svg>
