<svg width="60" height="60" viewBox="0 0 60 60" fill="none" xmlns="http://www.w3.org/2000/svg">
<g style="mix-blend-mode:multiply" opacity="0.28" filter="url(#filter0_f_1779_4051)">
<ellipse cx="30" cy="55" rx="18" ry="1" fill="#1324D6"/>
</g>
<circle cx="30" cy="28" r="26" fill="url(#paint0_linear_1779_4051)"/>
<path fill-rule="evenodd" clip-rule="evenodd" d="M35.8913 22.6633C35.8913 25.992 33.2376 28.6611 29.9281 28.6611C26.6186 28.6611 23.965 25.992 23.965 22.6633C23.965 19.3333 26.6186 16.6667 29.9281 16.6667C33.2376 16.6667 35.8913 19.3333 35.8913 22.6633ZM29.9281 39.3334C25.0672 39.3334 20.9167 38.5628 20.9167 35.4803C20.9167 32.3966 25.0406 31.5979 29.9281 31.5979C34.7889 31.5979 38.9394 32.3685 38.9394 35.4523C38.9394 38.5347 34.8155 39.3334 29.9281 39.3334ZM38.4396 22.7715C38.4396 24.4684 37.9334 26.0492 37.0455 27.3633C36.9542 27.4985 37.0354 27.681 37.1964 27.7091C37.4184 27.7473 37.648 27.769 37.8814 27.7754C40.2091 27.8366 42.2983 26.3298 42.8755 24.0614C43.7304 20.6918 41.2201 17.6668 38.0235 17.6668C37.6759 17.6668 37.3436 17.7038 37.0201 17.7701C36.9757 17.7803 36.9288 17.8007 36.9034 17.8403C36.873 17.8888 36.8958 17.9538 36.9263 17.9959C37.8865 19.3496 38.4396 21.0006 38.4396 22.7715ZM42.2944 30.1429C43.8585 30.4504 44.8872 31.0781 45.3134 31.9903C45.6737 32.7393 45.6737 33.6081 45.3134 34.3558C44.6614 35.7707 42.5595 36.2249 41.7426 36.3423C41.5739 36.3678 41.4382 36.2211 41.456 36.0514C41.8733 32.1307 38.5537 30.2717 37.6949 29.8443C37.6581 29.8252 37.6505 29.7958 37.6543 29.778C37.6568 29.7652 37.6721 29.7448 37.7 29.741C39.5583 29.7065 41.5562 29.9617 42.2944 30.1429ZM22.1197 27.7753C22.3531 27.7689 22.5814 27.7485 22.8047 27.7089C22.9658 27.6809 23.0469 27.4984 22.9556 27.3632C22.0677 26.049 21.5615 24.4683 21.5615 22.7714C21.5615 21.0005 22.1146 19.3495 23.0748 17.9958C23.1053 17.9537 23.1269 17.8886 23.0977 17.8402C23.0723 17.8019 23.0241 17.7802 22.981 17.77C22.6562 17.7036 22.3239 17.6666 21.9763 17.6666C18.7798 17.6666 16.2694 20.6917 17.1256 24.0613C17.7028 26.3297 19.792 27.8365 22.1197 27.7753ZM22.346 29.7772C22.3498 29.7964 22.3422 29.8244 22.3067 29.8448C21.4466 30.2723 18.127 32.1312 18.5443 36.0506C18.5621 36.2216 18.4276 36.367 18.2589 36.3428C17.442 36.2254 15.3401 35.7712 14.6881 34.3563C14.3266 33.6074 14.3266 32.7398 14.6881 31.9908C15.1143 31.0786 16.1418 30.4509 17.7059 30.1421C18.4454 29.9622 20.442 29.7071 22.3016 29.7415C22.3295 29.7453 22.3435 29.7657 22.346 29.7772Z" fill="white"/>
<g filter="url(#filter1_d_1779_4051)">
<path d="M9.98049 0C15.7905 0 20.0005 4.74712 20.0005 10.015C20.0005 11.6975 19.5105 13.4301 18.6505 15.0125C18.4905 15.2729 18.4705 15.6034 18.5805 15.9139L19.2505 18.1572C19.4005 18.698 18.9405 19.0986 18.4305 18.9384L16.4105 18.3375C15.8605 18.1572 15.4305 18.3876 14.9195 18.698C13.4595 19.5593 11.6405 20 10.0005 20C5.04049 20 0.000488281 16.1642 0.000488281 9.98498C0.000488281 4.65699 4.30049 0 9.98049 0Z" fill="#17A8FF"/>
</g>
<g filter="url(#filter2_d_1779_4051)">
<path fill-rule="evenodd" clip-rule="evenodd" d="M14.8999 8.33513L15.32 8.75513C15.6526 9.0818 15.8335 9.52513 15.8335 9.9918C15.8394 10.4585 15.6585 10.9024 15.3317 11.2343C15.3278 11.2386 15.3239 11.2423 15.32 11.2461C15.3181 11.248 15.3161 11.2499 15.3142 11.2518L14.8999 11.666C14.7365 11.8293 14.6431 12.051 14.6431 12.2849V12.8851C14.6431 13.8535 13.8553 14.6415 12.8866 14.6415H12.2856C12.0522 14.6415 11.8304 14.7343 11.667 14.8976L11.2469 15.3176C10.9026 15.6624 10.4532 15.831 10.0039 15.831C9.55458 15.831 9.10525 15.6624 8.76096 15.324L8.33497 14.8976C8.17158 14.7343 7.94983 14.6415 7.71641 14.6415H7.11536C6.14668 14.6415 5.35889 13.8535 5.35889 12.8851V12.2849C5.35889 12.051 5.26552 11.8293 5.10213 11.6601L4.68198 11.246C3.99923 10.564 3.9934 9.4493 4.67614 8.76155L5.10213 8.33513C5.26552 8.1718 5.35889 7.95013 5.35889 7.71096V7.11596C5.35889 6.14763 6.14668 5.36071 7.11536 5.36071H7.71641C7.94983 5.36071 8.17158 5.2668 8.33497 5.10346L8.75512 4.68346C9.43787 3.99571 10.5524 3.99571 11.241 4.67821L11.667 5.10346C11.8304 5.2668 12.0522 5.36071 12.2856 5.36071H12.8866C13.8553 5.36071 14.6431 6.14763 14.6431 7.11596V7.71738C14.6431 7.95013 14.7365 8.1718 14.8999 8.33513ZM8.49812 12.0101C8.63817 12.0101 8.76655 11.9576 8.85992 11.8584L11.8593 8.86066C12.0577 8.66232 12.0577 8.33507 11.8593 8.13674C11.6609 7.93899 11.34 7.93899 11.1416 8.13674L8.14216 11.1351C7.94375 11.3334 7.94375 11.6601 8.14216 11.8584C8.23552 11.9576 8.3639 12.0101 8.49812 12.0101ZM10.9901 11.4967C10.9901 11.7826 11.2177 12.0101 11.5036 12.0101C11.7837 12.0101 12.0113 11.7826 12.0113 11.4967C12.0113 11.2173 11.7837 10.9892 11.5036 10.9892C11.2177 10.9892 10.9901 11.2173 10.9901 11.4967ZM8.50398 7.99095C8.78408 7.99095 9.01166 8.21845 9.01166 8.49845C9.01166 8.78487 8.78408 9.01178 8.50398 9.01178C8.22388 9.01178 7.99046 8.78487 7.99046 8.49845C7.99046 8.21845 8.22388 7.99095 8.50398 7.99095Z" fill="white"/>
</g>
<defs>
<filter id="filter0_f_1779_4051" x="8" y="50" width="44" height="10" filterUnits="userSpaceOnUse" color-interpolation-filters="sRGB">
<feFlood flood-opacity="0" result="BackgroundImageFix"/>
<feBlend mode="normal" in="SourceGraphic" in2="BackgroundImageFix" result="shape"/>
<feGaussianBlur stdDeviation="2" result="effect1_foregroundBlur_1779_4051"/>
</filter>
<filter id="filter1_d_1779_4051" x="0.000488281" y="0" width="20" height="20.5093" filterUnits="userSpaceOnUse" color-interpolation-filters="sRGB">
<feFlood flood-opacity="0" result="BackgroundImageFix"/>
<feColorMatrix in="SourceAlpha" type="matrix" values="0 0 0 0 0 0 0 0 0 0 0 0 0 0 0 0 0 0 127 0" result="hardAlpha"/>
<feOffset dy="0.509259"/>
<feComposite in2="hardAlpha" operator="out"/>
<feColorMatrix type="matrix" values="0 0 0 0 0.133333 0 0 0 0 0.133333 0 0 0 0 0.133333 0 0 0 0.24 0"/>
<feBlend mode="normal" in2="BackgroundImageFix" result="effect1_dropShadow_1779_4051"/>
<feBlend mode="normal" in="SourceGraphic" in2="effect1_dropShadow_1779_4051" result="shape"/>
</filter>
<filter id="filter2_d_1779_4051" x="3.00049" y="3" width="14.5556" height="14.5556" filterUnits="userSpaceOnUse" color-interpolation-filters="sRGB">
<feFlood flood-opacity="0" result="BackgroundImageFix"/>
<feColorMatrix in="SourceAlpha" type="matrix" values="0 0 0 0 0 0 0 0 0 0 0 0 0 0 0 0 0 0 127 0" result="hardAlpha"/>
<feOffset dx="0.555556" dy="0.555556"/>
<feComposite in2="hardAlpha" operator="out"/>
<feColorMatrix type="matrix" values="0 0 0 0 0 0 0 0 0 0 0 0 0 0 0 0 0 0 0.2 0"/>
<feBlend mode="normal" in2="BackgroundImageFix" result="effect1_dropShadow_1779_4051"/>
<feBlend mode="normal" in="SourceGraphic" in2="effect1_dropShadow_1779_4051" result="shape"/>
</filter>
<linearGradient id="paint0_linear_1779_4051" x1="30" y1="2" x2="30" y2="54" gradientUnits="userSpaceOnUse">
<stop stop-color="#0073FF"/>
<stop offset="0.130208" stop-color="#0073FF"/>
<stop offset="1" stop-color="#141ED2"/>
</linearGradient>
</defs>
</svg>
