<svg width="16" height="16" viewBox="0 0 16 16" fill="none" xmlns="http://www.w3.org/2000/svg">
<path fill-rule="evenodd" clip-rule="evenodd" d="M5.1135 1.33301H10.8935C13.1535 1.33301 14.6668 2.91967 14.6668 5.27967V10.727C14.6668 13.0803 13.1535 14.6663 10.8935 14.6663H5.1135C2.8535 14.6663 1.3335 13.0803 1.3335 10.727V5.27967C1.3335 2.91967 2.8535 1.33301 5.1135 1.33301ZM7.9831 6.20699C7.44596 6.20699 7.00024 5.76013 7.00024 5.21271C7.00024 4.6527 7.44596 4.20699 8.00596 4.20699C8.55453 4.20699 9.00024 4.6527 9.00024 5.21271C9.00024 5.76013 8.55453 6.20699 7.9831 6.20699ZM9.00024 11.4618C9.00024 11.8729 8.55453 12.207 7.99453 12.207C7.44596 12.207 7.00024 11.8729 7.00024 11.4618V7.67594C7.00024 7.26396 7.44596 6.9222 7.99453 6.9222C8.55453 6.9222 9.00024 7.26396 9.00024 7.67594V11.4618Z" fill="#0073FF"/>
</svg>
