<svg width="20" height="20" viewBox="0 0 20 20" fill="none" xmlns="http://www.w3.org/2000/svg">
<path fill-rule="evenodd" clip-rule="evenodd" d="M10 2.91667C13.9058 2.91667 17.0833 6.09417 17.0833 10C17.0833 13.9058 13.9058 17.0833 10 17.0833C6.09417 17.0833 2.91667 13.9058 2.91667 10C2.91667 6.09417 6.09417 2.91667 10 2.91667M10 18.3333C14.595 18.3333 18.3333 14.595 18.3333 10C18.3333 5.405 14.595 1.66667 10 1.66667C5.405 1.66667 1.66667 5.405 1.66667 10C1.66667 14.595 5.405 18.3333 10 18.3333" fill="#092249"/>
<path fill-rule="evenodd" clip-rule="evenodd" d="M8.798 13.5173C8.95717 13.5173 9.11717 13.4564 9.23884 13.3348L12.1447 10.4431C12.2622 10.3256 12.328 10.1664 12.328 9.99975C12.328 9.83392 12.2622 9.67475 12.1447 9.55725L9.23884 6.66475C8.99467 6.42142 8.59967 6.42142 8.3555 6.66642C8.11134 6.91142 8.113 7.30725 8.35717 7.55058L10.8172 9.99975L8.35717 12.4498C8.113 12.6931 8.11134 13.0881 8.3555 13.3331C8.47717 13.4564 8.638 13.5173 8.798 13.5173" fill="#092249"/>
</svg>
