<svg width="32" height="32" viewBox="0 0 32 32" fill="none" xmlns="http://www.w3.org/2000/svg">
<circle cx="16" cy="16" r="16" fill="#FAFAFA"/>
<circle cx="16" cy="16" r="15.5" stroke="#AEB9C7" stroke-opacity="0.2"/>
<path d="M12.8081 20.7265L13.692 21.6104L15.375 19.9274V25.0001H16.625V19.9031L18.3324 21.6104L19.2163 20.7265L16.0122 17.5225L12.8081 20.7265Z" fill="#C82215"/>
<path d="M22.125 9H9.875C8.84113 9 8 9.84113 8 10.875V18.875C8 19.9089 8.84113 20.75 9.875 20.75H11.5625V19.5H9.875C9.53038 19.5 9.25 19.2196 9.25 18.875V13.5625H22.75V18.875C22.75 19.2196 22.4696 19.5 22.125 19.5H20.4688V20.75H22.125C23.1589 20.75 24 19.9089 24 18.875V10.875C24 9.84113 23.1589 9 22.125 9ZM22.75 11.6875H9.25V10.875C9.25 10.5304 9.53038 10.25 9.875 10.25H22.125C22.4696 10.25 22.75 10.5304 22.75 10.875V11.6875Z" fill="#C82215"/>
</svg>
