<svg width="20" height="20" viewBox="0 0 20 20" fill="none" xmlns="http://www.w3.org/2000/svg">
<path fill-rule="evenodd" clip-rule="evenodd" d="M10 2.91666C6.09416 2.91666 2.91666 6.09416 2.91666 10C2.91666 13.9058 6.09416 17.0833 10 17.0833C13.9058 17.0833 17.0833 13.9058 17.0833 10C17.0833 6.09416 13.9058 2.91666 10 2.91666M10 18.3333C5.405 18.3333 1.66666 14.595 1.66666 10C1.66666 5.405 5.405 1.66666 10 1.66666C14.595 1.66666 18.3333 5.405 18.3333 10C18.3333 14.595 14.595 18.3333 10 18.3333" fill="#ACACAC"/>
<path fill-rule="evenodd" clip-rule="evenodd" d="M8.79883 13.5172C8.63883 13.5172 8.47799 13.4564 8.35633 13.3331C8.11299 13.0881 8.11383 12.6931 8.35799 12.4497L10.818 9.99974L8.35799 7.55058C8.11383 7.30724 8.11299 6.91141 8.35633 6.66641C8.59966 6.42058 8.99466 6.42224 9.23966 6.66474L12.1447 9.55724C12.2622 9.67474 12.328 9.83391 12.328 9.99974C12.328 10.1664 12.2622 10.3256 12.1447 10.4431L9.23966 13.3347C9.11799 13.4564 8.95799 13.5172 8.79883 13.5172" fill="#ACACAC"/>
</svg>
