<svg width="16" height="16" viewBox="0 0 16 16" fill="none" xmlns="http://www.w3.org/2000/svg">
<circle cx="8" cy="8" r="8" fill="#0073FF" fill-opacity="0.08"/>
<path fill-rule="evenodd" clip-rule="evenodd" d="M11.8889 3.5H11.2223V4.88537C10.4078 4.04297 9.26505 3.51852 8.00004 3.51852C5.52498 3.51852 3.51855 5.52495 3.51855 8V8.05556H4.18522V8C4.18522 5.89314 5.89317 4.18519 8.00004 4.18519C9.05021 4.18519 10.0011 4.60924 10.6913 5.2963L9.42596 5.2963L9.42596 5.96296L11.8889 5.96296V3.5ZM12.4815 7.94444H11.8148V8C11.8148 10.1069 10.1069 11.8148 8.00004 11.8148C6.94986 11.8148 5.99893 11.3908 5.30877 10.7037H6.57411V10.037H4.11115V12.5H4.77781V11.1146C5.5923 11.957 6.73502 12.4815 8.00004 12.4815C10.4751 12.4815 12.4815 10.4751 12.4815 8V7.94444Z" fill="#0073FF"/>
</svg>
