<svg width="32" height="32" viewBox="0 0 32 32" fill="none" xmlns="http://www.w3.org/2000/svg">
<circle cx="16" cy="16" r="16" fill="#FAFAFA"/>
<circle cx="16" cy="16" r="15.5" stroke="#AEB9C7" stroke-opacity="0.2"/>
<g clip-path="url(#clip0_1848_8313)">
<path d="M12.3792 13.4517C12.2205 13.8035 12.1138 14.1767 12.0625 14.5588H15.0865L13.5754 11.9414C13.063 12.3374 12.6494 12.8554 12.3792 13.4517Z" fill="#0073FF"/>
<path d="M12.0625 15.6133C12.1138 15.9953 12.2205 16.3686 12.3792 16.7204C12.6494 17.3167 13.0629 17.8347 13.5753 18.2307L15.0865 15.6133H12.0625Z" fill="#0073FF"/>
<path d="M16.0002 16.1406L14.4883 18.7594C14.9546 18.952 15.4651 19.0586 16.0002 19.0586C16.5353 19.0586 17.0458 18.952 17.5121 18.7594L16.0002 16.1406Z" fill="#0073FF"/>
<path d="M16.9136 15.6133L18.4247 18.2307C18.9371 17.8347 19.3506 17.3167 19.6209 16.7204C19.7796 16.3686 19.8863 15.9953 19.9376 15.6133H16.9136Z" fill="#0073FF"/>
<path d="M19.6209 13.4517C19.3506 12.8554 18.9371 12.3374 18.4247 11.9414L16.9136 14.5588H19.9376C19.8863 14.1767 19.7795 13.8034 19.6209 13.4517Z" fill="#0073FF"/>
<path d="M15.2427 9.29297L16.0001 10.637L16.7576 9.29297H15.2427Z" fill="#0073FF"/>
<path d="M21.7176 9.3683C20.1904 7.84108 18.1598 7 16 7C13.8402 7 11.8096 7.84108 10.2824 9.3683C8.75514 10.8956 7.91406 12.9261 7.91406 15.0859C7.91406 17.2458 8.75514 19.2763 10.2824 20.8036C11.8096 22.3308 13.8402 23.1719 16 23.1719C18.1598 23.1719 20.1904 22.3308 21.7176 20.8036C23.2449 19.2763 24.0859 17.2458 24.0859 15.0859C24.0859 12.9261 23.2449 10.8956 21.7176 9.3683ZM19.8781 10.4621C20.084 10.2562 20.4179 10.2562 20.6238 10.4621C20.8298 10.6681 20.8298 11.0019 20.6238 11.2079C20.4179 11.4138 20.084 11.4138 19.8781 11.2079C19.6721 11.0019 19.6721 10.6681 19.8781 10.4621ZM11.3762 10.4621C11.5821 10.2562 11.916 10.2562 12.1219 10.4621C12.3279 10.6681 12.3279 11.0019 12.1219 11.2079C11.916 11.4138 11.5821 11.4138 11.3762 11.2079C11.1702 11.0019 11.1702 10.6681 11.3762 10.4621ZM9.98828 15.6133C9.69705 15.6133 9.46094 15.3772 9.46094 15.0859C9.46094 14.7947 9.69705 14.5586 9.98828 14.5586C10.2795 14.5586 10.5156 14.7947 10.5156 15.0859C10.5156 15.3772 10.2795 15.6133 9.98828 15.6133ZM12.1219 19.7098C11.916 19.9157 11.5821 19.9157 11.3762 19.7098C11.1702 19.5038 11.1702 19.1699 11.3762 18.964C11.5821 18.758 11.916 18.758 12.1219 18.964C12.3279 19.1699 12.3279 19.5038 12.1219 19.7098ZM16 21.625C15.7088 21.625 15.4727 21.3889 15.4727 21.0977C15.4727 20.8064 15.7088 20.5703 16 20.5703C16.2912 20.5703 16.5273 20.8064 16.5273 21.0977C16.5273 21.3889 16.2912 21.625 16 21.625ZM20.6238 19.7098C20.4179 19.9157 20.084 19.9157 19.8781 19.7098C19.6721 19.5038 19.6721 19.1699 19.8781 18.964C20.084 18.758 20.4179 18.758 20.6238 18.964C20.8298 19.1699 20.8298 19.5038 20.6238 19.7098ZM21.0248 15.2382C21.0245 15.2506 21.0239 15.263 21.0234 15.2754C21.0219 15.3169 21.0199 15.3584 21.0173 15.3997C21.0167 15.409 21.0162 15.4183 21.0155 15.4277C20.9782 15.9807 20.8511 16.5094 20.6486 16.9995C20.6466 17.0045 20.6445 17.0096 20.6424 17.0146C20.6229 17.0614 20.6029 17.108 20.5821 17.154C20.5749 17.17 20.5672 17.1856 20.5599 17.2015C20.5484 17.2262 20.5368 17.2509 20.525 17.2754C20.5109 17.3046 20.4963 17.3335 20.4816 17.3624C20.4781 17.3694 20.4745 17.3764 20.4709 17.3834C20.4335 17.4562 20.3948 17.5286 20.3538 17.5996C19.9132 18.3629 19.2769 18.9992 18.5137 19.4398L18.5103 19.4405C17.7711 19.8682 16.9136 20.1133 16 20.1133C15.0864 20.1133 14.2289 19.8682 13.4898 19.4405L13.4863 19.4398C12.7232 18.9991 12.0868 18.3628 11.6462 17.5996C11.6052 17.5285 11.5665 17.4562 11.5291 17.3833C11.5255 17.3764 11.5219 17.3694 11.5184 17.3624C11.5037 17.3335 11.4892 17.3045 11.4751 17.2754C11.4632 17.2509 11.4517 17.2262 11.4402 17.2015C11.4328 17.1856 11.4252 17.1699 11.418 17.154C11.3971 17.1079 11.3771 17.0614 11.3576 17.0146C11.3555 17.0095 11.3535 17.0045 11.3514 16.9994C11.1489 16.5094 11.0218 15.9807 10.9845 15.4276C10.9839 15.4183 10.9833 15.409 10.9827 15.3996C10.9802 15.3583 10.9781 15.3169 10.9766 15.2753C10.9761 15.2629 10.9756 15.2506 10.9752 15.2382C10.9736 15.1876 10.9727 15.1369 10.9727 15.0859C10.9727 15.035 10.9736 14.9843 10.9752 14.9336C10.9755 14.9213 10.9761 14.9089 10.9766 14.8965C10.9781 14.8549 10.9801 14.8135 10.9827 14.7722C10.9833 14.7629 10.9838 14.7536 10.9845 14.7443C11.0218 14.191 11.1489 13.6621 11.3515 13.172C11.3535 13.1672 11.3554 13.1624 11.3574 13.1575C11.377 13.1106 11.397 13.0639 11.418 13.0177C11.4249 13.0023 11.4324 12.9871 11.4395 12.9717C11.4512 12.9465 11.463 12.9213 11.4751 12.8963C11.4891 12.8673 11.5036 12.8385 11.5182 12.8097C11.5218 12.8026 11.5255 12.7954 11.5292 12.7882C11.5666 12.7155 11.6052 12.6432 11.6462 12.5722C12.0868 11.809 12.7231 11.1727 13.4863 10.7321L13.4886 10.732C13.8289 10.535 14.1946 10.3772 14.5791 10.2637L13.4375 8.23803H18.5624L17.4209 10.2637C17.8049 10.377 18.1702 10.5346 18.5102 10.7313L18.5136 10.732C19.2768 11.1727 19.9131 11.809 20.3538 12.5722C20.3948 12.6433 20.4334 12.7156 20.4709 12.7885C20.4744 12.7954 20.478 12.8024 20.4816 12.8094C20.4963 12.8383 20.5108 12.8673 20.5249 12.8964C20.5368 12.9209 20.5483 12.9456 20.5598 12.9703C20.5671 12.9862 20.5748 13.0019 20.582 13.0178C20.6029 13.0639 20.6228 13.1104 20.6423 13.1572C20.6444 13.1623 20.6465 13.1674 20.6486 13.1725C20.851 13.6625 20.9781 14.1912 21.0154 14.7442C21.016 14.7535 21.0166 14.7628 21.0172 14.7722C21.0197 14.8135 21.0218 14.8549 21.0233 14.8965C21.0238 14.9089 21.0244 14.9212 21.0247 14.9336C21.0264 14.9843 21.0273 15.035 21.0273 15.0859C21.0273 15.1369 21.0264 15.1876 21.0248 15.2382ZM22.0117 15.6133C21.7205 15.6133 21.4844 15.3772 21.4844 15.0859C21.4844 14.7947 21.7205 14.5586 22.0117 14.5586C22.303 14.5586 22.5391 14.7947 22.5391 15.0859C22.5391 15.3772 22.303 15.6133 22.0117 15.6133Z" fill="#0073FF"/>
<path d="M20.9832 22.752C19.5134 23.7117 17.7963 24.2271 15.9998 24.2271C14.2033 24.2271 12.4862 23.7117 11.0164 22.752L9.86328 25.0005H22.1363L20.9832 22.752Z" fill="#0073FF"/>
<path d="M16.8861 11.2129L16.0002 12.7848L15.1143 11.2129C14.8985 11.2623 14.6893 11.3292 14.4883 11.4123L16.0002 14.031L17.5121 11.4123C17.3112 11.3292 17.1019 11.2623 16.8861 11.2129Z" fill="#0073FF"/>
</g>
<defs>
<clipPath id="clip0_1848_8313">
<rect width="18" height="18" fill="white" transform="translate(7 7)"/>
</clipPath>
</defs>
</svg>
