<svg width="12" height="12" viewBox="0 0 12 12" fill="none" xmlns="http://www.w3.org/2000/svg">
<path fill-rule="evenodd" clip-rule="evenodd" d="M1 5.33496C1 2.94083 2.92017 1 5.28882 1C6.42629 1 7.51716 1.45672 8.32147 2.26968C9.12578 3.08264 9.57764 4.18526 9.57764 5.33496C9.57764 7.7291 7.65747 9.66993 5.28882 9.66993C2.92017 9.66993 1 7.7291 1 5.33496ZM9.50668 8.82714L10.784 9.85821H10.8062C11.0646 10.1194 11.0646 10.5429 10.8062 10.8041C10.5478 11.0653 10.1288 11.0653 9.87036 10.8041L8.81035 9.58923C8.71014 9.4883 8.65382 9.35118 8.65382 9.20819C8.65382 9.06519 8.71014 8.92808 8.81035 8.82714C9.00362 8.63519 9.31341 8.63519 9.50668 8.82714Z" fill="white"/>
</svg>
