<svg width="16" height="16" viewBox="0 0 16 16" fill="none" xmlns="http://www.w3.org/2000/svg">
<path fill-rule="evenodd" clip-rule="evenodd" d="M7.83344 3C7.77277 3 7.62344 3.01667 7.54411 3.17533L6.32677 5.60933C6.13411 5.994 5.76277 6.26133 5.33344 6.32267L2.60811 6.71533C2.42811 6.74133 2.36677 6.87467 2.34811 6.93067C2.33144 6.98467 2.30477 7.122 2.42877 7.24067L4.39944 9.134C4.71344 9.436 4.85611 9.87133 4.78144 10.2973L4.31744 12.9707C4.28877 13.138 4.39344 13.2353 4.44011 13.2687C4.48944 13.306 4.62144 13.38 4.78477 13.2947L7.22144 12.0313C7.60544 11.8333 8.06277 11.8333 8.44544 12.0313L10.8814 13.294C11.0454 13.3787 11.1774 13.3047 11.2274 13.2687C11.2741 13.2353 11.3788 13.138 11.3501 12.9707L10.8848 10.2973C10.8101 9.87133 10.9528 9.436 11.2668 9.134L13.2374 7.24067C13.3621 7.122 13.3354 6.984 13.3181 6.93067C13.3001 6.87467 13.2388 6.74133 13.0588 6.71533L10.3334 6.32267C9.90477 6.26133 9.53344 5.994 9.34077 5.60867L8.12211 3.17533C8.04344 3.01667 7.89411 3 7.83344 3ZM4.63144 14.3333C4.35611 14.3333 4.08277 14.2467 3.84877 14.076C3.44477 13.78 3.24677 13.2913 3.33277 12.7993L3.79677 10.126C3.81411 10.0267 3.78011 9.926 3.70677 9.85533L1.73611 7.962C1.37344 7.61467 1.24344 7.10133 1.39677 6.62467C1.55144 6.14267 1.96077 5.798 2.46544 5.726L5.19077 5.33333C5.29611 5.31867 5.38677 5.254 5.43211 5.162L6.65011 2.72733C6.87477 2.27867 7.32811 2 7.83344 2C8.33877 2 8.79211 2.27867 9.01677 2.72733L10.2354 5.16133C10.2814 5.254 10.3714 5.31867 10.4761 5.33333L13.2014 5.726C13.7061 5.798 14.1154 6.14267 14.2701 6.62467C14.4234 7.10133 14.2928 7.61467 13.9301 7.962L11.9594 9.85533C11.8861 9.926 11.8528 10.0267 11.8701 10.1253L12.3348 12.7993C12.4201 13.292 12.2221 13.7807 11.8174 14.076C11.4074 14.3767 10.8734 14.4173 10.4208 14.1813L7.98544 12.9193C7.89011 12.87 7.77611 12.87 7.68077 12.9193L5.24544 14.182C5.05077 14.2833 4.84077 14.3333 4.63144 14.3333Z" fill="#0073FF"/>
</svg>
