<svg width="20" height="20" viewBox="0 0 20 20" fill="none" xmlns="http://www.w3.org/2000/svg">
<path fill-rule="evenodd" clip-rule="evenodd" d="M6.7478 9.99998C6.7478 11.7778 8.20309 13.2242 9.99984 13.2242C11.7885 13.2242 13.2437 11.7778 13.2437 9.99998C13.2437 8.21412 11.7885 6.76766 9.99984 6.76766C8.20309 6.76766 6.7478 8.21412 6.7478 9.99998ZM14.7803 5.03836C16.2031 6.13735 17.4145 7.74543 18.2844 9.75756C18.3494 9.91109 18.3494 10.0889 18.2844 10.2343C16.5446 14.2586 13.447 16.6666 9.99984 16.6666H9.99171C6.55268 16.6666 3.45512 14.2586 1.71528 10.2343C1.65024 10.0889 1.65024 9.91109 1.71528 9.75756C3.45512 5.73331 6.55268 3.33331 9.99171 3.33331H9.99984C11.7234 3.33331 13.3576 3.93129 14.7803 5.03836ZM10.0008 12.0103C11.1146 12.0103 12.0252 11.1053 12.0252 9.9982C12.0252 8.88305 11.1146 7.978 10.0008 7.978C9.90325 7.978 9.80569 7.98608 9.71626 8.00224C9.68374 8.89113 8.95203 9.60224 8.04959 9.60224H8.00894C7.98455 9.73154 7.96829 9.86083 7.96829 9.9982C7.96829 11.1053 8.87886 12.0103 10.0008 12.0103Z" fill="#AEB9C7"/>
</svg>
