<svg width="16" height="16" viewBox="0 0 16 16" fill="none" xmlns="http://www.w3.org/2000/svg">
<path fill-rule="evenodd" clip-rule="evenodd" d="M5.03095 2.18529C5.14174 2.26526 5.32041 2.44896 5.32041 2.44896C6.01402 3.09905 7.05873 4.71596 7.39423 5.53629C7.40125 5.53629 7.6002 6.02406 7.60801 6.25606V6.28694C7.60801 6.64247 7.40905 6.97504 7.08916 7.14528C6.95729 7.21547 6.63653 7.28074 6.48178 7.31223C6.43053 7.32266 6.39749 7.32939 6.39555 7.33136C5.93834 7.40104 5.23692 7.44696 4.46685 7.44696C3.65854 7.44696 2.9267 7.40104 2.47651 7.31552C2.46871 7.31552 2.05754 7.2308 1.92022 7.17616C1.72204 7.09143 1.5543 6.93624 1.44741 6.74303C1.37095 6.58863 1.3335 6.42551 1.3335 6.25606C1.34052 6.0779 1.45521 5.74533 1.50826 5.61389C1.84376 4.74684 2.94152 3.09113 3.61251 2.45688C3.68221 2.38615 3.76153 2.31204 3.81673 2.26048C3.84618 2.23296 3.86876 2.21187 3.87935 2.20112C4.04709 2.06968 4.25307 2 4.47465 2C4.67205 2 4.87022 2.06176 5.03095 2.18529ZM12.1526 6.77452C12.1526 7.12372 11.874 7.40641 11.53 7.40641C11.1859 7.40641 10.9074 7.12372 10.9074 6.77452L10.7357 3.72197C10.7357 3.27695 11.0915 2.91667 11.53 2.91667C11.9684 2.91667 12.3234 3.27695 12.3234 3.72197L12.1526 6.77452ZM14.0801 8.82373C14.2783 8.90925 14.446 9.06366 14.5529 9.25687C14.6294 9.41127 14.6668 9.57439 14.6668 9.74464C14.6598 9.92201 14.5451 10.2554 14.4913 10.3868C14.1566 11.2531 13.058 12.9088 12.3878 13.5439C12.3193 13.613 12.2414 13.6856 12.1864 13.737L12.1863 13.737C12.1555 13.7657 12.1319 13.7878 12.121 13.7989C11.9525 13.9303 11.7473 14 11.5265 14C11.3275 14 11.1293 13.9382 10.9694 13.8139C10.8586 13.7347 10.6799 13.551 10.6799 13.551C9.98552 12.9017 8.94159 11.284 8.6061 10.4636C8.5983 10.4636 8.40012 9.97665 8.39232 9.74464V9.71376C8.39232 9.35743 8.59049 9.02486 8.91116 8.85461C9.04277 8.78515 9.36251 8.7197 9.51761 8.68795C9.56939 8.67735 9.60282 8.67051 9.60478 8.66853C10.062 8.59885 10.7634 8.55292 11.5335 8.55292C12.3418 8.55292 13.0736 8.59885 13.5238 8.68436C13.5308 8.68436 13.9428 8.76909 14.0801 8.82373ZM4.47052 8.59369C4.12644 8.59369 3.8479 8.87637 3.8479 9.22556L3.67626 12.278C3.67626 12.7231 4.03203 13.0833 4.47052 13.0833C4.909 13.0833 5.264 12.7231 5.264 12.278L5.09313 9.22556C5.09313 8.87637 4.81459 8.59369 4.47052 8.59369Z" fill="#0073FF"/>
</svg>
