<svg width="123" height="16" viewBox="0 0 123 16" fill="none" xmlns="http://www.w3.org/2000/svg">
<path d="M0.5 4C0.5 1.79086 2.29086 0 4.5 0H118.5C120.709 0 122.5 1.79086 122.5 4V12C122.5 14.2091 120.709 16 118.5 16H4.5C2.29086 16 0.5 14.2091 0.5 12V4Z" fill="#00985A" fill-opacity="0.1"/>
<path fill-rule="evenodd" clip-rule="evenodd" d="M12.165 4.26325C11.3592 3.90421 10.4589 3.81526 9.59844 4.00967C8.73796 4.20409 7.96337 4.67145 7.39021 5.34205C6.81704 6.01266 6.476 6.85057 6.41796 7.73083C6.35991 8.61109 6.58797 9.48653 7.06812 10.2266C7.54827 10.9667 8.25478 11.5317 9.08228 11.8374C9.90979 12.1431 10.8139 12.1732 11.6599 11.923C12.5059 11.6729 13.2483 11.156 13.7765 10.4494C14.3047 9.74289 14.5904 8.88451 14.5909 8.00234V7.58442C14.5909 7.33338 14.7944 7.12987 15.0455 7.12987C15.2965 7.12987 15.5 7.33338 15.5 7.58442V8.0026C15.4994 9.08081 15.1502 10.1302 14.5047 10.9938C13.8591 11.8573 12.9516 12.4891 11.9177 12.7948C10.8837 13.1005 9.77863 13.0638 8.76723 12.6901C7.75584 12.3165 6.89233 11.6259 6.30548 10.7214C5.71863 9.81688 5.4399 8.74689 5.51084 7.67102C5.58178 6.59514 5.9986 5.57102 6.69914 4.7514C7.39968 3.93177 8.34639 3.36055 9.39809 3.12293C10.4498 2.88532 11.5501 2.99403 12.535 3.43286C12.7643 3.53503 12.8674 3.80375 12.7652 4.03306C12.663 4.26236 12.3943 4.36542 12.165 4.26325Z" fill="#00985A"/>
<path fill-rule="evenodd" clip-rule="evenodd" d="M15.3665 4.04508C15.5441 4.2225 15.5443 4.51031 15.3668 4.68791L10.8214 9.2379C10.7362 9.32322 10.6205 9.37117 10.4999 9.3712C10.3793 9.37123 10.2637 9.32334 10.1784 9.23806L8.81477 7.87443C8.63726 7.69692 8.63726 7.40911 8.81477 7.2316C8.99228 7.05409 9.28009 7.05409 9.4576 7.2316L10.4997 8.27367L14.7237 4.0454C14.9011 3.8678 15.1889 3.86766 15.3665 4.04508Z" fill="#00985A"/>
<path d="M25.732 8.008V10.664C25.492 10.7867 25.1907 10.8853 24.828 10.96C24.4653 11.0293 24.0973 11.064 23.724 11.064C23.1533 11.064 22.66 10.9493 22.244 10.72C21.828 10.4907 21.5107 10.16 21.292 9.728C21.0733 9.296 20.964 8.77867 20.964 8.176C20.964 7.584 21.0733 7.072 21.292 6.64C21.5107 6.20267 21.8227 5.86933 22.228 5.64C22.6387 5.41067 23.1213 5.296 23.676 5.296C24.076 5.296 24.444 5.35467 24.78 5.472C25.116 5.58933 25.4013 5.76 25.636 5.984L25.34 6.592C25.0733 6.37333 24.8093 6.216 24.548 6.12C24.2867 6.024 23.9987 5.976 23.684 5.976C23.076 5.976 22.6093 6.16533 22.284 6.544C21.964 6.91733 21.804 7.46133 21.804 8.176C21.804 8.90667 21.9693 9.46133 22.3 9.84C22.6307 10.2133 23.1133 10.4 23.748 10.4C24.164 10.4 24.5747 10.3387 24.98 10.216V8.632H23.668V8.008H25.732ZM26.9763 11V5.36H27.8003V11H26.9763ZM33.4211 11L32.8211 9.608H29.9651L29.3651 11H28.5331L31.0451 5.36H31.7331L34.2451 11H33.4211ZM30.2451 8.952H32.5411L31.3971 6.28L30.2451 8.952ZM37.2206 11.064C36.6873 11.064 36.2233 10.9467 35.8286 10.712C35.4393 10.4773 35.138 10.144 34.9246 9.712C34.7113 9.28 34.6046 8.77067 34.6046 8.184C34.6046 7.592 34.7086 7.08 34.9166 6.648C35.13 6.21067 35.434 5.87733 35.8286 5.648C36.2233 5.41333 36.6873 5.296 37.2206 5.296C37.7593 5.296 38.226 5.41333 38.6206 5.648C39.0153 5.87733 39.3166 6.21067 39.5246 6.648C39.738 7.08 39.8446 7.58933 39.8446 8.176C39.8446 8.76267 39.738 9.27467 39.5246 9.712C39.3166 10.144 39.0153 10.4773 38.6206 10.712C38.226 10.9467 37.7593 11.064 37.2206 11.064ZM37.2206 10.392C37.786 10.392 38.226 10.2 38.5406 9.816C38.8553 9.432 39.0126 8.88533 39.0126 8.176C39.0126 7.46667 38.8553 6.92267 38.5406 6.544C38.2313 6.16 37.7913 5.968 37.2206 5.968C36.6606 5.968 36.2233 6.16 35.9086 6.544C35.5993 6.92267 35.4446 7.46667 35.4446 8.176C35.4446 8.88533 35.5993 9.432 35.9086 9.816C36.2233 10.2 36.6606 10.392 37.2206 10.392ZM43.0779 5.36H45.0539C45.9659 5.36 46.6725 5.60533 47.1739 6.096C47.6752 6.58667 47.9259 7.28 47.9259 8.176C47.9259 9.072 47.6752 9.768 47.1739 10.264C46.6725 10.7547 45.9659 11 45.0539 11H43.0779V5.36ZM45.0059 10.312C46.3925 10.312 47.0859 9.6 47.0859 8.176C47.0859 6.75733 46.3925 6.048 45.0059 6.048H43.9019V10.312H45.0059ZM49.0466 11V5.36H49.8706V11H49.0466ZM49.0306 11.688H49.8786V12.496H49.0306V11.688ZM53.6594 11.064C53.1154 11.064 52.6408 10.9467 52.2354 10.712C51.8354 10.4773 51.5261 10.144 51.3074 9.712C51.0941 9.27467 50.9874 8.76267 50.9874 8.176C50.9874 7.58933 51.0941 7.08 51.3074 6.648C51.5261 6.21067 51.8354 5.87733 52.2354 5.648C52.6408 5.41333 53.1154 5.296 53.6594 5.296C54.0434 5.296 54.4008 5.35733 54.7314 5.48C55.0621 5.59733 55.3421 5.768 55.5714 5.992L55.2834 6.6C55.0221 6.38133 54.7608 6.224 54.4994 6.128C54.2434 6.032 53.9661 5.984 53.6674 5.984C53.0808 5.984 52.6274 6.17333 52.3074 6.552C51.9928 6.93067 51.8354 7.472 51.8354 8.176C51.8354 8.88 51.9928 9.424 52.3074 9.808C52.6274 10.1867 53.0808 10.376 53.6674 10.376C53.9661 10.376 54.2434 10.328 54.4994 10.232C54.7608 10.136 55.0221 9.97867 55.2834 9.76L55.5714 10.368C55.3421 10.592 55.0621 10.7653 54.7314 10.888C54.4008 11.0053 54.0434 11.064 53.6594 11.064ZM60.5615 5.36H61.3775V11H60.5615V8.472H57.4095V11H56.5935V5.36H57.4095V7.8H60.5615V5.36ZM66.1406 11V6.048H64.2366V5.36H68.8846V6.048H66.9726V11H66.1406ZM73.6084 5.36H74.4244V11H73.6084V8.472H70.4564V11H69.6404V5.36H70.4564V7.8H73.6084V5.36ZM80.0461 11L79.4461 9.608H76.5901L75.9901 11H75.1581L77.6701 5.36H78.3581L80.8701 11H80.0461ZM76.8701 8.952H79.1661L78.0221 6.28L76.8701 8.952ZM77.7501 4.88L76.6461 3.656H77.4701L78.2781 4.88H77.7501ZM85.4651 5.36H86.2411V11H85.6091L82.3851 6.744V11H81.6091V5.36H82.2331L85.4651 9.624V5.36ZM91.5224 5.36H92.3384V11H91.5224V8.472H88.3704V11H87.5544V5.36H88.3704V7.8H91.5224V5.36ZM98.2376 11.064C97.6936 11.064 97.2189 10.9467 96.8136 10.712C96.4136 10.4773 96.1042 10.144 95.8856 9.712C95.6722 9.27467 95.5656 8.76267 95.5656 8.176C95.5656 7.58933 95.6722 7.08 95.8856 6.648C96.1042 6.21067 96.4136 5.87733 96.8136 5.648C97.2189 5.41333 97.6936 5.296 98.2376 5.296C98.6216 5.296 98.9789 5.35733 99.3096 5.48C99.6402 5.59733 99.9202 5.768 100.15 5.992L99.8616 6.6C99.6002 6.38133 99.3389 6.224 99.0776 6.128C98.8216 6.032 98.5442 5.984 98.2456 5.984C97.6589 5.984 97.2056 6.17333 96.8856 6.552C96.5709 6.93067 96.4136 7.472 96.4136 8.176C96.4136 8.88 96.5709 9.424 96.8856 9.808C97.2056 10.1867 97.6589 10.376 98.2456 10.376C98.5442 10.376 98.8216 10.328 99.0776 10.232C99.3389 10.136 99.6002 9.97867 99.8616 9.76L100.15 10.368C99.9202 10.592 99.6402 10.7653 99.3096 10.888C98.9789 11.0053 98.6216 11.064 98.2376 11.064ZM103.502 11.064C102.969 11.064 102.505 10.9467 102.11 10.712C101.721 10.4773 101.419 10.144 101.206 9.712C100.993 9.28 100.886 8.77067 100.886 8.184C100.886 7.592 100.99 7.08 101.198 6.648C101.411 6.21067 101.715 5.87733 102.11 5.648C102.505 5.41333 102.969 5.296 103.502 5.296C104.041 5.296 104.507 5.41333 104.902 5.648C105.297 5.87733 105.598 6.21067 105.806 6.648C106.019 7.08 106.126 7.58933 106.126 8.176C106.126 8.76267 106.019 9.27467 105.806 9.712C105.598 10.144 105.297 10.4773 104.902 10.712C104.507 10.9467 104.041 11.064 103.502 11.064ZM103.502 10.392C104.067 10.392 104.507 10.2 104.822 9.816C105.137 9.432 105.294 8.88533 105.294 8.176C105.294 7.46667 105.137 6.92267 104.822 6.544C104.513 6.16 104.073 5.968 103.502 5.968C102.942 5.968 102.505 6.16 102.19 6.544C101.881 6.92267 101.726 7.46667 101.726 8.176C101.726 8.88533 101.881 9.432 102.19 9.816C102.505 10.2 102.942 10.392 103.502 10.392ZM102.942 4.88H102.27L103.246 3.656H103.758L104.734 4.88H104.062L103.502 4.096L102.942 4.88ZM111.106 5.36H111.882V11H111.25L108.026 6.744V11H107.25V5.36H107.874L111.106 9.624V5.36ZM117.771 8.008V10.664C117.531 10.7867 117.23 10.8853 116.867 10.96C116.504 11.0293 116.136 11.064 115.763 11.064C115.192 11.064 114.699 10.9493 114.283 10.72C113.867 10.4907 113.55 10.16 113.331 9.728C113.112 9.296 113.003 8.77867 113.003 8.176C113.003 7.584 113.112 7.072 113.331 6.64C113.55 6.20267 113.862 5.86933 114.267 5.64C114.678 5.41067 115.16 5.296 115.715 5.296C116.115 5.296 116.483 5.35467 116.819 5.472C117.155 5.58933 117.44 5.76 117.675 5.984L117.379 6.592C117.112 6.37333 116.848 6.216 116.587 6.12C116.326 6.024 116.038 5.976 115.723 5.976C115.115 5.976 114.648 6.16533 114.323 6.544C114.003 6.91733 113.843 7.46133 113.843 8.176C113.843 8.90667 114.008 9.46133 114.339 9.84C114.67 10.2133 115.152 10.4 115.787 10.4C116.203 10.4 116.614 10.3387 117.019 10.216V8.632H115.707V8.008H117.771Z" fill="#00985A"/>
</svg>
