<svg width="32" height="32" viewBox="0 0 32 32" fill="none" xmlns="http://www.w3.org/2000/svg">
<circle cx="16" cy="16" r="16" fill="#FAFAFA"/>
<circle cx="16" cy="16" r="15.5" stroke="#AEB9C7" stroke-opacity="0.2"/>
<path d="M21.8656 9C22.8686 9 23.2323 9.10443 23.599 9.30052C23.9656 9.49662 24.2534 9.78438 24.4495 10.151C24.6456 10.5177 24.75 10.8814 24.75 11.8844V18.1875C24.75 18.4982 24.4982 18.75 24.1875 18.75C23.8768 18.75 23.625 18.4982 23.625 18.1875V13.8746H9.375V19.1828C9.375 19.653 9.42089 19.8422 9.50742 20.015L9.52526 20.0495C9.62331 20.2328 9.76719 20.3767 9.95052 20.4747C10.1224 20.5667 10.293 20.6183 10.7268 20.6244L10.8172 20.625L22.8289 20.6246L20.7898 18.5852C20.5701 18.3656 20.5701 18.0094 20.7898 17.7898C21.0094 17.5701 21.3656 17.5701 21.5852 17.7898L24.5852 20.7898C24.8049 21.0094 24.8049 21.3656 24.5852 21.5852L21.5852 24.5852C21.3656 24.8049 21.0094 24.8049 20.7898 24.5852C20.5701 24.3656 20.5701 24.0094 20.7898 23.7898L22.8292 21.75H11.1344C10.1314 21.75 9.76772 21.6456 9.40105 21.4495C9.03438 21.2534 8.74662 20.9656 8.55052 20.599C8.35443 20.2323 8.25 19.8686 8.25 18.8656V11.8844C8.25 10.8814 8.35443 10.5177 8.55052 10.151C8.74662 9.78438 9.03438 9.49662 9.40105 9.30052C9.76772 9.10443 10.1314 9 11.1344 9H21.8656ZM22.1828 10.125H10.8172C10.3157 10.125 10.1339 10.1772 9.95052 10.2753C9.76719 10.3733 9.62331 10.5172 9.52526 10.7005C9.43334 10.8724 9.38171 11.043 9.37561 11.4768L9.375 11.5672V12.7496H23.625V11.5672C23.625 11.097 23.5791 10.9078 23.4926 10.735L23.4747 10.7005C23.3767 10.5172 23.2328 10.3733 23.0495 10.2753C22.8661 10.1772 22.6843 10.125 22.1828 10.125Z" fill="#0000FF"/>
</svg>
