<svg width="32" height="32" viewBox="0 0 32 32" fill="none" xmlns="http://www.w3.org/2000/svg">
<circle cx="16" cy="16" r="15.5" fill="#2AABEE" stroke="#2AABEE"/>
<path fill-rule="evenodd" clip-rule="evenodd" d="M6.94112 14.9804C11.6918 12.9106 14.8597 11.5461 16.4448 10.8868C20.9704 9.00441 21.9108 8.67742 22.5238 8.66662C22.6586 8.66424 22.96 8.69765 23.1552 8.85609C23.3201 8.98986 23.3655 9.17057 23.3872 9.29741C23.4089 9.42424 23.4359 9.71318 23.4144 9.93894C23.1692 12.5158 22.108 18.7691 21.5681 21.6552C21.3397 22.8764 20.8899 23.2858 20.4544 23.3259C19.5081 23.413 18.7894 22.7005 17.8728 22.0996C16.4386 21.1595 15.6283 20.5742 14.2361 19.6567C12.6271 18.5965 13.6701 18.0137 14.5871 17.0613C14.827 16.8121 18.9967 13.0195 19.0774 12.6754C19.0875 12.6324 19.0969 12.472 19.0016 12.3873C18.9063 12.3026 18.7657 12.3316 18.6642 12.3546C18.5203 12.3872 16.229 13.9017 11.7903 16.898C11.1399 17.3446 10.5508 17.5622 10.023 17.5508C9.44115 17.5382 8.32188 17.2218 7.48982 16.9513C6.46926 16.6196 5.65814 16.4442 5.72877 15.8808C5.76556 15.5873 6.16968 15.2872 6.94112 14.9804Z" fill="white"/>
</svg>
