<svg width="10" height="10" viewBox="0 0 10 10" fill="none" xmlns="http://www.w3.org/2000/svg">
<path d="M7.17 0H2.835C1.14 0 0 1.19 0 2.96V7.045C0 8.81 1.14 10 2.835 10H7.17C8.865 10 10 8.81 10 7.045V2.96C10 1.19 8.865 0 7.17 0Z" fill="#F5493A"/>
<path d="M4.40648 6.62398C4.29448 6.62398 4.18248 6.58148 4.09698 6.49598L2.91048 5.30948C2.73948 5.13848 2.73948 4.86148 2.91048 4.69098C3.08148 4.51998 3.35798 4.51948 3.52898 4.69048L4.40648 5.56798L6.47048 3.50398C6.64148 3.33298 6.91798 3.33298 7.08898 3.50398C7.25998 3.67498 7.25998 3.95198 7.08898 4.12298L4.71598 6.49598C4.63048 6.58148 4.51848 6.62398 4.40648 6.62398Z" fill="white"/>
</svg>
