<svg width="16" height="16" viewBox="0 0 16 16" fill="none" xmlns="http://www.w3.org/2000/svg">
<path fill-rule="evenodd" clip-rule="evenodd" d="M13.1742 8.00066C13.1742 8.54299 13.6195 8.98426 14.1668 8.98426C14.4428 8.98426 14.6668 9.20621 14.6668 9.47969V11.2639C14.6668 12.7727 13.4282 14 11.9055 14H4.0955C2.57283 14 1.3335 12.7727 1.3335 11.2639V9.47969C1.3335 9.20621 1.5575 8.98426 1.8335 8.98426C2.3815 8.98426 2.82683 8.54299 2.82683 8.00066C2.82683 7.4722 2.3995 7.07453 1.8335 7.07453C1.70083 7.07453 1.57416 7.02235 1.48016 6.92921C1.38616 6.83607 1.3335 6.7099 1.3335 6.5791L1.33483 4.73676C1.33483 3.22801 2.5735 2 4.09616 2H11.9042C13.4268 2 14.6662 3.22801 14.6662 4.73676L14.6668 6.52163C14.6668 6.65243 14.6142 6.77926 14.5208 6.87174C14.4268 6.96488 14.3002 7.01707 14.1668 7.01707C13.6195 7.01707 13.1742 7.45833 13.1742 8.00066ZM9.5015 8.43202L10.2875 7.67368C10.4242 7.54288 10.4715 7.34999 10.4122 7.17164C10.3535 6.99328 10.2002 6.86645 10.0148 6.84069L8.92883 6.68347L8.44283 5.70847C8.3595 5.54068 8.19016 5.43631 8.0015 5.43565H8.00016C7.81216 5.43565 7.64283 5.54002 7.55816 5.70781L7.07216 6.68347L5.98816 6.84003C5.80083 6.86645 5.6475 6.99328 5.58816 7.17164C5.5295 7.34999 5.57683 7.54288 5.71283 7.67368L6.49883 8.43202L6.3135 9.50413C6.2815 9.68909 6.35683 9.87273 6.51016 9.98305C6.59683 10.0445 6.6975 10.0762 6.7995 10.0762C6.8775 10.0762 6.95616 10.057 7.02816 10.0194L8.00016 9.51338L8.97016 10.0181C9.13816 10.1072 9.3375 10.0934 9.49016 9.98238C9.64416 9.87273 9.7195 9.68909 9.6875 9.50413L9.5015 8.43202Z" fill="#0073FF"/>
</svg>
