<svg width="12" height="12" viewBox="0 0 12 12" fill="none" xmlns="http://www.w3.org/2000/svg">
<path d="M8.17 1H3.835C2.14 1 1 2.19 1 3.96V8.045C1 9.81 2.14 11 3.835 11H8.17C9.865 11 11 9.81 11 8.045V3.96C11 2.19 9.865 1 8.17 1Z" fill="#7A5EF1"/>
<path d="M5.40648 7.62398C5.29448 7.62398 5.18248 7.58148 5.09698 7.49598L3.91048 6.30948C3.73948 6.13848 3.73948 5.86148 3.91048 5.69098C4.08148 5.51998 4.35798 5.51948 4.52898 5.69048L5.40648 6.56798L7.47048 4.50398C7.64148 4.33298 7.91798 4.33298 8.08898 4.50398C8.25998 4.67498 8.25998 4.95198 8.08898 5.12298L5.71598 7.49598C5.63048 7.58148 5.51848 7.62398 5.40648 7.62398Z" fill="white"/>
</svg>
