<svg width="16" height="16" viewBox="0 0 16 16" fill="none" xmlns="http://www.w3.org/2000/svg">
<path fill-rule="evenodd" clip-rule="evenodd" d="M5.20166 6.79932C4.92566 6.79932 4.70166 6.57532 4.70166 6.29932V4.86798C4.71033 2.90932 6.29433 1.33398 8.23633 1.33398H8.24966C9.75366 1.33398 11.0963 2.28932 11.589 3.71198C11.6797 3.97265 11.541 4.25732 11.2797 4.34798C11.019 4.43932 10.7343 4.29998 10.6437 4.03865C10.291 3.01932 9.32766 2.33398 8.24766 2.33398H8.23833C6.84366 2.33398 5.70766 3.46332 5.70166 4.85665V6.29932C5.70166 6.57532 5.47766 6.79932 5.20166 6.79932Z" fill="#0073FF"/>
<path fill-rule="evenodd" clip-rule="evenodd" d="M5.6945 6.75195C4.57584 6.75195 3.6665 7.66195 3.6665 8.78062V11.6393C3.6665 12.758 4.57584 13.668 5.6945 13.668H10.7892C11.9072 13.668 12.8172 12.758 12.8172 11.6393V8.78062C12.8172 7.66195 11.9072 6.75195 10.7892 6.75195H5.6945ZM10.7892 14.668H5.6945C4.0245 14.668 2.6665 13.3093 2.6665 11.6393V8.78062C2.6665 7.11062 4.0245 5.75195 5.6945 5.75195H10.7892C12.4585 5.75195 13.8172 7.11062 13.8172 8.78062V11.6393C13.8172 13.3093 12.4585 14.668 10.7892 14.668Z" fill="#0073FF"/>
<path fill-rule="evenodd" clip-rule="evenodd" d="M8.24219 11.4501C7.96619 11.4501 7.74219 11.2261 7.74219 10.9501V9.46875C7.74219 9.19275 7.96619 8.96875 8.24219 8.96875C8.51819 8.96875 8.74219 9.19275 8.74219 9.46875V10.9501C8.74219 11.2261 8.51819 11.4501 8.24219 11.4501Z" fill="#0073FF"/>
</svg>
