<svg width="16" height="16" viewBox="0 0 16 16" fill="none" xmlns="http://www.w3.org/2000/svg">
<path fill-rule="evenodd" clip-rule="evenodd" d="M10.772 5.4884C10.772 7.05486 9.52326 8.31091 7.96586 8.31091C6.40845 8.31091 5.15966 7.05486 5.15966 5.4884C5.15966 3.92135 6.40845 2.6665 7.96586 2.6665C9.52326 2.6665 10.772 3.92135 10.772 5.4884ZM7.96586 13.3332C5.6784 13.3332 3.72523 12.9705 3.72523 11.5199C3.72523 10.0688 5.66587 9.69292 7.96586 9.69292C10.2533 9.69292 12.2065 10.0556 12.2065 11.5067C12.2065 12.9573 10.2658 13.3332 7.96586 13.3332ZM11.9712 5.53932C11.9712 6.33786 11.7331 7.08176 11.3152 7.70018C11.2722 7.76382 11.3104 7.84968 11.3862 7.86288C11.4907 7.8809 11.5987 7.8911 11.7086 7.89411C12.804 7.92293 13.7871 7.21385 14.0587 6.14633C14.461 4.56066 13.2797 3.1371 11.7754 3.1371C11.6119 3.1371 11.4555 3.15451 11.3033 3.18573C11.2824 3.19054 11.2603 3.20014 11.2483 3.21876C11.234 3.24157 11.2448 3.27219 11.2591 3.29201C11.711 3.92903 11.9712 4.70596 11.9712 5.53932ZM13.7853 9.00822C14.5213 9.15291 15.0055 9.44831 15.206 9.8776C15.3756 10.23 15.3756 10.6389 15.206 10.9908C14.8992 11.6566 13.9101 11.8703 13.5257 11.9256C13.4463 11.9376 13.3824 11.8685 13.3907 11.7887C13.5871 9.94365 12.025 9.06886 11.6208 8.86772C11.6035 8.85872 11.5999 8.84491 11.6017 8.8365C11.6029 8.8305 11.6101 8.82089 11.6232 8.81909C12.4977 8.80288 13.4379 8.92296 13.7853 9.00822ZM4.29124 7.89405C4.40108 7.89104 4.50853 7.88144 4.61359 7.86282C4.6894 7.84962 4.7276 7.76376 4.68462 7.70012C4.26677 7.0817 4.02859 6.3378 4.02859 5.53926C4.02859 4.7059 4.28886 3.92897 4.74074 3.29195C4.75506 3.27213 4.76521 3.24151 4.75148 3.2187C4.73954 3.20068 4.71686 3.19048 4.69656 3.18567C4.54375 3.15445 4.38735 3.13704 4.22379 3.13704C2.71951 3.13704 1.53818 4.5606 1.94111 6.14627C2.21272 7.21379 3.19587 7.92287 4.29124 7.89405ZM4.3978 8.83614C4.39959 8.84515 4.39601 8.85836 4.37929 8.86796C3.97457 9.0691 2.41239 9.94389 2.60878 11.7883C2.61714 11.8688 2.55386 11.9372 2.47447 11.9258C2.09004 11.8706 1.10092 11.6568 0.794099 10.991C0.623972 10.6386 0.623972 10.2303 0.794099 9.87784C0.994669 9.44855 1.47819 9.15315 2.21421 9.00786C2.56222 8.9232 3.5018 8.80312 4.3769 8.81933C4.39004 8.82113 4.3966 8.83074 4.3978 8.83614Z" fill="#0073FF"/>
</svg>
