<svg width="16" height="16" viewBox="0 0 16 16" fill="none" xmlns="http://www.w3.org/2000/svg">
<path fill-rule="evenodd" clip-rule="evenodd" d="M8.90457 4.30037C8.87101 3.97615 8.83606 3.63975 8.75008 3.30407C8.51589 2.50102 7.86716 2.00001 7.17159 2.00001C6.78361 1.99857 6.29286 2.23763 6.01463 2.47955L3.70842 4.41131H2.50113C1.61262 4.41131 0.898178 5.09627 0.763258 6.0847C0.648612 7.03376 0.620649 8.82524 0.763258 9.8695C0.886993 10.9138 1.56928 11.5887 2.50113 11.5887H3.70842L6.05937 13.5491C6.30055 13.7588 6.72628 13.9993 7.11776 13.9993C7.14292 14 7.16529 14 7.18766 14C7.89652 14 8.52078 13.4804 8.75497 12.6795C8.8432 12.3409 8.87413 12.0235 8.90401 11.7168L8.90401 11.7168L8.90457 11.7111L8.93603 11.4055C9.05627 10.4142 9.05627 5.57939 8.93603 4.59526L8.90457 4.30037ZM11.6042 4.32974C11.412 4.04631 11.031 3.97545 10.7521 4.17228C10.4759 4.37054 10.4074 4.76133 10.5997 5.04404C11.1345 5.83207 11.4288 6.88133 11.4288 8.00002C11.4288 9.118 11.1345 10.168 10.5997 10.956C10.4074 11.2387 10.4759 11.6295 10.7528 11.8278C10.8562 11.9008 10.9772 11.9394 11.1016 11.9394C11.3022 11.9394 11.4896 11.8385 11.6042 11.6703C12.2795 10.6754 12.6521 9.37209 12.6521 8.00002C12.6521 6.62796 12.2795 5.32461 11.6042 4.32974ZM12.8599 2.1474C13.1381 1.94986 13.5205 2.02215 13.7113 2.30486C14.7571 3.8444 15.3332 5.86778 15.3332 7.99995C15.3332 10.1336 14.7571 12.1562 13.7113 13.6958C13.5974 13.864 13.4093 13.9649 13.2087 13.9649C13.0843 13.9649 12.964 13.9262 12.8606 13.8532C12.5838 13.655 12.5152 13.2649 12.7068 12.9815C13.6114 11.6488 14.1098 9.87947 14.1098 7.99995C14.1098 6.12115 13.6114 4.35186 12.7068 3.01916C12.5152 2.73645 12.5838 2.34566 12.8599 2.1474Z" fill="#25253A"/>
</svg>
