<svg width="12" height="12" viewBox="0 0 12 12" fill="none" xmlns="http://www.w3.org/2000/svg">
<path fill-rule="evenodd" clip-rule="evenodd" d="M10.8936 5.26952C10.8259 5.33529 10.734 5.37287 10.6373 5.37287C10.2795 5.37287 9.98936 5.65473 9.98936 5.99765C9.98936 6.34292 10.2761 6.62337 10.6306 6.62713C10.8303 6.62901 11 6.7643 11 6.95831V8.16324C11 9.17745 10.1538 10 9.10928 10H7.53288C7.36992 10 7.23791 9.87176 7.23791 9.71345V8.69877C7.23791 8.50147 7.07834 8.34645 6.87524 8.34645C6.67698 8.34645 6.51257 8.50147 6.51257 8.69877V9.71345C6.51257 9.87176 6.38056 10 6.21809 10H2.89072C1.85106 10 1 9.17792 1 8.16324V6.95831C1 6.7643 1.16973 6.62901 1.36944 6.62713C1.72437 6.62337 2.01064 6.34292 2.01064 5.99765C2.01064 5.66412 1.73017 5.41045 1.36267 5.41045C1.26596 5.41045 1.17408 5.37287 1.10638 5.30711C1.03868 5.24134 1 5.15208 1 5.05813V3.84146C1 2.82866 1.853 2 2.89555 2H6.21809C6.38056 2 6.51257 2.12824 6.51257 2.28655V3.48914C6.51257 3.68174 6.67698 3.84146 6.87524 3.84146C7.07834 3.84146 7.23791 3.68174 7.23791 3.48914V2.28655C7.23791 2.12824 7.36992 2 7.53288 2H9.10928C10.1538 2 11 2.82208 11 3.83676V5.02055C11 5.1145 10.9613 5.20376 10.8936 5.26952ZM6.87524 7.43511C7.07834 7.43511 7.23791 7.2754 7.23791 7.0828V5.20376C7.23791 5.01116 7.07834 4.85144 6.87524 4.85144C6.67698 4.85144 6.51257 5.01116 6.51257 5.20376V7.0828C6.51257 7.2754 6.67698 7.43511 6.87524 7.43511Z" fill="white"/>
</svg>
