<svg width="20" height="20" viewBox="0 0 20 20" fill="none" xmlns="http://www.w3.org/2000/svg">
<path fill-rule="evenodd" clip-rule="evenodd" d="M18.2402 13.2462H14.8669C13.286 13.2462 11.9994 11.9604 11.9985 10.3804C11.9985 8.79873 13.2852 7.51206 14.8669 7.51123H18.2402C18.5852 7.51123 18.8652 7.79123 18.8652 8.13623C18.8652 8.48123 18.5852 8.76123 18.2402 8.76123H14.8669C13.9744 8.76206 13.2485 9.4879 13.2485 10.3796C13.2485 11.2704 13.9752 11.9962 14.8669 11.9962H18.2402C18.5852 11.9962 18.8652 12.2762 18.8652 12.6212C18.8652 12.9662 18.5852 13.2462 18.2402 13.2462Z" fill="white"/>
<path fill-rule="evenodd" clip-rule="evenodd" d="M15.2483 10.9531H14.9883C14.6433 10.9531 14.3633 10.6731 14.3633 10.3281C14.3633 9.98313 14.6433 9.70312 14.9883 9.70312H15.2483C15.5933 9.70312 15.8733 9.98313 15.8733 10.3281C15.8733 10.6731 15.5933 10.9531 15.2483 10.9531Z" fill="white"/>
<mask id="mask0_984_447" style="mask-type:alpha" maskUnits="userSpaceOnUse" x="1" y="2" width="18" height="17">
<path fill-rule="evenodd" clip-rule="evenodd" d="M1.6665 2.5H18.8653V18.4774H1.6665V2.5Z" fill="white"/>
</mask>
<g mask="url(#mask0_984_447)">
<path fill-rule="evenodd" clip-rule="evenodd" d="M6.66435 3.75C4.59768 3.75 2.91602 5.43167 2.91602 7.49833V13.4792C2.91602 15.5458 4.59768 17.2275 6.66435 17.2275H13.8677C15.9343 17.2275 17.6152 15.5458 17.6152 13.4792V7.49833C17.6152 5.43167 15.9343 3.75 13.8677 3.75H6.66435ZM13.8677 18.4775H6.66435C3.90852 18.4775 1.66602 16.235 1.66602 13.4792V7.49833C1.66602 4.74167 3.90852 2.5 6.66435 2.5H13.8677C16.6235 2.5 18.8652 4.74167 18.8652 7.49833V13.4792C18.8652 16.235 16.6235 18.4775 13.8677 18.4775Z" fill="white"/>
</g>
<path fill-rule="evenodd" clip-rule="evenodd" d="M10.5705 7.53174H6.07129C5.72629 7.53174 5.44629 7.25174 5.44629 6.90674C5.44629 6.56174 5.72629 6.28174 6.07129 6.28174H10.5705C10.9155 6.28174 11.1955 6.56174 11.1955 6.90674C11.1955 7.25174 10.9155 7.53174 10.5705 7.53174Z" fill="white"/>
</svg>
