<svg width="32" height="32" viewBox="0 0 32 32" fill="none" xmlns="http://www.w3.org/2000/svg">
<circle cx="16" cy="16" r="16" fill="url(#paint0_linear_1848_8440)"/>
<circle cx="16" cy="16" r="15.5" stroke="#AEB9C7" stroke-opacity="0.2"/>
<path fill-rule="evenodd" clip-rule="evenodd" d="M21.8207 16.0007C21.8207 16.6109 22.3217 17.1073 22.9375 17.1073C23.248 17.1073 23.5 17.357 23.5 17.6646V19.6719C23.5 21.3692 22.1065 22.75 20.3935 22.75H11.6073C9.89425 22.75 8.5 21.3692 8.5 19.6719V17.6646C8.5 17.357 8.752 17.1073 9.0625 17.1073C9.679 17.1073 10.18 16.6109 10.18 16.0007C10.18 15.4062 9.69925 14.9589 9.0625 14.9589C8.91325 14.9589 8.77075 14.9001 8.665 14.7954C8.55925 14.6906 8.5 14.5486 8.5 14.4015L8.5015 12.3289C8.5015 10.6315 9.895 9.25 11.608 9.25H20.392C22.105 9.25 23.4993 10.6315 23.4993 12.3289L23.5 14.3368C23.5 14.484 23.4408 14.6267 23.3358 14.7307C23.23 14.8355 23.0875 14.8942 22.9375 14.8942C22.3217 14.8942 21.8207 15.3906 21.8207 16.0007ZM17.689 16.486L18.5732 15.6329C18.727 15.4857 18.7802 15.2687 18.7135 15.0681C18.6475 14.8674 18.475 14.7248 18.2665 14.6958L17.0448 14.5189L16.498 13.422C16.4042 13.2333 16.2137 13.1158 16.0015 13.1151H16C15.7885 13.1151 15.598 13.2325 15.5027 13.4213L14.956 14.5189L13.7365 14.695C13.5257 14.7248 13.3532 14.8674 13.2865 15.0681C13.2205 15.2687 13.2737 15.4857 13.4267 15.6329L14.311 16.486L14.1025 17.6921C14.0665 17.9002 14.1512 18.1068 14.3237 18.2309C14.4212 18.3 14.5345 18.3357 14.6492 18.3357C14.737 18.3357 14.8255 18.3142 14.9065 18.2718L16 17.7025L17.0912 18.2703C17.2802 18.3706 17.5045 18.355 17.6762 18.2302C17.8495 18.1068 17.9342 17.9002 17.8982 17.6921L17.689 16.486Z" fill="white"/>
<defs>
<linearGradient id="paint0_linear_1848_8440" x1="17.0667" y1="29.3333" x2="17.0667" y2="2.4" gradientUnits="userSpaceOnUse">
<stop stop-color="#C72114"/>
<stop offset="1" stop-color="#F5493A"/>
</linearGradient>
</defs>
</svg>
