<svg width="32" height="32" viewBox="0 0 32 32" fill="none" xmlns="http://www.w3.org/2000/svg">
<circle cx="16" cy="16" r="16" fill="#FAFAFA"/>
<circle cx="16" cy="16" r="15.5" stroke="#AEB9C7" stroke-opacity="0.2"/>
<g clip-path="url(#clip0_1561_7857)">
<path d="M20.6748 9H13.825C13.2013 9 12.658 9.35041 12.3814 9.86459H11.7496C10.612 9.86459 9.68652 10.7901 9.68652 11.9278V22.9368C9.68652 24.0745 10.612 25 11.7496 25H17.7496C18.8873 25 19.8128 24.0745 19.8128 22.9368V18.5799H20.6748C21.5781 18.5799 22.3131 17.845 22.3131 16.9417V10.6382C22.3131 9.73491 21.5781 9 20.6748 9V9ZM21.3756 16.9417C21.3756 17.328 21.0612 17.6424 20.6748 17.6424H17.693L15.8959 18.5722L15.8743 17.6424H13.825C13.4386 17.6424 13.1242 17.328 13.1242 16.9417V10.6382C13.1242 10.2518 13.4386 9.9375 13.825 9.9375H20.6748C21.0612 9.9375 21.3756 10.2518 21.3756 10.6382V16.9417ZM18.8753 22.9368C18.8753 23.5575 18.3703 24.0625 17.7496 24.0625H16.3875C16.5545 23.7797 16.6507 23.4505 16.6507 23.099C16.6507 22.7475 16.5545 22.4182 16.3875 22.1354H18.8753V22.9368H18.8753ZM10.624 22.9368V22.1354H13.1119C12.9449 22.4182 12.8486 22.7475 12.8486 23.099C12.8486 23.4505 12.9449 23.7797 13.1119 24.0625H11.7496C11.129 24.0625 10.624 23.5575 10.624 22.9368ZM15.7132 23.099C15.7132 23.6302 15.281 24.0625 14.7496 24.0625C14.2184 24.0625 13.7861 23.6302 13.7861 23.099C13.7861 22.5677 14.2184 22.1354 14.7496 22.1354C15.281 22.1354 15.7132 22.5677 15.7132 23.099ZM10.624 21.1979V11.9278C10.624 11.3071 11.129 10.8021 11.7496 10.8021H12.1867V16.9417C12.1867 17.845 12.9216 18.5799 13.825 18.5799H14.9583L14.9936 20.0946L17.9211 18.5799H18.8753V21.1979H10.624Z" fill="#565ACF"/>
<path d="M17.8643 13.2772C17.7209 13.2229 17.597 13.1854 17.4878 13.1523C17.2728 13.0872 17.1739 13.0548 17.0811 12.9684C17.0171 12.9089 17.0158 12.8326 17.026 12.7791C17.0419 12.6962 17.1044 12.5898 17.232 12.5401C17.5301 12.4241 17.8793 12.7047 17.9463 12.7621L18.5564 12.0504C18.4516 11.9605 18.2329 11.7935 17.9456 11.6835C17.8982 11.6653 17.8508 11.6496 17.8034 11.636V10.9824H16.8659V11.6775C16.4687 11.842 16.1851 12.1858 16.1052 12.6029C16.0302 12.9951 16.1561 13.3883 16.4422 13.6546C16.698 13.8928 16.9614 13.9725 17.2161 14.0496C17.3156 14.0797 17.4185 14.1109 17.5318 14.1538C17.7402 14.2328 17.8334 14.367 17.8014 14.5419C17.7689 14.719 17.609 14.9097 17.3347 14.9097C17.0663 14.9097 16.8289 14.7344 16.6292 14.3886L15.8174 14.8576C16.0882 15.3263 16.4509 15.6401 16.8659 15.7738V16.4868H17.8034V15.7689C18.2716 15.6079 18.6317 15.2118 18.7235 14.7109C18.8389 14.0817 18.5016 13.519 17.8643 13.2772Z" fill="#565ACF"/>
</g>
<defs>
<clipPath id="clip0_1561_7857">
<rect width="16" height="16" fill="white" transform="translate(8 9)"/>
</clipPath>
</defs>
</svg>
