<svg width="20" height="20" viewBox="0 0 20 20" fill="none" xmlns="http://www.w3.org/2000/svg">
<path fill-rule="evenodd" clip-rule="evenodd" d="M14.8074 6.98483H18.3333C18.3333 4.15383 16.637 2.5 13.763 2.5H6.23704C3.36297 2.5 1.66667 4.15383 1.66667 6.94872V13.0513C1.66667 15.8462 3.36297 17.5 6.23704 17.5H13.763C16.637 17.5 18.3333 15.8462 18.3333 13.0513V12.7913H14.8074C13.171 12.7913 11.8444 11.4979 11.8444 9.9025C11.8444 8.30707 13.171 7.01372 14.8074 7.01372V6.98483ZM14.8074 8.22701H17.7111C18.0548 8.22701 18.3333 8.49861 18.3333 8.83365V10.9425C18.3293 11.2759 18.0531 11.5452 17.7111 11.5491H14.8741C14.0457 11.56 13.3212 11.007 13.1333 10.2203C13.0392 9.73191 13.1713 9.22797 13.4942 8.84351C13.8171 8.45906 14.2978 8.2334 14.8074 8.22701ZM14.9333 10.4441H15.2074C15.5592 10.4441 15.8444 10.1661 15.8444 9.82306C15.8444 9.48004 15.5592 9.20197 15.2074 9.20197H14.9333C14.7651 9.20004 14.603 9.26387 14.4833 9.3792C14.3636 9.49453 14.2963 9.65177 14.2963 9.81584C14.2963 10.16 14.5803 10.4402 14.9333 10.4441ZM5.61482 6.98483H10.3185C10.6703 6.98483 10.9556 6.70676 10.9556 6.36375C10.9556 6.02073 10.6703 5.74266 10.3185 5.74266H5.61482C5.26587 5.74263 4.98184 6.01633 4.97778 6.35652C4.97776 6.70073 5.2618 6.98088 5.61482 6.98483Z" fill="#D3D3D3"/>
</svg>
