<svg width="32" height="32" viewBox="0 0 32 32" fill="none" xmlns="http://www.w3.org/2000/svg">
<circle cx="16" cy="16" r="16" fill="#FAFAFA"/>
<circle cx="16" cy="16" r="15.5" stroke="#AEB9C7" stroke-opacity="0.2"/>
<path d="M16.6244 22.6205V17.5264H15.3751V22.5963L13.6929 20.9142L12.8096 21.7976L16.0119 24.9998L19.2142 21.7976L18.3308 20.9142L16.6244 22.6205Z" fill="#FFBE59"/>
<path d="M22.1216 9H9.87836C8.84505 9 8.00439 9.84066 8.00439 10.874V18.8695C8.00439 19.9028 8.84505 20.7435 9.87836 20.7435H11.5649V19.4942H9.87836C9.53393 19.4942 9.25371 19.214 9.25371 18.8695V13.56H22.7462V18.8695C22.7462 19.214 22.466 19.4942 22.1216 19.4942H20.4662V20.7435H22.1216C23.1549 20.7435 23.9955 19.9028 23.9955 18.8695V10.874C23.9955 9.84066 23.1549 9 22.1216 9ZM22.7462 11.686H9.25371V10.874C9.25371 10.5295 9.53393 10.2493 9.87836 10.2493H22.1216C22.466 10.2493 22.7462 10.5295 22.7462 10.874V11.686H22.7462Z" fill="#FFBE59"/>
</svg>
