<svg width="20" height="20" viewBox="0 0 20 20" fill="none" xmlns="http://www.w3.org/2000/svg">
<path fill-rule="evenodd" clip-rule="evenodd" d="M14.8072 6.98483H18.3332C18.3332 4.15383 16.6369 2.5 13.7628 2.5H6.23687C3.3628 2.5 1.6665 4.15383 1.6665 6.94872V13.0513C1.6665 15.8462 3.3628 17.5 6.23687 17.5H13.7628C16.6369 17.5 18.3332 15.8462 18.3332 13.0513V12.7913H14.8072C13.1708 12.7913 11.8443 11.4979 11.8443 9.9025C11.8443 8.30707 13.1708 7.01372 14.8072 7.01372V6.98483ZM14.8072 8.22701H17.7109C18.0546 8.22701 18.3332 8.49861 18.3332 8.83365V10.9425C18.3292 11.2759 18.0529 11.5452 17.7109 11.5491H14.8739C14.0455 11.56 13.3211 11.007 13.1332 10.2203C13.0391 9.73191 13.1712 9.22797 13.4941 8.84351C13.817 8.45906 14.2976 8.2334 14.8072 8.22701ZM14.9332 10.4441H15.2072C15.5591 10.4441 15.8443 10.1661 15.8443 9.82306C15.8443 9.48004 15.5591 9.20197 15.2072 9.20197H14.9332C14.7649 9.20004 14.6028 9.26387 14.4832 9.3792C14.3635 9.49453 14.2961 9.65177 14.2961 9.81584C14.2961 10.16 14.5801 10.4402 14.9332 10.4441ZM5.61465 6.98483H10.3184C10.6702 6.98483 10.9554 6.70676 10.9554 6.36375C10.9554 6.02073 10.6702 5.74266 10.3184 5.74266H5.61465C5.2657 5.74263 4.98167 6.01633 4.97762 6.35652C4.97759 6.70073 5.26163 6.98088 5.61465 6.98483Z" fill="url(#paint0_linear_812_19031)"/>
<defs>
<linearGradient id="paint0_linear_812_19031" x1="10.5554" y1="16.25" x2="10.5554" y2="3.625" gradientUnits="userSpaceOnUse">
<stop stop-color="#C72114"/>
<stop offset="1" stop-color="#F5493A"/>
</linearGradient>
</defs>
</svg>
