<svg width="12" height="12" viewBox="0 0 12 12" fill="none" xmlns="http://www.w3.org/2000/svg">
<path d="M6.46853 10.2156V6.39502H5.53155V10.1975L4.26995 8.93588L3.60742 9.59841L6.00913 12.0001L8.41087 9.59841L7.74834 8.93588L6.46853 10.2156Z" fill="white"/>
<path d="M10.5913 0H1.40889C0.63391 0 0.00341797 0.630492 0.00341797 1.40548V7.40215C0.00341797 8.17713 0.63391 8.80762 1.40889 8.80762H2.67382V7.87064H1.40889C1.15057 7.87064 0.940402 7.66048 0.940402 7.40215V3.41998H11.0598V7.40215C11.0598 7.66048 10.8496 7.87064 10.5913 7.87064H9.34978V8.80762H10.5913C11.3663 8.80762 11.9968 8.17713 11.9968 7.40215V1.40548C11.9968 0.630492 11.3663 0 10.5913 0ZM11.0598 2.0145H0.940402V1.40548C0.940402 1.14715 1.15057 0.936984 1.40889 0.936984H10.5913C10.8496 0.936984 11.0598 1.14715 11.0598 1.40548V2.0145H11.0598Z" fill="white"/>
</svg>
