<svg width="34" height="34" viewBox="0 0 34 34" fill="none" xmlns="http://www.w3.org/2000/svg">
<circle cx="17" cy="17" r="16.5" fill="#0068FE" stroke="#0068FE"/>
<mask id="mask0_1872_8232" style="mask-type:alpha" maskUnits="userSpaceOnUse" x="1" y="1" width="32" height="32">
<circle cx="17" cy="17" r="16" fill="#015BDF"/>
</mask>
<g mask="url(#mask0_1872_8232)">
<path d="M10.2416 1.0037C17.7661 1.0037 25.2911 1.00416 32.8156 1C32.9653 1 32.9995 1.03373 32.9991 1.1839C32.9949 9.04204 32.9954 16.8997 32.9954 24.7579C32.8803 24.7191 32.8591 24.8332 32.8115 24.8845C32.0611 25.6903 31.2044 26.3617 30.2586 26.9221C28.1678 28.1609 25.8862 28.8258 23.4955 29.1515C21.3969 29.4375 19.2969 29.4255 17.2005 29.1155C14.7581 28.7546 12.44 28.0357 10.3377 26.7059C10.2619 26.6578 10.2009 26.649 10.1173 26.6842C8.8383 27.2201 7.51498 27.4946 6.12281 27.3528C5.95 27.2257 6.06783 27.1273 6.15608 27.0284C6.76137 26.3496 7.1555 25.5715 7.26131 24.6613C7.31491 24.2011 7.2493 23.7783 6.97253 23.3731C6.20829 22.2549 5.66307 21.0254 5.26108 19.7358C4.50747 17.3179 4.24179 14.8431 4.43354 12.3175C4.59665 10.1685 5.06286 8.09483 5.96017 6.12787C6.73642 4.42566 7.78944 2.92954 9.25645 1.7476C9.57666 1.48885 9.91257 1.2509 10.2416 1.0037ZM12.8078 12.9274C12.7597 12.9917 12.7265 13.0402 12.6895 13.0859C11.3722 14.7267 10.0577 16.3697 8.73341 18.005C8.47605 18.3224 8.3536 18.6638 8.36192 19.0704C8.36562 19.2497 8.40628 19.3047 8.59295 19.3042C10.4116 19.2973 12.2302 19.3006 14.0489 19.3006C14.102 19.3006 14.1556 19.301 14.2087 19.2959C14.5377 19.2654 14.729 19.0677 14.7443 18.7368C14.7512 18.5839 14.7336 18.4291 14.7498 18.2776C14.7706 18.0886 14.6971 18.0456 14.5169 18.0465C13.1779 18.0535 11.8389 18.0507 10.4998 18.0493C10.4305 18.0493 10.3557 18.0706 10.2725 18.0156C10.3164 17.956 10.3566 17.8978 10.4005 17.8428C10.7725 17.3729 11.1453 16.9039 11.5177 16.4344C12.4576 15.2507 13.39 14.0604 14.3414 12.8863C14.6274 12.5333 14.7452 12.1475 14.748 11.7072C14.7489 11.594 14.7128 11.5588 14.5996 11.5588C12.6345 11.5616 10.669 11.5621 8.70384 11.5584C8.57908 11.5579 8.54489 11.599 8.5472 11.7187C8.55413 12.0385 8.5606 12.3587 8.54489 12.6779C8.53611 12.8591 8.59664 12.8988 8.76945 12.8979C10.0087 12.8905 11.2479 12.8933 12.4867 12.8942C12.5855 12.8937 12.6858 12.8789 12.8078 12.9274ZM19.8504 18.7641C19.9687 19.185 20.1193 19.2978 20.5541 19.3001C20.6807 19.301 20.8078 19.2922 20.9339 19.3019C21.0744 19.313 21.116 19.259 21.1141 19.1204C21.1072 18.5807 21.1109 18.041 21.1109 17.5009C21.1109 16.215 21.1086 14.9286 21.1141 13.6427C21.1146 13.493 21.0864 13.426 20.9182 13.4376C20.6927 13.4533 20.4654 13.4413 20.239 13.4413C19.8892 13.4413 19.8892 13.4413 19.8684 13.7855C19.868 13.7947 19.8536 13.803 19.8361 13.8234C19.1888 13.3853 18.4763 13.195 17.6968 13.304C16.9094 13.4135 16.2598 13.7809 15.7645 14.4005C14.8801 15.5066 14.8681 17.0508 15.722 18.1403C16.1748 18.7179 16.7551 19.0922 17.4731 19.2497C18.3353 19.4392 19.1218 19.2433 19.8504 18.7641ZM27.4198 13.237C25.7462 13.2379 24.3693 14.6204 24.3711 16.2977C24.373 17.968 25.7485 19.356 27.4022 19.356C29.0947 19.356 30.4712 17.9818 30.4679 16.2949C30.4652 14.6112 29.0942 13.2361 27.4198 13.237ZM23.4946 15.3994C23.4946 14.1537 23.4951 12.908 23.4937 11.6623C23.4937 11.5778 23.5339 11.4697 23.3722 11.4729C23.0127 11.4803 22.6528 11.4775 22.2933 11.4738C22.1958 11.4729 22.1662 11.5103 22.1685 11.6032C22.1736 11.8028 22.1699 12.0029 22.1699 12.2025C22.1699 14.3806 22.1695 16.5592 22.1704 18.7373C22.1704 19.1361 22.3312 19.2959 22.7253 19.2996C22.912 19.3015 23.0991 19.2899 23.2849 19.3024C23.4466 19.3135 23.4997 19.2687 23.4988 19.0959C23.4909 17.864 23.4946 16.6317 23.4946 15.3994Z" fill="#FDFEFE"/>
<path d="M10.2415 1.0037C9.91301 1.25089 9.57664 1.48885 9.2569 1.74668C7.78988 2.92861 6.73686 4.4252 5.96061 6.12694C5.06376 8.09391 4.59755 10.1671 4.43398 12.3166C4.24223 14.8422 4.50791 17.317 5.26152 19.7349C5.66351 21.0245 6.20873 22.254 6.97297 23.3722C7.24974 23.7774 7.31535 24.2002 7.26175 24.6604C7.15594 25.5706 6.76181 26.3487 6.15652 27.0275C6.06826 27.1263 5.95044 27.2252 6.12325 27.3518C6.21381 27.4373 6.30761 27.52 6.39401 27.6092C6.75026 27.9765 7.10419 28.3462 7.45997 28.714C7.92018 29.1894 8.38269 29.6626 8.84151 30.1389C9.43109 30.7516 10.0184 31.3661 10.6061 31.9802C10.8866 32.2732 11.1656 32.5666 11.4461 32.8595C11.4831 32.8983 11.5223 32.9353 11.521 32.9949C8.06849 32.9949 4.61603 32.994 1.16357 32.9986C1.0268 32.9995 1 32.9727 1 32.8355C1.00416 22.2785 1.00416 11.721 1 1.16403C1 1.0268 1.0268 1 1.16357 1C4.18956 1.00508 7.21554 1.0037 10.2415 1.0037Z" fill="#0068FE"/>
<path d="M11.5208 32.9952C11.5221 32.9356 11.4829 32.8987 11.4459 32.8598C11.1654 32.5669 10.8864 32.2735 10.6059 31.9806C10.0182 31.3665 9.43089 30.7515 8.84131 30.1393C8.38249 29.6624 7.91951 29.1898 7.45977 28.7143C7.10399 28.3465 6.75005 27.9764 6.39381 27.6095C6.30694 27.5204 6.21315 27.4377 6.12305 27.3522C7.51568 27.4945 8.839 27.22 10.1175 26.6841C10.2011 26.6489 10.2621 26.6577 10.3379 26.7058C12.4402 28.0356 14.7584 28.754 17.2008 29.1154C19.2971 29.4249 21.3967 29.4374 23.4958 29.1514C25.8864 28.8257 28.1681 28.1608 30.2589 26.922C31.2042 26.362 32.0613 25.6906 32.8117 24.8844C32.8593 24.8331 32.8805 24.7194 32.9956 24.7578C32.9956 27.4418 32.9933 30.1259 33.0007 32.8104C33.0011 32.9823 32.954 32.9998 32.8011 32.9998C25.7076 32.9948 18.6142 32.9952 11.5208 32.9952Z" fill="#015BDF"/>
<path d="M12.8076 12.9272C12.6861 12.8786 12.5854 12.8934 12.487 12.8934C11.2478 12.8925 10.0085 12.8897 8.76976 12.8971C8.59741 12.898 8.53642 12.8588 8.5452 12.6772C8.56045 12.3584 8.55398 12.0377 8.54751 11.718C8.5452 11.5983 8.57939 11.5572 8.70415 11.5576C10.6693 11.5613 12.6348 11.5609 14.6 11.5581C14.7132 11.5581 14.7492 11.5932 14.7483 11.7064C14.7455 12.1467 14.6277 12.5326 14.3417 12.8856C13.3898 14.0601 12.4579 15.2499 11.5181 16.4337C11.1456 16.9031 10.7728 17.3726 10.4008 17.842C10.3574 17.897 10.3172 17.9548 10.2728 18.0148C10.356 18.0703 10.4308 18.0486 10.5002 18.0486C11.8392 18.0499 13.1782 18.0532 14.5172 18.0458C14.6974 18.0449 14.7705 18.0883 14.7501 18.2768C14.7335 18.4284 14.7515 18.5832 14.7446 18.7361C14.7293 19.0674 14.538 19.2647 14.2091 19.2952C14.1564 19.3003 14.1028 19.2998 14.0492 19.2998C12.2305 19.2998 10.4119 19.2966 8.59279 19.3035C8.40612 19.3044 8.36546 19.2494 8.36177 19.0697C8.35299 18.6631 8.47589 18.3221 8.7328 18.0042C10.057 16.369 11.3716 14.7259 12.6889 13.0852C12.7263 13.0399 12.7596 12.9918 12.8076 12.9272Z" fill="#0468FB"/>
<path d="M19.8505 18.764C19.1218 19.2436 18.3349 19.4395 17.4728 19.2501C16.7547 19.0925 16.1739 18.7182 15.7216 18.1407C14.8677 17.0507 14.8797 15.507 15.7641 14.4008C16.2594 13.7812 16.909 13.4143 17.6964 13.3043C18.4759 13.1958 19.1884 13.3857 19.8357 13.8237C19.8537 13.8034 19.8676 13.7951 19.868 13.7858C19.8893 13.4416 19.8888 13.4416 20.2386 13.4416C20.465 13.4416 20.6923 13.4531 20.9178 13.4379C21.086 13.4263 21.1142 13.4929 21.1137 13.643C21.1087 14.9289 21.1105 16.2153 21.1105 17.5012C21.1105 18.0409 21.1063 18.581 21.1137 19.1207C21.1156 19.2593 21.074 19.3134 20.9335 19.3023C20.8079 19.2926 20.6803 19.3009 20.5537 19.3004C20.1194 19.2972 19.9688 19.1849 19.8505 18.764ZM16.3356 16.2948C16.337 17.2822 17.1299 18.0774 18.1099 18.0746C19.0756 18.0718 19.8713 17.2697 19.8708 16.2985C19.8703 15.3143 19.0761 14.52 18.0938 14.5205C17.1248 14.5209 16.3343 15.3189 16.3356 16.2948Z" fill="#0569FB"/>
<path d="M27.4197 13.2373C29.0942 13.2364 30.4651 14.6115 30.4679 16.2952C30.4711 17.9821 29.0947 19.3563 27.4022 19.3563C25.7489 19.3563 24.3729 17.9683 24.3711 16.2979C24.3692 14.6212 25.7462 13.2387 27.4197 13.2373ZM29.2056 16.2989C29.2065 15.2962 28.4192 14.5047 27.4225 14.507C26.4222 14.5089 25.632 15.2995 25.6339 16.2956C25.6357 17.296 26.4263 18.0907 27.4188 18.0903C28.4164 18.0898 29.2046 17.2997 29.2056 16.2989Z" fill="#0568FB"/>
<path d="M23.4947 15.3998C23.4947 16.6321 23.491 17.8644 23.4988 19.0967C23.4997 19.2695 23.4466 19.3143 23.2849 19.3032C23.0991 19.2903 22.912 19.3018 22.7253 19.3004C22.3308 19.2967 22.1704 19.1369 22.1704 18.7381C22.1695 16.56 22.17 14.3814 22.17 12.2033C22.17 12.0037 22.1732 11.8036 22.1686 11.604C22.1663 11.5107 22.1958 11.4732 22.2933 11.4746C22.6528 11.4788 23.0127 11.4811 23.3722 11.4737C23.5339 11.4705 23.4937 11.5786 23.4937 11.6631C23.4951 12.9084 23.4947 14.1541 23.4947 15.3998Z" fill="#0569FB"/>
<path d="M16.3355 16.2948C16.3341 15.3189 17.1246 14.521 18.0936 14.5205C19.0764 14.52 19.8702 15.3143 19.8706 16.2985C19.8711 17.2697 19.0759 18.0719 18.1097 18.0746C17.1297 18.0774 16.3368 17.2822 16.3355 16.2948Z" fill="#FBFDFE"/>
<path d="M29.2055 16.2987C29.2046 17.2995 28.4168 18.0896 27.4192 18.0901C26.4267 18.0905 25.6361 17.2958 25.6343 16.2955C25.6324 15.2993 26.4225 14.5092 27.4229 14.5068C28.4186 14.5045 29.206 15.296 29.2055 16.2987Z" fill="#FBFDFE"/>
</g>
</svg>
