<svg width="24" height="24" viewBox="0 0 24 24" fill="none" xmlns="http://www.w3.org/2000/svg">
<mask id="mask0_24_11982" style="mask-type:alpha" maskUnits="userSpaceOnUse" x="2" y="2" width="20" height="20">
<path fill-rule="evenodd" clip-rule="evenodd" d="M2 2H21.9999V22H2V2Z" fill="white"/>
</mask>
<g mask="url(#mask0_24_11982)">
<path fill-rule="evenodd" clip-rule="evenodd" d="M7.66406 3.50049C5.13506 3.50049 3.50006 5.23349 3.50006 7.91649V16.0845C3.50006 18.7675 5.13506 20.5005 7.66406 20.5005H16.3321C18.8641 20.5005 20.5001 18.7675 20.5001 16.0845V7.91649C20.5001 5.23349 18.8641 3.50049 16.3341 3.50049H7.66406ZM16.332 22H7.664C4.276 22 2 19.622 2 16.084V7.916C2 4.378 4.276 2 7.664 2H16.334C19.723 2 22 4.378 22 7.916V16.084C22 19.622 19.723 22 16.332 22Z" fill="#F5493A"/>
</g>
<path fill-rule="evenodd" clip-rule="evenodd" d="M11.9939 16.751C11.5799 16.751 11.2439 16.415 11.2439 16.001V12.001C11.2439 11.587 11.5799 11.251 11.9939 11.251C12.4079 11.251 12.7439 11.587 12.7439 12.001V16.001C12.7439 16.415 12.4079 16.751 11.9939 16.751Z" fill="#F5493A"/>
<path fill-rule="evenodd" clip-rule="evenodd" d="M11.9989 9.2041C11.4459 9.2041 10.9939 8.7571 10.9939 8.2041C10.9939 7.6511 11.4369 7.2041 11.9889 7.2041H11.9989C12.5519 7.2041 12.9989 7.6511 12.9989 8.2041C12.9989 8.7571 12.5519 9.2041 11.9989 9.2041Z" fill="#F5493A"/>
</svg>
