<svg width="20" height="18" viewBox="0 0 20 18" fill="none" xmlns="http://www.w3.org/2000/svg">
<path d="M19.6641 6.76922H13.9498C13.8516 6.76922 13.7712 6.84957 13.7712 6.94779V8.01922C13.7712 8.11743 13.8516 8.19779 13.9498 8.19779H19.6641C19.7623 8.19779 19.8427 8.11743 19.8427 8.01922V6.94779C19.8427 6.84957 19.7623 6.76922 19.6641 6.76922ZM16.673 9.80493H13.9498C13.8516 9.80493 13.7712 9.88529 13.7712 9.9835V11.0549C13.7712 11.1531 13.8516 11.2335 13.9498 11.2335H16.673C16.7712 11.2335 16.8516 11.1531 16.8516 11.0549V9.9835C16.8516 9.88529 16.7712 9.80493 16.673 9.80493ZM9.22435 4.77145H8.25783C8.11944 4.77145 8.00783 4.88306 8.00783 5.02145V10.5572C8.00783 10.6375 8.04578 10.7112 8.11051 10.7581L11.4342 13.1822C11.5458 13.2625 11.702 13.2402 11.7824 13.1286L12.356 12.3451V12.3429C12.4364 12.2313 12.4119 12.075 12.3002 11.9947L9.47212 9.95002V5.02145C9.47435 4.88306 9.36051 4.77145 9.22435 4.77145Z" fill="white"/>
<path d="M16.5354 12.6096H15.2452C15.1202 12.6096 15.0019 12.6744 14.9349 12.7815C14.651 13.2315 14.3179 13.6485 13.9416 14.0248C13.2938 14.6747 12.5259 15.1925 11.6805 15.5494C10.8032 15.9199 9.87243 16.1074 8.91261 16.1074C7.95056 16.1074 7.01976 15.9199 6.14476 15.5494C5.29877 15.1922 4.53761 14.6788 3.8836 14.0248C3.22958 13.3708 2.71618 12.6096 2.35904 11.7636C1.98851 10.8886 1.80101 9.95784 1.80101 8.99578C1.80101 8.03373 1.98851 7.10516 2.35904 6.22793C2.71618 5.38194 3.22958 4.62078 3.8836 3.96676C4.53761 3.31275 5.29877 2.79935 6.14476 2.44221C7.01976 2.07167 7.95279 1.88417 8.91261 1.88417C9.87467 1.88417 10.8055 2.07167 11.6805 2.44221C12.5265 2.79935 13.2876 3.31275 13.9416 3.96676C14.3179 4.34303 14.651 4.76004 14.9349 5.21007C15.0019 5.31721 15.1202 5.38194 15.2452 5.38194H16.5354C16.6894 5.38194 16.7876 5.22123 16.7184 5.08507C15.2631 2.18998 12.3122 0.308281 9.01752 0.270334C4.19386 0.210066 0.187166 4.15873 0.178238 8.97793C0.169309 13.8061 4.08226 17.7235 8.91038 17.7235C12.2474 17.7235 15.2474 15.8351 16.7184 12.9065C16.7341 12.8753 16.7415 12.8405 16.74 12.8056C16.7385 12.7707 16.7281 12.7367 16.7097 12.707C16.6914 12.6772 16.6657 12.6527 16.6352 12.6356C16.6047 12.6186 16.5703 12.6096 16.5354 12.6096Z" fill="white"/>
</svg>
