<svg width="86" height="13" viewBox="0 0 86 13" fill="none" xmlns="http://www.w3.org/2000/svg">
<path d="M8.1735 2.208C8.1735 2.26133 8.15217 2.30933 8.1095 2.352C8.0775 2.384 8.03483 2.4 7.9815 2.4H2.5415C2.48817 2.4 2.4615 2.42667 2.4615 2.48V5.472C2.4615 5.52533 2.48817 5.552 2.5415 5.552H6.2055C6.25883 5.552 6.3015 5.57333 6.3335 5.616C6.37617 5.648 6.3975 5.69067 6.3975 5.744V6.96C6.3975 7.01333 6.37617 7.06133 6.3335 7.104C6.3015 7.136 6.25883 7.152 6.2055 7.152H2.5415C2.48817 7.152 2.4615 7.17867 2.4615 7.232V11.808C2.4615 11.8613 2.44017 11.9093 2.3975 11.952C2.3655 11.984 2.32283 12 2.2695 12H0.7975C0.744167 12 0.696167 11.984 0.6535 11.952C0.6215 11.9093 0.6055 11.8613 0.6055 11.808V0.992C0.6055 0.938666 0.6215 0.896 0.6535 0.863999C0.696167 0.821333 0.744167 0.799999 0.7975 0.799999H7.9815C8.03483 0.799999 8.0775 0.821333 8.1095 0.863999C8.15217 0.896 8.1735 0.938666 8.1735 0.992V2.208ZM15.4714 12C15.3647 12 15.2954 11.9467 15.2634 11.84L14.7354 10.128C14.714 10.0853 14.6874 10.064 14.6554 10.064H10.4314C10.3994 10.064 10.3727 10.0853 10.3514 10.128L9.82338 11.84C9.79138 11.9467 9.72204 12 9.61538 12H8.01538C7.95138 12 7.90338 11.984 7.87138 11.952C7.83938 11.9093 7.83404 11.8507 7.85538 11.776L11.3274 0.959999C11.3594 0.853333 11.4287 0.799999 11.5354 0.799999H13.5354C13.642 0.799999 13.7114 0.853333 13.7434 0.959999L17.2314 11.776C17.242 11.7973 17.2474 11.824 17.2474 11.856C17.2474 11.952 17.1887 12 17.0714 12H15.4714ZM10.8474 8.512C10.8367 8.576 10.858 8.608 10.9114 8.608H14.1594C14.2234 8.608 14.2447 8.576 14.2234 8.512L12.5754 3.152C12.5647 3.10933 12.5487 3.088 12.5274 3.088C12.506 3.088 12.49 3.10933 12.4794 3.152L10.8474 8.512ZM22.3651 12.128C21.5651 12.128 20.8611 11.9733 20.2531 11.664C19.6451 11.344 19.1758 10.9013 18.8451 10.336C18.5145 9.77067 18.3491 9.11467 18.3491 8.368V4.416C18.3491 3.66933 18.5145 3.01333 18.8451 2.448C19.1758 1.88267 19.6451 1.44533 20.2531 1.136C20.8611 0.826667 21.5651 0.672 22.3651 0.672C23.1545 0.672 23.8531 0.821333 24.4611 1.12C25.0691 1.41867 25.5385 1.84 25.8691 2.384C26.1998 2.928 26.3651 3.55733 26.3651 4.272C26.3651 4.32533 26.3438 4.37333 26.3011 4.416C26.2691 4.448 26.2265 4.464 26.1731 4.464L24.7011 4.544C24.5731 4.544 24.5091 4.48533 24.5091 4.368C24.5091 3.73867 24.3118 3.232 23.9171 2.848C23.5331 2.464 23.0158 2.272 22.3651 2.272C21.7145 2.272 21.1918 2.464 20.7971 2.848C20.4025 3.232 20.2051 3.73867 20.2051 4.368V8.448C20.2051 9.06667 20.4025 9.568 20.7971 9.952C21.1918 10.336 21.7145 10.528 22.3651 10.528C23.0158 10.528 23.5331 10.3413 23.9171 9.968C24.3118 9.584 24.5091 9.07733 24.5091 8.448C24.5091 8.33067 24.5731 8.272 24.7011 8.272L26.1731 8.336C26.2265 8.336 26.2691 8.352 26.3011 8.384C26.3438 8.416 26.3651 8.45333 26.3651 8.496C26.3651 9.22133 26.1998 9.86133 25.8691 10.416C25.5385 10.96 25.0691 11.3813 24.4611 11.68C23.8531 11.9787 23.1545 12.128 22.3651 12.128Z" fill="#FFBA52"/>
<path d="M35.3026 12.128C34.5026 12.128 33.7986 11.9733 33.1906 11.664C32.5826 11.344 32.1133 10.896 31.7826 10.32C31.452 9.744 31.2866 9.08267 31.2866 8.336V4.464C31.2866 3.70667 31.452 3.04533 31.7826 2.48C32.1133 1.904 32.5826 1.46133 33.1906 1.152C33.7986 0.832 34.5026 0.672 35.3026 0.672C36.092 0.672 36.7853 0.826667 37.3826 1.136C37.9906 1.44533 38.46 1.86667 38.7906 2.4C39.1213 2.93333 39.2866 3.536 39.2866 4.208V4.336C39.2866 4.38933 39.2653 4.43733 39.2226 4.48C39.1906 4.512 39.148 4.528 39.0946 4.528H37.6386C37.5853 4.528 37.5373 4.512 37.4946 4.48C37.4626 4.43733 37.4466 4.38933 37.4466 4.336V4.256C37.4466 3.68 37.2493 3.20533 36.8546 2.832C36.4706 2.45867 35.9533 2.272 35.3026 2.272C34.652 2.272 34.1293 2.46933 33.7346 2.864C33.34 3.248 33.1426 3.76 33.1426 4.4V8.4C33.1426 9.04 33.3506 9.55733 33.7666 9.952C34.1826 10.336 34.7213 10.528 35.3826 10.528C36.0226 10.528 36.524 10.3627 36.8866 10.032C37.26 9.69067 37.4466 9.22667 37.4466 8.64V7.648C37.4466 7.59467 37.42 7.568 37.3666 7.568H35.3986C35.3453 7.568 35.2973 7.552 35.2546 7.52C35.2226 7.47733 35.2066 7.42933 35.2066 7.376V6.192C35.2066 6.13867 35.2226 6.096 35.2546 6.064C35.2973 6.02133 35.3453 6 35.3986 6H39.0946C39.148 6 39.1906 6.02133 39.2226 6.064C39.2653 6.096 39.2866 6.13867 39.2866 6.192V8.24C39.2866 9.46667 38.924 10.4213 38.1986 11.104C37.484 11.7867 36.5186 12.128 35.3026 12.128ZM48.1589 12C48.0522 12 47.9829 11.9467 47.9509 11.84L47.4229 10.128C47.4015 10.0853 47.3749 10.064 47.3429 10.064H43.1189C43.0869 10.064 43.0602 10.0853 43.0389 10.128L42.5109 11.84C42.4789 11.9467 42.4095 12 42.3029 12H40.7029C40.6389 12 40.5909 11.984 40.5589 11.952C40.5269 11.9093 40.5215 11.8507 40.5429 11.776L44.0149 0.959999C44.0469 0.853333 44.1162 0.799999 44.2229 0.799999H46.2229C46.3295 0.799999 46.3989 0.853333 46.4309 0.959999L49.9189 11.776C49.9295 11.7973 49.9349 11.824 49.9349 11.856C49.9349 11.952 49.8762 12 49.7589 12H48.1589ZM43.5349 8.512C43.5242 8.576 43.5455 8.608 43.5989 8.608H46.8469C46.9109 8.608 46.9322 8.576 46.9109 8.512L45.2629 3.152C45.2522 3.10933 45.2362 3.088 45.2149 3.088C45.1935 3.088 45.1775 3.10933 45.1669 3.152L43.5349 8.512ZM58.8059 0.927999C58.8592 0.842666 58.9339 0.799999 59.0299 0.799999H60.5019C60.5552 0.799999 60.5979 0.821333 60.6299 0.863999C60.6725 0.896 60.6939 0.938666 60.6939 0.992V11.808C60.6939 11.8613 60.6725 11.9093 60.6299 11.952C60.5979 11.984 60.5552 12 60.5019 12H59.0299C58.9765 12 58.9285 11.984 58.8859 11.952C58.8539 11.9093 58.8379 11.8613 58.8379 11.808V4.176C58.8379 4.144 58.8219 4.12267 58.7899 4.112C58.7685 4.10133 58.7525 4.112 58.7419 4.144L56.7419 7.216C56.6885 7.30133 56.6139 7.344 56.5179 7.344H55.7819C55.6859 7.344 55.6112 7.30133 55.5579 7.216L53.5419 4.16C53.5312 4.128 53.5099 4.11733 53.4779 4.128C53.4565 4.13867 53.4459 4.16 53.4459 4.192V11.808C53.4459 11.8613 53.4245 11.9093 53.3819 11.952C53.3499 11.984 53.3072 12 53.2539 12H51.7819C51.7285 12 51.6805 11.984 51.6379 11.952C51.6059 11.9093 51.5899 11.8613 51.5899 11.808V0.992C51.5899 0.938666 51.6059 0.896 51.6379 0.863999C51.6805 0.821333 51.7285 0.799999 51.7819 0.799999H53.2539C53.3499 0.799999 53.4245 0.842666 53.4779 0.927999L56.0859 4.88C56.1072 4.90133 56.1285 4.912 56.1499 4.912C56.1712 4.912 56.1872 4.90133 56.1979 4.88L58.8059 0.927999ZM63.2194 12C63.166 12 63.118 11.984 63.0754 11.952C63.0434 11.9093 63.0274 11.8613 63.0274 11.808V0.992C63.0274 0.938666 63.0434 0.896 63.0754 0.863999C63.118 0.821333 63.166 0.799999 63.2194 0.799999H64.6914C64.7447 0.799999 64.7874 0.821333 64.8194 0.863999C64.862 0.896 64.8834 0.938666 64.8834 0.992V11.808C64.8834 11.8613 64.862 11.9093 64.8194 11.952C64.7874 11.984 64.7447 12 64.6914 12H63.2194ZM73.7269 0.992C73.7269 0.938666 73.7429 0.896 73.7749 0.863999C73.8175 0.821333 73.8655 0.799999 73.9189 0.799999H75.3909C75.4442 0.799999 75.4869 0.821333 75.5189 0.863999C75.5615 0.896 75.5829 0.938666 75.5829 0.992V11.808C75.5829 11.8613 75.5615 11.9093 75.5189 11.952C75.4869 11.984 75.4442 12 75.3909 12H73.9669C73.8602 12 73.7855 11.9573 73.7429 11.872L69.1349 4.32C69.1135 4.288 69.0922 4.27733 69.0709 4.288C69.0495 4.288 69.0389 4.30933 69.0389 4.352L69.0709 11.808C69.0709 11.8613 69.0495 11.9093 69.0069 11.952C68.9749 11.984 68.9322 12 68.8789 12H67.4069C67.3535 12 67.3055 11.984 67.2629 11.952C67.2309 11.9093 67.2149 11.8613 67.2149 11.808V0.992C67.2149 0.938666 67.2309 0.896 67.2629 0.863999C67.3055 0.821333 67.3535 0.799999 67.4069 0.799999H68.8309C68.9375 0.799999 69.0122 0.842666 69.0549 0.927999L73.6469 8.48C73.6682 8.512 73.6895 8.528 73.7109 8.528C73.7322 8.51733 73.7429 8.49067 73.7429 8.448L73.7269 0.992ZM81.662 12.128C80.862 12.128 80.158 11.9733 79.55 11.664C78.942 11.344 78.4727 10.896 78.142 10.32C77.8113 9.744 77.646 9.08267 77.646 8.336V4.464C77.646 3.70667 77.8113 3.04533 78.142 2.48C78.4727 1.904 78.942 1.46133 79.55 1.152C80.158 0.832 80.862 0.672 81.662 0.672C82.4513 0.672 83.1447 0.826667 83.742 1.136C84.35 1.44533 84.8193 1.86667 85.15 2.4C85.4807 2.93333 85.646 3.536 85.646 4.208V4.336C85.646 4.38933 85.6247 4.43733 85.582 4.48C85.55 4.512 85.5073 4.528 85.454 4.528H83.998C83.9447 4.528 83.8967 4.512 83.854 4.48C83.822 4.43733 83.806 4.38933 83.806 4.336V4.256C83.806 3.68 83.6087 3.20533 83.214 2.832C82.83 2.45867 82.3127 2.272 81.662 2.272C81.0113 2.272 80.4887 2.46933 80.094 2.864C79.6993 3.248 79.502 3.76 79.502 4.4V8.4C79.502 9.04 79.71 9.55733 80.126 9.952C80.542 10.336 81.0807 10.528 81.742 10.528C82.382 10.528 82.8833 10.3627 83.246 10.032C83.6193 9.69067 83.806 9.22667 83.806 8.64V7.648C83.806 7.59467 83.7793 7.568 83.726 7.568H81.758C81.7047 7.568 81.6567 7.552 81.614 7.52C81.582 7.47733 81.566 7.42933 81.566 7.376V6.192C81.566 6.13867 81.582 6.096 81.614 6.064C81.6567 6.02133 81.7047 6 81.758 6H85.454C85.5073 6 85.55 6.02133 85.582 6.064C85.6247 6.096 85.646 6.13867 85.646 6.192V8.24C85.646 9.46667 85.2833 10.4213 84.558 11.104C83.8433 11.7867 82.878 12.128 81.662 12.128Z" fill="white"/>
</svg>
