<svg width="10" height="14" viewBox="0 0 10 14" fill="none" xmlns="http://www.w3.org/2000/svg">
<path d="M9.03036 6.55042L0.980359 0.262918C0.959324 0.246358 0.934044 0.236066 0.907424 0.233226C0.880803 0.230385 0.853922 0.23511 0.829866 0.246858C0.80581 0.258606 0.785555 0.276901 0.771428 0.299642C0.757301 0.322383 0.749875 0.348647 0.750002 0.375418V1.75578C0.750002 1.84328 0.791073 1.9272 0.85893 1.98078L7.2875 7.00042L0.85893 12.0201C0.789287 12.0736 0.750002 12.1576 0.750002 12.2451V13.6254C0.750002 13.7451 0.887502 13.8111 0.980359 13.7379L9.03036 7.45042C9.09878 7.39705 9.15413 7.32878 9.1922 7.2508C9.23027 7.17282 9.25005 7.08719 9.25005 7.00042C9.25005 6.91364 9.23027 6.82801 9.1922 6.75004C9.15413 6.67206 9.09878 6.60379 9.03036 6.55042Z" fill="#FFFFFF"/>
</svg>
