<svg width="24" height="24" viewBox="0 0 24 24" fill="none" xmlns="http://www.w3.org/2000/svg">
<path d="M20.1818 8.36297C20.664 8.36297 21.1265 8.55454 21.4675 8.89553C21.8084 9.23652 22 9.699 22 10.1812V13.8178C22 14.3 21.8084 14.7625 21.4675 15.1035C21.1265 15.4445 20.664 15.6361 20.1818 15.6361H19.2164C18.9947 17.3937 18.1393 19.01 16.8107 20.1817C15.482 21.3534 13.7715 22 12 22V20.1817C13.4466 20.1817 14.834 19.607 15.8569 18.5841C16.8799 17.5611 17.4545 16.1736 17.4545 14.7269V9.27211C17.4545 7.8254 16.8799 6.43795 15.8569 5.41497C14.834 4.39199 13.4466 3.81729 12 3.81729C10.5534 3.81729 9.16598 4.39199 8.14305 5.41497C7.12013 6.43795 6.54545 7.8254 6.54545 9.27211V15.6361H3.81818C3.33597 15.6361 2.87351 15.4445 2.53253 15.1035C2.19156 14.7625 2 14.3 2 13.8178V10.1812C2 9.699 2.19156 9.23652 2.53253 8.89553C2.87351 8.55454 3.33597 8.36297 3.81818 8.36297H4.78364C5.00548 6.60552 5.86098 4.98942 7.18961 3.81791C8.51824 2.6464 10.2287 2 12 2C13.7713 2 15.4818 2.6464 16.8104 3.81791C18.139 4.98942 18.9945 6.60552 19.2164 8.36297H20.1818ZM8.14546 15.4406L9.10909 13.8987C9.97552 14.4415 10.9776 14.7286 12 14.7269C13.0224 14.7286 14.0245 14.4415 14.8909 13.8987L15.8545 15.4406C14.6993 16.1644 13.3632 16.5473 12 16.5452C10.6368 16.5473 9.30067 16.1644 8.14546 15.4406Z" fill="#F5493A"/>
</svg>
