<svg width="375" height="822" viewBox="0 0 375 822" fill="none" xmlns="http://www.w3.org/2000/svg">
<mask id="mask0_1628_79687" style="mask-type:alpha" maskUnits="userSpaceOnUse" x="0" y="0" width="375" height="822">
<rect width="375" height="822" fill="url(#paint0_linear_1628_79687)"/>
<rect x="2" y="2" width="371" height="818" stroke="#F99B10" stroke-opacity="0.5" stroke-width="4"/>
</mask>
<g mask="url(#mask0_1628_79687)">
<g style="mix-blend-mode:overlay" opacity="0.3">
<g style="mix-blend-mode:color-dodge" opacity="0.7">
<g style="mix-blend-mode:overlay" opacity="0.7">
<path d="M187.756 781.744C187.756 781.885 187.641 782 187.5 782C178.341 782 169.112 781.728 159.959 781.19C155.547 780.93 152.248 777.078 152.585 772.672L186.776 325.725C186.79 325.533 186.938 325.389 187.13 325.396C187.325 325.403 187.5 325.561 187.5 325.756L187.756 781.744ZM231.983 779.873C227.585 780.296 223.733 776.999 223.387 772.594L188.242 325.64C188.23 325.497 188.342 325.372 188.485 325.355C188.625 325.338 188.751 325.434 188.773 325.573L258.744 768.419C259.433 772.784 256.454 776.888 252.077 777.501C245.407 778.435 238.689 779.228 231.983 779.873ZM117.188 768.565C116.511 772.933 112.418 775.93 108.064 775.174C101.365 774.011 94.6708 772.694 88.041 771.236C83.7285 770.287 81.0785 765.968 82.1007 761.672L185.953 325.252L117.188 768.565ZM303.536 767.266C299.258 768.373 294.936 765.721 293.902 761.425L189.001 325.264L328.255 751.719C329.627 755.921 327.334 760.446 323.108 761.74C316.638 763.722 310.096 765.568 303.536 767.266ZM47.6134 751.994C46.2566 756.204 41.7393 758.52 37.5556 757.086C31.1424 754.887 24.7544 752.542 18.4466 750.067C14.334 748.453 12.3928 743.769 14.0785 739.686L185.243 325.02L47.6134 751.994ZM372.195 743.586C368.145 745.352 363.461 743.411 361.767 739.33L189.757 325.02L394.275 724.291C396.292 728.228 394.734 733.06 390.76 735.003C384.643 737.994 378.437 740.865 372.195 743.586ZM-18.4961 724.698C-20.5005 728.636 -25.3216 730.21 -29.2242 728.137C-35.1884 724.97 -41.1065 721.661 -46.9258 718.24C-50.7353 716 -51.9184 711.068 -49.6117 707.299L184.413 324.875C184.487 324.755 184.639 324.714 184.762 324.781C184.885 324.849 184.937 325.003 184.873 325.128L-18.4961 724.698ZM436.243 709.447C432.519 711.825 427.589 710.642 425.276 706.877L190.49 324.624L454.964 686.975C457.57 690.546 456.79 695.56 453.172 698.101C447.617 702.003 441.958 705.796 436.243 709.447ZM-79.2561 687.516C-81.8494 691.091 -86.8542 691.894 -90.3842 689.239C-95.7884 685.174 -101.123 680.973 -106.342 676.676C-109.753 673.868 -110.15 668.813 -107.284 665.451L183.61 324.272C183.696 324.172 183.85 324.163 183.953 324.244C184.051 324.321 184.069 324.459 183.996 324.56L-79.2561 687.516ZM494.02 665.838C490.712 668.765 485.659 668.363 482.789 665.005L191.339 323.996L509.001 640.748C512.131 643.869 512.141 648.943 508.963 652.015C504.088 656.729 499.092 661.35 494.02 665.838ZM-133.439 641.318C-136.559 644.447 -141.629 644.458 -144.703 641.284C-149.382 636.453 -153.97 631.503 -158.432 626.477C-161.365 623.173 -160.972 618.118 -157.618 615.242L182.733 323.462C182.855 323.358 183.035 323.367 183.142 323.486C183.252 323.608 183.253 323.799 183.138 323.915L-133.439 641.318ZM544.267 613.825C541.455 617.232 536.4 617.621 533.043 614.749L192.153 323.158L555.205 586.651C558.784 589.248 559.582 594.261 556.919 597.792C552.824 603.221 548.596 608.582 544.267 613.825ZM-179.702 587.371C-183.271 589.976 -188.282 589.199 -190.826 585.586C-194.712 580.066 -198.49 574.444 -202.127 568.768C-204.509 565.048 -203.333 560.117 -199.573 557.8L182.116 322.565C182.231 322.494 182.377 322.522 182.453 322.634C182.53 322.747 182.512 322.911 182.401 322.992L-179.702 587.371ZM585.849 554.556C583.601 558.358 578.669 559.528 574.907 557.215L192.758 322.274L592.482 525.888C596.418 527.893 597.991 532.712 595.917 536.613C592.698 542.665 589.331 548.665 585.849 554.556ZM-217.059 526.735C-220.99 528.753 -225.821 527.204 -227.769 523.237C-230.789 517.087 -233.682 510.851 -236.42 504.584C-238.188 500.535 -236.25 495.851 -232.172 494.154L182.01 321.832L-217.059 526.735ZM617.834 489.134C616.214 493.245 611.526 495.179 607.445 493.487L195.398 322.618C195.222 322.545 195.032 322.508 194.842 322.511L193.86 322.524C193.618 322.528 193.421 322.333 193.421 322.091C193.421 321.914 193.313 321.754 193.148 321.688L193.072 321.658C193.244 321.715 193.421 321.587 193.421 321.406C193.421 321.341 193.421 321.275 193.421 321.208C193.421 321.124 193.363 321.05 193.281 321.03C193.354 321.042 193.421 320.986 193.421 320.911C193.421 320.708 193.421 320.505 193.421 320.302C193.421 320.293 193.414 320.285 193.404 320.285C193.395 320.285 193.387 320.277 193.388 320.267C193.409 320.087 193.409 319.907 193.409 319.727C193.409 319.421 193.409 319.103 193.409 318.796C193.409 318.783 193.399 318.773 193.386 318.773C193.399 318.773 193.409 318.763 193.409 318.75C193.409 318.712 193.409 318.675 193.409 318.639C193.409 318.565 193.469 318.505 193.543 318.505H194.948C195.031 318.505 195.114 318.499 195.195 318.485L636.163 246.728C640.527 246.018 644.647 248.982 645.276 253.359C646.237 260.048 647.058 266.794 647.729 273.534C648.167 277.931 644.882 281.795 640.478 282.156L196.724 318.505H647.987C649.095 318.505 649.99 317.601 649.977 316.493L650 319.517C650 328.803 649.719 338.181 649.162 347.491C648.898 351.902 645.044 355.197 640.638 354.857L218.291 322.216C216.629 322.238 216.457 324.654 218.099 324.911L636.511 390.23C640.877 390.911 643.87 395.005 643.11 399.358C641.935 406.09 640.604 412.82 639.128 419.489C638.174 423.802 633.852 426.448 629.557 425.42L199.318 322.477C199.272 322.466 199.225 322.461 199.177 322.461C198.53 322.47 198.393 323.378 199.009 323.578L619.869 459.792C624.077 461.154 626.388 465.674 624.948 469.856C622.723 476.317 620.345 482.764 617.834 489.134ZM-244.547 460.779C-248.748 462.155 -253.275 459.866 -254.576 455.641C-256.582 449.122 -258.451 442.54 -260.166 435.948C-261.278 431.672 -258.629 427.348 -254.334 426.311L181.742 321.111L-244.547 460.779ZM-261.324 391.324C-265.689 392.024 -269.802 389.052 -270.421 384.674C-271.368 377.981 -272.171 371.235 -272.827 364.492C-273.255 360.093 -269.962 356.236 -265.556 355.884L181.614 320.239L-261.324 391.324ZM-nan -nanL181.591 320.006H-274.488C-274.771 320.006 -275 319.777 -275 319.494C-275 310.565 -274.737 301.54 -274.223 292.572C-273.97 288.159 -270.123 284.853 -265.715 285.183L180.824 318.632C181.266 318.665 181.591 319.051 181.591 319.494V320.006L-nan -nanZM181.742 317.97L-261.645 249.765C-266.013 249.093 -269.016 245.004 -268.266 240.648C-267.107 233.922 -265.795 227.196 -264.34 220.532C-263.398 216.215 -259.08 213.557 -254.781 214.575L181.742 317.97ZM193.235 317.912L619.228 177.284C623.425 175.898 627.957 178.177 629.266 182.398C631.281 188.893 633.161 195.465 634.891 202.054C636.013 206.329 633.374 210.66 629.08 211.707L193.235 317.912ZM181.94 317.342L-245.174 180.165C-249.382 178.814 -251.704 174.304 -250.276 170.122C-248.068 163.655 -245.706 157.21 -243.213 150.842C-241.601 146.726 -236.917 144.779 -232.83 146.463L181.94 317.342ZM193.288 317.242C193.156 317.297 193.001 317.232 192.942 317.101C192.884 316.973 192.937 316.826 193.062 316.762L591.646 111.494C595.574 109.471 600.406 111.013 602.36 114.976C605.337 121.013 608.194 127.137 610.907 133.296C612.688 137.34 610.765 142.032 606.691 143.741L193.288 317.242ZM182.203 316.785C182.13 316.91 181.972 316.962 181.844 316.897L-217.922 113.928C-221.86 111.928 -223.439 107.112 -221.371 103.21C-218.21 97.2422 -214.902 91.3202 -211.48 85.4943C-209.243 81.6852 -204.314 80.4989 -200.543 82.8011L182.118 316.449C182.233 316.519 182.271 316.669 182.203 316.785ZM192.957 316.455C192.808 316.547 192.61 316.495 192.513 316.349C192.416 316.205 192.452 316.015 192.592 315.912L554.153 50.908C557.717 48.2959 562.729 49.0637 565.278 52.6726C569.142 58.1426 572.904 63.7195 576.534 69.3551C578.928 73.0707 577.765 78.008 574.008 80.336L192.957 316.455ZM182.742 315.98C182.645 316.1 182.48 316.118 182.355 316.028L-180.757 53.0908C-184.334 50.5 -185.141 45.4953 -182.488 41.9631C-178.452 36.5878 -174.279 31.2772 -170.007 26.0754C-167.203 22.6604 -162.148 22.2565 -158.782 25.1192L182.717 315.558C182.839 315.662 182.842 315.855 182.742 315.98ZM192.341 315.583C192.205 315.7 191.992 315.675 191.869 315.543C191.747 315.412 191.755 315.215 191.882 315.087L507.71 -3.02911C510.822 -6.16344 515.89 -6.18791 518.971 -3.02304C523.642 1.77525 528.228 6.69724 532.69 11.7008C535.629 14.9968 535.247 20.0498 531.902 22.9328L192.341 315.583ZM183.626 315.039L-134.687 -1.06131C-137.824 -4.17627 -137.844 -9.25009 -134.673 -12.33C-129.807 -17.0558 -124.824 -21.6885 -119.765 -26.1854C-116.464 -29.1199 -111.41 -28.7285 -108.534 -25.3767L183.626 315.039ZM191.447 314.697C191.336 314.828 191.148 314.85 191.012 314.745C190.873 314.638 190.83 314.434 190.932 314.292L453.555 -49.006C456.143 -52.5866 461.149 -53.3966 464.683 -50.7462C470.051 -46.722 475.347 -42.5689 480.531 -38.3251C483.951 -35.5247 484.363 -30.4677 481.502 -27.0972L191.447 314.697ZM184.441 314.411L-80.8011 -47.3827C-83.4142 -50.9471 -82.646 -55.961 -79.0353 -58.5097C-73.4638 -62.4425 -67.7881 -66.2631 -62.0595 -69.9365C-58.3409 -72.3211 -53.4094 -71.1469 -51.0901 -67.3873L184.441 314.411ZM190.408 314.318L392.586 -86.1354C394.579 -90.0819 399.398 -91.6703 403.307 -89.6055C409.293 -86.4443 415.233 -83.138 421.08 -79.7152C424.894 -77.4827 426.087 -72.5533 423.788 -68.7792L190.408 314.318ZM189.768 313.98L326.427 -113.304C327.774 -117.516 332.285 -119.843 336.472 -118.418C342.879 -116.236 349.266 -113.906 355.579 -111.445C359.696 -109.84 361.649 -105.161 359.972 -101.073L189.768 313.98ZM185.301 313.957L-20.1114 -84.8511C-22.1356 -88.781 -20.5917 -93.6142 -16.6252 -95.5659C-10.5549 -98.5528 -4.3945 -101.418 1.79919 -104.136C5.84558 -105.912 10.5359 -103.983 12.2406 -99.9061L185.301 313.957ZM185.918 313.759L45.7611 -112.397C44.3799 -116.596 46.6649 -121.127 50.889 -122.432C57.3853 -124.438 63.9503 -126.31 70.5268 -128.029C74.8016 -129.146 79.1287 -126.502 80.1702 -122.209L185.918 313.759ZM189.024 313.748L256.817 -129.712C257.485 -134.082 261.571 -137.089 265.928 -136.341C272.635 -135.191 279.338 -133.889 285.979 -132.447C290.298 -131.509 292.962 -127.194 291.948 -122.892L189.024 313.748ZM186.756 313.62C186.492 313.657 186.245 313.466 186.202 313.204L115.239 -129.252C114.539 -133.614 117.507 -137.724 121.88 -138.347C128.554 -139.299 135.277 -140.108 141.99 -140.77C146.389 -141.204 150.251 -137.915 150.608 -133.509L186.721 313.224V-142.232C186.721 -142.656 187.064 -143 187.488 -143C196.306 -143 205.214 -142.746 214.052 -142.244C218.464 -141.993 221.77 -138.148 221.442 -133.741L188.188 312.97C188.161 313.331 187.85 313.597 187.488 313.597L186.756 313.62Z" fill="url(#paint1_radial_1628_79687)"/>
</g>
</g>
</g>
</g>
<defs>
<linearGradient id="paint0_linear_1628_79687" x1="187.5" y1="0" x2="187.5" y2="672.707" gradientUnits="userSpaceOnUse">
<stop offset="0.297226" stop-color="#FFCA7A"/>
<stop offset="1" stop-color="#FBA21D"/>
</linearGradient>
<radialGradient id="paint1_radial_1628_79687" cx="0" cy="0" r="1" gradientUnits="userSpaceOnUse" gradientTransform="translate(194.428 267.603) scale(602.174 602.182)">
<stop stop-color="white"/>
<stop offset="1" stop-color="white" stop-opacity="0"/>
</radialGradient>
</defs>
</svg>
