<svg width="32" height="32" viewBox="0 0 32 32" fill="none" xmlns="http://www.w3.org/2000/svg">
<circle cx="16" cy="16" r="15.6667" fill="#2AABEE" stroke="#2AABEE" stroke-width="0.666667"/>
<path fill-rule="evenodd" clip-rule="evenodd" d="M6.94124 14.9799C11.6919 12.9101 14.8598 11.5456 16.4449 10.8863C20.9705 9.00392 21.9109 8.67693 22.5239 8.66613C22.6587 8.66376 22.9601 8.69717 23.1554 8.8556C23.3202 8.98937 23.3656 9.17009 23.3873 9.29692C23.409 9.42376 23.436 9.71269 23.4145 9.93845C23.1693 12.5153 22.1081 18.7686 21.5682 21.6547C21.3398 22.8759 20.89 23.2853 20.4545 23.3254C19.5082 23.4125 18.7896 22.7 17.873 22.0992C16.4387 21.159 15.6284 20.5737 14.2362 19.6562C12.6272 18.596 13.6702 18.0132 14.5872 17.0608C14.8271 16.8116 18.9968 13.019 19.0775 12.6749C19.0876 12.6319 19.097 12.4715 19.0017 12.3868C18.9064 12.3021 18.7658 12.3311 18.6643 12.3541C18.5204 12.3868 16.2291 13.9012 11.7904 16.8975C11.14 17.3441 10.5509 17.5617 10.0231 17.5503C9.44128 17.5377 8.32201 17.2213 7.48994 16.9508C6.46939 16.6191 5.65827 16.4437 5.7289 15.8803C5.76569 15.5868 6.1698 15.2867 6.94124 14.9799Z" fill="white"/>
</svg>
