<svg width="32" height="32" viewBox="0 0 32 32" fill="none" xmlns="http://www.w3.org/2000/svg">
<circle cx="16" cy="16" r="16" fill="url(#paint0_linear_24_11409)"/>
<g filter="url(#filter0_d_24_11409)">
<path d="M16.0135 9.33398C12.1402 9.33398 9.3335 12.494 9.3335 16.0007C9.3335 17.1207 9.66016 18.274 10.2335 19.3273C10.3402 19.5007 10.3535 19.7207 10.2802 19.9273L9.8335 21.4207C9.7335 21.7807 10.0402 22.0473 10.3802 21.9407L11.7268 21.5407C12.0935 21.4207 12.3802 21.574 12.7208 21.7807C13.6942 22.354 14.9068 22.6473 16.0002 22.6473C19.3068 22.6473 22.6668 20.094 22.6668 15.9807C22.6668 12.434 19.8002 9.33398 16.0135 9.33398" fill="white"/>
</g>
<path fill-rule="evenodd" clip-rule="evenodd" d="M12.9136 16.86C12.447 16.86 12.0603 16.4733 12.0603 16.0067C12.0603 15.5333 12.4403 15.1533 12.9136 15.1533C13.387 15.1533 13.767 15.5333 13.767 16.0067C13.767 16.4733 13.387 16.8533 12.9136 16.86ZM15.9872 16.8601C15.5139 16.8534 15.1339 16.4734 15.1339 16.0001C15.1339 15.5334 15.5205 15.1467 15.9872 15.1534C16.4605 15.1534 16.8405 15.5334 16.8405 16.0067C16.8405 16.4734 16.4605 16.8601 15.9872 16.8601ZM18.2071 16.0067C18.2071 16.4733 18.5871 16.86 19.0604 16.86C19.5338 16.86 19.9138 16.4733 19.9138 16.0067C19.9138 15.5333 19.5338 15.1533 19.0604 15.1533C18.5871 15.1533 18.2071 15.5333 18.2071 16.0067Z" fill="#F5493A"/>
<defs>
<filter id="filter0_d_24_11409" x="9.3335" y="9.33398" width="14.6666" height="14.6468" filterUnits="userSpaceOnUse" color-interpolation-filters="sRGB">
<feFlood flood-opacity="0" result="BackgroundImageFix"/>
<feColorMatrix in="SourceAlpha" type="matrix" values="0 0 0 0 0 0 0 0 0 0 0 0 0 0 0 0 0 0 127 0" result="hardAlpha"/>
<feOffset dx="0.666667" dy="0.666667"/>
<feGaussianBlur stdDeviation="0.333333"/>
<feComposite in2="hardAlpha" operator="out"/>
<feColorMatrix type="matrix" values="0 0 0 0 0 0 0 0 0 0 0 0 0 0 0 0 0 0 0.16 0"/>
<feBlend mode="normal" in2="BackgroundImageFix" result="effect1_dropShadow_24_11409"/>
<feBlend mode="normal" in="SourceGraphic" in2="effect1_dropShadow_24_11409" result="shape"/>
</filter>
<linearGradient id="paint0_linear_24_11409" x1="17.0667" y1="29.3333" x2="17.0667" y2="2.4" gradientUnits="userSpaceOnUse">
<stop stop-color="#C72114"/>
<stop offset="1" stop-color="#F5493A"/>
</linearGradient>
</defs>
</svg>
