<svg width="24" height="24" viewBox="0 0 24 24" fill="none" xmlns="http://www.w3.org/2000/svg">
<circle cx="12" cy="12" r="12" fill="#F8EAE8"/>
<path d="M17.3333 12.1829C17.3333 12.436 17.1451 12.6452 16.9011 12.6783L16.8333 12.6829L6.83325 12.6829C6.55711 12.6829 6.33325 12.459 6.33325 12.1829C6.33325 11.9297 6.52136 11.7205 6.76541 11.6874L6.83325 11.6829L16.8333 11.6829C17.1094 11.6829 17.3333 11.9067 17.3333 12.1829Z" fill="#C72114"/>
<path d="M11.2192 15.8448C11.4149 16.0396 11.4156 16.3562 11.2208 16.5519C11.0436 16.7298 10.7659 16.7465 10.5698 16.6017L10.5137 16.5534L6.48033 12.5374C6.30191 12.3598 6.28568 12.081 6.43164 11.885L6.4803 11.8288L10.5136 7.81216C10.7093 7.6173 11.0259 7.61796 11.2207 7.81362C11.3979 7.9915 11.4134 8.26931 11.2678 8.46475L11.2193 8.52073L7.54192 12.1833L11.2192 15.8448Z" fill="#C72114"/>
</svg>
