<svg width="100" height="40" viewBox="0 0 100 40" fill="none" xmlns="http://www.w3.org/2000/svg">
<g clip-path="url(#clip0_6_21144)">
<path fill-rule="evenodd" clip-rule="evenodd" d="M15.4801 19.3211H25.9283C26.0068 19.3211 26.0711 19.3854 26.0711 19.464V20.5354C26.0711 20.614 26.0068 20.6783 25.9283 20.6783H15.4801L21.7318 26.1069C21.8318 26.1926 21.7711 26.3569 21.639 26.3569H20.0051C19.9711 26.3569 19.939 26.3444 19.9122 26.3212L13.1247 20.4301C13.0629 20.3765 13.0133 20.3103 12.9794 20.2359C12.9454 20.1615 12.9278 20.0806 12.9278 19.9988C12.9278 19.917 12.9454 19.8362 12.9794 19.7618C13.0133 19.6874 13.0629 19.6212 13.1247 19.5676L19.8729 13.7122C19.9247 13.6676 19.9908 13.6426 20.0604 13.6426H21.6408C21.7729 13.6426 21.8336 13.8051 21.7336 13.8926L15.4801 19.3211ZM104.389 401.333C170.172 401.333 223.5 348.005 223.5 282.222C223.5 216.439 170.172 163.111 104.389 163.111C38.6057 163.111 -14.7222 216.439 -14.7222 282.222C-14.7222 348.005 38.6057 401.333 104.389 401.333Z" fill="black"/>
<path d="M40.1716 14.672C40.929 14.672 41.5956 14.832 42.1716 15.152C42.7476 15.4613 43.1956 15.8987 43.5156 16.464C43.8356 17.0293 43.9956 17.6853 43.9956 18.432V22.464C43.9956 23.424 43.7236 24.224 43.1796 24.864C42.6463 25.504 41.921 25.8987 41.0036 26.048C40.961 26.0587 40.9396 26.0853 40.9396 26.128V27.584C40.9396 27.6907 40.8863 27.744 40.7796 27.744H39.5636C39.457 27.744 39.4036 27.6907 39.4036 27.584V26.128C39.4036 26.0853 39.3823 26.0587 39.3396 26.048C38.4223 25.8987 37.6916 25.504 37.1476 24.864C36.6143 24.224 36.3476 23.424 36.3476 22.464V18.432C36.3476 17.6853 36.5076 17.0293 36.8276 16.464C37.1476 15.8987 37.5956 15.4613 38.1716 15.152C38.7476 14.832 39.4143 14.672 40.1716 14.672ZM42.4596 18.352C42.4596 17.648 42.2463 17.0827 41.8196 16.656C41.4036 16.2187 40.8543 16 40.1716 16C39.489 16 38.9343 16.2187 38.5076 16.656C38.0916 17.0827 37.8836 17.648 37.8836 18.352V22.448C37.8836 23.152 38.0916 23.7227 38.5076 24.16C38.9343 24.5867 39.489 24.8 40.1716 24.8C40.8543 24.8 41.4036 24.5867 41.8196 24.16C42.2463 23.7227 42.4596 23.152 42.4596 22.448V18.352ZM50.7961 18.016C50.7961 17.9093 50.8495 17.856 50.9561 17.856H52.1561C52.2628 17.856 52.3161 17.9093 52.3161 18.016V25.84C52.3161 25.9467 52.2628 26 52.1561 26H50.9561C50.8495 26 50.7961 25.9467 50.7961 25.84V25.248C50.7961 25.2267 50.7855 25.216 50.7641 25.216C50.7535 25.2053 50.7375 25.2107 50.7161 25.232C50.2895 25.8187 49.6335 26.112 48.7481 26.112C48.2255 26.112 47.7401 26.0107 47.2921 25.808C46.8548 25.6053 46.5028 25.3067 46.2361 24.912C45.9695 24.5173 45.8361 24.0373 45.8361 23.472V18.016C45.8361 17.9093 45.8895 17.856 45.9961 17.856H47.1961C47.3028 17.856 47.3561 17.9093 47.3561 18.016V22.992C47.3561 23.5467 47.5001 23.984 47.7881 24.304C48.0868 24.624 48.5028 24.784 49.0361 24.784C49.5695 24.784 49.9961 24.624 50.3161 24.304C50.6361 23.9733 50.7961 23.536 50.7961 22.992V18.016ZM57.5335 17.728C58.1842 17.728 58.7495 17.8453 59.2295 18.08C59.7202 18.304 60.0935 18.624 60.3495 19.04C60.6162 19.4453 60.7495 19.9093 60.7495 20.432V25.84C60.7495 25.9467 60.6962 26 60.5895 26H59.3735C59.2668 26 59.2135 25.9467 59.2135 25.84V25.264C59.2135 25.2107 59.1868 25.2 59.1335 25.232C58.8562 25.52 58.5148 25.744 58.1095 25.904C57.7148 26.0533 57.2722 26.128 56.7815 26.128C55.9922 26.128 55.3362 25.9307 54.8135 25.536C54.3015 25.1307 54.0455 24.5227 54.0455 23.712C54.0455 22.88 54.3335 22.2293 54.9095 21.76C55.4962 21.28 56.3122 21.04 57.3575 21.04H59.1495C59.1922 21.04 59.2135 21.0187 59.2135 20.976V20.544C59.2135 20.0747 59.0748 19.712 58.7975 19.456C58.5308 19.1893 58.1202 19.056 57.5655 19.056C57.1175 19.056 56.7495 19.1467 56.4615 19.328C56.1842 19.4987 56.0135 19.7333 55.9495 20.032C55.9175 20.1387 55.8535 20.1867 55.7575 20.176L54.4615 20C54.3548 19.9787 54.3068 19.936 54.3175 19.872C54.4028 19.2427 54.7388 18.7307 55.3255 18.336C55.9122 17.9307 56.6482 17.728 57.5335 17.728ZM57.1175 24.832C57.6828 24.832 58.1735 24.6827 58.5895 24.384C59.0055 24.0853 59.2135 23.7067 59.2135 23.248V22.304C59.2135 22.2613 59.1922 22.24 59.1495 22.24H57.6455C57.0162 22.24 56.5148 22.3627 56.1415 22.608C55.7682 22.8533 55.5815 23.1947 55.5815 23.632C55.5815 24.0267 55.7202 24.3253 55.9975 24.528C56.2855 24.7307 56.6588 24.832 57.1175 24.832ZM62.4425 29.184C62.3678 29.184 62.3305 29.1307 62.3305 29.024V28.08C62.3305 27.9733 62.3838 27.92 62.4905 27.92H62.5225C62.9492 27.9093 63.2852 27.856 63.5305 27.76C63.7758 27.664 63.9785 27.4827 64.1385 27.216C64.2985 26.96 64.4532 26.5707 64.6025 26.048C64.6132 26.0373 64.6132 26.0213 64.6025 26C64.6025 25.968 64.6025 25.952 64.6025 25.952L61.9305 18.032L61.9145 17.968C61.9145 17.8933 61.9625 17.856 62.0585 17.856H63.3545C63.4505 17.856 63.5145 17.8987 63.5465 17.984L65.3545 24.016C65.3652 24.0373 65.3812 24.048 65.4025 24.048C65.4238 24.048 65.4398 24.0373 65.4505 24.016L67.2425 17.984C67.2745 17.8987 67.3385 17.856 67.4345 17.856H68.6985C68.8158 17.856 68.8585 17.9147 68.8265 18.032L65.9145 26.56C65.6692 27.296 65.4238 27.84 65.1785 28.192C64.9332 28.5547 64.6132 28.8107 64.2185 28.96C63.8238 29.1093 63.2692 29.184 62.5545 29.184H62.4425ZM73.655 26C73.5483 26 73.495 25.9467 73.495 25.84V14.96C73.495 14.8533 73.5483 14.8 73.655 14.8H74.871C74.9777 14.8 75.031 14.8533 75.031 14.96V25.84C75.031 25.9467 74.9777 26 74.871 26H73.655ZM80.2366 17.728C80.8873 17.728 81.4526 17.8453 81.9326 18.08C82.4233 18.304 82.7966 18.624 83.0526 19.04C83.3193 19.4453 83.4526 19.9093 83.4526 20.432V25.84C83.4526 25.9467 83.3993 26 83.2926 26H82.0766C81.97 26 81.9166 25.9467 81.9166 25.84V25.264C81.9166 25.2107 81.89 25.2 81.8366 25.232C81.5593 25.52 81.218 25.744 80.8126 25.904C80.418 26.0533 79.9753 26.128 79.4846 26.128C78.6953 26.128 78.0393 25.9307 77.5166 25.536C77.0046 25.1307 76.7486 24.5227 76.7486 23.712C76.7486 22.88 77.0366 22.2293 77.6126 21.76C78.1993 21.28 79.0153 21.04 80.0606 21.04H81.8526C81.8953 21.04 81.9166 21.0187 81.9166 20.976V20.544C81.9166 20.0747 81.778 19.712 81.5006 19.456C81.234 19.1893 80.8233 19.056 80.2686 19.056C79.8206 19.056 79.4526 19.1467 79.1646 19.328C78.8873 19.4987 78.7166 19.7333 78.6526 20.032C78.6206 20.1387 78.5566 20.1867 78.4606 20.176L77.1646 20C77.058 19.9787 77.01 19.936 77.0206 19.872C77.106 19.2427 77.442 18.7307 78.0286 18.336C78.6153 17.9307 79.3513 17.728 80.2366 17.728ZM79.8206 24.832C80.386 24.832 80.8766 24.6827 81.2926 24.384C81.7086 24.0853 81.9166 23.7067 81.9166 23.248V22.304C81.9166 22.2613 81.8953 22.24 81.8526 22.24H80.3486C79.7193 22.24 79.218 22.3627 78.8446 22.608C78.4713 22.8533 78.2846 23.1947 78.2846 23.632C78.2846 24.0267 78.4233 24.3253 78.7006 24.528C78.9886 24.7307 79.362 24.832 79.8206 24.832ZM80.2846 29.12C80.0073 29.12 79.7726 29.024 79.5806 28.832C79.3993 28.6507 79.3086 28.4213 79.3086 28.144C79.3086 27.856 79.3993 27.6213 79.5806 27.44C79.7726 27.2587 80.0073 27.168 80.2846 27.168C80.5726 27.168 80.8073 27.2587 80.9886 27.44C81.17 27.6213 81.2606 27.856 81.2606 28.144C81.2606 28.4213 81.1646 28.6507 80.9726 28.832C80.7913 29.024 80.562 29.12 80.2846 29.12ZM86.4543 16.576C86.1556 16.576 85.9103 16.48 85.7183 16.288C85.5263 16.096 85.4303 15.8507 85.4303 15.552C85.4303 15.2533 85.5263 15.008 85.7183 14.816C85.9103 14.624 86.1556 14.528 86.4543 14.528C86.7529 14.528 86.9983 14.624 87.1903 14.816C87.3823 15.008 87.4783 15.2533 87.4783 15.552C87.4783 15.8507 87.3823 16.096 87.1903 16.288C86.9983 16.48 86.7529 16.576 86.4543 16.576ZM85.8143 25.984C85.7076 25.984 85.6543 25.9307 85.6543 25.824V18.016C85.6543 17.9093 85.7076 17.856 85.8143 17.856H87.0303C87.1369 17.856 87.1903 17.9093 87.1903 18.016V25.824C87.1903 25.9307 87.1369 25.984 87.0303 25.984H85.8143Z" fill="black"/>
</g>
<defs>
<clipPath id="clip0_6_21144">
<path d="M0 2C0 0.895431 0.895431 0 2 0H98C99.1046 0 100 0.895431 100 2V38C100 39.1046 99.1046 40 98 40H2C0.895429 40 0 39.1046 0 38V2Z" fill="white"/>
</clipPath>
</defs>
</svg>
