<svg width="24" height="24" viewBox="0 0 24 24" fill="none" xmlns="http://www.w3.org/2000/svg">
<path d="M12 24C5.37258 24 0 18.6274 0 12C0 5.37258 5.37258 0 12 0C18.6274 0 24 5.37258 24 12C24 18.6274 18.6274 24 12 24Z" fill="#F8EAE8"/>
<path d="M6.66694 12.1829C6.66694 12.436 6.85514 12.6452 7.09914 12.6783L7.16694 12.6829H17.167C17.4431 12.6829 17.667 12.459 17.667 12.1829C17.667 11.9297 17.4789 11.7205 17.2348 11.6874L17.167 11.6829H7.16694C6.89084 11.6829 6.66694 11.9067 6.66694 12.1829Z" fill="#C72114"/>
<path d="M12.7809 15.8449C12.5852 16.0397 12.5845 16.3563 12.7793 16.552C12.9565 16.7299 13.2342 16.7466 13.4303 16.6018L13.4864 16.5535L17.5198 12.5375C17.6982 12.3599 17.7144 12.0811 17.5685 11.8851L17.5198 11.8289L13.4865 7.81222C13.2908 7.61736 12.9742 7.61802 12.7794 7.81368C12.6022 7.99156 12.5867 8.26937 12.7323 8.46481L12.7808 8.52079L16.4582 12.1834L12.7809 15.8449Z" fill="#C72114"/>
</svg>
