<svg width="18" height="18" viewBox="0 0 18 18" fill="none" xmlns="http://www.w3.org/2000/svg">
<path d="M17.3997 14.475H16.1988C16.1051 14.475 16.0269 14.5531 16.0269 14.6469V16.0264H1.97112V1.96831H16.0292V3.34778C16.0292 3.44153 16.1073 3.51965 16.201 3.51965H17.4019C17.4957 3.51965 17.5738 3.44376 17.5738 3.34778V1.11117C17.5738 0.731707 17.268 0.425903 16.8885 0.425903H1.11398C0.734515 0.425903 0.428711 0.731707 0.428711 1.11117V16.8835C0.428711 17.263 0.734515 17.5688 1.11398 17.5688H16.8863C17.2658 17.5688 17.5716 17.263 17.5716 16.8835V14.6469C17.5716 14.5509 17.4934 14.475 17.3997 14.475ZM17.7055 8.19376H10.6966V6.49733C10.6966 6.34778 10.5225 6.26296 10.4064 6.35671L7.23898 8.85671C7.21764 8.87341 7.20038 8.89475 7.18851 8.91912C7.17663 8.94348 7.17046 8.97023 7.17046 8.99733C7.17046 9.02444 7.17663 9.05118 7.18851 9.07555C7.20038 9.09991 7.21764 9.12125 7.23898 9.13796L10.4064 11.638C10.5247 11.7317 10.6966 11.6469 10.6966 11.4973V9.80091H17.7055C17.8037 9.80091 17.8841 9.72055 17.8841 9.62233V8.37233C17.8841 8.27412 17.8037 8.19376 17.7055 8.19376Z" fill="white"/>
</svg>
