<svg width="14" height="10" viewBox="0 0 14 10" fill="none" xmlns="http://www.w3.org/2000/svg">
<path d="M13.3279 0.298024L10.2154 0.673024C10.1123 0.685524 10.0685 0.812087 10.142 0.885524L11.0685 1.81209L7.53727 5.34334L5.94664 3.75427C5.8482 3.65584 5.69039 3.6574 5.59352 3.75427L0.566952 8.7824C0.543689 8.80589 0.53064 8.83762 0.53064 8.87068C0.53064 8.90374 0.543689 8.93547 0.566952 8.95896L1.27008 9.66521C1.31851 9.71365 1.3982 9.71365 1.44664 9.66521L5.77008 5.34334L7.35914 6.9324C7.45758 7.02927 7.61539 7.02927 7.71227 6.9324L11.9529 2.6949L12.8795 3.62146C12.8961 3.63798 12.917 3.64952 12.9398 3.65474C12.9626 3.65997 12.9865 3.65869 13.0086 3.65104C13.0308 3.64339 13.0503 3.62967 13.065 3.61146C13.0798 3.59325 13.0891 3.57127 13.092 3.54802L13.467 0.435524C13.4779 0.355837 13.4091 0.287087 13.3279 0.298024Z" fill="#00BF13"/>
</svg>
