<svg width="80" height="80" viewBox="0 0 80 80" fill="none" xmlns="http://www.w3.org/2000/svg">
<circle cx="40" cy="40" r="40" fill="#E26B0F"/>
<path d="M55.7145 50.0055C55.7145 45.0233 52.7948 40.7197 48.5716 38.7153V31.3135C48.5716 30.6394 48.335 29.9876 47.8975 29.4742L41.0939 21.4072C40.8082 21.068 40.402 20.8983 40.0002 20.8983C39.5984 20.8983 39.1921 21.068 38.9064 21.4072L32.1029 29.4742C31.6683 29.9887 31.4296 30.6401 31.4287 31.3135V38.7153C27.2055 40.7197 24.2859 45.0233 24.2859 50.0055H31.2725C31.1698 50.3269 31.1162 50.6751 31.1162 51.068C31.1162 52.0546 31.4555 53.0189 32.0716 53.7822C32.5745 54.4066 33.2405 54.8794 33.9957 55.1483C35.027 57.559 37.3707 59.1126 40.0002 59.1126C41.2993 59.1126 42.5582 58.7287 43.6341 58.0055C44.6877 57.3001 45.5046 56.3135 46.0002 55.1483C46.7551 54.8811 47.4212 54.4098 47.9243 53.7867C48.5412 53.0164 48.878 52.0593 48.8796 51.0724C48.8796 50.6974 48.8305 50.3403 48.7412 50.0099H55.7145V50.0055ZM51.1743 44.8894C51.5939 45.5412 51.9332 46.2421 52.1787 46.9697H48.393V42.0903C49.5068 42.8171 50.4546 43.771 51.1743 44.8894ZM34.4645 38.7153V31.3805L40.0002 24.818L45.5359 31.3805V46.9697H34.4645V38.7153ZM27.8216 46.9697C28.0671 46.2421 28.4064 45.5412 28.8261 44.8894C29.5537 43.7644 30.5002 42.8135 31.6073 42.0903V46.9697H27.8216ZM45.1832 52.1572C44.9511 52.2912 44.6832 52.3447 44.4198 52.309L43.5493 52.2019L43.4243 53.068C43.1832 54.7599 41.71 56.0367 40.0002 56.0367C38.2904 56.0367 36.8171 54.7599 36.5761 53.068L36.4511 52.1974L35.5805 52.309C35.3159 52.3406 35.0481 52.2858 34.8171 52.1528C34.4287 51.9296 34.1877 51.5144 34.1877 51.0635C34.1877 50.5903 34.4511 50.1974 34.8395 50.001H45.1654C45.5582 50.2019 45.8171 50.5947 45.8171 51.0635C45.8127 51.5189 45.5716 51.9385 45.1832 52.1572ZM37.8573 35.0055C37.8573 35.5738 38.0831 36.1188 38.4849 36.5207C38.8868 36.9226 39.4319 37.1483 40.0002 37.1483C40.5685 37.1483 41.1135 36.9226 41.5154 36.5207C41.9173 36.1188 42.143 35.5738 42.143 35.0055C42.143 34.4371 41.9173 33.8921 41.5154 33.4902C41.1135 33.0884 40.5685 32.8626 40.0002 32.8626C39.4319 32.8626 38.8868 33.0884 38.4849 33.4902C38.0831 33.8921 37.8573 34.4371 37.8573 35.0055Z" fill="#fff"/>
</svg>
