<svg width="16" height="16" viewBox="0 0 16 16" fill="none" xmlns="http://www.w3.org/2000/svg">
<circle cx="8" cy="8" r="8" fill="#EDEEFE"/>
<path fill-rule="evenodd" clip-rule="evenodd" d="M6.57202 4.46338C5.88119 4.46338 5.30827 5.02255 5.29202 5.71213V10.225C5.27994 10.9113 5.82452 11.4746 6.50577 11.4863L6.56702 11.4859H9.90536C10.5895 11.4784 11.1474 10.913 11.1466 10.2255V6.47588L9.21577 4.46338H6.57702H6.57202ZM6.49994 12.1113C5.46952 12.0934 4.64952 11.2446 4.66702 10.2196V5.70463C4.69077 4.67088 5.54452 3.83838 6.57077 3.83838H6.57827H9.34869C9.43369 3.83838 9.51494 3.87296 9.57411 3.93421L11.6849 6.1338C11.7404 6.19171 11.7716 6.26963 11.7716 6.35005V10.225C11.7733 11.2538 10.9374 12.1 9.90869 12.1109L6.49994 12.1113Z" fill="#1B29FA"/>
<path fill-rule="evenodd" clip-rule="evenodd" d="M11.4573 6.7435H10.3098C9.54688 6.74141 8.92688 6.11975 8.92688 5.35808V4.146C8.92688 3.9735 9.06688 3.8335 9.23938 3.8335C9.41188 3.8335 9.55188 3.9735 9.55188 4.146V5.35808C9.55188 5.77641 9.8923 6.11725 10.3106 6.1185H11.4573C11.6298 6.1185 11.7698 6.2585 11.7698 6.431C11.7698 6.6035 11.6298 6.7435 11.4573 6.7435Z" fill="#1B29FA"/>
<path fill-rule="evenodd" clip-rule="evenodd" d="M9.16393 8.69336H7.12268C6.95018 8.69336 6.81018 8.55336 6.81018 8.38086C6.81018 8.20836 6.95018 8.06836 7.12268 8.06836H9.16393C9.33643 8.06836 9.47643 8.20836 9.47643 8.38086C9.47643 8.55336 9.33643 8.69336 9.16393 8.69336Z" fill="#1B29FA"/>
<path fill-rule="evenodd" clip-rule="evenodd" d="M8.14343 9.71452C7.97093 9.71452 7.83093 9.57452 7.83093 9.40202V7.36035C7.83093 7.18785 7.97093 7.04785 8.14343 7.04785C8.31593 7.04785 8.45593 7.18785 8.45593 7.36035V9.40202C8.45593 9.57452 8.31593 9.71452 8.14343 9.71452Z" fill="#1B29FA"/>
</svg>
