<svg width="20" height="20" viewBox="0 0 20 20" fill="none" xmlns="http://www.w3.org/2000/svg">
<g clip-path="url(#clip0_167_9768)">
<path d="M19.2857 2.13867H0.714286C0.319196 2.13867 0 2.45787 0 2.85296V17.1387C0 17.5338 0.319196 17.853 0.714286 17.853H19.2857C19.6808 17.853 20 17.5338 20 17.1387V2.85296C20 2.45787 19.6808 2.13867 19.2857 2.13867ZM1.60714 3.74581H18.3929V6.42439H1.60714V3.74581ZM18.3929 16.2458H1.60714V8.38867H18.3929V16.2458ZM13.1027 14.8172H16.7857C16.8839 14.8172 16.9643 14.7369 16.9643 14.6387V13.0315C16.9643 12.9333 16.8839 12.853 16.7857 12.853H13.1027C13.0045 12.853 12.9241 12.9333 12.9241 13.0315V14.6387C12.9241 14.7369 13.0045 14.8172 13.1027 14.8172Z" fill="#faa09d"/>
</g>
<defs>
<clipPath id="clip0_167_9768">
<rect width="20" height="20" fill="#faa09d"/>
</clipPath>
</defs>
</svg>
