<svg width="23" height="22" viewBox="0 0 23 22" fill="none" xmlns="http://www.w3.org/2000/svg">
<g clip-path="url(#clip0_1967_29840)">
<path d="M20.3616 0.82655C19.1536 0.293564 17.5616 0 15.8789 0C14.1962 0 12.6042 0.293564 11.3961 0.82655C10.0204 1.43353 9.26269 2.30459 9.26269 3.27926V8.83381C8.62473 8.63293 7.9462 8.52435 7.2428 8.52435C3.52754 8.52435 0.504974 11.5469 0.504974 15.2622C0.504974 18.9774 3.52754 22 7.2428 22C9.79877 22 12.0268 20.5694 13.1684 18.4669C14.013 18.6452 14.9392 18.7388 15.8789 18.7388C17.5616 18.7388 19.1536 18.4453 20.3616 17.9123C21.7374 17.3053 22.4951 16.4342 22.4951 15.4596V3.27926C22.4951 2.30459 21.7374 1.43353 20.3616 0.82655V0.82655ZM11.9164 2.00592C12.9642 1.54366 14.3714 1.28907 15.8789 1.28907C17.3863 1.28907 18.7936 1.54366 19.8413 2.00592C20.6831 2.3773 21.206 2.86525 21.206 3.27926C21.206 3.69326 20.6831 4.18118 19.8413 4.5526C18.7935 5.01486 17.3863 5.26945 15.8789 5.26945C14.3714 5.26945 12.9642 5.01486 11.9164 4.5526C11.0747 4.18118 10.5518 3.69331 10.5518 3.27926C10.5518 2.86521 11.0747 2.3773 11.9164 2.00592V2.00592ZM7.24276 20.7109C4.23829 20.7109 1.794 18.2666 1.794 15.2622C1.794 12.2577 4.23829 9.81341 7.24276 9.81341C10.2472 9.81341 12.6915 12.2577 12.6915 15.2622C12.6915 18.2666 10.2472 20.7109 7.24276 20.7109ZM19.8413 16.7329C18.7935 17.1951 17.3863 17.4497 15.8789 17.4497C15.118 17.4497 14.3704 17.3828 13.6799 17.2545C13.8469 16.7162 13.9477 16.1491 13.9736 15.5628C14.5857 15.6491 15.2232 15.6937 15.8789 15.6937C17.5616 15.6937 19.1536 15.4001 20.3617 14.8672C20.6761 14.7284 20.9578 14.5758 21.206 14.4114V15.4595C21.206 15.8736 20.6831 16.3615 19.8413 16.7329V16.7329ZM19.8413 13.6878C18.7936 14.1501 17.3863 14.4046 15.8789 14.4046C15.193 14.4046 14.5313 14.3516 13.9044 14.2484C13.8064 13.6022 13.6161 12.986 13.3477 12.4133C14.1404 12.5673 15.0007 12.6486 15.8789 12.6486C17.5616 12.6486 19.1536 12.3551 20.3616 11.8221C20.6761 11.6834 20.9578 11.5307 21.206 11.3663V12.4145C21.206 12.8285 20.6831 13.3164 19.8413 13.6878V13.6878ZM19.8413 10.6428C18.7935 11.105 17.3863 11.3596 15.8789 11.3596C14.5461 11.3596 13.2739 11.1564 12.2748 10.7868C11.7823 10.2337 11.2004 9.76202 10.5518 9.39477V8.32127C10.7999 8.48567 11.0817 8.63834 11.3961 8.77705C12.6042 9.31003 14.1962 9.6036 15.8789 9.6036C17.5616 9.6036 19.1536 9.31003 20.3616 8.77705C20.6761 8.6383 20.9578 8.48567 21.206 8.32127V9.36942C21.206 9.78342 20.6831 10.2713 19.8413 10.6428ZM19.8413 7.59764C18.7936 8.05989 17.3863 8.31449 15.8789 8.31449C14.3714 8.31449 12.9642 8.05989 11.9164 7.59764C11.0747 7.22625 10.5518 6.73834 10.5518 6.32429V5.27615C10.7999 5.44055 11.0817 5.59322 11.3961 5.73197C12.6042 6.26495 14.1962 6.55847 15.8789 6.55847C17.5616 6.55847 19.1536 6.26495 20.3616 5.73197C20.6761 5.59322 20.9578 5.44055 21.206 5.27615V6.32429C21.206 6.73834 20.6831 7.22625 19.8413 7.59764V7.59764Z" fill="#FFBA52"/>
<path d="M9.47565 16.6925C9.47565 17.1391 9.33718 17.5064 9.06023 17.7947C8.78327 18.083 8.39893 18.2582 7.9072 18.3203C7.87894 18.3317 7.86481 18.3486 7.86481 18.3712L7.87329 18.9308C7.87329 18.959 7.86198 18.9816 7.83938 18.9986C7.82242 19.0212 7.79981 19.0325 7.77155 19.0325H7.11026C7.082 19.0325 7.05656 19.0212 7.03395 18.9986C7.017 18.9816 7.00852 18.959 7.00852 18.9308L7.017 18.3627C7.017 18.3401 7.00287 18.3232 6.97461 18.3119C6.48287 18.2327 6.09571 18.049 5.8131 17.7608C5.53615 17.4669 5.39767 17.0967 5.39767 16.6502V16.4382C5.39767 16.4099 5.40615 16.3873 5.42311 16.3704C5.44572 16.3478 5.47115 16.3365 5.49941 16.3365H6.21157C6.23984 16.3365 6.26244 16.3478 6.2794 16.3704C6.30201 16.3873 6.31331 16.4099 6.31331 16.4382V16.5993C6.31331 16.8593 6.42353 17.0769 6.64396 17.2521C6.86439 17.4217 7.16395 17.5064 7.54264 17.5064C7.87611 17.5064 8.12481 17.433 8.28872 17.286C8.45828 17.1391 8.54306 16.9497 8.54306 16.718C8.54306 16.5597 8.49784 16.4269 8.40741 16.3195C8.31698 16.2065 8.18415 16.1076 8.00894 16.0228C7.83938 15.9323 7.58503 15.8165 7.24591 15.6752C6.86722 15.5282 6.55918 15.3897 6.32179 15.2597C6.0844 15.1297 5.88658 14.9545 5.72832 14.7341C5.57006 14.508 5.49093 14.2282 5.49093 13.8948C5.49093 13.4652 5.62093 13.1119 5.88093 12.835C6.14658 12.558 6.50548 12.3857 6.95765 12.3178C6.98591 12.3065 7.00004 12.2896 7.00004 12.267L6.98308 11.6396C6.98308 11.6113 6.99156 11.5887 7.00852 11.5718C7.03113 11.5491 7.05656 11.5378 7.08482 11.5378H7.74612C7.77438 11.5378 7.79698 11.5491 7.81394 11.5718C7.83655 11.5887 7.84785 11.6113 7.84785 11.6396L7.8309 12.2754C7.8309 12.298 7.84503 12.315 7.87329 12.3263C8.35372 12.4054 8.73241 12.5976 9.00936 12.9028C9.29196 13.208 9.43326 13.5839 9.43326 14.0304V14.1745C9.43326 14.2028 9.42196 14.2282 9.39935 14.2508C9.3824 14.2678 9.35979 14.2763 9.33153 14.2763H8.61089C8.58262 14.2763 8.55719 14.2678 8.53458 14.2508C8.51763 14.2282 8.50915 14.2028 8.50915 14.1745V14.0813C8.50915 13.8156 8.40458 13.5924 8.19546 13.4115C7.99198 13.225 7.70938 13.1317 7.34764 13.1317C7.04808 13.1317 6.81635 13.1967 6.65244 13.3267C6.48853 13.4567 6.40657 13.6404 6.40657 13.8778C6.40657 14.0474 6.44896 14.1858 6.53374 14.2932C6.62418 14.4006 6.75418 14.4995 6.92374 14.59C7.09895 14.6747 7.3646 14.785 7.72068 14.9206C8.10502 15.0732 8.41024 15.2117 8.63632 15.336C8.86806 15.4604 9.06588 15.6356 9.22979 15.8617C9.3937 16.0821 9.47565 16.3591 9.47565 16.6925Z" fill="#FFBA52"/>
</g>
<defs>
<clipPath id="clip0_1967_29840">
<rect width="22" height="22" fill="white" transform="translate(0.5)"/>
</clipPath>
</defs>
</svg>
