<svg width="16" height="16" viewBox="0 0 16 16" fill="none" xmlns="http://www.w3.org/2000/svg">
<circle cx="8" cy="8" r="8" fill="#C72114" fill-opacity="0.1"/>
<path fill-rule="evenodd" clip-rule="evenodd" d="M11.6462 12.1416H8.62408C8.45158 12.1416 8.31158 12.0016 8.31158 11.8291C8.31158 11.6566 8.45158 11.5166 8.62408 11.5166H11.6462C11.8187 11.5166 11.9587 11.6566 11.9587 11.8291C11.9587 12.0016 11.8187 12.1416 11.6462 12.1416Z" fill="#C72114"/>
<mask id="mask0_24_12629" style="mask-type:alpha" maskUnits="userSpaceOnUse" x="3" y="4" width="8" height="9">
<path fill-rule="evenodd" clip-rule="evenodd" d="M3.8335 4.25H10.9921V12.1415H3.8335V4.25Z" fill="white"/>
</mask>
<g mask="url(#mask0_24_12629)">
<path fill-rule="evenodd" clip-rule="evenodd" d="M8.46278 5.09027L4.53986 9.99652C4.46861 10.0857 4.44236 10.2007 4.46861 10.3111L4.75236 11.5132L6.01861 11.4974C6.13903 11.4961 6.25028 11.4424 6.32403 11.3507C7.66444 9.6736 10.2199 6.4761 10.2924 6.38235C10.3607 6.27152 10.3874 6.11485 10.3515 5.96402C10.3149 5.80943 10.2186 5.67818 10.0799 5.59443C10.0503 5.57402 9.34819 5.02902 9.32653 5.01193C9.06236 4.80027 8.67694 4.83693 8.46278 5.09027ZM4.50569 12.1415C4.36111 12.1415 4.23528 12.0424 4.20153 11.9011L3.86028 10.4549C3.78986 10.1553 3.85986 9.8461 4.05194 9.6061L7.97694 4.69693C7.97861 4.69527 7.97986 4.69318 7.98153 4.69152C8.41194 4.17693 9.19028 4.1011 9.71528 4.52235C9.73611 4.5386 10.4332 5.08027 10.4332 5.08027C10.6865 5.2311 10.8844 5.50068 10.9594 5.81985C11.034 6.13568 10.9799 6.46152 10.8061 6.73693C10.7932 6.75735 10.7819 6.77485 6.81194 11.7415C6.62069 11.9799 6.33403 12.1186 6.02611 12.1224L4.50986 12.1415H4.50569Z" fill="#C72114"/>
</g>
<path fill-rule="evenodd" clip-rule="evenodd" d="M9.7598 7.86874C9.69313 7.86874 9.62647 7.84749 9.56938 7.80415L7.29772 6.05915C7.16105 5.95415 7.13522 5.75832 7.24022 5.62082C7.34563 5.48415 7.54147 5.45874 7.67855 5.56374L9.95063 7.30832C10.0873 7.41332 10.1131 7.60957 10.0077 7.74665C9.94647 7.82665 9.85355 7.86874 9.7598 7.86874Z" fill="#C72114"/>
</svg>
