<svg width="20" height="20" viewBox="0 0 20 20" fill="none" xmlns="http://www.w3.org/2000/svg">
<path d="M5.77574 0.00255438C10.4785 0.00255438 15.1816 0.00284316 19.8843 0.000244141C19.9779 0.000244141 19.9993 0.021325 19.999 0.115178C19.9964 5.02645 19.9967 9.93743 19.9967 14.8487C19.9248 14.8244 19.9115 14.8958 19.8817 14.9278C19.4128 15.4315 18.8774 15.8511 18.2862 16.2013C16.9795 16.9756 15.5535 17.3911 14.0594 17.5947C12.7477 17.7735 11.4352 17.766 10.125 17.5722C8.59855 17.3466 7.14975 16.8973 5.8358 16.0662C5.78844 16.0362 5.75032 16.0307 5.69806 16.0526C4.89871 16.3876 4.07165 16.5591 3.20156 16.4705C3.09355 16.3911 3.16719 16.3296 3.22235 16.2678C3.60065 15.8436 3.84698 15.3572 3.91311 14.7884C3.94661 14.5007 3.9056 14.2365 3.73262 13.9832C3.25498 13.2844 2.91422 12.5159 2.66298 11.71C2.19199 10.1988 2.02594 8.65208 2.14578 7.07361C2.24772 5.73049 2.5391 4.43445 3.09991 3.20512C3.58506 2.14126 4.24319 1.20619 5.16006 0.467489C5.36018 0.305773 5.57013 0.157051 5.77574 0.00255438ZM7.37962 7.4548C7.34958 7.49494 7.32879 7.52526 7.30569 7.55385C6.48238 8.5793 5.6608 9.6062 4.83316 10.6282C4.67231 10.8266 4.59578 11.04 4.60098 11.2941C4.60329 11.4062 4.62871 11.4405 4.74537 11.4402C5.88201 11.4359 7.01864 11.4379 8.15528 11.4379C8.18849 11.4379 8.22199 11.4382 8.2552 11.435C8.46081 11.416 8.58036 11.2924 8.58989 11.0856C8.59422 10.99 8.58325 10.8933 8.59336 10.7986C8.60635 10.6805 8.56044 10.6536 8.44781 10.6542C7.61093 10.6585 6.77405 10.6568 5.93717 10.6559C5.89385 10.6559 5.84707 10.6692 5.79509 10.6348C5.82252 10.5976 5.84764 10.5612 5.87508 10.5268C6.10754 10.2331 6.34059 9.94003 6.57335 9.64663C7.16072 8.90678 7.74348 8.16288 8.33808 7.4291C8.51683 7.20847 8.59047 6.96734 8.5922 6.69213C8.59278 6.62138 8.57025 6.59943 8.4995 6.59943C7.27133 6.60117 6.04286 6.60145 4.81468 6.59914C4.73671 6.59885 4.71534 6.62456 4.71678 6.69935C4.72111 6.89919 4.72516 7.09931 4.71534 7.29886C4.70985 7.41206 4.74768 7.43689 4.85569 7.43632C5.63019 7.43169 6.4047 7.43343 7.17892 7.43401C7.24072 7.43372 7.30338 7.42448 7.37962 7.4548ZM11.7812 11.1027C11.8551 11.3657 11.9493 11.4362 12.221 11.4376C12.3001 11.4382 12.3795 11.4327 12.4584 11.4388C12.5462 11.4457 12.5722 11.4119 12.571 11.3253C12.5667 10.988 12.569 10.6507 12.569 10.3131C12.569 9.50946 12.5675 8.7055 12.571 7.90183C12.5713 7.80826 12.5537 7.76639 12.4486 7.77361C12.3076 7.78343 12.1656 7.77592 12.0241 7.77592C11.8054 7.77592 11.8054 7.77592 11.7925 7.99106C11.7922 7.99684 11.7832 8.00203 11.7722 8.01474C11.3677 7.74098 10.9224 7.622 10.4352 7.69015C9.94311 7.75859 9.53709 7.98817 9.22752 8.37543C8.67479 9.06676 8.66728 10.0319 9.20095 10.7128C9.48395 11.0738 9.84666 11.3077 10.2954 11.4062C10.8343 11.5246 11.3258 11.4021 11.7812 11.1027ZM16.512 7.64828C15.466 7.64886 14.6055 8.51288 14.6066 9.56115C14.6078 10.6051 15.4675 11.4726 16.501 11.4726C17.5588 11.4726 18.4191 10.6138 18.4171 9.55942C18.4153 8.50711 17.5585 7.6477 16.512 7.64828ZM14.0588 8.99977C14.0588 8.22122 14.0591 7.44267 14.0582 6.66412C14.0582 6.61127 14.0833 6.5437 13.9823 6.54572C13.7576 6.55034 13.5326 6.54861 13.308 6.5463C13.247 6.54572 13.2286 6.56911 13.23 6.62715C13.2332 6.75191 13.2309 6.87695 13.2309 7.0017C13.2309 8.36301 13.2306 9.7246 13.2312 11.0859C13.2312 11.3351 13.3316 11.435 13.578 11.4374C13.6946 11.4385 13.8116 11.4313 13.9277 11.4391C14.0288 11.446 14.062 11.418 14.0614 11.31C14.0565 10.5401 14.0588 9.76994 14.0588 8.99977Z" fill="white"/>
<path d="M5.77576 0.00255438C5.57043 0.157051 5.3602 0.305773 5.16037 0.466912C4.24349 1.20561 3.58536 2.14097 3.10021 3.20454C2.53969 4.43388 2.24831 5.72963 2.14609 7.07303C2.02624 8.6515 2.19229 10.1982 2.66329 11.7094C2.91453 12.5154 3.25529 13.2838 3.73293 13.9827C3.90591 14.2359 3.94692 14.5002 3.91342 14.7878C3.84729 15.3567 3.60096 15.843 3.22266 16.2672C3.1675 16.329 3.09386 16.3908 3.20186 16.4699C3.25847 16.5233 3.31709 16.575 3.37109 16.6308C3.59374 16.8603 3.81494 17.0914 4.0373 17.3212C4.32493 17.6184 4.614 17.9141 4.90075 18.2118C5.26924 18.5948 5.63628 18.9788 6.0036 19.3626C6.17889 19.5457 6.35332 19.7291 6.5286 19.9122C6.55171 19.9364 6.57625 19.9595 6.57539 19.9968C4.41763 19.9968 2.25987 19.9962 0.102106 19.9991C0.0166271 19.9997 -0.00012207 19.9829 -0.00012207 19.8972C0.00247695 13.2991 0.00247695 6.70079 -0.00012207 0.102761C-0.00012207 0.0169933 0.0166271 0.000244141 0.102106 0.000244141C1.99332 0.00342071 3.88454 0.00255438 5.77576 0.00255438Z" fill="#B6B6B6"/>
<path d="M6.57536 19.9969C6.57623 19.9597 6.55168 19.9366 6.52858 19.9123C6.35329 19.7292 6.17887 19.5459 6.00358 19.3628C5.63625 18.979 5.26921 18.5946 4.90073 18.212C4.61397 17.914 4.32462 17.6186 4.03728 17.3214C3.81492 17.0915 3.59372 16.8602 3.37107 16.6309C3.31678 16.5752 3.25816 16.5235 3.20184 16.4701C4.07222 16.559 4.89929 16.3875 5.69834 16.0525C5.75061 16.0306 5.78873 16.0361 5.83609 16.0661C7.15003 16.8972 8.59884 17.3462 10.1253 17.5721C11.4355 17.7656 12.7477 17.7733 14.0597 17.5946C15.5538 17.391 16.9798 16.9755 18.2865 16.2012C18.8774 15.8512 19.413 15.4316 19.882 14.9277C19.9118 14.8957 19.9251 14.8246 19.997 14.8486C19.997 16.5261 19.9955 18.2036 20.0001 19.8814C20.0004 19.9889 19.971 19.9998 19.8754 19.9998C15.442 19.9967 11.0087 19.9969 6.57536 19.9969Z" fill="#B6B6B6"/>
<path d="M7.37962 7.45482C7.30367 7.4245 7.24072 7.43374 7.17921 7.43374C6.4047 7.43316 5.63019 7.43143 4.85597 7.43605C4.74826 7.43663 4.71014 7.41208 4.71563 7.29859C4.72516 7.09933 4.72111 6.89892 4.71707 6.69909C4.71563 6.62429 4.737 6.59859 4.81497 6.59888C6.04315 6.60119 7.27161 6.6009 8.49979 6.59917C8.57054 6.59917 8.59307 6.62112 8.59249 6.69187C8.59076 6.96707 8.51712 7.2082 8.33837 7.42883C7.74348 8.16291 7.16101 8.90652 6.57363 9.64637C6.34088 9.93977 6.10783 10.2332 5.87537 10.5266C5.84822 10.5609 5.8231 10.597 5.79537 10.6346C5.84735 10.6692 5.89414 10.6557 5.93745 10.6557C6.77434 10.6565 7.61122 10.6585 8.4481 10.6539C8.56073 10.6533 8.60635 10.6805 8.59365 10.7983C8.58325 10.893 8.59451 10.9898 8.59018 11.0854C8.58065 11.2924 8.4611 11.4157 8.25549 11.4348C8.22257 11.438 8.18907 11.4377 8.15557 11.4377C7.01893 11.4377 5.8823 11.4357 4.74537 11.44C4.62871 11.4406 4.60329 11.4062 4.60098 11.2939C4.5955 11.0397 4.67231 10.8266 4.83287 10.6279C5.66051 9.60594 6.48209 8.57904 7.3054 7.55359C7.32879 7.52529 7.34959 7.49525 7.37962 7.45482Z" fill="#141432"/>
<path d="M11.7812 11.1026C11.3258 11.4023 10.834 11.5248 10.2951 11.4064C9.84638 11.3079 9.48338 11.074 9.20067 10.713C8.667 10.0318 8.67451 9.06695 9.22724 8.37562C9.53681 7.98836 9.94283 7.75907 10.4349 7.69034C10.9221 7.62248 11.3674 7.74117 11.772 8.01493C11.7832 8.00222 11.7919 7.99702 11.7922 7.99125C11.8055 7.77611 11.8052 7.77611 12.0238 7.77611C12.1653 7.77611 12.3074 7.78333 12.4483 7.7738C12.5534 7.76658 12.571 7.80816 12.5707 7.90202C12.5675 8.70569 12.5687 9.50966 12.5687 10.3133C12.5687 10.6506 12.5661 10.9882 12.5707 11.3255C12.5719 11.4121 12.5459 11.4459 12.4581 11.439C12.3796 11.4329 12.2999 11.4381 12.2207 11.4378C11.9493 11.4358 11.8551 11.3656 11.7812 11.1026ZM9.58446 9.55932C9.58532 10.1764 10.0809 10.6734 10.6934 10.6717C11.2969 10.67 11.7942 10.1687 11.7939 9.56164C11.7936 8.94653 11.2972 8.45012 10.6833 8.45041C10.0777 8.4507 9.58359 8.94942 9.58446 9.55932Z" fill="#141432"/>
<path d="M16.512 7.64819C17.5585 7.64762 18.4154 8.50703 18.4171 9.55934C18.4191 10.6137 17.5588 11.4725 16.501 11.4725C15.4678 11.4725 14.6078 10.605 14.6066 9.56107C14.6055 8.51309 15.466 7.64906 16.512 7.64819ZM17.6281 9.56165C17.6287 8.935 17.1366 8.44032 16.5137 8.44176C15.8885 8.44292 15.3947 8.93702 15.3959 9.55963C15.397 10.1848 15.8911 10.6815 16.5114 10.6812C17.1349 10.681 17.6276 10.1871 17.6281 9.56165Z" fill="#141432"/>
<path d="M14.0588 8.9997C14.0588 9.76988 14.0565 10.5401 14.0614 11.3102C14.062 11.4182 14.0287 11.4462 13.9277 11.4393C13.8116 11.4312 13.6946 11.4384 13.578 11.4376C13.3314 11.4353 13.2312 11.3354 13.2312 11.0861C13.2306 9.72483 13.2309 8.36323 13.2309 7.00193C13.2309 6.87717 13.2329 6.75213 13.23 6.62738C13.2286 6.56905 13.247 6.54565 13.308 6.54652C13.5326 6.54912 13.7576 6.55056 13.9823 6.54594C14.0833 6.54392 14.0582 6.6115 14.0582 6.66434C14.0591 7.4426 14.0588 8.22115 14.0588 8.9997Z" fill="#141432"/>
<path d="M9.58447 9.55935C9.58361 8.94945 10.0777 8.45073 10.6833 8.45044C11.2975 8.45015 11.7936 8.94656 11.7939 9.56166C11.7942 10.1687 11.2972 10.67 10.6934 10.6717C10.0809 10.6735 9.58534 10.1765 9.58447 9.55935Z" fill="white"/>
<path d="M17.6282 9.56179C17.6276 10.1873 17.1352 10.6811 16.5117 10.6814C15.8914 10.6817 15.3973 10.185 15.3962 9.55977C15.395 8.93716 15.8888 8.44334 16.514 8.4419C17.1364 8.44045 17.6285 8.93514 17.6282 9.56179Z" fill="white"/>
</svg>
