<svg width="20" height="20" viewBox="0 0 20 20" fill="none" xmlns="http://www.w3.org/2000/svg">
<g clip-path="url(#clip0_1967_29801)">
<path d="M13.5156 1.17188H15.7671C16.0805 1.17188 16.367 1.34895 16.5072 1.62922C16.6519 1.91863 17.0039 2.03598 17.2933 1.89125C17.5827 1.74652 17.7 1.39457 17.5553 1.10512C17.2166 0.427812 16.5243 0 15.7671 0H13.5156C13.192 0 12.9297 0.262344 12.9297 0.585938C12.9297 0.909531 13.192 1.17188 13.5156 1.17188Z" fill="#047B73"/>
<path d="M10.6478 1.62922C10.7925 1.91863 11.1445 2.03598 11.4339 1.89125C11.7234 1.74652 11.8407 1.39457 11.6959 1.10512L11.6959 1.10504C11.3572 0.427812 10.665 0 9.90781 0H7.65625C7.33266 0 7.07031 0.262344 7.07031 0.585938C7.07031 0.909531 7.33266 1.17188 7.65625 1.17188H9.90777C10.2212 1.17188 10.5077 1.34895 10.6478 1.62922Z" fill="#047B73"/>
<path d="M0.0390625 12.3828V19.4141C0.0390625 19.7377 0.301406 20 0.625 20H7.07031V11.7969H0.625C0.301406 11.7969 0.0390625 12.0592 0.0390625 12.3828ZM4.14062 14.7266C4.14062 14.403 4.40297 14.1406 4.72656 14.1406C5.05016 14.1406 5.3125 14.403 5.3125 14.7266V15.8984C5.3125 16.222 5.05016 16.4844 4.72656 16.4844C4.40297 16.4844 4.14062 16.222 4.14062 15.8984V14.7266ZM1.79688 14.7266C1.79688 14.403 2.05922 14.1406 2.38281 14.1406C2.70641 14.1406 2.96875 14.403 2.96875 14.7266V15.8984C2.96875 16.222 2.70641 16.4844 2.38281 16.4844C2.05922 16.4844 1.79688 16.222 1.79688 15.8984V14.7266Z" fill="#047B73"/>
<path d="M13.5156 16.4844H14.6875V20H13.5156V16.4844Z" fill="#047B73"/>
<path d="M9.80871 3.33L9.66277 4.57031H12.681L12.535 3.33C12.5004 3.03488 12.2502 2.8125 11.9531 2.8125H10.3906C10.0935 2.8125 9.8434 3.03488 9.80871 3.33Z" fill="#047B73"/>
<path d="M9.15726 8.86719H13.1865L12.8188 5.74219H9.52492L9.15726 8.86719Z" fill="#047B73"/>
<path d="M15.6681 3.33L15.5222 4.57031H18.5404L18.3944 3.33C18.3597 3.03488 18.1096 2.8125 17.8125 2.8125H16.25C15.9529 2.8125 15.7028 3.03488 15.6681 3.33Z" fill="#047B73"/>
<path d="M15.0166 8.86719H19.0459L18.6782 5.74219H15.3843L15.0166 8.86719Z" fill="#047B73"/>
<path fill-rule="evenodd" clip-rule="evenodd" d="M8.82812 10.0391H19.375C19.6986 10.0391 19.9609 10.3014 19.9609 10.625V19.4141C19.9609 19.7377 19.6986 20 19.375 20H15.8594V15.8984C15.8594 15.5748 15.597 15.3125 15.2734 15.3125H12.9297C12.6061 15.3125 12.3438 15.5748 12.3438 15.8984V20H8.24219V10.625C8.24219 10.3014 8.50453 10.0391 8.82812 10.0391Z" fill="#047B73"/>
</g>
<defs>
<clipPath id="clip0_1967_29801">
<rect width="20" height="20" fill="white"/>
</clipPath>
</defs>
</svg>
