<svg width="20" height="20" viewBox="0 0 20 20" fill="none" xmlns="http://www.w3.org/2000/svg">
<g clip-path="url(#clip0_1967_36271)">
<path d="M12.9297 1.17188H15.1812C15.4966 1.17188 15.7802 1.34711 15.9212 1.62922C16.0239 1.83453 16.2308 1.95324 16.4458 1.95324C16.5338 1.95324 16.6233 1.93328 16.7073 1.89125C16.9968 1.74652 17.1141 1.39457 16.9694 1.10512C16.6285 0.423477 15.9434 0 15.1812 0H12.9297C12.6061 0 12.3438 0.262344 12.3438 0.585938C12.3438 0.909531 12.6061 1.17188 12.9297 1.17188Z" fill="#737373"/>
<path d="M7.07031 1.17188H9.32187C9.63726 1.17188 9.92081 1.34711 10.0619 1.62922C10.1645 1.83453 10.3714 1.95324 10.5864 1.95324C10.6744 1.95324 10.7639 1.93328 10.848 1.89125C11.1374 1.74652 11.2547 1.39457 11.11 1.10512C10.7691 0.423477 10.084 0 9.32187 0H7.07031C6.74672 0 6.48438 0.262344 6.48438 0.585938C6.48438 0.909531 6.74672 1.17188 7.07031 1.17188Z" fill="#737373"/>
<path d="M2.96875 16.4844C3.29234 16.4844 3.55469 16.222 3.55469 15.8984V14.7266C3.55469 14.403 3.29234 14.1406 2.96875 14.1406C2.64516 14.1406 2.38281 14.403 2.38281 14.7266V15.8984C2.38281 16.222 2.64516 16.4844 2.96875 16.4844Z" fill="#737373"/>
<path d="M5.3125 16.4844C5.63609 16.4844 5.89844 16.222 5.89844 15.8984V14.7266C5.89844 14.403 5.63609 14.1406 5.3125 14.1406C4.98891 14.1406 4.72656 14.403 4.72656 14.7266V15.8984C4.72656 16.222 4.98891 16.4844 5.3125 16.4844Z" fill="#737373"/>
<path d="M19.375 9.45312H18.9195L18.1991 3.33C18.1644 3.03488 17.9143 2.8125 17.6172 2.8125H15.2734C14.9763 2.8125 14.7262 3.03488 14.6915 3.33L13.9711 9.45312H13.0601L12.3397 3.33C12.305 3.03488 12.0549 2.8125 11.7578 2.8125H9.41406C9.11695 2.8125 8.86684 3.03488 8.83215 3.33L8.11176 9.45312H7.65625C7.33266 9.45312 7.07031 9.71547 7.07031 10.0391V11.7969H0.625C0.301406 11.7969 0.0390625 12.0592 0.0390625 12.3828V19.4141C0.0390625 19.7377 0.301406 20 0.625 20H19.375C19.6986 20 19.9609 19.7377 19.9609 19.4141V10.0391C19.9609 9.71547 19.6986 9.45312 19.375 9.45312ZM7.07031 18.8281H1.21094V12.9688H7.07031V18.8281ZM15.7945 3.98438H17.0961L17.234 5.15625H15.6566L15.7945 3.98438ZM15.5188 6.32812H17.3719L17.7395 9.45312H15.1511L15.5188 6.32812ZM9.93512 3.98438H11.2368L11.3746 5.15625H9.79723L9.93512 3.98438ZM9.65938 6.32812H11.5125L11.8802 9.45312H9.29176L9.65938 6.32812ZM14.1016 18.8281H12.9297V16.4844H14.1016V18.8281ZM18.7891 18.8281H15.2734V15.8984C15.2734 15.5748 15.0111 15.3125 14.6875 15.3125H12.3438C12.0202 15.3125 11.7578 15.5748 11.7578 15.8984V18.8281H8.24219V10.625H18.7891V18.8281Z" fill="#737373"/>
</g>
<defs>
<clipPath id="clip0_1967_36271">
<rect width="20" height="20" fill="white"/>
</clipPath>
</defs>
</svg>
