<svg width="101" height="100" viewBox="0 0 101 100" fill="none" xmlns="http://www.w3.org/2000/svg">
<path d="M0.5 8C0.5 3.58172 4.08172 0 8.5 0H92.5C96.9183 0 100.5 3.58172 100.5 8V92C100.5 96.4183 96.9183 100 92.5 100H8.5C4.08172 100 0.5 96.4183 0.5 92V8Z" fill="#4968AD"/>
<g clip-path="url(#clip0_907_51110)">
<path fill-rule="evenodd" clip-rule="evenodd" d="M85.5 50.2063C85.5 30.7624 69.83 15 50.5 15C31.17 15 15.5 30.7624 15.5 50.2063C15.5 67.7788 28.299 82.3437 45.0312 84.9849V60.3831H36.1445V50.2063H45.0312V42.4499C45.0312 33.6263 50.2565 28.7525 58.2513 28.7525C62.0806 28.7525 66.0859 29.4401 66.0859 29.4401V38.1041H61.6725C57.3247 38.1041 55.9688 40.818 55.9688 43.6021V50.2063H65.6758L64.124 60.3831H55.9688V84.9849C72.701 82.3437 85.5 67.7788 85.5 50.2063Z" fill="#FFFFFE"/>
</g>
<defs>
<clipPath id="clip0_907_51110">
<rect width="70" height="70" fill="white" transform="translate(15.5 15)"/>
</clipPath>
</defs>
</svg>
