<svg width="68" height="68" viewBox="0 0 68 68" fill="none" xmlns="http://www.w3.org/2000/svg">
<g filter="url(#filter0_d_3_3044)">
<circle cx="33" cy="32" r="30" fill="url(#paint0_linear_3_3044)"/>
</g>
<mask id="mask0_3_3044" style="mask-type:alpha" maskUnits="userSpaceOnUse" x="3" y="2" width="60" height="60">
<circle cx="33" cy="32" r="30" fill="#70B3F9"/>
</mask>
<g mask="url(#mask0_3_3044)">
<path d="M50.3509 28.3216C50.4774 27.9736 50.5375 27.7479 50.5293 27.5786C50.5284 27.4965 50.5029 27.4229 50.4911 27.381C50.4792 27.3383 50.4638 27.3135 50.4638 27.3135C50.3736 27.316 50.3172 27.3426 50.2617 27.3699C50.2061 27.3973 50.1579 27.4298 50.116 27.464C50.0322 27.5332 49.974 27.6128 49.9357 27.6923C49.8611 27.853 49.8675 28.0121 49.9048 28.1378C49.9831 28.3935 50.1706 28.5226 50.1688 28.5226C50.1715 28.5217 50.187 28.3824 50.2098 28.1335C50.2316 27.8676 50.3017 27.6324 50.3026 27.6341L50.2862 28.0446C50.2753 28.249 50.2708 28.4072 50.2626 28.4944C50.2116 28.6919 50.1888 28.8954 50.1806 29.0981C50.1296 28.7928 50.0086 28.5713 49.8948 28.4114C49.7819 28.2541 49.6726 28.172 49.6708 28.1729C49.4969 28.408 49.4496 28.6628 49.4669 28.8552C49.4851 29.0519 49.5652 29.205 49.659 29.3195C49.8474 29.5487 50.0887 29.6317 50.0878 29.6325C50.0887 29.6317 50.0677 29.4786 49.9758 29.2118C49.8775 28.9322 49.7791 28.6457 49.7801 28.644C49.7791 28.6457 49.9084 28.8638 50.0104 29.0921C50.1342 29.3751 50.1825 29.5795 50.1916 29.6419C50.207 29.8437 50.2316 30.0455 50.2635 30.2448C50.1369 29.9318 49.9357 29.7411 49.7609 29.6214C49.587 29.5017 49.4387 29.4606 49.4377 29.4615C49.2602 30.0233 49.4933 30.4072 49.7309 30.5936C49.9703 30.7877 50.2407 30.8656 50.2407 30.8647C50.2407 30.8656 50.2098 30.6945 50.0605 30.4337C49.9002 30.1524 49.7118 29.889 49.7127 29.889C49.7127 29.889 49.9139 30.0754 50.0741 30.3012C50.2453 30.5398 50.3263 30.7356 50.3582 30.8296C50.3964 31.0733 50.4319 31.317 50.4656 31.5616C50.2025 30.8536 49.5188 30.7835 49.5206 30.7835C49.384 31.3324 49.6034 31.6839 49.8602 31.9088C50.1169 32.1328 50.4101 32.2252 50.4101 32.2252C50.4101 32.2252 50.3818 32.0379 50.2289 31.7446C50.0668 31.435 49.8511 31.1777 49.8511 31.1777C49.8511 31.1777 50.0805 31.3555 50.2489 31.6018C50.4392 31.8806 50.5202 32.1174 50.5475 32.2081C50.5785 32.4723 50.6067 32.7365 50.6304 33.0016C50.3727 32.2277 49.6317 32.1311 49.6335 32.1302C49.4623 32.7185 49.6826 33.1051 49.9512 33.3607C50.218 33.6138 50.532 33.731 50.532 33.731C50.532 33.731 50.5138 33.5258 50.3627 33.2008C50.2025 32.8562 49.9785 32.5698 49.9785 32.5698C49.9785 32.5698 50.2198 32.7716 50.3918 33.0461C50.5785 33.3462 50.6568 33.601 50.6859 33.7096C50.705 34.0089 50.7178 34.3082 50.726 34.6083C50.5029 33.7489 49.699 33.6104 49.7027 33.6104C49.4833 34.2312 49.6936 34.6528 49.964 34.9452C50.2334 35.2342 50.5621 35.3822 50.563 35.3822C50.563 35.3822 50.5603 35.1598 50.4201 34.7999C50.2726 34.4193 50.0486 34.0995 50.0486 34.0995C50.0486 34.0995 50.2981 34.3287 50.4629 34.6357C50.6468 34.9786 50.7105 35.2642 50.7305 35.3779C50.726 35.708 50.7141 36.038 50.6914 36.3672C50.6194 35.8935 50.3609 35.6019 50.1278 35.4335C49.8939 35.2642 49.6826 35.2137 49.6826 35.2129C49.3968 35.8542 49.5816 36.3125 49.842 36.6469C50.1023 36.9769 50.4383 37.1676 50.4383 37.1676C50.4383 37.1685 50.4601 36.9299 50.3463 36.5331C50.2262 36.1133 50.0131 35.7567 50.0131 35.7567C50.0122 35.7567 50.2607 36.0192 50.4082 36.3613C50.5803 36.7589 50.6103 37.0804 50.6158 37.1924C50.5748 37.5447 50.522 37.8953 50.4565 38.2433C50.441 37.7311 50.1988 37.3951 49.9694 37.1941C49.7391 36.9923 49.5188 36.9196 49.5188 36.9196C49.3321 37.2437 49.2739 37.5242 49.2912 37.7764C49.3003 37.9021 49.3276 38.021 49.3676 38.1305C49.4077 38.2425 49.4605 38.3442 49.5197 38.4306C49.7537 38.7846 50.0687 39.0446 50.0705 39.0437C50.0677 39.0446 50.1424 38.8008 50.0705 38.3784C49.9976 37.921 49.811 37.5225 49.811 37.5233C49.811 37.5233 50.045 37.8252 50.1588 38.2048C50.2972 38.6529 50.2662 38.9941 50.2489 39.1078C50.1369 39.4678 49.9958 39.8184 49.8292 40.1596C49.9567 39.6303 49.7728 39.2369 49.5688 38.9992C49.364 38.7598 49.1419 38.658 49.1428 38.6572C48.8997 38.9283 48.785 39.1694 48.7477 39.4114C48.7103 39.6517 48.7477 39.8877 48.8132 40.1049C48.9443 40.5375 49.1938 40.8864 49.1947 40.8856C49.1919 40.8864 49.3412 40.6513 49.395 40.1981C49.4532 39.7184 49.3403 39.2874 49.3403 39.2891C49.3403 39.2883 49.5224 39.6337 49.5342 40.0467C49.5488 40.5273 49.4104 40.877 49.3604 40.9908C49.1428 41.3311 48.9033 41.6594 48.6439 41.9741C48.9015 41.4602 48.8214 41.0147 48.6839 40.7188C48.5446 40.4213 48.3516 40.2588 48.3525 40.2588C48.0166 40.4837 47.8227 40.718 47.7125 40.9685C47.6024 41.2165 47.576 41.4782 47.5878 41.7219C47.6115 42.2084 47.7927 42.6223 47.7945 42.6214C47.7927 42.6214 47.9984 42.4042 48.1714 41.9416C48.3553 41.4516 48.3653 40.9737 48.3653 40.9745C48.3653 40.9737 48.4518 41.3807 48.3562 41.8134C48.2542 42.2802 48.0558 42.6026 47.9647 42.7351C47.657 43.0541 47.3329 43.3577 46.997 43.651C47.352 43.161 47.3657 42.6881 47.291 42.3529C47.2164 42.0169 47.0589 41.8099 47.0589 41.8091C46.6474 41.9869 46.3833 42.2084 46.2095 42.4572C46.0365 42.7061 45.9536 42.9806 45.9181 43.2405C45.8471 43.7596 45.9718 44.2205 45.9737 44.2205C45.9718 44.2205 46.2231 44.0212 46.4917 43.5612C46.7766 43.0755 46.8977 42.5718 46.8977 42.5727C46.8977 42.5727 46.895 43.0173 46.7102 43.456C46.5236 43.9015 46.2814 44.2008 46.1557 44.3393C45.7543 44.6497 45.3409 44.9464 44.9185 45.232C45.3865 44.7583 45.4912 44.2581 45.4757 43.8887C45.4602 43.5184 45.3327 43.2721 45.3337 43.2721C44.8621 43.4064 44.5416 43.6116 44.3158 43.8562C44.091 44.0999 43.9626 44.3829 43.8889 44.6531C43.7414 45.1944 43.8188 45.6912 43.8197 45.6912C43.8188 45.6912 44.1046 45.5065 44.4506 45.0533C44.8165 44.5736 45.0278 44.0588 45.0278 44.0588C45.0278 44.0588 44.9513 44.5274 44.6955 44.9669C44.3959 45.4834 44.0473 45.7767 43.9262 45.8699C43.4974 46.1342 43.0613 46.389 42.6198 46.6352C43.1405 46.1803 43.2998 45.6741 43.3262 45.2902C43.3535 44.9054 43.2534 44.6386 43.2543 44.6386C42.7354 44.7344 42.3685 44.9242 42.1008 45.1636C41.8341 45.4022 41.6675 45.6904 41.5619 45.97C41.3516 46.5284 41.3907 47.0568 41.3907 47.0568C41.3898 47.0568 41.7057 46.8832 42.1154 46.4352C42.5478 45.9614 42.8319 45.439 42.831 45.4398C42.831 45.439 42.6953 45.9255 42.3812 46.3659C42.0553 46.8242 41.7103 47.097 41.5427 47.2159C41.0593 47.4673 40.5714 47.7092 40.0797 47.9453C40.6387 47.504 40.8408 46.9918 40.9009 46.5959C40.961 46.2 40.8827 45.9178 40.8827 45.9178C39.7693 46.0427 39.2476 46.631 38.9818 47.2082C38.7187 47.7828 38.726 48.3394 38.726 48.3394C38.7251 48.3394 39.0683 48.1744 39.5308 47.7298C40.0196 47.2595 40.3638 46.7302 40.3638 46.7302C40.3638 46.7302 40.179 47.2312 39.8166 47.6725C39.4734 48.0915 39.1265 48.3506 38.929 48.4797C38.3982 48.72 37.8629 48.9534 37.3249 49.1817C38.5057 48.3078 38.258 47.1218 38.2598 47.1244C37.0745 47.1979 36.4855 47.7948 36.175 48.389C35.8673 48.9816 35.85 49.5639 35.8509 49.5639C35.85 49.5639 36.216 49.404 36.7249 48.9577C37.2639 48.4865 37.6581 47.9495 37.6581 47.9495C37.6581 47.9495 37.4323 48.4651 37.0281 48.9115C36.6748 49.3014 36.3289 49.5503 36.1104 49.6871L35.7253 49.8453C35.667 49.8692 35.6115 49.8897 35.5505 49.9094C35.4895 49.9299 35.4258 49.9496 35.3611 49.9684C35.1035 50.0445 34.8376 50.1112 34.5709 50.1719C34.0383 50.2908 33.4939 50.3883 32.965 50.425C32.9631 50.4276 32.6518 50.4498 32.6472 50.7594C32.6463 50.9253 32.7383 51.0056 32.832 51.0398C32.9258 51.0749 33.0168 51.0646 33.0159 51.0646C33.605 51.0176 34.1658 50.9107 34.722 50.7833C34.9997 50.7183 35.2755 50.6474 35.5514 50.5636C35.6889 50.5208 35.8309 50.4763 35.9766 50.4156L36.3617 50.254C36.6157 50.1907 37.0517 50.1104 37.6153 50.1078C38.2462 50.1061 38.8307 50.2566 38.8307 50.2566C38.8307 50.2566 38.1178 50.2181 37.3749 50.2942C36.6721 50.3669 36.2988 50.5114 36.2979 50.5122C36.2979 50.5114 36.7695 50.8936 37.4642 51.0595C38.1561 51.2263 39.0847 51.1732 39.9341 50.3019C39.9332 50.2993 39.0583 49.4254 37.577 49.7204C38.1133 49.4819 38.6459 49.2373 39.1757 48.9859C39.4033 48.9158 39.8403 48.8072 40.4284 48.7781C41.032 48.749 41.5992 48.8628 41.5992 48.8628C41.5992 48.8628 40.9137 48.8619 40.2072 48.9662C39.539 49.0654 39.1875 49.2159 39.1866 49.2176C39.1866 49.2168 39.6518 49.5648 40.3255 49.6939C40.9956 49.8239 41.8905 49.729 42.6607 48.8491C42.6607 48.8491 42.4331 48.6464 42.028 48.4934C41.622 48.3403 41.0448 48.236 40.331 48.4215C40.8208 48.1761 41.307 47.923 41.7876 47.6614C41.9752 47.587 42.4113 47.4399 43.0294 47.3706C43.6021 47.3065 44.1529 47.3766 44.1529 47.3766C44.152 47.3766 43.4974 47.4236 42.8301 47.563C42.1982 47.6964 41.8723 47.8572 41.8723 47.858C41.8723 47.8572 42.3348 48.1642 42.9876 48.248C43.3135 48.2899 43.6877 48.2745 44.0673 48.1351C44.4469 47.9966 44.8338 47.7332 45.1689 47.2851C45.1689 47.2851 44.9294 47.1064 44.5243 46.991C44.1174 46.8738 43.5502 46.8182 42.8719 47.0517C43.3098 46.7969 43.7432 46.5326 44.1693 46.259C44.2785 46.2009 44.7137 45.9914 45.3892 45.8571C45.9272 45.7502 46.458 45.7656 46.4589 45.7648C46.4589 45.7656 45.8389 45.8699 45.2171 46.0555C44.629 46.2316 44.3313 46.4052 44.3313 46.4061C44.3313 46.4052 44.7938 46.6652 45.4238 46.6925C45.7379 46.7062 46.0948 46.66 46.4471 46.4942C46.7985 46.3274 47.1463 46.0401 47.4212 45.5783C47.4212 45.5775 47.1699 45.4313 46.7648 45.362C46.3588 45.2919 45.808 45.2953 45.1762 45.5843C45.5977 45.2885 46.0101 44.9798 46.4107 44.6583C46.5727 44.5651 46.936 44.3778 47.4622 44.2076C47.9574 44.0477 48.4618 43.993 48.4627 43.993C48.4618 43.9939 47.8892 44.1734 47.3211 44.4137C46.7848 44.6429 46.5217 44.8336 46.5217 44.8353C46.5217 44.8336 46.9851 45.0371 47.5878 44.9943C47.8873 44.9721 48.2233 44.8883 48.5392 44.6856C48.8542 44.4838 49.1528 44.1623 49.3503 43.6826C49.3503 43.6817 49.0954 43.5817 48.7085 43.5663C48.3198 43.5509 47.809 43.6159 47.2582 43.9348C47.5933 43.6321 47.9165 43.3183 48.2233 42.9891C48.338 42.8951 48.6648 42.6539 49.171 42.3914C49.6089 42.1665 50.0705 42.0246 50.0714 42.0246C50.0705 42.0254 49.5661 42.2965 49.0727 42.606C48.6056 42.9002 48.3862 43.1114 48.3862 43.114C48.3862 43.1122 48.8505 43.2439 49.4123 43.1122C49.6927 43.0464 49.9958 42.9122 50.2617 42.6659C50.5257 42.4205 50.7524 42.0588 50.8461 41.5654C50.8461 41.5645 50.5839 41.5209 50.2152 41.5808C49.8447 41.6406 49.3777 41.7954 48.9143 42.1879C49.1774 41.8561 49.4214 41.5098 49.6408 41.1507C49.7181 41.0549 49.9767 40.7659 50.4009 40.4059C50.7533 40.1083 51.142 39.8714 51.1429 39.8714C51.1429 39.8723 50.746 40.2391 50.3582 40.6248C49.9913 40.9908 49.8274 41.2242 49.8292 41.2259C49.8283 41.2242 50.2844 41.2652 50.7788 41.0275C51.0237 40.9087 51.2786 40.7188 51.4679 40.4272C51.6555 40.1374 51.7793 39.744 51.7383 39.2635C51.7383 39.2626 51.4861 39.2865 51.163 39.4285C50.8379 39.5713 50.4492 39.8201 50.1124 40.2785C50.279 39.9202 50.4192 39.5508 50.5275 39.1737C50.5521 39.1198 50.6049 39.0129 50.6877 38.8667C50.7706 38.7213 50.8798 38.5341 51.0228 38.3331C51.2649 37.9928 51.5708 37.7243 51.5717 37.7243C51.5717 37.7243 51.2868 38.1074 51.041 38.5358C50.8079 38.9522 50.7169 39.2036 50.7187 39.2053C50.7169 39.2036 51.142 39.1378 51.5271 38.8017C51.6236 38.7153 51.7147 38.6221 51.7939 38.5144C51.874 38.4066 51.9432 38.2827 51.9932 38.1433C52.0943 37.8645 52.1189 37.5208 52.0014 37.1214C52.0014 37.1214 51.7711 37.1685 51.4989 37.3369C51.2258 37.5071 50.9153 37.7935 50.7241 38.2801C50.7824 37.9329 50.8279 37.584 50.8616 37.2352C50.8816 37.1522 50.9736 36.823 51.2085 36.3963C51.3951 36.0586 51.6518 35.7849 51.6518 35.7849C51.6518 35.7849 51.4261 36.162 51.2476 36.581C51.0792 36.9778 51.0455 37.2181 51.0455 37.2189C51.0455 37.2189 51.4197 37.0932 51.7301 36.7683C52.0397 36.4468 52.2846 35.9098 51.9905 35.1958C51.9905 35.1958 51.7784 35.2573 51.5408 35.4386C51.3032 35.6199 51.0419 35.9175 50.9208 36.392C50.9372 36.0551 50.9426 35.7182 50.9399 35.3822C50.959 35.2727 51.0209 34.982 51.1857 34.61C51.3296 34.2859 51.5471 34.0174 51.5471 34.0174C51.5471 34.0174 51.366 34.3774 51.2385 34.7768C51.1174 35.1547 51.1102 35.3796 51.1102 35.3796C51.1102 35.3796 51.4434 35.2317 51.7019 34.911C51.9596 34.5929 52.1407 34.0901 51.8203 33.4565C51.8166 33.4565 51.0683 33.7301 50.919 34.6057C50.9062 34.3065 50.8853 34.008 50.8607 33.7096C50.8707 33.6078 50.9071 33.3368 51.0364 32.9862C51.1493 32.6809 51.3359 32.4253 51.3359 32.4253C51.3359 32.4253 51.1875 32.763 51.0947 33.1358C51.0073 33.489 51.0164 33.6959 51.0164 33.6959C51.0164 33.6959 51.3123 33.5403 51.5298 33.2325C51.7474 32.9272 51.884 32.4637 51.559 31.9002C51.5562 31.9002 50.8762 32.1815 50.7906 32.9965C50.7596 32.7228 50.726 32.45 50.6877 32.1773C50.6932 32.0738 50.7169 31.8327 50.8152 31.524C50.9062 31.2409 51.0674 31.0015 51.0674 31.0015C51.0674 31.0015 50.9435 31.3145 50.8753 31.6582C50.8106 31.984 50.8288 32.173 50.8288 32.173C50.8288 32.173 51.0919 32.0174 51.2768 31.7292C51.4616 31.4427 51.5681 31.0195 51.2531 30.5175C51.2513 30.5175 50.6413 30.7903 50.5903 31.53C50.5521 31.288 50.512 31.0468 50.4683 30.8057C50.4701 30.7082 50.4829 30.4893 50.5621 30.2225C50.6386 29.9686 50.7988 29.7727 50.7988 29.7736C50.7988 29.7727 50.6704 30.0301 50.6204 30.3397C50.573 30.6381 50.5949 30.8074 50.5958 30.8083C50.5958 30.8074 50.8297 30.6612 50.9891 30.3918C51.1457 30.1156 51.2349 29.7984 51.0082 29.3939C51.0082 29.3948 50.8625 29.4316 50.705 29.5538C50.5484 29.6753 50.3818 29.8899 50.3627 30.2234C50.3263 30.019 50.2963 29.8129 50.2771 29.6069C50.2826 29.5256 50.3063 29.3255 50.4292 29.0998C50.5421 28.8911 50.7278 28.768 50.7278 28.7689C50.7278 28.7663 50.5557 28.9476 50.461 29.2084C50.3718 29.4529 50.3855 29.6086 50.3846 29.6077C50.3855 29.6086 50.6021 29.4871 50.7797 29.2956C50.8698 29.1998 50.949 29.087 50.9936 28.963C51.0391 28.8364 51.0419 28.7133 51.0036 28.532C51.0036 28.5329 50.8671 28.5192 50.6996 28.579C50.6158 28.609 50.5248 28.6586 50.4446 28.7398C50.3636 28.8202 50.2953 28.9339 50.258 29.081C50.2626 28.8903 50.2808 28.7013 50.3236 28.5157C50.3554 28.4388 50.4301 28.29 50.6049 28.1617C50.7833 28.0309 51.0127 28.007 51.0109 28.0078C51.0127 28.0061 50.7615 28.0737 50.5894 28.2575C50.4274 28.4285 50.4028 28.5662 50.4009 28.5636C50.4019 28.5645 50.6167 28.5123 50.8261 28.4131C50.9317 28.3644 51.0373 28.3028 51.1311 28.2267C51.2249 28.1506 51.3095 28.0574 51.396 27.9531C51.396 27.9557 51.2531 27.8813 51.0264 27.8736C50.9144 27.871 50.7815 27.8881 50.654 27.9557C50.5284 28.0275 50.4128 28.1463 50.3509 28.3216Z" fill="url(#paint1_linear_3_3044)"/>
<path d="M15.063 28.325C15.0002 28.1489 14.8846 28.03 14.7581 27.9633C14.6315 27.8958 14.4977 27.8778 14.3848 27.8812C14.1581 27.8889 14.0143 27.9633 14.0143 27.9608C14.1007 28.0651 14.1845 28.1583 14.2792 28.2353C14.373 28.3122 14.4777 28.3729 14.5842 28.4225C14.7936 28.5217 15.0093 28.5747 15.0102 28.5739C15.0084 28.5764 14.9847 28.4379 14.8227 28.2669C14.6506 28.0831 14.3984 28.0146 14.3994 28.0164C14.3984 28.0155 14.6279 28.0394 14.8063 28.1711C14.9738 28.2934 15.0494 28.4354 15.0831 28.5149C15.1286 28.709 15.1468 28.9082 15.1504 29.1083C15.1158 28.9578 15.0476 28.8407 14.9684 28.7569C14.8882 28.6739 14.7972 28.6226 14.7125 28.591C14.5432 28.5294 14.4048 28.5431 14.4048 28.5414C14.3657 28.7227 14.3684 28.8458 14.4139 28.9732C14.4576 29.098 14.5377 29.2109 14.6279 29.3075C14.8063 29.5008 15.0239 29.6222 15.0248 29.6214C15.0239 29.6222 15.0375 29.4666 14.9483 29.2212C14.8546 28.9595 14.6807 28.7774 14.6816 28.78C14.6816 28.7782 14.8673 28.9022 14.9802 29.1117C15.1186 29.3674 15.1268 29.5863 15.1277 29.6453C15.1086 29.8454 15.0785 30.0438 15.043 30.2422C15.0257 29.9061 14.8591 29.6906 14.7025 29.5684C14.545 29.4452 14.3984 29.4076 14.3984 29.4076C14.1699 29.8146 14.2592 30.1302 14.4167 30.4106C14.5769 30.6783 14.8109 30.8262 14.8109 30.8271C14.8109 30.8262 14.8336 30.6569 14.7863 30.3568C14.7362 30.0464 14.6078 29.7873 14.6078 29.7881C14.6078 29.7873 14.7681 29.9839 14.8445 30.2387C14.9237 30.5098 14.9347 30.7313 14.9356 30.8271C14.8928 31.0716 14.8518 31.3162 14.8127 31.5607C14.7681 30.8108 14.1535 30.5355 14.1517 30.5355C13.8358 31.0391 13.9423 31.4632 14.1281 31.7514C14.3138 32.0404 14.5787 32.1961 14.5778 32.1961C14.5778 32.1961 14.5969 32.0062 14.5314 31.6796C14.4631 31.3341 14.3384 31.0203 14.3384 31.0203C14.3384 31.0203 14.5004 31.2597 14.5915 31.5436C14.6943 31.8651 14.7125 32.114 14.7153 32.2097C14.6788 32.4757 14.6452 32.7416 14.616 33.0076C14.5241 32.2003 13.8486 31.9207 13.8458 31.9207C13.5199 32.4859 13.6574 32.9511 13.8759 33.2581C14.0944 33.5659 14.3912 33.7224 14.3912 33.7224C14.3912 33.7224 14.4003 33.5146 14.312 33.1598C14.2191 32.7852 14.0707 32.4466 14.0698 32.4466C14.0698 32.4466 14.2573 32.7031 14.3702 33.0093C14.494 33.3445 14.5341 33.607 14.5459 33.7198C14.5204 34.0217 14.5004 34.3244 14.4877 34.6271C14.3347 33.7541 13.5882 33.4813 13.5845 33.4813C13.2641 34.1175 13.4462 34.622 13.7047 34.9409C13.9642 35.2624 14.2992 35.4104 14.2992 35.4104C14.3001 35.4104 14.291 35.1846 14.1699 34.8058C14.0407 34.4056 13.8586 34.0439 13.8586 34.0439C13.8586 34.0439 14.078 34.3124 14.2227 34.6382C14.3839 35.0016 14.4476 35.2889 14.4676 35.4044C14.4658 35.7387 14.4713 36.0731 14.4877 36.4074C14.3629 35.9388 14.1007 35.6455 13.864 35.466C13.6273 35.2872 13.417 35.2257 13.417 35.2257C13.1239 35.9431 13.3697 36.4818 13.681 36.8033C13.9933 37.1291 14.3693 37.2548 14.3693 37.2548C14.3702 37.254 14.3347 37.0128 14.1654 36.6143C13.986 36.1936 13.7593 35.8165 13.7593 35.8157C13.7593 35.8157 14.0179 36.0902 14.2054 36.4288C14.423 36.823 14.5195 37.1342 14.5496 37.2454C14.5851 37.6045 14.6315 37.962 14.6925 38.3186C14.5004 37.8311 14.1881 37.5438 13.9141 37.3745C13.6419 37.2052 13.4116 37.1582 13.4107 37.1582C13.2932 37.5592 13.3187 37.9047 13.4207 38.1843C13.4717 38.3245 13.5408 38.4477 13.621 38.5563C13.6619 38.611 13.7047 38.6606 13.7493 38.7076C13.7948 38.7581 13.8422 38.8042 13.8904 38.8461C14.2792 39.1813 14.7062 39.2463 14.7043 39.2472C14.7062 39.2446 14.6133 38.9958 14.3766 38.5759C14.1299 38.1458 13.8431 37.7627 13.8422 37.7627C13.8422 37.7627 14.1508 38.0321 14.3939 38.3733C14.6798 38.782 14.8418 39.1087 14.8919 39.2156C15.002 39.5918 15.1432 39.9595 15.3116 40.3161C14.9702 39.8611 14.5814 39.6149 14.2555 39.4738C13.9323 39.3336 13.6801 39.3105 13.6801 39.3122C13.6419 39.7945 13.7675 40.1895 13.9578 40.4777C14.149 40.7693 14.4048 40.9591 14.6524 41.0762C15.1495 41.3114 15.6065 41.2686 15.6056 41.2703C15.6056 41.2678 15.4418 41.0352 15.0712 40.6692C14.6798 40.2844 14.2801 39.9184 14.2792 39.9176C14.2801 39.9176 14.6707 40.1536 15.0266 40.4503C15.4418 40.8 15.6994 41.0822 15.785 41.1865C16.0044 41.5431 16.2484 41.886 16.5106 42.2152C16.0463 41.8321 15.5811 41.6834 15.2123 41.6261C14.8464 41.5688 14.586 41.6141 14.586 41.615C14.6816 42.1092 14.911 42.47 15.1768 42.7155C15.4436 42.9617 15.7495 43.0943 16.0308 43.1601C16.5943 43.2892 17.0595 43.1558 17.0595 43.1575C17.0595 43.155 16.8383 42.9446 16.3686 42.6505C15.8724 42.3409 15.3644 42.0724 15.3644 42.0707C15.3644 42.0716 15.8296 42.211 16.2693 42.4358C16.7455 42.6804 17.0632 42.9053 17.1979 43.0105C17.5093 43.3431 17.837 43.6612 18.1766 43.9665C17.6267 43.6544 17.1169 43.5945 16.7309 43.6125C16.3467 43.6296 16.0927 43.7305 16.0927 43.7313C16.2939 44.211 16.5934 44.5325 16.9102 44.7335C17.228 44.9353 17.5648 45.0191 17.8653 45.0396C18.4688 45.0807 18.9341 44.8763 18.9341 44.8771C18.9341 44.8754 18.6691 44.6847 18.1302 44.4564C17.5612 44.2162 16.9849 44.0383 16.984 44.0374C16.9849 44.0374 17.4911 44.0905 17.9891 44.2495C18.4962 44.412 18.8539 44.5898 19.0251 44.6856C19.4302 45.0097 19.8472 45.3201 20.2733 45.6177C19.6424 45.3346 19.0925 45.3346 18.6873 45.4056C18.284 45.4766 18.0337 45.6236 18.0337 45.6245C18.3113 46.0871 18.6609 46.3753 19.0142 46.5403C19.3674 46.7071 19.7252 46.7515 20.0402 46.737C20.672 46.7079 21.1354 46.4454 21.1354 46.4471C21.1354 46.4462 20.8368 46.2718 20.2459 46.0965C19.6214 45.9127 18.9996 45.8083 18.9987 45.8083C18.9987 45.8083 19.5313 45.7921 20.0721 45.8981C20.7075 46.023 21.1309 46.2137 21.2729 46.2863C21.7053 46.5634 22.1441 46.8293 22.5875 47.0867C21.9102 46.8593 21.3439 46.9174 20.9388 47.0354C20.5345 47.1526 20.2969 47.3313 20.2969 47.3313C20.6338 47.7802 21.0225 48.0427 21.4031 48.1812C21.7845 48.3198 22.1596 48.3343 22.4864 48.2924C23.141 48.2077 23.6044 47.8982 23.6044 47.8991C23.6044 47.8982 23.2767 47.7374 22.643 47.6049C21.9739 47.4655 21.3166 47.4202 21.3157 47.4202C21.3157 47.4202 21.8674 47.3492 22.4427 47.4117C23.0418 47.4775 23.4715 47.6177 23.6691 47.6938C24.1543 47.9572 24.645 48.2112 25.1394 48.4583C24.4265 48.277 23.8502 48.3839 23.446 48.5378C23.0418 48.6917 22.8151 48.8935 22.8151 48.8944C23.5889 49.776 24.4866 49.8692 25.1594 49.7384C25.8349 49.6075 26.301 49.2587 26.3019 49.2587C26.3019 49.2578 25.9487 49.1073 25.2777 49.0081C24.5685 48.9046 23.8812 48.9064 23.8812 48.9064C23.8812 48.9064 24.4502 48.7909 25.0556 48.8191C25.631 48.8465 26.0625 48.95 26.2956 49.0201C26.8291 49.2723 27.3662 49.5177 27.9052 49.758C26.4267 49.4707 25.5545 50.3446 25.5536 50.3472C26.4075 51.2194 27.338 51.2707 28.0326 51.104C28.7291 50.9364 29.2016 50.5524 29.2016 50.5533C29.2016 50.5533 28.8265 50.4079 28.1209 50.3361C27.3762 50.26 26.6615 50.2993 26.6606 50.2993C26.6606 50.2993 27.246 50.1471 27.8797 50.1488C28.4341 50.1497 28.8656 50.2275 29.1224 50.2899L29.3163 50.3711L29.4137 50.4122C29.4501 50.4267 29.4856 50.4413 29.5229 50.4558C29.6732 50.5105 29.8097 50.5507 29.9508 50.5909C30.2303 50.6696 30.508 50.7371 30.7884 50.7987C31.3501 50.9201 31.9146 51.0219 32.5063 51.068C32.5063 51.068 32.5974 51.0723 32.6911 51.0347C32.7849 50.9971 32.8769 50.9158 32.8759 50.7585C32.8723 50.4284 32.5591 50.4284 32.5564 50.4259C32.0256 50.3891 31.4803 50.2967 30.945 50.1856C30.6773 50.1291 30.4097 50.0667 30.1493 49.9958C30.02 49.9607 29.888 49.9222 29.7751 49.882C29.6659 49.8418 29.5284 49.7828 29.4028 49.7315C29.1834 49.5964 28.8301 49.3459 28.4678 48.9457C28.0617 48.4985 27.8332 47.982 27.8341 47.982C27.8341 47.982 28.2311 48.5199 28.7719 48.9927C29.2835 49.4399 29.6504 49.5998 29.6495 49.5998C29.6504 49.5998 29.6322 49.015 29.3226 48.4215C29.0113 47.8255 28.4186 47.227 27.2287 47.1551C27.2305 47.1526 26.9829 48.3488 28.1792 49.2253C27.6411 48.9979 27.1058 48.7653 26.5741 48.5258C26.3784 48.4001 26.0224 48.1385 25.6674 47.7075C25.3032 47.2654 25.1166 46.7626 25.1166 46.7626C25.1166 46.7626 25.4616 47.2928 25.9542 47.764C26.4194 48.2103 26.7626 48.3745 26.7617 48.3745C26.7626 48.3745 26.7681 47.817 26.5031 47.2406C26.2355 46.6609 25.7111 46.0726 24.5931 45.9486C24.5931 45.9486 24.5148 46.2333 24.5767 46.6327C24.6386 47.0311 24.8444 47.5459 25.4125 47.9888C24.9209 47.7545 24.4329 47.5134 23.9504 47.2637C23.7883 47.1526 23.4296 46.8764 23.09 46.4018C22.7741 45.9606 22.6367 45.4731 22.6376 45.474C22.6367 45.4731 22.9225 45.9973 23.3577 46.471C23.7692 46.92 24.086 47.0927 24.086 47.0927C24.0869 47.0927 24.1243 46.5634 23.9121 46.0025C23.8065 45.722 23.639 45.4338 23.3695 45.1944C23.101 44.955 22.7313 44.7651 22.2106 44.6694C22.2115 44.6694 22.1104 44.9387 22.1396 45.3269C22.1687 45.7143 22.3326 46.2248 22.8615 46.6805C22.4227 46.436 21.9875 46.1846 21.5606 45.9229C21.465 45.852 21.0881 45.5544 20.7649 45.002C20.5072 44.5616 20.4289 44.0913 20.4289 44.0913C20.4289 44.0913 20.6411 44.6069 21.0107 45.0875C21.3585 45.5407 21.6471 45.7263 21.6452 45.7263C21.6461 45.7263 21.7226 45.2277 21.5733 44.6856C21.4987 44.4137 21.3685 44.1306 21.1427 43.8861C20.9151 43.6407 20.5928 43.4355 20.1203 43.3029C20.1203 43.3029 19.9919 43.5517 19.9792 43.9254C19.9655 44.2974 20.0748 44.8019 20.5518 45.2773C20.1294 44.9943 19.7161 44.6993 19.3155 44.3915C19.1926 44.2615 18.9359 43.9562 18.7392 43.4902C18.5517 43.0507 18.5481 42.6034 18.5481 42.6043C18.5471 42.6034 18.671 43.108 18.9586 43.5954C19.2299 44.0554 19.4821 44.2555 19.4803 44.2555C19.4812 44.2555 19.605 43.7937 19.5322 43.273C19.4958 43.0122 19.412 42.736 19.2372 42.4871C19.0615 42.2375 18.7966 42.016 18.3824 41.839C18.3833 41.839 18.2249 42.0493 18.152 42.3897C18.0792 42.7283 18.0983 43.2063 18.4652 43.6997C18.1293 43.4098 17.8061 43.1088 17.4974 42.7941C17.4155 42.6804 17.1943 42.3478 17.0814 41.8467C16.9831 41.4131 17.0677 41.0036 17.0677 41.0053C17.0668 41.0044 17.0805 41.4841 17.2671 41.9749C17.4419 42.4384 17.6504 42.6556 17.6477 42.6556C17.6495 42.6556 17.8307 42.24 17.8516 41.7518C17.8625 41.5064 17.8343 41.2447 17.7223 40.9959C17.6103 40.7453 17.4137 40.511 17.0759 40.2861C17.0768 40.2861 16.882 40.452 16.7436 40.7556C16.6071 41.0566 16.5324 41.5089 16.8046 42.028C16.5406 41.7099 16.2939 41.3789 16.0718 41.0352C16.0244 40.9309 15.876 40.576 15.8888 40.0792C15.8979 39.6662 16.08 39.3165 16.079 39.3182C16.079 39.3165 15.9689 39.7491 16.0299 40.2306C16.0872 40.6838 16.2365 40.9206 16.2347 40.9189C16.2365 40.9198 16.4842 40.5683 16.6135 40.1331C16.6781 39.915 16.7145 39.6773 16.6754 39.4362C16.6353 39.1942 16.5197 38.9513 16.2739 38.6811C16.2748 38.682 16.0517 38.7854 15.8469 39.0283C15.6448 39.2686 15.46 39.667 15.5947 40.1998C15.4236 39.8569 15.2788 39.5029 15.165 39.1403C15.1477 39.0266 15.1149 38.6828 15.2542 38.2339C15.3671 37.8534 15.602 37.5498 15.6011 37.5498C15.6011 37.5498 15.4154 37.9492 15.3425 38.4083C15.2724 38.829 15.348 39.0753 15.3462 39.0736C15.3471 39.0745 15.6612 38.8128 15.8951 38.4562C15.9243 38.4118 15.9534 38.3656 15.9789 38.3177C16.0044 38.2673 16.0272 38.2134 16.0472 38.1578C16.0872 38.0466 16.1146 37.9286 16.1237 37.8021C16.14 37.549 16.0818 37.2676 15.8933 36.9436C15.8933 36.9436 15.6721 37.0171 15.4399 37.2206C15.2096 37.4224 14.9665 37.761 14.952 38.2749C14.8864 37.9338 14.8336 37.59 14.7917 37.2446C14.7936 37.1625 14.8127 36.8187 14.9984 36.3852C15.1459 36.0414 15.3953 35.7781 15.3944 35.7781C15.3953 35.7781 15.1805 36.1363 15.0612 36.5571C14.9474 36.9547 14.9711 37.195 14.9702 37.1941C14.9711 37.1941 15.307 37.0017 15.5674 36.6708C15.8278 36.3356 16.0126 35.8755 15.7249 35.2325C15.7249 35.2325 15.51 35.2847 15.2743 35.4574C15.0385 35.6301 14.779 35.9269 14.7125 36.41C14.6889 36.0765 14.6752 35.7421 14.6707 35.407C14.6889 35.2984 14.7517 35.0068 14.9401 34.6545C15.1058 34.3458 15.3553 34.1158 15.3553 34.1158C15.3553 34.1158 15.1304 34.4364 14.9829 34.8186C14.8436 35.1804 14.8409 35.4035 14.8409 35.4035C14.8409 35.4035 15.1714 35.2547 15.4418 34.964C15.7122 34.6716 15.9234 34.2483 15.7021 33.6249C15.7049 33.6258 14.8937 33.766 14.6734 34.6339C14.6798 34.3355 14.6934 34.0379 14.7116 33.7395C14.7353 33.6412 14.8127 33.3761 15.0093 33.0597C15.1805 32.7835 15.4236 32.5817 15.4236 32.5817C15.4236 32.5817 15.1996 32.869 15.0394 33.2145C14.8873 33.5411 14.8691 33.7472 14.8691 33.7472C14.8691 33.7472 15.1841 33.6301 15.4518 33.3761C15.7203 33.1196 15.9416 32.7322 15.7695 32.1413C15.7713 32.1413 15.0193 32.2405 14.7662 33.0281C14.7908 32.7544 14.8191 32.4817 14.8509 32.208C14.8828 32.1097 14.9674 31.8797 15.1513 31.6103C15.3207 31.3632 15.5501 31.1853 15.5501 31.1853C15.5501 31.1853 15.3334 31.4427 15.1714 31.754C15.0175 32.0481 14.9902 32.2363 14.9902 32.2363C14.9902 32.2363 15.2843 32.143 15.5419 31.9182C15.7996 31.6933 16.0199 31.3401 15.8824 30.7894C15.8842 30.7903 15.2014 30.8595 14.9338 31.5607C14.9665 31.3179 15.002 31.0759 15.0403 30.8339C15.074 30.7381 15.1568 30.5432 15.3271 30.3063C15.4873 30.0806 15.6903 29.8941 15.6903 29.8941C15.6912 29.8941 15.5019 30.1584 15.3407 30.4406C15.1914 30.7022 15.1605 30.8741 15.1605 30.8732C15.1605 30.8741 15.4308 30.7971 15.6721 30.5996C15.9106 30.4166 16.1446 30.0301 15.9671 29.4666C15.9671 29.4666 15.8187 29.5076 15.643 29.6265C15.4673 29.7462 15.2642 29.936 15.1359 30.2482C15.1686 30.0404 15.195 29.8317 15.2096 29.6214C15.2278 29.5376 15.2824 29.3486 15.3926 29.0963C15.4955 28.8672 15.6248 28.6483 15.6248 28.6474C15.6257 28.6491 15.5264 28.9364 15.4272 29.2161C15.3352 29.4828 15.3143 29.6368 15.3152 29.6376C15.3143 29.6368 15.5556 29.5538 15.7458 29.3238C15.8396 29.2084 15.9206 29.0553 15.9388 28.8586C15.9571 28.6654 15.9097 28.4097 15.7349 28.1737C15.734 28.1728 15.6248 28.2541 15.511 28.4088C15.3972 28.5662 15.2743 28.7851 15.2196 29.0852C15.2105 28.8911 15.1887 28.697 15.1413 28.508C15.1322 28.4234 15.1277 28.2592 15.1168 28.0446L15.1013 27.6324C15.1013 27.6316 15.1714 27.8667 15.1932 28.1335C15.2151 28.3832 15.2306 28.5226 15.2333 28.5234C15.2315 28.5234 15.4199 28.3943 15.4991 28.1378C15.5374 28.0112 15.5437 27.8522 15.4691 27.6906C15.4318 27.6102 15.3735 27.5307 15.2888 27.4614C15.2469 27.4263 15.1987 27.3947 15.1432 27.3665C15.0876 27.3391 15.0312 27.3126 14.9401 27.3092C14.9401 27.3092 14.9247 27.334 14.9128 27.3767C14.901 27.4195 14.8755 27.493 14.8737 27.5751C14.8755 27.7496 14.9365 27.9762 15.063 28.325Z" fill="url(#paint2_linear_3_3044)"/>
<path d="M47.3914 24.4044C46.9144 20.5762 48.9409 18.5273 48.9609 18.5077L49.3724 18.1015L49.0037 17.6611L45.363 13.3301L45.0854 13L44.652 13.1043C42.7902 13.5524 40.7937 13.7798 38.7171 13.7798C35.8621 13.7798 33.6762 13.3549 32.8696 13.1719L32.7076 13.136L32.5464 13.1727C31.7398 13.3557 29.5539 13.7807 26.6989 13.7807C24.6223 13.7807 22.6258 13.5532 20.764 13.1052L20.3306 13.0009L20.053 13.3309L16.4114 17.6611L16.0417 18.1015L16.4532 18.5077C16.456 18.5111 16.9713 19.0353 17.4192 20.0212C18.0182 21.338 18.2212 22.8131 18.0228 24.4053C17.8689 25.6392 17.6085 26.9004 17.3336 28.2361C16.6881 31.3658 16.0199 34.6023 16.7082 37.7465C17.1297 39.673 18.7274 41.4961 21.5906 43.3175C23.9704 44.8318 26.8218 46.1016 29.3372 47.2218C30.4543 47.7195 31.5095 48.1898 32.3871 48.6225L32.7066 48.7807L33.0271 48.6225C33.9056 48.1898 34.9599 47.7195 36.0769 47.2218C38.5924 46.1016 41.4438 44.8318 43.8236 43.3175C46.6868 41.4961 48.2836 39.6739 48.706 37.7465C49.3943 34.6023 48.7261 31.3658 48.0806 28.2361C47.8056 26.8996 47.5453 25.6383 47.3914 24.4044ZM48.0332 37.6157C46.9699 42.4692 37.4917 45.6895 32.7076 48.0496C27.9234 45.6895 18.4452 42.4692 17.3828 37.6157C16.4369 33.2966 18.1876 28.6534 18.7074 24.4797C19.2272 20.3059 16.9521 18.0613 16.9521 18.0613L20.5928 13.7311C22.7605 14.2527 24.8608 14.4272 26.6989 14.4272C29.6541 14.4272 31.9292 13.9774 32.7076 13.8012C33.4859 13.9774 35.761 14.4272 38.7171 14.4272C40.5552 14.4272 42.6564 14.2536 44.8232 13.7311L48.4639 18.0613C48.4639 18.0613 46.1888 20.3051 46.7086 24.4797C47.2285 28.6543 48.9782 33.2966 48.0332 37.6157Z" fill="url(#paint3_linear_3_3044)"/>
<path d="M46.2208 24.5335C45.7848 21.0404 47.2086 18.8351 47.8332 18.0562L44.634 14.251C42.7668 14.6742 40.7775 14.888 38.7173 14.888C35.8614 14.888 33.6364 14.4784 32.7077 14.2749C31.7801 14.4784 29.555 14.888 26.6991 14.888C24.6389 14.888 22.6496 14.6734 20.7824 14.251L17.5833 18.0562C18.2069 18.8351 19.6307 21.0404 19.1956 24.5335C19.0372 25.8085 18.7722 27.0894 18.4918 28.4464C17.8682 31.4701 17.2227 34.5954 17.8646 37.5233C18.6803 41.2472 25.1323 44.1221 29.8436 46.2205C30.8778 46.6805 31.8583 47.1183 32.7077 47.5296C33.5572 47.1183 34.5386 46.6805 35.5728 46.2205C40.2841 44.1221 46.7361 41.2481 47.5518 37.5233C48.1928 34.5954 47.5473 31.4701 46.9237 28.4464C46.6433 27.0894 46.3792 25.8076 46.2208 24.5335Z" fill="url(#paint4_linear_3_3044)"/>
<path d="M31.5626 47.5057C31.9659 47.6921 32.3501 47.8734 32.7079 48.0495C33.0647 47.8734 33.4489 47.6921 33.8531 47.5057V28.0061H31.5626V47.5057ZM26.305 30.0814L25.7506 44.8523C26.4998 45.2175 27.2545 45.568 27.9947 45.9032L28.0876 43.4508L28.3297 37.0692L28.6447 29.0305L28.6848 28.0061H26.3787L26.305 30.0814ZM21.5955 28.9988C21.6401 29.482 21.4489 29.8847 21.042 30.2003L20.5576 35.8713L20.0842 41.4225C20.7288 41.9544 21.4553 42.4606 22.2355 42.9438L22.8081 36.1722L23.4072 29.0792C23.2306 29.0955 23.0567 29.1023 22.8919 29.1023C22.5086 29.1023 22.0826 29.0681 21.5955 28.9988ZM44.8572 35.8713L44.3728 30.2003C43.9668 29.8856 43.7756 29.482 43.8193 28.9988C43.3331 29.0681 42.9071 29.1023 42.5238 29.1023C42.359 29.1023 42.1851 29.0955 42.0085 29.0792L42.6076 36.1722L43.1793 42.9438C43.9595 42.4606 44.686 41.9536 45.3306 41.4225L44.8572 35.8713ZM39.1116 29.641C39.1071 29.6444 39.1016 29.6461 39.0952 29.6479L39.0361 28.0061H36.73L36.7701 29.0219L37.0851 37.0692L37.3272 43.4508L37.421 45.9032C38.1602 45.568 38.9141 45.2183 39.6624 44.8532L39.3556 36.9179L39.1116 29.641Z" fill="url(#paint5_linear_3_3044)"/>
<path d="M48.464 18.0613L44.8234 13.7311C42.6566 14.2527 40.5554 14.4271 38.7173 14.4271C35.7621 14.4271 33.487 13.9774 32.7077 13.8012C31.9293 13.9774 29.6533 14.4271 26.6991 14.4271C24.861 14.4271 22.7607 14.2536 20.593 13.7311L16.9514 18.0613C16.9514 18.0613 19.2265 20.3051 18.7067 24.4797C18.1868 28.6542 16.4361 33.2974 17.382 37.6156C18.4454 42.4692 27.9236 45.6895 32.7077 48.0495C37.4919 45.6895 46.9701 42.4692 48.0334 37.6156C48.9784 33.2965 47.2286 28.6534 46.7088 24.4797C46.188 20.3051 48.464 18.0613 48.464 18.0613ZM47.0702 37.4301C46.3046 40.9291 39.98 43.7458 35.3625 45.8023C34.4147 46.2247 33.5107 46.6275 32.7086 47.0097C31.9066 46.6275 31.0025 46.2247 30.0548 45.8023C25.4364 43.745 19.1127 40.9283 18.3462 37.4292C17.7253 34.592 18.3607 31.512 18.9752 28.5328C19.2447 27.2279 19.5233 25.8777 19.6844 24.5857C20.0923 21.3124 18.9233 19.0968 18.195 18.0716L20.9745 14.7658C22.7898 15.1531 24.7126 15.3489 26.6991 15.3489C29.4958 15.3489 31.7017 14.9616 32.7077 14.7478C33.7137 14.9616 35.9205 15.3489 38.7173 15.3489C40.7038 15.3489 42.6266 15.1531 44.4419 14.7658L47.2213 18.0716C46.493 19.096 45.325 21.3115 45.7328 24.5857C45.894 25.8777 46.1726 27.2271 46.442 28.5328C47.0557 31.5128 47.6911 34.5929 47.0702 37.4301Z" fill="url(#paint6_linear_3_3044)"/>
<path d="M26.4388 37.9397L26.2148 39.3848L25.2808 40.4888L32.7078 43.9151L40.0338 40.5375L39.1016 39.4327L38.8794 37.9868L32.7078 40.8026L26.4388 37.9397Z" fill="url(#paint7_linear_3_3044)"/>
<path d="M32.7077 44.276L24.7454 40.6017L25.8879 39.2515L26.1665 37.4558L32.7077 40.4426L39.1525 37.5028L39.4283 39.3002L40.5681 40.6513L32.7077 44.276ZM25.816 40.3759L32.7077 43.556L39.4984 40.4247L38.7737 39.5653L38.6053 38.4716L32.7077 41.1618L26.7118 38.4237L26.5425 39.5174L25.816 40.3759Z" fill="url(#paint8_linear_3_3044)"/>
<path d="M52.2272 19.81C52.0952 19.6698 51.9059 19.5894 51.7047 19.5894C51.3696 19.5894 51.1448 19.7775 50.7369 20.1196C50.5002 20.3179 50.207 20.5651 49.8411 20.8216C49.5807 21.0037 49.0335 21.2868 47.8992 21.6177C47.7899 21.5724 47.6561 21.5416 47.485 21.5416C47.3721 21.5416 47.2437 21.5536 47.0798 21.5775C45.1143 21.8725 43.633 22.2145 42.6698 22.5925C42.5815 22.5668 42.4859 22.5523 42.384 22.5523C42.1618 22.5523 41.8996 22.6139 41.6029 22.7362C39.2586 23.7033 38.3181 25.4562 38.9545 27.6735C39.1357 28.3028 39.2285 28.8398 39.2467 29.3632C39.2822 30.3414 39.0938 31.3017 38.6877 32.2183C38.5384 32.5535 38.4001 32.9845 38.6495 33.3359C38.7952 33.5403 39.0364 33.6583 39.3114 33.6583C39.4661 33.6583 39.6309 33.6215 39.8157 33.5463C40.2627 33.3633 40.9783 32.9323 41.4344 32.5749C41.4554 32.5775 41.4754 32.5809 41.4963 32.5809C41.5728 32.5809 41.6493 32.5681 41.723 32.5415C42.2383 32.3568 42.9448 32.0661 43.2789 31.8669C43.6695 31.6343 43.7496 31.353 43.7496 31.1597C43.7614 31.158 43.7742 31.1563 43.786 31.1537C45.1407 30.8485 46.7457 30.0772 47.2746 29.5906C47.8291 29.081 47.7171 28.6295 47.6425 28.4593C47.6224 28.414 47.5988 28.3712 47.5714 28.3302C47.6679 28.2832 47.7617 28.2361 47.8555 28.19L48.0567 28.0899C48.755 27.7453 50.035 26.7269 49.8274 25.9368C49.7992 25.8282 49.7373 25.7119 49.6399 25.6136C50.482 25.0321 51.0191 24.4506 51.2422 24.1855C51.5462 23.8247 51.8531 23.4031 51.6327 22.9756C51.5226 22.761 51.3068 22.6233 51.0437 22.5942C51.8676 21.7921 52.3374 21.0225 52.3975 20.583C52.4339 20.3145 52.4384 20.0358 52.2272 19.81Z" fill="url(#paint9_linear_3_3044)"/>
<path d="M26.1692 29.3617C26.1874 28.8392 26.2803 28.3031 26.4615 27.6729C27.0978 25.4564 26.1574 23.7026 23.8122 22.7355C23.5163 22.6141 23.2541 22.5525 23.032 22.5525C22.93 22.5525 22.8344 22.5671 22.7461 22.5927C21.7838 22.2148 20.3035 21.8736 18.338 21.5777C18.1741 21.5529 18.0448 21.5418 17.9319 21.5418C17.7608 21.5418 17.626 21.5726 17.5177 21.6179C16.3833 21.2879 15.8362 21.0048 15.5758 20.8227C15.2098 20.5661 14.9158 20.319 14.679 20.1206C14.2712 19.7786 14.0472 19.5905 13.7113 19.5905C13.511 19.5905 13.3207 19.6709 13.1896 19.8111C12.9775 20.0368 12.983 20.3156 13.0194 20.5841C13.0795 21.0236 13.5492 21.7924 14.3732 22.5944C14.11 22.6235 13.8943 22.762 13.7841 22.9758C13.5638 23.4034 13.8706 23.8249 14.1747 24.1858C14.3977 24.4509 14.934 25.0323 15.777 25.6146C15.6787 25.713 15.6177 25.8293 15.5895 25.9379C15.3819 26.728 16.661 27.7455 17.3593 28.091L17.5614 28.191C17.6542 28.2372 17.748 28.2842 17.8445 28.3313C17.8172 28.3715 17.7935 28.4142 17.7744 28.4595C17.7007 28.6297 17.5878 29.0812 18.1422 29.5917C18.6712 30.0782 20.2762 30.8495 21.6309 31.1548C21.6436 31.1574 21.6555 31.1591 21.6682 31.1608C21.6673 31.354 21.7483 31.6345 22.138 31.8671C22.4721 32.0663 23.1786 32.3571 23.6938 32.5426C23.7676 32.5691 23.845 32.582 23.9205 32.582C23.9233 32.582 23.926 32.582 23.9287 32.582C23.9478 32.582 23.9651 32.5777 23.9843 32.576C24.4395 32.9326 25.155 33.3635 25.6011 33.5465C25.7859 33.6226 25.9507 33.6585 26.1055 33.6585C26.3813 33.6585 26.6226 33.5405 26.7683 33.3353C27.0177 32.983 26.8784 32.552 26.73 32.2177C26.3222 31.3019 26.1337 30.3408 26.1692 29.3617Z" fill="url(#paint10_linear_3_3044)"/>
<path d="M42.8001 31.0939L41.6557 31.2503C41.6839 31.2854 41.7058 31.329 41.7212 31.3812C41.7622 31.5154 41.7322 31.6779 41.6311 31.8746C42.1555 31.6787 42.6853 31.4479 42.9066 31.3153C43.0222 31.2469 43.0641 31.1819 43.0541 31.1486C43.0422 31.1118 42.9475 31.0742 42.8001 31.0939Z" fill="url(#paint11_linear_3_3044)"/>
<path d="M51.7044 20.241C51.6343 20.2419 51.424 20.4189 51.2001 20.607C50.9533 20.8139 50.6465 21.0713 50.256 21.3449C49.8008 21.6647 49.0333 21.9786 47.9763 22.2787C47.9572 22.4566 47.8389 22.6609 47.614 22.9021C47.4255 23.103 47.075 23.3459 46.5688 23.6238C46.6562 23.6152 46.7336 23.6101 46.8019 23.6101C46.8465 23.6101 46.8875 23.6118 46.9248 23.6161C47.0596 23.6315 47.1615 23.6828 47.2289 23.7691C47.3299 23.8982 47.3554 24.0436 47.3063 24.1958C50.0211 23.1423 51.6188 21.1397 51.7053 20.5001C51.7372 20.2778 51.7081 20.2444 51.7044 20.241Z" fill="url(#paint12_linear_3_3044)"/>
<path d="M49.0007 26.0248C48.8796 26.0248 48.7039 26.0667 48.4772 26.1488C47.8509 26.3771 47.0534 26.5311 46.1084 26.6063C46.0774 26.6328 46.0456 26.661 46.0119 26.6884C45.6423 26.9911 45.1388 27.3066 44.5762 27.5914C44.9176 27.6025 45.1352 27.6572 45.2408 27.759C45.3072 27.8222 45.3527 27.9009 45.3746 27.9907C45.4201 28.1626 45.3846 28.3404 45.2726 28.5115C46.1466 28.302 46.8795 27.9368 47.5295 27.6127L47.7325 27.5118C48.4827 27.1407 49.2192 26.3498 49.1518 26.0941C49.1473 26.0761 49.1345 26.0248 49.0007 26.0248Z" fill="url(#paint13_linear_3_3044)"/>
<path d="M46.7511 28.6192C46.3606 28.6834 45.6122 28.7415 45.0323 28.7757C44.9331 28.8621 44.8165 28.9467 44.6873 29.0271C44.5944 29.0861 44.4924 29.1443 44.385 29.2016C44.4806 29.258 44.5398 29.3315 44.5625 29.4222C44.6126 29.6214 44.4779 29.8848 44.151 30.2277C44.0818 30.3004 43.9999 30.3739 43.908 30.4483C45.1397 30.1191 46.4261 29.4572 46.7894 29.1229C46.9651 28.9613 47.0434 28.8056 47.0006 28.7047C46.9678 28.6338 46.8713 28.5996 46.7511 28.6192Z" fill="url(#paint14_linear_3_3044)"/>
<path d="M44.1818 29.5419C44.1727 29.5222 44.1281 29.5103 44.0635 29.5103C43.9524 29.5103 43.8068 29.5428 43.7194 29.5624C43.3452 29.6462 42.6478 29.7112 42.1152 29.7514L42.0988 29.7848C42.0433 29.8959 41.9805 29.9985 41.9077 30.0977C42.0943 30.2858 42.0142 30.5526 41.8139 30.9434C41.7875 30.9956 41.7584 31.0477 41.7256 31.1007C42.6424 30.8562 43.5528 30.3277 43.9315 29.9318C44.2073 29.642 44.1882 29.5564 44.1818 29.5419Z" fill="url(#paint15_linear_3_3044)"/>
<path d="M46.985 24.0505C46.9813 24.0223 46.9103 24.0129 46.8885 24.0103C46.263 23.9427 44.1864 24.5789 43.012 24.9612C43.0156 25.1219 42.9446 25.2989 42.7917 25.5135C42.6624 25.6957 42.5122 25.8787 42.3438 26.0591C42.4612 26.0813 42.5805 26.166 42.6114 26.4105C42.6141 26.4328 42.616 26.455 42.615 26.4798C44.6543 25.7795 47.0214 24.3532 46.985 24.0505Z" fill="url(#paint16_linear_3_3044)"/>
<path d="M41.5253 30.7416C41.6164 30.5637 41.6655 30.45 41.6728 30.4029C41.6355 30.4072 41.5745 30.4277 41.5117 30.4483L40.8744 30.6569C40.8444 30.6672 40.8125 30.6535 40.7988 30.627C40.7852 30.6005 40.7952 30.5688 40.8216 30.5526C41.4124 30.2088 41.6856 29.8377 41.8103 29.5863C41.9177 29.3726 41.9669 29.246 41.9578 29.2101C41.9559 29.2101 41.9505 29.2101 41.9414 29.2101C41.9041 29.2101 41.8431 29.2229 41.783 29.2374L40.8416 29.4564C40.8107 29.4632 40.7806 29.4487 40.7688 29.4213C40.7579 29.3939 40.7697 29.3631 40.797 29.3495C41.3269 29.0835 42.209 28.0916 42.1562 27.8932C42.1544 27.8873 42.1517 27.8761 42.1116 27.8761C42.0752 27.8761 42.0051 27.8864 41.8767 27.936L40.8189 28.3473C40.7906 28.3584 40.7579 28.3481 40.7424 28.3234C40.7269 28.2986 40.7333 28.2661 40.7579 28.2481C41.4461 27.7393 41.905 27.2827 42.1226 26.8911C42.3128 26.5482 42.2837 26.4704 42.2755 26.4584C42.2673 26.4456 42.2272 26.437 42.0907 26.4952L40.6304 27.1134C40.6013 27.1262 40.5667 27.1151 40.5503 27.0877C40.5348 27.0612 40.5439 27.0279 40.5712 27.0116C41.7101 26.3233 42.3256 25.558 42.5368 25.2604C42.6843 25.0526 42.6861 24.9842 42.6733 24.962C42.6579 24.9346 42.5696 24.9261 42.443 24.9432C42.0215 24.9987 40.6832 25.6401 40.6696 25.6469C40.6413 25.6606 40.6067 25.6512 40.5894 25.6264C40.5721 25.6016 40.5776 25.5682 40.6022 25.5494C41.7138 24.7123 42.2254 23.9726 42.3939 23.693C42.5668 23.4048 42.5504 23.2937 42.5259 23.2543C42.5049 23.221 42.4567 23.2039 42.382 23.2039C42.2618 23.2039 42.0798 23.2509 41.8813 23.3322C39.8329 24.177 39.0736 25.5793 39.6253 27.5007C39.8211 28.1805 39.9212 28.7646 39.9403 29.3383C39.9795 30.4106 39.7737 31.4633 39.3276 32.4671C39.1738 32.8135 39.1983 32.9323 39.2266 32.9717C39.2366 32.9853 39.2557 33.0033 39.3103 33.0033C39.3668 33.0033 39.4432 32.9836 39.537 32.9451C40.127 32.704 41.1056 32.0379 41.2322 31.854C41.4134 31.5915 41.4079 31.5308 41.4052 31.5214C41.3788 31.5283 41.3269 31.5385 41.2203 31.5838L40.7087 31.8027C40.6805 31.8147 40.6468 31.8053 40.6304 31.7796C40.614 31.7549 40.6204 31.7224 40.645 31.7044C41.1621 31.3222 41.4097 30.9699 41.5253 30.7416Z" fill="url(#paint17_linear_3_3044)"/>
<path d="M42.4101 24.5515C42.4611 24.5447 42.5094 24.5413 42.5531 24.5413C42.7789 24.5413 42.9236 24.6294 42.9846 24.8021C44.4003 24.2505 46.7864 23.2578 47.3909 22.6096C47.655 22.3257 47.6477 22.2462 47.6386 22.2282C47.6304 22.2111 47.5858 22.1932 47.4847 22.1932C47.411 22.1932 47.3136 22.2026 47.1888 22.2214C45.2287 22.5156 43.7776 22.8516 42.8717 23.2193C42.8799 23.2774 42.879 23.3407 42.8699 23.4083C42.8499 23.5562 42.7816 23.7281 42.666 23.9196C42.5349 24.1377 42.361 24.3737 42.158 24.6097C42.2608 24.5806 42.3446 24.5609 42.4101 24.5515Z" fill="url(#paint18_linear_3_3044)"/>
<path d="M46.2646 25.8863C46.2783 25.8538 46.2755 25.8385 46.2737 25.8359C46.2692 25.8342 46.2519 25.8256 46.1909 25.8256C45.6547 25.8256 43.5298 26.3772 42.5984 26.626C42.5702 26.7611 42.5047 26.9184 42.4009 27.1049C42.3372 27.2229 42.2507 27.3494 42.1423 27.4828C42.197 27.4854 42.2452 27.4973 42.2862 27.5179C42.4145 27.582 42.5466 27.7188 42.4856 28.0061C44.8162 27.3032 46.1317 26.2096 46.2646 25.8863Z" fill="url(#paint19_linear_3_3044)"/>
<path d="M45.0486 28.1917C45.0714 28.1224 45.045 28.0865 45.024 28.066C44.9858 28.0292 44.862 27.9676 44.4669 27.9676C43.8924 27.9676 43.0439 28.0942 42.4212 28.2028C42.382 28.2866 42.3302 28.3755 42.2655 28.467C42.1918 28.5722 42.0962 28.6911 41.9851 28.815C42.1308 28.8227 42.2227 28.9014 42.2728 29.0613C42.3138 29.1904 42.2956 29.3341 42.2054 29.5538C43.7804 29.2246 44.9366 28.5354 45.0486 28.1917Z" fill="url(#paint20_linear_3_3044)"/>
<path d="M50.936 23.2407C50.7767 23.2407 50.4489 23.3535 49.9628 23.5767C49.3136 23.8743 48.091 24.2061 47.1715 24.4344C47.1469 24.4652 47.1187 24.4959 47.0895 24.5267C46.9657 24.6541 46.7727 24.8072 46.5169 24.9816C46.2784 25.1432 45.9852 25.3228 45.6575 25.5075C46.0672 25.4383 46.2993 25.4237 46.3976 25.4665C46.4004 25.4673 46.4022 25.4682 46.4049 25.469C46.4832 25.5067 46.5415 25.5716 46.5779 25.6606C46.6516 25.847 46.6025 26.0582 46.4359 26.2728C46.4177 26.2951 46.3994 26.3173 46.3803 26.3395C48.9167 25.7675 50.417 24.1129 50.6975 23.7802C51.0307 23.3852 51.0188 23.2826 51.007 23.2595C51.0006 23.2475 50.9742 23.2407 50.936 23.2407Z" fill="url(#paint21_linear_3_3044)"/>
<path d="M22.4322 24.8029C22.505 24.596 22.6953 24.5113 23.0067 24.5523C23.0722 24.5609 23.1551 24.5806 23.257 24.6113C23.0549 24.3753 22.881 24.1393 22.7499 23.9213C22.6334 23.7289 22.5651 23.557 22.546 23.4108C22.5369 23.3424 22.536 23.2791 22.5442 23.2201C21.6393 22.8524 20.1881 22.5164 18.2289 22.2222C18.1042 22.2034 18.0068 22.194 17.933 22.194C17.832 22.194 17.7864 22.2119 17.7782 22.229C17.7691 22.247 17.7628 22.3265 18.0268 22.6104C18.6304 23.2594 21.0165 24.2513 22.4322 24.8029Z" fill="url(#paint22_linear_3_3044)"/>
<path d="M20.0422 27.9907C20.0677 27.8983 20.1123 27.8205 20.176 27.7589C20.2816 27.658 20.4992 27.6033 20.8406 27.5913C20.278 27.3066 19.7754 26.9902 19.4049 26.6884C19.3712 26.661 19.3393 26.6328 19.3084 26.6063C18.3625 26.5319 17.565 26.378 16.9386 26.1488C16.7128 26.0667 16.5362 26.0248 16.4151 26.0248C16.2813 26.0248 16.2676 26.0761 16.2631 26.0932C16.1957 26.3497 16.9313 27.1407 17.6815 27.511L17.8854 27.6127C18.5364 27.9368 19.2683 28.3011 20.1432 28.5114C20.0321 28.3404 19.9976 28.1625 20.0422 27.9907Z" fill="url(#paint23_linear_3_3044)"/>
<path d="M18.9821 26.2728C18.8146 26.0582 18.7654 25.847 18.8392 25.6614C18.8756 25.5716 18.9339 25.5075 19.0121 25.4699C19.0149 25.4682 19.0176 25.4673 19.0203 25.4664C19.1214 25.4237 19.3508 25.4382 19.7596 25.5083C19.43 25.3219 19.1369 25.1432 18.9011 24.9825C18.6462 24.8089 18.4532 24.6567 18.3275 24.5276C18.2975 24.4968 18.2702 24.466 18.2447 24.4352C17.3261 24.2077 16.1043 23.876 15.4534 23.5775C14.9663 23.3544 14.6395 23.2415 14.4802 23.2415C14.4419 23.2415 14.4164 23.2483 14.4101 23.2603C14.3982 23.2825 14.3873 23.386 14.7196 23.7811C15 24.1145 16.4985 25.7691 19.0367 26.3404C19.0176 26.3164 18.9985 26.2942 18.9821 26.2728Z" fill="url(#paint24_linear_3_3044)"/>
<path d="M21.2661 30.2276C20.9392 29.8847 20.8045 29.6213 20.8536 29.4221C20.8764 29.3323 20.9356 29.2588 21.0312 29.2015C20.9228 29.1442 20.8218 29.0852 20.728 29.0271C20.5933 28.9415 20.4776 28.8577 20.3839 28.7757C19.8039 28.7423 19.0547 28.6833 18.6641 28.6192C18.6423 28.6158 18.6204 28.614 18.5995 28.614C18.5094 28.614 18.4429 28.6474 18.4174 28.7055C18.3737 28.8056 18.452 28.9621 18.6277 29.1237C18.9919 29.458 20.2774 30.1199 21.5091 30.4482C21.4172 30.3738 21.3352 30.3003 21.2661 30.2276Z" fill="url(#paint25_linear_3_3044)"/>
<path d="M26.0865 32.468C25.6413 31.4658 25.4356 30.4132 25.4738 29.3392C25.4938 28.7645 25.594 28.1805 25.7897 27.5016C26.3414 25.581 25.5822 24.1787 23.5338 23.333C23.2115 23.2004 22.9429 23.1679 22.8892 23.2543C22.8646 23.2945 22.8473 23.4048 23.0212 23.693C23.1887 23.9717 23.7004 24.7114 24.8129 25.5494C24.8375 25.5682 24.8429 25.6015 24.8256 25.6263C24.8083 25.6511 24.7737 25.6597 24.7455 25.6469C24.7318 25.64 23.3936 24.9996 22.972 24.9431C22.8455 24.926 22.7572 24.9354 22.7417 24.9619C22.729 24.9842 22.7308 25.0517 22.8792 25.2604C23.0895 25.5571 23.7013 26.3207 24.8438 27.0116C24.8711 27.0278 24.8802 27.0612 24.8648 27.0877C24.8493 27.1142 24.8147 27.1253 24.7846 27.1133L23.3235 26.4951C23.1869 26.437 23.1477 26.4455 23.1386 26.4583C23.1314 26.4703 23.1013 26.5481 23.2916 26.891C23.5092 27.2827 23.9689 27.7393 24.6563 28.2481C24.6809 28.266 24.6872 28.2985 24.6718 28.3233C24.6563 28.3481 24.6235 28.3592 24.5953 28.3473L23.5383 27.936C23.4099 27.8864 23.3398 27.8761 23.3034 27.8761C23.2625 27.8761 23.2597 27.8872 23.2579 27.8932C23.2051 28.0916 24.0873 29.0835 24.6171 29.3494C24.6444 29.3631 24.6563 29.3939 24.6454 29.4213C24.6344 29.4486 24.6035 29.464 24.5734 29.4563L23.6321 29.2374C23.572 29.2229 23.511 29.21 23.4737 29.21C23.4582 29.21 23.4536 29.2126 23.4536 29.2126C23.4454 29.2391 23.4946 29.3665 23.6048 29.5871C23.7304 29.8377 24.0035 30.2088 24.5935 30.5534C24.6199 30.5696 24.6299 30.6013 24.6171 30.6278C24.6035 30.6543 24.5707 30.6671 24.5407 30.6577L23.9043 30.4491C23.836 30.4268 23.7768 30.4072 23.7422 30.4038C23.7477 30.4499 23.7978 30.5637 23.8888 30.7424C24.0609 31.0759 24.3568 31.3999 24.7701 31.7061C24.7947 31.724 24.801 31.7565 24.7846 31.7813C24.7683 31.8061 24.7346 31.8164 24.7064 31.8044L24.1956 31.5855C24.0882 31.5402 24.0372 31.5299 24.0126 31.5299C24.0072 31.5325 24.0017 31.5932 24.1829 31.8557C24.3094 32.0396 25.2881 32.7057 25.878 32.9468C25.9718 32.9853 26.0483 33.005 26.1038 33.005C26.1584 33.005 26.1776 32.987 26.1876 32.9733C26.2158 32.9331 26.2404 32.8143 26.0865 32.468Z" fill="url(#paint26_linear_3_3044)"/>
<path d="M23.0148 27.1048C22.911 26.9201 22.8463 26.7628 22.8172 26.626C21.8859 26.3771 19.7601 25.8256 19.2257 25.8256C19.1647 25.8256 19.1465 25.8333 19.1446 25.8342C19.141 25.8376 19.1383 25.853 19.151 25.8846C19.2821 26.2078 20.5949 27.3015 22.9301 28.0052C22.87 27.7179 23.0011 27.582 23.1286 27.517C23.1704 27.4965 23.2187 27.4845 23.2733 27.4819C23.1695 27.3537 23.0821 27.2271 23.0148 27.1048Z" fill="url(#paint27_linear_3_3044)"/>
<path d="M23.6957 31.3812C23.712 31.3282 23.7339 31.2854 23.7612 31.2503L22.6168 31.0939C22.5877 31.0896 22.5595 31.0879 22.5331 31.0879C22.4302 31.0879 22.3728 31.1187 22.3637 31.1477C22.3528 31.1811 22.3947 31.2461 22.5103 31.3145C22.7315 31.447 23.2605 31.6779 23.7858 31.8737C23.6838 31.677 23.6538 31.5146 23.6957 31.3812Z" fill="url(#paint28_linear_3_3044)"/>
<path d="M22.4031 24.9611C21.2869 24.5977 19.3578 24.006 18.6295 24.006C18.5922 24.006 18.5576 24.0077 18.5266 24.0111C18.5048 24.0136 18.4337 24.0231 18.4301 24.0513C18.3937 24.3548 20.7607 25.7803 22.7991 26.4806C22.7991 26.4567 22.8 26.4336 22.8028 26.4113C22.8346 26.1676 22.9548 26.083 23.0704 26.0607C22.8619 25.8359 22.7144 25.6426 22.6234 25.5143C22.4705 25.298 22.3994 25.121 22.4031 24.9611Z" fill="url(#paint29_linear_3_3044)"/>
<path d="M23.4317 28.815C23.3207 28.691 23.2251 28.5722 23.1513 28.467C23.0858 28.3746 23.0339 28.2866 22.9957 28.2028C22.372 28.0942 21.5226 27.9676 20.9491 27.9676C20.5531 27.9676 20.4292 28.0292 20.391 28.0668C20.3701 28.0873 20.3437 28.1232 20.3664 28.1925C20.4784 28.5354 21.6346 29.2255 23.2105 29.5547C23.1222 29.3383 23.1031 29.1913 23.1441 29.0621C23.195 28.9014 23.287 28.8227 23.4317 28.815Z" fill="url(#paint30_linear_3_3044)"/>
<path d="M18.108 24.1949C18.0588 24.0427 18.0843 23.8973 18.1854 23.7682C18.2528 23.6819 18.3547 23.6305 18.4895 23.6152C18.5823 23.6049 18.6989 23.6083 18.8454 23.6229C18.3392 23.3441 17.9887 23.1021 17.8003 22.9012C17.5763 22.6609 17.458 22.4565 17.4389 22.2778C16.3819 21.9785 15.6153 21.6638 15.1592 21.344C14.7687 21.0704 14.4618 20.813 14.2151 20.6061C13.9921 20.4188 13.7809 20.2418 13.7108 20.2418C13.7071 20.2435 13.678 20.2777 13.708 20.4992C13.7963 21.1388 15.395 23.1414 18.108 24.1949Z" fill="url(#paint31_linear_3_3044)"/>
<path d="M23.6029 30.9442C23.4026 30.5517 23.3216 30.2849 23.5091 30.0985C23.4363 29.9993 23.3735 29.8967 23.317 29.7855L23.3006 29.7522C22.7671 29.712 22.0698 29.6462 21.6965 29.5632C21.6091 29.5435 21.4634 29.511 21.3524 29.511C21.2877 29.511 21.2431 29.523 21.234 29.5418C21.2267 29.5564 21.2076 29.6419 21.4871 29.9335C21.8649 30.3294 22.7744 30.8578 23.6921 31.1024C23.6593 31.0485 23.6302 30.9963 23.6029 30.9442Z" fill="url(#paint32_linear_3_3044)"/>
<path d="M32.7251 37.7037C37.0351 37.7037 40.5291 34.422 40.5291 30.3738C40.5291 26.3257 37.0351 23.044 32.7251 23.044C28.4151 23.044 24.9211 26.3257 24.9211 30.3738C24.9211 34.422 28.4151 37.7037 32.7251 37.7037Z" fill="url(#paint33_linear_3_3044)"/>
<path d="M32.7254 23.8871C28.9172 23.8871 25.8191 26.797 25.8191 30.3747C25.8191 33.9516 28.9172 36.8615 32.7254 36.8615C36.5336 36.8615 39.6317 33.9516 39.6317 30.3747C39.6317 26.797 36.5336 23.8871 32.7254 23.8871Z" fill="white"/>
<path d="M36.2376 25.7572C35.4382 25.4536 34.5406 25.2509 33.5837 25.1774C33.3061 24.7678 33.0175 24.3984 32.7243 24.0795C32.4312 24.3984 32.1426 24.7678 31.8649 25.1774C30.9081 25.2509 30.0104 25.4536 29.2111 25.7572C29.8119 25.8444 30.4693 26.0624 31.1493 26.378C30.7278 27.1792 30.3618 28.0702 30.0887 29.0023C31.3924 27.8641 32.7125 27.2091 32.7234 27.216C32.7343 27.2091 34.0544 27.8641 35.3581 29.0023C35.085 28.0702 34.719 27.18 34.2975 26.378C34.9785 26.0624 35.6367 25.8444 36.2376 25.7572ZM32.7252 23.5946C28.745 23.5946 25.5076 26.6353 25.5076 30.3738C25.5076 34.1123 28.745 37.153 32.7252 37.153C36.7046 37.153 39.9429 34.1123 39.9429 30.3738C39.942 26.6353 36.7046 23.5946 32.7252 23.5946ZM34.8164 36.4459C34.973 36.1936 35.1105 35.9328 35.2288 35.6643C34.5042 36.1312 33.6693 36.4938 32.7243 36.7144C31.7802 36.4938 30.9445 36.1312 30.2198 35.6643C30.3391 35.932 30.4765 36.1928 30.6322 36.4459C28.9507 35.9354 27.5569 34.8263 26.7339 33.3855C27.1417 33.4881 27.5915 33.5497 28.0722 33.5753C28.6239 34.3782 29.3413 35.0982 30.2198 35.6643C29.9212 34.9931 29.7355 34.2765 29.6435 33.5403C30.5685 33.459 31.7511 33.2786 32.7243 33.0204C33.6975 33.2786 34.8792 33.459 35.8051 33.5403C35.7132 34.2773 35.5274 34.9931 35.2288 35.6643C36.1083 35.0982 36.8248 34.3782 37.3765 33.5753C37.8581 33.5505 38.3078 33.4881 38.7148 33.3855C37.8927 34.8263 36.4979 35.9345 34.8164 36.4459ZM38.1312 32.1995C38.5035 31.3256 38.7084 30.4046 38.7448 29.5059C38.3297 30.0335 37.8089 30.5158 37.2135 30.951C36.6873 30.3037 36.0618 29.6325 35.359 29.0014C35.6258 29.9095 35.8033 30.857 35.857 31.7993C34.9502 32.2875 33.7494 32.6911 32.7243 33.0092C31.7001 32.6911 30.4984 32.2867 29.5916 31.7993C29.6453 30.857 29.8229 29.9095 30.0896 29.0014C29.3868 29.6325 28.7604 30.3037 28.2351 30.951C27.6397 30.5158 27.119 30.0335 26.7029 29.5059C26.7403 30.4038 26.946 31.3247 27.3184 32.1995C27.0507 32.6082 26.8386 32.9844 26.6902 33.3042C26.2058 32.4261 25.9309 31.4307 25.9309 30.3738C25.9309 29.7915 26.0156 29.2289 26.1713 28.6936C26.3215 28.9757 26.4999 29.2468 26.7038 29.5068C26.6674 28.6329 26.7921 27.7803 27.0771 27.0124C27.6507 26.5037 28.3781 26.0753 29.212 25.758C28.7741 25.6947 28.3662 25.7007 28.0021 25.7888C29.2247 24.678 30.8889 23.9931 32.7243 23.9931C34.5597 23.9931 36.2239 24.678 37.4466 25.7888C37.0824 25.7007 36.6745 25.6947 36.2376 25.758C37.0715 26.0753 37.7989 26.5028 38.3724 27.0124C38.6583 27.7803 38.7812 28.6329 38.7448 29.5068C38.9496 29.2468 39.129 28.9766 39.2783 28.6944C39.434 29.2297 39.5177 29.7932 39.5177 30.3747C39.5177 31.4316 39.2428 32.4269 38.7585 33.3051C38.611 32.9836 38.3988 32.6082 38.1312 32.1995Z" fill="url(#paint34_linear_3_3044)"/>
<path opacity="0.1" d="M39.4994 30.3602C39.4994 33.8943 36.4605 36.7597 32.7124 36.7597C28.9643 36.7597 25.9263 33.8943 25.9263 30.3602C25.9263 26.8252 28.9652 23.9606 32.7124 23.9606C36.4614 23.9606 39.4994 26.8252 39.4994 30.3602Z" fill="url(#paint35_radial_3_3044)"/>
<path d="M26.6118 22.3368C26.7556 22.4044 26.8967 22.4745 27.0369 22.5463C27.1826 22.4788 27.3292 22.4146 27.4766 22.3548C27.4366 22.5001 27.4002 22.6455 27.3692 22.79L27.6924 23.1184C27.5422 23.1278 27.3911 23.1406 27.239 23.1577C27.1726 23.2877 27.1107 23.4177 27.0524 23.5485L26.8257 23.156C26.67 23.1372 26.5116 23.1227 26.3523 23.1107C26.4606 22.9987 26.5726 22.8892 26.6873 22.7815C26.6582 22.6353 26.6336 22.4865 26.6118 22.3368Z" fill="url(#paint36_linear_3_3044)"/>
<path d="M28.95 20.8584C29.1384 20.9994 29.3214 21.1448 29.4971 21.2945C29.7566 21.2466 30.0151 21.2072 30.2755 21.179C30.1326 21.3688 29.9987 21.5604 29.8767 21.7545C29.9842 21.946 30.0889 22.1401 30.1908 22.3334C29.9641 22.2915 29.732 22.2573 29.4953 22.2325C29.3332 22.3967 29.1821 22.5651 29.0392 22.7361C28.9809 22.5275 28.9254 22.3163 28.8735 22.1051C28.645 22.0341 28.411 21.9708 28.1707 21.9153C28.3864 21.7776 28.6095 21.6468 28.8389 21.5245C28.8689 21.303 28.9053 21.0815 28.95 20.8584Z" fill="url(#paint37_linear_3_3044)"/>
<path d="M32.6517 19.9468C32.8201 20.2008 32.9767 20.4573 33.1214 20.7172C33.4656 20.7702 33.8052 20.8395 34.1384 20.9242C33.8643 21.0883 33.604 21.2636 33.3581 21.4466C33.3937 21.7297 33.4237 22.0118 33.4483 22.2949C33.2006 22.1427 32.9385 22.0007 32.6644 21.8708C32.3922 22.005 32.1327 22.1495 31.8869 22.3043C31.9079 22.0213 31.9334 21.7382 31.9652 21.4552C31.7176 21.2748 31.4545 21.1029 31.1777 20.943C31.51 20.854 31.8487 20.7805 32.1919 20.7232C32.333 20.4616 32.4869 20.2025 32.6517 19.9468Z" fill="url(#paint38_linear_3_3044)"/>
<path d="M38.7241 22.2616C38.5812 22.3308 38.441 22.4027 38.3017 22.4771C38.156 22.4112 38.0076 22.3497 37.8592 22.2907C37.9011 22.436 37.9393 22.5805 37.973 22.7242L37.6553 23.056C37.8055 23.0637 37.9566 23.0748 38.1096 23.0902C38.1778 23.2193 38.2416 23.3484 38.3007 23.4784L38.522 23.0833C38.6777 23.0628 38.8352 23.0457 38.9945 23.032C38.8843 22.9217 38.7714 22.8131 38.6549 22.7071C38.6813 22.56 38.7041 22.4112 38.7241 22.2616Z" fill="url(#paint39_linear_3_3044)"/>
<path d="M36.3652 20.8122C36.1786 20.9559 35.9983 21.1038 35.8235 21.2551C35.564 21.2098 35.3037 21.1748 35.0442 21.1491C35.1908 21.3364 35.3255 21.5271 35.4521 21.7195C35.3474 21.9127 35.2454 22.1077 35.1462 22.3026C35.3728 22.2573 35.6041 22.2214 35.8399 22.1932C36.0038 22.3557 36.1585 22.5215 36.3024 22.6909C36.3579 22.4805 36.4098 22.2693 36.4599 22.0572C36.6875 21.9837 36.9205 21.917 37.16 21.8588C36.9424 21.7237 36.7175 21.5963 36.4863 21.4766C36.4526 21.256 36.4125 21.0345 36.3652 20.8122Z" fill="url(#paint40_linear_3_3044)"/>
<path d="M24.7098 17.1506C24.7007 17.1592 24.6889 17.1643 24.6752 17.1643H23.4089C23.3952 17.1643 23.3889 17.1703 23.3889 17.1831V17.6508C23.3889 17.6637 23.3952 17.6697 23.4089 17.6697H24.2219C24.2355 17.6697 24.2464 17.6739 24.2565 17.6833C24.2656 17.6919 24.271 17.703 24.271 17.7158V18.1605C24.271 18.1733 24.2665 18.1836 24.2565 18.193C24.2474 18.2015 24.2355 18.2067 24.2219 18.2067H23.4089C23.3952 18.2067 23.3889 18.2126 23.3889 18.2255V19.2405C23.3889 19.2533 23.3843 19.2636 23.3743 19.273C23.3652 19.2815 23.3533 19.2866 23.3397 19.2866H22.7652C22.7516 19.2866 22.7406 19.2824 22.7306 19.273C22.7215 19.2644 22.7161 19.2533 22.7161 19.2405V16.6692C22.7161 16.6564 22.7206 16.6461 22.7306 16.6367C22.7397 16.6281 22.7516 16.623 22.7652 16.623H24.6752C24.6889 16.623 24.6998 16.6273 24.7098 16.6367C24.7189 16.6452 24.7244 16.6564 24.7244 16.6692V17.1181C24.7235 17.1309 24.7189 17.1412 24.7098 17.1506Z" fill="#F0C410"/>
<path d="M25.6482 19.2029C25.4825 19.1208 25.3532 19.0045 25.2613 18.8548C25.1693 18.7052 25.1238 18.5316 25.1238 18.3341V17.5739C25.1238 17.3815 25.1693 17.2113 25.2613 17.0626C25.3532 16.9146 25.4816 16.7992 25.6482 16.7171C25.8139 16.635 26.006 16.594 26.2245 16.594C26.4429 16.594 26.636 16.635 26.8035 16.7171C26.971 16.7992 27.1003 16.9146 27.1922 17.0626C27.2842 17.2105 27.3297 17.3815 27.3297 17.5739V18.3341C27.3297 18.5316 27.2842 18.7052 27.1922 18.8548C27.1003 19.0045 26.971 19.1199 26.8035 19.2029C26.636 19.285 26.4429 19.326 26.2245 19.326C26.006 19.326 25.8139 19.285 25.6482 19.2029ZM26.5385 18.6684C26.6177 18.5898 26.6578 18.4846 26.6578 18.3529V17.5662C26.6578 17.4371 26.6177 17.3328 26.5385 17.2524C26.4593 17.172 26.3546 17.1327 26.2245 17.1327C26.0979 17.1327 25.9941 17.1729 25.9149 17.2524C25.8357 17.3319 25.7957 17.4371 25.7957 17.5662V18.3529C25.7957 18.4846 25.8357 18.5898 25.9149 18.6684C25.9941 18.7471 26.0979 18.7864 26.2245 18.7864C26.3537 18.7864 26.4584 18.7471 26.5385 18.6684Z" fill="#F0C410"/>
<path d="M28.363 19.2029C28.1973 19.1208 28.068 19.0045 27.9761 18.8548C27.8841 18.7052 27.8386 18.5316 27.8386 18.3341V17.5739C27.8386 17.3815 27.8841 17.2113 27.9761 17.0626C28.068 16.9146 28.1964 16.7992 28.363 16.7171C28.5287 16.635 28.7208 16.594 28.9393 16.594C29.1578 16.594 29.3508 16.635 29.5183 16.7171C29.6858 16.7992 29.8151 16.9146 29.9071 17.0626C29.999 17.2105 30.0445 17.3815 30.0445 17.5739V18.3341C30.0445 18.5316 29.999 18.7052 29.9071 18.8548C29.8151 19.0045 29.6858 19.1199 29.5183 19.2029C29.3508 19.285 29.1578 19.326 28.9393 19.326C28.7208 19.326 28.5287 19.285 28.363 19.2029ZM29.2534 18.6684C29.3326 18.5898 29.3726 18.4846 29.3726 18.3529V17.5662C29.3726 17.4371 29.3326 17.3328 29.2534 17.2524C29.1742 17.172 29.0695 17.1327 28.9393 17.1327C28.8128 17.1327 28.709 17.1729 28.6298 17.2524C28.5506 17.3319 28.5105 17.4371 28.5105 17.5662V18.3529C28.5105 18.4846 28.5506 18.5898 28.6298 18.6684C28.709 18.7471 28.8128 18.7864 28.9393 18.7864C29.0695 18.7864 29.1742 18.7471 29.2534 18.6684Z" fill="#F0C410"/>
<path d="M32.6495 16.6376C32.6586 16.6461 32.6641 16.6573 32.6641 16.6701V17.1224C32.6641 17.1353 32.6596 17.1455 32.6495 17.1549C32.6404 17.1635 32.6286 17.1686 32.6149 17.1686H31.9067C31.893 17.1686 31.8866 17.1746 31.8866 17.1874V19.2397C31.8866 19.2525 31.8821 19.2627 31.8721 19.2722C31.863 19.2807 31.8511 19.2858 31.8375 19.2858H31.263C31.2493 19.2858 31.2384 19.2816 31.2284 19.2722C31.2193 19.2636 31.2138 19.2525 31.2138 19.2397V17.1874C31.2138 17.1746 31.2075 17.1686 31.1938 17.1686H30.5101C30.4964 17.1686 30.4855 17.1643 30.4755 17.1549C30.4664 17.1464 30.4609 17.1353 30.4609 17.1224V16.6701C30.4609 16.6573 30.4655 16.647 30.4755 16.6376C30.4846 16.629 30.4964 16.6239 30.5101 16.6239H32.614C32.6286 16.6239 32.6395 16.6282 32.6495 16.6376Z" fill="#F0C410"/>
<path d="M34.9253 17.9236C35.1711 18.045 35.2931 18.2477 35.2931 18.5316C35.2931 18.7847 35.2003 18.9737 35.0136 19.0977C34.8279 19.2217 34.583 19.2841 34.2808 19.2841H33.2047C33.191 19.2841 33.1801 19.2798 33.1701 19.2704C33.161 19.2618 33.1555 19.2507 33.1555 19.2379V16.6692C33.1555 16.6564 33.1601 16.6461 33.1701 16.6367C33.1792 16.6281 33.191 16.623 33.2047 16.623H34.2489C34.5785 16.623 34.827 16.6812 34.9954 16.7975C35.1639 16.9137 35.2485 17.1027 35.2485 17.3635C35.2485 17.6115 35.1402 17.7902 34.9244 17.8997C34.9089 17.9082 34.9089 17.9159 34.9253 17.9236ZM33.8283 17.1822V17.6611C33.8283 17.6739 33.8347 17.6799 33.8483 17.6799H34.2489C34.3591 17.6799 34.4446 17.6577 34.5038 17.6132C34.563 17.5688 34.593 17.5063 34.593 17.4251C34.593 17.3413 34.563 17.2772 34.5038 17.231C34.4446 17.1857 34.3591 17.1626 34.2489 17.1626H33.8483C33.8356 17.1634 33.8283 17.1703 33.8283 17.1822ZM34.533 18.671C34.5921 18.6239 34.6222 18.5564 34.6222 18.4675C34.6222 18.3811 34.593 18.3144 34.5348 18.2682C34.4765 18.2212 34.3928 18.1981 34.2817 18.1981H33.8483C33.8347 18.1981 33.8283 18.2041 33.8283 18.2169V18.7223C33.8283 18.7351 33.8347 18.7411 33.8483 18.7411H34.2817C34.39 18.7411 34.4729 18.718 34.533 18.671Z" fill="#F0C410"/>
<path d="M37.4743 19.2465L37.3687 18.9078C37.3632 18.8976 37.3569 18.8924 37.3487 18.8924H36.4264C36.4183 18.8924 36.4119 18.8976 36.4064 18.9078L36.3008 19.2465C36.2926 19.2721 36.2735 19.2841 36.2444 19.2841H35.6253C35.6089 19.2841 35.5971 19.2798 35.5889 19.2704C35.5807 19.2618 35.5798 19.2482 35.5852 19.2302L36.451 16.6606C36.4592 16.635 36.4765 16.623 36.5038 16.623H37.2686C37.2959 16.623 37.3132 16.6358 37.3214 16.6606L38.1917 19.2302C38.1944 19.2353 38.1954 19.2413 38.1954 19.249C38.1954 19.2721 38.1808 19.2832 38.1507 19.2832H37.5317C37.5016 19.2849 37.4825 19.2721 37.4743 19.2465ZM36.5839 18.4067H37.1866C37.203 18.4067 37.2085 18.3991 37.203 18.3837L36.8953 17.4071C36.8926 17.3969 36.888 17.3926 36.8835 17.3935C36.878 17.3952 36.8744 17.3994 36.8716 17.4071L36.5685 18.3837C36.5657 18.3991 36.5712 18.4067 36.5839 18.4067Z" fill="#F0C410"/>
<path d="M38.7069 19.2713C38.6978 19.2627 38.6924 19.2516 38.6924 19.2388V16.6692C38.6924 16.6564 38.6969 16.6461 38.7069 16.6367C38.7161 16.6281 38.7279 16.623 38.7415 16.623H39.316C39.3297 16.623 39.3406 16.6273 39.3506 16.6367C39.3597 16.6452 39.3652 16.6564 39.3652 16.6692V18.7257C39.3652 18.7385 39.3715 18.7445 39.3852 18.7445H40.6761C40.6898 18.7445 40.7007 18.7488 40.7107 18.7582C40.7198 18.7667 40.7253 18.7779 40.7253 18.7907V19.2396C40.7253 19.2524 40.7208 19.2627 40.7107 19.2721C40.7016 19.2807 40.6898 19.2858 40.6761 19.2858H38.7415C38.7279 19.2849 38.7161 19.2798 38.7069 19.2713Z" fill="#F0C410"/>
<path d="M41.2282 19.2713C41.2191 19.2627 41.2136 19.2516 41.2136 19.2388V16.6692C41.2136 16.6564 41.2182 16.6461 41.2282 16.6367C41.2373 16.6281 41.2491 16.623 41.2628 16.623H41.8372C41.8509 16.623 41.8618 16.6273 41.8718 16.6367C41.8809 16.6452 41.8864 16.6564 41.8864 16.6692V18.7257C41.8864 18.7385 41.8928 18.7445 41.9064 18.7445H43.1974C43.211 18.7445 43.222 18.7488 43.232 18.7582C43.2411 18.7667 43.2466 18.7779 43.2466 18.7907V19.2396C43.2466 19.2524 43.242 19.2627 43.232 19.2721C43.2229 19.2807 43.211 19.2858 43.1974 19.2858H41.2628C41.2491 19.2849 41.2373 19.2798 41.2282 19.2713Z" fill="#F0C410"/>
<path d="M28.7542 39.9654C28.7961 40.0201 28.8198 40.0809 28.8234 40.1467C28.8271 40.2125 28.8116 40.2792 28.7761 40.3468C28.7415 40.4135 28.6941 40.4648 28.6359 40.5007C28.5767 40.5366 28.5111 40.5554 28.4374 40.5563C28.3637 40.5571 28.289 40.5392 28.2116 40.5033L28.0123 40.4109C28.0068 40.4084 28.0031 40.4101 28.0004 40.4152L27.8074 40.7854C27.8047 40.7906 27.8001 40.794 27.7947 40.7957C27.7892 40.7974 27.7837 40.7974 27.7783 40.7949L27.5461 40.688C27.5407 40.6854 27.537 40.6811 27.5352 40.676C27.5334 40.6709 27.5334 40.6657 27.5361 40.6606L28.0787 39.6225C28.0814 39.6174 28.0851 39.614 28.0915 39.6123C28.0969 39.6106 28.1024 39.6106 28.1078 39.6131L28.5803 39.8312C28.6532 39.8654 28.7114 39.9107 28.7542 39.9654ZM28.4137 40.3015C28.4538 40.2912 28.4838 40.2664 28.5039 40.2288C28.5239 40.1903 28.5266 40.1518 28.5111 40.1151C28.4957 40.0783 28.4656 40.0492 28.421 40.0287L28.2526 39.9509C28.2471 39.9483 28.2435 39.95 28.2408 39.9552L28.1142 40.198C28.1115 40.2031 28.1133 40.2065 28.1179 40.2091L28.2863 40.2869C28.3309 40.3075 28.3737 40.3126 28.4137 40.3015Z" fill="#F0C410"/>
<path d="M28.7215 41.2241C28.7197 41.219 28.7197 41.2139 28.7224 41.2087L29.265 40.1715C29.2677 40.1664 29.2723 40.163 29.2777 40.1613C29.2832 40.1596 29.2887 40.1596 29.2941 40.1621L29.5263 40.269C29.5317 40.2716 29.5354 40.275 29.5372 40.281C29.539 40.2861 29.539 40.2912 29.5363 40.2964L29.102 41.1267C29.0993 41.1318 29.1011 41.1352 29.1066 41.1378L29.6282 41.3781C29.6337 41.3806 29.6373 41.3849 29.6392 41.39C29.641 41.3952 29.641 41.4003 29.6383 41.4054L29.5436 41.5867C29.5408 41.5918 29.5363 41.5953 29.5308 41.597C29.5254 41.5987 29.5199 41.5987 29.5144 41.5961L28.7333 41.2361C28.7269 41.2335 28.7233 41.2293 28.7215 41.2241Z" fill="#F0C410"/>
<path d="M30.5985 42.0775L30.6276 41.921C30.6276 41.9159 30.6258 41.9125 30.6231 41.9108L30.2507 41.7389C30.2471 41.7372 30.2434 41.7381 30.2398 41.7415L30.126 41.8586C30.1178 41.8672 30.1069 41.8689 30.095 41.8638L29.8447 41.7483C29.8383 41.7449 29.8337 41.7415 29.8328 41.7363C29.831 41.7312 29.8337 41.7252 29.8392 41.7192L30.7314 40.8428C30.7396 40.8342 30.7496 40.8325 30.7605 40.8368L31.0692 40.9796C31.0801 40.9847 31.0846 40.9933 31.0828 41.0044L30.8916 42.2041C30.8916 42.2066 30.8907 42.2092 30.8889 42.2126C30.8843 42.222 30.8761 42.2237 30.8634 42.2186L30.613 42.1032C30.6012 42.098 30.5957 42.0895 30.5985 42.0775ZM30.4164 41.5722L30.6595 41.6842C30.6658 41.6876 30.6695 41.685 30.6704 41.6782L30.7523 41.2267C30.7532 41.2224 30.7523 41.2199 30.7505 41.219C30.7487 41.2182 30.746 41.2199 30.7432 41.2224L30.4146 41.5602C30.41 41.5662 30.4109 41.5696 30.4164 41.5722Z" fill="#F0C410"/>
<path d="M31.3643 42.4392C31.3625 42.4341 31.3625 42.429 31.3652 42.4238L31.5555 42.0604C31.5573 42.0561 31.5582 42.0527 31.5591 42.0502L31.5682 41.237C31.5682 41.2318 31.5682 41.2284 31.5701 41.2267C31.5746 41.2182 31.5828 41.2173 31.5946 41.2224L31.8459 41.3387C31.8568 41.3439 31.8623 41.3515 31.8614 41.3635L31.8368 41.8338C31.8368 41.8415 31.8404 41.8432 31.8468 41.8381L32.2301 41.5328C32.2392 41.526 32.2492 41.5243 32.2601 41.5294L32.5132 41.6466C32.5205 41.65 32.5251 41.6542 32.526 41.6594C32.5269 41.6645 32.5242 41.6696 32.5169 41.6748L31.8323 42.1767C31.8304 42.1784 31.8277 42.181 31.8259 42.1853L31.6356 42.5487C31.6329 42.5538 31.6283 42.5572 31.6229 42.5589C31.6174 42.5606 31.6119 42.5606 31.6065 42.5581L31.3761 42.4521C31.3698 42.4486 31.3661 42.4444 31.3643 42.4392Z" fill="#F0C410"/>
<path d="M33.6799 42.5769C33.597 42.5743 33.5215 42.5521 33.4541 42.5093C33.3867 42.4666 33.3321 42.4067 33.2921 42.3289L33.1273 42.0142C33.0863 41.9364 33.069 41.8595 33.0745 41.7842C33.0799 41.709 33.1072 41.6388 33.1564 41.5756C33.2056 41.5123 33.2729 41.461 33.3603 41.4208C33.4468 41.3815 33.5306 41.3618 33.6134 41.3618C33.6963 41.3618 33.77 41.3815 33.8347 41.4191C33.8993 41.4567 33.9494 41.508 33.9831 41.573L33.9867 41.5807C33.9894 41.5858 33.9894 41.591 33.9876 41.5961C33.9858 41.6012 33.9821 41.6055 33.9767 41.6081L33.7445 41.7149C33.7391 41.7175 33.7336 41.7175 33.7281 41.7158C33.7227 41.7141 33.7181 41.7107 33.7154 41.7055C33.6945 41.6654 33.6617 41.6388 33.6171 41.6243C33.5725 41.6098 33.5242 41.6149 33.4732 41.638C33.4232 41.6611 33.3904 41.6953 33.3767 41.7397C33.3622 41.7842 33.3676 41.8312 33.3931 41.8808L33.5652 42.2109C33.5907 42.2605 33.6289 42.2921 33.6781 42.3075C33.7272 42.3229 33.7782 42.3186 33.8301 42.2947C33.8784 42.2725 33.9102 42.2425 33.9275 42.2049C33.9448 42.1673 33.9412 42.1271 33.9193 42.0843L33.8966 42.0416C33.8938 42.0365 33.8902 42.0348 33.8847 42.0373L33.7209 42.1126C33.7154 42.1151 33.7099 42.1151 33.7045 42.1134C33.699 42.1117 33.6945 42.1083 33.6917 42.1032L33.6034 41.9338C33.6007 41.9287 33.6007 41.9236 33.6025 41.9185C33.6043 41.9133 33.608 41.9091 33.6134 41.9065L34.0322 41.7132C34.0377 41.7107 34.0431 41.7107 34.0486 41.7124C34.0541 41.7141 34.0586 41.7175 34.0613 41.7226L34.1706 41.9313C34.2107 42.0082 34.228 42.0843 34.2216 42.1596C34.2152 42.2348 34.1879 42.3032 34.1387 42.3657C34.0896 42.4281 34.0213 42.4794 33.9339 42.5187C33.8483 42.5598 33.7627 42.5794 33.6799 42.5769Z" fill="#F0C410"/>
<path d="M35.3947 41.8124L35.2809 41.6953C35.2763 41.6919 35.2727 41.6919 35.2699 41.6927L34.8976 41.8646C34.8939 41.8663 34.893 41.8697 34.893 41.8749L34.9222 42.0313C34.924 42.0433 34.9194 42.0519 34.9076 42.057L34.6572 42.1724C34.6509 42.1758 34.6445 42.1758 34.6399 42.1741C34.6345 42.1724 34.6317 42.1673 34.6299 42.1587L34.4369 40.9599C34.4351 40.9479 34.4396 40.9394 34.4497 40.9351L34.7583 40.7923C34.7692 40.7872 34.7792 40.7889 34.7874 40.7983L35.6814 41.6739C35.6833 41.6756 35.6851 41.6773 35.6869 41.6807C35.6914 41.6901 35.6878 41.697 35.676 41.703L35.4256 41.8184C35.4138 41.8227 35.4038 41.821 35.3947 41.8124ZM34.8575 41.6388L35.1006 41.5268C35.107 41.5234 35.1079 41.52 35.1024 41.5149L34.7719 41.1779C34.7683 41.1745 34.7665 41.1737 34.7647 41.1745C34.7628 41.1762 34.7619 41.1788 34.7628 41.1822L34.8466 41.6337C34.8484 41.6397 34.8521 41.6414 34.8575 41.6388Z" fill="#F0C410"/>
<path d="M36.2133 40.1202L36.4436 40.0142C36.4491 40.0116 36.4546 40.0116 36.46 40.0133C36.4655 40.015 36.4701 40.0185 36.4728 40.0236L37.0154 41.0617C37.0181 41.0668 37.0181 41.0719 37.0163 41.0771C37.0145 41.0822 37.0108 41.0865 37.0054 41.089L36.7732 41.1959C36.7678 41.1985 36.7623 41.1985 36.7568 41.1968C36.7514 41.1951 36.7468 41.1916 36.7441 41.1865L36.4218 40.5691C36.42 40.5649 36.4172 40.5632 36.4154 40.5649C36.4136 40.5657 36.4118 40.5683 36.4118 40.5726L36.3817 40.8496C36.3817 40.8599 36.3763 40.8676 36.3654 40.8727L36.2497 40.9266C36.2388 40.9317 36.2288 40.9308 36.2206 40.9249L35.9666 40.7769C35.963 40.7752 35.9602 40.7744 35.9575 40.7752C35.9557 40.7761 35.9557 40.7786 35.9575 40.7829L36.2807 41.402C36.2834 41.4071 36.2834 41.4123 36.2816 41.4174C36.2798 41.4225 36.2761 41.4268 36.2707 41.4294L36.0385 41.5362C36.0331 41.5388 36.0276 41.5388 36.0221 41.5371C36.0167 41.5354 36.0121 41.532 36.0094 41.5268L35.4668 40.4888C35.464 40.4836 35.464 40.4785 35.4659 40.4734C35.4677 40.4682 35.4713 40.464 35.4768 40.4614L35.7071 40.3554C35.7171 40.3511 35.7262 40.3511 35.7363 40.3571L36.1387 40.5871C36.145 40.5914 36.1487 40.5905 36.1487 40.5828L36.1978 40.145C36.1969 40.133 36.2024 40.1253 36.2133 40.1202Z" fill="#F0C410"/>
<path d="M37.7464 39.6781C37.7446 39.6833 37.7409 39.6875 37.7355 39.6901L37.222 39.927C37.2165 39.9295 37.2147 39.9329 37.2174 39.9381L37.3158 40.127C37.3185 40.1322 37.3221 40.1339 37.3276 40.1313L37.6563 39.98C37.6617 39.9774 37.6672 39.9774 37.6727 39.9791C37.6781 39.9808 37.6827 39.9842 37.6854 39.9894L37.7792 40.1689C37.7819 40.1741 37.7819 40.1792 37.7801 40.1843C37.7783 40.1895 37.7746 40.1937 37.7692 40.1963L37.4405 40.3477C37.435 40.3502 37.4341 40.3536 37.4369 40.3588L37.5425 40.5614C37.5452 40.5666 37.5488 40.5674 37.5543 40.5648L38.0678 40.328C38.0732 40.3254 38.0787 40.3254 38.0842 40.3271C38.0896 40.3288 38.0942 40.3323 38.0969 40.3374L38.1916 40.5187C38.1943 40.5238 38.1943 40.5289 38.1925 40.5341C38.1907 40.5392 38.187 40.5435 38.1816 40.546L37.4086 40.9026C37.4032 40.9052 37.3977 40.9052 37.3922 40.9035C37.3868 40.9018 37.3822 40.8983 37.3795 40.8932L36.8369 39.8551C36.8342 39.85 36.8342 39.8449 36.836 39.8397C36.8378 39.8346 36.8414 39.8303 36.8469 39.8278L37.6198 39.4712C37.6253 39.4686 37.6308 39.4686 37.6362 39.4703C37.6417 39.472 37.6462 39.4755 37.649 39.4806L37.7437 39.6619C37.7482 39.667 37.7482 39.6721 37.7464 39.6781Z" fill="#F0C410"/>
</g>
<defs>
<filter id="filter0_d_3_3044" x="0" y="0" width="68" height="68" filterUnits="userSpaceOnUse" color-interpolation-filters="sRGB">
<feFlood flood-opacity="0" result="BackgroundImageFix"/>
<feColorMatrix in="SourceAlpha" type="matrix" values="0 0 0 0 0 0 0 0 0 0 0 0 0 0 0 0 0 0 127 0" result="hardAlpha"/>
<feOffset dx="1" dy="2"/>
<feGaussianBlur stdDeviation="2"/>
<feComposite in2="hardAlpha" operator="out"/>
<feColorMatrix type="matrix" values="0 0 0 0 0 0 0 0 0 0 0 0 0 0 0 0 0 0 0.2 0"/>
<feBlend mode="normal" in2="BackgroundImageFix" result="effect1_dropShadow_3_3044"/>
<feBlend mode="normal" in="SourceGraphic" in2="effect1_dropShadow_3_3044" result="shape"/>
</filter>
<linearGradient id="paint0_linear_3_3044" x1="35" y1="57" x2="35" y2="6.5" gradientUnits="userSpaceOnUse">
<stop stop-color="#C72114"/>
<stop offset="1" stop-color="#F5493A"/>
</linearGradient>
<linearGradient id="paint1_linear_3_3044" x1="36.7514" y1="53.0595" x2="52.4672" y2="28.9023" gradientUnits="userSpaceOnUse">
<stop stop-color="#DFAD16"/>
<stop offset="0.5423" stop-color="#F2C60F"/>
<stop offset="1" stop-color="#FFF3C1"/>
</linearGradient>
<linearGradient id="paint2_linear_3_3044" x1="11.1382" y1="30.0015" x2="28.2128" y2="54.0649" gradientUnits="userSpaceOnUse">
<stop stop-color="#FFF3C1"/>
<stop offset="0.4577" stop-color="#F2C60F"/>
<stop offset="1" stop-color="#DFAD16"/>
</linearGradient>
<linearGradient id="paint3_linear_3_3044" x1="16.0417" y1="30.8903" x2="49.3724" y2="30.8903" gradientUnits="userSpaceOnUse">
<stop stop-color="#A69A68"/>
<stop offset="0.4577" stop-color="#996D00"/>
<stop offset="1" stop-color="#865400"/>
</linearGradient>
<linearGradient id="paint4_linear_3_3044" x1="17.5833" y1="30.8903" x2="47.8332" y2="30.8903" gradientUnits="userSpaceOnUse">
<stop stop-color="#670000"/>
<stop offset="0.4152" stop-color="#450A06"/>
<stop offset="1" stop-color="#0E0000"/>
</linearGradient>
<linearGradient id="paint5_linear_3_3044" x1="20.0842" y1="38.0278" x2="45.3306" y2="38.0278" gradientUnits="userSpaceOnUse">
<stop stop-color="#FFF3C1"/>
<stop offset="0.4577" stop-color="#F2C60F"/>
<stop offset="1" stop-color="#DFAD16"/>
</linearGradient>
<linearGradient id="paint6_linear_3_3044" x1="16.9514" y1="30.8903" x2="48.464" y2="30.8903" gradientUnits="userSpaceOnUse">
<stop stop-color="#FFF3C1"/>
<stop offset="0.4577" stop-color="#F2C60F"/>
<stop offset="1" stop-color="#DFAD16"/>
</linearGradient>
<linearGradient id="paint7_linear_3_3044" x1="25.2808" y1="40.9274" x2="40.0338" y2="40.9274" gradientUnits="userSpaceOnUse">
<stop stop-color="#670000"/>
<stop offset="0.4152" stop-color="#450A06"/>
<stop offset="1" stop-color="#0E0000"/>
</linearGradient>
<linearGradient id="paint8_linear_3_3044" x1="24.7454" y1="40.8659" x2="40.5681" y2="40.8659" gradientUnits="userSpaceOnUse">
<stop stop-color="#FFF3C1"/>
<stop offset="0.4577" stop-color="#F2C60F"/>
<stop offset="1" stop-color="#DFAD16"/>
</linearGradient>
<linearGradient id="paint9_linear_3_3044" x1="38.5122" y1="26.6238" x2="52.4167" y2="26.6238" gradientUnits="userSpaceOnUse">
<stop stop-color="#0E0000"/>
<stop offset="0.5848" stop-color="#450A06"/>
<stop offset="1" stop-color="#670000"/>
</linearGradient>
<linearGradient id="paint10_linear_3_3044" x1="13" y1="26.6245" x2="26.9053" y2="26.6245" gradientUnits="userSpaceOnUse">
<stop stop-color="#670000"/>
<stop offset="0.4152" stop-color="#450A06"/>
<stop offset="1" stop-color="#0E0000"/>
</linearGradient>
<linearGradient id="paint11_linear_3_3044" x1="41.6311" y1="31.4815" x2="43.0555" y2="31.4815" gradientUnits="userSpaceOnUse">
<stop stop-color="#DFAD16"/>
<stop offset="0.5423" stop-color="#F2C60F"/>
<stop offset="1" stop-color="#FFF3C1"/>
</linearGradient>
<linearGradient id="paint12_linear_3_3044" x1="46.5688" y1="22.2184" x2="51.7201" y2="22.2184" gradientUnits="userSpaceOnUse">
<stop stop-color="#DFAD16"/>
<stop offset="0.5423" stop-color="#F2C60F"/>
<stop offset="1" stop-color="#FFF3C1"/>
</linearGradient>
<linearGradient id="paint13_linear_3_3044" x1="44.5762" y1="27.2681" x2="49.1561" y2="27.2681" gradientUnits="userSpaceOnUse">
<stop stop-color="#DFAD16"/>
<stop offset="0.5423" stop-color="#F2C60F"/>
<stop offset="1" stop-color="#FFF3C1"/>
</linearGradient>
<linearGradient id="paint14_linear_3_3044" x1="43.908" y1="29.531" x2="47.0121" y2="29.531" gradientUnits="userSpaceOnUse">
<stop stop-color="#DFAD16"/>
<stop offset="0.5423" stop-color="#F2C60F"/>
<stop offset="1" stop-color="#FFF3C1"/>
</linearGradient>
<linearGradient id="paint15_linear_3_3044" x1="41.7256" y1="30.3055" x2="44.1847" y2="30.3055" gradientUnits="userSpaceOnUse">
<stop stop-color="#DFAD16"/>
<stop offset="0.5423" stop-color="#F2C60F"/>
<stop offset="1" stop-color="#FFF3C1"/>
</linearGradient>
<linearGradient id="paint16_linear_3_3044" x1="42.3438" y1="25.2426" x2="46.9854" y2="25.2426" gradientUnits="userSpaceOnUse">
<stop stop-color="#DFAD16"/>
<stop offset="0.5423" stop-color="#F2C60F"/>
<stop offset="1" stop-color="#FFF3C1"/>
</linearGradient>
<linearGradient id="paint17_linear_3_3044" x1="39.2056" y1="28.1036" x2="42.6782" y2="28.1036" gradientUnits="userSpaceOnUse">
<stop stop-color="#DFAD16"/>
<stop offset="0.5423" stop-color="#F2C60F"/>
<stop offset="1" stop-color="#FFF3C1"/>
</linearGradient>
<linearGradient id="paint18_linear_3_3044" x1="42.158" y1="23.4976" x2="47.6417" y2="23.4976" gradientUnits="userSpaceOnUse">
<stop stop-color="#DFAD16"/>
<stop offset="0.5423" stop-color="#F2C60F"/>
<stop offset="1" stop-color="#FFF3C1"/>
</linearGradient>
<linearGradient id="paint19_linear_3_3044" x1="42.1423" y1="26.9159" x2="46.2752" y2="26.9159" gradientUnits="userSpaceOnUse">
<stop stop-color="#DFAD16"/>
<stop offset="0.5423" stop-color="#F2C60F"/>
<stop offset="1" stop-color="#FFF3C1"/>
</linearGradient>
<linearGradient id="paint20_linear_3_3044" x1="41.9851" y1="28.7607" x2="45.0574" y2="28.7607" gradientUnits="userSpaceOnUse">
<stop stop-color="#DFAD16"/>
<stop offset="0.5423" stop-color="#F2C60F"/>
<stop offset="1" stop-color="#FFF3C1"/>
</linearGradient>
<linearGradient id="paint21_linear_3_3044" x1="45.6575" y1="24.7901" x2="51.0114" y2="24.7901" gradientUnits="userSpaceOnUse">
<stop stop-color="#DFAD16"/>
<stop offset="0.5423" stop-color="#F2C60F"/>
<stop offset="1" stop-color="#FFF3C1"/>
</linearGradient>
<linearGradient id="paint22_linear_3_3044" x1="17.7751" y1="23.4984" x2="23.257" y2="23.4984" gradientUnits="userSpaceOnUse">
<stop stop-color="#FFF3C1"/>
<stop offset="0.4577" stop-color="#F2C60F"/>
<stop offset="1" stop-color="#DFAD16"/>
</linearGradient>
<linearGradient id="paint23_linear_3_3044" x1="16.2588" y1="27.2681" x2="20.8406" y2="27.2681" gradientUnits="userSpaceOnUse">
<stop stop-color="#FFF3C1"/>
<stop offset="0.4577" stop-color="#F2C60F"/>
<stop offset="1" stop-color="#DFAD16"/>
</linearGradient>
<linearGradient id="paint24_linear_3_3044" x1="14.4058" y1="24.7909" x2="19.7596" y2="24.7909" gradientUnits="userSpaceOnUse">
<stop stop-color="#FFF3C1"/>
<stop offset="0.4577" stop-color="#F2C60F"/>
<stop offset="1" stop-color="#DFAD16"/>
</linearGradient>
<linearGradient id="paint25_linear_3_3044" x1="18.4055" y1="29.5311" x2="21.5091" y2="29.5311" gradientUnits="userSpaceOnUse">
<stop stop-color="#FFF3C1"/>
<stop offset="0.4577" stop-color="#F2C60F"/>
<stop offset="1" stop-color="#DFAD16"/>
</linearGradient>
<linearGradient id="paint26_linear_3_3044" x1="22.7368" y1="28.1056" x2="26.2086" y2="28.1056" gradientUnits="userSpaceOnUse">
<stop stop-color="#FFF3C1"/>
<stop offset="0.4577" stop-color="#F2C60F"/>
<stop offset="1" stop-color="#DFAD16"/>
</linearGradient>
<linearGradient id="paint27_linear_3_3044" x1="19.1416" y1="26.9154" x2="23.2733" y2="26.9154" gradientUnits="userSpaceOnUse">
<stop stop-color="#FFF3C1"/>
<stop offset="0.4577" stop-color="#F2C60F"/>
<stop offset="1" stop-color="#DFAD16"/>
</linearGradient>
<linearGradient id="paint28_linear_3_3044" x1="22.3621" y1="31.4808" x2="23.7858" y2="31.4808" gradientUnits="userSpaceOnUse">
<stop stop-color="#FFF3C1"/>
<stop offset="0.4577" stop-color="#F2C60F"/>
<stop offset="1" stop-color="#DFAD16"/>
</linearGradient>
<linearGradient id="paint29_linear_3_3044" x1="18.4297" y1="25.2433" x2="23.0704" y2="25.2433" gradientUnits="userSpaceOnUse">
<stop stop-color="#FFF3C1"/>
<stop offset="0.4577" stop-color="#F2C60F"/>
<stop offset="1" stop-color="#DFAD16"/>
</linearGradient>
<linearGradient id="paint30_linear_3_3044" x1="20.3577" y1="28.7611" x2="23.4317" y2="28.7611" gradientUnits="userSpaceOnUse">
<stop stop-color="#FFF3C1"/>
<stop offset="0.4577" stop-color="#F2C60F"/>
<stop offset="1" stop-color="#DFAD16"/>
</linearGradient>
<linearGradient id="paint31_linear_3_3044" x1="13.6946" y1="22.2184" x2="18.8454" y2="22.2184" gradientUnits="userSpaceOnUse">
<stop stop-color="#FFF3C1"/>
<stop offset="0.4577" stop-color="#F2C60F"/>
<stop offset="1" stop-color="#DFAD16"/>
</linearGradient>
<linearGradient id="paint32_linear_3_3044" x1="21.2307" y1="30.3067" x2="23.6921" y2="30.3067" gradientUnits="userSpaceOnUse">
<stop stop-color="#FFF3C1"/>
<stop offset="0.4577" stop-color="#F2C60F"/>
<stop offset="1" stop-color="#DFAD16"/>
</linearGradient>
<linearGradient id="paint33_linear_3_3044" x1="24.9211" y1="30.3738" x2="40.5291" y2="30.3738" gradientUnits="userSpaceOnUse">
<stop stop-color="#DFAD16"/>
<stop offset="0.5423" stop-color="#F2C60F"/>
<stop offset="1" stop-color="#FFF3C1"/>
</linearGradient>
<linearGradient id="paint34_linear_3_3044" x1="32.7252" y1="23.6354" x2="32.7252" y2="36.6231" gradientUnits="userSpaceOnUse">
<stop stop-color="#5E231F"/>
<stop offset="0.4344" stop-color="#27100A"/>
<stop offset="1" stop-color="#140800"/>
</linearGradient>
<radialGradient id="paint35_radial_3_3044" cx="0" cy="0" r="1" gradientUnits="userSpaceOnUse" gradientTransform="translate(33.323 26.9728) scale(9.00708 9.28472)">
<stop stop-color="#A7A9AC"/>
<stop offset="0.9928"/>
</radialGradient>
<linearGradient id="paint36_linear_3_3044" x1="26.3509" y1="22.9427" x2="27.691" y2="22.9427" gradientUnits="userSpaceOnUse">
<stop stop-color="#DFAD16"/>
<stop offset="0.5423" stop-color="#F2C60F"/>
<stop offset="1" stop-color="#FFF3C1"/>
</linearGradient>
<linearGradient id="paint37_linear_3_3044" x1="28.1707" y1="21.7972" x2="30.2755" y2="21.7972" gradientUnits="userSpaceOnUse">
<stop stop-color="#DFAD16"/>
<stop offset="0.5423" stop-color="#F2C60F"/>
<stop offset="1" stop-color="#FFF3C1"/>
</linearGradient>
<linearGradient id="paint38_linear_3_3044" x1="31.1777" y1="21.1255" x2="34.1384" y2="21.1255" gradientUnits="userSpaceOnUse">
<stop stop-color="#DFAD16"/>
<stop offset="0.5423" stop-color="#F2C60F"/>
<stop offset="1" stop-color="#FFF3C1"/>
</linearGradient>
<linearGradient id="paint39_linear_3_3044" x1="37.6553" y1="22.87" x2="38.9945" y2="22.87" gradientUnits="userSpaceOnUse">
<stop stop-color="#DFAD16"/>
<stop offset="0.5423" stop-color="#F2C60F"/>
<stop offset="1" stop-color="#FFF3C1"/>
</linearGradient>
<linearGradient id="paint40_linear_3_3044" x1="35.0442" y1="21.7515" x2="37.16" y2="21.7515" gradientUnits="userSpaceOnUse">
<stop stop-color="#DFAD16"/>
<stop offset="0.5423" stop-color="#F2C60F"/>
<stop offset="1" stop-color="#FFF3C1"/>
</linearGradient>
</defs>
</svg>
