<svg width="12" height="12" viewBox="0 0 12 12" fill="none" xmlns="http://www.w3.org/2000/svg">
<path d="M3.72363 5.6302H8.30399C8.30935 5.6302 8.31604 5.6302 8.3214 5.62886C8.38033 5.61948 8.41917 5.56457 8.40979 5.50564L7.8714 2.18421C7.86336 2.13198 7.81783 2.09448 7.7656 2.09448H4.26203C4.20979 2.09448 4.16426 2.13198 4.15622 2.18421L3.61783 5.50564C3.61649 5.511 3.61649 5.5177 3.61649 5.52305C3.61649 5.58198 3.6647 5.6302 3.72363 5.6302ZM4.94506 3.0052H7.08122L7.35845 4.71948H4.66649L4.94506 3.0052ZM4.97854 6.79136C4.97051 6.73913 4.92497 6.70162 4.87274 6.70162H1.36917C1.31694 6.70162 1.2714 6.73913 1.26336 6.79136L0.724972 10.1128C0.723633 10.1181 0.723633 10.1248 0.723633 10.1302C0.723633 10.1891 0.771847 10.2373 0.830776 10.2373H5.41113C5.41649 10.2373 5.42319 10.2373 5.42854 10.236C5.48747 10.2266 5.52631 10.1717 5.51694 10.1128L4.97854 6.79136ZM1.77497 9.32662L2.0522 7.61234H4.18836L4.4656 9.32662H1.77497ZM11.2759 10.1128L10.7375 6.79136C10.7294 6.73913 10.6839 6.70162 10.6317 6.70162H7.1281C7.07586 6.70162 7.03033 6.73913 7.02229 6.79136L6.4839 10.1128C6.48256 10.1181 6.48256 10.1248 6.48256 10.1302C6.48256 10.1891 6.53078 10.2373 6.5897 10.2373H11.1701C11.1754 10.2373 11.1821 10.2373 11.1875 10.236C11.2451 10.2266 11.2852 10.1717 11.2759 10.1128ZM7.5339 9.32662L7.81113 7.61234H9.94729L10.2245 9.32662H7.5339Z" fill="#DBDDDD"/>
</svg>
