<svg width="22" height="22" viewBox="0 0 36 36" fill="none" xmlns="http://www.w3.org/2000/svg">
<path d="M30.5445 25.5554C29.5388 24.5489 28.3637 23.7274 27.073 23.1286C28.8931 21.654 30.0543 19.404 30.0543 16.8808C30.0543 12.429 26.3418 8.7768 21.89 8.8451C17.5065 8.9134 13.9748 12.4853 13.9748 16.8808C13.9748 19.404 15.14 21.654 16.9561 23.1286C15.6652 23.727 14.49 24.5485 13.4847 25.5554C11.2909 27.7531 10.0454 30.654 9.96501 33.7478C9.96394 33.7907 9.97146 33.8333 9.98714 33.8733C10.0028 33.9132 10.0263 33.9496 10.0563 33.9803C10.0862 34.011 10.122 34.0354 10.1616 34.052C10.2011 34.0687 10.2435 34.0773 10.2864 34.0772H12.5364C12.7092 34.0772 12.8539 33.9406 12.8579 33.7679C12.9342 31.4375 13.8784 29.2558 15.5378 27.6005C16.3869 26.7468 17.3969 26.0701 18.5094 25.6094C19.6218 25.1487 20.8145 24.9132 22.0186 24.9165C24.4655 24.9165 26.7677 25.8688 28.4994 27.6005C30.1547 29.2558 31.0989 31.4375 31.1793 33.7679C31.1833 33.9406 31.328 34.0772 31.5007 34.0772H33.7507C33.7936 34.0773 33.8361 34.0687 33.8756 34.052C33.9151 34.0354 33.9509 34.011 33.9809 33.9803C34.0109 33.9496 34.0344 33.9132 34.05 33.8733C34.0657 33.8333 34.0732 33.7907 34.0722 33.7478C33.9918 30.654 32.7463 27.7531 30.5445 25.5554ZM22.0186 22.0237C20.6445 22.0237 19.3507 21.4893 18.3824 20.517C17.8965 20.0349 17.5126 19.4598 17.2538 18.8261C16.9949 18.1924 16.8663 17.513 16.8757 16.8286C16.8878 15.5107 17.4141 14.2371 18.3342 13.2929C19.2985 12.3045 20.5882 11.754 21.9664 11.738C23.3284 11.7259 24.6503 12.2563 25.6226 13.2085C26.619 14.1848 27.1655 15.4906 27.1655 16.8808C27.1655 18.2549 26.6311 19.5447 25.6588 20.517C25.1817 20.9963 24.6144 21.3762 23.9896 21.6349C23.3647 21.8935 22.6948 22.0256 22.0186 22.0237ZM11.9539 17.9415C11.9177 17.592 11.8976 17.2384 11.8976 16.8808C11.8976 16.242 11.9579 15.6192 12.0704 15.0125C12.0985 14.8679 12.0222 14.7192 11.8896 14.6589C11.3431 14.4138 10.8409 14.0763 10.407 13.6505C9.89567 13.1547 9.49331 12.5578 9.22559 11.8978C8.95786 11.2378 8.83065 10.5293 8.85207 9.81742C8.88823 8.52769 9.40653 7.30224 10.3105 6.37813C11.303 5.36162 12.6369 4.80715 14.0552 4.82322C15.3369 4.83528 16.5744 5.32947 17.5105 6.20537C17.828 6.50269 18.1012 6.83215 18.3302 7.18572C18.4105 7.31028 18.5672 7.36251 18.7039 7.31429C19.411 7.06921 20.1583 6.89644 20.9257 6.81608C21.1507 6.79197 21.2793 6.5509 21.1789 6.35001C19.873 3.76653 17.2052 1.9826 14.1195 1.93438C9.66367 1.86608 5.95117 5.51831 5.95117 9.96608C5.95117 12.4893 7.11233 14.7393 8.93242 16.2138C7.65475 16.8045 6.47751 17.6201 5.45698 18.6406C3.25519 20.8384 2.00966 23.7393 1.9293 26.8371C1.92823 26.8799 1.93575 26.9226 1.95142 26.9625C1.96709 27.0025 1.9906 27.0389 2.02055 27.0696C2.05051 27.1003 2.08631 27.1247 2.12584 27.1413C2.16537 27.158 2.20783 27.1665 2.25073 27.1665H4.50475C4.67751 27.1665 4.82216 27.0299 4.82617 26.8572C4.90251 24.5268 5.84671 22.3451 7.50609 20.6897C8.68734 19.5085 10.1338 18.6888 11.7128 18.2911C11.8695 18.2509 11.9739 18.1022 11.9539 17.9415Z" fill="#fff"/>
</svg>
