<svg width="23" height="22" viewBox="0 0 23 22" fill="none" xmlns="http://www.w3.org/2000/svg">
<g clip-path="url(#clip0_1956_42078)">
<path d="M5.81665 5.5916C5.0833 4.85825 1.96665 4.67495 0.958305 4.58325C0.866652 4.58325 0.774957 4.58325 0.683305 4.6749C0.591652 4.7666 0.5 4.94995 0.5 5.0416V13.2916C0.5 13.5666 0.683348 13.7499 0.958348 13.7499H3.70835C3.8917 13.7499 4.075 13.6583 4.1667 13.4749C4.1667 13.1999 5.8167 8.3416 6.00004 5.9583C6 5.8666 6 5.68329 5.81665 5.5916Z" fill="#FFBA52"/>
<path d="M15.6251 7.79162C14.7084 7.51662 13.8834 7.14997 13.1501 6.87497C11.5001 6.14162 10.7667 6.50832 9.30005 7.97497C8.6584 8.61662 8.20005 9.53332 8.29171 9.89997C8.29171 9.99162 8.29171 9.99162 8.47505 10.0833C8.9334 10.2667 9.57505 10.3583 10.2167 9.34997C10.3084 9.25832 10.4001 9.16662 10.5834 9.16662C10.8584 9.16662 10.95 9.07497 11.225 8.98328C11.4084 8.89162 11.5917 8.79993 11.8667 8.70828C11.9583 8.70828 11.9583 8.70828 12.05 8.70828C12.1417 8.70828 12.325 8.79993 12.4167 8.79993C12.8751 9.25832 13.7001 9.89997 14.5251 10.6333C15.8084 11.6417 17.0917 12.7417 17.7334 13.5667H17.8251C17.1834 11.7333 16.0834 8.61662 15.6251 7.79162Z" fill="#FFBA52"/>
<path d="M22.0417 5.5C18.4667 5.5 16.45 6.41665 16.3583 6.41665C16.2667 6.5083 16.175 6.6 16.0833 6.69165C16.0833 6.7833 16.0833 6.96665 16.175 7.0583C16.725 7.97496 18.5583 13.0167 18.8333 14.3C18.925 14.4833 19.1083 14.6666 19.2917 14.6666H22.0417C22.3167 14.6666 22.5 14.4833 22.5 14.2083V5.95826C22.5 5.68335 22.3167 5.5 22.0417 5.5Z" fill="#FFBA52"/>
<path d="M17.0917 14.4832C16.725 13.6582 15.1667 12.4666 13.7917 11.3666C13.0584 10.7249 12.325 10.1749 11.775 9.71656C11.6834 9.80821 11.5 9.80821 11.5 9.8999C11.225 9.99156 11.1334 10.0833 10.7667 10.0833C10.0333 10.9999 9.11665 11.3666 8.10835 10.9999C7.65 10.9083 7.375 10.5416 7.28335 10.1749C7.1 9.25825 7.925 7.9749 8.5667 7.33325H6.73335C6.36669 9.1666 5.725 11.5499 5.26669 12.8332C5.63335 13.1999 6.00004 13.6583 6.27504 13.8416C8.0167 15.3082 10.0334 16.7749 10.4 17.0499C10.675 17.2333 11.225 17.4166 11.5 17.4166C11.5917 17.4166 11.6834 17.4166 11.775 17.4166L10.3083 15.9499C10.125 15.7666 10.125 15.4916 10.3083 15.3082C10.4917 15.1249 10.7667 15.1249 10.95 15.3082L12.7834 17.1416C12.9667 17.3249 13.15 17.2332 13.3334 17.2332C13.6084 17.1416 13.7 16.9582 13.7917 16.6832L11.6834 14.5749C11.5 14.3916 11.5 14.1166 11.6834 13.9332C11.8667 13.7499 12.1417 13.7499 12.325 13.9332L14.6167 16.2249C14.7083 16.3166 15.075 16.3166 15.35 16.2249C15.4417 16.1332 15.625 16.0416 15.7167 15.8582L13.15 13.2916C12.9667 13.1082 12.9667 12.8332 13.15 12.6499C13.3334 12.4666 13.6084 12.4666 13.7917 12.6499L16.45 15.3082C16.6334 15.3999 16.8167 15.3082 17 15.2166C17.0917 15.1249 17.275 14.8499 17.0917 14.4832Z" fill="#FFBA52"/>
</g>
<defs>
<clipPath id="clip0_1956_42078">
<rect width="22" height="22" fill="white" transform="translate(0.5)"/>
</clipPath>
</defs>
</svg>
