<svg width="48" height="48" viewBox="0 0 48 48" fill="none" xmlns="http://www.w3.org/2000/svg">
<circle cx="24" cy="24" r="24" fill="#74B757" fill-opacity="0.16"/>
<g clip-path="url(#clip0_81_12321)">
<path d="M23.1443 32.2695C22.9633 31.9664 22.8026 31.6505 22.6637 31.3222C22.2632 30.3754 22.0602 29.3704 22.0602 28.3351C22.0602 27.2999 22.2632 26.2949 22.6637 25.348C22.8026 25.0198 22.9633 24.7038 23.1443 24.4007C21.9955 22.9783 20.2376 22.0684 18.2668 22.0684C14.8057 22.0683 12 24.8741 12 28.3351C12 31.7962 14.8057 34.6019 18.2668 34.6019C20.2376 34.6019 21.9955 33.692 23.1443 32.2695ZM20.3186 29.7995C20.1809 30.5509 19.6407 31.145 18.9385 31.3866V32.4634H17.5322V31.394C16.9096 31.1934 16.3657 30.7227 15.9594 30.0196L17.1771 29.3161C17.4768 29.8348 17.8328 30.0977 18.2354 30.0977C18.6468 30.0977 18.8867 29.8117 18.9354 29.546C18.9834 29.2838 18.8437 29.0825 18.5311 28.964C18.3611 28.8995 18.2067 28.8527 18.0575 28.8076C17.6755 28.6919 17.2804 28.5724 16.8967 28.2151C16.4676 27.8156 16.2787 27.2259 16.3912 26.6376C16.511 26.0119 16.9365 25.4963 17.5323 25.2495V24.2068H18.9385V25.1872C19.0096 25.2076 19.0807 25.2312 19.1518 25.2584C19.5827 25.4234 19.9107 25.674 20.0679 25.8087L19.1528 26.8765C19.0523 26.7903 18.5283 26.3693 18.0814 26.5434C17.8899 26.618 17.7963 26.7775 17.7725 26.902C17.7571 26.9821 17.759 27.0965 17.855 27.1859C17.9942 27.3155 18.1426 27.3641 18.465 27.4617C18.6289 27.5113 18.8148 27.5675 19.0299 27.6491C19.9856 28.0116 20.4915 28.8557 20.3186 29.7995Z" fill="#74B757"/>
<path d="M29.7331 22.0684C26.2721 22.0684 23.4663 24.8741 23.4663 28.3352C23.4663 31.7962 26.2721 34.602 29.7331 34.602C33.1942 34.602 35.9999 31.7962 35.9999 28.3352C35.9999 24.8741 33.1942 22.0684 29.7331 22.0684ZM33.5553 28.971C32.1596 29.63 31.028 30.7617 30.3689 32.1574H29.0973C28.4382 30.7617 27.3066 29.63 25.9109 28.971V27.6994C27.3066 27.0403 28.4382 25.9087 29.0973 24.513H30.3689C31.028 25.9087 32.1596 27.0403 33.5553 27.6994V28.971Z" fill="#74B757"/>
<path d="M29.7331 30.4481C30.9002 30.4481 31.8463 29.502 31.8463 28.3349C31.8463 27.1678 30.9002 26.2217 29.7331 26.2217C28.566 26.2217 27.6199 27.1678 27.6199 28.3349C27.6199 29.502 28.566 30.4481 29.7331 30.4481Z" fill="#74B757"/>
<path d="M20.8362 17.5264L19.8419 16.5321L18.9698 17.4041V14.8047H29.0302V17.4041L28.1582 16.5321L27.1638 17.5264L29.7333 20.0959L32.3028 17.5264L31.3084 16.5321L30.4364 17.4041V13.3984H17.5636V17.4041L16.6916 16.5321L15.6973 17.5264L18.2667 20.0959L20.8362 17.5264Z" fill="#74B757"/>
</g>
<defs>
<clipPath id="clip0_81_12321">
<rect width="24" height="24" fill="white" transform="translate(12 12)"/>
</clipPath>
</defs>
</svg>
