<svg width="49" height="48" viewBox="0 0 49 48" fill="none" xmlns="http://www.w3.org/2000/svg">
<circle cx="24.5" cy="24" r="24" fill="#4062ED" fill-opacity="0.1"/>
<path fill-rule="evenodd" clip-rule="evenodd" d="M32.261 24.001C32.261 24.8145 32.929 25.4764 33.75 25.4764C34.164 25.4764 34.5 25.8093 34.5 26.2195V28.8958C34.5 31.159 32.642 33 30.358 33H18.643C16.359 33 14.5 31.159 14.5 28.8958V26.2195C14.5 25.8093 14.836 25.4764 15.25 25.4764C16.072 25.4764 16.74 24.8145 16.74 24.001C16.74 23.2083 16.099 22.6118 15.25 22.6118C15.051 22.6118 14.861 22.5335 14.72 22.3938C14.579 22.2541 14.5 22.0648 14.5 21.8687L14.502 19.1051C14.502 16.842 16.36 15 18.644 15H30.356C32.64 15 34.499 16.842 34.499 19.1051L34.5 21.7825C34.5 21.9786 34.421 22.1689 34.281 22.3076C34.14 22.4473 33.95 22.5256 33.75 22.5256C32.929 22.5256 32.261 23.1875 32.261 24.001ZM26.752 24.648L27.931 23.5105C28.136 23.3143 28.207 23.025 28.118 22.7574C28.03 22.4899 27.8 22.2997 27.522 22.261L25.893 22.0252L25.164 20.5627C25.039 20.311 24.785 20.1544 24.502 20.1535H24.5C24.218 20.1535 23.964 20.31 23.837 20.5617L23.108 22.0252L21.482 22.26C21.201 22.2997 20.971 22.4899 20.882 22.7574C20.794 23.025 20.865 23.3143 21.069 23.5105L22.248 24.648L21.97 26.2562C21.922 26.5336 22.035 26.8091 22.265 26.9746C22.395 27.0667 22.546 27.1143 22.699 27.1143C22.816 27.1143 22.934 27.0855 23.042 27.029L24.5 26.2701L25.955 27.0271C26.207 27.1608 26.506 27.14 26.735 26.9736C26.966 26.8091 27.079 26.5336 27.031 26.2562L26.752 24.648Z" fill="#4062ED"/>
</svg>
