<svg width="14" height="14" viewBox="0 0 14 14" fill="none" xmlns="http://www.w3.org/2000/svg">
<path d="M7.00002 7.49219C6.42306 7.49219 5.88029 7.71641 5.47286 8.12519C5.27142 8.3251 5.11172 8.56305 5.00305 8.82522C4.89438 9.08739 4.83891 9.36855 4.83986 9.65234V11.4844H9.16018V9.65234C9.16018 9.07539 8.93596 8.53262 8.52717 8.12519C8.32726 7.92375 8.08931 7.76405 7.82714 7.65538C7.56497 7.54671 7.28382 7.49124 7.00002 7.49219ZM4.83986 4.34766C4.83986 4.92461 5.06407 5.46738 5.47286 5.8748C5.88029 6.28359 6.42306 6.50781 7.00002 6.50781C7.57697 6.50781 8.11975 6.28359 8.52717 5.8748C8.93596 5.46738 9.16018 4.92461 9.16018 4.34766V2.51562H4.83986V4.34766Z" fill="#FF8314" fill-opacity="0.1"/>
<path d="M10.1445 4.34766V2.51562H11.3203C11.3805 2.51562 11.4297 2.46641 11.4297 2.40625V1.64062C11.4297 1.58047 11.3805 1.53125 11.3203 1.53125H2.67969C2.61953 1.53125 2.57031 1.58047 2.57031 1.64062V2.40625C2.57031 2.46641 2.61953 2.51562 2.67969 2.51562H3.85547V4.34766C3.85547 5.46191 4.43516 6.44219 5.31016 7C4.43516 7.55781 3.85547 8.53809 3.85547 9.65234V11.4844H2.67969C2.61953 11.4844 2.57031 11.5336 2.57031 11.5937V12.3594C2.57031 12.4195 2.61953 12.4687 2.67969 12.4687H11.3203C11.3805 12.4687 11.4297 12.4195 11.4297 12.3594V11.5937C11.4297 11.5336 11.3805 11.4844 11.3203 11.4844H10.1445V9.65234C10.1445 8.53809 9.56484 7.55781 8.68984 7C9.56484 6.44219 10.1445 5.46191 10.1445 4.34766ZM9.16016 9.65234V11.4844H4.83984V9.65234C4.83984 9.07539 5.06406 8.53262 5.47285 8.12519C5.88027 7.71641 6.42305 7.49219 7 7.49219C7.57695 7.49219 8.11973 7.71641 8.52715 8.12519C8.93594 8.53262 9.16016 9.07539 9.16016 9.65234ZM9.16016 4.34766C9.16016 4.92461 8.93594 5.46738 8.52715 5.8748C8.11973 6.28359 7.57695 6.50781 7 6.50781C6.42305 6.50781 5.88027 6.28359 5.47285 5.8748C5.27141 5.6749 5.11171 5.43695 5.00304 5.17478C4.89437 4.91261 4.8389 4.63145 4.83984 4.34766V2.51562H9.16016V4.34766Z" fill="#FF8314"/>
</svg>
