<svg width="16" height="16" viewBox="0 0 16 16" fill="none" xmlns="http://www.w3.org/2000/svg">
<path fill-rule="evenodd" clip-rule="evenodd" d="M3.25 3.5C2.55964 3.5 2 4.05964 2 4.75V11.25C2 11.9404 2.55964 12.5 3.25 12.5H12.75C13.4404 12.5 14 11.9404 14 11.25V4.75C14 4.05964 13.4404 3.5 12.75 3.5H3.25ZM1 4.75C1 3.50736 2.00736 2.5 3.25 2.5H12.75C13.9926 2.5 15 3.50736 15 4.75V11.25C15 12.4926 13.9926 13.5 12.75 13.5H3.25C2.00736 13.5 1 12.4926 1 11.25V4.75Z" fill="#222222"/>
<path fill-rule="evenodd" clip-rule="evenodd" d="M14.5 6.9375H1.5V5.0625H14.5V6.9375Z" fill="#222222"/>
<path fill-rule="evenodd" clip-rule="evenodd" d="M3.06238 9.37549C3.06238 8.85772 3.48211 8.43799 3.99988 8.43799H5.49988C6.01764 8.43799 6.43738 8.85772 6.43738 9.37549V10.0005C6.43738 10.5183 6.01764 10.938 5.49988 10.938H3.99988C3.48211 10.938 3.06238 10.5183 3.06238 10.0005V9.37549Z" fill="#222222"/>
</svg>
