<svg width="14" height="12" viewBox="0 0 14 12" fill="none" xmlns="http://www.w3.org/2000/svg">
<path d="M12.452 10.9092H1.54279C1.24138 10.9092 0.997192 11.1534 0.997192 11.455C0.997192 11.7562 1.24138 12.0004 1.54279 12.0004H12.4517C12.7531 12.0004 12.9973 11.7562 12.9973 11.455C12.9971 11.1534 12.7529 10.9092 12.452 10.9092Z" fill="#222222"/>
<path d="M2.22455 9.4906C1.92315 9.4906 1.67896 9.73479 1.67896 10.0362C1.67896 10.3376 1.92315 10.5821 2.22455 10.5821H11.77C12.0714 10.5821 12.3156 10.3376 12.3156 10.0362C12.3156 9.73479 12.0714 9.4906 11.77 9.4906H11.6338V4.58122H11.77C11.921 4.58122 12.0425 4.45913 12.0425 4.30868C12.0425 4.15823 11.9204 4.03613 11.77 4.03613H2.22455C2.07385 4.03613 1.95201 4.15823 1.95201 4.30868C1.95201 4.45913 2.07411 4.58122 2.22455 4.58122H2.36095V9.49034H2.22455V9.4906ZM10.5426 4.58122V9.49034H8.90636V4.58122H10.5426ZM7.81516 4.58122V9.49034H6.17887V4.58122H7.81516ZM3.45164 4.58122H5.08793V9.49034H3.45164V4.58122Z" fill="#222222"/>
<path d="M1.5428 3.54574H12.4517C12.4535 3.54574 12.4556 3.54574 12.4571 3.54574C12.7588 3.54574 13.0027 3.30154 13.0027 3.00014C13.0027 2.76054 12.8484 2.55748 12.6341 2.48391L7.22153 0.0483815C7.07926 -0.0154761 6.91655 -0.0154761 6.77402 0.0483815L1.31905 2.50281C1.0843 2.60856 0.955312 2.86348 1.00946 3.11483C1.06336 3.36617 1.28558 3.54574 1.5428 3.54574Z" fill="#222222"/>
</svg>
