<svg width="21" height="20" viewBox="0 0 21 20" fill="none" xmlns="http://www.w3.org/2000/svg">
    <path opacity="0.4" d="M20.4998 10C20.4998 15.524 16.0228 20 10.4998 20C4.97676 20 0.499756 15.524 0.499756 10C0.499756 4.478 4.97676 0 10.4998 0C16.0228 0 20.4998 4.478 20.4998 10Z" fill="#F5493A"/>
    <path d="M14.0734 13.8143C13.9424 13.8143 13.8104 13.7803 13.6894 13.7093L9.76344 11.3673C9.53744 11.2313 9.39844 10.9863 9.39844 10.7223V5.67529C9.39844 5.26129 9.73444 4.92529 10.1484 4.92529C10.5624 4.92529 10.8984 5.26129 10.8984 5.67529V10.2963L14.4584 12.4193C14.8134 12.6323 14.9304 13.0923 14.7184 13.4483C14.5774 13.6833 14.3284 13.8143 14.0734 13.8143Z" fill="#F5493A"/>
</svg>
