<svg width="12" height="12" viewBox="0 0 12 12" fill="none" xmlns="http://www.w3.org/2000/svg">
<path fill-rule="evenodd" clip-rule="evenodd" d="M6.97962 9.0117C6.64612 9.3302 6.20462 9.5032 5.73562 9.5002H5.73512C5.26662 9.4962 4.82812 9.3157 4.50012 8.9922C3.82562 8.3277 3.83462 7.2537 4.52062 6.5992L5.60212 5.5652C5.64662 5.5227 5.70662 5.4997 5.76962 5.5002C5.83212 5.5007 5.89212 5.5247 5.93562 5.5677L7.00012 6.6182C7.67462 7.2832 7.66562 8.3567 6.97962 9.0117ZM8.40312 3.9932L6.10662 1.6477C5.91562 1.4522 5.59712 1.4522 5.39912 1.6402C5.29212 1.7422 5.23512 1.8867 5.24462 2.0342C5.24912 2.1042 5.24912 2.1732 5.24912 2.2472C5.24912 3.5257 4.92762 4.2817 4.75012 4.4687C4.67462 4.3857 4.53762 4.1677 4.42212 3.7222C4.37712 3.5482 4.24212 3.4117 4.06862 3.3647C3.89412 3.3187 3.70912 3.3682 3.58262 3.4957L3.09062 3.9922C1.63512 5.4757 1.63712 7.8927 3.09462 9.3782C3.80112 10.1012 4.74262 10.4992 5.74612 10.5002H5.75012C6.75462 10.5002 7.69812 10.1022 8.40762 9.3787C9.86612 7.8927 9.86362 5.4757 8.40312 3.9932Z" fill="white"/>
<mask id="mask0_3_3148" style="mask-type:alpha" maskUnits="userSpaceOnUse" x="2" y="1" width="8" height="10">
<path fill-rule="evenodd" clip-rule="evenodd" d="M6.97962 9.0117C6.64612 9.3302 6.20462 9.5032 5.73562 9.5002H5.73512C5.26662 9.4962 4.82812 9.3157 4.50012 8.9922C3.82562 8.3277 3.83462 7.2537 4.52062 6.5992L5.60212 5.5652C5.64662 5.5227 5.70662 5.4997 5.76962 5.5002C5.83212 5.5007 5.89212 5.5247 5.93562 5.5677L7.00012 6.6182C7.67462 7.2832 7.66562 8.3567 6.97962 9.0117ZM8.40312 3.9932L6.10662 1.6477C5.91562 1.4522 5.59712 1.4522 5.39912 1.6402C5.29212 1.7422 5.23512 1.8867 5.24462 2.0342C5.24912 2.1042 5.24912 2.1732 5.24912 2.2472C5.24912 3.5257 4.92762 4.2817 4.75012 4.4687C4.67462 4.3857 4.53762 4.1677 4.42212 3.7222C4.37712 3.5482 4.24212 3.4117 4.06862 3.3647C3.89412 3.3187 3.70912 3.3682 3.58262 3.4957L3.09062 3.9922C1.63512 5.4757 1.63712 7.8927 3.09462 9.3782C3.80112 10.1012 4.74262 10.4992 5.74612 10.5002H5.75012C6.75462 10.5002 7.69812 10.1022 8.40762 9.3787C9.86612 7.8927 9.86362 5.4757 8.40312 3.9932Z" fill="white"/>
</mask>
<g mask="url(#mask0_3_3148)">
<rect width="12" height="12" fill="white"/>
</g>
</svg>
