<svg width="24" height="22" viewBox="0 0 24 22" fill="none" xmlns="http://www.w3.org/2000/svg">
<path fill-rule="evenodd" clip-rule="evenodd" d="M2.08325 14.4761V16.8619C2.08325 17.6856 2.40292 18.4591 2.98509 19.0413C3.56725 19.6234 4.34192 19.9443 5.16442 19.9443H18.8331C20.5318 19.9443 21.9154 18.5629 21.9166 16.8643V14.4749C20.4163 14.0864 19.3044 12.7203 19.3033 11.0998C19.3033 9.47928 20.4151 8.11311 21.9154 7.72344L21.9166 5.33761C21.9178 3.63661 20.5376 2.25178 18.8378 2.25061H5.16792C3.46809 2.25061 2.08442 3.63311 2.08325 5.33294V7.80278C2.65025 7.93811 3.17642 8.21694 3.61392 8.62528C4.27775 9.24478 4.66042 10.0848 4.69309 10.9924C4.69659 12.7028 3.58475 14.0841 2.08325 14.4761ZM18.8331 21.6943H5.16559C3.87409 21.6943 2.66075 21.1926 1.74725 20.2791C0.834919 19.3656 0.333252 18.1523 0.333252 16.8619V13.7119C0.333252 13.2289 0.725252 12.8369 1.20825 12.8369C2.16959 12.8358 2.94659 12.0564 2.94542 11.0998C2.92909 10.6121 2.74242 10.2061 2.42042 9.90511C2.09959 9.60411 1.68425 9.43961 1.23859 9.46411C0.997085 9.46644 0.770752 9.38361 0.600419 9.21911C0.430085 9.05461 0.333252 8.82594 0.333252 8.58911V5.33411C0.334419 2.66828 2.50325 0.50061 5.16792 0.50061H18.8319C21.5036 0.501777 23.6689 2.67411 23.6666 5.33878V8.48761C23.6666 8.97061 23.2746 9.36261 22.7916 9.36261C21.8338 9.36261 21.0533 10.1419 21.0533 11.0986C21.0544 12.0576 21.8338 12.8369 22.7916 12.8369C23.2746 12.8369 23.6666 13.2289 23.6666 13.7119V16.8619C23.6654 19.5266 21.4966 21.6943 18.8331 21.6943Z" fill="white"/>
</svg>
