<svg width="26" height="21" viewBox="0 0 26 21" fill="none" xmlns="http://www.w3.org/2000/svg">
<path fill-rule="evenodd" clip-rule="evenodd" d="M19.8678 10.171C19.4385 10.171 19.064 9.8548 19.0021 9.4173C18.9356 8.9378 19.2681 8.49563 19.7476 8.42913C20.9609 8.2588 21.8768 7.20646 21.8791 5.97913C21.8791 4.7623 21.0064 3.7333 19.8036 3.53613C19.3276 3.45796 19.0045 3.00763 19.0826 2.53046C19.162 2.0533 19.6088 1.73363 20.0883 1.80946C22.1393 2.14663 23.6291 3.9013 23.6291 5.98146C23.6244 8.07563 22.0599 9.8723 19.9891 10.1628C19.9483 10.1686 19.9075 10.171 19.8678 10.171" fill="white"/>
<mask id="mask0_104_8645" style="mask-type:alpha" maskUnits="userSpaceOnUse" x="21" y="12" width="5" height="6">
<path fill-rule="evenodd" clip-rule="evenodd" d="M21.1411 12.3353H25.5674V17.6198H21.1411V12.3353Z" fill="white"/>
</mask>
<g mask="url(#mask0_104_8645)">
<path fill-rule="evenodd" clip-rule="evenodd" d="M23.3383 17.6198C22.9859 17.6198 22.6534 17.4051 22.5204 17.0563C22.3478 16.6048 22.5753 16.0984 23.0268 15.9269C23.8178 15.6259 23.8178 15.2934 23.8178 15.1336C23.8178 14.6226 23.1679 14.2656 21.8869 14.0743C21.4098 14.0019 21.0796 13.5574 21.1508 13.0779C21.2219 12.5996 21.6653 12.2811 22.1471 12.3429C24.9739 12.7664 25.5678 14.0941 25.5678 15.1336C25.5678 15.7683 25.3181 16.9268 23.6498 17.5626C23.5471 17.6011 23.4421 17.6198 23.3383 17.6198" fill="white"/>
</g>
<path fill-rule="evenodd" clip-rule="evenodd" d="M12.8677 14.5663C10.0957 14.5663 6.79053 14.907 6.79053 16.5287C6.79053 18.1632 10.0957 18.5062 12.8677 18.5062C15.6397 18.5062 18.9437 18.1667 18.9437 16.5485C18.9437 14.9105 15.6397 14.5663 12.8677 14.5663M12.8677 20.2562C10.9322 20.2562 5.04053 20.2562 5.04053 16.5287C5.04053 12.8163 10.9322 12.8163 12.8677 12.8163C14.8032 12.8163 20.6937 12.8163 20.6937 16.5485C20.6937 20.2562 15.0085 20.2562 12.8677 20.2562" fill="white"/>
<path fill-rule="evenodd" clip-rule="evenodd" d="M12.8677 2.41669C10.8937 2.41669 9.28838 4.02319 9.28838 5.99719C9.28488 6.95385 9.65121 7.84869 10.322 8.52419C10.9929 9.19969 11.8865 9.57419 12.8385 9.57769L12.8677 10.4527V9.57769C14.8417 9.57769 16.4482 7.97235 16.4482 5.99719C16.4482 4.02319 14.8417 2.41669 12.8677 2.41669M12.8677 11.3277H12.8362C11.4129 11.323 10.0794 10.7654 9.08071 9.75735C8.07971 8.75052 7.53254 7.41352 7.53838 5.99369C7.53838 3.05835 9.92888 0.666687 12.8677 0.666687C15.8077 0.666687 18.1982 3.05835 18.1982 5.99719C18.1982 8.93602 15.8077 11.3277 12.8677 11.3277" fill="white"/>
<path fill-rule="evenodd" clip-rule="evenodd" d="M5.86661 10.1709C5.82695 10.1709 5.78611 10.1686 5.74528 10.1628C3.67445 9.87227 2.11111 8.07561 2.10645 5.98377C2.10645 3.90127 3.59628 2.14661 5.64728 1.80944C6.13845 1.73244 6.57361 2.05561 6.65295 2.53044C6.73111 3.00761 6.40795 3.45794 5.93195 3.53611C4.72911 3.73327 3.85645 4.76227 3.85645 5.98144C3.85878 7.20644 4.77461 8.25994 5.98678 8.42911C6.46628 8.49561 6.79878 8.93777 6.73228 9.41727C6.67045 9.85477 6.29595 10.1709 5.86661 10.1709" fill="white"/>
<path fill-rule="evenodd" clip-rule="evenodd" d="M2.39741 17.6198C2.29358 17.6198 2.18858 17.6011 2.08591 17.5626C0.416415 16.9256 0.166748 15.7671 0.166748 15.1336C0.166748 14.0953 0.760581 12.7664 3.58858 12.3429C4.07041 12.2823 4.51141 12.5996 4.58375 13.0779C4.65491 13.5574 4.32475 14.0019 3.84758 14.0743C2.56658 14.2656 1.91675 14.6226 1.91675 15.1336C1.91675 15.2934 1.91675 15.6248 2.70891 15.9269C3.16041 16.0984 3.38791 16.6048 3.21525 17.0563C3.08225 17.4051 2.74975 17.6198 2.39741 17.6198" fill="white"/>
</svg>
