<svg width="32" height="32" viewBox="0 0 32 32" fill="none" xmlns="http://www.w3.org/2000/svg">
<circle cx="16" cy="16" r="16" fill="#4062ED" fill-opacity="0.1"/>
<path d="M8 10.8647V21.1356H24V10.8647H8ZM23.0625 20.1981H13.6213C14.9395 19.2675 15.8021 17.7327 15.8021 16.0002C15.8021 14.2676 14.9395 12.7328 13.6213 11.8022H23.0625V20.1981ZM8.9375 11.8022H10.6667C12.9814 11.8022 14.8646 13.6854 14.8646 16.0002C14.8646 18.3149 12.9814 20.1981 10.6667 20.1981H8.9375V11.8022Z" fill="#4062ED"/>
<path d="M10.9759 18.7524H11.9134V18.0345C12.3816 17.8735 12.7417 17.4774 12.8335 16.9765C12.9488 16.3473 12.6116 15.7846 11.9743 15.5429C11.8309 15.4885 11.707 15.451 11.5976 15.4179C11.3827 15.3529 11.2838 15.3205 11.191 15.2341C11.127 15.1745 11.1258 15.0983 11.136 15.0448C11.1519 14.9619 11.2143 14.8555 11.3419 14.8058C11.6398 14.6897 11.9892 14.9704 12.0562 15.0278L12.6663 14.316C12.5616 14.2262 12.3429 14.0591 12.0556 13.9491C12.0082 13.9309 11.9608 13.9152 11.9134 13.9016V13.248H10.9759V13.9432C10.5787 14.1077 10.2951 14.4514 10.2152 14.8686C10.1402 15.2608 10.2661 15.6539 10.5522 15.9202C10.808 16.1584 11.0714 16.2381 11.3261 16.3152C11.4256 16.3453 11.5285 16.3765 11.6418 16.4195C11.8502 16.4985 11.9434 16.6327 11.9113 16.8075C11.8789 16.9846 11.719 17.1753 11.4446 17.1753C11.1763 17.1753 10.9389 17 10.7391 16.6543L9.92737 17.1233C10.1982 17.592 10.5608 17.9058 10.9759 18.0395V18.7524H10.9759Z" fill="#4062ED"/>
<path d="M17.0625 13.2188H18V14.8854H17.0625V13.2188Z" fill="#4062ED"/>
<path d="M19.0625 13.2188H20V14.8854H19.0625V13.2188Z" fill="#4062ED"/>
<path d="M21.0625 13.2188H22V14.8854H21.0625V13.2188Z" fill="#4062ED"/>
<path d="M18.2294 16.125H22.0001V17.0625H18.2294V16.125Z" fill="#4062ED"/>
<path d="M16.6666 17.9482H22V18.8857H16.6666V17.9482Z" fill="#4062ED"/>
</svg>
