<svg width="8" height="8" viewBox="0 0 8 8" fill="none" xmlns="http://www.w3.org/2000/svg">
    <path d="M6.2499 1.93689C6.1249 1.66367 5.94722 1.41814 5.72043 1.20831C5.25972 0.780636 4.64811 0.544922 3.9999 0.544922C3.35168 0.544922 2.74007 0.780636 2.27936 1.20742C2.05257 1.41814 1.8749 1.66278 1.7499 1.93689C1.61954 2.2226 1.55347 2.52528 1.55347 2.83778V3.07885C1.55347 3.13421 1.59811 3.17885 1.65347 3.17885H2.13561C2.19097 3.17885 2.23561 3.13421 2.23561 3.07885V2.83778C2.23561 1.94939 3.02668 1.22706 3.9999 1.22706C4.97311 1.22706 5.76418 1.94939 5.76418 2.83778C5.76418 3.20206 5.63472 3.54492 5.38918 3.83064C5.14632 4.11367 4.80347 4.31635 4.424 4.40206C4.20704 4.45117 4.0115 4.57349 3.87311 4.74849C3.7352 4.9229 3.66003 5.13865 3.65972 5.36099V5.64135C3.65972 5.69671 3.70436 5.74135 3.75972 5.74135H4.24186C4.29722 5.74135 4.34186 5.69671 4.34186 5.64135V5.36099C4.34186 5.22082 4.43918 5.0976 4.574 5.06724C5.09543 4.94939 5.56865 4.66814 5.90704 4.27528C6.07757 4.07617 6.21061 3.85474 6.30257 3.61456C6.39811 3.36546 6.44632 3.10385 6.44632 2.83778C6.44632 2.52528 6.38025 2.22171 6.2499 1.93689ZM3.9999 6.45564C3.724 6.45564 3.4999 6.67974 3.4999 6.95564C3.4999 7.23153 3.724 7.45564 3.9999 7.45564C4.27579 7.45564 4.4999 7.23153 4.4999 6.95564C4.4999 6.67974 4.27579 6.45564 3.9999 6.45564Z" fill="white"/>
</svg>
