<svg width="10" height="10" viewBox="0 0 10 10" fill="none" xmlns="http://www.w3.org/2000/svg">
    <path fill-rule="evenodd" clip-rule="evenodd" d="M8.88892 0.5H8.22226V1.88537C7.40777 1.04297 6.26505 0.518519 5.00004 0.518519C2.52498 0.518519 0.518555 2.52495 0.518555 5V5.05556H1.18522V5C1.18522 2.89314 2.89317 1.18519 5.00004 1.18519C6.05021 1.18519 7.00114 1.60924 7.6913 2.2963L6.42596 2.2963L6.42596 2.96296L8.88892 2.96296V0.5ZM9.48152 4.94444H8.81485V5C8.81485 7.10686 7.1069 8.81481 5.00004 8.81481C3.94986 8.81481 2.99893 8.39076 2.30877 7.7037H3.57411V7.03704H1.11115V9.5H1.77781V8.11463C2.5923 8.95703 3.73502 9.48148 5.00004 9.48148C7.47509 9.48148 9.48152 7.47505 9.48152 5V4.94444Z" fill="#C72114"/>
</svg>
