<svg width="20" height="20" viewBox="0 0 20 20" fill="none" xmlns="http://www.w3.org/2000/svg">
<mask id="mask0_104_8701" style="mask-type:alpha" maskUnits="userSpaceOnUse" x="1" y="2" width="18" height="16">
<path fill-rule="evenodd" clip-rule="evenodd" d="M1.66675 2.50043H18.3334V17.6388H1.66675V2.50043Z" fill="white"/>
</mask>
<g mask="url(#mask0_104_8701)">
<path fill-rule="evenodd" clip-rule="evenodd" d="M2.91675 12.4829V14.1871C2.91675 14.7754 3.14508 15.3279 3.56091 15.7438C3.97675 16.1596 4.53008 16.3888 5.11758 16.3888H14.8809C16.0942 16.3888 17.0826 15.4021 17.0834 14.1888V12.4821C16.0117 12.2046 15.2176 11.2288 15.2167 10.0713C15.2167 8.91376 16.0109 7.93793 17.0826 7.65959L17.0834 5.95543C17.0842 4.74043 16.0984 3.75126 14.8842 3.75043H5.12008C3.90592 3.75043 2.91758 4.73793 2.91675 5.95209V7.71626C3.32175 7.81293 3.69758 8.01209 4.01008 8.30376C4.48425 8.74626 4.75758 9.34626 4.78092 9.99459C4.78341 11.2163 3.98925 12.2029 2.91675 12.4829ZM14.8809 17.6388H5.11842C4.19592 17.6388 3.32925 17.2804 2.67675 16.6279C2.02508 15.9754 1.66675 15.1088 1.66675 14.1871V11.9371C1.66675 11.5921 1.94675 11.3121 2.29175 11.3121C2.97841 11.3113 3.53341 10.7546 3.53258 10.0713C3.52092 9.72293 3.38758 9.43293 3.15758 9.21793C2.92841 9.00293 2.63175 8.88543 2.31341 8.90293C2.14091 8.90459 1.97925 8.84543 1.85758 8.72793C1.73591 8.61043 1.66675 8.44709 1.66675 8.27793V5.95293C1.66758 4.04876 3.21675 2.50043 5.12008 2.50043H14.8801C16.7884 2.50126 18.3351 4.05293 18.3334 5.95626V8.20543C18.3334 8.55043 18.0534 8.83043 17.7084 8.83043C17.0243 8.83043 16.4668 9.38709 16.4668 10.0704C16.4676 10.7554 17.0243 11.3121 17.7084 11.3121C18.0534 11.3121 18.3334 11.5921 18.3334 11.9371V14.1871C18.3326 16.0904 16.7834 17.6388 14.8809 17.6388Z" fill="#D9D9D9"/>
</g>
<path fill-rule="evenodd" clip-rule="evenodd" d="M8.4201 9.48458L8.84427 9.89791C9.07427 10.1237 9.17843 10.4454 9.12343 10.7596L9.02343 11.3412L9.5476 11.0654C9.8301 10.9146 10.1693 10.9154 10.4543 11.0671L10.9751 11.3404L10.8751 10.7579C10.8226 10.4387 10.9276 10.1196 11.1551 9.89791L11.5793 9.48458L10.9918 9.39958C10.6768 9.35375 10.4034 9.15541 10.2626 8.86791L10.0001 8.33708L9.7376 8.86875C9.59677 9.15541 9.32343 9.35375 9.00677 9.39958L8.4201 9.48458ZM11.3484 12.8229C11.1934 12.8229 11.0384 12.7854 10.8951 12.7096L10.0001 12.2404L9.10427 12.7104C8.77427 12.8829 8.38177 12.8554 8.08177 12.6371C7.78093 12.4179 7.63343 12.0546 7.69593 11.6879L7.86677 10.6912L7.1426 9.98541C6.87677 9.72625 6.78177 9.34541 6.89593 8.99208C7.01093 8.63791 7.31093 8.38375 7.67843 8.33041L8.68177 8.18375L9.12927 7.27625C9.29343 6.94291 9.62677 6.73541 10.0001 6.73541C10.3718 6.73541 10.7059 6.94291 10.8701 7.27708L11.3184 8.18375L12.3201 8.33041C12.6884 8.38375 12.9893 8.63791 13.1034 8.99208C13.2176 9.34541 13.1234 9.72625 12.8568 9.98625L12.1318 10.6921L12.3034 11.6879C12.3659 12.0554 12.2176 12.4196 11.9159 12.6379C11.7459 12.7604 11.5476 12.8229 11.3484 12.8229Z" fill="#D9D9D9"/>
</svg>
