<svg width="14" height="20" viewBox="0 0 14 20" fill="none" xmlns="http://www.w3.org/2000/svg">
<path d="M13.1918 8.13922C12.848 7.73762 12.3661 7.48719 11.846 7.43316C11.8534 7.31715 11.8576 7.20027 11.8576 7.08242C11.8576 6.19328 11.6422 5.35352 11.261 4.61246V2.05195C11.261 0.920508 10.3405 0 9.20904 0C8.19174 0 7.34541 0.744297 7.18494 1.71684C6.94158 1.68324 6.69318 1.66551 6.44072 1.66551C3.45381 1.66551 1.02381 4.09551 1.02381 7.08242C1.02381 7.45195 1.06111 7.81293 1.13197 8.16184C0.636074 8.53676 0.314941 9.13117 0.314941 9.79934V9.82293V13.2562C0.314941 14.4807 0.868691 15.578 1.73865 16.3118V20H11.0683V16.7094C11.2877 16.5852 11.4963 16.4402 11.6901 16.2743C12.4045 15.6626 12.8777 14.8139 13.0225 13.8847L13.6607 9.78973C13.7531 9.19672 13.5822 8.59512 13.1918 8.13922ZM9.20901 1.17188C9.69428 1.17188 10.0891 1.56668 10.0891 2.05195V3.08191C9.58147 2.61859 8.98565 2.25051 8.33018 2.00574C8.35432 1.54188 8.73924 1.17188 9.20901 1.17188ZM6.44068 2.83738C8.78143 2.83738 10.6858 4.74168 10.6858 7.08242C10.6858 7.28273 10.6715 7.4798 10.6445 7.67281C10.1021 7.96906 9.70752 8.50465 9.60611 9.1557L9.46139 10.0619C8.69111 10.8427 7.62154 11.3275 6.44072 11.3275C4.09998 11.3275 2.19568 9.42316 2.19568 7.08246C2.19564 4.74168 4.09994 2.83738 6.44068 2.83738ZM1.48678 9.79934C1.48678 9.67113 1.51455 9.54938 1.56404 9.43941C1.95307 10.241 2.53412 10.9327 3.2469 11.4548V11.6666C3.2469 12.1519 2.85213 12.5467 2.36686 12.5467H2.36682C1.88154 12.5467 1.48678 12.1519 1.48678 11.6666V9.79934ZM12.5028 9.6093L11.8646 13.7043C11.7628 14.3575 11.4301 14.9541 10.9279 15.3841C10.4257 15.8142 9.78494 16.051 9.12377 16.051H8.25057V17.2229H9.12377C9.38483 17.2229 9.64338 17.196 9.89635 17.1454V18.8281H2.91049V16.999C3.34662 17.1628 3.81865 17.2526 4.31131 17.2526V16.0807C2.84482 16.0807 1.63619 14.9573 1.49994 13.5259C1.76346 13.6493 2.05717 13.7186 2.36686 13.7186C3.35334 13.7186 4.17924 13.0188 4.37475 12.0896C4.80416 12.2675 5.26111 12.3918 5.73744 12.4538C5.96772 12.4838 6.2024 12.4994 6.44068 12.4994C7.44459 12.4994 8.38533 12.2246 9.19233 11.7467L8.97096 13.1327H10.1577L10.7637 9.33832C10.8309 8.90688 11.1966 8.59375 11.6332 8.59375C11.8906 8.59375 12.1342 8.7059 12.3017 8.90141C12.4691 9.09691 12.5424 9.35496 12.5028 9.6093Z" fill="#C72114"/>
</svg>
