<svg width="20" height="20" viewBox="0 0 20 20" fill="none" xmlns="http://www.w3.org/2000/svg">
<g clip-path="url(#clip0_104_8666)">
<path d="M5.97687 7.16836C5.80059 7.55918 5.68199 7.97391 5.625 8.3984H8.985L7.30598 5.49023C6.73664 5.9302 6.27715 6.50578 5.97687 7.16836Z" fill="#D9D9D9"/>
<path d="M5.62524 9.57031C5.68224 9.9948 5.80083 10.4096 5.97712 10.8004C6.27735 11.463 6.73685 12.0386 7.30618 12.4785L8.98524 9.57031H5.62524Z" fill="#D9D9D9"/>
<path d="M9.99999 10.1562L8.32007 13.066C8.83819 13.28 9.40546 13.3984 9.99999 13.3984C10.5945 13.3984 11.1618 13.28 11.6799 13.066L9.99999 10.1562Z" fill="#D9D9D9"/>
<path d="M11.0149 9.57031L12.694 12.4785C13.2633 12.0386 13.7227 11.463 14.0231 10.8004C14.1993 10.4096 14.3179 9.9948 14.3749 9.57031H11.0149Z" fill="#D9D9D9"/>
<path d="M14.023 7.16842C13.7227 6.5058 13.2633 5.93026 12.6939 5.4903L11.0149 8.39846H14.3749C14.3179 7.97397 14.1993 7.5592 14.023 7.16842Z" fill="#D9D9D9"/>
<path d="M9.15845 2.54755L10 4.04091L10.8417 2.54755H9.15845Z" fill="#D9D9D9"/>
<path d="M16.3529 2.63145C14.656 0.934531 12.3998 0 10 0C7.6002 0 5.34402 0.934531 3.64707 2.63145C1.95016 4.3284 1.01562 6.58453 1.01562 8.98438C1.01562 11.3842 1.95016 13.6404 3.64707 15.3373C5.34402 17.0342 7.6002 17.9688 10 17.9688C12.3998 17.9688 14.656 17.0342 16.3529 15.3373C18.0498 13.6404 18.9844 11.3842 18.9844 8.98438C18.9844 6.58453 18.0498 4.3284 16.3529 2.63145ZM14.3089 3.8468C14.5378 3.61797 14.9088 3.61797 15.1376 3.8468C15.3664 4.07562 15.3664 4.4466 15.1376 4.67543C14.9088 4.90426 14.5378 4.90426 14.3089 4.67543C14.0801 4.4466 14.0801 4.07562 14.3089 3.8468ZM4.86242 3.8468C5.09125 3.61797 5.46223 3.61797 5.69105 3.8468C5.91988 4.07562 5.91988 4.4466 5.69105 4.67543C5.46223 4.90426 5.09125 4.90426 4.86242 4.67543C4.63359 4.4466 4.63359 4.07562 4.86242 3.8468ZM3.32031 9.57031C2.99672 9.57031 2.73438 9.30797 2.73438 8.98438C2.73438 8.66078 2.99672 8.39844 3.32031 8.39844C3.64391 8.39844 3.90625 8.66078 3.90625 8.98438C3.90625 9.30797 3.64391 9.57031 3.32031 9.57031ZM5.69105 14.122C5.46223 14.3508 5.09125 14.3508 4.86242 14.122C4.63359 13.8931 4.63359 13.5221 4.86242 13.2933C5.09125 13.0645 5.46223 13.0645 5.69105 13.2933C5.91988 13.5221 5.91988 13.8931 5.69105 14.122ZM10 16.25C9.67641 16.25 9.41406 15.9877 9.41406 15.6641C9.41406 15.3405 9.67641 15.0781 10 15.0781C10.3236 15.0781 10.5859 15.3405 10.5859 15.6641C10.5859 15.9877 10.3236 16.25 10 16.25ZM15.1376 14.122C14.9088 14.3508 14.5378 14.3508 14.3089 14.122C14.0801 13.8931 14.0801 13.5221 14.3089 13.2933C14.5378 13.0645 14.9088 13.0645 15.1376 13.2933C15.3664 13.5221 15.3664 13.8931 15.1376 14.122ZM15.5832 9.15359C15.5827 9.16734 15.5821 9.18109 15.5816 9.19484C15.5799 9.24102 15.5776 9.28707 15.5748 9.33297C15.5741 9.34332 15.5735 9.35371 15.5728 9.36406C15.5313 9.97852 15.3901 10.566 15.1652 11.1105C15.1629 11.1161 15.1606 11.1218 15.1582 11.1274C15.1366 11.1794 15.1144 11.2311 15.0912 11.2823C15.0832 11.3 15.0747 11.3174 15.0665 11.335C15.0538 11.3625 15.0409 11.3899 15.0277 11.4171C15.0121 11.4495 14.9959 11.4817 14.9796 11.5138C14.9757 11.5216 14.9717 11.5293 14.9677 11.5371C14.9261 11.618 14.8832 11.6984 14.8376 11.7774C14.348 12.6254 13.641 13.3324 12.793 13.822L12.7892 13.8228C11.9679 14.298 11.0152 14.5703 10 14.5703C8.98484 14.5703 8.03211 14.298 7.21086 13.8227L7.20703 13.822C6.35906 13.3324 5.65203 12.6254 5.16246 11.7773C5.11684 11.6983 5.07391 11.618 5.03234 11.537C5.02836 11.5293 5.02437 11.5216 5.02043 11.5138C5.0041 11.4817 4.98797 11.4495 4.9723 11.4171C4.9591 11.3898 4.94629 11.3624 4.93352 11.335C4.92535 11.3173 4.91684 11.2999 4.90887 11.2822C4.88566 11.2311 4.86348 11.1793 4.8418 11.1273C4.83945 11.1217 4.83719 11.1161 4.83488 11.1105C4.60992 10.566 4.46871 9.97852 4.42727 9.36402C4.42656 9.35367 4.42594 9.34332 4.42527 9.33293C4.42242 9.28703 4.42016 9.24102 4.41844 9.1948C4.41793 9.18105 4.4173 9.1673 4.41687 9.15355C4.41516 9.09734 4.41406 9.04102 4.41406 8.98438C4.41406 8.92773 4.41516 8.87141 4.41684 8.81516C4.41727 8.80141 4.41789 8.78766 4.4184 8.77391C4.42012 8.7277 4.42238 8.68164 4.42523 8.63574C4.4259 8.62539 4.42648 8.61508 4.42719 8.60473C4.46863 7.99004 4.60992 7.40238 4.835 6.85773C4.83719 6.85242 4.83934 6.84707 4.84156 6.84172C4.86332 6.78953 4.88559 6.73766 4.90887 6.68629C4.9166 6.66918 4.92484 6.65231 4.93273 6.63527C4.94578 6.60723 4.95887 6.57918 4.97234 6.55141C4.98793 6.51918 5.00398 6.48719 5.0202 6.45527C5.02426 6.4473 5.02836 6.43934 5.03246 6.43137C5.07398 6.35051 5.11688 6.27027 5.16242 6.19137C5.65203 5.34336 6.35902 4.63633 7.20699 4.14676L7.20953 4.14672C7.5877 3.92773 7.99398 3.75246 8.42117 3.62633L7.15277 1.37559H12.8471L11.5787 3.62629C12.0055 3.75227 12.4113 3.9273 12.7891 4.14594L12.7929 4.14672C13.6409 4.63629 14.3479 5.34332 14.8375 6.19133C14.8831 6.27035 14.9261 6.35066 14.9676 6.43164C14.9716 6.43937 14.9756 6.44711 14.9795 6.45488C14.9959 6.48699 15.012 6.51918 15.0277 6.5516C15.0409 6.57883 15.0537 6.60625 15.0664 6.63371C15.0746 6.65133 15.0831 6.66875 15.0911 6.68645C15.1143 6.73762 15.1364 6.7893 15.1581 6.84129C15.1605 6.84695 15.1627 6.85262 15.1651 6.85828C15.39 7.40277 15.5312 7.9902 15.5727 8.60465C15.5734 8.615 15.574 8.62535 15.5746 8.63574C15.5775 8.68164 15.5798 8.72766 15.5815 8.77387C15.582 8.78762 15.5826 8.80137 15.583 8.81512C15.5848 8.87141 15.5859 8.92773 15.5859 8.98438C15.5859 9.04102 15.5848 9.09734 15.5832 9.15359ZM16.6797 9.57031C16.3561 9.57031 16.0938 9.30797 16.0938 8.98438C16.0938 8.66078 16.3561 8.39844 16.6797 8.39844C17.0033 8.39844 17.2656 8.66078 17.2656 8.98438C17.2656 9.30797 17.0033 9.57031 16.6797 9.57031Z" fill="#D9D9D9"/>
<path d="M15.5371 17.5016C13.904 18.568 11.9961 19.1406 10 19.1406C8.00387 19.1406 6.09602 18.568 4.46289 17.5016L3.18164 20H16.8184L15.5371 17.5016Z" fill="#D9D9D9"/>
<path d="M10.9843 4.68127L9.99999 6.42788L9.01569 4.68127C8.77589 4.73616 8.54339 4.81053 8.32007 4.9028L9.99999 7.81252L11.6799 4.9028C11.4566 4.81053 11.2241 4.73616 10.9843 4.68127Z" fill="#D9D9D9"/>
</g>
<defs>
<clipPath id="clip0_104_8666">
<rect width="20" height="20" fill="white"/>
</clipPath>
</defs>
</svg>
