<svg width="20" height="20" viewBox="0 0 20 20" fill="none" xmlns="http://www.w3.org/2000/svg">
<g clip-path="url(#clip0_104_8725)">
<path d="M2.90186 3.73309L3.7323 2.90265L5.32429 4.49464L4.49385 5.32509L2.90186 3.73309Z" fill="#C72114"/>
<path d="M1.78198 7.49402L2.20013 6.39697L3.47951 6.88462L3.06136 7.98166L1.78198 7.49402Z" fill="#C72114"/>
<path d="M6.39502 2.2052L7.49214 1.78703L7.97979 3.06644L6.88268 3.48462L6.39502 2.2052Z" fill="#C72114"/>
<path d="M14.6714 15.5051L15.5018 14.6747L17.0938 16.2667L16.2634 17.0971L14.6714 15.5051Z" fill="#C72114"/>
<path d="M12.0063 16.9333L13.1035 16.5151L13.5911 17.7945L12.494 18.2127L12.0063 16.9333Z" fill="#C72114"/>
<path d="M16.5066 13.1157L16.9247 12.0186L18.2042 12.5063L17.786 13.6033L16.5066 13.1157Z" fill="#C72114"/>
<path d="M3.72365 13.6148H2.66154C2.111 14.7806 1.1658 15.7258 0 16.2763V17.3385C1.1658 17.889 2.111 18.8342 2.66154 20H3.72365C4.27415 18.8342 5.21932 17.889 6.38519 17.3385V16.2763C5.2194 15.7258 4.27415 14.7806 3.72365 13.6148ZM3.19258 18.5725C2.71901 17.8806 2.11938 17.2809 1.42746 16.8074C2.11946 16.3338 2.71901 15.7343 3.19258 15.0423C3.66614 15.7343 4.26566 16.3339 4.95769 16.8074C4.26573 17.2809 3.6661 17.8806 3.19258 18.5725Z" fill="#C72114"/>
<path d="M17.3384 6.10352e-05H16.2763C15.7257 1.16586 14.7806 2.11106 13.6147 2.66156V3.72372C14.7805 4.27421 15.7257 5.21942 16.2763 6.38521H17.3384C17.8889 5.21946 18.8341 4.27421 19.9999 3.72372V2.66152C18.8341 2.11106 17.8889 1.16586 17.3384 6.10352e-05ZM16.8074 4.95772C16.3338 4.2658 15.7342 3.66612 15.0422 3.1926C15.7342 2.71904 16.3338 2.11952 16.8074 1.42748C17.2809 2.11952 17.8804 2.71904 18.5725 3.1926C17.8804 3.66616 17.2809 4.26572 16.8074 4.95772Z" fill="#C72114"/>
<path d="M9.99996 3.9834C6.68245 3.9834 3.9834 6.68244 3.9834 10C3.9834 13.3176 6.68245 16.0166 9.99996 16.0166C13.3175 16.0166 16.0166 13.3175 16.0166 10C16.0166 6.68248 13.3176 3.9834 9.99996 3.9834ZM5.158 10C5.158 7.33012 7.33012 5.158 9.99996 5.158C12.6698 5.158 14.842 7.33012 14.842 10C14.842 12.6699 12.6698 14.842 9.99996 14.842C7.33012 14.842 5.158 12.6699 5.158 10Z" fill="#C72114"/>
<path d="M8.20752 8.34245H10.743L8.68053 12.8411L9.74833 13.3306L12.1451 8.10268V7.16785H8.20752V8.34245Z" fill="#C72114"/>
</g>
<defs>
<clipPath id="clip0_104_8725">
<rect width="20" height="20" fill="white"/>
</clipPath>
</defs>
</svg>
