<svg width="32" height="32" viewBox="0 0 32 32" fill="none" xmlns="http://www.w3.org/2000/svg">
<circle cx="16" cy="16" r="16" fill="#4E86F4" fill-opacity="0.1"/>
<path d="M13.1552 18.8959C13.0118 18.8415 12.8879 18.804 12.7786 18.7709C12.5637 18.7059 12.4647 18.6735 12.372 18.5871C12.308 18.5275 12.3067 18.4513 12.3169 18.3978C12.3328 18.3149 12.3952 18.2085 12.5229 18.1588C12.8209 18.0427 13.1702 18.3234 13.2372 18.3808L13.8472 17.669C13.7424 17.5792 13.5237 17.4121 13.2365 17.3021C13.1891 17.2839 13.1417 17.2682 13.0943 17.2546V16.6011H12.1568V17.2962C11.7596 17.4607 11.476 17.8044 11.3961 18.2216C11.3211 18.6138 11.447 19.0069 11.7331 19.2733C11.9889 19.5114 12.2522 19.5911 12.5069 19.6682C12.6065 19.6984 12.7094 19.7295 12.8227 19.7725C13.0311 19.8515 13.1243 19.9857 13.0922 20.1606C13.0598 20.3377 12.8999 20.5284 12.6256 20.5284C12.3572 20.5284 12.1198 20.353 11.9201 20.0073L11.1083 20.4763C11.3791 20.945 11.7417 21.2588 12.1568 21.3925V22.1055H13.0943V21.3876C13.5625 21.2266 13.9226 20.8305 14.0144 20.3296C14.1297 19.7004 13.7925 19.1376 13.1552 18.8959Z" fill="#4E86F4"/>
<path d="M20.6447 12.7765C20.6875 10.0625 18.5622 8 16 8C13.4379 8 11.3534 10.0845 11.3534 12.6466C11.3534 13.4121 11.5396 14.1349 11.8689 14.7722C9.67569 15.1434 8 17.0562 8 19.3534C8 21.9155 10.0845 24 12.6466 24C14.5556 24 16.1992 22.8427 16.9132 21.193C17.6228 21.6327 18.4589 21.887 19.3534 21.887C21.9155 21.887 24 19.8025 24 17.2404C24 15.1262 22.5806 13.3374 20.6447 12.7765ZM16 8.9375C18.0321 8.9375 19.6874 10.5801 19.7086 12.6072C19.5913 12.5983 19.4729 12.5938 19.3534 12.5938C18.6345 12.5938 17.9533 12.7579 17.3451 13.0506C17.2379 12.6681 16.943 12.3541 16.5086 12.1893C16.3652 12.1349 16.2413 12.0974 16.132 12.0643C15.9171 11.9992 15.8182 11.9668 15.7253 11.8805C15.6613 11.8209 15.6601 11.7447 15.6703 11.6912C15.6862 11.6082 15.7486 11.5019 15.8762 11.4522C16.1745 11.3361 16.5235 11.6168 16.5905 11.6742L17.2006 10.9624C17.0958 10.8726 16.8772 10.7055 16.5899 10.5955C16.5425 10.5773 16.4951 10.5616 16.4477 10.548V9.89444H15.5102V10.5895C15.113 10.754 14.8293 11.0977 14.7495 11.515C14.6745 11.9071 14.8004 12.3003 15.0865 12.5666C15.3423 12.8048 15.6056 12.8845 15.8603 12.9616C15.9598 12.9917 16.0627 13.0228 16.1761 13.0658C16.3844 13.1449 16.4777 13.2791 16.4456 13.4539C16.4132 13.631 16.2533 13.8217 15.9789 13.8217C15.7106 13.8217 15.4732 13.6464 15.2734 13.3006L14.4617 13.7697C14.726 14.2271 15.0777 14.5371 15.4803 14.6761C15.3287 14.9044 15.1967 15.1467 15.0867 15.4008C14.4506 15.0066 13.7129 14.7618 12.9226 14.7152C12.5238 14.1238 12.2908 13.4119 12.2908 12.6466C12.2909 10.6014 13.9548 8.9375 16 8.9375ZM12.6466 23.0625C10.6014 23.0625 8.9375 21.3986 8.9375 19.3534C8.9375 17.3082 10.6014 15.6443 12.6466 15.6443C13.4472 15.6443 14.1893 15.8993 14.7961 16.3322C14.7377 16.6261 14.7068 16.9297 14.7068 17.2404C14.7068 18.5577 15.2579 19.7488 16.1417 20.5952C15.6298 22.0315 14.2565 23.0625 12.6466 23.0625ZM19.3534 20.9495C17.3082 20.9495 15.6443 19.2856 15.6443 17.2404C15.6443 15.1952 17.3082 13.5312 19.3534 13.5312C21.3986 13.5312 23.0625 15.1952 23.0625 17.2404C23.0625 19.2856 21.3986 20.9495 19.3534 20.9495Z" fill="#4E86F4"/>
<path d="M19.862 16.7831C19.7186 16.7287 19.5948 16.6912 19.4854 16.6581C19.2705 16.5931 19.1716 16.5607 19.0788 16.4743C19.0148 16.4147 19.0135 16.3385 19.0238 16.285C19.0397 16.2021 19.1021 16.0957 19.2297 16.046C19.5275 15.93 19.877 16.2106 19.944 16.268L20.5541 15.5562C20.4493 15.4664 20.2306 15.2993 19.9433 15.1893C19.8959 15.1712 19.8485 15.1554 19.8012 15.1418V14.4883H18.8637V15.1834C18.4664 15.3479 18.1828 15.6916 18.1029 16.1088C18.0279 16.501 18.1539 16.8942 18.4399 17.1604C18.6958 17.3986 18.9591 17.4783 19.2138 17.5554C19.3133 17.5856 19.4162 17.6167 19.5295 17.6597C19.7379 17.7387 19.8311 17.8729 19.7991 18.0477C19.7666 18.2249 19.6067 18.4155 19.3324 18.4155C19.064 18.4155 18.8266 18.2402 18.6268 17.8945L17.8151 18.3635C18.0858 18.8322 18.4485 19.146 18.8636 19.2797V19.9926H19.8011V19.2748C20.2693 19.1138 20.6294 18.7176 20.7212 18.2167C20.8366 17.5875 20.4993 17.0248 19.862 16.7831Z" fill="#4E86F4"/>
</svg>
