<svg width="28" height="28" viewBox="0 0 28 28" fill="none" xmlns="http://www.w3.org/2000/svg">
<mask id="mask0_104_8610" style="mask-type:alpha" maskUnits="userSpaceOnUse" x="2" y="16" width="19" height="9">
<path fill-rule="evenodd" clip-rule="evenodd" d="M2.33325 16.2831H20.0477V24.566H2.33325V16.2831Z" fill="white"/>
</mask>
<g mask="url(#mask0_104_8610)">
<path fill-rule="evenodd" clip-rule="evenodd" d="M11.1903 18.0331C7.94817 18.0331 4.08301 18.4496 4.08301 20.4388C4.08301 22.0161 6.47467 22.8165 11.1903 22.8165C15.906 22.8165 18.2977 22.008 18.2977 20.4155C18.2977 18.8346 15.906 18.0331 11.1903 18.0331ZM11.1903 24.5665C8.76834 24.5665 2.33301 24.5665 2.33301 20.4388C2.33301 16.2831 8.99934 16.2831 11.1903 16.2831C14.9925 16.2831 20.0477 16.7113 20.0477 20.4155C20.0477 24.5665 13.3813 24.5665 11.1903 24.5665Z" fill="white"/>
</g>
<path fill-rule="evenodd" clip-rule="evenodd" d="M11.1902 4.08331C8.85108 4.08331 6.94824 5.98615 6.94824 8.32415C6.94824 10.6621 8.85108 12.565 11.1902 12.565H11.2264C12.3511 12.5603 13.4104 12.1181 14.2049 11.3166C15.0006 10.5175 15.4357 9.45465 15.4311 8.32765C15.4311 5.98615 13.5282 4.08331 11.1902 4.08331ZM11.1902 14.315C7.88624 14.315 5.19824 11.627 5.19824 8.32415C5.19824 5.02131 7.88624 2.33331 11.1902 2.33331C14.4931 2.33331 17.1811 5.02131 17.1811 8.32415C17.1881 9.91548 16.5709 11.4181 15.4462 12.5498C14.3239 13.6826 12.8247 14.3091 11.2299 14.315H11.1902Z" fill="white"/>
<path fill-rule="evenodd" clip-rule="evenodd" d="M19.2294 12.9871C18.8 12.9871 18.4255 12.6709 18.3637 12.2334C18.2972 11.7551 18.6297 11.3117 19.108 11.2452C20.564 11.0411 21.663 9.77756 21.6654 8.30523C21.6654 6.84223 20.6177 5.60789 19.1769 5.37223C18.6997 5.29289 18.3765 4.84373 18.4547 4.36656C18.5329 3.88939 18.9844 3.56856 19.4592 3.64439C21.7517 4.02006 23.4154 5.98123 23.4154 8.30639C23.4107 10.6456 21.6642 12.6546 19.3519 12.9789C19.311 12.9847 19.2702 12.9871 19.2294 12.9871Z" fill="white"/>
<mask id="mask1_104_8610" style="mask-type:alpha" maskUnits="userSpaceOnUse" x="20" y="15" width="6" height="7">
<path fill-rule="evenodd" clip-rule="evenodd" d="M20.8193 15.7306H25.6421V21.5377H20.8193V15.7306Z" fill="white"/>
</mask>
<g mask="url(#mask1_104_8610)">
<path fill-rule="evenodd" clip-rule="evenodd" d="M23.2113 21.5377C22.8578 21.5377 22.5253 21.3219 22.3935 20.973C22.222 20.5215 22.4495 20.0152 22.901 19.8449C23.8927 19.4692 23.8927 19.0107 23.8927 18.8147C23.8927 18.1532 23.1098 17.7005 21.5663 17.4707C21.088 17.3984 20.7578 16.9527 20.829 16.4755C20.9013 15.9972 21.3552 15.6764 21.8242 15.7382C24.9812 16.2107 25.6427 17.6725 25.6427 18.8147C25.6427 19.6652 25.2752 20.8167 23.5217 21.4805C23.4202 21.519 23.3152 21.5377 23.2113 21.5377Z" fill="white"/>
</g>
</svg>
