<svg width="15" height="13" viewBox="0 0 15 13" fill="none" xmlns="http://www.w3.org/2000/svg">
<path fill-rule="evenodd" clip-rule="evenodd" d="M13.5925 8.59728H10.8938C9.62912 8.59728 8.59979 7.56861 8.59912 6.30461C8.59912 5.03928 9.62845 4.00994 10.8938 4.00928H13.5925C13.8685 4.00928 14.0925 4.23328 14.0925 4.50928C14.0925 4.78528 13.8685 5.00928 13.5925 5.00928H10.8938C10.1798 5.00994 9.59912 5.59061 9.59912 6.30394C9.59912 7.01661 10.1805 7.59728 10.8938 7.59728H13.5925C13.8685 7.59728 14.0925 7.82128 14.0925 8.09728C14.0925 8.37328 13.8685 8.59728 13.5925 8.59728Z" fill="#222222"/>
<path fill-rule="evenodd" clip-rule="evenodd" d="M11.199 6.76221H10.991C10.715 6.76221 10.491 6.53821 10.491 6.26221C10.491 5.98621 10.715 5.76221 10.991 5.76221H11.199C11.475 5.76221 11.699 5.98621 11.699 6.26221C11.699 6.53821 11.475 6.76221 11.199 6.76221Z" fill="#222222"/>
<mask id="mask0_205_154" style="mask-type:alpha" maskUnits="userSpaceOnUse" x="0" y="0" width="15" height="13">
<path fill-rule="evenodd" clip-rule="evenodd" d="M0.333374 0H14.0924V12.7819H0.333374V0Z" fill="white"/>
</mask>
<g mask="url(#mask0_205_154)">
<path fill-rule="evenodd" clip-rule="evenodd" d="M4.3318 1C2.67846 1 1.33313 2.34533 1.33313 3.99867V8.78333C1.33313 10.4367 2.67846 11.782 4.3318 11.782H10.0945C11.7478 11.782 13.0925 10.4367 13.0925 8.78333V3.99867C13.0925 2.34533 11.7478 1 10.0945 1H4.3318ZM10.0945 12.782H4.3318C2.12713 12.782 0.33313 10.988 0.33313 8.78333V3.99867C0.33313 1.79333 2.12713 0 4.3318 0H10.0945C12.2991 0 14.0925 1.79333 14.0925 3.99867V8.78333C14.0925 10.988 12.2991 12.782 10.0945 12.782Z" fill="#222222"/>
</g>
<path fill-rule="evenodd" clip-rule="evenodd" d="M7.45639 4.02539H3.85706C3.58106 4.02539 3.35706 3.80139 3.35706 3.52539C3.35706 3.24939 3.58106 3.02539 3.85706 3.02539H7.45639C7.73239 3.02539 7.95639 3.24939 7.95639 3.52539C7.95639 3.80139 7.73239 4.02539 7.45639 4.02539Z" fill="#222222"/>
</svg>
