<svg width="32" height="32" viewBox="0 0 32 32" fill="none" xmlns="http://www.w3.org/2000/svg">
<circle cx="16" cy="16" r="16" fill="#7A5EF1" fill-opacity="0.1"/>
<path d="M13.1552 18.1982C13.0118 18.1438 12.8879 18.1063 12.7786 18.0732C12.5637 18.0082 12.4647 17.9758 12.372 17.8894C12.308 17.8298 12.3067 17.7536 12.3169 17.7001C12.3328 17.6171 12.3952 17.5108 12.5229 17.4611C12.8209 17.3449 13.1702 17.6256 13.2372 17.6831L13.8472 16.9712C13.7425 16.8814 13.5237 16.7144 13.2365 16.6044C13.1891 16.5862 13.1417 16.5705 13.0943 16.5569V15.9033H12.1568V16.5984C11.7596 16.7629 11.476 17.1067 11.3961 17.5239C11.3211 17.916 11.447 18.3091 11.7331 18.5755C11.9889 18.8136 12.2522 18.8934 12.5069 18.9705C12.6065 19.0006 12.7094 19.0317 12.8227 19.0747C13.0311 19.1538 13.1243 19.2879 13.0922 19.4628C13.0598 19.6399 12.8999 19.8306 12.6256 19.8306C12.3572 19.8306 12.1198 19.6553 11.9201 19.3095L11.1083 19.7785C11.3791 20.2472 11.7417 20.561 12.1568 20.6947V21.4077H13.0943V20.6898C13.5625 20.5288 13.9226 20.1327 14.0144 19.6318C14.1297 19.0026 13.7925 18.4399 13.1552 18.1982Z" fill="#7A5EF1"/>
<path d="M19.3534 14.0088C18.0367 14.0088 16.8463 14.5594 16 15.4422C15.1537 14.5594 13.9633 14.0088 12.6467 14.0088C10.0845 14.0088 8 16.0933 8 18.6554C8 21.2176 10.0845 23.302 12.6466 23.302C13.9633 23.302 15.1537 22.7514 16 21.8686C16.8463 22.7514 18.0367 23.302 19.3534 23.302C21.9155 23.302 24 21.2175 24 18.6554C24 16.0933 21.9155 14.0088 19.3534 14.0088ZM19.3534 22.3645C17.3082 22.3645 15.6443 20.7006 15.6443 18.6554C15.6443 16.6103 17.3082 14.9463 19.3534 14.9463C21.3986 14.9463 23.0625 16.6102 23.0625 18.6554C23.0625 20.7006 21.3986 22.3645 19.3534 22.3645ZM12.6466 22.3645C10.6014 22.3645 8.9375 20.7006 8.9375 18.6554C8.9375 16.6102 10.6014 14.9463 12.6466 14.9463C13.7466 14.9463 14.7361 15.4278 15.416 16.1909C14.9669 16.9058 14.7067 17.7507 14.7067 18.6554C14.7067 19.5601 14.9669 20.4051 15.416 21.1199C14.7362 21.883 13.7466 22.3645 12.6466 22.3645Z" fill="#7A5EF1"/>
<path d="M19.7773 16.1074H18.9296C18.4902 17.0379 17.7358 17.7923 16.8053 18.2317V19.0795C17.7358 19.5188 18.4902 20.2732 18.9296 21.2037H19.7773C20.2167 20.2732 20.9711 19.5188 21.9016 19.0795V18.2317C20.9711 17.7923 20.2167 17.0379 19.7773 16.1074ZM19.3535 20.0644C18.9755 19.512 18.497 19.0335 17.9446 18.6555C18.497 18.2775 18.9755 17.799 19.3535 17.2467C19.7314 17.7991 20.21 18.2776 20.7623 18.6555C20.21 19.0335 19.7314 19.512 19.3535 20.0644Z" fill="#7A5EF1"/>
<path d="M14.3597 11.4498L13.6968 10.7869L13.1154 11.3682V9.63525H18.8847V11.3682L18.3034 10.7869L17.6405 11.4498L19.3535 13.1628L21.0664 11.4498L20.4035 10.7869L19.8222 11.3682V8.69775H12.1779V11.3682L11.5966 10.7869L10.9337 11.4498L12.6467 13.1628L14.3597 11.4498Z" fill="#7A5EF1"/>
</svg>
