<svg width="32" height="32" viewBox="0 0 32 32" fill="none" xmlns="http://www.w3.org/2000/svg">
<circle cx="16" cy="16" r="16" fill="#F4B34E" fill-opacity="0.2"/>
<g clip-path="url(#clip0_4_8222)">
<path d="M20.6751 8H13.8252C13.2015 8 12.6583 8.35041 12.3816 8.86459H11.7499C10.6123 8.86459 9.68677 9.79009 9.68677 10.9278V21.9368C9.68677 23.0745 10.6123 24 11.7499 24H17.7499C18.8875 24 19.813 23.0745 19.813 21.9368V17.5799H20.6751C21.5784 17.5799 22.3133 16.845 22.3133 15.9417V9.63822C22.3133 8.73491 21.5784 8 20.6751 8V8ZM21.3758 15.9417C21.3758 16.328 21.0615 16.6424 20.6751 16.6424H17.6932L15.8962 17.5722L15.8745 16.6424H13.8252C13.4388 16.6424 13.1245 16.328 13.1245 15.9417V9.63822C13.1245 9.25184 13.4388 8.9375 13.8252 8.9375H20.6751C21.0615 8.9375 21.3758 9.25184 21.3758 9.63822V15.9417ZM18.8755 21.9368C18.8755 22.5575 18.3706 23.0625 17.7499 23.0625H16.3877C16.5547 22.7797 16.651 22.4505 16.651 22.099C16.651 21.7475 16.5547 21.4182 16.3877 21.1354H18.8756V21.9368H18.8755ZM10.6242 21.9368V21.1354H13.1121C12.9451 21.4182 12.8489 21.7475 12.8489 22.099C12.8489 22.4505 12.9451 22.7797 13.1121 23.0625H11.7499C11.1292 23.0625 10.6242 22.5575 10.6242 21.9368ZM15.7135 22.099C15.7135 22.6302 15.2812 23.0625 14.7499 23.0625C14.2186 23.0625 13.7864 22.6302 13.7864 22.099C13.7864 21.5677 14.2186 21.1354 14.7499 21.1354C15.2812 21.1354 15.7135 21.5677 15.7135 22.099ZM10.6242 20.1979V10.9278C10.6242 10.3071 11.1292 9.80209 11.7499 9.80209H12.187V15.9417C12.187 16.845 12.9219 17.5799 13.8252 17.5799H14.9586L14.9938 19.0946L17.9214 17.5799H18.8755V20.1979H10.6242Z" fill="#F4B34E"/>
<path d="M17.8647 12.2772C17.7213 12.2229 17.5974 12.1854 17.4881 12.1523C17.2732 12.0872 17.1742 12.0548 17.0814 11.9684C17.0174 11.9089 17.0162 11.8326 17.0264 11.7791C17.0423 11.6962 17.1047 11.5898 17.2323 11.5401C17.5304 11.4241 17.8796 11.7047 17.9466 11.7621L18.5567 11.0504C18.452 10.9605 18.2333 10.7935 17.946 10.6835C17.8986 10.6653 17.8512 10.6496 17.8038 10.636V9.98242H16.8663V10.6775C16.4691 10.842 16.1854 11.1858 16.1056 11.6029C16.0306 11.9951 16.1565 12.3883 16.4425 12.6546C16.6984 12.8928 16.9617 12.9725 17.2165 13.0496C17.316 13.0797 17.4189 13.1109 17.5322 13.1538C17.7406 13.2328 17.8337 13.367 17.8017 13.5419C17.7692 13.719 17.6094 13.9097 17.335 13.9097C17.0667 13.9097 16.8293 13.7344 16.6295 13.3886L15.8177 13.8576C16.0886 14.3263 16.4512 14.6401 16.8663 14.7738V15.4868H17.8038V14.7689C18.272 14.6079 18.6321 14.2118 18.7238 13.7109C18.8392 13.0817 18.502 12.519 17.8647 12.2772Z" fill="#F4B34E"/>
</g>
<defs>
<clipPath id="clip0_4_8222">
<rect width="16" height="16" fill="white" transform="translate(8 8)"/>
</clipPath>
</defs>
</svg>
