<svg width="32" height="32" viewBox="0 0 32 32" fill="none" xmlns="http://www.w3.org/2000/svg">
<circle cx="16" cy="16" r="16" fill="#F5493A" fill-opacity="0.1"/>
<path d="M21.4448 8.60113C20.5663 8.2135 19.4085 8 18.1847 8C16.9609 8 15.8031 8.2135 14.9245 8.60113C13.9239 9.04257 13.3729 9.67607 13.3729 10.3849V14.4246C12.9089 14.2785 12.4155 14.1995 11.9039 14.1995C9.20189 14.1995 7.00366 16.3978 7.00366 19.0998C7.00366 21.8017 9.20189 24 11.9039 24C13.7628 24 15.3832 22.9596 16.2134 21.4305C16.8277 21.5601 17.5013 21.6282 18.1847 21.6282C19.4085 21.6282 20.5663 21.4147 21.4449 21.0271C22.4454 20.5857 22.9964 19.9522 22.9964 19.2433V10.3849C22.9964 9.67607 22.4454 9.04257 21.4448 8.60113ZM15.3029 9.45885C16.0649 9.12266 17.0883 8.9375 18.1847 8.9375C19.281 8.9375 20.3045 9.12266 21.0664 9.45885C21.6786 9.72894 22.0589 10.0838 22.0589 10.3849C22.0589 10.686 21.6786 11.0409 21.0664 11.311C20.3044 11.6472 19.281 11.8323 18.1847 11.8323C17.0883 11.8323 16.0649 11.6472 15.3029 11.311C14.6907 11.0409 14.3104 10.686 14.3104 10.3849C14.3104 10.0838 14.6907 9.72894 15.3029 9.45885ZM11.9039 23.0625C9.7188 23.0625 7.94113 21.2848 7.94113 19.0998C7.94113 16.9147 9.7188 15.137 11.9039 15.137C14.0889 15.137 15.8666 16.9147 15.8666 19.0998C15.8666 21.2848 14.0889 23.0625 11.9039 23.0625ZM21.0664 20.1694C20.3044 20.5055 19.281 20.6907 18.1847 20.6907C17.6313 20.6907 17.0876 20.642 16.5854 20.5487C16.7069 20.1572 16.7802 19.7448 16.799 19.3184C17.2442 19.3812 17.7078 19.4136 18.1847 19.4136C19.4085 19.4136 20.5663 19.2001 21.4449 18.8125C21.6736 18.7116 21.8785 18.6006 22.059 18.481V19.2433C22.0589 19.5444 21.6786 19.8993 21.0664 20.1694ZM21.0664 17.9548C20.3045 18.2909 19.281 18.4761 18.1847 18.4761C17.6858 18.4761 17.2046 18.4375 16.7487 18.3625C16.6775 17.8925 16.539 17.4444 16.3439 17.0278C16.9204 17.1398 17.546 17.199 18.1847 17.199C19.4085 17.199 20.5663 16.9855 21.4449 16.5979C21.6736 16.497 21.8784 16.386 22.0589 16.2664V17.0287C22.0589 17.3298 21.6786 17.6847 21.0664 17.9548ZM21.0664 15.7402C20.3044 16.0764 19.281 16.2615 18.1847 16.2615C17.2154 16.2615 16.2902 16.1138 15.5635 15.8449C15.2054 15.4427 14.7822 15.0997 14.3104 14.8326V14.0518C14.4909 14.1714 14.6958 14.2824 14.9245 14.3833C15.8031 14.7709 16.9609 14.9844 18.1847 14.9844C19.4085 14.9844 20.5663 14.7709 21.4449 14.3833C21.6736 14.2824 21.8784 14.1714 22.0589 14.0518V14.8141C22.0589 15.1152 21.6786 15.4701 21.0664 15.7402ZM21.0664 13.5256C20.3045 13.8617 19.281 14.0469 18.1847 14.0469C17.0883 14.0469 16.0649 13.8617 15.3029 13.5256C14.6907 13.2555 14.3104 12.9006 14.3104 12.5995V11.8372C14.4909 11.9568 14.6958 12.0678 14.9245 12.1687C15.8031 12.5563 16.9609 12.7698 18.1847 12.7698C19.4085 12.7698 20.5663 12.5563 21.4449 12.1687C21.6736 12.0678 21.8784 11.9568 22.0589 11.8372V12.5995C22.0589 12.9006 21.6786 13.2555 21.0664 13.5256Z" fill="#F5493A"/>
<path d="M11.5481 21.6804H12.4107V20.9776C12.8415 20.82 13.1728 20.4321 13.2572 19.9417C13.3633 19.3257 13.053 18.7748 12.4667 18.5382C12.3347 18.485 12.2207 18.4482 12.1202 18.4159C11.9224 18.3522 11.8314 18.3204 11.746 18.2359C11.6872 18.1775 11.686 18.1029 11.6954 18.0506C11.71 17.9694 11.7675 17.8652 11.8849 17.8166C12.159 17.7029 12.4804 17.9777 12.5421 18.0339L13.1034 17.337C13.0071 17.2491 12.8059 17.0855 12.5415 16.9778C12.4979 16.9601 12.4543 16.9447 12.4107 16.9314V16.2915H11.5481V16.972C11.1827 17.1331 10.9217 17.4696 10.8482 17.8781C10.7792 18.262 10.8951 18.6469 11.1583 18.9076C11.3936 19.1408 11.6359 19.2188 11.8703 19.2943C11.9619 19.3238 12.0565 19.3543 12.1608 19.3964C12.3525 19.4737 12.4383 19.6051 12.4088 19.7763C12.3789 19.9497 12.2318 20.1364 11.9794 20.1364C11.7325 20.1364 11.514 19.9647 11.3302 19.6263L10.5834 20.0854C10.8325 20.5443 11.1662 20.8515 11.5481 20.9824V21.6804H11.5481Z" fill="#F5493A"/>
</svg>
