<svg width="18" height="18" viewBox="0 0 18 18" fill="none" xmlns="http://www.w3.org/2000/svg">
<path d="M16.3929 4.94252H13.4277C13.701 4.51261 13.8617 4.00234 13.8617 3.45592C13.8617 1.92712 12.6182 0.683594 11.0894 0.683594C10.2577 0.683594 9.50833 1.05324 9.00007 1.63583C8.49181 1.05324 7.74248 0.683594 6.91078 0.683594C5.38199 0.683594 4.13846 1.92712 4.13846 3.45592C4.13846 4.00234 4.29717 4.51261 4.57239 4.94252H1.60721C1.25163 4.94252 0.964355 5.2298 0.964355 5.58538V9.60324C0.964355 9.69163 1.03668 9.76395 1.12507 9.76395H1.92864V16.6747C1.92864 17.0302 2.21592 17.3175 2.5715 17.3175H15.4286C15.7842 17.3175 16.0715 17.0302 16.0715 16.6747V9.76395H16.8751C16.9635 9.76395 17.0358 9.69163 17.0358 9.60324V5.58538C17.0358 5.2298 16.7485 4.94252 16.3929 4.94252ZM9.68311 3.45592C9.68311 2.68047 10.3139 2.04967 11.0894 2.04967C11.8648 2.04967 12.4956 2.68047 12.4956 3.45592C12.4956 4.23136 11.8648 4.86217 11.0894 4.86217H9.68311V3.45592ZM6.91078 2.04967C7.68623 2.04967 8.31703 2.68047 8.31703 3.45592V4.86217H6.91078C6.13534 4.86217 5.50453 4.23136 5.50453 3.45592C5.50453 2.68047 6.13534 2.04967 6.91078 2.04967ZM2.33043 8.39788V6.30859H8.31703V8.39788H2.33043ZM3.29471 9.76395H8.31703V15.9515H3.29471V9.76395ZM14.7054 15.9515H9.68311V9.76395H14.7054V15.9515ZM15.6697 8.39788H9.68311V6.30859H15.6697V8.39788Z" fill="white"/>
</svg>
