<svg width="14" height="14" viewBox="0 0 14 14" fill="none" xmlns="http://www.w3.org/2000/svg">
<path d="M7.96855 9.39766C7.94506 9.37439 7.91334 9.36134 7.88027 9.36134C7.84721 9.36134 7.81549 9.37439 7.79199 9.39766L5.97637 11.2133C5.13574 12.0539 3.71699 12.143 2.78887 11.2133C1.85918 10.2836 1.94824 8.86641 2.78887 8.02578L4.60449 6.21016C4.65293 6.16172 4.65293 6.08203 4.60449 6.03359L3.98262 5.41172C3.95912 5.38846 3.9274 5.37541 3.89434 5.37541C3.86127 5.37541 3.82955 5.38846 3.80605 5.41172L1.99043 7.22734C0.668555 8.54922 0.668555 10.6883 1.99043 12.0086C3.3123 13.3289 5.45137 13.3305 6.77168 12.0086L8.5873 10.193C8.63574 10.1445 8.63574 10.0648 8.5873 10.0164L7.96855 9.39766ZM12.0092 1.99141C10.6873 0.669531 8.54824 0.669531 7.22793 1.99141L5.41074 3.80703C5.38748 3.83053 5.37443 3.86225 5.37443 3.89531C5.37443 3.92837 5.38748 3.9601 5.41074 3.98359L6.03105 4.60391C6.07949 4.65234 6.15918 4.65234 6.20762 4.60391L8.02324 2.78828C8.86387 1.94766 10.2826 1.85859 11.2107 2.78828C12.1404 3.71797 12.0514 5.13516 11.2107 5.97578L9.39512 7.79141C9.37185 7.8149 9.3588 7.84663 9.3588 7.87969C9.3588 7.91275 9.37185 7.94448 9.39512 7.96797L10.017 8.58985C10.0654 8.63828 10.1451 8.63828 10.1936 8.58985L12.0092 6.77422C13.3295 5.45234 13.3295 3.31328 12.0092 1.99141V1.99141ZM8.53262 4.81797C8.50912 4.79471 8.4774 4.78166 8.44434 4.78166C8.41127 4.78166 8.37955 4.79471 8.35605 4.81797L4.81699 8.35547C4.79373 8.37896 4.78068 8.41069 4.78068 8.44375C4.78068 8.47681 4.79373 8.50854 4.81699 8.53203L5.43574 9.15078C5.48418 9.19922 5.56387 9.19922 5.61231 9.15078L9.1498 5.61328C9.19824 5.56484 9.19824 5.48516 9.1498 5.43672L8.53262 4.81797Z" fill="#737373"/>
</svg>
