<svg width="14" height="14" viewBox="0 0 14 14" fill="none" xmlns="http://www.w3.org/2000/svg">
<path fill-rule="evenodd" clip-rule="evenodd" d="M5.03274 0.521311C5.10516 0.529419 6.67553 0.728686 8.68992 2.48408L7.47548 3.69858L4.79436 1.01746C4.75162 0.974735 4.72321 0.919782 4.71306 0.860204C4.7029 0.800626 4.71151 0.739364 4.73768 0.684888C4.76385 0.630412 4.8063 0.585412 4.85916 0.556108C4.91202 0.526805 4.97267 0.514645 5.03274 0.521311ZM7.26799 4.73018L9.33007 2.6681C9.44396 2.55421 9.6286 2.55421 9.74249 2.6681L11.3922 4.31776C11.506 4.43165 11.506 4.61629 11.3922 4.73018L9.33007 6.79226C9.21619 6.90615 9.03154 6.90615 8.91766 6.79226L7.26799 5.1426C7.15411 5.02871 7.15411 4.84407 7.26799 4.73018ZM13.5396 9.02841C13.5315 8.95593 13.3323 7.38577 11.5772 5.37161L10.3628 6.58608L13.0435 9.26679C13.0862 9.30953 13.1412 9.33794 13.2007 9.3481C13.2603 9.35825 13.3216 9.34965 13.3761 9.32347C13.4305 9.2973 13.4755 9.25485 13.5048 9.20199C13.5341 9.14913 13.5463 9.08848 13.5396 9.02841ZM0.66941 12.1544L7.06295 5.76099L8.30037 6.99841L1.90695 13.3917C1.85225 13.4464 1.77807 13.4772 1.70071 13.4772C1.62336 13.4772 1.54917 13.4464 1.49448 13.3917L0.66941 12.5669C0.614713 12.5122 0.583984 12.438 0.583984 12.3606C0.583984 12.2833 0.614713 12.2091 0.66941 12.1544Z" fill="white"/>
</svg>
