<svg width="18" height="18" viewBox="0 0 18 18" fill="none" xmlns="http://www.w3.org/2000/svg">
<path d="M15.1071 14.1423H14.625V7.31194C14.625 4.47734 12.5297 2.13493 9.80357 1.7452V0.963728C9.80357 0.519754 9.44397 0.160156 9 0.160156C8.55603 0.160156 8.19643 0.519754 8.19643 0.963728V1.7452C5.47031 2.13493 3.375 4.47734 3.375 7.31194V14.1423H2.89286C2.53728 14.1423 2.25 14.4296 2.25 14.7852V15.428C2.25 15.5164 2.32232 15.5887 2.41071 15.5887H6.75C6.75 16.8302 7.75848 17.8387 9 17.8387C10.2415 17.8387 11.25 16.8302 11.25 15.5887H15.5893C15.6777 15.5887 15.75 15.5164 15.75 15.428V14.7852C15.75 14.4296 15.4627 14.1423 15.1071 14.1423ZM9 16.553C8.46763 16.553 8.03571 16.1211 8.03571 15.5887H9.96429C9.96429 16.1211 9.53237 16.553 9 16.553ZM4.82143 14.1423V7.31194C4.82143 6.19498 5.25536 5.14632 6.04487 4.35681C6.83438 3.5673 7.88304 3.13337 9 3.13337C10.117 3.13337 11.1656 3.5673 11.9551 4.35681C12.7446 5.14632 13.1786 6.19498 13.1786 7.31194V14.1423H4.82143Z" fill="white"/>
</svg>
