<svg width="25" height="24" viewBox="0 0 25 24" fill="none" xmlns="http://www.w3.org/2000/svg">
<g clip-path="url(#clip0_1260_5783)">
<path d="M23.1077 15.4286H20.322V11.3571C20.322 11.2393 20.2256 11.1429 20.1077 11.1429H13.4648V8.57143H16.3577C16.5934 8.57143 16.7863 8.37857 16.7863 8.14286V0.428571C16.7863 0.192857 16.5934 0 16.3577 0H8.64342C8.4077 0 8.21484 0.192857 8.21484 0.428571V8.14286C8.21484 8.37857 8.4077 8.57143 8.64342 8.57143H11.5363V11.1429H4.89342C4.77556 11.1429 4.67913 11.2393 4.67913 11.3571V15.4286H1.89342C1.6577 15.4286 1.46484 15.6214 1.46484 15.8571V23.5714C1.46484 23.8071 1.6577 24 1.89342 24H9.6077C9.84342 24 10.0363 23.8071 10.0363 23.5714V15.8571C10.0363 15.6214 9.84342 15.4286 9.6077 15.4286H6.6077V13.0714H18.3934V15.4286H15.3934C15.1577 15.4286 14.9648 15.6214 14.9648 15.8571V23.5714C14.9648 23.8071 15.1577 24 15.3934 24H23.1077C23.3434 24 23.5363 23.8071 23.5363 23.5714V15.8571C23.5363 15.6214 23.3434 15.4286 23.1077 15.4286ZM8.00056 17.4643V21.9643H3.50056V17.4643H8.00056ZM10.2506 6.53571V2.03571H14.7506V6.53571H10.2506ZM21.5006 21.9643H17.0006V17.4643H21.5006V21.9643Z" fill="#FFBA52"/>
</g>
<defs>
<clipPath id="clip0_1260_5783">
<rect width="24" height="24" fill="white" transform="translate(0.5)"/>
</clipPath>
</defs>
</svg>
