<svg width="25" height="24" viewBox="0 0 25 24" fill="none" xmlns="http://www.w3.org/2000/svg">
<path d="M8.26071 12.085C11.5957 12.085 14.3007 9.38 14.3007 6.045C14.3007 2.71 11.5957 0 8.26071 0C4.9257 0 2.2207 2.705 2.2207 6.04C2.2207 9.375 4.9257 12.085 8.26071 12.085ZM6.1507 8.43C6.2057 8.23 6.2607 8.035 6.3207 7.835C6.3907 7.605 6.4557 7.58 6.6657 7.69C7.0257 7.875 7.40571 7.98 7.80571 8.03C8.06071 8.06 8.31571 8.035 8.55071 7.93C8.99571 7.735 9.06571 7.22 8.69071 6.91C8.56071 6.805 8.41571 6.725 8.26571 6.66C7.87571 6.49 7.47071 6.36 7.10071 6.14C6.5057 5.785 6.1257 5.29 6.1707 4.565C6.2207 3.745 6.6857 3.23 7.4357 2.96C7.74571 2.845 7.74571 2.85 7.75071 2.525C7.75071 2.415 7.75071 2.305 7.75071 2.195C7.75571 1.95 7.80071 1.91 8.04071 1.9C8.11571 1.9 8.19071 1.9 8.26571 1.9C8.78571 1.9 8.78571 1.9 8.78571 2.42C8.78571 2.785 8.78571 2.79 9.15071 2.845C9.43071 2.89 9.69571 2.97 9.95571 3.085C10.1007 3.15 10.1507 3.25 10.1107 3.4C10.0457 3.625 9.98571 3.85 9.91071 4.07C9.84071 4.28 9.77571 4.31 9.57571 4.215C9.17071 4.02 8.74571 3.935 8.29571 3.96C8.1757 3.965 8.06571 3.98 7.95571 4.03C7.57071 4.2 7.5057 4.625 7.83571 4.89C8.00071 5.025 8.19071 5.12 8.39071 5.2C8.73071 5.34 9.07571 5.48 9.40571 5.66C10.4407 6.235 10.7207 7.535 9.99071 8.42C9.72571 8.74 9.38571 8.955 8.98071 9.065C8.80571 9.115 8.72571 9.205 8.7357 9.385C8.74571 9.565 8.7357 9.74 8.7357 9.92C8.7357 10.08 8.65571 10.165 8.49571 10.17C8.30571 10.175 8.1107 10.175 7.9207 10.17C7.7507 10.165 7.6707 10.07 7.6707 9.905C7.6707 9.775 7.67071 9.645 7.66571 9.515C7.66071 9.23 7.6557 9.215 7.37571 9.17C7.0207 9.115 6.6757 9.035 6.3507 8.875C6.1057 8.76 6.0807 8.695 6.1507 8.43Z" fill="#FFBA52"/>
<path d="M21.8105 12.5899H21.1055C20.6405 11.1649 19.7305 9.89994 18.5155 8.91994C18.5155 8.87494 18.5055 8.82494 18.4955 8.77994C18.2405 7.88494 18.5555 7.06994 18.9205 6.48494C19.1755 6.07494 18.8455 5.54994 18.3655 5.60994C17.2905 5.74494 16.5505 6.13994 16.0405 6.58494C15.6905 6.88994 15.4405 7.29994 15.3305 7.75494C14.5605 10.9449 11.6855 13.3199 8.26054 13.3199C6.59555 13.3199 5.06555 12.7599 3.84055 11.8199C3.41555 12.7399 3.18555 13.7449 3.18555 14.7999C3.18555 15.3699 3.25555 15.9249 3.38555 16.4599C3.38555 16.4599 3.38555 16.4699 3.39055 16.4849C3.52555 17.0399 3.73055 17.5749 3.99055 18.0799C4.33555 18.8249 4.83555 19.6949 5.52555 20.3999C6.52055 21.4249 6.69055 22.6949 6.71555 23.2449V23.4799C6.71555 23.4899 6.71555 23.4999 6.71555 23.5099C6.71555 23.5149 6.71555 23.5149 6.71555 23.5149C6.73555 23.7849 6.96055 23.9999 7.23555 23.9999H10.3955C10.6805 23.9999 10.9155 23.7699 10.9155 23.4799V22.6999C11.3755 22.7599 11.8455 22.7949 12.3205 22.7949C12.6955 22.7949 13.0605 22.7749 13.4255 22.7349V23.4799C13.4255 23.7649 13.6555 23.9999 13.9455 23.9999H17.1155C17.4005 23.9999 17.6355 23.7699 17.6355 23.4799V22.6999C17.6405 22.4399 17.7305 21.4049 18.7105 20.5199C18.7455 20.4899 18.7805 20.4599 18.8155 20.4299C18.8255 20.4199 18.8355 20.4149 18.8455 20.4049C19.9355 19.4349 20.7405 18.2249 21.1555 16.8749H21.8205C22.3505 16.8749 22.7805 16.4449 22.7805 15.9149V13.5499C22.7705 13.0199 22.3405 12.5899 21.8105 12.5899ZM17.8555 12.7599C17.4205 12.7599 17.0705 12.4099 17.0705 11.9749C17.0705 11.5399 17.4205 11.1899 17.8555 11.1899C18.2905 11.1899 18.6405 11.5399 18.6405 11.9749C18.6405 12.4099 18.2905 12.7599 17.8555 12.7599Z" fill="#FFBA52"/>
</svg>
