<svg width="25" height="24" viewBox="0 0 25 24" fill="none" xmlns="http://www.w3.org/2000/svg">
<path d="M22.9994 2.56665H1.99944C1.88158 2.56665 1.78516 2.66308 1.78516 2.78094V4.49522C1.78516 4.61308 1.88158 4.70951 1.99944 4.70951H22.9994C23.1173 4.70951 23.2137 4.61308 23.2137 4.49522V2.78094C23.2137 2.66308 23.1173 2.56665 22.9994 2.56665ZM22.9994 19.2809H1.99944C1.88158 19.2809 1.78516 19.3774 1.78516 19.4952V21.2095C1.78516 21.3274 1.88158 21.4238 1.99944 21.4238H22.9994C23.1173 21.4238 23.2137 21.3274 23.2137 21.2095V19.4952C23.2137 19.3774 23.1173 19.2809 22.9994 19.2809ZM22.9994 10.9238H1.99944C1.88158 10.9238 1.78516 11.0202 1.78516 11.1381V12.8524C1.78516 12.9702 1.88158 13.0667 1.99944 13.0667H22.9994C23.1173 13.0667 23.2137 12.9702 23.2137 12.8524V11.1381C23.2137 11.0202 23.1173 10.9238 22.9994 10.9238Z" fill="#FFBA52"/>
</svg>
