<svg width="14" height="14" viewBox="0 0 14 14" fill="none" xmlns="http://www.w3.org/2000/svg">
<path d="M7 2.57031C5.64238 2.57031 4.36543 3.09941 3.4043 4.06055C2.44316 5.02031 1.91406 6.29727 1.91406 7.65625C1.91406 9.1 2.52246 10.4658 3.59023 11.4297H10.4098C10.9381 10.9533 11.3603 10.3713 11.649 9.72118C11.9378 9.0711 12.0867 8.36757 12.0859 7.65625C12.0859 6.29863 11.5568 5.02168 10.5957 4.06055C9.63594 3.09941 8.35898 2.57031 7 2.57031ZM6.58984 3.17187C6.58984 3.11172 6.63906 3.0625 6.69922 3.0625H7.30078C7.36094 3.0625 7.41016 3.11172 7.41016 3.17187V4.26562C7.41016 4.32578 7.36094 4.375 7.30078 4.375H6.69922C6.63906 4.375 6.58984 4.32578 6.58984 4.26562V3.17187ZM3.69141 7.95703C3.69141 8.01719 3.64219 8.06641 3.58203 8.06641H2.48828C2.42813 8.06641 2.37891 8.01719 2.37891 7.95703V7.35547C2.37891 7.29531 2.42813 7.24609 2.48828 7.24609H3.58203C3.64219 7.24609 3.69141 7.29531 3.69141 7.35547V7.95703ZM4.93145 5.1625L4.50625 5.5877C4.48569 5.60805 4.45793 5.61947 4.429 5.61947C4.40007 5.61947 4.37231 5.60805 4.35176 5.5877L3.57793 4.81387C3.55757 4.79331 3.54616 4.76555 3.54616 4.73662C3.54616 4.70769 3.55757 4.67993 3.57793 4.65937L4.00312 4.23418C4.04551 4.1918 4.11523 4.1918 4.15762 4.23418L4.93145 5.00801C4.97383 5.05039 4.97383 5.12012 4.93145 5.1625ZM8.91133 6.3041L7.75605 7.45937C7.82441 7.71504 7.75879 7.99805 7.55781 8.19902C7.48676 8.27021 7.40237 8.32668 7.30947 8.36521C7.21657 8.40375 7.11698 8.42358 7.01641 8.42358C6.91583 8.42358 6.81624 8.40375 6.72334 8.36521C6.63044 8.32668 6.54605 8.27021 6.475 8.19902C6.40382 8.12797 6.34734 8.04358 6.30881 7.95068C6.27028 7.85778 6.25044 7.75819 6.25044 7.65762C6.25044 7.55704 6.27028 7.45745 6.30881 7.36455C6.34734 7.27165 6.40382 7.18726 6.475 7.11621C6.56993 7.02099 6.68832 6.95252 6.81819 6.91771C6.94806 6.8829 7.08482 6.88299 7.21465 6.91797L8.36992 5.76269C8.41231 5.72031 8.48203 5.72031 8.52441 5.76269L8.91133 6.14961C8.95371 6.19199 8.95371 6.26172 8.91133 6.3041ZM9.49922 5.5877L9.07402 5.1625C9.05367 5.14194 9.04225 5.11418 9.04225 5.08525C9.04225 5.05632 9.05367 5.02856 9.07402 5.00801L9.84785 4.23418C9.89023 4.1918 9.95996 4.1918 10.0023 4.23418L10.4275 4.65937C10.4699 4.70176 10.4699 4.77148 10.4275 4.81387L9.65371 5.5877C9.63315 5.60805 9.60539 5.61947 9.57647 5.61947C9.54754 5.61947 9.51978 5.60805 9.49922 5.5877ZM11.5664 7.35547V7.95703C11.5664 8.01719 11.5172 8.06641 11.457 8.06641H10.3633C10.3031 8.06641 10.2539 8.01719 10.2539 7.95703V7.35547C10.2539 7.29531 10.3031 7.24609 10.3633 7.24609H11.457C11.5172 7.24609 11.5664 7.29531 11.5664 7.35547Z" fill="#00BF13" fill-opacity="0.1"/>
<path d="M8.52457 5.76269C8.50401 5.74234 8.47625 5.73092 8.44732 5.73092C8.41839 5.73092 8.39063 5.74234 8.37008 5.76269L7.2148 6.91797C6.95914 6.84961 6.67613 6.91523 6.47515 7.11621C6.40396 7.18726 6.34749 7.27165 6.30896 7.36455C6.27042 7.45745 6.25059 7.55704 6.25059 7.65762C6.25059 7.75819 6.27042 7.85778 6.30896 7.95068C6.34749 8.04358 6.40396 8.12797 6.47515 8.19902C6.5462 8.27021 6.63059 8.32668 6.72349 8.36521C6.81639 8.40375 6.91598 8.42358 7.01656 8.42358C7.11713 8.42358 7.21672 8.40375 7.30962 8.36521C7.40252 8.32668 7.48691 8.27021 7.55796 8.19902C7.65318 8.10409 7.72166 7.98571 7.75647 7.85583C7.79127 7.72596 7.79118 7.5892 7.75621 7.45937L8.91148 6.3041C8.95387 6.26172 8.95387 6.19199 8.91148 6.14961L8.52457 5.76269ZM6.69937 4.375H7.30093C7.36109 4.375 7.41031 4.32578 7.41031 4.26562V3.17187C7.41031 3.11172 7.36109 3.0625 7.30093 3.0625H6.69937C6.63921 3.0625 6.58999 3.11172 6.58999 3.17187V4.26562C6.58999 4.32578 6.63921 4.375 6.69937 4.375Z" fill="#00BF13"/>
<path d="M12.6438 5.27187C12.3363 4.54413 11.8906 3.88296 11.3313 3.325C10.7733 2.7657 10.1121 2.31996 9.38438 2.0125C8.62832 1.69258 7.82715 1.53125 7 1.53125C6.17285 1.53125 5.37168 1.69258 4.61563 2.0125C3.88788 2.31996 3.22671 2.7657 2.66875 3.325C2.10945 3.88296 1.66371 4.54413 1.35625 5.27187C1.03633 6.02793 0.875 6.8291 0.875 7.65625C0.875 9.47051 1.67207 11.1795 3.06113 12.3471L3.08438 12.3662C3.16367 12.4318 3.26348 12.4687 3.36602 12.4687H10.6354C10.7379 12.4687 10.8377 12.4318 10.917 12.3662L10.9402 12.3471C12.3279 11.1795 13.125 9.47051 13.125 7.65625C13.125 6.8291 12.9623 6.02793 12.6438 5.27187ZM10.4098 11.4297H3.59023C3.06195 10.9533 2.63972 10.3713 2.35096 9.72118C2.06219 9.0711 1.91334 8.36757 1.91406 7.65625C1.91406 6.29727 2.44316 5.02031 3.4043 4.06055C4.36543 3.09941 5.64238 2.57031 7 2.57031C8.35898 2.57031 9.63594 3.09941 10.5957 4.06055C11.5568 5.02168 12.0859 6.29863 12.0859 7.65625C12.0859 9.1 11.4775 10.4658 10.4098 11.4297Z" fill="#00BF13"/>
<path d="M10.4275 4.65938L10.0023 4.23419C9.98179 4.21384 9.95403 4.20242 9.9251 4.20242C9.89617 4.20242 9.86841 4.21384 9.84785 4.23419L9.07402 5.00802C9.05367 5.02857 9.04225 5.05633 9.04225 5.08526C9.04225 5.11419 9.05367 5.14195 9.07402 5.16251L9.49922 5.5877C9.5416 5.63008 9.61133 5.63008 9.65371 5.5877L10.4275 4.81388C10.4699 4.77149 10.4699 4.70177 10.4275 4.65938ZM10.2539 7.35547V7.95703C10.2539 8.01719 10.3031 8.06641 10.3633 8.06641H11.457C11.5172 8.06641 11.5664 8.01719 11.5664 7.95703V7.35547C11.5664 7.29531 11.5172 7.2461 11.457 7.2461H10.3633C10.3031 7.2461 10.2539 7.29531 10.2539 7.35547ZM4.15762 4.23419C4.13706 4.21384 4.1093 4.20242 4.08037 4.20242C4.05144 4.20242 4.02368 4.21384 4.00312 4.23419L3.57793 4.65938C3.55757 4.67994 3.54616 4.7077 3.54616 4.73663C3.54616 4.76556 3.55757 4.79332 3.57793 4.81388L4.35176 5.5877C4.39414 5.63008 4.46387 5.63008 4.50625 5.5877L4.93145 5.16251C4.97383 5.12013 4.97383 5.0504 4.93145 5.00802L4.15762 4.23419ZM3.58203 7.2461H2.48828C2.42813 7.2461 2.37891 7.29531 2.37891 7.35547V7.95703C2.37891 8.01719 2.42813 8.06641 2.48828 8.06641H3.58203C3.64219 8.06641 3.69141 8.01719 3.69141 7.95703V7.35547C3.69141 7.29531 3.64219 7.2461 3.58203 7.2461Z" fill="#00BF13"/>
</svg>
