<svg width="100" height="59" viewBox="0 0 100 59" fill="none" xmlns="http://www.w3.org/2000/svg">
<path d="M100 0H0V4.21235H100V0Z" fill="#D80031"/>
<path d="M100 4.21094H0V8.42328H100V4.21094Z" fill="white"/>
<path d="M100 8.42578H0V12.6381H100V8.42578Z" fill="#D80031"/>
<path d="M100 12.6523H0V16.8647H100V12.6523Z" fill="white"/>
<path d="M100 16.8633H0V21.0756H100V16.8633Z" fill="#D80031"/>
<path d="M100 21.0742H0V25.2866H100V21.0742Z" fill="white"/>
<path d="M100 25.2891H0V29.5014H100V25.2891Z" fill="#D80031"/>
<path d="M100 29.5H0V33.7123H100V29.5Z" fill="white"/>
<path d="M100 33.7109H0V37.9233H100V33.7109Z" fill="#D80031"/>
<path d="M100 37.9258H0V42.1381H100V37.9258Z" fill="white"/>
<path d="M100 42.1523H0V46.3647H100V42.1523Z" fill="#D80031"/>
<path d="M100 46.3633H0V50.5756H100V46.3633Z" fill="white"/>
<path d="M100 50.5742H0V54.7866H100V50.5742Z" fill="#D80031"/>
<path d="M100 54.7891H0V59.0014H100V54.7891Z" fill="white"/>
<path d="M58.3289 0H0V33.7123H58.3289V0Z" fill="#2530A9"/>
<path d="M15.6234 16.8616C15.6234 10.7469 20.5267 5.80076 26.5584 5.80076C28.654 5.80076 30.6154 6.39864 32.2811 7.43134C30.0646 5.43388 27.1495 4.21094 23.9523 4.21094C17.0608 4.21094 11.459 9.87722 11.459 16.8616C11.459 23.8459 17.0608 29.4986 23.9523 29.4986C27.1495 29.4986 30.0646 28.2892 32.2811 26.2918C30.6154 27.3245 28.654 27.9224 26.5584 27.9224C20.5267 27.9224 15.6234 22.9627 15.6234 16.8616Z" fill="#F5D028"/>
<path d="M40.6235 16.8609L46.6149 14.5101L40.207 15.0264L44.5998 10.2842L39.0517 13.5589L40.9728 7.3627L37.386 12.7436L36.4591 6.31641L35.7874 10.9228L35.5993 12.2545L35.5321 12.7436L31.9319 7.3627L33.8664 13.5589L28.3183 10.2842L32.6976 15.0264L26.3032 14.5101L32.2946 16.8609L26.3032 19.198L32.6976 18.6817L28.3183 23.424L33.8664 20.1492L31.9319 26.3454L35.5321 20.9645L35.5993 21.4537L35.7874 22.7853L36.4591 27.3917L37.386 20.9645L40.9728 26.3454L39.0517 20.1492L44.5998 23.424L40.207 18.6817L46.6149 19.198L40.6235 16.8609Z" fill="#F5D028"/>
</svg>
