<svg width="18" height="18" viewBox="0 0 18 18" fill="none" xmlns="http://www.w3.org/2000/svg">
<path d="M5.82004 9.06375C8.32129 9.06375 10.35 7.035 10.35 4.53375C10.35 2.0325 8.32129 0 5.82004 0C3.31879 0 1.29004 2.02875 1.29004 4.53C1.29004 7.03125 3.31879 9.06375 5.82004 9.06375ZM4.23754 6.3225C4.27879 6.1725 4.32004 6.02625 4.36504 5.87625C4.41754 5.70375 4.46629 5.685 4.62379 5.7675C4.89379 5.90625 5.17879 5.985 5.47879 6.0225C5.67004 6.045 5.86129 6.02625 6.03754 5.9475C6.37129 5.80125 6.42379 5.415 6.14254 5.1825C6.04504 5.10375 5.93629 5.04375 5.82379 4.995C5.53129 4.8675 5.22754 4.77 4.95004 4.605C4.50379 4.33875 4.21879 3.9675 4.25254 3.42375C4.29004 2.80875 4.63879 2.4225 5.20129 2.22C5.43379 2.13375 5.43379 2.1375 5.43754 1.89375C5.43754 1.81125 5.43754 1.72875 5.43754 1.64625C5.44129 1.4625 5.47504 1.4325 5.65504 1.425C5.71129 1.425 5.76754 1.425 5.82379 1.425C6.21379 1.425 6.21379 1.425 6.21379 1.815C6.21379 2.08875 6.21379 2.0925 6.48754 2.13375C6.69754 2.1675 6.89629 2.2275 7.09129 2.31375C7.20004 2.3625 7.23754 2.4375 7.20754 2.55C7.15879 2.71875 7.11379 2.8875 7.05754 3.0525C7.00504 3.21 6.95629 3.2325 6.80629 3.16125C6.50254 3.015 6.18379 2.95125 5.84629 2.97C5.75629 2.97375 5.67379 2.985 5.59129 3.0225C5.30254 3.15 5.25379 3.46875 5.50129 3.6675C5.62504 3.76875 5.76754 3.84 5.91754 3.9C6.17254 4.005 6.43129 4.11 6.67879 4.245C7.45504 4.67625 7.66504 5.65125 7.11754 6.315C6.91879 6.555 6.66379 6.71625 6.36004 6.79875C6.22879 6.83625 6.16879 6.90375 6.17629 7.03875C6.18379 7.17375 6.17629 7.305 6.17629 7.44C6.17629 7.56 6.11629 7.62375 5.99629 7.6275C5.85379 7.63125 5.70754 7.63125 5.56504 7.6275C5.43754 7.62375 5.37754 7.5525 5.37754 7.42875C5.37754 7.33125 5.37754 7.23375 5.37379 7.13625C5.37004 6.9225 5.36629 6.91125 5.15629 6.8775C4.89004 6.83625 4.63129 6.77625 4.38754 6.65625C4.20379 6.57 4.18504 6.52125 4.23754 6.3225Z" fill="white"/>
<path d="M15.9824 9.44166H15.4537C15.1049 8.37291 14.4224 7.42416 13.5112 6.68916C13.5112 6.65541 13.5037 6.61791 13.4962 6.58416C13.3049 5.91291 13.5412 5.30166 13.8149 4.86291C14.0062 4.55541 13.7587 4.16166 13.3987 4.20666C12.5924 4.30791 12.0374 4.60416 11.6549 4.93791C11.3924 5.16666 11.2049 5.47416 11.1224 5.81541C10.5449 8.20791 8.38867 9.98916 5.81992 9.98916C4.57117 9.98916 3.42367 9.56916 2.50492 8.86416C2.18617 9.55416 2.01367 10.3079 2.01367 11.0992C2.01367 11.5267 2.06617 11.9429 2.16367 12.3442C2.16367 12.3442 2.16367 12.3517 2.16742 12.3629C2.26867 12.7792 2.42242 13.1804 2.61742 13.5592C2.87617 14.1179 3.25117 14.7704 3.76867 15.2992C4.51492 16.0679 4.64242 17.0204 4.66117 17.4329V17.6092C4.66117 17.6167 4.66117 17.6242 4.66117 17.6317C4.66117 17.6354 4.66117 17.6354 4.66117 17.6354C4.67617 17.8379 4.84492 17.9992 5.05117 17.9992H7.42117C7.63492 17.9992 7.81117 17.8267 7.81117 17.6092V17.0242C8.15617 17.0692 8.50867 17.0954 8.86492 17.0954C9.14617 17.0954 9.41992 17.0804 9.69367 17.0504V17.6092C9.69367 17.8229 9.86617 17.9992 10.0837 17.9992H12.4612C12.6749 17.9992 12.8512 17.8267 12.8512 17.6092V17.0242C12.8549 16.8292 12.9224 16.0529 13.6574 15.3892C13.6837 15.3667 13.7099 15.3442 13.7362 15.3217C13.7437 15.3142 13.7512 15.3104 13.7587 15.3029C14.5762 14.5754 15.1799 13.6679 15.4912 12.6554H15.9899C16.3874 12.6554 16.7099 12.3329 16.7099 11.9354V10.1617C16.7024 9.76416 16.3799 9.44166 15.9824 9.44166ZM13.0162 9.56916C12.6899 9.56916 12.4274 9.30666 12.4274 8.98041C12.4274 8.65416 12.6899 8.39166 13.0162 8.39166C13.3424 8.39166 13.6049 8.65416 13.6049 8.98041C13.6049 9.30666 13.3424 9.56916 13.0162 9.56916Z" fill="white"/>
</svg>
