<svg width="14" height="14" viewBox="0 0 14 14" fill="none" xmlns="http://www.w3.org/2000/svg">
<path d="M7.53558 0.570312H6.46415C6.36891 0.570312 6.32129 0.617932 6.32129 0.71317V6.32031H1.00028C0.905041 6.32031 0.857422 6.36793 0.857422 6.46317V7.5346C0.857422 7.62984 0.905041 7.67746 1.00028 7.67746H6.32129V13.2846C6.32129 13.3798 6.36891 13.4275 6.46415 13.4275H7.53558C7.63081 13.4275 7.67843 13.3798 7.67843 13.2846V7.67746H13.0003C13.0955 7.67746 13.1431 7.62984 13.1431 7.5346V6.46317C13.1431 6.36793 13.0955 6.32031 13.0003 6.32031H7.67843V0.71317C7.67843 0.617932 7.63081 0.570312 7.53558 0.570312Z" fill="white"/>
</svg>
