<svg width="18" height="18" viewBox="0 0 18 18" fill="none" xmlns="http://www.w3.org/2000/svg">
<path d="M16.152 13.4213H14.7397C14.6432 13.4213 14.5528 13.4635 14.4926 13.5379C14.352 13.7086 14.2013 13.8734 14.0426 14.0301C13.3935 14.6798 12.6246 15.1976 11.7785 15.5548C10.9019 15.9251 9.95977 16.115 9.0082 16.1133C8.04593 16.1133 7.11378 15.9245 6.23789 15.5548C5.39179 15.1976 4.62293 14.6798 3.97383 14.0301C3.32357 13.3825 2.80507 12.615 2.44704 11.77C2.07539 10.8941 1.88856 9.96398 1.88856 9.00171C1.88856 8.03943 2.0774 7.10929 2.44704 6.2334C2.80463 5.38764 3.31892 4.62626 3.97383 3.97336C4.62874 3.32045 5.39012 2.80617 6.23789 2.44858C7.11378 2.07894 8.04593 1.8901 9.0082 1.8901C9.97048 1.8901 10.9026 2.07693 11.7785 2.44858C12.6263 2.80617 13.3877 3.32045 14.0426 3.97336C14.2013 4.13206 14.3499 4.29679 14.4926 4.46554C14.5528 4.53987 14.6453 4.58206 14.7397 4.58206H16.152C16.2785 4.58206 16.3569 4.44144 16.2866 4.33496C14.7457 1.94032 12.0497 0.355276 8.98611 0.363312C4.17271 0.375365 0.313561 4.28273 0.361775 9.0901C0.409989 13.8211 4.26312 17.6401 9.0082 17.6401C12.0638 17.6401 14.7477 16.0571 16.2866 13.6684C16.3549 13.562 16.2785 13.4213 16.152 13.4213ZM17.9379 8.87514L15.0872 6.62514C14.9807 6.54077 14.8261 6.61711 14.8261 6.75171V8.27849H8.51803C8.42963 8.27849 8.35731 8.35081 8.35731 8.43921V9.56421C8.35731 9.6526 8.42963 9.72492 8.51803 9.72492H14.8261V11.2517C14.8261 11.3863 14.9828 11.4626 15.0872 11.3783L17.9379 9.12827C17.9571 9.11323 17.9726 9.09403 17.9833 9.0721C17.994 9.05017 17.9996 9.0261 17.9996 9.00171C17.9996 8.97731 17.994 8.95324 17.9833 8.93131C17.9726 8.90938 17.9571 8.89018 17.9379 8.87514Z" fill="white"/>
</svg>
