<svg width="18" height="18" viewBox="0 0 18 18" fill="none" xmlns="http://www.w3.org/2000/svg">
<path d="M9 2C5.13438 2 2 5.13438 2 9C2 12.8656 5.13438 16 9 16C12.8656 16 16 12.8656 16 9C16 5.13438 12.8656 2 9 2ZM8.5 5.625C8.5 5.55625 8.55625 5.5 8.625 5.5H9.375C9.44375 5.5 9.5 5.55625 9.5 5.625V9.875C9.5 9.94375 9.44375 10 9.375 10H8.625C8.55625 10 8.5 9.94375 8.5 9.875V5.625ZM9 12.5C8.80374 12.496 8.61687 12.4152 8.47948 12.275C8.3421 12.1348 8.26515 11.9463 8.26515 11.75C8.26515 11.5537 8.3421 11.3652 8.47948 11.225C8.61687 11.0848 8.80374 11.004 9 11C9.19626 11.004 9.38313 11.0848 9.52052 11.225C9.6579 11.3652 9.73485 11.5537 9.73485 11.75C9.73485 11.9463 9.6579 12.1348 9.52052 12.275C9.38313 12.4152 9.19626 12.496 9 12.5Z" fill="#01003C"/>
</svg>
