<svg width="16" height="16" viewBox="0 0 16 16" fill="none" xmlns="http://www.w3.org/2000/svg">
<path d="M8 0.666504L13.478 1.88384C13.626 1.91675 13.7584 1.99915 13.8533 2.11744C13.9482 2.23573 14 2.38285 14 2.5345V9.1925C14 9.85099 13.8373 10.4993 13.5266 11.0798C13.2158 11.6604 12.7666 12.1553 12.2187 12.5205L8 15.3332L3.78133 12.5205C3.23352 12.1553 2.78431 11.6606 2.47357 11.0801C2.16282 10.4997 2.00016 9.85155 2 9.19317V2.5345C2.00003 2.38285 2.05176 2.23573 2.14666 2.11744C2.24156 1.99915 2.37396 1.91675 2.522 1.88384L8 0.666504ZM8 4.6665C7.7065 4.66652 7.4212 4.76337 7.18836 4.94205C6.95551 5.12073 6.78812 5.37124 6.71216 5.65474C6.63619 5.93824 6.65589 6.23889 6.76821 6.51005C6.88052 6.78121 7.07916 7.00774 7.33333 7.1545V9.99984H8.66667L8.66733 7.1545C8.92156 7.00771 9.12023 6.78112 9.23253 6.50989C9.34482 6.23866 9.36447 5.93796 9.28842 5.65442C9.21237 5.37088 9.04487 5.12037 8.81192 4.94174C8.57896 4.76312 8.29356 4.66637 8 4.6665Z" fill="black"/>
</svg>
