<?xml version="1.0" encoding="UTF-8"?>
<svg xmlns="http://www.w3.org/2000/svg" xmlns:xlink="http://www.w3.org/1999/xlink" width="32px" height="32px" viewBox="0 0 32 32" version="1.1">
<g id="surface1">
<path style=" stroke:none;fill-rule:nonzero;fill:rgb(96.862745%,57.647059%,10.196078%);fill-opacity:1;" d="M 0 16 C 0 7.164062 7.164062 0 16 0 C 24.835938 0 32 7.164062 32 16 C 32 24.835938 24.835938 32 16 32 C 7.164062 32 0 24.835938 0 16 Z M 0 16 "/>
<path style=" stroke:none;fill-rule:nonzero;fill:rgb(100%,100%,100%);fill-opacity:1;" d="M 23.054688 13.71875 C 23.375 11.589844 21.753906 10.445312 19.535156 9.683594 L 20.257812 6.800781 L 18.5 6.363281 L 17.796875 9.167969 C 17.335938 9.054688 16.863281 8.945312 16.390625 8.839844 L 17.097656 6.011719 L 15.34375 5.574219 L 14.625 8.457031 L 11.082031 7.582031 L 10.617188 9.457031 C 10.617188 9.457031 11.917969 9.753906 11.890625 9.773438 C 12.601562 9.949219 12.730469 10.421875 12.710938 10.792969 L 10.738281 18.695312 C 10.652344 18.910156 10.429688 19.234375 9.933594 19.109375 C 9.953125 19.136719 8.65625 18.792969 8.65625 18.792969 L 7.785156 20.804688 L 11.324219 21.695312 L 10.597656 24.613281 L 12.347656 25.050781 L 13.070312 22.164062 C 13.550781 22.296875 14.011719 22.414062 14.46875 22.527344 L 13.75 25.402344 L 15.507812 25.839844 L 16.234375 22.925781 C 19.226562 23.492188 21.480469 23.265625 22.425781 20.558594 C 23.1875 18.378906 22.386719 17.121094 20.8125 16.300781 C 21.960938 16.035156 22.824219 15.28125 23.054688 13.722656 Z M 19.042969 19.347656 C 18.5 21.527344 14.828125 20.347656 13.640625 20.050781 L 14.601562 16.1875 C 15.792969 16.484375 19.609375 17.070312 19.042969 19.34375 Z M 19.589844 13.691406 C 19.09375 15.671875 16.039062 14.664062 15.046875 14.417969 L 15.917969 10.910156 C 16.910156 11.160156 20.101562 11.621094 19.585938 13.6875 "/>
</g>
</svg>
