<svg width="32" height="32" viewBox="0 0 32 32" fill="none" xmlns="http://www.w3.org/2000/svg">
<path d="M31.5 16C31.5 24.5604 24.5604 31.5 16 31.5C7.43959 31.5 0.5 24.5604 0.5 16C0.5 7.43959 7.43959 0.5 16 0.5C24.5604 0.5 31.5 7.43959 31.5 16Z" fill="#FFBA52" stroke="#FFBA52"/>
<g clip-path="url(#clip0_1201_20837)">
<path d="M15.1035 27.0001C4.06358 20.3486 13.6111 17.2343 21.1865 15.9773L21.858 12.6045C3.48246 15.2597 2.71435 22.9408 15.1035 27.0001Z" fill="#222222"/>
<path d="M6.21551 17.4717C6.21551 17.4717 7.18589 12.498 25.3883 10.0737L26 7C16 8.42138 4.25944 11.2482 6.21551 17.4717Z" fill="#222222"/>
</g>
<defs>
<clipPath id="clip0_1201_20837">
<rect width="20" height="20" fill="white" transform="translate(6 7)"/>
</clipPath>
</defs>
</svg>
