<svg width="49" height="48" viewBox="0 0 49 48" fill="none" xmlns="http://www.w3.org/2000/svg">
<path d="M41.9939 20.9109L41.9845 20.8734L36.7252 7.50937C36.4908 6.75469 35.7923 6.23438 35.0002 6.23438H13.6814C12.8845 6.23438 12.1767 6.76406 11.9517 7.52813L7.03453 20.7562L7.02047 20.7891L7.01109 20.8266C6.95016 21.0562 6.93141 21.2906 6.96422 21.5203C6.95953 21.5953 6.95484 21.6703 6.95484 21.7453V38.8969C6.95608 39.6524 7.25675 40.3765 7.79096 40.9108C8.32517 41.445 9.04936 41.7456 9.80484 41.7469H39.2048C40.7752 41.7469 42.0548 40.4672 42.0595 38.8969V21.7453C42.0595 21.6844 42.0595 21.6234 42.0548 21.5719C42.0736 21.3422 42.0548 21.1219 41.9939 20.9109ZM28.1283 18.8953L28.1142 19.6312C28.0767 21.7359 26.6236 23.1516 24.5002 23.1516C23.4642 23.1516 22.5736 22.8187 21.9314 22.1859C21.2892 21.5531 20.9377 20.6719 20.9189 19.6312L20.9048 18.8953H11.258L14.9845 9.83437H33.697L37.5267 18.8953H28.1283ZM10.5502 22.4953H17.9236C19.0627 25.1719 21.4861 26.7516 24.5048 26.7516C26.0845 26.7516 27.5517 26.3109 28.7377 25.4766C29.7783 24.7453 30.5892 23.7234 31.1142 22.4953H38.4502V38.1469H10.5502V22.4953Z" fill="#F7B656"/>
</svg>
