<svg width="14" height="12" viewBox="0 0 14 12" fill="none" xmlns="http://www.w3.org/2000/svg">
<path d="M13.0563 2.31995L10.0157 4.19339L7.1001 0.304323C7.08837 0.28867 7.07315 0.275965 7.05566 0.267214C7.03817 0.258462 7.01887 0.253906 6.99931 0.253906C6.97975 0.253906 6.96046 0.258462 6.94297 0.267214C6.92548 0.275965 6.91026 0.28867 6.89853 0.304323L3.98447 4.19339L0.942283 2.31995C0.853221 2.26526 0.737596 2.3387 0.751658 2.44339L1.94541 11.5153C1.9626 11.6387 2.06885 11.734 2.19541 11.734H11.8063C11.9313 11.734 12.0392 11.6403 12.0548 11.5153L13.2485 2.44339C13.261 2.3387 13.147 2.26526 13.0563 2.31995ZM7.0001 9.47152C6.02978 9.47152 5.24072 8.68245 5.24072 7.71214C5.24072 6.74183 6.02978 5.95277 7.0001 5.95277C7.97041 5.95277 8.75947 6.74183 8.75947 7.71214C8.75947 8.68245 7.97041 9.47152 7.0001 9.47152ZM7.0001 6.95745C6.58447 6.95745 6.24697 7.29495 6.24697 7.71214C6.24697 8.12777 6.58447 8.46683 7.0001 8.46683C7.41572 8.46683 7.75322 8.12933 7.75322 7.71214C7.75322 7.29652 7.41572 6.95745 7.0001 6.95745Z" fill="white"/>
</svg>
