<svg width="24" height="24" viewBox="0 0 24 24" fill="none" xmlns="http://www.w3.org/2000/svg">
<path d="M18.272 15.7758C17.7692 15.2726 17.1816 14.8618 16.5363 14.5624C17.4463 13.8251 18.0269 12.7001 18.0269 11.4385C18.0269 9.21264 16.1707 7.38652 13.9448 7.42067C11.753 7.45482 9.98717 9.24076 9.98717 11.4385C9.98717 12.7001 10.5698 13.8251 11.4778 14.5624C10.8323 14.8616 10.2448 15.2724 9.74208 15.7758C8.64521 16.8747 8.02244 18.3251 7.98226 19.872C7.98173 19.8935 7.98549 19.9148 7.99332 19.9347C8.00116 19.9547 8.01291 19.9729 8.02789 19.9883C8.04287 20.0036 8.06077 20.0158 8.08053 20.0241C8.1003 20.0325 8.12153 20.0367 8.14298 20.0367H9.26798C9.35436 20.0367 9.42668 19.9684 9.42869 19.8821C9.46686 18.7169 9.93896 17.626 10.7686 16.7984C11.1932 16.3715 11.6982 16.0331 12.2544 15.8028C12.8106 15.5725 13.407 15.4547 14.009 15.4564C15.2325 15.4564 16.3836 15.9325 17.2494 16.7984C18.0771 17.626 18.5492 18.7169 18.5894 19.8821C18.5914 19.9684 18.6637 20.0367 18.7501 20.0367H19.8751C19.8966 20.0367 19.9178 20.0325 19.9376 20.0241C19.9573 20.0158 19.9752 20.0036 19.9902 19.9883C20.0052 19.9729 20.0169 19.9547 20.0248 19.9347C20.0326 19.9148 20.0364 19.8935 20.0358 19.872C19.9957 18.3251 19.3729 16.8747 18.272 15.7758ZM14.009 14.01C13.322 14.01 12.6751 13.7428 12.191 13.2566C11.948 13.0156 11.7561 12.728 11.6266 12.4112C11.4972 12.0943 11.4329 11.7546 11.4376 11.4124C11.4436 10.7535 11.7068 10.1167 12.1669 9.64456C12.649 9.15036 13.2939 8.87514 13.9829 8.8671C14.664 8.86107 15.3249 9.12625 15.8111 9.60237C16.3093 10.0905 16.5825 10.7434 16.5825 11.4385C16.5825 12.1256 16.3153 12.7704 15.8291 13.2566C15.5906 13.4963 15.307 13.6862 14.9945 13.8156C14.6821 13.9449 14.3472 14.0109 14.009 14.01ZM8.97668 11.9689C8.9586 11.7941 8.94856 11.6173 8.94856 11.4385C8.94856 11.1191 8.97869 10.8077 9.03494 10.5044C9.049 10.4321 9.01083 10.3577 8.94454 10.3276C8.67132 10.205 8.42021 10.0363 8.20324 9.82335C7.94759 9.57546 7.74641 9.27701 7.61255 8.94702C7.47869 8.61704 7.41508 8.26277 7.42579 7.90683C7.44387 7.26197 7.70302 6.64924 8.15503 6.18719C8.65124 5.67893 9.3182 5.4017 10.0274 5.40973C10.6682 5.41576 11.2869 5.66286 11.755 6.10081C11.9137 6.24947 12.0503 6.4142 12.1649 6.59098C12.205 6.65326 12.2834 6.67938 12.3517 6.65527C12.7053 6.53273 13.0789 6.44634 13.4626 6.40616C13.5751 6.39411 13.6394 6.27357 13.5892 6.17313C12.9363 4.88139 11.6024 3.98942 10.0595 3.96532C7.83159 3.93116 5.97534 5.75728 5.97534 7.98116C5.97534 9.24277 6.55592 10.3678 7.46597 11.105C6.82713 11.4004 6.23851 11.8082 5.72824 12.3184C4.62735 13.4173 4.00458 14.8678 3.96441 16.4167C3.96387 16.4381 3.96763 16.4594 3.97547 16.4794C3.9833 16.4994 3.99506 16.5176 4.01003 16.5329C4.02501 16.5483 4.04291 16.5605 4.06267 16.5688C4.08244 16.5771 4.10367 16.5814 4.12512 16.5814H5.25213C5.33851 16.5814 5.41083 16.5131 5.41284 16.4267C5.45101 15.2615 5.92311 14.1707 6.7528 13.343C7.34342 12.7524 8.06664 12.3425 8.85615 12.1437C8.93449 12.1236 8.98673 12.0492 8.97668 11.9689Z" fill="white"/>
</svg>
