<svg width="101" height="59" viewBox="0 0 101 59" fill="none" xmlns="http://www.w3.org/2000/svg">
<path d="M100.5 0H0.5V59H100.5V0Z" fill="#CB1D23"/>
<path d="M10.1185 20.9988L11.9992 15.2015L7.05566 11.6215L13.1814 11.6082L15.089 5.82422L16.9831 11.6082L23.1089 11.6215L18.1653 15.2148L20.0326 20.9988L15.0755 17.4322L10.1185 20.9988Z" fill="#F7DE29"/>
<path d="M27.1791 24.1261L29.2344 24.9543L30.6718 23.2578L30.524 25.4619L32.5794 26.3034L30.43 26.8377L30.2688 29.0418L29.0866 27.1717L26.9238 27.706L28.3478 26.0095L27.1791 24.1261Z" fill="#F7DE29"/>
<path d="M38.3426 12.9958L36.1529 12.6218L35.1051 14.572L34.7961 12.3813L32.6064 11.9939L34.5946 11.0188L34.2991 8.82812L35.844 10.4177L37.8456 9.44259L36.8112 11.4062L38.3426 12.9958Z" fill="#F7DE29"/>
<path d="M33.6946 22.9074L34.3797 20.8102L32.5796 19.5012H34.8096L35.4947 17.3906L36.1932 19.5012H38.4098L36.6231 20.8102L37.2948 22.9074L35.4947 21.6117L33.6946 22.9074Z" fill="#F7DE29"/>
<path d="M27.2866 3.68516L29.3016 4.62021L30.8196 3.00391L30.5509 5.1946L32.566 6.14301L30.3897 6.57046L30.1076 8.76116L29.0329 6.82426L26.8433 7.23836L28.3613 5.62205L27.2866 3.68516Z" fill="#F7DE29"/>
</svg>
