<svg width="18" height="18" viewBox="0 0 18 18" fill="none" xmlns="http://www.w3.org/2000/svg">
<g clip-path="url(#clip0_1328_18327)">
<path d="M16.9553 11.5714H14.866V8.51786C14.866 8.42946 14.7937 8.35714 14.7053 8.35714H9.72314V6.42857H11.8928C12.0696 6.42857 12.2142 6.28393 12.2142 6.10714V0.321429C12.2142 0.144643 12.0696 0 11.8928 0H6.10707C5.93029 0 5.78564 0.144643 5.78564 0.321429V6.10714C5.78564 6.28393 5.93029 6.42857 6.10707 6.42857H8.27672V8.35714H3.29457C3.20618 8.35714 3.13386 8.42946 3.13386 8.51786V11.5714H1.04457C0.867787 11.5714 0.723145 11.7161 0.723145 11.8929V17.6786C0.723145 17.8554 0.867787 18 1.04457 18H6.83029C7.00707 18 7.15172 17.8554 7.15172 17.6786V11.8929C7.15172 11.7161 7.00707 11.5714 6.83029 11.5714H4.58029V9.80357H13.4196V11.5714H11.1696C10.9928 11.5714 10.8481 11.7161 10.8481 11.8929V17.6786C10.8481 17.8554 10.9928 18 11.1696 18H16.9553C17.1321 18 17.2767 17.8554 17.2767 17.6786V11.8929C17.2767 11.7161 17.1321 11.5714 16.9553 11.5714ZM5.62493 13.0982V16.4732H2.24993V13.0982H5.62493ZM7.31243 4.90179V1.52679H10.6874V4.90179H7.31243ZM15.7499 16.4732H12.3749V13.0982H15.7499V16.4732Z" fill="white"/>
</g>
<defs>
<clipPath id="clip0_1328_18327">
<rect width="18" height="18" fill="white"/>
</clipPath>
</defs>
</svg>
