<svg width="32" height="32" viewBox="0 0 32 32" fill="none" xmlns="http://www.w3.org/2000/svg">
<circle cx="16" cy="16" r="16" fill="#737373"/>
<path d="M14.1732 15.0567C16.3965 15.0567 18.1998 13.2533 18.1998 11.03C18.1998 8.80667 16.3965 7 14.1732 7C11.9498 7 10.1465 8.80333 10.1465 11.0267C10.1465 13.25 11.9498 15.0567 14.1732 15.0567ZM12.7665 12.62C12.8032 12.4867 12.8398 12.3567 12.8798 12.2233C12.9265 12.07 12.9698 12.0533 13.1098 12.1267C13.3498 12.25 13.6032 12.32 13.8698 12.3533C14.0398 12.3733 14.2098 12.3567 14.3665 12.2867C14.6632 12.1567 14.7098 11.8133 14.4598 11.6067C14.3732 11.5367 14.2765 11.4833 14.1765 11.44C13.9165 11.3267 13.6465 11.24 13.3998 11.0933C13.0032 10.8567 12.7498 10.5267 12.7798 10.0433C12.8132 9.49667 13.1232 9.15333 13.6232 8.97333C13.8298 8.89667 13.8298 8.9 13.8332 8.68333C13.8332 8.61 13.8332 8.53667 13.8332 8.46333C13.8365 8.3 13.8665 8.27333 14.0265 8.26667C14.0765 8.26667 14.1265 8.26667 14.1765 8.26667C14.5232 8.26667 14.5232 8.26667 14.5232 8.61333C14.5232 8.85667 14.5232 8.86 14.7665 8.89667C14.9532 8.92667 15.1298 8.98 15.3032 9.05667C15.3998 9.1 15.4332 9.16667 15.4065 9.26667C15.3632 9.41667 15.3232 9.56667 15.2732 9.71333C15.2265 9.85333 15.1832 9.87333 15.0498 9.81C14.7798 9.68 14.4965 9.62333 14.1965 9.64C14.1165 9.64333 14.0432 9.65333 13.9698 9.68667C13.7132 9.8 13.6698 10.0833 13.8898 10.26C13.9998 10.35 14.1265 10.4133 14.2598 10.4667C14.4865 10.56 14.7165 10.6533 14.9365 10.7733C15.6265 11.1567 15.8132 12.0233 15.3265 12.6133C15.1498 12.8267 14.9232 12.97 14.6532 13.0433C14.5365 13.0767 14.4832 13.1367 14.4898 13.2567C14.4965 13.3767 14.4898 13.4933 14.4898 13.6133C14.4898 13.72 14.4365 13.7767 14.3298 13.78C14.2032 13.7833 14.0732 13.7833 13.9465 13.78C13.8332 13.7767 13.7798 13.7133 13.7798 13.6033C13.7798 13.5167 13.7798 13.43 13.7765 13.3433C13.7732 13.1533 13.7698 13.1433 13.5832 13.1133C13.3465 13.0767 13.1165 13.0233 12.8998 12.9167C12.7365 12.84 12.7198 12.7967 12.7665 12.62Z" fill="white"/>
<path d="M23.2067 15.3948H22.7367C22.4267 14.4448 21.82 13.6014 21.01 12.9481C21.01 12.9181 21.0034 12.8848 20.9967 12.8548C20.8267 12.2581 21.0367 11.7148 21.28 11.3248C21.45 11.0514 21.23 10.7014 20.91 10.7414C20.1934 10.8314 19.7 11.0948 19.36 11.3914C19.1267 11.5948 18.96 11.8681 18.8867 12.1714C18.3734 14.2981 16.4567 15.8814 14.1734 15.8814C13.0634 15.8814 12.0434 15.5081 11.2267 14.8814C10.9434 15.4948 10.79 16.1648 10.79 16.8681C10.79 17.2481 10.8367 17.6181 10.9234 17.9748C10.9234 17.9748 10.9234 17.9814 10.9267 17.9914C11.0167 18.3614 11.1534 18.7181 11.3267 19.0548C11.5567 19.5514 11.89 20.1314 12.35 20.6014C13.0134 21.2848 13.1267 22.1314 13.1434 22.4981V22.6548C13.1434 22.6614 13.1434 22.6681 13.1434 22.6748C13.1434 22.6781 13.1434 22.6781 13.1434 22.6781C13.1567 22.8581 13.3067 23.0014 13.49 23.0014H15.5967C15.7867 23.0014 15.9434 22.8481 15.9434 22.6548V22.1348C16.25 22.1748 16.5634 22.1981 16.88 22.1981C17.13 22.1981 17.3734 22.1848 17.6167 22.1581V22.6548C17.6167 22.8448 17.77 23.0014 17.9634 23.0014H20.0767C20.2667 23.0014 20.4234 22.8481 20.4234 22.6548V22.1348C20.4267 21.9614 20.4867 21.2714 21.14 20.6814C21.1634 20.6614 21.1867 20.6414 21.21 20.6214C21.2167 20.6148 21.2234 20.6114 21.23 20.6048C21.9567 19.9581 22.4934 19.1514 22.77 18.2514H23.2134C23.5667 18.2514 23.8534 17.9648 23.8534 17.6114V16.0348C23.8467 15.6814 23.56 15.3948 23.2067 15.3948ZM20.57 15.5081C20.28 15.5081 20.0467 15.2748 20.0467 14.9848C20.0467 14.6948 20.28 14.4614 20.57 14.4614C20.86 14.4614 21.0934 14.6948 21.0934 14.9848C21.0934 15.2748 20.86 15.5081 20.57 15.5081Z" fill="white"/>
</svg>
