<svg width="25" height="24" viewBox="0 0 25 24" fill="none" xmlns="http://www.w3.org/2000/svg">
<g clip-path="url(#clip0_1260_5795)">
<path d="M23.5901 2.67773H1.30441C0.830301 2.67773 0.447266 3.06077 0.447266 3.53488V20.6777C0.447266 21.1518 0.830301 21.5349 1.30441 21.5349H23.5901C24.0642 21.5349 24.4473 21.1518 24.4473 20.6777V3.53488C24.4473 3.06077 24.0642 2.67773 23.5901 2.67773ZM22.5187 19.6063H2.37584V4.60631H22.5187V19.6063ZM4.86959 17.4018C4.95262 17.4849 5.08923 17.4849 5.17227 17.4018L9.7928 12.7813L12.8571 15.8483C12.9401 15.9313 13.0767 15.9313 13.1598 15.8483L21.1151 7.88756C21.1982 7.80452 21.1982 7.66791 21.1151 7.58488L20.1294 6.59916C20.0891 6.55928 20.0347 6.53691 19.9781 6.53691C19.9214 6.53691 19.867 6.55928 19.8267 6.59916L13.0098 13.4188L9.94548 10.3518C9.90521 10.312 9.85082 10.2896 9.79414 10.2896C9.73746 10.2896 9.68308 10.312 9.6428 10.3518L3.88655 16.1108C3.84667 16.151 3.8243 16.2054 3.8243 16.2621C3.8243 16.3188 3.84667 16.3732 3.88655 16.4135L4.86959 17.4018V17.4018Z" fill="#FFBA52"/>
</g>
<defs>
<clipPath id="clip0_1260_5795">
<rect width="24" height="24" fill="white" transform="translate(0.5)"/>
</clipPath>
</defs>
</svg>
