<svg width="20" height="20" viewBox="0 0 20 20" fill="none" xmlns="http://www.w3.org/2000/svg">
<circle cx="10" cy="10" r="10" fill="white" fill-opacity="0.5"/>
<circle cx="10" cy="10" r="7" fill="#42C178"/>
<path d="M12.2499 7.93689C12.1249 7.66367 11.9472 7.41814 11.7204 7.20831C11.2597 6.78064 10.6481 6.54492 9.9999 6.54492C9.35168 6.54492 8.74007 6.78064 8.27936 7.20742C8.05257 7.41814 7.8749 7.66278 7.7499 7.93689C7.61954 8.2226 7.55347 8.52528 7.55347 8.83778V9.07885C7.55347 9.13421 7.59811 9.17885 7.65347 9.17885H8.13561C8.19097 9.17885 8.23561 9.13421 8.23561 9.07885V8.83778C8.23561 7.94939 9.02668 7.22706 9.9999 7.22706C10.9731 7.22706 11.7642 7.94939 11.7642 8.83778C11.7642 9.20206 11.6347 9.54492 11.3892 9.83064C11.1463 10.1137 10.8035 10.3164 10.424 10.4021C10.207 10.4512 10.0115 10.5735 9.87311 10.7485C9.7352 10.9229 9.66003 11.1387 9.65972 11.361V11.6414C9.65972 11.6967 9.70436 11.7414 9.75972 11.7414H10.2419C10.2972 11.7414 10.3419 11.6967 10.3419 11.6414V11.361C10.3419 11.2208 10.4392 11.0976 10.574 11.0672C11.0954 10.9494 11.5686 10.6681 11.907 10.2753C12.0776 10.0762 12.2106 9.85474 12.3026 9.61456C12.3981 9.36546 12.4463 9.10385 12.4463 8.83778C12.4463 8.52528 12.3803 8.22171 12.2499 7.93689V7.93689ZM9.9999 12.4556C9.724 12.4556 9.4999 12.6797 9.4999 12.9556C9.4999 13.2315 9.724 13.4556 9.9999 13.4556C10.2758 13.4556 10.4999 13.2315 10.4999 12.9556C10.4999 12.6797 10.2758 12.4556 9.9999 12.4556Z" fill="white"/>
</svg>
