<svg width="18" height="18" viewBox="0 0 18 18" fill="none" xmlns="http://www.w3.org/2000/svg">
<path d="M17.2928 11.2872L15.9769 10.1622C16.0392 9.78047 16.0713 9.39074 16.0713 9.001C16.0713 8.61127 16.0392 8.22154 15.9769 7.83984L17.2928 6.71484C17.392 6.62988 17.463 6.51671 17.4964 6.3904C17.5298 6.26408 17.5239 6.1306 17.4796 6.0077L17.4615 5.95547C17.0993 4.94302 16.5568 4.00447 15.8604 3.18516L15.8242 3.14297C15.7398 3.04363 15.6272 2.97222 15.5013 2.93815C15.3754 2.90408 15.2422 2.90895 15.1191 2.95212L13.4858 3.5327C12.8832 3.0385 12.2102 2.64877 11.4829 2.37556L11.1675 0.667969C11.1437 0.539482 11.0814 0.421277 10.9888 0.329058C10.8963 0.236839 10.7778 0.174971 10.6492 0.151674L10.595 0.141629C9.54834 -0.0472098 8.44745 -0.0472098 7.4008 0.141629L7.34656 0.151674C7.21798 0.174971 7.09953 0.236839 7.00696 0.329058C6.91438 0.421277 6.85205 0.539482 6.82825 0.667969L6.51084 2.38359C5.78941 2.65686 5.11759 3.04639 4.52201 3.53672L2.87669 2.95212C2.75368 2.90861 2.62033 2.90357 2.49438 2.93766C2.36843 2.97174 2.25584 3.04335 2.17156 3.14297L2.1354 3.18516C1.4398 4.00505 0.897447 4.94344 0.534281 5.95547L0.516201 6.0077C0.425799 6.25882 0.50013 6.54007 0.703031 6.71484L2.03495 7.8519C1.97267 8.22958 1.94254 8.61529 1.94254 8.99899C1.94254 9.38471 1.97267 9.77042 2.03495 10.1461L0.703031 11.2831C0.603782 11.3681 0.532747 11.4813 0.499374 11.6076C0.466001 11.7339 0.47187 11.8674 0.516201 11.9903L0.534281 12.0425C0.897897 13.055 1.43629 13.9892 2.1354 14.8128L2.17156 14.855C2.25604 14.9544 2.36864 15.0258 2.49452 15.0598C2.62039 15.0939 2.75364 15.089 2.87669 15.0459L4.52201 14.4613C5.12067 14.9535 5.78964 15.3432 6.51084 15.6144L6.82825 17.33C6.85205 17.4585 6.91438 17.5767 7.00696 17.6689C7.09953 17.7612 7.21798 17.823 7.34656 17.8463L7.4008 17.8564C8.45707 18.0462 9.53873 18.0462 10.595 17.8564L10.6492 17.8463C10.7778 17.823 10.8963 17.7612 10.9888 17.6689C11.0814 17.5767 11.1437 17.4585 11.1675 17.33L11.4829 15.6224C12.2099 15.3499 12.8867 14.9589 13.4858 14.4653L15.1191 15.0459C15.2421 15.0894 15.3755 15.0944 15.5014 15.0603C15.6274 15.0262 15.74 14.9546 15.8242 14.855L15.8604 14.8128C16.5595 13.9872 17.0979 13.055 17.4615 12.0425L17.4796 11.9903C17.57 11.7432 17.4957 11.4619 17.2928 11.2872ZM14.5506 8.0769C14.6008 8.38025 14.6269 8.69163 14.6269 9.00301C14.6269 9.3144 14.6008 9.62578 14.5506 9.92913L14.418 10.7347L15.9187 12.0184C15.6912 12.5425 15.404 13.0387 15.0629 13.497L13.1986 12.836L12.5678 13.3544C12.0876 13.7481 11.5533 14.0575 10.9747 14.2744L10.2093 14.5617L9.84968 16.5104C9.2823 16.5747 8.70947 16.5747 8.14209 16.5104L7.7825 14.5577L7.02312 14.2664C6.45058 14.0494 5.91821 13.7401 5.44209 13.3483L4.81129 12.828L2.93495 13.495C2.59343 13.0349 2.30817 12.5387 2.07915 12.0164L3.59589 10.7206L3.46531 9.91708C3.41709 9.61775 3.39098 9.30837 3.39098 9.00301C3.39098 8.69565 3.41509 8.38828 3.46531 8.08895L3.59589 7.28538L2.07915 5.98962C2.30616 5.46529 2.59343 4.97109 2.93495 4.51105L4.81129 5.17801L5.44209 4.6577C5.91821 4.26596 6.45058 3.95658 7.02312 3.73962L7.7845 3.45234L8.1441 1.49967C8.70861 1.43538 9.28517 1.43538 9.85169 1.49967L10.2113 3.44833L10.9767 3.7356C11.5533 3.95257 12.0896 4.26194 12.5698 4.65569L13.2006 5.174L15.0649 4.51306C15.4064 4.9731 15.6916 5.46931 15.9207 5.99163L14.42 7.27533L14.5506 8.0769ZM8.99991 5.26641C7.04723 5.26641 5.46419 6.84944 5.46419 8.80212C5.46419 10.7548 7.04723 12.3378 8.99991 12.3378C10.9526 12.3378 12.5356 10.7548 12.5356 8.80212C12.5356 6.84944 10.9526 5.26641 8.99991 5.26641ZM10.591 10.3932C10.3823 10.6025 10.1343 10.7684 9.86123 10.8815C9.58818 10.9946 9.29545 11.0526 8.99991 11.0521C8.39924 11.0521 7.83473 10.8171 7.40883 10.3932C7.19955 10.1845 7.03359 9.9365 6.92051 9.66345C6.80743 9.39039 6.74945 9.09767 6.74991 8.80212C6.74991 8.20145 6.98495 7.63694 7.40883 7.21105C7.83473 6.78516 8.39924 6.55212 8.99991 6.55212C9.60058 6.55212 10.1651 6.78516 10.591 7.21105C10.8003 7.41973 10.9662 7.66774 11.0793 7.94079C11.1924 8.21385 11.2504 8.50657 11.2499 8.80212C11.2499 9.40279 11.0149 9.9673 10.591 10.3932Z" fill="white"/>
</svg>
