<svg width="40" height="23" viewBox="0 0 40 23" fill="none" xmlns="http://www.w3.org/2000/svg">
<path d="M40 0H0V23H40V0Z" fill="white"/>
<path d="M26.7813 8.31644L40 1.02234V0H39.0865L24.0193 8.31644H26.7813Z" fill="#BD0034"/>
<path d="M26.158 15.1484L40 22.7816V21.256L28.9253 15.1484H26.158Z" fill="#BD0034"/>
<path d="M0 1.75352L11.8377 8.31662H14.605L0 0.222656V1.75352Z" fill="#BD0034"/>
<path d="M13.9817 15.1484L0 22.8663V22.9987H2.52552L16.7437 15.1484H13.9817Z" fill="#BD0034"/>
<path d="M37.2649 0H23.2563V7.73376L37.2649 0Z" fill="#1A237B"/>
<path d="M17.0715 0H3.12198L17.0715 7.73376V0Z" fill="#1A237B"/>
<path d="M40 8.31497V3.03906L30.4997 8.31497H40Z" fill="#1A237B"/>
<path d="M40 20.3661V15.1484H30.4997L40 20.3661Z" fill="#1A237B"/>
<path d="M3.91725 22.9981H17.0715V15.7305L3.91725 22.9981Z" fill="#1A237B"/>
<path d="M23.2563 22.9981H36.4535L23.2563 15.7305V22.9981Z" fill="#1A237B"/>
<path d="M0 15.1484V20.5992L9.83342 15.1484H0Z" fill="#1A237B"/>
<path d="M0 8.31817H9.83342L0 2.85156V8.31817Z" fill="#1A237B"/>
<path d="M18.3074 0V9.6831H0V13.783H18.3074V23H22.0204V13.783H40V9.6831H22.0204V0H18.3074Z" fill="#BD0034"/>
</svg>
