<svg width="101" height="59" viewBox="0 0 101 59" fill="none" xmlns="http://www.w3.org/2000/svg">
<path d="M100.5 0.00390625H0.5V29.5039H100.5V0.00390625Z" fill="#2534A4"/>
<path d="M100.5 29.5078H0.5V59.0078H100.5V29.5078Z" fill="#BC0030"/>
<path d="M0.5 0.00390625V59.0039L51.2657 29.5039L0.5 0.00390625Z" fill="white"/>
<path d="M7.36441 53.3362L5.10756 51.9909L3.17312 53.7846L3.7239 51.2028L1.45361 49.8848L4.05974 49.6266L4.58365 47.0312L5.63147 49.4499L8.22417 49.1646L6.27629 50.9175L7.36441 53.3362Z" fill="#F3D02F"/>
<path d="M14.2022 24.1681L12.2946 20.8662L11.2065 20.7439L13.8126 24.4806L14.2022 24.1681ZM12.7245 25.6764L8.73468 22.5647L8.58691 20.7575L10.199 20.7031L13.5036 24.7932L12.7245 25.6764ZM12.12 26.3966L8.82872 24.5214L8.69438 23.4208L12.4289 26.0025L12.12 26.3966Z" fill="#F3D02F"/>
<path d="M18.9039 23.4858L19.898 19.8034L19.2128 18.9202L18.4068 23.4179L18.9039 23.4858ZM16.7948 23.4858L16.1768 18.431L17.3456 17.0586L18.5143 18.1864L17.9501 23.4315L16.7948 23.4858ZM15.8679 23.5538L14.8872 19.8714L15.5723 19.0017L16.3649 23.4994L15.8679 23.5538Z" fill="#F3D02F"/>
<path d="M22.7053 26.4637L26.0234 24.6293L26.1712 23.5286L22.4097 26.056L22.7053 26.4637ZM21.2545 24.9282L24.4382 20.974L26.2249 20.8789L26.2383 22.5095L22.1142 25.7435L21.2545 24.9282ZM20.5693 24.3031L22.5172 21.0284L23.6053 20.9197L20.9589 24.6293L20.5693 24.3031Z" fill="#F3D02F"/>
<path d="M23.2974 31.0805L26.9379 32.0861L27.8111 31.4067L23.3646 30.5914L23.2974 31.0805ZM23.3108 28.9472L28.3081 28.3357L29.6649 29.5179L28.5499 30.7001L23.3646 30.1294L23.3108 28.9472ZM23.2437 28.0232L26.8842 27.0312L27.7439 27.7242L23.2974 28.526L23.2437 28.0232Z" fill="#F3D02F"/>
<path d="M20.5298 34.8261L22.4374 38.1145L23.5255 38.2368L20.9194 34.5136L20.5298 34.8261ZM21.9941 33.3042L26.0107 36.3888L26.1585 38.196L24.5464 38.2639L21.2283 34.1875L21.9941 33.3042ZM22.5986 32.5977L25.8898 34.4592L26.0376 35.5599L22.303 32.9917L22.5986 32.5977Z" fill="#F3D02F"/>
<path d="M15.8412 35.5386L14.874 39.2346L15.5591 40.1042L16.3383 35.5929L15.8412 35.5386ZM17.9369 35.525L18.5817 40.5798L17.413 41.9658L16.2308 40.8515L16.7547 35.5929L17.9369 35.525ZM18.8638 35.457L19.8713 39.1394L19.1997 40.0227L18.3668 35.525L18.8638 35.457Z" fill="#F3D02F"/>
<path d="M12.0396 32.6445L8.7618 34.5333L8.62746 35.6339L12.3486 33.0386L12.0396 32.6445ZM13.5173 34.1528L10.4007 38.1613L8.61403 38.2836L8.57373 36.6531L12.6441 33.3511L13.5173 34.1528ZM14.2159 34.7643L12.3217 38.0798L11.2336 38.2021L13.8263 34.4518L14.2159 34.7643Z" fill="#F3D02F"/>
<path d="M11.3946 27.9823L7.74069 27.0039L6.88094 27.6969L11.3275 28.485L11.3946 27.9823ZM11.4081 30.102L6.41076 30.7542L5.04053 29.5721L6.14209 28.3763L11.3275 28.9063L11.4081 30.102ZM11.4752 31.0396L7.83472 32.0587L6.96154 31.3793L11.4081 30.5368L11.4752 31.0396Z" fill="#F3D02F"/>
<path d="M17.3455 23.2852C20.7442 23.2852 23.4981 26.0707 23.4981 29.5086C23.4981 32.9464 20.7442 35.732 17.3455 35.732C13.9468 35.732 11.1929 32.9464 11.1929 29.5086C11.1929 26.0707 13.9468 23.2852 17.3455 23.2852Z" fill="#F3D02F"/>
<path d="M38.5166 31.6415L40.0615 29.5081L38.5166 27.3884L41.0018 28.2172L42.5198 26.0703L42.5064 28.7064L44.9916 29.5081L42.5064 30.3098L42.5333 32.9595L41.0018 30.8126L38.5166 31.6415Z" fill="#F3D02F"/>
<path d="M7.36441 5.03435L5.10756 6.36599L3.17312 4.58594L3.7239 7.1677L1.45361 8.47217L4.05974 8.74393L4.58365 11.3257L5.63147 8.90699L8.22417 9.20593L6.27629 7.43946L7.36441 5.03435Z" fill="#F3D02F"/>
</svg>
