<svg width="15" height="16" viewBox="0 0 15 16" fill="none" xmlns="http://www.w3.org/2000/svg">
<path d="M4.78544 2.14118H4.64258C4.72115 2.14118 4.78544 2.0769 4.78544 1.99833V2.14118H10.214V1.99833C10.214 2.0769 10.2783 2.14118 10.3569 2.14118H10.214V3.4269H11.4997V1.99833C11.4997 1.36797 10.9872 0.855469 10.3569 0.855469H4.64258C4.01222 0.855469 3.49972 1.36797 3.49972 1.99833V3.4269H4.78544V2.14118ZM13.7854 3.4269H1.21401C0.897935 3.4269 0.642578 3.68225 0.642578 3.99833V4.56976C0.642578 4.64833 0.706864 4.71261 0.785435 4.71261H1.86401L2.30508 14.0519C2.33365 14.6608 2.83722 15.1412 3.44615 15.1412H11.5533C12.164 15.1412 12.6658 14.6626 12.6944 14.0519L13.1354 4.71261H14.214C14.2926 4.71261 14.3569 4.64833 14.3569 4.56976V3.99833C14.3569 3.68225 14.1015 3.4269 13.7854 3.4269ZM11.4158 13.8555H3.58365L3.15151 4.71261H11.8479L11.4158 13.8555Z" fill="white"/>
</svg>
