<svg width="28" height="26" viewBox="0 0 28 26" fill="none" xmlns="http://www.w3.org/2000/svg">
<path d="M26.3784 9.03673L18.4441 7.88361L14.8972 0.69298C14.8003 0.496105 14.6409 0.33673 14.4441 0.239855C13.9503 -0.00389467 13.3503 0.19923 13.1034 0.69298L9.55655 7.88361L1.62218 9.03673C1.40343 9.06798 1.20343 9.1711 1.0503 9.32735C0.865183 9.51762 0.763174 9.77361 0.76669 10.039C0.770205 10.3045 0.878959 10.5577 1.06905 10.743L6.80968 16.3399L5.45343 24.243C5.42162 24.4268 5.44197 24.6159 5.51215 24.7888C5.58234 24.9616 5.69956 25.1114 5.85052 25.221C6.00148 25.3307 6.18014 25.3958 6.36624 25.4091C6.55234 25.4224 6.73844 25.3832 6.90343 25.2961L14.0003 21.5649L21.0972 25.2961C21.2909 25.3992 21.5159 25.4336 21.7316 25.3961C22.2753 25.3024 22.6409 24.7867 22.5472 24.243L21.1909 16.3399L26.9316 10.743C27.0878 10.5899 27.1909 10.3899 27.2222 10.1711C27.3066 9.62423 26.9253 9.11798 26.3784 9.03673ZM18.7753 15.5524L19.9034 22.1242L14.0003 19.0242L8.09718 22.1274L9.2253 15.5555L4.4503 10.8992L11.0503 9.93985L14.0003 3.96173L16.9503 9.93985L23.5503 10.8992L18.7753 15.5524Z" fill="#E26B0F"/>
</svg>
