<svg width="22" height="28" viewBox="0 0 22 28" fill="none" xmlns="http://www.w3.org/2000/svg">
<path d="M21.0651 12.6648C20.4585 11.2994 19.5765 10.0738 18.4745 9.06481L17.5651 8.23043C17.5343 8.20288 17.4971 8.18332 17.4569 8.17349C17.4167 8.16365 17.3747 8.16383 17.3346 8.17401C17.2945 8.18419 17.2575 8.20407 17.2269 8.23188C17.1962 8.2597 17.1729 8.29461 17.1589 8.33356L16.7526 9.49918C16.4995 10.2304 16.0339 10.9773 15.3745 11.7117C15.3308 11.7586 15.2808 11.7711 15.2464 11.7742C15.212 11.7773 15.1589 11.7711 15.112 11.7273C15.0683 11.6898 15.0464 11.6336 15.0495 11.5773C15.1651 9.69606 14.6026 7.57418 13.3714 5.26481C12.3526 3.34606 10.937 1.84918 9.16826 0.805432L7.87764 0.0460567C7.70889 -0.0539433 7.49326 0.0773066 7.50264 0.274182L7.57139 1.77418C7.61826 2.79918 7.49951 3.70543 7.21826 4.45856C6.87451 5.38043 6.38076 6.23668 5.74951 7.00543C5.31021 7.53969 4.8123 8.02293 4.26514 8.44606C2.94734 9.45907 1.8758 10.7571 1.13076 12.2429C0.387555 13.7417 0.000418472 15.3919 -0.000488281 17.0648C-0.000488281 18.5398 0.290137 19.9679 0.865137 21.3148C1.42034 22.6116 2.22157 23.7885 3.22451 24.7804C4.23701 25.7804 5.41201 26.5679 6.72139 27.1148C8.07764 27.6836 9.51514 27.9711 10.9995 27.9711C12.4839 27.9711 13.9214 27.6836 15.2776 27.1179C16.5838 26.5743 17.7715 25.7814 18.7745 24.7836C19.787 23.7836 20.5808 22.6148 21.1339 21.3179C21.708 19.9747 22.0026 18.5287 21.9995 17.0679C21.9995 15.5429 21.687 14.0617 21.0651 12.6648ZM17.2808 23.2679C15.6026 24.9304 13.3745 25.8429 10.9995 25.8429C8.62451 25.8429 6.39639 24.9304 4.71826 23.2679C3.04639 21.6086 2.12451 19.4086 2.12451 17.0679C2.12451 15.7086 2.43076 14.4054 3.03389 13.1929C3.62139 12.0086 4.49639 10.9492 5.55889 10.1336C6.23651 9.61541 6.85111 9.01969 7.39014 8.35856C8.17139 7.40543 8.78389 6.34293 9.20889 5.20231C9.38322 4.7318 9.5099 4.24499 9.58701 3.74918C10.3401 4.44293 10.9714 5.28043 11.4995 6.26168C12.5433 8.21793 13.0245 9.95856 12.9308 11.4398C12.9084 11.7887 12.9653 12.1381 13.0974 12.4617C13.2295 12.7854 13.4332 13.0749 13.6933 13.3086C13.9186 13.5121 14.1822 13.6689 14.4687 13.7698C14.7552 13.8706 15.0588 13.9135 15.362 13.8961C15.9776 13.8648 16.5433 13.5929 16.9558 13.1336C17.3714 12.6679 17.7308 12.1929 18.0308 11.7086C18.4683 12.2679 18.8339 12.8773 19.1245 13.5336C19.6214 14.6523 19.8745 15.8429 19.8745 17.0679C19.8745 19.4086 18.9526 21.6117 17.2808 23.2679Z" fill="#E26B0F"/>
</svg>
