<svg width="18" height="18" viewBox="0 0 18 18" fill="none" xmlns="http://www.w3.org/2000/svg">
<g clip-path="url(#clip0_1050_21546)">
<path d="M17.3176 2.00781H0.603306C0.247726 2.00781 -0.0395508 2.29509 -0.0395508 2.65067V15.5078C-0.0395508 15.8634 0.247726 16.1507 0.603306 16.1507H17.3176C17.6732 16.1507 17.9604 15.8634 17.9604 15.5078V2.65067C17.9604 2.29509 17.6732 2.00781 17.3176 2.00781ZM16.514 14.7042H1.40688V3.45424H16.514V14.7042ZM3.27719 13.0509C3.33947 13.1132 3.44192 13.1132 3.5042 13.0509L6.9696 9.58549L9.26781 11.8857C9.33009 11.948 9.43255 11.948 9.49482 11.8857L15.4613 5.91518C15.5236 5.8529 15.5236 5.75045 15.4613 5.68817L14.7221 4.94888C14.6918 4.91897 14.6511 4.9022 14.6086 4.9022C14.566 4.9022 14.5253 4.91897 14.495 4.94888L9.38232 10.0636L7.08411 7.76339C7.0539 7.73348 7.01311 7.71671 6.97061 7.71671C6.9281 7.71671 6.88731 7.73348 6.8571 7.76339L2.53991 12.0826C2.51 12.1128 2.49323 12.1536 2.49323 12.1961C2.49323 12.2386 2.51 12.2794 2.53991 12.3096L3.27719 13.0509Z" fill="white"/>
</g>
<defs>
<clipPath id="clip0_1050_21546">
<rect width="18" height="18" fill="white"/>
</clipPath>
</defs>
</svg>
