<svg width="25" height="24" viewBox="0 0 25 24" fill="none" xmlns="http://www.w3.org/2000/svg">
<g clip-path="url(#clip0_1260_5771)">
<path d="M24.0979 9.32316H17.2407C17.1229 9.32316 17.0265 9.41959 17.0265 9.53744V10.8232C17.0265 10.941 17.1229 11.0374 17.2407 11.0374H24.0979C24.2157 11.0374 24.3122 10.941 24.3122 10.8232V9.53744C24.3122 9.41959 24.2157 9.32316 24.0979 9.32316ZM20.5086 12.966H17.2407C17.1229 12.966 17.0265 13.0624 17.0265 13.1803V14.466C17.0265 14.5839 17.1229 14.6803 17.2407 14.6803H20.5086C20.6265 14.6803 20.7229 14.5839 20.7229 14.466V13.1803C20.7229 13.0624 20.6265 12.966 20.5086 12.966ZM11.5702 6.92583H10.4104C10.2443 6.92583 10.1104 7.05976 10.1104 7.22584V13.8687C10.1104 13.9651 10.1559 14.0535 10.2336 14.1098L14.222 17.0187C14.3559 17.1151 14.5434 17.0883 14.6398 16.9544L15.3282 16.0142V16.0116C15.4247 15.8776 15.3952 15.6901 15.2613 15.5937L11.8675 13.1401V7.22584C11.8702 7.05976 11.7336 6.92583 11.5702 6.92583Z" fill="#FFBA52"/>
<path d="M20.3434 16.3316H18.7952C18.6452 16.3316 18.5033 16.4093 18.4229 16.5379C18.0822 17.0779 17.6824 17.5783 17.2309 18.0299C16.4536 18.8098 15.532 19.4311 14.5175 19.8593C13.4649 20.304 12.3479 20.529 11.1961 20.529C10.0416 20.529 8.92468 20.304 7.87468 19.8593C6.8595 19.4308 5.94611 18.8147 5.16129 18.0299C4.37647 17.245 3.7604 16.3316 3.33183 15.3165C2.88718 14.2665 2.66218 13.1495 2.66218 11.995C2.66218 10.8406 2.88718 9.72629 3.33183 8.67361C3.7604 7.65843 4.37647 6.74504 5.16129 5.96021C5.94611 5.17539 6.8595 4.55932 7.87468 4.13075C8.92468 3.68611 10.0443 3.46111 11.1961 3.46111C12.3506 3.46111 13.4675 3.68611 14.5175 4.13075C15.5327 4.55932 16.4461 5.17539 17.2309 5.96021C17.6824 6.41173 18.0822 6.91214 18.4229 7.45218C18.5033 7.58075 18.6452 7.65843 18.7952 7.65843H20.3434C20.5283 7.65843 20.6461 7.46557 20.5631 7.30218C18.8166 3.82807 15.2756 1.57003 11.322 1.5245C5.53361 1.45218 0.725576 6.19057 0.714862 11.9736C0.704148 17.7674 5.39968 22.4683 11.1934 22.4683C15.1979 22.4683 18.7979 20.2022 20.5631 16.6879C20.5819 16.6504 20.5908 16.6087 20.589 16.5668C20.5872 16.5249 20.5747 16.4842 20.5526 16.4485C20.5306 16.4128 20.4999 16.3833 20.4632 16.3629C20.4266 16.3424 20.3854 16.3317 20.3434 16.3316Z" fill="#FFBA52"/>
</g>
<defs>
<clipPath id="clip0_1260_5771">
<rect width="24" height="24" fill="white" transform="translate(0.5)"/>
</clipPath>
</defs>
</svg>
