<svg width="25" height="24" viewBox="0 0 25 24" fill="none" xmlns="http://www.w3.org/2000/svg">
<path d="M22.3566 6.59263H18.403C18.7673 6.01942 18.9816 5.33906 18.9816 4.61049C18.9816 2.5721 17.3235 0.914062 15.2852 0.914062C14.1762 0.914062 13.1771 1.40692 12.4994 2.18371C11.8218 1.40692 10.8227 0.914062 9.71373 0.914062C7.67533 0.914062 6.0173 2.5721 6.0173 4.61049C6.0173 5.33906 6.22891 6.01942 6.59587 6.59263H2.6423C2.16819 6.59263 1.78516 6.97567 1.78516 7.44978V12.8069C1.78516 12.9248 1.88158 13.0212 1.99944 13.0212H3.07087V22.2355C3.07087 22.7096 3.45391 23.0926 3.92801 23.0926H21.0709C21.545 23.0926 21.928 22.7096 21.928 22.2355V13.0212H22.9994C23.1173 13.0212 23.2137 12.9248 23.2137 12.8069V7.44978C23.2137 6.97567 22.8307 6.59263 22.3566 6.59263ZM13.4102 4.61049C13.4102 3.57656 14.2512 2.73549 15.2852 2.73549C16.3191 2.73549 17.1602 3.57656 17.1602 4.61049C17.1602 5.64442 16.3191 6.48549 15.2852 6.48549H13.4102V4.61049ZM9.71373 2.73549C10.7477 2.73549 11.5887 3.57656 11.5887 4.61049V6.48549H9.71373C8.6798 6.48549 7.83873 5.64442 7.83873 4.61049C7.83873 3.57656 8.6798 2.73549 9.71373 2.73549ZM3.60658 11.1998V8.41406H11.5887V11.1998H3.60658ZM4.8923 13.0212H11.5887V21.2712H4.8923V13.0212ZM20.1066 21.2712H13.4102V13.0212H20.1066V21.2712ZM21.3923 11.1998H13.4102V8.41406H21.3923V11.1998Z" fill="#FFBA52"/>
</svg>
