<svg width="17" height="16" viewBox="0 0 17 16" fill="none" xmlns="http://www.w3.org/2000/svg">
<path d="M15.1074 3.7183V1.4308C15.1074 1.11473 14.8521 0.859375 14.536 0.859375H2.46458C2.1485 0.859375 1.89315 1.11473 1.89315 1.4308V3.7183C1.59493 3.73616 1.35743 3.98437 1.35743 4.28795V6.63973C1.35629 7.07195 1.44381 7.49982 1.61458 7.89687C1.69136 8.07902 1.786 8.25045 1.89315 8.41295V14.5737C1.89315 14.8879 2.1485 15.1451 2.46458 15.1451H14.536C14.8521 15.1451 15.1074 14.8897 15.1074 14.5737V8.41295C15.2163 8.25003 15.3095 8.07725 15.386 7.89687C15.5556 7.49866 15.6431 7.07545 15.6431 6.63973V4.28795C15.6431 3.98437 15.4056 3.73616 15.1074 3.7183ZM3.17886 2.14509H13.8217V3.71652H3.17886V2.14509ZM9.64315 13.8612H7.35743V12.0022H9.64315V13.8612ZM13.8217 13.8612H10.786V11.4308C10.786 11.1147 10.5306 10.8594 10.2146 10.8594H6.786C6.46993 10.8594 6.21458 11.1147 6.21458 11.4308V13.8612H3.17886V9.53616C3.23065 9.56116 3.28422 9.58616 3.33958 9.60759C3.73779 9.77545 4.161 9.85937 4.59672 9.85937C5.03243 9.85937 5.45386 9.77545 5.85386 9.60759C6.10029 9.50402 6.33243 9.37187 6.54493 9.21295C6.5485 9.21116 6.55208 9.21116 6.55565 9.21295C6.76881 9.37255 7.00094 9.50511 7.24672 9.60759C7.64493 9.77545 8.06815 9.85937 8.50386 9.85937C8.93958 9.85937 9.361 9.77545 9.761 9.60759C10.0074 9.50402 10.2396 9.37187 10.4521 9.21295C10.4556 9.21116 10.4592 9.21116 10.4628 9.21295C10.676 9.37255 10.9081 9.50511 11.1539 9.60759C11.5521 9.77545 11.9753 9.85937 12.411 9.85937C12.8467 9.85937 13.2681 9.77545 13.6681 9.60759C13.7217 9.58438 13.7753 9.56116 13.8289 9.53616V13.8612H13.8217ZM14.3574 6.63973C14.3574 7.70759 13.4824 8.57366 12.4056 8.57366C11.6771 8.57366 11.0414 8.17902 10.7056 7.5933C10.6539 7.50402 10.561 7.44866 10.4574 7.44866H10.4467C10.3449 7.44866 10.2503 7.50402 10.1985 7.5933C10.0272 7.89208 9.77981 8.14018 9.48153 8.31237C9.18325 8.48456 8.8447 8.57471 8.50029 8.57366C7.7735 8.57366 7.13958 8.1808 6.80386 7.59687C6.75029 7.5058 6.65386 7.44866 6.5485 7.44866C6.44315 7.44866 6.34493 7.5058 6.29315 7.59687C6.12083 7.89451 5.87314 8.1415 5.57501 8.31297C5.27689 8.48445 4.93885 8.57436 4.59493 8.57366C3.51815 8.57366 2.64315 7.70759 2.64315 6.63973V5.01116C2.64315 5.0058 2.64672 5.00223 2.65208 5.00223H14.3485C14.3539 5.00223 14.3574 5.0058 14.3574 5.01116V6.63973Z" fill="white"/>
</svg>
