<svg width="28" height="28" viewBox="0 0 28 28" fill="none" xmlns="http://www.w3.org/2000/svg">
<rect x="0.00012207" width="28" height="28" rx="14" fill="#09D1FE" fill-opacity="0.1"/>
<g clip-path="url(#clip0_115_11581)">
<path d="M21.232 8.62631L17.6749 9.05488C17.557 9.06917 17.507 9.21381 17.5909 9.29774L18.6499 10.3567L14.6141 14.3924L12.7963 12.5763C12.6838 12.4638 12.5034 12.4656 12.3927 12.5763L6.64807 18.3227C6.62148 18.3496 6.60657 18.3859 6.60657 18.4236C6.60657 18.4614 6.62148 18.4977 6.64807 18.5245L7.45164 19.3317C7.507 19.387 7.59807 19.387 7.65342 19.3317L12.5945 14.3924L14.4106 16.2085C14.5231 16.3192 14.7034 16.3192 14.8141 16.2085L19.6606 11.3656L20.7195 12.4245C20.7385 12.4434 20.7624 12.4566 20.7885 12.4626C20.8146 12.4685 20.8418 12.4671 20.8671 12.4583C20.8924 12.4496 20.9148 12.4339 20.9316 12.4131C20.9484 12.3923 20.9591 12.3672 20.9624 12.3406L21.3909 8.78346C21.4034 8.69238 21.3249 8.61381 21.232 8.62631Z" fill="#09D1FE"/>
</g>
<defs>
<clipPath id="clip0_115_11581">
<rect width="16" height="16" fill="white" transform="translate(6.00012 6)"/>
</clipPath>
</defs>
</svg>
