<svg width="16" height="16" viewBox="0 0 16 16" fill="none" xmlns="http://www.w3.org/2000/svg">
<path d="M8.17328 0.32388C5.45006 0.316737 3.05363 1.72567 1.68399 3.85424C1.62328 3.94888 1.69113 4.07388 1.80363 4.07388H3.05899C3.1447 4.07388 3.22506 4.03638 3.27863 3.97031C3.40363 3.81852 3.53756 3.67209 3.67863 3.53281C4.26078 2.95245 4.93756 2.49531 5.69113 2.17745C6.46971 1.84888 7.29828 1.68102 8.15363 1.68102C9.00899 1.68102 9.83756 1.84709 10.6161 2.17745C11.3697 2.49531 12.0465 2.95245 12.6286 3.53281C13.2108 4.11317 13.6661 4.78995 13.9858 5.54174C14.3161 6.32031 14.4822 7.14709 14.4822 8.00245C14.4822 8.85781 14.3143 9.68459 13.9858 10.4632C13.6679 11.215 13.2108 11.8917 12.6286 12.4721C12.0465 13.0525 11.3697 13.5096 10.6161 13.8275C9.83695 14.1566 8.99947 14.3254 8.15363 14.3239C7.29828 14.3239 6.46971 14.156 5.69113 13.8275C4.93904 13.5099 4.25561 13.0496 3.67863 12.4721C3.53756 12.331 3.40542 12.1846 3.27863 12.0346C3.22506 11.9685 3.14292 11.931 3.05899 11.931H1.80363C1.69113 11.931 1.62149 12.056 1.68399 12.1507C3.05185 14.2739 5.43756 15.681 8.15363 15.681C12.3715 15.681 15.7965 12.2864 15.8393 8.08102C15.8822 3.80781 12.4518 0.334594 8.17328 0.32388ZM5.91113 10.0025V8.64531H0.30399C0.225419 8.64531 0.161133 8.58102 0.161133 8.50245V7.50245C0.161133 7.42388 0.225419 7.35959 0.30399 7.35959H5.91113V6.00245C5.91113 5.88281 6.05042 5.81495 6.14328 5.88995L8.6772 7.88995C8.69428 7.90331 8.70809 7.92039 8.71758 7.93988C8.72708 7.95937 8.73202 7.98077 8.73202 8.00245C8.73202 8.02413 8.72708 8.04553 8.71758 8.06502C8.70809 8.08451 8.69428 8.10159 8.6772 8.11495L6.14328 10.115C6.05042 10.1882 5.91113 10.1221 5.91113 10.0025Z" fill="#326C53"/>
</svg>
