<svg width="110" height="19" viewBox="0 0 110 19" fill="none" xmlns="http://www.w3.org/2000/svg">
<path d="M0.776 18V0.959999H12.224V3.864H4.088V8.256H10.856V10.944H4.088V18H0.776ZM14.2453 18V5.424H17.4613V18H14.2453ZM14.2453 3.672V0.48H17.4613V3.672H14.2453ZM32.0504 18H28.8344V10.944C28.8344 9.936 28.6584 9.2 28.3064 8.736C27.9544 8.272 27.4664 8.04 26.8424 8.04C26.5224 8.04 26.1944 8.104 25.8584 8.232C25.5224 8.36 25.2024 8.544 24.8984 8.784C24.6104 9.008 24.3464 9.28 24.1064 9.6C23.8664 9.92 23.6904 10.272 23.5784 10.656V18H20.3624V5.424H23.2664V7.752C23.7304 6.952 24.4024 6.328 25.2824 5.88C26.1624 5.432 27.1544 5.208 28.2584 5.208C29.0424 5.208 29.6824 5.352 30.1784 5.64C30.6744 5.928 31.0584 6.304 31.3304 6.768C31.6024 7.232 31.7864 7.76 31.8824 8.352C31.9944 8.944 32.0504 9.544 32.0504 10.152V18ZM40.0548 18.24C39.1908 18.24 38.3908 18.072 37.6548 17.736C36.9188 17.4 36.2868 16.936 35.7588 16.344C35.2308 15.752 34.8148 15.064 34.5108 14.28C34.2228 13.48 34.0788 12.624 34.0788 11.712C34.0788 10.8 34.2148 9.952 34.4868 9.168C34.7748 8.384 35.1668 7.696 35.6628 7.104C36.1588 6.512 36.7508 6.048 37.4388 5.712C38.1268 5.376 38.8788 5.208 39.6948 5.208C40.6228 5.208 41.4548 5.432 42.1908 5.88C42.9428 6.328 43.5268 6.912 43.9428 7.632V0.48H47.1588V14.304C47.1588 14.64 47.2148 14.88 47.3268 15.024C47.4388 15.168 47.6308 15.248 47.9028 15.264V18C47.3428 18.112 46.8868 18.168 46.5348 18.168C45.9588 18.168 45.4868 18.024 45.1188 17.736C44.7508 17.448 44.5428 17.072 44.4948 16.608L44.4228 15.816C43.9588 16.616 43.3268 17.224 42.5268 17.64C41.7428 18.04 40.9188 18.24 40.0548 18.24ZM40.8948 15.504C41.1988 15.504 41.5108 15.456 41.8308 15.36C42.1508 15.248 42.4468 15.096 42.7188 14.904C42.9908 14.712 43.2308 14.488 43.4388 14.232C43.6628 13.976 43.8308 13.696 43.9428 13.392V10.392C43.8148 10.04 43.6308 9.72 43.3908 9.432C43.1668 9.128 42.9028 8.872 42.5988 8.664C42.3108 8.44 41.9988 8.264 41.6628 8.136C41.3428 8.008 41.0228 7.944 40.7028 7.944C40.2228 7.944 39.7748 8.048 39.3588 8.256C38.9588 8.464 38.6148 8.752 38.3268 9.12C38.0388 9.472 37.8148 9.88 37.6548 10.344C37.4948 10.808 37.4148 11.288 37.4148 11.784C37.4148 12.312 37.5028 12.8 37.6788 13.248C37.8548 13.696 38.0948 14.088 38.3988 14.424C38.7028 14.76 39.0628 15.024 39.4788 15.216C39.9108 15.408 40.3828 15.504 40.8948 15.504Z" fill="white"/>
<path d="M49.5956 9.36C49.5956 8.32 49.7796 7.296 50.1476 6.288C50.5316 5.264 51.0836 4.352 51.8036 3.552C52.5236 2.752 53.4036 2.104 54.4436 1.608C55.4836 1.112 56.6676 0.863999 57.9956 0.863999C59.5636 0.863999 60.9156 1.208 62.0516 1.896C63.2036 2.584 64.0596 3.48 64.6196 4.584L62.0756 6.336C61.8516 5.856 61.5796 5.456 61.2596 5.136C60.9396 4.8 60.5956 4.536 60.2276 4.344C59.8596 4.152 59.4756 4.016 59.0756 3.936C58.6756 3.84 58.2836 3.792 57.8996 3.792C57.0676 3.792 56.3396 3.96 55.7156 4.296C55.1076 4.632 54.5956 5.072 54.1796 5.616C53.7796 6.144 53.4756 6.752 53.2676 7.44C53.0596 8.112 52.9556 8.784 52.9556 9.456C52.9556 10.208 53.0756 10.936 53.3156 11.64C53.5556 12.328 53.8916 12.936 54.3236 13.464C54.7716 13.992 55.2996 14.416 55.9076 14.736C56.5316 15.056 57.2116 15.216 57.9476 15.216C58.3316 15.216 58.7316 15.168 59.1476 15.072C59.5636 14.976 59.9556 14.824 60.3236 14.616C60.7076 14.408 61.0596 14.144 61.3796 13.824C61.6996 13.488 61.9556 13.088 62.1476 12.624L64.8596 14.184C64.5876 14.824 64.1956 15.392 63.6836 15.888C63.1876 16.368 62.6196 16.776 61.9796 17.112C61.3556 17.448 60.6836 17.704 59.9636 17.88C59.2436 18.056 58.5396 18.144 57.8516 18.144C56.6356 18.144 55.5236 17.888 54.5156 17.376C53.5076 16.864 52.6356 16.2 51.8996 15.384C51.1796 14.552 50.6116 13.616 50.1956 12.576C49.7956 11.52 49.5956 10.448 49.5956 9.36ZM72.5767 18.24C71.5527 18.24 70.6327 18.064 69.8167 17.712C69.0007 17.36 68.3047 16.888 67.7287 16.296C67.1687 15.688 66.7367 14.992 66.4327 14.208C66.1287 13.424 65.9767 12.6 65.9767 11.736C65.9767 10.856 66.1287 10.024 66.4327 9.24C66.7367 8.456 67.1687 7.768 67.7287 7.176C68.3047 6.568 69.0007 6.088 69.8167 5.736C70.6327 5.384 71.5527 5.208 72.5767 5.208C73.6007 5.208 74.5127 5.384 75.3127 5.736C76.1287 6.088 76.8167 6.568 77.3767 7.176C77.9527 7.768 78.3927 8.456 78.6967 9.24C79.0007 10.024 79.1527 10.856 79.1527 11.736C79.1527 12.6 79.0007 13.424 78.6967 14.208C78.3927 14.992 77.9607 15.688 77.4007 16.296C76.8407 16.888 76.1527 17.36 75.3367 17.712C74.5207 18.064 73.6007 18.24 72.5767 18.24ZM69.2887 11.736C69.2887 12.296 69.3687 12.808 69.5287 13.272C69.7047 13.72 69.9367 14.112 70.2247 14.448C70.5287 14.784 70.8807 15.048 71.2807 15.24C71.6807 15.416 72.1127 15.504 72.5767 15.504C73.0407 15.504 73.4727 15.416 73.8727 15.24C74.2727 15.048 74.6167 14.784 74.9047 14.448C75.2087 14.112 75.4407 13.712 75.6007 13.248C75.7767 12.784 75.8647 12.272 75.8647 11.712C75.8647 11.168 75.7767 10.664 75.6007 10.2C75.4407 9.736 75.2087 9.336 74.9047 9C74.6167 8.664 74.2727 8.408 73.8727 8.232C73.4727 8.04 73.0407 7.944 72.5767 7.944C72.1127 7.944 71.6807 8.04 71.2807 8.232C70.8807 8.424 70.5287 8.688 70.2247 9.024C69.9367 9.36 69.7047 9.76 69.5287 10.224C69.3687 10.688 69.2887 11.192 69.2887 11.736ZM81.3234 18V5.424H84.5394V18H81.3234ZM81.3234 3.672V0.48H84.5394V3.672H81.3234ZM99.1286 18H95.9126V10.944C95.9126 9.936 95.7366 9.2 95.3846 8.736C95.0326 8.272 94.5446 8.04 93.9206 8.04C93.6006 8.04 93.2726 8.104 92.9366 8.232C92.6006 8.36 92.2806 8.544 91.9766 8.784C91.6886 9.008 91.4246 9.28 91.1846 9.6C90.9446 9.92 90.7686 10.272 90.6566 10.656V18H87.4406V5.424H90.3446V7.752C90.8086 6.952 91.4806 6.328 92.3606 5.88C93.2406 5.432 94.2326 5.208 95.3366 5.208C96.1206 5.208 96.7606 5.352 97.2566 5.64C97.7526 5.928 98.1366 6.304 98.4086 6.768C98.6806 7.232 98.8646 7.76 98.9606 8.352C99.0726 8.944 99.1286 9.544 99.1286 10.152V18ZM109.344 17.352C108.912 17.544 108.384 17.736 107.76 17.928C107.136 18.12 106.48 18.216 105.792 18.216C105.344 18.216 104.92 18.16 104.52 18.048C104.136 17.936 103.792 17.76 103.488 17.52C103.2 17.264 102.968 16.944 102.792 16.56C102.616 16.16 102.528 15.68 102.528 15.12V7.896H100.872V5.424H102.528V1.344H105.744V5.424H108.384V7.896H105.744V14.04C105.744 14.488 105.856 14.808 106.08 15C106.32 15.176 106.608 15.264 106.944 15.264C107.28 15.264 107.608 15.208 107.928 15.096C108.248 14.984 108.504 14.888 108.696 14.808L109.344 17.352Z" fill="#36FFB5"/>
</svg>
