<svg width="20" height="20" viewBox="0 0 20 20" fill="none" xmlns="http://www.w3.org/2000/svg">
<path d="M2.11758 16.5583C2.11758 16.9113 2.4117 17.2348 2.79405 17.2348C3.17641 17.2348 3.47052 16.9407 3.47052 16.5583C3.47052 16.2054 3.17641 15.8818 2.79405 15.8818C2.4117 15.8818 2.11758 16.176 2.11758 16.5583Z" fill="#047B73"/>
<path d="M5.20586 17.2055C5.5588 17.2055 5.88234 16.9114 5.88234 16.529C5.88234 16.1761 5.58822 15.8525 5.20586 15.8525C4.85292 15.8525 4.52939 16.1467 4.52939 16.529C4.52939 16.9114 4.85292 17.2055 5.20586 17.2055Z" fill="#047B73"/>
<path d="M7.61754 17.2055C7.97049 17.2055 8.29402 16.9114 8.29402 16.529C8.29402 16.1761 7.9999 15.8525 7.61754 15.8525C7.2646 15.8525 6.94107 16.1467 6.94107 16.529C6.94107 16.9114 7.2646 17.2055 7.61754 17.2055Z" fill="#047B73"/>
<path d="M10.0293 17.2055C10.3823 17.2055 10.7058 16.9114 10.7058 16.529C10.7058 16.1761 10.4117 15.8525 10.0293 15.8525C9.67637 15.8525 9.35284 16.1467 9.35284 16.529C9.38226 16.9114 9.67637 17.2055 10.0293 17.2055Z" fill="#047B73"/>
<path d="M12.4411 17.2055C12.7941 17.2055 13.1176 16.9114 13.1176 16.529C13.1176 16.1761 12.8235 15.8525 12.4411 15.8525C12.0882 15.8525 11.7646 16.1467 11.7646 16.529C11.7941 16.9114 12.0882 17.2055 12.4411 17.2055Z" fill="#047B73"/>
<path d="M14.6469 17.2055C14.9999 17.2055 15.3234 16.9114 15.3234 16.529C15.3234 16.1761 15.0293 15.8525 14.6469 15.8525C14.294 15.8525 13.9705 16.1467 13.9705 16.529C13.9999 16.9114 14.294 17.2055 14.6469 17.2055Z" fill="#047B73"/>
<path d="M16.8823 17.2055C17.2353 17.2055 17.5588 16.9114 17.5588 16.529C17.5588 16.1761 17.2647 15.8525 16.8823 15.8525C16.5294 15.8525 16.2059 16.1467 16.2059 16.529C16.2059 16.9114 16.5 17.2055 16.8823 17.2055Z" fill="#047B73"/>
<path d="M18.0883 8.52907C18.7353 8.52907 19.2647 7.99966 19.2647 7.3526V1.76436C19.2647 1.1173 18.7353 0.587891 18.0883 0.587891H10.5883C9.94121 0.587891 9.41179 1.1173 9.41179 1.76436V7.3526C9.41179 7.99966 9.94121 8.52907 10.5883 8.52907H13.353V14.882H9.6765C9.82356 14.6761 9.91179 14.4114 9.91179 14.1173V9.70554C9.91179 8.97025 9.32356 8.3526 8.55885 8.3526H3.73532C3.00003 8.3526 2.38238 8.94083 2.38238 9.70554V14.1173C2.38238 14.382 2.47062 14.6467 2.61767 14.882H2.38238C1.47062 14.882 0.735321 15.6173 0.735321 16.5291C0.735321 17.4408 1.47062 18.1761 2.38238 18.1761H3.26473V19.1173C3.26473 19.2644 3.38238 19.4114 3.55885 19.4114H16.1177C16.2647 19.4114 16.4118 19.2938 16.4118 19.1173V18.2055H17.2941C18.2059 18.2055 18.9412 17.4702 18.9412 16.5585C18.9412 15.6467 18.2059 14.9114 17.2941 14.9114H15.2941V8.52907H18.0883ZM3.00003 9.73495C3.00003 9.32319 3.32356 8.99966 3.73532 8.99966H4.91179V9.94083C4.91179 10.1761 5.14709 10.3526 5.41179 10.2644L6.14709 9.91142L6.88238 10.2644C7.11768 10.382 7.38238 10.2055 7.38238 9.94083V8.99966H8.55885C8.97062 8.99966 9.29415 9.32319 9.29415 9.73495V14.1467C9.29415 14.5585 8.97062 14.882 8.55885 14.882H3.73532C3.32356 14.882 3.00003 14.5585 3.00003 14.1467V9.73495ZM18.353 16.5585C18.353 17.1467 17.8824 17.6173 17.2941 17.6173C17.3236 17.6173 16.1765 17.5879 2.38238 17.5879C1.82356 17.5879 1.32356 17.1173 1.32356 16.5291C1.32356 15.9408 1.79414 15.4702 2.38238 15.4702L17.2941 15.4997C17.8824 15.4997 18.353 15.9997 18.353 16.5585ZM13.853 7.29378C13.853 7.02907 14.0589 6.82319 14.3236 6.82319C14.5883 6.82319 14.7941 7.02907 14.7941 7.29378C14.7941 7.55848 14.5883 7.76436 14.3236 7.76436C14.0883 7.79378 13.853 7.55848 13.853 7.29378ZM10.5883 1.17613H18.1177C18.4412 1.17613 18.7059 1.44083 18.7059 1.76436V6.08789H10V1.76436C10 1.44083 10.2647 1.17613 10.5883 1.17613Z" fill="#047B73"/>
<path d="M5.69753 12.7039C5.69753 12.7117 5.69385 12.7187 5.68649 12.7249C5.68097 12.7295 5.67361 12.7319 5.6644 12.7319H4.72581C4.71661 12.7319 4.71201 12.7357 4.71201 12.7435V13.1788C4.71201 13.1866 4.71661 13.1904 4.72581 13.1904H5.35798C5.36718 13.1904 5.37455 13.1935 5.38007 13.1997C5.38743 13.2044 5.39111 13.2106 5.39111 13.2184V13.3953C5.39111 13.403 5.38743 13.41 5.38007 13.4162C5.37455 13.4209 5.36718 13.4232 5.35798 13.4232H4.72581C4.71661 13.4232 4.71201 13.4271 4.71201 13.4348V14.1006C4.71201 14.1083 4.70833 14.1153 4.70097 14.1215C4.69545 14.1262 4.68809 14.1285 4.67888 14.1285H4.42491C4.41571 14.1285 4.40743 14.1262 4.40007 14.1215C4.39455 14.1153 4.39178 14.1083 4.39178 14.1006V12.527C4.39178 12.5193 4.39455 12.5131 4.40007 12.5084C4.40743 12.5022 4.41571 12.4991 4.42491 12.4991H5.6644C5.67361 12.4991 5.68097 12.5022 5.68649 12.5084C5.69385 12.5131 5.69753 12.5193 5.69753 12.527V12.7039Z" fill="#047B73"/>
<path d="M6.95667 14.1285C6.93827 14.1285 6.92631 14.1208 6.92079 14.1052L6.82969 13.8562C6.82601 13.85 6.8214 13.8469 6.81588 13.8469H6.08709C6.08157 13.8469 6.07697 13.85 6.07329 13.8562L5.98219 14.1052C5.97667 14.1208 5.96471 14.1285 5.94631 14.1285H5.67025C5.65921 14.1285 5.65093 14.1262 5.6454 14.1215C5.63988 14.1153 5.63896 14.1068 5.64264 14.0959L6.24169 12.5224C6.24721 12.5068 6.25917 12.4991 6.27757 12.4991H6.62264C6.64105 12.4991 6.65301 12.5068 6.65853 12.5224L7.26033 14.0959C7.26218 14.099 7.2631 14.1029 7.2631 14.1076C7.2631 14.1215 7.25297 14.1285 7.23273 14.1285H6.95667ZM6.15887 13.6211C6.15703 13.6304 6.16071 13.635 6.16991 13.635H6.73031C6.74135 13.635 6.74503 13.6304 6.74135 13.6211L6.45701 12.8413C6.45517 12.8351 6.45241 12.832 6.44873 12.832C6.44505 12.832 6.44229 12.8351 6.44045 12.8413L6.15887 13.6211Z" fill="#047B73"/>
<path d="M8.14609 14.1471C8.00806 14.1471 7.88659 14.1246 7.78169 14.0796C7.67679 14.0331 7.59582 13.9687 7.53876 13.8864C7.48171 13.8042 7.45319 13.7087 7.45319 13.6001V13.0252C7.45319 12.9165 7.48171 12.8211 7.53876 12.7388C7.59582 12.6566 7.67679 12.593 7.78169 12.548C7.88659 12.503 8.00806 12.4805 8.14609 12.4805C8.28228 12.4805 8.40282 12.5022 8.50772 12.5456C8.61262 12.5891 8.6936 12.6504 8.75065 12.7295C8.8077 12.8087 8.83623 12.9002 8.83623 13.0042C8.83623 13.012 8.83255 13.019 8.82519 13.0252C8.81967 13.0298 8.8123 13.0321 8.8031 13.0321L8.54913 13.0438C8.52705 13.0438 8.516 13.0352 8.516 13.0182C8.516 12.9266 8.48196 12.8529 8.41386 12.797C8.34761 12.7412 8.25835 12.7132 8.14609 12.7132C8.03382 12.7132 7.94365 12.7412 7.87555 12.797C7.80746 12.8529 7.77341 12.9266 7.77341 13.0182V13.6118C7.77341 13.7018 7.80746 13.7747 7.87555 13.8306C7.94365 13.8864 8.03382 13.9144 8.14609 13.9144C8.25835 13.9144 8.34761 13.8872 8.41386 13.8329C8.48196 13.777 8.516 13.7033 8.516 13.6118C8.516 13.5947 8.52705 13.5861 8.54913 13.5861L8.8031 13.5955C8.8123 13.5955 8.81967 13.5978 8.82519 13.6024C8.83255 13.6071 8.83623 13.6125 8.83623 13.6187C8.83623 13.7243 8.8077 13.8174 8.75065 13.8981C8.6936 13.9772 8.61262 14.0385 8.50772 14.082C8.40282 14.1254 8.28228 14.1471 8.14609 14.1471Z" fill="#047B73"/>
<path d="M13.8001 7.41837L13.8485 7.43035C13.8606 7.47824 13.8727 7.51416 13.8969 7.55008L13.8727 7.58601C13.8606 7.60995 13.8606 7.64588 13.8848 7.66982L13.9574 7.74167C13.9816 7.76561 14.0179 7.76561 14.0421 7.75364L14.0784 7.72969C14.1147 7.75364 14.163 7.76561 14.1993 7.77759L14.2114 7.82548C14.2235 7.86141 14.2477 7.87338 14.2719 7.87338H14.3808C14.4171 7.87338 14.4413 7.84943 14.4413 7.82548L14.4534 7.77759C14.5018 7.76561 14.5381 7.75364 14.5744 7.72969L14.6107 7.75364C14.6349 7.77759 14.6712 7.76561 14.6954 7.74167L14.768 7.66982C14.7922 7.64588 14.7922 7.60995 14.7801 7.58601L14.7559 7.55008C14.7801 7.51416 14.7922 7.46627 14.8043 7.43035L14.8527 7.41837C14.889 7.4064 14.9011 7.38245 14.9011 7.3585V7.25074C14.9011 7.21482 14.8769 7.19087 14.8527 7.19087L14.8164 7.16692C14.8043 7.11903 14.7922 7.0831 14.768 7.04718L14.7922 7.01126C14.8043 6.98731 14.8043 6.95139 14.7801 6.92744L14.7075 6.8556C14.6833 6.83165 14.647 6.83165 14.6228 6.84363L14.5865 6.86757C14.5502 6.84363 14.5018 6.83165 14.4655 6.81968L14.4534 6.75981C14.4534 6.72389 14.4171 6.71191 14.3929 6.71191H14.284C14.2477 6.71191 14.2235 6.73586 14.2235 6.75981L14.2114 6.8077C14.1751 6.81968 14.1267 6.83165 14.0905 6.8556L14.0542 6.83165C14.03 6.80771 13.9937 6.81968 13.9695 6.84363L13.8969 6.91547C13.8485 6.93942 13.8485 6.97534 13.8606 6.99929L13.8848 7.03521C13.8606 7.07113 13.8485 7.11903 13.8364 7.15495L13.788 7.16692C13.7517 7.17889 13.7396 7.20284 13.7396 7.22679V7.33456C13.7396 7.38245 13.7638 7.4064 13.8001 7.41837ZM14.3324 7.04718C14.4655 7.04718 14.5865 7.15495 14.5865 7.29863C14.5865 7.43035 14.4776 7.55008 14.3324 7.55008C14.1993 7.55008 14.0784 7.44232 14.0784 7.29863C14.0784 7.15495 14.1993 7.04718 14.3324 7.04718Z" fill="#047B73"/>
<rect x="13.4531" y="6.49609" width="1.89844" height="1.85547" fill="#047B73"/>
<path d="M14.7535 6.81637L14.5023 7.06765C14.4884 7.08152 14.4884 7.10402 14.5023 7.1179L14.7033 7.31892C14.7172 7.3328 14.7397 7.3328 14.7535 7.31892L15.0048 7.06765C15.0187 7.05377 15.0187 7.03127 15.0048 7.01739L14.8038 6.81637C14.7899 6.80249 14.7674 6.80249 14.7535 6.81637Z" fill="white"/>
<path d="M14.6756 6.79408C14.4301 6.58017 14.2387 6.55589 14.2299 6.5549C14.2226 6.55409 14.2152 6.55557 14.2088 6.55914C14.2023 6.56272 14.1972 6.5682 14.194 6.57484C14.1908 6.58148 14.1897 6.58894 14.191 6.5962C14.1922 6.60346 14.1957 6.61016 14.2009 6.61536L14.5276 6.94207L14.6756 6.79408Z" fill="white"/>
<path d="M15.2665 7.59111C15.2656 7.58228 15.2413 7.39095 15.0274 7.14551L14.8794 7.2935L15.2061 7.62016C15.2113 7.62537 15.218 7.62883 15.2252 7.63007C15.2325 7.6313 15.24 7.63026 15.2466 7.62707C15.2533 7.62388 15.2587 7.61871 15.2623 7.61226C15.2659 7.60582 15.2674 7.59843 15.2665 7.59111Z" fill="white"/>
<path d="M14.4773 7.19336L13.6982 7.97244C13.6915 7.9791 13.6878 7.98814 13.6878 7.99757C13.6878 8.00699 13.6915 8.01603 13.6982 8.0227L13.7988 8.12321C13.8054 8.12988 13.8145 8.13362 13.8239 8.13362C13.8333 8.13362 13.8424 8.12988 13.849 8.12321L14.6281 7.34415L14.4773 7.19336Z" fill="white"/>
<path d="M12.3595 2.48237C12.3711 2.47537 12.3886 2.47187 12.412 2.47187H12.8355C12.8471 2.47187 12.8565 2.47654 12.8635 2.48587C12.8728 2.49287 12.8775 2.50221 12.8775 2.51387V4.87987C12.8775 4.89154 12.8728 4.90204 12.8635 4.91137C12.8565 4.91837 12.8471 4.92188 12.8355 4.92188H12.426C12.4143 4.92188 12.4038 4.91837 12.3945 4.91137C12.3875 4.90204 12.384 4.89154 12.384 4.87987V2.96187C12.384 2.95721 12.3816 2.95254 12.377 2.94787C12.3723 2.94321 12.3676 2.94204 12.363 2.94438L12.0165 3.03887L12.0025 3.04237C11.9815 3.04237 11.971 3.02954 11.971 3.00387L11.9605 2.70287C11.9605 2.67954 11.971 2.66321 11.992 2.65387L12.3595 2.48237ZM14.0658 4.96038C13.8091 4.96038 13.6061 4.88921 13.4568 4.74687C13.3074 4.60221 13.2328 4.40621 13.2328 4.15887V3.23487C13.2328 2.99221 13.3074 2.79971 13.4568 2.65737C13.6061 2.51504 13.8091 2.44387 14.0658 2.44387C14.3224 2.44387 14.5254 2.51504 14.6748 2.65737C14.8264 2.79971 14.9023 2.99221 14.9023 3.23487V4.15887C14.9023 4.40621 14.8264 4.60221 14.6748 4.74687C14.5254 4.88921 14.3224 4.96038 14.0658 4.96038ZM14.0658 4.53687C14.1708 4.53687 14.2536 4.50537 14.3143 4.44237C14.3773 4.37704 14.4088 4.29071 14.4088 4.18337V3.22087C14.4088 3.11354 14.3773 3.02837 14.3143 2.96537C14.2536 2.90004 14.1708 2.86737 14.0658 2.86737C13.9631 2.86737 13.8803 2.90004 13.8173 2.96537C13.7566 3.02837 13.7263 3.11354 13.7263 3.22087V4.18337C13.7263 4.29071 13.7566 4.37704 13.8173 4.44237C13.8803 4.50537 13.9631 4.53687 14.0658 4.53687ZM16.0619 4.96038C15.8052 4.96038 15.6022 4.88921 15.4529 4.74687C15.3035 4.60221 15.2289 4.40621 15.2289 4.15887V3.23487C15.2289 2.99221 15.3035 2.79971 15.4529 2.65737C15.6022 2.51504 15.8052 2.44387 16.0619 2.44387C16.3185 2.44387 16.5215 2.51504 16.6709 2.65737C16.8225 2.79971 16.8984 2.99221 16.8984 3.23487V4.15887C16.8984 4.40621 16.8225 4.60221 16.6709 4.74687C16.5215 4.88921 16.3185 4.96038 16.0619 4.96038ZM16.0619 4.53687C16.1669 4.53687 16.2497 4.50537 16.3104 4.44237C16.3734 4.37704 16.4049 4.29071 16.4049 4.18337V3.22087C16.4049 3.11354 16.3734 3.02837 16.3104 2.96537C16.2497 2.90004 16.1669 2.86737 16.0619 2.86737C15.9592 2.86737 15.8764 2.90004 15.8134 2.96537C15.7527 3.02837 15.7224 3.11354 15.7224 3.22087V4.18337C15.7224 4.29071 15.7527 4.37704 15.8134 4.44237C15.8764 4.50537 15.9592 4.53687 16.0619 4.53687Z" fill="#047B73"/>
</svg>
