<svg width="215" height="24" viewBox="0 0 215 24" fill="none" xmlns="http://www.w3.org/2000/svg">
<g opacity="0.8">
<path d="M8 5C4.13438 5 1 8.13438 1 12C1 15.8656 4.13438 19 8 19C11.8656 19 15 15.8656 15 12C15 8.13438 11.8656 5 8 5ZM7.5 8.625C7.5 8.55625 7.55625 8.5 7.625 8.5H8.375C8.44375 8.5 8.5 8.55625 8.5 8.625V12.875C8.5 12.9438 8.44375 13 8.375 13H7.625C7.55625 13 7.5 12.9438 7.5 12.875V8.625ZM8 15.5C7.80374 15.496 7.61687 15.4152 7.47948 15.275C7.3421 15.1348 7.26515 14.9463 7.26515 14.75C7.26515 14.5537 7.3421 14.3652 7.47948 14.225C7.61687 14.0848 7.80374 14.004 8 14C8.19626 14.004 8.38313 14.0848 8.52052 14.225C8.6579 14.3652 8.73485 14.5537 8.73485 14.75C8.73485 14.9463 8.6579 15.1348 8.52052 15.275C8.38313 15.4152 8.19626 15.496 8 15.5Z" fill="white" fill-opacity="0.8"/>
</g>
<path opacity="0.8" d="M31.69 8.2C31.7834 8.2 31.83 8.24667 31.83 8.34V8.942C31.83 9.03533 31.7834 9.082 31.69 9.082H28.946C28.9087 9.082 28.89 9.10067 28.89 9.138V17.86C28.89 17.9533 28.8434 18 28.75 18H28.036C27.9427 18 27.896 17.9533 27.896 17.86V9.138C27.896 9.10067 27.8774 9.082 27.84 9.082H25.208C25.1147 9.082 25.068 9.03533 25.068 8.942V8.34C25.068 8.24667 25.1147 8.2 25.208 8.2H31.69ZM36.6367 10.818C37.3834 10.818 37.9761 11.0373 38.4147 11.476C38.8627 11.9147 39.0867 12.5027 39.0867 13.24V17.86C39.0867 17.9533 39.0401 18 38.9467 18H38.2327C38.1394 18 38.0927 17.9533 38.0927 17.86V13.436C38.0927 12.9227 37.9341 12.5027 37.6167 12.176C37.3087 11.8493 36.9074 11.686 36.4127 11.686C35.8994 11.686 35.4841 11.8447 35.1667 12.162C34.8494 12.4793 34.6907 12.8947 34.6907 13.408V17.86C34.6907 17.9533 34.6441 18 34.5507 18H33.8367C33.7434 18 33.6967 17.9533 33.6967 17.86V8.34C33.6967 8.24667 33.7434 8.2 33.8367 8.2H34.5507C34.6441 8.2 34.6907 8.24667 34.6907 8.34V11.658C34.6907 11.6767 34.6954 11.6907 34.7047 11.7C34.7234 11.7093 34.7374 11.7047 34.7467 11.686C35.1574 11.1073 35.7874 10.818 36.6367 10.818ZM46.7199 13.268C46.7572 13.5293 46.7759 13.856 46.7759 14.248V14.696C46.7759 14.7893 46.7292 14.836 46.6359 14.836H42.1139C42.0766 14.836 42.0579 14.8547 42.0579 14.892C42.0766 15.4053 42.1046 15.7367 42.1419 15.886C42.2446 16.306 42.4639 16.6373 42.7999 16.88C43.1359 17.1227 43.5652 17.244 44.0879 17.244C44.4799 17.244 44.8252 17.1553 45.1239 16.978C45.4226 16.8007 45.6559 16.5487 45.8239 16.222C45.8799 16.138 45.9452 16.1193 46.0199 16.166L46.5659 16.488C46.6406 16.5347 46.6592 16.6 46.6219 16.684C46.3886 17.132 46.0386 17.4867 45.5719 17.748C45.1052 18 44.5686 18.126 43.9619 18.126C43.2992 18.1167 42.7439 17.958 42.2959 17.65C41.8479 17.342 41.5259 16.9127 41.3299 16.362C41.1619 15.914 41.0779 15.27 41.0779 14.43C41.0779 14.038 41.0826 13.7207 41.0919 13.478C41.1106 13.226 41.1479 13.002 41.2039 12.806C41.3626 12.1993 41.6799 11.714 42.1559 11.35C42.6412 10.986 43.2246 10.804 43.9059 10.804C44.7552 10.804 45.4086 11.0187 45.8659 11.448C46.3232 11.8773 46.6079 12.484 46.7199 13.268ZM43.9059 11.672C43.4486 11.672 43.0659 11.7933 42.7579 12.036C42.4592 12.2693 42.2632 12.5867 42.1699 12.988C42.1139 13.184 42.0766 13.5013 42.0579 13.94C42.0579 13.9773 42.0766 13.996 42.1139 13.996H45.7399C45.7772 13.996 45.7959 13.9773 45.7959 13.94C45.7772 13.52 45.7492 13.2213 45.7119 13.044C45.6092 12.624 45.3992 12.2927 45.0819 12.05C44.7739 11.798 44.3819 11.672 43.9059 11.672ZM51.5947 18.112C50.9227 18.112 50.3441 17.9393 49.8587 17.594C49.3734 17.2487 49.0374 16.7727 48.8507 16.166C48.7201 15.7367 48.6547 15.1627 48.6547 14.444C48.6547 13.7253 48.7201 13.156 48.8507 12.736C49.0281 12.1387 49.3594 11.6673 49.8447 11.322C50.3301 10.9767 50.9181 10.804 51.6087 10.804C52.2714 10.804 52.8407 10.9767 53.3167 11.322C53.8021 11.6673 54.1334 12.134 54.3107 12.722C54.4414 13.1233 54.5067 13.6973 54.5067 14.444C54.5067 15.2 54.4414 15.774 54.3107 16.166C54.1334 16.7727 53.8021 17.2487 53.3167 17.594C52.8407 17.9393 52.2667 18.112 51.5947 18.112ZM51.5947 17.244C52.0427 17.244 52.4254 17.1227 52.7427 16.88C53.0601 16.628 53.2747 16.292 53.3867 15.872C53.4707 15.536 53.5127 15.0647 53.5127 14.458C53.5127 13.842 53.4754 13.3707 53.4007 13.044C53.2887 12.624 53.0694 12.2927 52.7427 12.05C52.4254 11.798 52.0381 11.672 51.5807 11.672C51.1234 11.672 50.7361 11.798 50.4187 12.05C50.1014 12.2927 49.8867 12.624 49.7747 13.044C49.7001 13.3707 49.6627 13.842 49.6627 14.458C49.6627 15.074 49.7001 15.5453 49.7747 15.872C49.8774 16.292 50.0874 16.628 50.4047 16.88C50.7314 17.1227 51.1281 17.244 51.5947 17.244ZM62.7824 11.602C62.7824 11.6953 62.7357 11.742 62.6424 11.742H61.0604C61.023 11.742 61.0044 11.7607 61.0044 11.798V15.928C61.0044 16.376 61.1024 16.6933 61.2984 16.88C61.5037 17.0573 61.821 17.146 62.2504 17.146H62.6004C62.6937 17.146 62.7404 17.1927 62.7404 17.286V17.86C62.7404 17.9533 62.6937 18 62.6004 18C62.4884 18.0093 62.3157 18.014 62.0824 18.014C61.4104 18.014 60.9017 17.888 60.5564 17.636C60.211 17.384 60.0384 16.9173 60.0384 16.236V11.798C60.0384 11.7607 60.0197 11.742 59.9824 11.742H59.1284C59.035 11.742 58.9884 11.6953 58.9884 11.602V11.056C58.9884 10.9627 59.035 10.916 59.1284 10.916H59.9824C60.0197 10.916 60.0384 10.8973 60.0384 10.86V9.236C60.0384 9.14267 60.085 9.096 60.1784 9.096H60.8644C60.9577 9.096 61.0044 9.14267 61.0044 9.236V10.86C61.0044 10.8973 61.023 10.916 61.0604 10.916H62.6424C62.7357 10.916 62.7824 10.9627 62.7824 11.056V11.602ZM64.522 20.8C64.4567 20.8 64.424 20.7533 64.424 20.66V20.1C64.424 20.0067 64.4707 19.96 64.564 19.96H64.62C64.984 19.9507 65.264 19.8947 65.46 19.792C65.6653 19.6987 65.838 19.5167 65.978 19.246C66.1273 18.9847 66.286 18.5833 66.454 18.042C66.4727 18.0047 66.4727 17.9767 66.454 17.958L64.088 11.07L64.074 11.014C64.074 10.9487 64.116 10.916 64.2 10.916H64.942C65.026 10.916 65.082 10.9533 65.11 11.028L66.93 16.684C66.9393 16.7027 66.9533 16.712 66.972 16.712C66.9907 16.712 67.0047 16.7027 67.014 16.684L68.806 11.028C68.834 10.9533 68.89 10.916 68.974 10.916H69.702C69.8047 10.916 69.842 10.9673 69.814 11.07L67.224 18.616C67 19.2413 66.79 19.7033 66.594 20.002C66.398 20.3007 66.1507 20.506 65.852 20.618C65.5627 20.7393 65.152 20.8 64.62 20.8H64.522ZM66.846 10.188C66.7993 10.1787 66.7667 10.16 66.748 10.132C66.7293 10.0947 66.7293 10.0573 66.748 10.02C66.8133 9.88 66.888 9.754 66.972 9.642C67.056 9.53 67.14 9.432 67.224 9.348C67.3453 9.236 67.434 9.13333 67.49 9.04C67.546 8.94667 67.574 8.83 67.574 8.69C67.574 8.55933 67.5133 8.44267 67.392 8.34C67.28 8.23733 67.1447 8.186 66.986 8.186C66.8273 8.186 66.692 8.22333 66.58 8.298C66.4773 8.37267 66.3607 8.50333 66.23 8.69C66.174 8.76467 66.1087 8.774 66.034 8.718L65.81 8.578C65.7353 8.522 65.7213 8.45667 65.768 8.382C65.9453 8.11133 66.1227 7.92 66.3 7.808C66.4773 7.68667 66.7153 7.626 67.014 7.626C67.3593 7.626 67.6393 7.724 67.854 7.92C68.078 8.116 68.19 8.37267 68.19 8.69C68.19 8.89533 68.148 9.068 68.064 9.208C67.98 9.33867 67.8493 9.49733 67.672 9.684C67.476 9.86133 67.3453 10.02 67.28 10.16C67.2427 10.2253 67.182 10.2533 67.098 10.244L66.846 10.188ZM78.7478 11.056C78.7478 10.9627 78.7945 10.916 78.8878 10.916H79.6018C79.6952 10.916 79.7418 10.9627 79.7418 11.056V17.762C79.7418 18.8073 79.4385 19.5727 78.8318 20.058C78.2345 20.5433 77.4085 20.786 76.3538 20.786C76.1392 20.786 75.9758 20.7813 75.8638 20.772C75.7705 20.7627 75.7238 20.7113 75.7238 20.618L75.7518 19.974C75.7518 19.9273 75.7658 19.89 75.7938 19.862C75.8218 19.8433 75.8545 19.8387 75.8918 19.848L76.2698 19.862C77.1378 19.862 77.7678 19.6893 78.1598 19.344C78.5518 19.008 78.7478 18.4713 78.7478 17.734V17.216C78.7478 17.1973 78.7385 17.188 78.7198 17.188C78.7105 17.1787 78.6965 17.1833 78.6778 17.202C78.2485 17.762 77.6372 18.042 76.8438 18.042C76.2372 18.042 75.6958 17.8787 75.2198 17.552C74.7532 17.2253 74.4405 16.7633 74.2818 16.166C74.1698 15.7833 74.1138 15.214 74.1138 14.458C74.1138 14.0473 74.1232 13.702 74.1418 13.422C74.1698 13.142 74.2212 12.89 74.2958 12.666C74.4638 12.106 74.7672 11.658 75.2058 11.322C75.6445 10.9767 76.1718 10.804 76.7878 10.804C77.6185 10.804 78.2485 11.0793 78.6778 11.63C78.6965 11.6487 78.7105 11.6533 78.7198 11.644C78.7385 11.6347 78.7478 11.6207 78.7478 11.602V11.056ZM78.6778 15.858C78.7058 15.718 78.7245 15.5453 78.7338 15.34C78.7432 15.1347 78.7478 14.836 78.7478 14.444C78.7478 13.968 78.7432 13.6507 78.7338 13.492C78.7245 13.324 78.7012 13.17 78.6638 13.03C78.5892 12.638 78.4025 12.316 78.1038 12.064C77.8145 11.8027 77.4458 11.672 76.9978 11.672C76.5592 11.672 76.1858 11.798 75.8778 12.05C75.5792 12.302 75.3692 12.6287 75.2478 13.03C75.1545 13.3287 75.1078 13.7953 75.1078 14.43C75.1078 15.1113 75.1545 15.5827 75.2478 15.844C75.3412 16.236 75.5418 16.5627 75.8498 16.824C76.1672 17.076 76.5498 17.202 76.9978 17.202C77.4552 17.202 77.8285 17.076 78.1178 16.824C78.4165 16.572 78.6032 16.25 78.6778 15.858ZM82.684 9.628C82.46 9.628 82.2734 9.55333 82.124 9.404C81.9747 9.25467 81.9 9.068 81.9 8.844C81.9 8.61067 81.9747 8.424 82.124 8.284C82.2734 8.13467 82.46 8.06 82.684 8.06C82.908 8.06 83.0947 8.13467 83.244 8.284C83.3934 8.424 83.468 8.61067 83.468 8.844C83.468 9.068 83.3934 9.25467 83.244 9.404C83.0947 9.55333 82.908 9.628 82.684 9.628ZM82.292 17.986C82.1987 17.986 82.152 17.9393 82.152 17.846V11.042C82.152 10.9487 82.1987 10.902 82.292 10.902H83.006C83.0994 10.902 83.146 10.9487 83.146 11.042V17.846C83.146 17.9393 83.0994 17.986 83.006 17.986H82.292ZM88.1704 10.804C89.0104 10.804 89.6591 11.0187 90.1164 11.448C90.5737 11.8773 90.8024 12.4467 90.8024 13.156V17.86C90.8024 17.9533 90.7557 18 90.6624 18H89.9484C89.8551 18 89.8084 17.9533 89.8084 17.86V17.286C89.8084 17.2673 89.7991 17.2533 89.7804 17.244C89.7711 17.2347 89.7571 17.2393 89.7384 17.258C89.5051 17.538 89.2017 17.7527 88.8284 17.902C88.4551 18.042 88.0397 18.112 87.5824 18.112C86.9197 18.112 86.3644 17.944 85.9164 17.608C85.4684 17.272 85.2444 16.7587 85.2444 16.068C85.2444 15.368 85.4964 14.8173 86.0004 14.416C86.5137 14.0053 87.2231 13.8 88.1284 13.8H89.7524C89.7897 13.8 89.8084 13.7813 89.8084 13.744V13.212C89.8084 12.736 89.6731 12.3627 89.4024 12.092C89.1411 11.812 88.7304 11.672 88.1704 11.672C87.7224 11.672 87.3584 11.7607 87.0784 11.938C86.7984 12.106 86.6257 12.344 86.5604 12.652C86.5324 12.7453 86.4764 12.7873 86.3924 12.778L85.6364 12.68C85.5337 12.6613 85.4917 12.624 85.5104 12.568C85.5851 12.0453 85.8651 11.6207 86.3504 11.294C86.8357 10.9673 87.4424 10.804 88.1704 10.804ZM87.7784 17.258C88.3291 17.258 88.8051 17.1227 89.2064 16.852C89.6077 16.572 89.8084 16.1987 89.8084 15.732V14.64C89.8084 14.6027 89.7897 14.584 89.7524 14.584H88.2824C87.6664 14.584 87.1717 14.71 86.7984 14.962C86.4251 15.214 86.2384 15.564 86.2384 16.012C86.2384 16.4227 86.3784 16.7353 86.6584 16.95C86.9477 17.1553 87.3211 17.258 87.7784 17.258ZM87.7084 9.992C87.6524 9.992 87.6151 9.978 87.5964 9.95C87.5777 9.91267 87.5824 9.87067 87.6104 9.824L88.4504 8.298C88.4784 8.23267 88.5344 8.2 88.6184 8.2H89.2484C89.3044 8.2 89.3371 8.21867 89.3464 8.256C89.3651 8.284 89.3604 8.32133 89.3324 8.368L88.3804 9.894C88.3337 9.95933 88.2777 9.992 88.2124 9.992H87.7084ZM102.044 8.2C102.137 8.2 102.184 8.24667 102.184 8.34V8.942C102.184 9.03533 102.137 9.082 102.044 9.082H99.2998C99.2625 9.082 99.2438 9.10067 99.2438 9.138V17.86C99.2438 17.9533 99.1972 18 99.1038 18H98.3898C98.2965 18 98.2498 17.9533 98.2498 17.86V9.138C98.2498 9.10067 98.2312 9.082 98.1938 9.082H95.5618C95.4685 9.082 95.4218 9.03533 95.4218 8.942V8.34C95.4218 8.24667 95.4685 8.2 95.5618 8.2H102.044ZM106.991 10.818C107.737 10.818 108.33 11.0373 108.769 11.476C109.217 11.9147 109.441 12.5027 109.441 13.24V17.86C109.441 17.9533 109.394 18 109.301 18H108.587C108.493 18 108.447 17.9533 108.447 17.86V13.436C108.447 12.9227 108.288 12.5027 107.971 12.176C107.663 11.8493 107.261 11.686 106.767 11.686C106.253 11.686 105.838 11.8447 105.521 12.162C105.203 12.4793 105.045 12.8947 105.045 13.408V17.86C105.045 17.9533 104.998 18 104.905 18H104.191C104.097 18 104.051 17.9533 104.051 17.86V8.34C104.051 8.24667 104.097 8.2 104.191 8.2H104.905C104.998 8.2 105.045 8.24667 105.045 8.34V11.658C105.045 11.6767 105.049 11.6907 105.059 11.7C105.077 11.7093 105.091 11.7047 105.101 11.686C105.511 11.1073 106.141 10.818 106.991 10.818ZM112.409 9.628C112.185 9.628 111.999 9.55333 111.849 9.404C111.7 9.25467 111.625 9.068 111.625 8.844C111.625 8.61067 111.7 8.424 111.849 8.284C111.999 8.13467 112.185 8.06 112.409 8.06C112.633 8.06 112.82 8.13467 112.969 8.284C113.119 8.424 113.193 8.61067 113.193 8.844C113.193 9.068 113.119 9.25467 112.969 9.404C112.82 9.55333 112.633 9.628 112.409 9.628ZM112.017 17.986C111.924 17.986 111.877 17.9393 111.877 17.846V11.042C111.877 10.9487 111.924 10.902 112.017 10.902H112.731C112.825 10.902 112.871 10.9487 112.871 11.042V17.846C112.871 17.9393 112.825 17.986 112.731 17.986H112.017ZM112.409 20.576C112.195 20.576 112.017 20.506 111.877 20.366C111.737 20.226 111.667 20.0487 111.667 19.834C111.667 19.6193 111.737 19.442 111.877 19.302C112.017 19.162 112.195 19.092 112.409 19.092C112.624 19.092 112.801 19.162 112.941 19.302C113.081 19.442 113.151 19.6193 113.151 19.834C113.151 20.0487 113.077 20.226 112.927 20.366C112.787 20.506 112.615 20.576 112.409 20.576ZM121.567 11.602C121.567 11.6953 121.52 11.742 121.427 11.742H119.845C119.807 11.742 119.789 11.7607 119.789 11.798V15.928C119.789 16.376 119.887 16.6933 120.083 16.88C120.288 17.0573 120.605 17.146 121.035 17.146H121.385C121.478 17.146 121.525 17.1927 121.525 17.286V17.86C121.525 17.9533 121.478 18 121.385 18C121.273 18.0093 121.1 18.014 120.867 18.014C120.195 18.014 119.686 17.888 119.341 17.636C118.995 17.384 118.823 16.9173 118.823 16.236V11.798C118.823 11.7607 118.804 11.742 118.767 11.742H117.913C117.819 11.742 117.773 11.6953 117.773 11.602V11.056C117.773 10.9627 117.819 10.916 117.913 10.916H118.767C118.804 10.916 118.823 10.8973 118.823 10.86V9.236C118.823 9.14267 118.869 9.096 118.963 9.096H119.649C119.742 9.096 119.789 9.14267 119.789 9.236V10.86C119.789 10.8973 119.807 10.916 119.845 10.916H121.427C121.52 10.916 121.567 10.9627 121.567 11.056V11.602ZM126.484 10.846C126.792 10.846 127.058 10.9067 127.282 11.028C127.357 11.0653 127.385 11.126 127.366 11.21L127.212 11.896C127.184 11.9893 127.123 12.0173 127.03 11.98C126.871 11.9147 126.689 11.882 126.484 11.882L126.302 11.896C125.817 11.9147 125.415 12.0967 125.098 12.442C124.781 12.778 124.622 13.2073 124.622 13.73V17.86C124.622 17.9533 124.575 18 124.482 18H123.768C123.675 18 123.628 17.9533 123.628 17.86V11.056C123.628 10.9627 123.675 10.916 123.768 10.916H124.482C124.575 10.916 124.622 10.9627 124.622 11.056V11.91C124.622 11.938 124.627 11.9567 124.636 11.966C124.655 11.966 124.669 11.9567 124.678 11.938C124.874 11.5927 125.121 11.3267 125.42 11.14C125.728 10.944 126.083 10.846 126.484 10.846ZM135.336 9.782C135.429 9.782 135.476 9.82867 135.476 9.922C135.438 10.3233 135.303 10.6547 135.07 10.916C134.836 11.168 134.542 11.3407 134.188 11.434C134.16 11.4433 134.146 11.4667 134.146 11.504V17.86C134.146 17.9533 134.099 18 134.006 18H133.292C133.198 18 133.152 17.9533 133.152 17.86V17.258C133.152 17.2393 133.142 17.2253 133.124 17.216C133.105 17.2067 133.091 17.2113 133.082 17.23C132.69 17.8087 132.069 18.098 131.22 18.098C130.772 18.098 130.356 18.0093 129.974 17.832C129.6 17.6453 129.302 17.3793 129.078 17.034C128.863 16.6887 128.756 16.2733 128.756 15.788V11.056C128.756 10.9627 128.802 10.916 128.896 10.916H129.61C129.703 10.916 129.75 10.9627 129.75 11.056V15.494C129.75 16.026 129.899 16.4507 130.198 16.768C130.496 17.076 130.902 17.23 131.416 17.23C131.948 17.23 132.368 17.0713 132.676 16.754C132.993 16.4367 133.152 16.0167 133.152 15.494V11.056C133.152 10.9627 133.198 10.916 133.292 10.916H133.698C133.968 10.916 134.211 10.832 134.426 10.664C134.65 10.496 134.776 10.2487 134.804 9.922C134.804 9.82867 134.85 9.782 134.944 9.782H135.336ZM141.973 12.722C142.103 13.1233 142.169 13.6973 142.169 14.444C142.169 15.2 142.103 15.774 141.973 16.166C141.795 16.7727 141.464 17.2487 140.979 17.594C140.503 17.9393 139.929 18.112 139.257 18.112C138.585 18.112 138.006 17.9393 137.521 17.594C137.035 17.2487 136.699 16.7727 136.513 16.166C136.382 15.7367 136.317 15.1627 136.317 14.444C136.317 13.7253 136.382 13.156 136.513 12.736C136.69 12.1387 137.021 11.6673 137.507 11.322C137.992 10.9767 138.58 10.804 139.271 10.804C139.504 10.804 139.775 10.8367 140.083 10.902C140.092 10.9113 140.115 10.916 140.153 10.916C140.405 10.8787 140.619 10.776 140.797 10.608C140.983 10.44 141.091 10.2113 141.119 9.922C141.119 9.82867 141.165 9.782 141.259 9.782H141.651C141.744 9.782 141.791 9.82867 141.791 9.922C141.763 10.2207 141.679 10.482 141.539 10.706C141.399 10.93 141.217 11.1073 140.993 11.238C140.955 11.266 140.951 11.294 140.979 11.322C141.455 11.658 141.786 12.1247 141.973 12.722ZM141.049 15.872C141.133 15.536 141.175 15.0647 141.175 14.458C141.175 13.842 141.137 13.3707 141.063 13.044C140.951 12.624 140.731 12.2927 140.405 12.05C140.087 11.798 139.7 11.672 139.243 11.672C138.785 11.672 138.398 11.798 138.081 12.05C137.763 12.2927 137.549 12.624 137.437 13.044C137.362 13.3707 137.325 13.842 137.325 14.458C137.325 15.074 137.362 15.5453 137.437 15.872C137.539 16.292 137.749 16.628 138.067 16.88C138.393 17.1227 138.79 17.244 139.257 17.244C139.705 17.244 140.087 17.1227 140.405 16.88C140.722 16.628 140.937 16.292 141.049 15.872ZM139.565 9.824C139.583 9.86133 139.593 9.88933 139.593 9.908C139.593 9.964 139.551 9.992 139.467 9.992H138.963C138.897 9.992 138.841 9.95933 138.795 9.894L137.843 8.368C137.824 8.33067 137.815 8.30267 137.815 8.284C137.815 8.228 137.852 8.2 137.927 8.2H138.557C138.641 8.2 138.697 8.23267 138.725 8.298L139.565 9.824ZM147.14 10.818C147.887 10.818 148.48 11.0373 148.918 11.476C149.366 11.9147 149.59 12.5027 149.59 13.24V17.86C149.59 17.9533 149.544 18 149.45 18H148.736C148.643 18 148.596 17.9533 148.596 17.86V13.436C148.596 12.9227 148.438 12.5027 148.12 12.176C147.812 11.8493 147.411 11.686 146.916 11.686C146.403 11.686 145.988 11.8447 145.67 12.162C145.353 12.4793 145.194 12.8947 145.194 13.408V17.86C145.194 17.9533 145.148 18 145.054 18H144.34C144.247 18 144.2 17.9533 144.2 17.86V11.056C144.2 10.9627 144.247 10.916 144.34 10.916H145.054C145.148 10.916 145.194 10.9627 145.194 11.056V11.658C145.194 11.6767 145.199 11.6907 145.208 11.7C145.227 11.7093 145.241 11.7047 145.25 11.686C145.661 11.1073 146.291 10.818 147.14 10.818ZM156.255 11.056C156.255 10.9627 156.302 10.916 156.395 10.916H157.109C157.203 10.916 157.249 10.9627 157.249 11.056V17.762C157.249 18.8073 156.946 19.5727 156.339 20.058C155.742 20.5433 154.916 20.786 153.861 20.786C153.647 20.786 153.483 20.7813 153.371 20.772C153.278 20.7627 153.231 20.7113 153.231 20.618L153.259 19.974C153.259 19.9273 153.273 19.89 153.301 19.862C153.329 19.8433 153.362 19.8387 153.399 19.848L153.777 19.862C154.645 19.862 155.275 19.6893 155.667 19.344C156.059 19.008 156.255 18.4713 156.255 17.734V17.216C156.255 17.1973 156.246 17.188 156.227 17.188C156.218 17.1787 156.204 17.1833 156.185 17.202C155.756 17.762 155.145 18.042 154.351 18.042C153.745 18.042 153.203 17.8787 152.727 17.552C152.261 17.2253 151.948 16.7633 151.789 16.166C151.677 15.7833 151.621 15.214 151.621 14.458C151.621 14.0473 151.631 13.702 151.649 13.422C151.677 13.142 151.729 12.89 151.803 12.666C151.971 12.106 152.275 11.658 152.713 11.322C153.152 10.9767 153.679 10.804 154.295 10.804C155.126 10.804 155.756 11.0793 156.185 11.63C156.204 11.6487 156.218 11.6533 156.227 11.644C156.246 11.6347 156.255 11.6207 156.255 11.602V11.056ZM156.185 15.858C156.213 15.718 156.232 15.5453 156.241 15.34C156.251 15.1347 156.255 14.836 156.255 14.444C156.255 13.968 156.251 13.6507 156.241 13.492C156.232 13.324 156.209 13.17 156.171 13.03C156.097 12.638 155.91 12.316 155.611 12.064C155.322 11.8027 154.953 11.672 154.505 11.672C154.067 11.672 153.693 11.798 153.385 12.05C153.087 12.302 152.877 12.6287 152.755 13.03C152.662 13.3287 152.615 13.7953 152.615 14.43C152.615 15.1113 152.662 15.5827 152.755 15.844C152.849 16.236 153.049 16.5627 153.357 16.824C153.675 17.076 154.057 17.202 154.505 17.202C154.963 17.202 155.336 17.076 155.625 16.824C155.924 16.572 156.111 16.25 156.185 15.858ZM169.63 10.818C170.33 10.818 170.881 11.028 171.282 11.448C171.693 11.868 171.898 12.442 171.898 13.17V17.86C171.898 17.9533 171.852 18 171.758 18H171.058C170.965 18 170.918 17.9533 170.918 17.86V13.366C170.918 12.8527 170.769 12.4467 170.47 12.148C170.181 11.84 169.798 11.686 169.322 11.686C168.828 11.686 168.426 11.8353 168.118 12.134C167.82 12.4327 167.67 12.834 167.67 13.338V17.86C167.67 17.9533 167.624 18 167.53 18H166.816C166.723 18 166.676 17.9533 166.676 17.86V13.366C166.676 12.8527 166.532 12.4467 166.242 12.148C165.953 11.84 165.566 11.686 165.08 11.686C164.586 11.686 164.189 11.8353 163.89 12.134C163.601 12.4327 163.456 12.834 163.456 13.338V17.86C163.456 17.9533 163.41 18 163.316 18H162.602C162.509 18 162.462 17.9533 162.462 17.86V11.056C162.462 10.9627 162.509 10.916 162.602 10.916H163.316C163.41 10.916 163.456 10.9627 163.456 11.056V11.616C163.456 11.6347 163.461 11.6487 163.47 11.658C163.489 11.658 163.508 11.6487 163.526 11.63C163.732 11.3593 163.993 11.1587 164.31 11.028C164.637 10.888 164.996 10.818 165.388 10.818C165.874 10.818 166.289 10.916 166.634 11.112C166.98 11.308 167.241 11.5927 167.418 11.966C167.437 12.0127 167.46 12.0127 167.488 11.966C167.694 11.5833 167.983 11.2987 168.356 11.112C168.73 10.916 169.154 10.818 169.63 10.818ZM179.505 12.722C179.635 13.1233 179.701 13.6973 179.701 14.444C179.701 15.2 179.635 15.774 179.505 16.166C179.327 16.7727 178.996 17.2487 178.511 17.594C178.035 17.9393 177.461 18.112 176.789 18.112C176.117 18.112 175.538 17.9393 175.053 17.594C174.567 17.2487 174.231 16.7727 174.045 16.166C173.914 15.7367 173.849 15.1627 173.849 14.444C173.849 13.7253 173.914 13.156 174.045 12.736C174.222 12.1387 174.553 11.6673 175.039 11.322C175.524 10.9767 176.112 10.804 176.803 10.804C177.036 10.804 177.307 10.8367 177.615 10.902C177.624 10.9113 177.647 10.916 177.685 10.916C177.937 10.8787 178.151 10.776 178.329 10.608C178.515 10.44 178.623 10.2113 178.651 9.922C178.651 9.82867 178.697 9.782 178.791 9.782H179.183C179.276 9.782 179.323 9.82867 179.323 9.922C179.295 10.2207 179.211 10.482 179.071 10.706C178.931 10.93 178.749 11.1073 178.525 11.238C178.487 11.266 178.483 11.294 178.511 11.322C178.987 11.658 179.318 12.1247 179.505 12.722ZM178.581 15.872C178.665 15.536 178.707 15.0647 178.707 14.458C178.707 13.842 178.669 13.3707 178.595 13.044C178.483 12.624 178.263 12.2927 177.937 12.05C177.619 11.798 177.232 11.672 176.775 11.672C176.317 11.672 175.93 11.798 175.613 12.05C175.295 12.2927 175.081 12.624 174.969 13.044C174.894 13.3707 174.857 13.842 174.857 14.458C174.857 15.074 174.894 15.5453 174.969 15.872C175.071 16.292 175.281 16.628 175.599 16.88C175.925 17.1227 176.322 17.244 176.789 17.244C177.237 17.244 177.619 17.1227 177.937 16.88C178.254 16.628 178.469 16.292 178.581 15.872ZM176.257 9.992C176.201 9.992 176.163 9.978 176.145 9.95C176.126 9.91267 176.131 9.87067 176.159 9.824L176.999 8.298C177.027 8.23267 177.083 8.2 177.167 8.2H177.797C177.853 8.2 177.885 8.21867 177.895 8.256C177.913 8.284 177.909 8.32133 177.881 8.368L176.929 9.894C176.882 9.95933 176.826 9.992 176.761 9.992H176.257ZM182.405 9.628C182.181 9.628 181.994 9.55333 181.845 9.404C181.695 9.25467 181.621 9.068 181.621 8.844C181.621 8.61067 181.695 8.424 181.845 8.284C181.994 8.13467 182.181 8.06 182.405 8.06C182.629 8.06 182.815 8.13467 182.965 8.284C183.114 8.424 183.189 8.61067 183.189 8.844C183.189 9.068 183.114 9.25467 182.965 9.404C182.815 9.55333 182.629 9.628 182.405 9.628ZM182.013 17.986C181.919 17.986 181.873 17.9393 181.873 17.846V11.042C181.873 10.9487 181.919 10.902 182.013 10.902H182.727C182.82 10.902 182.867 10.9487 182.867 11.042V17.846C182.867 17.9393 182.82 17.986 182.727 17.986H182.013ZM191.324 10.818C192.07 10.818 192.663 11.0373 193.102 11.476C193.55 11.9147 193.774 12.5027 193.774 13.24V17.86C193.774 17.9533 193.727 18 193.634 18H192.92C192.826 18 192.78 17.9533 192.78 17.86V13.436C192.78 12.9227 192.621 12.5027 192.304 12.176C191.996 11.8493 191.594 11.686 191.1 11.686C190.586 11.686 190.171 11.8447 189.854 12.162C189.536 12.4793 189.378 12.8947 189.378 13.408V17.86C189.378 17.9533 189.331 18 189.238 18H188.524C188.43 18 188.384 17.9533 188.384 17.86V11.056C188.384 10.9627 188.43 10.916 188.524 10.916H189.238C189.331 10.916 189.378 10.9627 189.378 11.056V11.658C189.378 11.6767 189.382 11.6907 189.392 11.7C189.41 11.7093 189.424 11.7047 189.434 11.686C189.844 11.1073 190.474 10.818 191.324 10.818ZM198.997 10.818C199.743 10.818 200.336 11.0373 200.775 11.476C201.223 11.9147 201.447 12.5027 201.447 13.24V17.86C201.447 17.9533 201.4 18 201.307 18H200.593C200.499 18 200.453 17.9533 200.453 17.86V13.436C200.453 12.9227 200.294 12.5027 199.977 12.176C199.669 11.8493 199.267 11.686 198.773 11.686C198.259 11.686 197.844 11.8447 197.527 12.162C197.209 12.4793 197.051 12.8947 197.051 13.408V17.86C197.051 17.9533 197.004 18 196.911 18H196.197C196.103 18 196.057 17.9533 196.057 17.86V8.34C196.057 8.24667 196.103 8.2 196.197 8.2H196.911C197.004 8.2 197.051 8.24667 197.051 8.34V11.658C197.051 11.6767 197.055 11.6907 197.065 11.7C197.083 11.7093 197.097 11.7047 197.107 11.686C197.517 11.1073 198.147 10.818 198.997 10.818ZM206.194 10.804C207.034 10.804 207.682 11.0187 208.14 11.448C208.597 11.8773 208.826 12.4467 208.826 13.156V17.86C208.826 17.9533 208.779 18 208.686 18H207.972C207.878 18 207.832 17.9533 207.832 17.86V17.286C207.832 17.2673 207.822 17.2533 207.804 17.244C207.794 17.2347 207.78 17.2393 207.762 17.258C207.528 17.538 207.225 17.7527 206.852 17.902C206.478 18.042 206.063 18.112 205.606 18.112C204.943 18.112 204.388 17.944 203.94 17.608C203.492 17.272 203.268 16.7587 203.268 16.068C203.268 15.368 203.52 14.8173 204.024 14.416C204.537 14.0053 205.246 13.8 206.152 13.8H207.776C207.813 13.8 207.832 13.7813 207.832 13.744V13.212C207.832 12.736 207.696 12.3627 207.426 12.092C207.164 11.812 206.754 11.672 206.194 11.672C205.746 11.672 205.382 11.7607 205.102 11.938C204.822 12.106 204.649 12.344 204.584 12.652C204.556 12.7453 204.5 12.7873 204.416 12.778L203.66 12.68C203.557 12.6613 203.515 12.624 203.534 12.568C203.608 12.0453 203.888 11.6207 204.374 11.294C204.859 10.9673 205.466 10.804 206.194 10.804ZM205.802 17.258C206.352 17.258 206.828 17.1227 207.23 16.852C207.631 16.572 207.832 16.1987 207.832 15.732V14.64C207.832 14.6027 207.813 14.584 207.776 14.584H206.306C205.69 14.584 205.195 14.71 204.822 14.962C204.448 15.214 204.262 15.564 204.262 16.012C204.262 16.4227 204.402 16.7353 204.682 16.95C204.971 17.1553 205.344 17.258 205.802 17.258ZM204.556 9.964C204.5 9.964 204.462 9.95 204.444 9.922C204.425 9.88467 204.434 9.84267 204.472 9.796L205.592 8.284C205.629 8.228 205.69 8.2 205.774 8.2H206.586C206.67 8.2 206.73 8.228 206.768 8.284L207.902 9.796C207.92 9.81467 207.93 9.84267 207.93 9.88C207.93 9.89867 207.92 9.91733 207.902 9.936C207.883 9.95467 207.855 9.964 207.818 9.964H207.258C207.174 9.964 207.113 9.936 207.076 9.88L206.236 8.732C206.226 8.71333 206.212 8.704 206.194 8.704C206.175 8.704 206.161 8.71333 206.152 8.732L205.298 9.88C205.26 9.936 205.2 9.964 205.116 9.964H204.556ZM208.042 8.928C207.986 8.928 207.948 8.914 207.93 8.886C207.911 8.84867 207.916 8.80667 207.944 8.76L208.784 7.234C208.812 7.16867 208.868 7.136 208.952 7.136H209.582C209.638 7.136 209.67 7.15467 209.68 7.192C209.698 7.22 209.694 7.25733 209.666 7.304L208.714 8.83C208.667 8.89533 208.611 8.928 208.546 8.928H208.042ZM214.198 11.602C214.198 11.6953 214.152 11.742 214.058 11.742H212.476C212.439 11.742 212.42 11.7607 212.42 11.798V15.928C212.42 16.376 212.518 16.6933 212.714 16.88C212.92 17.0573 213.237 17.146 213.666 17.146H214.016C214.11 17.146 214.156 17.1927 214.156 17.286V17.86C214.156 17.9533 214.11 18 214.016 18C213.904 18.0093 213.732 18.014 213.498 18.014C212.826 18.014 212.318 17.888 211.972 17.636C211.627 17.384 211.454 16.9173 211.454 16.236V11.798C211.454 11.7607 211.436 11.742 211.398 11.742H210.544C210.451 11.742 210.404 11.6953 210.404 11.602V11.056C210.404 10.9627 210.451 10.916 210.544 10.916H211.398C211.436 10.916 211.454 10.8973 211.454 10.86V9.236C211.454 9.14267 211.501 9.096 211.594 9.096H212.28C212.374 9.096 212.42 9.14267 212.42 9.236V10.86C212.42 10.8973 212.439 10.916 212.476 10.916H214.058C214.152 10.916 214.198 10.9627 214.198 11.056V11.602Z" fill="white" fill-opacity="0.8"/>
</svg>
