<svg width="133" height="30" viewBox="0 0 133 30" fill="none" xmlns="http://www.w3.org/2000/svg">
<path d="M1.776 23V5.96H13.224V8.864H5.088V13.256H11.856V15.944H5.088V23H1.776ZM18.5303 5.96H21.4583L27.9383 23H24.5303L22.9463 18.752H16.9943L15.4342 23H12.0263L18.5303 5.96ZM22.3463 16.424L19.9943 9.728L17.5463 16.424H22.3463ZM28.1424 14.36C28.1424 13.32 28.3264 12.296 28.6944 11.288C29.0784 10.264 29.6304 9.352 30.3504 8.552C31.0704 7.752 31.9504 7.104 32.9904 6.608C34.0304 6.112 35.2144 5.864 36.5424 5.864C38.1104 5.864 39.4624 6.208 40.5984 6.896C41.7504 7.584 42.6064 8.48 43.1664 9.584L40.6224 11.336C40.3984 10.856 40.1264 10.456 39.8064 10.136C39.4864 9.8 39.1424 9.536 38.7744 9.344C38.4064 9.152 38.0224 9.016 37.6224 8.936C37.2224 8.84 36.8304 8.792 36.4464 8.792C35.6144 8.792 34.8864 8.96 34.2624 9.296C33.6544 9.632 33.1424 10.072 32.7264 10.616C32.3264 11.144 32.0224 11.752 31.8144 12.44C31.6064 13.112 31.5024 13.784 31.5024 14.456C31.5024 15.208 31.6224 15.936 31.8624 16.64C32.1024 17.328 32.4384 17.936 32.8704 18.464C33.3184 18.992 33.8464 19.416 34.4544 19.736C35.0784 20.056 35.7584 20.216 36.4944 20.216C36.8784 20.216 37.2784 20.168 37.6944 20.072C38.1104 19.976 38.5024 19.824 38.8704 19.616C39.2544 19.408 39.6064 19.144 39.9264 18.824C40.2464 18.488 40.5024 18.088 40.6944 17.624L43.4064 19.184C43.1344 19.824 42.7424 20.392 42.2304 20.888C41.7344 21.368 41.1664 21.776 40.5264 22.112C39.9024 22.448 39.2304 22.704 38.5104 22.88C37.7904 23.056 37.0864 23.144 36.3984 23.144C35.1824 23.144 34.0704 22.888 33.0624 22.376C32.0544 21.864 31.1824 21.2 30.4464 20.384C29.7264 19.552 29.1584 18.616 28.7424 17.576C28.3424 16.52 28.1424 15.448 28.1424 14.36Z" fill="white"/>
<path d="M44.5956 14.36C44.5956 13.32 44.7796 12.296 45.1476 11.288C45.5316 10.264 46.0836 9.352 46.8036 8.552C47.5236 7.752 48.4036 7.104 49.4436 6.608C50.4836 6.112 51.6676 5.864 52.9956 5.864C54.5636 5.864 55.9156 6.208 57.0516 6.896C58.2036 7.584 59.0596 8.48 59.6196 9.584L57.0756 11.336C56.8516 10.856 56.5796 10.456 56.2596 10.136C55.9396 9.8 55.5956 9.536 55.2276 9.344C54.8596 9.152 54.4756 9.016 54.0756 8.936C53.6756 8.84 53.2836 8.792 52.8996 8.792C52.0676 8.792 51.3396 8.96 50.7156 9.296C50.1076 9.632 49.5956 10.072 49.1796 10.616C48.7796 11.144 48.4756 11.752 48.2676 12.44C48.0596 13.112 47.9556 13.784 47.9556 14.456C47.9556 15.208 48.0756 15.936 48.3156 16.64C48.5556 17.328 48.8916 17.936 49.3236 18.464C49.7716 18.992 50.2996 19.416 50.9076 19.736C51.5316 20.056 52.2116 20.216 52.9476 20.216C53.3316 20.216 53.7316 20.168 54.1476 20.072C54.5636 19.976 54.9556 19.824 55.3236 19.616C55.7076 19.408 56.0596 19.144 56.3796 18.824C56.6996 18.488 56.9556 18.088 57.1476 17.624L59.8596 19.184C59.5876 19.824 59.1956 20.392 58.6836 20.888C58.1876 21.368 57.6196 21.776 56.9796 22.112C56.3556 22.448 55.6836 22.704 54.9636 22.88C54.2436 23.056 53.5396 23.144 52.8516 23.144C51.6356 23.144 50.5236 22.888 49.5156 22.376C48.5076 21.864 47.6356 21.2 46.8996 20.384C46.1796 19.552 45.6116 18.616 45.1956 17.576C44.7956 16.52 44.5956 15.448 44.5956 14.36ZM69.1886 23.12C67.9406 23.12 66.8046 22.88 65.7806 22.4C64.7726 21.904 63.9006 21.256 63.1646 20.456C62.4446 19.64 61.8846 18.712 61.4846 17.672C61.0846 16.632 60.8846 15.568 60.8846 14.48C60.8846 13.344 61.0926 12.256 61.5086 11.216C61.9406 10.176 62.5246 9.256 63.2606 8.456C64.0126 7.656 64.9006 7.024 65.9246 6.56C66.9486 6.08 68.0606 5.84 69.2606 5.84C70.4926 5.84 71.6126 6.096 72.6206 6.608C73.6446 7.104 74.5166 7.76 75.2366 8.576C75.9566 9.392 76.5166 10.32 76.9166 11.36C77.3166 12.4 77.5166 13.456 77.5166 14.528C77.5166 15.664 77.3086 16.752 76.8926 17.792C76.4766 18.816 75.9006 19.728 75.1646 20.528C74.4286 21.312 73.5486 21.944 72.5246 22.424C71.5006 22.888 70.3886 23.12 69.1886 23.12ZM64.2446 14.48C64.2446 15.216 64.3566 15.928 64.5806 16.616C64.8046 17.304 65.1246 17.912 65.5406 18.44C65.9726 18.968 66.4926 19.392 67.1006 19.712C67.7246 20.032 68.4286 20.192 69.2126 20.192C70.0126 20.192 70.7166 20.032 71.3246 19.712C71.9486 19.376 72.4686 18.936 72.8846 18.392C73.3166 17.848 73.6366 17.24 73.8446 16.568C74.0686 15.88 74.1806 15.184 74.1806 14.48C74.1806 13.744 74.0606 13.032 73.8206 12.344C73.5966 11.656 73.2686 11.048 72.8366 10.52C72.4206 9.992 71.9006 9.576 71.2766 9.272C70.6686 8.952 69.9806 8.792 69.2126 8.792C68.4126 8.792 67.7006 8.96 67.0766 9.296C66.4526 9.616 65.9326 10.048 65.5166 10.592C65.1006 11.12 64.7806 11.728 64.5566 12.416C64.3486 13.088 64.2446 13.776 64.2446 14.48ZM80.0573 23V5.96H83.3693V23H80.0573ZM90.2364 12.08V23H86.9244V5.96H89.4924L98.3724 17.144V5.984H101.684V23H98.9964L90.2364 12.08Z" fill="#E26B0F"/>
</svg>
