<svg width="137" height="24" viewBox="0 0 137 24" fill="none" xmlns="http://www.w3.org/2000/svg">
<path d="M0.776 18V0.959999H12.224V3.864H4.088V8.256H10.856V10.944H4.088V18H0.776ZM17.5303 0.959999H20.4583L26.9383 18H23.5303L21.9463 13.752H15.9943L14.4342 18H11.0263L17.5303 0.959999ZM21.3463 11.424L18.9943 4.728L16.5463 11.424H21.3463ZM27.1424 9.36C27.1424 8.32 27.3264 7.296 27.6944 6.288C28.0784 5.264 28.6304 4.352 29.3504 3.552C30.0704 2.752 30.9504 2.104 31.9904 1.608C33.0304 1.112 34.2144 0.863999 35.5424 0.863999C37.1104 0.863999 38.4624 1.208 39.5984 1.896C40.7504 2.584 41.6064 3.48 42.1664 4.584L39.6224 6.336C39.3984 5.856 39.1264 5.456 38.8064 5.136C38.4864 4.8 38.1424 4.536 37.7744 4.344C37.4064 4.152 37.0224 4.016 36.6224 3.936C36.2224 3.84 35.8304 3.792 35.4464 3.792C34.6144 3.792 33.8864 3.96 33.2624 4.296C32.6544 4.632 32.1424 5.072 31.7264 5.616C31.3264 6.144 31.0224 6.752 30.8144 7.44C30.6064 8.112 30.5024 8.784 30.5024 9.456C30.5024 10.208 30.6224 10.936 30.8624 11.64C31.1024 12.328 31.4384 12.936 31.8704 13.464C32.3184 13.992 32.8464 14.416 33.4544 14.736C34.0784 15.056 34.7584 15.216 35.4944 15.216C35.8784 15.216 36.2784 15.168 36.6944 15.072C37.1104 14.976 37.5024 14.824 37.8704 14.616C38.2544 14.408 38.6064 14.144 38.9264 13.824C39.2464 13.488 39.5024 13.088 39.6944 12.624L42.4064 14.184C42.1344 14.824 41.7424 15.392 41.2304 15.888C40.7344 16.368 40.1664 16.776 39.5264 17.112C38.9024 17.448 38.2304 17.704 37.5104 17.88C36.7904 18.056 36.0864 18.144 35.3984 18.144C34.1824 18.144 33.0704 17.888 32.0624 17.376C31.0544 16.864 30.1824 16.2 29.4464 15.384C28.7264 14.552 28.1584 13.616 27.7424 12.576C27.3424 11.52 27.1424 10.448 27.1424 9.36Z" fill="white"/>
<path d="M62.2252 16.08C60.8652 17.44 59.2812 18.12 57.4732 18.12C56.3532 18.12 55.2972 17.896 54.3052 17.448C53.3292 17 52.4732 16.384 51.7372 15.6C51.0172 14.816 50.4412 13.896 50.0092 12.84C49.5932 11.768 49.3852 10.616 49.3852 9.384C49.3852 8.216 49.5932 7.12 50.0092 6.096C50.4412 5.056 51.0252 4.152 51.7612 3.384C52.5132 2.6 53.3932 1.984 54.4012 1.536C55.4092 1.072 56.5052 0.839999 57.6892 0.839999C59.2892 0.839999 60.6572 1.176 61.7932 1.848C62.9452 2.52 63.8092 3.424 64.3852 4.56L61.9132 6.384C61.4812 5.536 60.8732 4.888 60.0892 4.44C59.3212 3.992 58.4812 3.768 57.5692 3.768C56.8492 3.768 56.1852 3.92 55.5772 4.224C54.9852 4.528 54.4732 4.944 54.0412 5.472C53.6252 6 53.2972 6.608 53.0572 7.296C52.8332 7.984 52.7212 8.712 52.7212 9.48C52.7212 10.28 52.8492 11.032 53.1052 11.736C53.3612 12.424 53.7132 13.024 54.1612 13.536C54.6092 14.048 55.1372 14.456 55.7452 14.76C56.3692 15.048 57.0412 15.192 57.7612 15.192C59.4092 15.192 60.8972 14.416 62.2252 12.864V11.664H58.7932V9.24H64.9612V18H62.2252V16.08ZM70.9038 18.24C70.2958 18.24 69.7278 18.144 69.1998 17.952C68.6718 17.744 68.2158 17.464 67.8318 17.112C67.4478 16.744 67.1438 16.32 66.9198 15.84C66.7118 15.36 66.6078 14.832 66.6078 14.256C66.6078 13.664 66.7358 13.12 66.9918 12.624C67.2638 12.112 67.6318 11.68 68.0958 11.328C68.5758 10.976 69.1438 10.704 69.7998 10.512C70.4558 10.304 71.1758 10.2 71.9598 10.2C72.5198 10.2 73.0638 10.248 73.5918 10.344C74.1358 10.44 74.6158 10.576 75.0318 10.752V10.032C75.0318 9.2 74.7918 8.56 74.3118 8.112C73.8478 7.664 73.1518 7.44 72.2238 7.44C71.5518 7.44 70.8958 7.56 70.2558 7.8C69.6158 8.04 68.9598 8.392 68.2878 8.856L67.3038 6.816C68.9198 5.744 70.6638 5.208 72.5358 5.208C74.3438 5.208 75.7438 5.656 76.7358 6.552C77.7438 7.432 78.2478 8.712 78.2478 10.392V14.304C78.2478 14.64 78.3038 14.88 78.4158 15.024C78.5438 15.168 78.7438 15.248 79.0158 15.264V18C78.4718 18.112 77.9998 18.168 77.5998 18.168C76.9918 18.168 76.5198 18.032 76.1838 17.76C75.8638 17.488 75.6638 17.128 75.5838 16.68L75.5118 15.984C74.9518 16.72 74.2718 17.28 73.4718 17.664C72.6718 18.048 71.8158 18.24 70.9038 18.24ZM71.8158 15.888C72.3598 15.888 72.8718 15.792 73.3518 15.6C73.8478 15.408 74.2318 15.152 74.5038 14.832C74.8558 14.56 75.0318 14.256 75.0318 13.92V12.48C74.6478 12.336 74.2318 12.224 73.7838 12.144C73.3358 12.048 72.9038 12 72.4878 12C71.6558 12 70.9758 12.192 70.4478 12.576C69.9198 12.944 69.6558 13.416 69.6558 13.992C69.6558 14.536 69.8638 14.992 70.2798 15.36C70.6958 15.712 71.2078 15.888 71.8158 15.888ZM100.789 18H97.5731V10.944C97.5731 9.936 97.3971 9.2 97.0451 8.736C96.7091 8.272 96.2371 8.04 95.6291 8.04C94.9891 8.04 94.3891 8.288 93.8291 8.784C93.2691 9.264 92.8691 9.896 92.6291 10.68V18H89.4131V10.944C89.4131 9.936 89.2371 9.2 88.8851 8.736C88.5491 8.272 88.0771 8.04 87.4691 8.04C86.8451 8.04 86.2451 8.28 85.6691 8.76C85.1091 9.24 84.7091 9.872 84.4691 10.656V18H81.2531V5.424H84.1571V7.752C84.6211 6.936 85.2531 6.312 86.0531 5.88C86.8691 5.432 87.7971 5.208 88.8371 5.208C89.8931 5.208 90.7091 5.464 91.2851 5.976C91.8611 6.488 92.2291 7.12 92.3891 7.872C92.9011 7.008 93.5491 6.352 94.3331 5.904C95.1171 5.44 96.0131 5.208 97.0211 5.208C97.7891 5.208 98.4211 5.352 98.9171 5.64C99.4131 5.928 99.7971 6.304 100.069 6.768C100.341 7.232 100.525 7.76 100.621 8.352C100.733 8.944 100.789 9.544 100.789 10.152V18ZM103.589 18V5.424H106.805V18H103.589ZM103.589 3.672V0.48H106.805V3.672H103.589ZM121.394 18H118.178V10.944C118.178 9.936 118.002 9.2 117.65 8.736C117.298 8.272 116.81 8.04 116.186 8.04C115.866 8.04 115.538 8.104 115.202 8.232C114.866 8.36 114.546 8.544 114.242 8.784C113.954 9.008 113.69 9.28 113.45 9.6C113.21 9.92 113.034 10.272 112.922 10.656V18H109.706V5.424H112.61V7.752C113.074 6.952 113.746 6.328 114.626 5.88C115.506 5.432 116.498 5.208 117.602 5.208C118.386 5.208 119.026 5.352 119.522 5.64C120.018 5.928 120.402 6.304 120.674 6.768C120.946 7.232 121.13 7.76 121.226 8.352C121.338 8.944 121.394 9.544 121.394 10.152V18ZM129.111 18.072C128.263 18.072 127.495 17.904 126.807 17.568C126.119 17.232 125.519 16.776 125.007 16.2C124.511 15.608 124.127 14.928 123.855 14.16C123.583 13.392 123.447 12.576 123.447 11.712C123.447 10.8 123.591 9.952 123.879 9.168C124.167 8.384 124.567 7.696 125.079 7.104C125.591 6.512 126.207 6.048 126.927 5.712C127.647 5.376 128.439 5.208 129.303 5.208C130.279 5.208 131.135 5.432 131.871 5.88C132.607 6.312 133.215 6.896 133.695 7.632V5.424H136.503V17.4C136.503 18.328 136.327 19.16 135.975 19.896C135.623 20.632 135.135 21.256 134.511 21.768C133.903 22.28 133.167 22.672 132.303 22.944C131.455 23.216 130.527 23.352 129.519 23.352C128.143 23.352 126.983 23.12 126.039 22.656C125.111 22.208 124.311 21.568 123.639 20.736L125.391 19.032C125.871 19.624 126.471 20.088 127.191 20.424C127.927 20.76 128.703 20.928 129.519 20.928C130.015 20.928 130.487 20.856 130.935 20.712C131.399 20.584 131.807 20.376 132.159 20.088C132.511 19.8 132.783 19.432 132.975 18.984C133.183 18.536 133.287 18.008 133.287 17.4V15.816C132.871 16.536 132.287 17.096 131.535 17.496C130.783 17.88 129.975 18.072 129.111 18.072ZM130.191 15.504C130.543 15.504 130.879 15.448 131.199 15.336C131.519 15.224 131.815 15.072 132.087 14.88C132.359 14.688 132.599 14.464 132.807 14.208C133.015 13.952 133.175 13.68 133.287 13.392V10.392C132.999 9.656 132.543 9.064 131.919 8.616C131.311 8.168 130.671 7.944 129.999 7.944C129.503 7.944 129.055 8.056 128.655 8.28C128.255 8.488 127.911 8.776 127.623 9.144C127.335 9.496 127.111 9.904 126.951 10.368C126.807 10.832 126.735 11.312 126.735 11.808C126.735 12.32 126.823 12.8 126.999 13.248C127.175 13.696 127.415 14.088 127.719 14.424C128.039 14.76 128.407 15.024 128.823 15.216C129.239 15.408 129.695 15.504 130.191 15.504Z" fill="#FFBA52"/>
</svg>
