<svg width="21" height="20" viewBox="0 0 21 20" fill="none" xmlns="http://www.w3.org/2000/svg">
<path d="M7.02276 3.65695C7.02276 1.73651 8.57958 0.179688 10.5 0.179688C12.4205 0.179688 13.9773 1.73651 13.9773 3.65695C13.9773 5.36801 12.7414 6.79042 11.1136 7.08024V9.5906H14.7955C15.8122 9.5906 16.6364 10.4148 16.6364 11.4315V12.9173C18.2641 13.2071 19.5 14.6295 19.5 16.3406C19.5 18.261 17.9432 19.8178 16.0227 19.8178C14.1023 19.8178 12.5455 18.261 12.5455 16.3406C12.5455 14.6295 13.7813 13.2071 15.4091 12.9173V11.4315C15.4091 11.0926 15.1344 10.8179 14.7955 10.8179H6.20458C5.86568 10.8179 5.59094 11.0926 5.59094 11.4315V12.9173C7.21872 13.2071 8.45457 14.6295 8.45457 16.3406C8.45457 18.261 6.89775 19.8178 4.97731 19.8178C3.05687 19.8178 1.50005 18.261 1.50005 16.3406C1.50005 14.6295 2.7359 13.2071 4.36367 12.9173V11.4315C4.36367 10.4148 5.18788 9.5906 6.20458 9.5906H9.88637V7.08024C8.25861 6.79041 7.02276 5.368 7.02276 3.65695Z" fill="#047B73"/>
</svg>
