<svg width="21" height="20" viewBox="0 0 21 20" fill="none" xmlns="http://www.w3.org/2000/svg">
<path d="M10.5 0.208594C8.52556 0.208594 6.92273 1.78887 6.92273 3.74096C6.92273 5.45148 8.15348 6.87653 9.78635 7.20301V9.498H6.20455C5.13384 9.498 4.26364 10.3551 4.26364 11.4151V12.7988C2.63076 13.1253 1.4 14.5503 1.4 16.2608C1.4 18.2129 3.00283 19.7932 4.97727 19.7932C6.95172 19.7932 8.55455 18.2129 8.55455 16.2608C8.55455 14.5503 7.32379 13.1253 5.69091 12.7988V11.4151C5.69091 11.1371 5.91964 10.9094 6.20455 10.9094H14.7955C15.0804 10.9094 15.3091 11.1371 15.3091 11.4151V12.7988C13.6762 13.1253 12.4455 14.5503 12.4455 16.2608C12.4455 18.2129 14.0483 19.7932 16.0227 19.7932C17.9972 19.7932 19.6 18.2129 19.6 16.2608C19.6 14.5503 18.3692 13.1253 16.7364 12.7988V11.4151C16.7364 10.3551 15.8662 9.498 14.7955 9.498H11.2136V7.20302C12.8465 6.87654 14.0773 5.45149 14.0773 3.74096C14.0773 1.78887 12.4744 0.208594 10.5 0.208594ZM8.35 3.74096C8.35 2.57082 9.31136 1.62002 10.5 1.62002C11.6886 1.62002 12.65 2.57082 12.65 3.74096C12.65 4.91111 11.6886 5.86191 10.5 5.86191C9.31136 5.86191 8.35 4.91111 8.35 3.74096ZM2.82727 16.2608C2.82727 15.0907 3.78863 14.1399 4.97727 14.1399C6.16591 14.1399 7.12727 15.0907 7.12727 16.2608C7.12727 17.431 6.16591 18.3818 4.97727 18.3818C3.78863 18.3818 2.82727 17.431 2.82727 16.2608ZM16.0227 14.1399C17.2114 14.1399 18.1727 15.0907 18.1727 16.2608C18.1727 17.431 17.2114 18.3818 16.0227 18.3818C14.8341 18.3818 13.8727 17.431 13.8727 16.2608C13.8727 15.0907 14.8341 14.1399 16.0227 14.1399Z" fill="#737373" stroke="#737373" stroke-width="0.2"/>
</svg>
