<svg width="20" height="20" viewBox="0 0 20 20" fill="none" xmlns="http://www.w3.org/2000/svg">
<path d="M17.8574 15.0028C17.8574 12.5117 16.3975 10.3599 14.2859 9.3577V5.65681C14.2859 5.31975 14.1676 4.99386 13.9489 4.73717L10.5471 0.703683C10.4042 0.53404 10.2011 0.449219 10.0002 0.449219C9.79932 0.449219 9.59619 0.53404 9.45334 0.703683L6.05155 4.73717C5.83429 4.99439 5.71491 5.32011 5.7145 5.65681V9.3577C3.60289 10.3599 2.14307 12.5117 2.14307 15.0028H5.63637C5.58503 15.1635 5.55825 15.3376 5.55825 15.534C5.55825 16.0273 5.72789 16.5095 6.03592 16.8912C6.28736 17.2034 6.62035 17.4398 6.99798 17.5742C7.5136 18.7796 8.68548 19.5564 10.0002 19.5564C10.6498 19.5564 11.2792 19.3644 11.8172 19.0028C12.344 18.6501 12.7524 18.1568 13.0002 17.5742C13.3777 17.4406 13.7107 17.2049 13.9623 16.8934C14.2707 16.5083 14.4391 16.0297 14.4399 15.5363C14.4399 15.3488 14.4154 15.1702 14.3707 15.005H17.8574V15.0028ZM15.5873 12.4448C15.7971 12.7706 15.9667 13.1211 16.0895 13.4849H14.1966V11.0452C14.7535 11.4086 15.2274 11.8855 15.5873 12.4448V12.4448ZM7.23235 9.3577V5.69029L10.0002 2.40904L12.7681 5.69029V13.4849H7.23235V9.3577ZM3.91092 13.4849C4.03369 13.1211 4.20333 12.7706 4.41316 12.4448C4.777 11.8823 5.25021 11.4068 5.80378 11.0452V13.4849H3.91092ZM12.5917 16.0787C12.4757 16.1456 12.3417 16.1724 12.21 16.1546L11.7748 16.101L11.7123 16.534C11.5917 17.38 10.8551 18.0184 10.0002 18.0184C9.1453 18.0184 8.40869 17.38 8.28816 16.534L8.22566 16.0988L7.79039 16.1546C7.65806 16.1703 7.52418 16.1429 7.40869 16.0765C7.2145 15.9648 7.09396 15.7573 7.09396 15.5318C7.09396 15.2952 7.22566 15.0988 7.41985 15.0006H12.5828C12.7792 15.101 12.9087 15.2974 12.9087 15.5318C12.9065 15.7595 12.7859 15.9693 12.5917 16.0787ZM8.92878 7.50279C8.92878 7.78695 9.04166 8.05947 9.2426 8.2604C9.44353 8.46134 9.71605 8.57422 10.0002 8.57422C10.2844 8.57422 10.5569 8.46134 10.7578 8.2604C10.9588 8.05947 11.0716 7.78695 11.0716 7.50279C11.0716 7.21863 10.9588 6.94611 10.7578 6.74518C10.5569 6.54424 10.2844 6.43136 10.0002 6.43136C9.71605 6.43136 9.44353 6.54424 9.2426 6.74518C9.04166 6.94611 8.92878 7.21863 8.92878 7.50279V7.50279Z" fill="white"/>
</svg>
