<svg width="20" height="20" viewBox="0 0 16 16" fill="none" xmlns="http://www.w3.org/2000/svg">
<g clip-path="url(#clip0_92_1432)">
<path d="M12.1444 -0.0358887H3.85868C3.22832 -0.0358887 2.71582 0.476611 2.71582 1.10697V14.8213C2.71582 15.4516 3.22832 15.9641 3.85868 15.9641H12.1444C12.7747 15.9641 13.2872 15.4516 13.2872 14.8213V1.10697C13.2872 0.476611 12.7747 -0.0358887 12.1444 -0.0358887ZM12.0015 14.6784H4.00153V1.24983H12.0015V14.6784ZM7.28725 12.857C7.28725 13.0464 7.3625 13.2281 7.49646 13.362C7.63041 13.496 7.81209 13.5713 8.00153 13.5713C8.19097 13.5713 8.37266 13.496 8.50661 13.362C8.64057 13.2281 8.71582 13.0464 8.71582 12.857C8.71582 12.6675 8.64057 12.4858 8.50661 12.3519C8.37266 12.2179 8.19097 12.1427 8.00153 12.1427C7.81209 12.1427 7.63041 12.2179 7.49646 12.3519C7.3625 12.4858 7.28725 12.6675 7.28725 12.857Z" fill="#faa09d"/>
</g>
<defs>
<clipPath id="clip0_92_1432">
<rect width="16" height="16" fill="white"/>
</clipPath>
</defs>
</svg>