<svg width="32" height="32" viewBox="0 0 32 32" fill="none" xmlns="http://www.w3.org/2000/svg">
<circle cx="16" cy="16" r="16" fill="#C72114" fill-opacity="0.1"/>
<path d="M16.6246 21.6205V16.5264H15.3753V21.5963L13.6932 19.9142L12.8098 20.7976L16.0121 23.9998L19.2144 20.7976L18.331 19.9142L16.6246 21.6205Z" fill="#C72114"/>
<path d="M18.3736 13.4971H10.1282V14.7464H18.3736V13.4971Z" fill="#C72114"/>
<path d="M22.1216 8H9.87836C8.84505 8 8.00439 8.84066 8.00439 9.87397V17.8695C8.00439 18.9028 8.84505 19.7435 9.87836 19.7435H11.5649V18.4942H9.87836C9.53393 18.4942 9.25371 18.214 9.25371 17.8695V12.56H22.7462V17.8695C22.7462 18.214 22.466 18.4942 22.1216 18.4942H20.4662V19.7435H22.1216C23.1549 19.7435 23.9955 18.9028 23.9955 17.8695V9.87397C23.9955 8.84066 23.1549 8 22.1216 8ZM22.7462 10.686H9.25371V9.87397C9.25371 9.52953 9.53393 9.24931 9.87836 9.24931H22.1216C22.466 9.24931 22.7462 9.52953 22.7462 9.87397V10.686H22.7462Z" fill="#C72114"/>
</svg>
