<svg width="32" height="32" viewBox="0 0 32 32" fill="none" xmlns="http://www.w3.org/2000/svg">
<circle cx="16" cy="16" r="16" fill="#74B757" fill-opacity="0.1"/>
<path d="M18.375 13.5H10.125V14.75H18.375V13.5Z" fill="#74B757"/>
<path d="M12.8081 19.7265L13.692 20.6104L15.375 18.9274V24.0001H16.625V18.9031L18.3324 20.6104L19.2163 19.7265L16.0122 16.5225L12.8081 19.7265Z" fill="#74B757"/>
<path d="M22.125 8H9.875C8.84113 8 8 8.84113 8 9.875V17.875C8 18.9089 8.84113 19.75 9.875 19.75H11.5625V18.5H9.875C9.53038 18.5 9.25 18.2196 9.25 17.875V12.5625H22.75V17.875C22.75 18.2196 22.4696 18.5 22.125 18.5H20.4688V19.75H22.125C23.1589 19.75 24 18.9089 24 17.875V9.875C24 8.84113 23.1589 8 22.125 8ZM22.75 10.6875H9.25V9.875C9.25 9.53038 9.53038 9.25 9.875 9.25H22.125C22.4696 9.25 22.75 9.53038 22.75 9.875V10.6875Z" fill="#74B757"/>
</svg>
