<svg width="17" height="16" viewBox="0 0 17 16" fill="none" xmlns="http://www.w3.org/2000/svg">
<path d="M8.5 0C4.08214 0 0.5 3.58214 0.5 8C0.5 12.4179 4.08214 16 8.5 16C12.9179 16 16.5 12.4179 16.5 8C16.5 3.58214 12.9179 0 8.5 0ZM8.5 14.6429C4.83214 14.6429 1.85714 11.6679 1.85714 8C1.85714 4.33214 4.83214 1.35714 8.5 1.35714C12.1679 1.35714 15.1429 4.33214 15.1429 8C15.1429 11.6679 12.1679 14.6429 8.5 14.6429ZM9.35179 7.58571L8.89821 7.48036V5.08214C9.57679 5.175 9.99643 5.6 10.0679 6.12143C10.0768 6.19286 10.1375 6.24464 10.2089 6.24464H11.0107C11.0946 6.24464 11.1607 6.17143 11.1536 6.0875C11.0446 4.975 10.1286 4.26071 8.90536 4.1375V3.55357C8.90536 3.475 8.84107 3.41071 8.7625 3.41071H8.26071C8.18214 3.41071 8.11786 3.475 8.11786 3.55357V4.14286C6.85357 4.26607 5.86429 4.96429 5.86429 6.26786C5.86429 7.475 6.75357 8.05714 7.6875 8.28036L8.12857 8.39286V10.9411C7.33929 10.8357 6.89643 10.4143 6.80536 9.84643C6.79464 9.77857 6.73393 9.72857 6.66429 9.72857H5.83929C5.75536 9.72857 5.68929 9.8 5.69643 9.88393C5.77679 10.8661 6.52143 11.7696 8.11071 11.8857V12.4464C8.11071 12.525 8.175 12.5893 8.25357 12.5893H8.76071C8.83929 12.5893 8.90357 12.525 8.90357 12.4446L8.9 11.8786C10.2982 11.7554 11.2982 11.0071 11.2982 9.66429C11.2964 8.425 10.5089 7.87143 9.35179 7.58571ZM8.12679 7.29643C8.02679 7.26786 7.94286 7.24107 7.85893 7.20714C7.25536 6.98929 6.975 6.6375 6.975 6.18393C6.975 5.53571 7.46607 5.16607 8.12679 5.08214V7.29643ZM8.89821 10.9464V8.55893C8.95357 8.575 9.00357 8.5875 9.05536 8.59822C9.9 8.85536 10.1839 9.2125 10.1839 9.76071C10.1839 10.4589 9.65893 10.8786 8.89821 10.9464Z" fill="#141432"/>
</svg>
