<svg width="17" height="16" viewBox="0 0 17 16" fill="none" xmlns="http://www.w3.org/2000/svg">
<path fill-rule="evenodd" clip-rule="evenodd" d="M11.6844 0C12.9082 0 14.066 0.213501 14.9446 0.601127C15.9452 1.04257 16.4962 1.67607 16.4962 2.38492V11.2433C16.4962 11.9522 15.9452 12.5857 14.9446 13.0271C14.066 13.4147 12.9082 13.6282 11.6844 13.6282C11.001 13.6282 10.3275 13.5601 9.71321 13.4305C8.88292 14.9596 7.26254 16 5.40366 16C2.70165 16 0.503418 13.8017 0.503418 11.0998C0.503418 8.39775 2.70165 6.19952 5.40366 6.19952C5.91522 6.19952 6.40869 6.27849 6.87266 6.42459V2.38492C6.87266 1.67607 7.4237 1.04257 8.42423 0.601127C9.30283 0.213501 10.4606 0 11.6844 0ZM11.6844 0.937504C10.5881 0.937504 9.56464 1.12266 8.80267 1.45885C8.19048 1.72894 7.81017 2.08379 7.81017 2.38492C7.81017 2.68604 8.19048 3.04086 8.80267 3.31098C9.56464 3.64717 10.5881 3.83233 11.6844 3.83233C12.7808 3.83233 13.8042 3.64717 14.5662 3.31098C15.1784 3.04086 15.5587 2.68601 15.5587 2.38492C15.5587 2.08382 15.1784 1.72894 14.5662 1.45885C13.8042 1.12266 12.7808 0.937504 11.6844 0.937504ZM1.44089 11.0998C1.44089 13.2848 3.21855 15.0625 5.40363 15.0625C7.5887 15.0625 9.36636 13.2848 9.36636 11.0998C9.36636 8.91469 7.58867 7.13703 5.40363 7.13703C3.21855 7.13703 1.44089 8.91469 1.44089 11.0998ZM11.6844 12.6907C12.7808 12.6907 13.8042 12.5055 14.5662 12.1694C15.1784 11.8993 15.5587 11.5444 15.5587 11.2433V10.481C15.3782 10.6006 15.1734 10.7116 14.9447 10.8125C14.0661 11.2001 12.9082 11.4136 11.6845 11.4136C11.2076 11.4136 10.7439 11.3812 10.2988 11.3184C10.28 11.7448 10.2066 12.1572 10.0852 12.5487C10.5873 12.642 11.1311 12.6907 11.6844 12.6907ZM11.6844 10.4761C12.7808 10.4761 13.8042 10.2909 14.5662 9.95476C15.1784 9.68466 15.5587 9.32982 15.5587 9.02869V8.26641C15.3782 8.38597 15.1733 8.497 14.9446 8.59791C14.066 8.98553 12.9082 9.19901 11.6844 9.19901C11.0458 9.19901 10.4201 9.13985 9.84361 9.02785C10.0388 9.44435 10.1772 9.89251 10.2484 10.3625C10.7044 10.4375 11.1856 10.4761 11.6844 10.4761ZM11.6844 8.26153C12.7808 8.26153 13.8042 8.07638 14.5662 7.74019C15.1784 7.47006 15.5587 7.11522 15.5587 6.81412V6.05184C15.3782 6.1714 15.1733 6.2824 14.9446 6.38331C14.066 6.77093 12.9082 6.98443 11.6844 6.98443C10.4606 6.98443 9.30283 6.77093 8.42423 6.38331C8.19557 6.28243 7.99067 6.1714 7.81017 6.05184V6.83256C8.28192 7.09965 8.70514 7.44269 9.0633 7.84494C9.78992 8.11378 10.7151 8.26153 11.6844 8.26153ZM11.6844 6.0469C12.7808 6.0469 13.8042 5.86174 14.5662 5.52555C15.1784 5.25546 15.5587 4.90061 15.5587 4.59949V3.8372C15.3782 3.95677 15.1733 4.0678 14.9446 4.1687C14.066 4.55633 12.9082 4.7698 11.6844 4.7698C10.4606 4.7698 9.30283 4.55633 8.42423 4.1687C8.19557 4.0678 7.99067 3.95677 7.81017 3.8372V4.59949C7.81017 4.90061 8.19048 5.25546 8.80267 5.52555C9.56464 5.86174 10.5881 6.0469 11.6844 6.0469ZM6.72541 12.9416C6.92683 12.7319 7.02754 12.4647 7.02754 12.14C7.02754 11.8975 6.96794 11.696 6.84873 11.5357C6.72952 11.3713 6.58565 11.2439 6.41712 11.1534C6.25269 11.063 6.03072 10.9623 5.7512 10.8513C5.49223 10.7527 5.29903 10.6725 5.1716 10.6108C5.04829 10.5451 4.95374 10.4731 4.88797 10.395C4.82631 10.3169 4.79548 10.2162 4.79548 10.0929C4.79548 9.92026 4.85509 9.78666 4.9743 9.69212C5.0935 9.59757 5.26204 9.5503 5.4799 9.5503C5.74298 9.5503 5.94851 9.61813 6.09649 9.75378C6.24858 9.88532 6.32463 10.0477 6.32463 10.2409V10.3087C6.32463 10.3293 6.3308 10.3478 6.34313 10.3642C6.35957 10.3765 6.37807 10.3827 6.39862 10.3827H6.92272C6.94328 10.3827 6.95972 10.3765 6.97205 10.3642C6.98849 10.3478 6.99671 10.3293 6.99671 10.3087V10.2039C6.99671 9.87915 6.89395 9.60579 6.68842 9.38382C6.487 9.16185 6.21159 9.02209 5.86219 8.96454C5.84163 8.95632 5.83136 8.94399 5.83136 8.92755L5.84369 8.4651C5.84369 8.44455 5.83547 8.42811 5.81903 8.41577C5.80669 8.39933 5.79025 8.39111 5.7697 8.39111H5.28876C5.2682 8.39111 5.24971 8.39933 5.23326 8.41577C5.22093 8.42811 5.21477 8.44455 5.21477 8.4651L5.2271 8.92138C5.2271 8.93782 5.21682 8.95015 5.19627 8.95837C4.86742 9.0077 4.6064 9.13308 4.4132 9.3345C4.22411 9.53592 4.12957 9.79283 4.12957 10.1052C4.12957 10.3478 4.18711 10.5512 4.30221 10.7157C4.41731 10.876 4.56118 11.0034 4.73382 11.0979C4.90647 11.1925 5.1305 11.2932 5.40591 11.4001C5.65255 11.5028 5.83752 11.5871 5.96084 11.6529C6.08827 11.7145 6.18487 11.7865 6.25064 11.8687C6.31641 11.9468 6.34929 12.0434 6.34929 12.1585C6.34929 12.327 6.28763 12.4647 6.16432 12.5716C6.04511 12.6785 5.86424 12.7319 5.62172 12.7319C5.34631 12.7319 5.12844 12.6703 4.96813 12.5469C4.80782 12.4195 4.72766 12.2612 4.72766 12.0722V11.955C4.72766 11.9345 4.71944 11.918 4.703 11.9057C4.69066 11.8892 4.67422 11.881 4.65367 11.881H4.13573C4.11518 11.881 4.09668 11.8892 4.08024 11.9057C4.06791 11.918 4.06174 11.9345 4.06174 11.955V12.1092C4.06174 12.4339 4.16245 12.7031 4.36387 12.9169C4.5694 13.1265 4.85098 13.2601 5.2086 13.3177C5.22915 13.3259 5.23943 13.3382 5.23943 13.3547L5.23326 13.7678C5.23326 13.7883 5.23943 13.8048 5.25176 13.8171C5.2682 13.8336 5.2867 13.8418 5.30725 13.8418H5.7882C5.80875 13.8418 5.82519 13.8336 5.83752 13.8171C5.85397 13.8048 5.86219 13.7883 5.86219 13.7678L5.85602 13.3608C5.85602 13.3444 5.8663 13.3321 5.88685 13.3238C6.24447 13.2786 6.52399 13.1512 6.72541 12.9416Z" fill="#326C53"/>
</svg>
