<svg width="20" height="20" viewBox="0 0 20 20" fill="none" xmlns="http://www.w3.org/2000/svg">
<path d="M17.7337 15.6134C17.3127 14.616 16.7016 13.7101 15.9346 12.946C15.17 12.1797 14.2642 11.5688 13.2672 11.1469C13.2583 11.1424 13.2494 11.1402 13.2404 11.1357C14.6311 10.1313 15.5351 8.4951 15.5351 6.64912C15.5351 3.59108 13.0574 1.1134 9.99936 1.1134C6.94132 1.1134 4.46364 3.59108 4.46364 6.64912C4.46364 8.4951 5.36766 10.1313 6.75829 11.138C6.74936 11.1424 6.74043 11.1447 6.7315 11.1491C5.7315 11.571 4.83418 12.1759 4.06409 12.9482C3.29782 13.7129 2.68687 14.6187 2.26498 15.6156C1.85052 16.5917 1.627 17.6381 1.6065 18.6982C1.60591 18.7221 1.61008 18.7458 1.61879 18.7679C1.6275 18.7901 1.64056 18.8103 1.6572 18.8274C1.67384 18.8445 1.69373 18.858 1.71569 18.8673C1.73765 18.8765 1.76124 18.8813 1.78507 18.8813H3.12436C3.22257 18.8813 3.3007 18.8031 3.30293 18.7072C3.34757 16.9839 4.03954 15.3701 5.26275 14.1469C6.52838 12.8813 8.20918 12.1848 9.99936 12.1848C11.7895 12.1848 13.4703 12.8813 14.736 14.1469C15.9592 15.3701 16.6511 16.9839 16.6958 18.7072C16.698 18.8054 16.7761 18.8813 16.8744 18.8813H18.2136C18.2375 18.8813 18.2611 18.8765 18.283 18.8673C18.305 18.858 18.3249 18.8445 18.3415 18.8274C18.3582 18.8103 18.3712 18.7901 18.3799 18.7679C18.3886 18.7458 18.3928 18.7221 18.3922 18.6982C18.3699 17.6313 18.1489 16.5933 17.7337 15.6134ZM9.99936 10.4884C8.9748 10.4884 8.01052 10.0889 7.28507 9.36341C6.55963 8.63796 6.16007 7.67367 6.16007 6.64912C6.16007 5.62456 6.55963 4.66028 7.28507 3.93483C8.01052 3.20939 8.9748 2.80983 9.99936 2.80983C11.0239 2.80983 11.9882 3.20939 12.7136 3.93483C13.4391 4.66028 13.8386 5.62456 13.8386 6.64912C13.8386 7.67367 13.4391 8.63796 12.7136 9.36341C11.9882 10.0889 11.0239 10.4884 9.99936 10.4884Z" fill="white"/>
</svg>
