<svg width="144" height="144" viewBox="0 0 144 144" fill="none" xmlns="http://www.w3.org/2000/svg">
<rect width="144" height="144" rx="4" fill="#222222"/>
<path d="M141.943 2.05762H2.05713V141.943H141.943V2.05762Z" fill="white"/>
<path d="M15.3462 10.4512H10.4502V15.3472H15.3462V10.4512Z" fill="#222222"/>
<path d="M20.2422 10.4512H15.3462V15.3472H20.2422V10.4512Z" fill="#222222"/>
<path d="M25.1382 10.4512H20.2422V15.3472H25.1382V10.4512Z" fill="#222222"/>
<path d="M30.0342 10.4512H25.1382V15.3472H30.0342V10.4512Z" fill="#222222"/>
<path d="M34.9302 10.4512H30.0342V15.3472H34.9302V10.4512Z" fill="#222222"/>
<path d="M39.8262 10.4512H34.9302V15.3472H39.8262V10.4512Z" fill="#222222"/>
<path d="M44.7222 10.4512H39.8262V15.3472H44.7222V10.4512Z" fill="#222222"/>
<path d="M54.5144 10.4512H49.6184V15.3472H54.5144V10.4512Z" fill="#222222"/>
<path d="M59.4102 10.4512H54.5142V15.3472H59.4102V10.4512Z" fill="#222222"/>
<path d="M64.3061 10.4512H59.4102V15.3472H64.3061V10.4512Z" fill="#222222"/>
<path d="M69.2021 10.4512H64.3062V15.3472H69.2021V10.4512Z" fill="#222222"/>
<path d="M78.9944 10.4512H74.0984V15.3472H78.9944V10.4512Z" fill="#222222"/>
<path d="M103.474 10.4512H98.5784V15.3472H103.474V10.4512Z" fill="#222222"/>
<path d="M108.37 10.4512H103.474V15.3472H108.37V10.4512Z" fill="#222222"/>
<path d="M113.266 10.4512H108.37V15.3472H113.266V10.4512Z" fill="#222222"/>
<path d="M118.162 10.4512H113.266V15.3472H118.162V10.4512Z" fill="#222222"/>
<path d="M123.058 10.4512H118.162V15.3472H123.058V10.4512Z" fill="#222222"/>
<path d="M127.954 10.4512H123.058V15.3472H127.954V10.4512Z" fill="#222222"/>
<path d="M132.85 10.4512H127.954V15.3472H132.85V10.4512Z" fill="#222222"/>
<path d="M15.3462 15.3467H10.4502V20.2427H15.3462V15.3467Z" fill="#222222"/>
<path d="M44.7222 15.3467H39.8262V20.2427H44.7222V15.3467Z" fill="#222222"/>
<path d="M69.2021 15.3467H64.3062V20.2427H69.2021V15.3467Z" fill="#222222"/>
<path d="M74.0984 15.3467H69.2024V20.2427H74.0984V15.3467Z" fill="#222222"/>
<path d="M83.8901 15.3467H78.9941V20.2427H83.8901V15.3467Z" fill="#222222"/>
<path d="M93.6821 15.3467H88.7861V20.2427H93.6821V15.3467Z" fill="#222222"/>
<path d="M103.474 15.3467H98.5784V20.2427H103.474V15.3467Z" fill="#222222"/>
<path d="M132.85 15.3467H127.954V20.2427H132.85V15.3467Z" fill="#222222"/>
<path d="M15.3462 20.2432H10.4502V25.1392H15.3462V20.2432Z" fill="#222222"/>
<path d="M25.1382 20.2432H20.2422V25.1392H25.1382V20.2432Z" fill="#222222"/>
<path d="M30.0342 20.2432H25.1382V25.1392H30.0342V20.2432Z" fill="#222222"/>
<path d="M34.9302 20.2432H30.0342V25.1392H34.9302V20.2432Z" fill="#222222"/>
<path d="M44.7222 20.2432H39.8262V25.1392H44.7222V20.2432Z" fill="#222222"/>
<path d="M59.4102 20.2432H54.5142V25.1392H59.4102V20.2432Z" fill="#222222"/>
<path d="M69.2021 20.2432H64.3062V25.1392H69.2021V20.2432Z" fill="#222222"/>
<path d="M78.9944 20.2432H74.0984V25.1392H78.9944V20.2432Z" fill="#222222"/>
<path d="M83.8901 20.2432H78.9941V25.1392H83.8901V20.2432Z" fill="#222222"/>
<path d="M88.7864 20.2432H83.8904V25.1392H88.7864V20.2432Z" fill="#222222"/>
<path d="M103.474 20.2432H98.5784V25.1392H103.474V20.2432Z" fill="#222222"/>
<path d="M113.266 20.2432H108.37V25.1392H113.266V20.2432Z" fill="#222222"/>
<path d="M118.162 20.2432H113.266V25.1392H118.162V20.2432Z" fill="#222222"/>
<path d="M123.058 20.2432H118.162V25.1392H123.058V20.2432Z" fill="#222222"/>
<path d="M132.85 20.2432H127.954V25.1392H132.85V20.2432Z" fill="#222222"/>
<path d="M15.3462 25.1387H10.4502V30.0347H15.3462V25.1387Z" fill="#222222"/>
<path d="M25.1382 25.1387H20.2422V30.0347H25.1382V25.1387Z" fill="#222222"/>
<path d="M30.0342 25.1387H25.1382V30.0347H30.0342V25.1387Z" fill="#222222"/>
<path d="M34.9302 25.1387H30.0342V30.0347H34.9302V25.1387Z" fill="#222222"/>
<path d="M44.7222 25.1387H39.8262V30.0347H44.7222V25.1387Z" fill="#222222"/>
<path d="M64.3061 25.1387H59.4102V30.0347H64.3061V25.1387Z" fill="#222222"/>
<path d="M69.2021 25.1387H64.3062V30.0347H69.2021V25.1387Z" fill="#222222"/>
<path d="M78.9944 25.1387H74.0984V30.0347H78.9944V25.1387Z" fill="#222222"/>
<path d="M103.474 25.1387H98.5784V30.0347H103.474V25.1387Z" fill="#222222"/>
<path d="M113.266 25.1387H108.37V30.0347H113.266V25.1387Z" fill="#222222"/>
<path d="M118.162 25.1387H113.266V30.0347H118.162V25.1387Z" fill="#222222"/>
<path d="M123.058 25.1387H118.162V30.0347H123.058V25.1387Z" fill="#222222"/>
<path d="M132.85 25.1387H127.954V30.0347H132.85V25.1387Z" fill="#222222"/>
<path d="M15.3462 30.0342H10.4502V34.9302H15.3462V30.0342Z" fill="#222222"/>
<path d="M25.1382 30.0342H20.2422V34.9302H25.1382V30.0342Z" fill="#222222"/>
<path d="M30.0342 30.0342H25.1382V34.9302H30.0342V30.0342Z" fill="#222222"/>
<path d="M34.9302 30.0342H30.0342V34.9302H34.9302V30.0342Z" fill="#222222"/>
<path d="M44.7222 30.0342H39.8262V34.9302H44.7222V30.0342Z" fill="#222222"/>
<path d="M64.3061 30.0342H59.4102V34.9302H64.3061V30.0342Z" fill="#222222"/>
<path d="M69.2021 30.0342H64.3062V34.9302H69.2021V30.0342Z" fill="#222222"/>
<path d="M74.0984 30.0342H69.2024V34.9302H74.0984V30.0342Z" fill="#222222"/>
<path d="M83.8901 30.0342H78.9941V34.9302H83.8901V30.0342Z" fill="#222222"/>
<path d="M93.6821 30.0342H88.7861V34.9302H93.6821V30.0342Z" fill="#222222"/>
<path d="M103.474 30.0342H98.5784V34.9302H103.474V30.0342Z" fill="#222222"/>
<path d="M113.266 30.0342H108.37V34.9302H113.266V30.0342Z" fill="#222222"/>
<path d="M118.162 30.0342H113.266V34.9302H118.162V30.0342Z" fill="#222222"/>
<path d="M123.058 30.0342H118.162V34.9302H123.058V30.0342Z" fill="#222222"/>
<path d="M132.85 30.0342H127.954V34.9302H132.85V30.0342Z" fill="#222222"/>
<path d="M15.3462 34.9307H10.4502V39.8267H15.3462V34.9307Z" fill="#222222"/>
<path d="M44.7222 34.9307H39.8262V39.8267H44.7222V34.9307Z" fill="#222222"/>
<path d="M59.4102 34.9307H54.5142V39.8267H59.4102V34.9307Z" fill="#222222"/>
<path d="M69.2021 34.9307H64.3062V39.8267H69.2021V34.9307Z" fill="#222222"/>
<path d="M103.474 34.9307H98.5784V39.8267H103.474V34.9307Z" fill="#222222"/>
<path d="M132.85 34.9307H127.954V39.8267H132.85V34.9307Z" fill="#222222"/>
<path d="M15.3462 39.8262H10.4502V44.7222H15.3462V39.8262Z" fill="#222222"/>
<path d="M20.2422 39.8262H15.3462V44.7222H20.2422V39.8262Z" fill="#222222"/>
<path d="M25.1382 39.8262H20.2422V44.7222H25.1382V39.8262Z" fill="#222222"/>
<path d="M30.0342 39.8262H25.1382V44.7222H30.0342V39.8262Z" fill="#222222"/>
<path d="M34.9302 39.8262H30.0342V44.7222H34.9302V39.8262Z" fill="#222222"/>
<path d="M39.8262 39.8262H34.9302V44.7222H39.8262V39.8262Z" fill="#222222"/>
<path d="M44.7222 39.8262H39.8262V44.7222H44.7222V39.8262Z" fill="#222222"/>
<path d="M54.5144 39.8262H49.6184V44.7222H54.5144V39.8262Z" fill="#222222"/>
<path d="M64.3061 39.8262H59.4102V44.7222H64.3061V39.8262Z" fill="#222222"/>
<path d="M74.0984 39.8262H69.2024V44.7222H74.0984V39.8262Z" fill="#222222"/>
<path d="M83.8901 39.8262H78.9941V44.7222H83.8901V39.8262Z" fill="#222222"/>
<path d="M93.6821 39.8262H88.7861V44.7222H93.6821V39.8262Z" fill="#222222"/>
<path d="M103.474 39.8262H98.5784V44.7222H103.474V39.8262Z" fill="#222222"/>
<path d="M108.37 39.8262H103.474V44.7222H108.37V39.8262Z" fill="#222222"/>
<path d="M113.266 39.8262H108.37V44.7222H113.266V39.8262Z" fill="#222222"/>
<path d="M118.162 39.8262H113.266V44.7222H118.162V39.8262Z" fill="#222222"/>
<path d="M123.058 39.8262H118.162V44.7222H123.058V39.8262Z" fill="#222222"/>
<path d="M127.954 39.8262H123.058V44.7222H127.954V39.8262Z" fill="#222222"/>
<path d="M132.85 39.8262H127.954V44.7222H132.85V39.8262Z" fill="#222222"/>
<path d="M54.5144 44.7227H49.6184V49.6187H54.5144V44.7227Z" fill="#222222"/>
<path d="M59.4102 44.7227H54.5142V49.6187H59.4102V44.7227Z" fill="#222222"/>
<path d="M74.0984 44.7227H69.2024V49.6187H74.0984V44.7227Z" fill="#222222"/>
<path d="M78.9944 44.7227H74.0984V49.6187H78.9944V44.7227Z" fill="#222222"/>
<path d="M88.7864 44.7227H83.8904V49.6187H88.7864V44.7227Z" fill="#222222"/>
<path d="M93.6821 44.7227H88.7861V49.6187H93.6821V44.7227Z" fill="#222222"/>
<path d="M15.3462 49.6182H10.4502V54.5142H15.3462V49.6182Z" fill="#222222"/>
<path d="M20.2422 49.6182H15.3462V54.5142H20.2422V49.6182Z" fill="#222222"/>
<path d="M30.0342 49.6182H25.1382V54.5142H30.0342V49.6182Z" fill="#222222"/>
<path d="M34.9302 49.6182H30.0342V54.5142H34.9302V49.6182Z" fill="#222222"/>
<path d="M44.7222 49.6182H39.8262V54.5142H44.7222V49.6182Z" fill="#222222"/>
<path d="M59.4102 49.6182H54.5142V54.5142H59.4102V49.6182Z" fill="#222222"/>
<path d="M74.0984 49.6182H69.2024V54.5142H74.0984V49.6182Z" fill="#222222"/>
<path d="M83.8901 49.6182H78.9941V54.5142H83.8901V49.6182Z" fill="#222222"/>
<path d="M93.6821 49.6182H88.7861V54.5142H93.6821V49.6182Z" fill="#222222"/>
<path d="M103.474 49.6182H98.5784V54.5142H103.474V49.6182Z" fill="#222222"/>
<path d="M132.85 49.6182H127.954V54.5142H132.85V49.6182Z" fill="#222222"/>
<path d="M25.1382 54.5146H20.2422V59.4106H25.1382V54.5146Z" fill="#222222"/>
<path d="M54.5144 54.5146H49.6184V59.4106H54.5144V54.5146Z" fill="#222222"/>
<path d="M64.3061 54.5146H59.4102V59.4106H64.3061V54.5146Z" fill="#222222"/>
<path d="M88.7864 54.5146H83.8904V59.4106H88.7864V54.5146Z" fill="#222222"/>
<path d="M108.37 54.5146H103.474V59.4106H108.37V54.5146Z" fill="#222222"/>
<path d="M113.266 54.5146H108.37V59.4106H113.266V54.5146Z" fill="#222222"/>
<path d="M118.162 54.5146H113.266V59.4106H118.162V54.5146Z" fill="#222222"/>
<path d="M123.058 54.5146H118.162V59.4106H123.058V54.5146Z" fill="#222222"/>
<path d="M127.954 54.5146H123.058V59.4106H127.954V54.5146Z" fill="#222222"/>
<path d="M15.3462 59.4111H10.4502V64.3071H15.3462V59.4111Z" fill="#222222"/>
<path d="M25.1382 59.4111H20.2422V64.3071H25.1382V59.4111Z" fill="#222222"/>
<path d="M30.0342 59.4111H25.1382V64.3071H30.0342V59.4111Z" fill="#222222"/>
<path d="M44.7222 59.4111H39.8262V64.3071H44.7222V59.4111Z" fill="#222222"/>
<path d="M59.4102 59.4111H54.5142V64.3071H59.4102V59.4111Z" fill="#222222"/>
<path d="M74.0984 59.4111H69.2024V64.3071H74.0984V59.4111Z" fill="#222222"/>
<path d="M83.8901 59.4111H78.9941V64.3071H83.8901V59.4111Z" fill="#222222"/>
<path d="M88.7864 59.4111H83.8904V64.3071H88.7864V59.4111Z" fill="#222222"/>
<path d="M93.6821 59.4111H88.7861V64.3071H93.6821V59.4111Z" fill="#222222"/>
<path d="M98.5784 59.4111H93.6824V64.3071H98.5784V59.4111Z" fill="#222222"/>
<path d="M103.474 59.4111H98.5784V64.3071H103.474V59.4111Z" fill="#222222"/>
<path d="M108.37 59.4111H103.474V64.3071H108.37V59.4111Z" fill="#222222"/>
<path d="M113.266 59.4111H108.37V64.3071H113.266V59.4111Z" fill="#222222"/>
<path d="M118.162 59.4111H113.266V64.3071H118.162V59.4111Z" fill="#222222"/>
<path d="M132.85 59.4111H127.954V64.3071H132.85V59.4111Z" fill="#222222"/>
<path d="M20.2422 64.3066H15.3462V69.2026H20.2422V64.3066Z" fill="#222222"/>
<path d="M30.0342 64.3066H25.1382V69.2026H30.0342V64.3066Z" fill="#222222"/>
<path d="M34.9302 64.3066H30.0342V69.2026H34.9302V64.3066Z" fill="#222222"/>
<path d="M49.6184 64.3066H44.7224V69.2026H49.6184V64.3066Z" fill="#222222"/>
<path d="M54.5144 64.3066H49.6184V69.2026H54.5144V64.3066Z" fill="#222222"/>
<path d="M103.474 64.3066H98.5784V69.2026H103.474V64.3066Z" fill="#222222"/>
<path d="M108.37 64.3066H103.474V69.2026H108.37V64.3066Z" fill="#222222"/>
<path d="M113.266 64.3066H108.37V69.2026H113.266V64.3066Z" fill="#222222"/>
<path d="M118.162 64.3066H113.266V69.2026H118.162V64.3066Z" fill="#222222"/>
<path d="M123.058 64.3066H118.162V69.2026H123.058V64.3066Z" fill="#222222"/>
<path d="M127.954 64.3066H123.058V69.2026H127.954V64.3066Z" fill="#222222"/>
<path d="M132.85 64.3066H127.954V69.2026H132.85V64.3066Z" fill="#222222"/>
<path d="M15.3462 69.2031H10.4502V74.0991H15.3462V69.2031Z" fill="#222222"/>
<path d="M20.2422 69.2031H15.3462V74.0991H20.2422V69.2031Z" fill="#222222"/>
<path d="M25.1382 69.2031H20.2422V74.0991H25.1382V69.2031Z" fill="#222222"/>
<path d="M30.0342 69.2031H25.1382V74.0991H30.0342V69.2031Z" fill="#222222"/>
<path d="M34.9302 69.2031H30.0342V74.0991H34.9302V69.2031Z" fill="#222222"/>
<path d="M44.7222 69.2031H39.8262V74.0991H44.7222V69.2031Z" fill="#222222"/>
<path d="M54.5144 69.2031H49.6184V74.0991H54.5144V69.2031Z" fill="#222222"/>
<path d="M59.4102 69.2031H54.5142V74.0991H59.4102V69.2031Z" fill="#222222"/>
<path d="M64.3061 69.2031H59.4102V74.0991H64.3061V69.2031Z" fill="#222222"/>
<path d="M74.0984 69.2031H69.2024V74.0991H74.0984V69.2031Z" fill="#222222"/>
<path d="M93.6821 69.2031H88.7861V74.0991H93.6821V69.2031Z" fill="#222222"/>
<path d="M103.474 69.2031H98.5784V74.0991H103.474V69.2031Z" fill="#222222"/>
<path d="M108.37 69.2031H103.474V74.0991H108.37V69.2031Z" fill="#222222"/>
<path d="M132.85 69.2031H127.954V74.0991H132.85V69.2031Z" fill="#222222"/>
<path d="M15.3462 74.0986H10.4502V78.9946H15.3462V74.0986Z" fill="#222222"/>
<path d="M25.1382 74.0986H20.2422V78.9946H25.1382V74.0986Z" fill="#222222"/>
<path d="M30.0342 74.0986H25.1382V78.9946H30.0342V74.0986Z" fill="#222222"/>
<path d="M34.9302 74.0986H30.0342V78.9946H34.9302V74.0986Z" fill="#222222"/>
<path d="M39.8262 74.0986H34.9302V78.9946H39.8262V74.0986Z" fill="#222222"/>
<path d="M54.5144 74.0986H49.6184V78.9946H54.5144V74.0986Z" fill="#222222"/>
<path d="M64.3061 74.0986H59.4102V78.9946H64.3061V74.0986Z" fill="#222222"/>
<path d="M74.0984 74.0986H69.2024V78.9946H74.0984V74.0986Z" fill="#222222"/>
<path d="M78.9944 74.0986H74.0984V78.9946H78.9944V74.0986Z" fill="#222222"/>
<path d="M88.7864 74.0986H83.8904V78.9946H88.7864V74.0986Z" fill="#222222"/>
<path d="M93.6821 74.0986H88.7861V78.9946H93.6821V74.0986Z" fill="#222222"/>
<path d="M113.266 74.0986H108.37V78.9946H113.266V74.0986Z" fill="#222222"/>
<path d="M127.954 74.0986H123.058V78.9946H127.954V74.0986Z" fill="#222222"/>
<path d="M15.3462 78.9951H10.4502V83.8911H15.3462V78.9951Z" fill="#222222"/>
<path d="M20.2422 78.9951H15.3462V83.8911H20.2422V78.9951Z" fill="#222222"/>
<path d="M25.1382 78.9951H20.2422V83.8911H25.1382V78.9951Z" fill="#222222"/>
<path d="M39.8262 78.9951H34.9302V83.8911H39.8262V78.9951Z" fill="#222222"/>
<path d="M44.7222 78.9951H39.8262V83.8911H44.7222V78.9951Z" fill="#222222"/>
<path d="M59.4102 78.9951H54.5142V83.8911H59.4102V78.9951Z" fill="#222222"/>
<path d="M64.3061 78.9951H59.4102V83.8911H64.3061V78.9951Z" fill="#222222"/>
<path d="M78.9944 78.9951H74.0984V83.8911H78.9944V78.9951Z" fill="#222222"/>
<path d="M88.7864 78.9951H83.8904V83.8911H88.7864V78.9951Z" fill="#222222"/>
<path d="M113.266 78.9951H108.37V83.8911H113.266V78.9951Z" fill="#222222"/>
<path d="M118.162 78.9951H113.266V83.8911H118.162V78.9951Z" fill="#222222"/>
<path d="M123.058 78.9951H118.162V83.8911H123.058V78.9951Z" fill="#222222"/>
<path d="M127.954 78.9951H123.058V83.8911H127.954V78.9951Z" fill="#222222"/>
<path d="M132.85 78.9951H127.954V83.8911H132.85V78.9951Z" fill="#222222"/>
<path d="M15.3462 83.8906H10.4502V88.7866H15.3462V83.8906Z" fill="#222222"/>
<path d="M25.1382 83.8906H20.2422V88.7866H25.1382V83.8906Z" fill="#222222"/>
<path d="M34.9302 83.8906H30.0342V88.7866H34.9302V83.8906Z" fill="#222222"/>
<path d="M54.5144 83.8906H49.6184V88.7866H54.5144V83.8906Z" fill="#222222"/>
<path d="M59.4102 83.8906H54.5142V88.7866H59.4102V83.8906Z" fill="#222222"/>
<path d="M69.2021 83.8906H64.3062V88.7866H69.2021V83.8906Z" fill="#222222"/>
<path d="M83.8901 83.8906H78.9941V88.7866H83.8901V83.8906Z" fill="#222222"/>
<path d="M93.6821 83.8906H88.7861V88.7866H93.6821V83.8906Z" fill="#222222"/>
<path d="M98.5784 83.8906H93.6824V88.7866H98.5784V83.8906Z" fill="#222222"/>
<path d="M108.37 83.8906H103.474V88.7866H108.37V83.8906Z" fill="#222222"/>
<path d="M118.162 83.8906H113.266V88.7866H118.162V83.8906Z" fill="#222222"/>
<path d="M123.058 83.8906H118.162V88.7866H123.058V83.8906Z" fill="#222222"/>
<path d="M132.85 83.8906H127.954V88.7866H132.85V83.8906Z" fill="#222222"/>
<path d="M15.3462 88.7871H10.4502V93.6831H15.3462V88.7871Z" fill="#222222"/>
<path d="M30.0342 88.7871H25.1382V93.6831H30.0342V88.7871Z" fill="#222222"/>
<path d="M44.7222 88.7871H39.8262V93.6831H44.7222V88.7871Z" fill="#222222"/>
<path d="M59.4102 88.7871H54.5142V93.6831H59.4102V88.7871Z" fill="#222222"/>
<path d="M64.3061 88.7871H59.4102V93.6831H64.3061V88.7871Z" fill="#222222"/>
<path d="M74.0984 88.7871H69.2024V93.6831H74.0984V88.7871Z" fill="#222222"/>
<path d="M78.9944 88.7871H74.0984V93.6831H78.9944V88.7871Z" fill="#222222"/>
<path d="M83.8901 88.7871H78.9941V93.6831H83.8901V88.7871Z" fill="#222222"/>
<path d="M88.7864 88.7871H83.8904V93.6831H88.7864V88.7871Z" fill="#222222"/>
<path d="M93.6821 88.7871H88.7861V93.6831H93.6821V88.7871Z" fill="#222222"/>
<path d="M98.5784 88.7871H93.6824V93.6831H98.5784V88.7871Z" fill="#222222"/>
<path d="M103.474 88.7871H98.5784V93.6831H103.474V88.7871Z" fill="#222222"/>
<path d="M108.37 88.7871H103.474V93.6831H108.37V88.7871Z" fill="#222222"/>
<path d="M113.266 88.7871H108.37V93.6831H113.266V88.7871Z" fill="#222222"/>
<path d="M123.058 88.7871H118.162V93.6831H123.058V88.7871Z" fill="#222222"/>
<path d="M127.954 88.7871H123.058V93.6831H127.954V88.7871Z" fill="#222222"/>
<path d="M54.5144 93.6826H49.6184V98.5786H54.5144V93.6826Z" fill="#222222"/>
<path d="M59.4102 93.6826H54.5142V98.5786H59.4102V93.6826Z" fill="#222222"/>
<path d="M64.3061 93.6826H59.4102V98.5786H64.3061V93.6826Z" fill="#222222"/>
<path d="M74.0984 93.6826H69.2024V98.5786H74.0984V93.6826Z" fill="#222222"/>
<path d="M78.9944 93.6826H74.0984V98.5786H78.9944V93.6826Z" fill="#222222"/>
<path d="M93.6821 93.6826H88.7861V98.5786H93.6821V93.6826Z" fill="#222222"/>
<path d="M113.266 93.6826H108.37V98.5786H113.266V93.6826Z" fill="#222222"/>
<path d="M123.058 93.6826H118.162V98.5786H123.058V93.6826Z" fill="#222222"/>
<path d="M127.954 93.6826H123.058V98.5786H127.954V93.6826Z" fill="#222222"/>
<path d="M15.3462 98.5791H10.4502V103.475H15.3462V98.5791Z" fill="#222222"/>
<path d="M20.2422 98.5791H15.3462V103.475H20.2422V98.5791Z" fill="#222222"/>
<path d="M25.1382 98.5791H20.2422V103.475H25.1382V98.5791Z" fill="#222222"/>
<path d="M30.0342 98.5791H25.1382V103.475H30.0342V98.5791Z" fill="#222222"/>
<path d="M34.9302 98.5791H30.0342V103.475H34.9302V98.5791Z" fill="#222222"/>
<path d="M39.8262 98.5791H34.9302V103.475H39.8262V98.5791Z" fill="#222222"/>
<path d="M44.7222 98.5791H39.8262V103.475H44.7222V98.5791Z" fill="#222222"/>
<path d="M59.4102 98.5791H54.5142V103.475H59.4102V98.5791Z" fill="#222222"/>
<path d="M69.2021 98.5791H64.3062V103.475H69.2021V98.5791Z" fill="#222222"/>
<path d="M93.6821 98.5791H88.7861V103.475H93.6821V98.5791Z" fill="#222222"/>
<path d="M103.474 98.5791H98.5784V103.475H103.474V98.5791Z" fill="#222222"/>
<path d="M113.266 98.5791H108.37V103.475H113.266V98.5791Z" fill="#222222"/>
<path d="M132.85 98.5791H127.954V103.475H132.85V98.5791Z" fill="#222222"/>
<path d="M15.3462 103.475H10.4502V108.371H15.3462V103.475Z" fill="#222222"/>
<path d="M44.7222 103.475H39.8262V108.371H44.7222V103.475Z" fill="#222222"/>
<path d="M59.4102 103.475H54.5142V108.371H59.4102V103.475Z" fill="#222222"/>
<path d="M78.9944 103.475H74.0984V108.371H78.9944V103.475Z" fill="#222222"/>
<path d="M83.8901 103.475H78.9941V108.371H83.8901V103.475Z" fill="#222222"/>
<path d="M88.7864 103.475H83.8904V108.371H88.7864V103.475Z" fill="#222222"/>
<path d="M93.6821 103.475H88.7861V108.371H93.6821V103.475Z" fill="#222222"/>
<path d="M113.266 103.475H108.37V108.371H113.266V103.475Z" fill="#222222"/>
<path d="M15.3462 108.371H10.4502V113.267H15.3462V108.371Z" fill="#222222"/>
<path d="M25.1382 108.371H20.2422V113.267H25.1382V108.371Z" fill="#222222"/>
<path d="M30.0342 108.371H25.1382V113.267H30.0342V108.371Z" fill="#222222"/>
<path d="M34.9302 108.371H30.0342V113.267H34.9302V108.371Z" fill="#222222"/>
<path d="M44.7222 108.371H39.8262V113.267H44.7222V108.371Z" fill="#222222"/>
<path d="M54.5144 108.371H49.6184V113.267H54.5144V108.371Z" fill="#222222"/>
<path d="M64.3061 108.371H59.4102V113.267H64.3061V108.371Z" fill="#222222"/>
<path d="M69.2021 108.371H64.3062V113.267H69.2021V108.371Z" fill="#222222"/>
<path d="M74.0984 108.371H69.2024V113.267H74.0984V108.371Z" fill="#222222"/>
<path d="M83.8901 108.371H78.9941V113.267H83.8901V108.371Z" fill="#222222"/>
<path d="M88.7864 108.371H83.8904V113.267H88.7864V108.371Z" fill="#222222"/>
<path d="M93.6821 108.371H88.7861V113.267H93.6821V108.371Z" fill="#222222"/>
<path d="M98.5784 108.371H93.6824V113.267H98.5784V108.371Z" fill="#222222"/>
<path d="M103.474 108.371H98.5784V113.267H103.474V108.371Z" fill="#222222"/>
<path d="M108.37 108.371H103.474V113.267H108.37V108.371Z" fill="#222222"/>
<path d="M113.266 108.371H108.37V113.267H113.266V108.371Z" fill="#222222"/>
<path d="M15.3462 113.267H10.4502V118.163H15.3462V113.267Z" fill="#222222"/>
<path d="M25.1382 113.267H20.2422V118.163H25.1382V113.267Z" fill="#222222"/>
<path d="M30.0342 113.267H25.1382V118.163H30.0342V113.267Z" fill="#222222"/>
<path d="M34.9302 113.267H30.0342V118.163H34.9302V113.267Z" fill="#222222"/>
<path d="M44.7222 113.267H39.8262V118.163H44.7222V113.267Z" fill="#222222"/>
<path d="M54.5144 113.267H49.6184V118.163H54.5144V113.267Z" fill="#222222"/>
<path d="M64.3061 113.267H59.4102V118.163H64.3061V113.267Z" fill="#222222"/>
<path d="M69.2021 113.267H64.3062V118.163H69.2021V113.267Z" fill="#222222"/>
<path d="M83.8901 113.267H78.9941V118.163H83.8901V113.267Z" fill="#222222"/>
<path d="M98.5784 113.267H93.6824V118.163H98.5784V113.267Z" fill="#222222"/>
<path d="M103.474 113.267H98.5784V118.163H103.474V113.267Z" fill="#222222"/>
<path d="M127.954 113.267H123.058V118.163H127.954V113.267Z" fill="#222222"/>
<path d="M132.85 113.267H127.954V118.163H132.85V113.267Z" fill="#222222"/>
<path d="M15.3462 118.163H10.4502V123.059H15.3462V118.163Z" fill="#222222"/>
<path d="M25.1382 118.163H20.2422V123.059H25.1382V118.163Z" fill="#222222"/>
<path d="M30.0342 118.163H25.1382V123.059H30.0342V118.163Z" fill="#222222"/>
<path d="M34.9302 118.163H30.0342V123.059H34.9302V118.163Z" fill="#222222"/>
<path d="M44.7222 118.163H39.8262V123.059H44.7222V118.163Z" fill="#222222"/>
<path d="M59.4102 118.163H54.5142V123.059H59.4102V118.163Z" fill="#222222"/>
<path d="M64.3061 118.163H59.4102V123.059H64.3061V118.163Z" fill="#222222"/>
<path d="M69.2021 118.163H64.3062V123.059H69.2021V118.163Z" fill="#222222"/>
<path d="M78.9944 118.163H74.0984V123.059H78.9944V118.163Z" fill="#222222"/>
<path d="M83.8901 118.163H78.9941V123.059H83.8901V118.163Z" fill="#222222"/>
<path d="M98.5784 118.163H93.6824V123.059H98.5784V118.163Z" fill="#222222"/>
<path d="M113.266 118.163H108.37V123.059H113.266V118.163Z" fill="#222222"/>
<path d="M118.162 118.163H113.266V123.059H118.162V118.163Z" fill="#222222"/>
<path d="M123.058 118.163H118.162V123.059H123.058V118.163Z" fill="#222222"/>
<path d="M127.954 118.163H123.058V123.059H127.954V118.163Z" fill="#222222"/>
<path d="M132.85 118.163H127.954V123.059H132.85V118.163Z" fill="#222222"/>
<path d="M15.3462 123.059H10.4502V127.955H15.3462V123.059Z" fill="#222222"/>
<path d="M44.7222 123.059H39.8262V127.955H44.7222V123.059Z" fill="#222222"/>
<path d="M54.5144 123.059H49.6184V127.955H54.5144V123.059Z" fill="#222222"/>
<path d="M83.8901 123.059H78.9941V127.955H83.8901V123.059Z" fill="#222222"/>
<path d="M103.474 123.059H98.5784V127.955H103.474V123.059Z" fill="#222222"/>
<path d="M108.37 123.059H103.474V127.955H108.37V123.059Z" fill="#222222"/>
<path d="M113.266 123.059H108.37V127.955H113.266V123.059Z" fill="#222222"/>
<path d="M123.058 123.059H118.162V127.955H123.058V123.059Z" fill="#222222"/>
<path d="M127.954 123.059H123.058V127.955H127.954V123.059Z" fill="#222222"/>
<path d="M132.85 123.059H127.954V127.955H132.85V123.059Z" fill="#222222"/>
<path d="M15.3462 127.954H10.4502V132.85H15.3462V127.954Z" fill="#222222"/>
<path d="M20.2422 127.954H15.3462V132.85H20.2422V127.954Z" fill="#222222"/>
<path d="M25.1382 127.954H20.2422V132.85H25.1382V127.954Z" fill="#222222"/>
<path d="M30.0342 127.954H25.1382V132.85H30.0342V127.954Z" fill="#222222"/>
<path d="M34.9302 127.954H30.0342V132.85H34.9302V127.954Z" fill="#222222"/>
<path d="M39.8262 127.954H34.9302V132.85H39.8262V127.954Z" fill="#222222"/>
<path d="M44.7222 127.954H39.8262V132.85H44.7222V127.954Z" fill="#222222"/>
<path d="M54.5144 127.954H49.6184V132.85H54.5144V127.954Z" fill="#222222"/>
<path d="M59.4102 127.954H54.5142V132.85H59.4102V127.954Z" fill="#222222"/>
<path d="M64.3061 127.954H59.4102V132.85H64.3061V127.954Z" fill="#222222"/>
<path d="M74.0984 127.954H69.2024V132.85H74.0984V127.954Z" fill="#222222"/>
<path d="M93.6821 127.954H88.7861V132.85H93.6821V127.954Z" fill="#222222"/>
<path d="M103.474 127.954H98.5784V132.85H103.474V127.954Z" fill="#222222"/>
<path d="M118.162 127.954H113.266V132.85H118.162V127.954Z" fill="#222222"/>
<path d="M132.85 127.954H127.954V132.85H132.85V127.954Z" fill="#222222"/>
</svg>
