<svg width="12" height="13" viewBox="0 0 12 13" fill="none" xmlns="http://www.w3.org/2000/svg">
<path d="M1.33333 0.166016H10.6667C10.8214 0.166016 10.9697 0.227474 11.0791 0.33687C11.1885 0.446266 11.25 0.594639 11.25 0.749349V11.9937C11.25 12.0424 11.2379 12.0903 11.2147 12.133C11.1915 12.1758 11.158 12.2121 11.1171 12.2386C11.0763 12.2651 11.0295 12.281 10.981 12.2848C10.9325 12.2885 10.8838 12.2801 10.8393 12.2603L6 10.1002L1.16067 12.2597C1.11628 12.2795 1.06763 12.2879 1.01916 12.2842C0.97068 12.2804 0.923911 12.2646 0.883103 12.2382C0.842295 12.2118 0.808742 12.1755 0.785496 12.1328C0.76225 12.0901 0.750048 12.0423 0.75 11.9937V0.749349C0.75 0.594639 0.811458 0.446266 0.920854 0.33687C1.03025 0.227474 1.17862 0.166016 1.33333 0.166016ZM6 6.87435L7.71442 7.7756L7.38717 5.86693L8.77375 4.51477L6.85692 4.23593L6 2.49935L5.1425 4.23593L3.22625 4.51477L4.61283 5.86693L4.28617 7.7756L6 6.87435Z" fill="#FF4E45"/>
</svg>
