<svg width="24" height="24" viewBox="0 0 24 24" fill="none" xmlns="http://www.w3.org/2000/svg">
<path d="M20.6979 9.99414H15.5551C15.4667 9.99414 15.3944 10.0665 15.3944 10.1549V11.1191C15.3944 11.2075 15.4667 11.2799 15.5551 11.2799H20.6979C20.7863 11.2799 20.8586 11.2075 20.8586 11.1191V10.1549C20.8586 10.0665 20.7863 9.99414 20.6979 9.99414ZM18.006 12.7263H15.5551C15.4667 12.7263 15.3944 12.7986 15.3944 12.887V13.8513C15.3944 13.9397 15.4667 14.012 15.5551 14.012H18.006C18.0944 14.012 18.1667 13.9397 18.1667 13.8513V12.887C18.1667 12.7986 18.0944 12.7263 18.006 12.7263ZM11.3022 8.19615H10.4323C10.3077 8.19615 10.2073 8.29659 10.2073 8.42115V13.4033C10.2073 13.4756 10.2414 13.5419 10.2997 13.5841L13.291 15.7658C13.3914 15.8381 13.5321 15.818 13.6044 15.7176L14.1207 15.0124V15.0104C14.193 14.91 14.1709 14.7694 14.0705 14.697L11.5252 12.8569V8.42115C11.5272 8.29659 11.4247 8.19615 11.3022 8.19615Z" fill="white"/>
<path d="M17.8821 15.2505H16.7209C16.6084 15.2505 16.502 15.3088 16.4417 15.4052C16.1862 15.8102 15.8863 16.1855 15.5477 16.5242C14.9647 17.1091 14.2735 17.5751 13.5127 17.8963C12.7232 18.2297 11.8854 18.3985 11.0216 18.3985C10.1557 18.3985 9.31802 18.2297 8.53052 17.8963C7.76914 17.5748 7.0841 17.1128 6.49548 16.5242C5.90686 15.9355 5.44481 15.2505 5.12338 14.4891C4.7899 13.7016 4.62115 12.8639 4.62115 11.998C4.62115 11.1322 4.7899 10.2965 5.12338 9.50698C5.44481 8.74559 5.90686 8.06055 6.49548 7.47193C7.0841 6.88331 7.76914 6.42126 8.53052 6.09983C9.31802 5.76635 10.1578 5.5976 11.0216 5.5976C11.8874 5.5976 12.7252 5.76635 13.5127 6.09983C14.2741 6.42126 14.9591 6.88331 15.5477 7.47193C15.8863 7.81057 16.1862 8.18588 16.4417 8.5909C16.502 8.68733 16.6084 8.74559 16.7209 8.74559H17.8821C18.0207 8.74559 18.1091 8.60095 18.0468 8.4784C16.737 5.87282 14.0812 4.1793 11.116 4.14514C6.77472 4.0909 3.16869 7.6447 3.16066 11.982C3.15262 16.3273 6.67427 19.853 11.0196 19.853C14.0229 19.853 16.7229 18.1534 18.0468 15.5177C18.0609 15.4896 18.0676 15.4583 18.0663 15.4269C18.0649 15.3955 18.0555 15.3649 18.039 15.3381C18.0225 15.3114 17.9994 15.2893 17.9719 15.2739C17.9445 15.2586 17.9135 15.2505 17.8821 15.2505Z" fill="white"/>
</svg>
