<svg width="16" height="20" viewBox="0 0 16 20" fill="none" xmlns="http://www.w3.org/2000/svg">
<path d="M14.7857 15.7116H14.25V8.12233C14.25 4.97278 11.9219 2.3701 8.89286 1.93706V1.06876C8.89286 0.575457 8.4933 0.175903 8 0.175903C7.5067 0.175903 7.10714 0.575457 7.10714 1.06876V1.93706C4.07813 2.3701 1.75 4.97278 1.75 8.12233V15.7116H1.21429C0.819196 15.7116 0.5 16.0308 0.5 16.4259V17.1402C0.5 17.2384 0.580357 17.3188 0.678571 17.3188H5.5C5.5 18.6982 6.62054 19.8188 8 19.8188C9.37947 19.8188 10.5 18.6982 10.5 17.3188H15.3214C15.4196 17.3188 15.5 17.2384 15.5 17.1402V16.4259C15.5 16.0308 15.1808 15.7116 14.7857 15.7116ZM8 18.3902C7.40848 18.3902 6.92857 17.9103 6.92857 17.3188H9.07143C9.07143 17.9103 8.59152 18.3902 8 18.3902ZM3.35714 15.7116V8.12233C3.35714 6.88126 3.83929 5.71608 4.71652 4.83885C5.59375 3.96162 6.75893 3.47947 8 3.47947C9.24107 3.47947 10.4063 3.96162 11.2835 4.83885C12.1607 5.71608 12.6429 6.88126 12.6429 8.12233V15.7116H3.35714Z" fill="white"/>
</svg>
