<svg width="80" height="80" viewBox="0 0 80 80" fill="none" xmlns="http://www.w3.org/2000/svg">
<circle cx="40" cy="40" r="40" fill="#E26B0F"/>
<g clip-path="url(#clip0_269_19158)">
<path d="M59.8218 47.7821L59.8129 47.7731C57.8441 43.6079 54.795 41.4651 50.737 41.4651C46.6789 41.4651 43.6298 43.6124 41.6566 47.7731V47.7776C41.5375 48.0319 41.4758 48.3093 41.4758 48.5901C41.4758 48.8709 41.5375 49.1483 41.6566 49.4026C43.6298 53.5633 46.6789 55.7062 50.737 55.7062C54.795 55.7062 57.8441 53.5588 59.8173 49.3981C60.0584 48.8847 60.0584 48.291 59.8218 47.7821ZM50.737 52.849C47.9647 52.849 45.9423 51.5097 44.4379 48.5856C45.9379 45.6615 47.9647 44.3222 50.737 44.3222C53.5093 44.3222 55.5316 45.6615 57.0361 48.5856C55.5361 51.5097 53.5093 52.849 50.737 52.849Z" fill="#fff"/>
<path d="M48.2589 48.6079C48.2589 49.271 48.5223 49.9069 48.9912 50.3757C49.46 50.8446 50.0959 51.1079 50.7589 51.1079C51.422 51.1079 52.0579 50.8446 52.5267 50.3757C52.9955 49.9069 53.2589 49.271 53.2589 48.6079C53.2589 47.9449 52.9955 47.309 52.5267 46.8402C52.0579 46.3713 51.422 46.1079 50.7589 46.1079C50.0959 46.1079 49.46 46.3713 48.9912 46.8402C48.5223 47.309 48.2589 47.9449 48.2589 48.6079ZM23.2143 27.4919H54.6429V38.7865H57.8571V25.7062C57.8571 24.916 57.2188 24.2776 56.4286 24.2776H21.4286C20.6384 24.2776 20 24.916 20 25.7062V48.9204C20 49.7106 20.6384 50.349 21.4286 50.349H37.1429V47.1347H23.2143V27.4919Z" fill="#fff"/>
<path d="M49.5047 32.2349L47.8618 30.5921C47.7947 30.5256 47.704 30.4883 47.6096 30.4883C47.5151 30.4883 47.4245 30.5256 47.3573 30.5921L39.152 38.8064L35.3082 34.9582C35.2411 34.8917 35.1505 34.8544 35.056 34.8544C34.9615 34.8544 34.8709 34.8917 34.8038 34.9582L28.3618 41.4001C28.2953 41.4673 28.2581 41.5579 28.2581 41.6524C28.2581 41.7468 28.2953 41.8375 28.3618 41.9046L30.0047 43.5474C30.1431 43.6858 30.3707 43.6858 30.5091 43.5474L35.0538 39.0028L38.8975 42.851C39.0359 42.9894 39.2636 42.9894 39.402 42.851L49.5047 32.7394C49.6475 32.601 49.6475 32.3733 49.5047 32.2349Z" fill="#fff"/>
</g>
<defs>
<clipPath id="clip0_269_19158">
<rect width="40" height="40" fill="white" transform="translate(20 20)"/>
</clipPath>
</defs>
</svg>
