<svg width="18" height="18" viewBox="0 0 18 18" fill="none" xmlns="http://www.w3.org/2000/svg">
<path d="M0.912804 14.475H2.1137C2.20745 14.475 2.28557 14.5531 2.28557 14.6469V16.0264H16.3414V1.96831H2.28334V3.34778C2.28334 3.44153 2.20522 3.51965 2.11147 3.51965H0.91057C0.81682 3.51965 0.738697 3.44376 0.738697 3.34778V1.11117C0.738697 0.731707 1.0445 0.425903 1.42396 0.425903H17.1985C17.578 0.425903 17.8838 0.731707 17.8838 1.11117V16.8835C17.8838 17.263 17.578 17.5688 17.1985 17.5688H1.4262C1.04673 17.5688 0.740929 17.263 0.740929 16.8835V14.6469C0.740929 14.5509 0.819054 14.475 0.912804 14.475ZM0.607 8.19376H7.61593V6.49733C7.61593 6.34778 7.79004 6.26296 7.90611 6.35671L11.0735 8.85671C11.0949 8.87341 11.1121 8.89475 11.124 8.91912C11.1359 8.94348 11.142 8.97023 11.142 8.99733C11.142 9.02444 11.1359 9.05118 11.124 9.07555C11.1121 9.09991 11.0949 9.12125 11.0735 9.13796L7.90611 11.638C7.7878 11.7317 7.61593 11.6469 7.61593 11.4973V9.80091H0.607C0.508785 9.80091 0.428429 9.72055 0.428429 9.62233V8.37233C0.428429 8.27412 0.508785 8.19376 0.607 8.19376Z" fill="white"/>
</svg>
