<svg width="13" height="14" viewBox="0 0 13 14" fill="none" xmlns="http://www.w3.org/2000/svg">
<path d="M10.7856 9.71429C10.2766 9.71429 9.807 9.89286 9.43915 10.1911L5.73915 7.51429C5.8011 7.17423 5.8011 6.82577 5.73915 6.48572L9.43915 3.80893C9.807 4.10714 10.2766 4.28572 10.7856 4.28572C11.9677 4.28572 12.9284 3.325 12.9284 2.14286C12.9284 0.960714 11.9677 0 10.7856 0C9.60343 0 8.64272 0.960714 8.64272 2.14286C8.64272 2.35 8.67129 2.54821 8.72665 2.7375L5.21236 5.28214C4.69093 4.59107 3.86236 4.14286 2.92843 4.14286C1.34986 4.14286 0.0712891 5.42143 0.0712891 7C0.0712891 8.57857 1.34986 9.85714 2.92843 9.85714C3.86236 9.85714 4.69093 9.40893 5.21236 8.71786L8.72665 11.2625C8.67129 11.4518 8.64272 11.6518 8.64272 11.8571C8.64272 13.0393 9.60343 14 10.7856 14C11.9677 14 12.9284 13.0393 12.9284 11.8571C12.9284 10.675 11.9677 9.71429 10.7856 9.71429ZM10.7856 1.21429C11.2981 1.21429 11.7141 1.63036 11.7141 2.14286C11.7141 2.65536 11.2981 3.07143 10.7856 3.07143C10.2731 3.07143 9.85701 2.65536 9.85701 2.14286C9.85701 1.63036 10.2731 1.21429 10.7856 1.21429ZM2.92843 8.57143C2.06236 8.57143 1.357 7.86607 1.357 7C1.357 6.13393 2.06236 5.42857 2.92843 5.42857C3.7945 5.42857 4.49986 6.13393 4.49986 7C4.49986 7.86607 3.7945 8.57143 2.92843 8.57143ZM10.7856 12.7857C10.2731 12.7857 9.85701 12.3696 9.85701 11.8571C9.85701 11.3446 10.2731 10.9286 10.7856 10.9286C11.2981 10.9286 11.7141 11.3446 11.7141 11.8571C11.7141 12.3696 11.2981 12.7857 10.7856 12.7857Z" fill="#141432"/>
</svg>
