<svg width="24" height="24" viewBox="0 0 24 24" fill="none" xmlns="http://www.w3.org/2000/svg">
<path fill-rule="evenodd" clip-rule="evenodd" d="M11.7499 4.50049C11.6589 4.50049 11.4349 4.52549 11.3159 4.76349L9.48986 8.41449C9.20086 8.99149 8.64386 9.39249 7.99986 9.48449L3.91186 10.0735C3.64186 10.1125 3.54986 10.3125 3.52186 10.3965C3.49686 10.4775 3.45686 10.6835 3.64286 10.8615L6.59886 13.7015C7.06986 14.1545 7.28386 14.8075 7.17186 15.4465L6.47586 19.4565C6.43286 19.7075 6.58986 19.8535 6.65986 19.9035C6.73386 19.9595 6.93186 20.0705 7.17686 19.9425L10.8319 18.0475C11.4079 17.7505 12.0939 17.7505 12.6679 18.0475L16.3219 19.9415C16.5679 20.0685 16.7659 19.9575 16.8409 19.9035C16.9109 19.8535 17.0679 19.7075 17.0249 19.4565L16.3269 15.4465C16.2149 14.8075 16.4289 14.1545 16.8999 13.7015L19.8559 10.8615C20.0429 10.6835 20.0029 10.4765 19.9769 10.3965C19.9499 10.3125 19.8579 10.1125 19.5879 10.0735L15.4999 9.48449C14.8569 9.39249 14.2999 8.99149 14.0109 8.41349L12.1829 4.76349C12.0649 4.52549 11.8409 4.50049 11.7499 4.50049ZM6.94692 21.5C6.53392 21.5 6.12392 21.37 5.77292 21.114C5.16692 20.67 4.86992 19.937 4.99892 19.199L5.69492 15.189C5.72092 15.04 5.66992 14.889 5.55992 14.783L2.60392 11.943C2.05992 11.422 1.86492 10.652 2.09492 9.937C2.32692 9.214 2.94092 8.697 3.69792 8.589L7.78592 8C7.94392 7.978 8.07992 7.881 8.14792 7.743L9.97492 4.091C10.3119 3.418 10.9919 3 11.7499 3C12.5079 3 13.1879 3.418 13.5249 4.091L15.3529 7.742C15.4219 7.881 15.5569 7.978 15.7139 8L19.8019 8.589C20.5589 8.697 21.1729 9.214 21.4049 9.937C21.6349 10.652 21.4389 11.422 20.8949 11.943L17.9389 14.783C17.8289 14.889 17.7789 15.04 17.8049 15.188L18.5019 19.199C18.6299 19.938 18.3329 20.671 17.7259 21.114C17.1109 21.565 16.3099 21.626 15.6309 21.272L11.9779 19.379C11.8349 19.305 11.6639 19.305 11.5209 19.379L7.86792 21.273C7.57592 21.425 7.26092 21.5 6.94692 21.5Z" fill="#F5493A"/>
</svg>
