<svg width="140" height="140" viewBox="0 0 140 140" fill="none" xmlns="http://www.w3.org/2000/svg">
<path opacity="0.1" d="M70 140C108.66 140 140 108.66 140 70C140 31.3401 108.66 0 70 0C31.3401 0 0 31.3401 0 70C0 108.66 31.3401 140 70 140Z" fill="#010C29"/>
<path opacity="0.1" d="M70 130C103.137 130 130 103.137 130 70C130 36.8629 103.137 10 70 10C36.8629 10 10 36.8629 10 70C10 103.137 36.8629 130 70 130Z" fill="#010C29"/>
<path d="M70 120C97.6142 120 120 97.6142 120 70C120 42.3858 97.6142 20 70 20C42.3858 20 20 42.3858 20 70C20 97.6142 42.3858 120 70 120Z" fill="#010C29"/>
<rect x="44" y="44" width="52" height="52" fill="#E26B0F"/>
<path d="M70 20C42.3884 20 20 42.3884 20 70C20 97.6116 42.3884 120 70 120C97.6116 120 120 97.6116 120 70C120 42.3884 97.6116 20 70 20ZM91.596 53.6719L68.0915 86.2612C67.763 86.7197 67.3299 87.0933 66.8282 87.351C66.3265 87.6088 65.7705 87.7432 65.2065 87.7432C64.6424 87.7432 64.0865 87.6088 63.5847 87.351C63.083 87.0933 62.6499 86.7197 62.3214 86.2612L48.404 66.9754C47.9799 66.3839 48.404 65.558 49.1295 65.558H54.3638C55.5022 65.558 56.5848 66.1049 57.2545 67.0424L65.2009 78.0692L82.7455 53.7388C83.4152 52.8125 84.4866 52.2545 85.6362 52.2545H90.8705C91.596 52.2545 92.0201 53.0804 91.596 53.6719Z" fill="#010C29"/>
</svg>
