<svg width="18" height="18" viewBox="0 0 18 18" fill="none" xmlns="http://www.w3.org/2000/svg">
<path d="M9.00014 0.425903C4.26577 0.425903 0.428711 4.26296 0.428711 8.99733V17.033C0.428711 17.3299 0.66755 17.5688 0.964425 17.5688H5.07157C5.85952 17.5688 6.50014 16.9281 6.50014 16.1402V11.4973C6.50014 10.7094 5.85952 10.0688 5.07157 10.0688H2.03585V8.99733C2.03585 5.15135 5.15416 2.03305 9.00014 2.03305C12.8461 2.03305 15.9644 5.15135 15.9644 8.99733V10.0688H12.9287C12.1408 10.0688 11.5001 10.7094 11.5001 11.4973V16.1402C11.5001 16.9281 12.1408 17.5688 12.9287 17.5688H17.0359C17.3327 17.5688 17.5716 17.3299 17.5716 17.033V8.99733C17.5716 4.26296 13.7345 0.425903 9.00014 0.425903ZM4.893 11.6759V15.9616H2.03585V11.6759H4.893ZM15.9644 15.9616H13.1073V11.6759H15.9644V15.9616Z" fill="white"/>
</svg>
