<svg width="13" height="16" viewBox="0 0 13 16" fill="none" xmlns="http://www.w3.org/2000/svg">
<path d="M12.7858 12.0022C12.7858 10.0094 11.6179 8.28795 9.92864 7.48616V4.52545C9.92864 4.2558 9.834 3.99509 9.659 3.78973L6.93757 0.562946C6.82329 0.427232 6.66079 0.359375 6.50007 0.359375C6.33936 0.359375 6.17686 0.427232 6.06257 0.562946L3.34114 3.78973C3.16733 3.99551 3.07183 4.25609 3.0715 4.52545V7.48616C1.38221 8.28795 0.214355 10.0094 0.214355 12.0022H3.009C2.96793 12.1308 2.9465 12.2701 2.9465 12.4272C2.9465 12.8219 3.08221 13.2076 3.32864 13.5129C3.52979 13.7627 3.79619 13.9518 4.09828 14.0594C4.51078 15.0237 5.44828 15.6451 6.50007 15.6451C7.01971 15.6451 7.52329 15.4915 7.95364 15.2022C8.37507 14.9201 8.70186 14.5254 8.90007 14.0594C9.20205 13.9525 9.46846 13.764 9.66971 13.5147C9.91647 13.2066 10.0512 12.8238 10.0519 12.429C10.0519 12.279 10.0322 12.1362 9.9965 12.004H12.7858V12.0022ZM10.9697 9.9558C11.1376 10.2165 11.2733 10.4969 11.3715 10.7879H9.85721V8.83616C10.3027 9.1269 10.6818 9.50844 10.9697 9.9558ZM4.28578 7.48616V4.55223L6.50007 1.92723L8.71436 4.55223V10.7879H4.28578V7.48616ZM1.62864 10.7879C1.72686 10.4969 1.86257 10.2165 2.03043 9.9558C2.3215 9.5058 2.70007 9.12545 3.14293 8.83616V10.7879H1.62864ZM8.57329 12.8629C8.48043 12.9165 8.37329 12.9379 8.26793 12.9237L7.91971 12.8808L7.86971 13.2272C7.77329 13.904 7.184 14.4147 6.50007 14.4147C5.81614 14.4147 5.22686 13.904 5.13043 13.2272L5.08043 12.879L4.73221 12.9237C4.62635 12.9363 4.51925 12.9144 4.42686 12.8612C4.2715 12.7719 4.17507 12.6058 4.17507 12.4254C4.17507 12.2362 4.28043 12.079 4.43578 12.0004H8.56614C8.72329 12.0808 8.82686 12.2379 8.82686 12.4254C8.82507 12.6076 8.72864 12.7754 8.57329 12.8629ZM5.64293 6.00223C5.64293 6.22956 5.73323 6.44758 5.89398 6.60832C6.05472 6.76907 6.27274 6.85937 6.50007 6.85937C6.7274 6.85937 6.94542 6.76907 7.10616 6.60832C7.26691 6.44758 7.35721 6.22956 7.35721 6.00223C7.35721 5.7749 7.26691 5.55689 7.10616 5.39614C6.94542 5.23539 6.7274 5.14509 6.50007 5.14509C6.27274 5.14509 6.05472 5.23539 5.89398 5.39614C5.73323 5.55689 5.64293 5.7749 5.64293 6.00223Z" fill="white"/>
</svg>
