<svg width="25" height="24" viewBox="0 0 25 24" fill="none" xmlns="http://www.w3.org/2000/svg">
<path opacity="0.4" d="M22.4998 12C22.4998 17.524 18.0228 22 12.4998 22C6.97676 22 2.49976 17.524 2.49976 12C2.49976 6.478 6.97676 2 12.4998 2C18.0228 2 22.4998 6.478 22.4998 12Z" fill="#F5493A"/>
<path d="M16.0734 15.8143C15.9424 15.8143 15.8104 15.7803 15.6894 15.7093L11.7634 13.3673C11.5374 13.2313 11.3984 12.9863 11.3984 12.7223V7.67529C11.3984 7.26129 11.7344 6.92529 12.1484 6.92529C12.5624 6.92529 12.8984 7.26129 12.8984 7.67529V12.2963L16.4584 14.4193C16.8134 14.6323 16.9304 15.0923 16.7184 15.4483C16.5774 15.6833 16.3284 15.8143 16.0734 15.8143Z" fill="#F5493A"/>
</svg>
