<svg width="80" height="80" viewBox="0 0 80 80" fill="none" xmlns="http://www.w3.org/2000/svg">
<circle cx="40" cy="40" r="40" fill="#E26B0F"/>
<path fill-rule="evenodd" clip-rule="evenodd" d="M30.6666 22.6667C27.7211 22.6667 25.3333 25.0545 25.3333 28C25.3333 30.9455 27.7211 33.3333 30.6666 33.3333V36C26.2483 36 22.6666 32.4183 22.6666 28C22.6666 23.5817 26.2483 20 30.6666 20H49.3333C53.7516 20 57.3333 23.5817 57.3333 28C57.3333 32.4183 53.7516 36 49.3333 36H44V33.3333H49.3333C52.2788 33.3333 54.6666 30.9455 54.6666 28C54.6666 25.0545 52.2788 22.6667 49.3333 22.6667H30.6666ZM33.3333 29.3333C33.3333 27.1242 35.1242 25.3333 37.3333 25.3333C39.5424 25.3333 41.3333 27.1242 41.3333 29.3333V38.6667H48.9411C52.1032 38.6667 54.6666 41.2301 54.6666 44.3922V46.6667C54.6666 54.0305 48.6971 60 41.3333 60H40C33.3725 60 28 54.6274 28 48C28 44.7747 30.2903 42.0844 33.3333 41.4667V29.3333ZM33.3333 44.2276C31.7797 44.7767 30.6666 46.2584 30.6666 48C30.6666 53.1547 34.8453 57.3333 40 57.3333H41.3333C47.2243 57.3333 52 52.5577 52 46.6667V44.3922C52 42.7028 50.6305 41.3333 48.9411 41.3333H38.6666V29.3333C38.6666 28.597 38.0697 28 37.3333 28C36.5969 28 36 28.597 36 29.3333V46.6667H33.3333V44.2276Z" fill="#fff"/>
</svg>
