<svg width="26" height="27" viewBox="0 0 26 27" fill="none" xmlns="http://www.w3.org/2000/svg">
<circle cx="13" cy="13.5" r="13" fill="#ED3C37"/>
<path d="M18.5625 8H17.125V7.375C17.125 7.30625 17.0688 7.25 17 7.25H9C8.93125 7.25 8.875 7.30625 8.875 7.375V8H7.4375C7.25516 8 7.0803 8.07243 6.95136 8.20136C6.82243 8.3303 6.75 8.50516 6.75 8.6875V11C6.75 12.2766 7.6875 13.3375 8.90937 13.5312C9.15 15.3469 10.6094 16.7781 12.4375 16.9766V18.6203H9.375C9.09844 18.6203 8.875 18.8438 8.875 19.1203V19.625C8.875 19.6938 8.93125 19.75 9 19.75H17C17.0688 19.75 17.125 19.6938 17.125 19.625V19.1203C17.125 18.8438 16.9016 18.6203 16.625 18.6203H13.5625V16.9766C15.3906 16.7781 16.85 15.3469 17.0906 13.5312C18.3125 13.3375 19.25 12.2766 19.25 11V8.6875C19.25 8.50516 19.1776 8.3303 19.0486 8.20136C18.9197 8.07243 18.7448 8 18.5625 8ZM8.875 12.3688C8.29531 12.1828 7.875 11.6391 7.875 11V9.125H8.875V12.3688ZM18.125 11C18.125 11.6406 17.7047 12.1844 17.125 12.3688V9.125H18.125V11Z" fill="white"/>
</svg>
