<svg width="24" height="24" viewBox="0 0 24 24" fill="none" xmlns="http://www.w3.org/2000/svg">
<path fill-rule="evenodd" clip-rule="evenodd" d="M11.9732 0.609619C15.6428 0.609619 18.616 3.58283 18.616 7.25248C18.616 10.9221 15.6428 13.8953 11.9732 13.8953C9.83032 13.8953 7.82139 14.731 6.308 16.2498C4.84282 17.7177 4.01514 19.6543 3.96157 21.7221C3.95889 21.8373 3.86246 21.931 3.74728 21.931H2.14282C2.11422 21.9311 2.08591 21.9253 2.05956 21.9142C2.03321 21.9031 2.00934 21.8869 1.98937 21.8664C1.9694 21.8459 1.95373 21.8217 1.94328 21.7951C1.93283 21.7684 1.92782 21.74 1.92853 21.7114C1.95353 20.4395 2.2208 19.1841 2.71603 18.0123C3.21937 16.8157 3.95083 15.7285 4.86961 14.8114C5.79371 13.8846 6.86782 13.1587 8.06514 12.6525C8.06736 12.6514 8.07004 12.6503 8.07318 12.649C8.07762 12.6471 8.08297 12.6449 8.08925 12.6418C6.41782 11.4364 5.33032 9.47033 5.33032 7.25248C5.33032 3.58283 8.30353 0.609619 11.9732 0.609619ZM7.36603 7.25248C7.36603 9.79712 9.42853 11.8596 11.9732 11.8596C14.5178 11.8596 16.5803 9.79712 16.5803 7.25248C16.5803 4.70783 14.5178 2.64533 11.9732 2.64533C9.42853 2.64533 7.36603 4.70783 7.36603 7.25248ZM17.1306 18.0051C17.3641 17.7682 17.6725 17.6386 18.0018 17.6386C18.1637 17.6381 18.3241 17.6702 18.4736 17.7331C18.6232 17.7961 18.7589 17.8885 18.8729 18.0051C19.1053 18.2421 19.2342 18.555 19.2342 18.8892C19.2342 19.2234 19.1053 19.5363 18.8729 19.7733C18.6395 20.0091 18.3311 20.1398 18.0018 20.1398C17.6725 20.1398 17.3641 20.0091 17.1306 19.7733C16.8983 19.5363 16.7694 19.2234 16.7694 18.8892C16.7694 18.555 16.8983 18.2421 17.1306 18.0051ZM21.8223 19.6458L22.5426 20.2706C22.6538 20.3678 22.6946 20.5232 22.6472 20.6618L22.6373 20.6908C22.438 21.253 22.1439 21.7705 21.7606 22.2298L21.7408 22.2533C21.6946 22.3087 21.6329 22.3486 21.5638 22.3675C21.4948 22.3865 21.4217 22.3837 21.3543 22.3595L20.46 22.0365C20.1296 22.3114 19.7617 22.5271 19.363 22.6791L19.1901 23.628C19.1771 23.6995 19.1429 23.7653 19.0922 23.8166C19.0414 23.8679 18.9765 23.9023 18.906 23.9153L18.8763 23.9208C18.2979 24.0265 17.7057 24.0265 17.1273 23.9208L17.0976 23.9153C17.0271 23.9023 16.9622 23.8679 16.9114 23.8166C16.8607 23.7653 16.8265 23.6995 16.8135 23.628L16.6394 22.6747C16.2441 22.5249 15.8784 22.3081 15.5502 22.0343L14.6493 22.3595C14.5819 22.3835 14.5088 22.3862 14.4398 22.3673C14.3708 22.3483 14.3091 22.3086 14.2628 22.2533L14.2429 22.2298C13.8597 21.7727 13.5656 21.253 13.3663 20.6908L13.3564 20.6618C13.3321 20.5934 13.3288 20.5192 13.3471 20.4489C13.3654 20.3786 13.4044 20.3156 13.4588 20.2684L14.1857 19.6369C14.1515 19.429 14.135 19.2144 14.135 18.9998C14.135 18.7875 14.1515 18.5729 14.1857 18.3628L13.4566 17.7313C13.3454 17.6341 13.3046 17.4776 13.3542 17.3379L13.3641 17.3089C13.5631 16.7467 13.86 16.2254 14.2407 15.7699L14.2606 15.7464C14.3068 15.691 14.3685 15.6511 14.4375 15.6322C14.5066 15.6132 14.5797 15.616 14.6471 15.6402L15.548 15.9654C15.8744 15.6934 16.2423 15.4771 16.6372 15.325L16.8112 14.3717C16.8243 14.3002 16.8585 14.2344 16.9092 14.1831C16.96 14.1318 17.0249 14.0974 17.0954 14.0844L17.1251 14.0789C17.6978 13.9738 18.3014 13.9738 18.874 14.0789L18.9038 14.0844C18.9743 14.0974 19.0392 14.1318 19.09 14.1831C19.1407 14.2344 19.1749 14.3002 19.1879 14.3717L19.3608 15.3206C19.7595 15.4714 20.1274 15.6883 20.4578 15.9632L21.3521 15.6402C21.4195 15.6162 21.4926 15.6135 21.5616 15.6324C21.6306 15.6514 21.6923 15.6911 21.7386 15.7464L21.7584 15.7699C22.1399 16.2249 22.4369 16.7463 22.6351 17.3089L22.645 17.3379C22.6693 17.4063 22.6725 17.4805 22.6542 17.5508C22.6359 17.6211 22.597 17.6841 22.5426 17.7313L21.8223 18.3561C21.8565 18.5673 21.8741 18.7853 21.8741 19.001C21.8741 19.2167 21.8565 19.4335 21.8223 19.6458ZM16.0656 18.8892C16.0656 19.9744 16.9324 20.854 18.0018 20.854C19.0712 20.854 19.9379 19.9744 19.9379 18.8892C19.9379 17.804 19.0712 16.9244 18.0018 16.9244C16.9324 16.9244 16.0656 17.804 16.0656 18.8892Z" fill="white"/>
</svg>
