<svg width="80" height="80" viewBox="0 0 80 80" fill="none" xmlns="http://www.w3.org/2000/svg">
<circle cx="40" cy="40" r="40" fill="#E26B0F"/>
<path d="M47.4246 45.8106C48.5049 45.2303 49.7415 44.8999 51.0585 44.8999H51.063C51.1969 44.8999 51.2594 44.7392 51.1612 44.6499C49.7916 43.4208 48.2271 42.4281 46.5317 41.7124C46.5139 41.7035 46.496 41.699 46.4781 41.6901C49.2505 39.6767 51.054 36.4044 51.054 32.7124C51.054 26.5963 46.1076 21.641 40.0049 21.641C33.9022 21.641 28.9603 26.5963 28.9603 32.7124C28.9603 36.4044 30.7639 39.6767 33.5406 41.6901C33.5228 41.699 33.5049 41.7035 33.4871 41.7124C31.4915 42.5562 29.7014 43.766 28.1612 45.3106C26.6299 46.8391 25.4108 48.6511 24.5719 50.6455C23.7465 52.5984 23.301 54.6908 23.2594 56.8106C23.2582 56.8583 23.2666 56.9057 23.284 56.9501C23.3014 56.9944 23.3275 57.0349 23.3608 57.069C23.3941 57.1031 23.4338 57.1302 23.4778 57.1487C23.5217 57.1672 23.5689 57.1767 23.6165 57.1767H26.2906C26.4826 57.1767 26.6433 57.0205 26.6478 56.8285C26.7371 53.3821 28.1165 50.1544 30.5585 47.708C33.0808 45.1767 36.438 43.7838 40.0094 43.7838C42.5406 43.7838 44.9692 44.4847 47.063 45.7972C47.1167 45.831 47.1785 45.8501 47.242 45.8524C47.3054 45.8548 47.3684 45.8404 47.4246 45.8106ZM40.0094 40.391C37.9647 40.391 36.0406 39.5919 34.5897 38.141C33.8759 37.429 33.31 36.5828 32.9246 35.6511C32.5392 34.7194 32.3419 33.7207 32.3442 32.7124C32.3442 30.6633 33.1433 28.7347 34.5897 27.2838C36.0362 25.833 37.9603 25.0338 40.0094 25.0338C42.0585 25.0338 43.9781 25.833 45.429 27.2838C46.1429 27.9959 46.7088 28.8421 47.0942 29.7738C47.4796 30.7054 47.6768 31.7042 47.6746 32.7124C47.6746 34.7615 46.8755 36.6901 45.429 38.141C43.9781 39.5919 42.054 40.391 40.0094 40.391ZM56.429 51.016H52.679V47.266C52.679 47.0696 52.5183 46.9088 52.3219 46.9088H49.8219C49.6255 46.9088 49.4647 47.0696 49.4647 47.266V51.016H45.7147C45.5183 51.016 45.3576 51.1767 45.3576 51.3731V53.8731C45.3576 54.0696 45.5183 54.2303 45.7147 54.2303H49.4647V57.9803C49.4647 58.1767 49.6255 58.3374 49.8219 58.3374H52.3219C52.5183 58.3374 52.679 58.1767 52.679 57.9803V54.2303H56.429C56.6255 54.2303 56.7862 54.0696 56.7862 53.8731V51.3731C56.7862 51.1767 56.6255 51.016 56.429 51.016Z" fill="#fff"/>
</svg>
