<svg width="13" height="12" viewBox="0 0 30 30" fill="none" xmlns="http://www.w3.org/2000/svg">
<path d="M29.4635 13.4726H5.95498L20.0255 1.2583C20.2505 1.06143 20.1139 0.695801 19.8166 0.695801H16.2608C16.1041 0.695801 15.9554 0.752051 15.8389 0.852497L0.655424 14.0271C0.516361 14.1476 0.404833 14.2966 0.328397 14.464C0.251961 14.6314 0.212402 14.8133 0.212402 14.9974C0.212402 15.1814 0.251961 15.3633 0.328397 15.5307C0.404833 15.6981 0.516361 15.8471 0.655424 15.9677L15.9273 29.2226C15.9876 29.2748 16.0599 29.3029 16.1362 29.3029H19.8126C20.1099 29.3029 20.2465 28.9333 20.0215 28.7404L5.95498 16.5262H29.4635C29.6402 16.5262 29.7849 16.3815 29.7849 16.2047V13.794C29.7849 13.6172 29.6402 13.4726 29.4635 13.4726Z" fill="#222222"/>
</svg>
