<svg width="24" height="24" viewBox="0 0 24 24" fill="none" xmlns="http://www.w3.org/2000/svg">
<mask id="mask0_389_10625" style="mask-type:alpha" maskUnits="userSpaceOnUse" x="2" y="5" width="13" height="16">
<path fill-rule="evenodd" clip-rule="evenodd" d="M2 5H14.02V20.5019H2V5Z" fill="white"/>
</mask>
<g mask="url(#mask0_389_10625)">
<path fill-rule="evenodd" clip-rule="evenodd" d="M11.208 6.50589C10.34 6.50589 9.22998 7.38689 8.30598 8.12089C7.41698 8.82589 6.71498 9.38389 6.01498 9.43589C5.70498 9.45789 5.43898 9.46789 5.20498 9.47589C4.45798 9.50089 4.26898 9.51789 3.93198 9.79589C3.48998 10.1589 3.49698 11.6419 3.50098 12.5269L3.50198 12.7479V12.7519L3.50098 12.9729C3.49698 13.8589 3.48998 15.3419 3.93198 15.7049C4.26798 15.9829 4.45698 15.9989 5.20198 16.0259C5.43698 16.0329 5.70398 16.0429 6.01498 16.0659C6.71498 16.1169 7.41698 16.6749 8.30598 17.3799C9.40898 18.2549 10.775 19.3399 11.681 18.8889C12.439 18.2319 12.52 16.4899 12.52 12.7499C12.52 9.00989 12.439 7.26889 11.681 6.61089C11.534 6.53789 11.375 6.50589 11.208 6.50589ZM11.218 20.5019C9.82698 20.5019 8.44798 19.4069 7.37398 18.5549C6.88898 18.1699 6.15598 17.5879 5.90298 17.5619C5.61598 17.5399 5.36798 17.5309 5.14898 17.5249C4.35098 17.4959 3.71998 17.4749 2.97798 16.8629C1.98598 16.0459 1.99498 14.3379 2.00098 12.9659L2.00198 12.7499L2.00098 12.5339C1.99498 11.1619 1.98598 9.45489 2.97798 8.63789C3.72098 8.02589 4.35298 8.00389 5.15298 7.97689C5.37098 7.96889 5.61798 7.96089 5.90498 7.93989C6.15598 7.91289 6.88898 7.33089 7.37398 6.94589C8.77298 5.83489 10.689 4.31789 12.474 5.33489C12.505 5.35389 12.536 5.37389 12.564 5.39689C13.958 6.49189 14.02 8.55689 14.02 12.7499C14.02 16.9439 13.958 19.0089 12.564 20.1049C12.536 20.1269 12.505 20.1479 12.473 20.1659C12.059 20.4019 11.638 20.5019 11.218 20.5019Z" fill="white"/>
</g>
<mask id="mask1_389_10625" style="mask-type:alpha" maskUnits="userSpaceOnUse" x="19" y="5" width="4" height="15">
<path fill-rule="evenodd" clip-rule="evenodd" d="M19.0837 5.90332H22.4838V19.5956H19.0837V5.90332Z" fill="white"/>
</mask>
<g mask="url(#mask1_389_10625)">
<path fill-rule="evenodd" clip-rule="evenodd" d="M19.8334 19.5956C19.6854 19.5956 19.5364 19.5516 19.4054 19.4606C19.0654 19.2246 18.9814 18.7576 19.2184 18.4166C21.6114 14.9766 21.6114 10.5276 19.2184 7.08164C18.9814 6.74164 19.0654 6.27464 19.4064 6.03764C19.7464 5.80064 20.2124 5.88564 20.4494 6.22664C23.1624 10.1306 23.1624 15.3736 20.4494 19.2746C20.3034 19.4836 20.0704 19.5956 19.8334 19.5956Z" fill="white"/>
</g>
<path fill-rule="evenodd" clip-rule="evenodd" d="M17.3305 17.1864C17.2035 17.1864 17.0755 17.1544 16.9575 17.0864C16.5985 16.8804 16.4745 16.4214 16.6805 16.0634C17.8515 14.0224 17.8515 11.4844 16.6805 9.43744C16.4745 9.07744 16.5995 8.61944 16.9585 8.41344C17.3185 8.21144 17.7755 8.33244 17.9815 8.69144C19.4165 11.1994 19.4165 14.3094 17.9815 16.8094C17.8425 17.0514 17.5905 17.1864 17.3305 17.1864Z" fill="white"/>
</svg>
