<svg width="14" height="11" viewBox="0 0 14 11" fill="none" xmlns="http://www.w3.org/2000/svg">
    <mask id="mask0_461_83" style="mask-type:alpha" maskUnits="userSpaceOnUse" x="0" y="0" width="9" height="11">
        <path fill-rule="evenodd" clip-rule="evenodd" d="M0.333252 0.333008H8.34657V10.6676H0.333252V0.333008Z" fill="white"/>
    </mask>
    <g mask="url(#mask0_461_83)">
        <path fill-rule="evenodd" clip-rule="evenodd" d="M6.47171 1.33662C5.89305 1.33662 5.15305 1.92395 4.53705 2.41329C3.94438 2.88329 3.47638 3.25529 3.00971 3.28995C2.80305 3.30462 2.62571 3.31129 2.46971 3.31662C1.97171 3.33329 1.84571 3.34462 1.62105 3.52995C1.32638 3.77195 1.33105 4.76062 1.33371 5.35062L1.33438 5.49795V5.50062L1.33371 5.64795C1.33105 6.23862 1.32638 7.22729 1.62105 7.46929C1.84505 7.65462 1.97105 7.66529 2.46771 7.68329C2.62438 7.68796 2.80238 7.69462 3.00971 7.70996C3.47638 7.74396 3.94438 8.11595 4.53705 8.58595C5.27238 9.16929 6.18305 9.89262 6.78705 9.59196C7.29238 9.15396 7.34638 7.99262 7.34638 5.49929C7.34638 3.00595 7.29238 1.84529 6.78705 1.40662C6.68905 1.35795 6.58305 1.33662 6.47171 1.33662ZM6.47857 10.6674C5.55124 10.6674 4.63191 9.93744 3.91591 9.36944C3.59257 9.11277 3.10391 8.72477 2.93524 8.70743C2.74391 8.69277 2.57857 8.68677 2.43257 8.68277C1.90057 8.66343 1.47991 8.64944 0.985241 8.24144C0.323908 7.69677 0.329908 6.5581 0.333908 5.64344L0.334574 5.49944L0.333908 5.35544C0.329908 4.44077 0.323908 3.30277 0.985241 2.7581C1.48057 2.3501 1.90191 2.33544 2.43524 2.31744C2.58057 2.3121 2.74524 2.30677 2.93657 2.29277C3.10391 2.27477 3.59257 1.88677 3.91591 1.6301C4.84857 0.889436 6.12591 -0.121898 7.31591 0.556102C7.33658 0.568769 7.35724 0.582102 7.37591 0.597436C8.30524 1.32744 8.34657 2.7041 8.34657 5.49944C8.34657 8.29543 8.30524 9.6721 7.37591 10.4028C7.35724 10.4174 7.33658 10.4314 7.31524 10.4434C7.03924 10.6008 6.75857 10.6674 6.47857 10.6674Z" fill="#C72114"/>
    </g>
    <mask id="mask1_461_83" style="mask-type:alpha" maskUnits="userSpaceOnUse" x="11" y="0" width="3" height="11">
        <path fill-rule="evenodd" clip-rule="evenodd" d="M11.7222 0.935547H13.9889V10.0638H11.7222V0.935547Z" fill="white"/>
    </mask>
    <g mask="url(#mask1_461_83)">
        <path fill-rule="evenodd" clip-rule="evenodd" d="M12.222 10.0638C12.1233 10.0638 12.024 10.0344 11.9366 9.97376C11.71 9.81643 11.654 9.50509 11.812 9.27776C13.4073 6.98443 13.4073 4.01843 11.812 1.72109C11.654 1.49443 11.71 1.18309 11.9373 1.02509C12.164 0.867093 12.4746 0.92376 12.6326 1.15109C14.4413 3.75376 14.4413 7.24909 12.6326 9.84976C12.5353 9.98909 12.38 10.0638 12.222 10.0638Z" fill="#C72114"/>
    </g>
    <path fill-rule="evenodd" clip-rule="evenodd" d="M10.5534 8.45763C10.4687 8.45763 10.3834 8.43629 10.3047 8.39096C10.0654 8.25363 9.98274 7.94763 10.1201 7.70896C10.9007 6.34829 10.9007 4.65629 10.1201 3.29163C9.98274 3.05163 10.0661 2.74629 10.3054 2.60896C10.5454 2.47429 10.8501 2.55496 10.9874 2.79429C11.9441 4.46629 11.9441 6.53963 10.9874 8.20629C10.8947 8.36763 10.7267 8.45763 10.5534 8.45763Z" fill="#C72114"/>
</svg>
