<svg width="20" height="20" viewBox="0 0 20 20" fill="none" xmlns="http://www.w3.org/2000/svg">
<path d="M18.2141 1.07422H1.78557C1.39049 1.07422 1.07129 1.39342 1.07129 1.7885V18.2171C1.07129 18.6122 1.39049 18.9314 1.78557 18.9314H18.2141C18.6092 18.9314 18.9284 18.6122 18.9284 18.2171V1.7885C18.9284 1.39342 18.6092 1.07422 18.2141 1.07422ZM17.3213 11.4314H10.357V8.57422H17.3213V11.4314ZM17.3213 17.3242H2.67843V2.68136H17.3213V7.14565H9.64272C9.24763 7.14565 8.92843 7.46484 8.92843 7.85993V12.1456C8.92843 12.5407 9.24763 12.8599 9.64272 12.8599H17.3213V17.3242ZM11.5177 10.0028C11.5177 10.2396 11.6118 10.4667 11.7792 10.6341C11.9467 10.8016 12.1738 10.8956 12.4106 10.8956C12.6474 10.8956 12.8745 10.8016 13.0419 10.6341C13.2094 10.4667 13.3034 10.2396 13.3034 10.0028C13.3034 9.76599 13.2094 9.53889 13.0419 9.37144C12.8745 9.204 12.6474 9.10993 12.4106 9.10993C12.1738 9.10993 11.9467 9.204 11.7792 9.37144C11.6118 9.53889 11.5177 9.76599 11.5177 10.0028Z" fill="white"/>
</svg>
