<svg width="23" height="22" viewBox="0 0 23 22" fill="none" xmlns="http://www.w3.org/2000/svg">
<path d="M4.60342 4.46674H18.3534C18.514 4.46667 18.6745 4.47686 18.8338 4.49725C18.7798 4.11817 18.6496 3.75395 18.451 3.42655C18.2525 3.09915 17.9896 2.81536 17.6784 2.59228C17.3672 2.36919 17.014 2.21145 16.6402 2.12854C16.2664 2.04564 15.8796 2.0393 15.5033 2.10991L4.19522 4.04049H4.18233C3.47252 4.17623 2.8413 4.57783 2.4176 5.16327C3.05594 4.70923 3.82008 4.46573 4.60342 4.46674V4.46674Z" fill="#FFBA52"/>
<path d="M18.3536 5.49976H4.60358C3.87448 5.50055 3.17546 5.79054 2.65991 6.30609C2.14436 6.82164 1.85437 7.52065 1.85358 8.24975V16.4998C1.85437 17.2289 2.14436 17.9279 2.65991 18.4434C3.17546 18.959 3.87448 19.249 4.60358 19.2497H18.3536C19.0827 19.249 19.7817 18.959 20.2972 18.4434C20.8128 17.9279 21.1028 17.2289 21.1036 16.4998V8.24975C21.1028 7.52065 20.8128 6.82164 20.2972 6.30609C19.7817 5.79054 19.0827 5.50055 18.3536 5.49976V5.49976ZM16.3126 13.7498C16.0406 13.7498 15.7748 13.6691 15.5486 13.518C15.3225 13.3669 15.1463 13.1522 15.0422 12.9009C14.9382 12.6497 14.9109 12.3732 14.964 12.1065C15.017 11.8398 15.148 11.5948 15.3403 11.4025C15.5326 11.2102 15.7776 11.0792 16.0443 11.0262C16.311 10.9731 16.5875 11.0003 16.8387 11.1044C17.09 11.2085 17.3047 11.3847 17.4558 11.6108C17.6069 11.837 17.6876 12.1028 17.6876 12.3748C17.6876 12.7394 17.5427 13.0892 17.2848 13.347C17.027 13.6049 16.6772 13.7498 16.3126 13.7498Z" fill="#FFBA52"/>
<path d="M1.87497 11.1479V6.87256C1.87497 5.94143 2.39059 4.38037 4.18024 4.04221C5.69919 3.75732 7.20309 3.75732 7.20309 3.75732C7.20309 3.75732 8.19137 4.44482 7.37497 4.44482C6.55856 4.44482 6.58005 5.49756 7.37497 5.49756C8.16989 5.49756 7.37497 6.50732 7.37497 6.50732L4.1738 10.1382L1.87497 11.1479Z" fill="#FFBA52"/>
</svg>
