<svg width="32" height="32" viewBox="0 0 32 32" fill="none" xmlns="http://www.w3.org/2000/svg">
<g clip-path="url(#clip0_81_12276)">
<path d="M9.56324 11.4692C9.28118 12.0945 9.09143 12.7581 9.00024 13.4372H14.3762L11.6898 8.78418C10.7789 9.48812 10.0437 10.4091 9.56324 11.4692Z" fill="white"/>
<path d="M9.00024 15.3125C9.09143 15.9917 9.28118 16.6553 9.56324 17.2806C10.0436 18.3407 10.7788 19.2617 11.6897 19.9656L14.3762 15.3125H9.00024Z" fill="white"/>
<path d="M16.0001 16.25L13.3123 20.9056C14.1413 21.2481 15.0489 21.4375 16.0001 21.4375C16.9514 21.4375 17.859 21.2481 18.688 20.9056L16.0001 16.25Z" fill="white"/>
<path d="M17.6238 15.3125L20.3103 19.9656C21.2212 19.2617 21.9563 18.3408 22.4368 17.2806C22.7189 16.6553 22.9087 15.9917 22.9998 15.3125H17.6238Z" fill="white"/>
<path d="M22.4368 11.4692C21.9563 10.409 21.2212 9.48812 20.3102 8.78418L17.6238 13.4372H22.9998C22.9086 12.7581 22.7188 12.0944 22.4368 11.4692Z" fill="white"/>
<path d="M14.6536 4.07617L16.0001 6.46555L17.3467 4.07617H14.6536Z" fill="white"/>
<path d="M26.1647 4.21031C23.4496 1.49525 19.8397 0 16 0C12.1603 0 8.55044 1.49525 5.83531 4.21031C3.12025 6.92544 1.625 10.5352 1.625 14.375C1.625 18.2148 3.12025 21.8246 5.83531 24.5397C8.55044 27.2548 12.1603 28.75 16 28.75C19.8397 28.75 23.4496 27.2548 26.1647 24.5397C28.8798 21.8246 30.375 18.2148 30.375 14.375C30.375 10.5352 28.8798 6.92544 26.1647 4.21031ZM22.8943 6.15487C23.2604 5.78875 23.854 5.78875 24.2201 6.15487C24.5863 6.521 24.5863 7.11456 24.2201 7.48069C23.854 7.84681 23.2604 7.84681 22.8943 7.48069C22.5282 7.11456 22.5282 6.521 22.8943 6.15487ZM7.77987 6.15487C8.146 5.78875 8.73956 5.78875 9.10569 6.15487C9.47181 6.521 9.47181 7.11456 9.10569 7.48069C8.73956 7.84681 8.146 7.84681 7.77987 7.48069C7.41375 7.11456 7.41375 6.521 7.77987 6.15487ZM5.3125 15.3125C4.79475 15.3125 4.375 14.8927 4.375 14.375C4.375 13.8573 4.79475 13.4375 5.3125 13.4375C5.83025 13.4375 6.25 13.8573 6.25 14.375C6.25 14.8927 5.83025 15.3125 5.3125 15.3125ZM9.10569 22.5951C8.73956 22.9613 8.146 22.9613 7.77987 22.5951C7.41375 22.229 7.41375 21.6354 7.77987 21.2693C8.146 20.9032 8.73956 20.9032 9.10569 21.2693C9.47181 21.6354 9.47181 22.229 9.10569 22.5951ZM16 26C15.4823 26 15.0625 25.5802 15.0625 25.0625C15.0625 24.5448 15.4823 24.125 16 24.125C16.5177 24.125 16.9375 24.5448 16.9375 25.0625C16.9375 25.5802 16.5177 26 16 26ZM24.2201 22.5951C23.854 22.9613 23.2604 22.9613 22.8943 22.5951C22.5282 22.229 22.5282 21.6354 22.8943 21.2693C23.2604 20.9032 23.854 20.9032 24.2201 21.2693C24.5863 21.6354 24.5863 22.229 24.2201 22.5951ZM24.9331 14.6458C24.9324 14.6678 24.9314 14.6897 24.9306 14.7118C24.9278 14.7856 24.9242 14.8593 24.9196 14.9327C24.9186 14.9493 24.9176 14.9659 24.9164 14.9825C24.8501 15.9656 24.6242 16.9056 24.2642 17.7768C24.2606 17.7858 24.2569 17.7948 24.2532 17.8038C24.2185 17.887 24.183 17.9697 24.1459 18.0516C24.1331 18.0799 24.1195 18.1078 24.1064 18.136C24.086 18.1799 24.0655 18.2239 24.0444 18.2674C24.0193 18.3193 23.9934 18.3708 23.9674 18.4221C23.9611 18.4346 23.9547 18.4469 23.9483 18.4593C23.8818 18.5889 23.8131 18.7174 23.7401 18.8438C22.9568 20.2006 21.8256 21.3319 20.4688 22.1152L20.4627 22.1164C19.1486 22.8768 17.6243 23.3125 16 23.3125C14.3757 23.3125 12.8514 22.8768 11.5374 22.1164L11.5312 22.1151C10.1745 21.3318 9.04325 20.2006 8.25994 18.8438C8.18694 18.7173 8.11825 18.5888 8.05175 18.4592C8.04538 18.4469 8.039 18.4345 8.03269 18.4221C8.00656 18.3707 7.98075 18.3192 7.95569 18.2673C7.93456 18.2238 7.91406 18.1799 7.89362 18.1359C7.88056 18.1077 7.86694 18.0799 7.85419 18.0516C7.81706 17.9697 7.78156 17.8869 7.74687 17.8037C7.74312 17.7947 7.7395 17.7858 7.73581 17.7768C7.37587 16.9056 7.14994 15.9656 7.08362 14.9824C7.0825 14.9659 7.0815 14.9493 7.08044 14.9327C7.07588 14.8593 7.07225 14.7856 7.0695 14.7117C7.06869 14.6897 7.06769 14.6677 7.067 14.6457C7.06425 14.5557 7.0625 14.4656 7.0625 14.375C7.0625 14.2844 7.06425 14.1943 7.06694 14.1042C7.06763 14.0822 7.06862 14.0603 7.06944 14.0382C7.07219 13.9643 7.07581 13.8906 7.08038 13.8172C7.08144 13.8006 7.08238 13.7841 7.0835 13.7676C7.14981 12.7841 7.37587 11.8438 7.736 10.9724C7.7395 10.9639 7.74294 10.9553 7.7465 10.9467C7.78131 10.8632 7.81694 10.7803 7.85419 10.6981C7.86656 10.6707 7.87975 10.6437 7.89237 10.6164C7.91325 10.5716 7.93419 10.5267 7.95575 10.4823C7.98069 10.4307 8.00637 10.3795 8.03231 10.3284C8.03881 10.3157 8.04537 10.3029 8.05194 10.2902C8.11837 10.1608 8.187 10.0324 8.25988 9.90619C9.04325 8.54937 10.1744 7.41812 11.5312 6.63481L11.5352 6.63475C12.1403 6.28437 12.7904 6.00394 13.4739 5.80212L11.4444 2.20094H20.5554L18.526 5.80206C19.2087 6.00362 19.8581 6.28369 20.4626 6.6335L20.4687 6.63475C21.8254 7.41806 22.9567 8.54931 23.74 9.90613C23.813 10.0326 23.8817 10.1611 23.9482 10.2906C23.9546 10.303 23.9609 10.3154 23.9673 10.3278C23.9934 10.3792 24.0192 10.4307 24.0443 10.4826C24.0654 10.5261 24.0859 10.57 24.1063 10.6139C24.1194 10.6421 24.133 10.67 24.1458 10.6983C24.1829 10.7802 24.2183 10.8629 24.253 10.9461C24.2568 10.9551 24.2604 10.9642 24.2641 10.9733C24.624 11.8444 24.8499 12.7843 24.9163 13.7674C24.9174 13.784 24.9184 13.8006 24.9194 13.8172C24.924 13.8906 24.9276 13.9642 24.9304 14.0382C24.9312 14.0602 24.9322 14.0822 24.9329 14.1042C24.9357 14.1943 24.9375 14.2844 24.9375 14.375C24.9375 14.4656 24.9357 14.5557 24.9331 14.6458ZM26.6875 15.3125C26.1698 15.3125 25.75 14.8927 25.75 14.375C25.75 13.8573 26.1698 13.4375 26.6875 13.4375C27.2052 13.4375 27.625 13.8573 27.625 14.375C27.625 14.8927 27.2052 15.3125 26.6875 15.3125Z" fill="white"/>
<path d="M24.8593 28.0029C22.2463 29.7092 19.1938 30.6254 16 30.6254C12.8061 30.6254 9.75358 29.7092 7.14058 28.0029L5.09058 32.0004H26.9093L24.8593 28.0029Z" fill="white"/>
<path d="M17.575 7.49023L16.0001 10.2848L14.4253 7.49023C14.0416 7.57805 13.6696 7.69705 13.3123 7.84467L16.0001 12.5002L18.688 7.84467C18.3307 7.69705 17.9587 7.57805 17.575 7.49023Z" fill="white"/>
</g>
<defs>
<clipPath id="clip0_81_12276">
<rect width="32" height="32" fill="white"/>
</clipPath>
</defs>
</svg>
