<svg width="18" height="18" viewBox="0 0 18 18" fill="none" xmlns="http://www.w3.org/2000/svg">
<path d="M12.5936 8.37408H5.4061C5.32016 8.37408 5.24985 8.4444 5.24985 8.53033V9.46784C5.24985 9.55377 5.32016 9.62409 5.4061 9.62409H12.5936C12.6795 9.62409 12.7499 9.55377 12.7499 9.46784V8.53033C12.7499 8.4444 12.6795 8.37408 12.5936 8.37408Z" fill="white"/>
<path d="M9 0.25C4.16797 0.25 0.25 4.16797 0.25 9C0.25 13.832 4.16797 17.75 9 17.75C13.832 17.75 17.75 13.832 17.75 9C17.75 4.16797 13.832 0.25 9 0.25ZM9 16.2656C4.98828 16.2656 1.73438 13.0117 1.73438 9C1.73438 4.98828 4.98828 1.73438 9 1.73438C13.0117 1.73438 16.2656 4.98828 16.2656 9C16.2656 13.0117 13.0117 16.2656 9 16.2656Z" fill="white"/>
</svg>
