<svg width="101" height="100" viewBox="0 0 101 100" fill="none" xmlns="http://www.w3.org/2000/svg">
<path d="M29.3793 0.0115512C52.8932 0.0115512 76.4085 0.0129951 99.9223 0C100.39 0 100.497 0.105405 100.496 0.574671C100.483 25.131 100.484 49.6859 100.484 74.2423C100.124 74.121 100.058 74.4777 99.9093 74.6379C97.5644 77.1561 94.8875 79.2541 91.9318 81.0055C85.3982 84.8766 78.2682 86.9544 70.7975 87.9723C64.2393 88.8661 57.6768 88.8286 51.1258 87.8597C43.4934 86.732 36.2494 84.4853 29.6796 80.3298C29.4428 80.1796 29.2522 80.1522 28.9909 80.2619C24.9942 81.9368 20.8589 82.7945 16.5084 82.3512C15.9684 81.9542 16.3366 81.6466 16.6124 81.3376C18.5039 79.2165 19.7355 76.785 20.0662 73.9405C20.2337 72.5024 20.0286 71.1812 19.1637 69.915C16.7755 66.4207 15.0717 62.5785 13.8155 58.5486C11.4605 50.9927 10.6303 43.2592 11.2295 35.3668C11.7392 28.6513 13.1961 22.171 16.0001 16.0244C18.4259 10.7051 21.7165 6.02972 26.3009 2.33623C27.3015 1.52764 28.3512 0.784036 29.3793 0.0115512ZM37.3987 37.2728C37.2485 37.4735 37.1446 37.6251 37.0291 37.768C32.9125 42.8953 28.8046 48.0298 24.6664 53.1398C23.8622 54.1317 23.4795 55.1988 23.5055 56.4694C23.5171 57.0296 23.6441 57.2014 24.2275 57.2C29.9107 57.1783 35.5938 57.1884 41.277 57.1884C41.4431 57.1884 41.6105 57.1899 41.7766 57.174C42.8047 57.0787 43.4024 56.4607 43.4501 55.4269C43.4717 54.949 43.4169 54.4653 43.4674 53.9917C43.5324 53.4011 43.3028 53.2668 42.7397 53.2697C38.5553 53.2914 34.3709 53.2827 30.1864 53.2784C29.9699 53.2784 29.7359 53.3448 29.476 53.173C29.6132 52.9867 29.7388 52.8048 29.876 52.6329C31.0383 51.1645 32.2036 49.6989 33.3673 48.2319C36.3042 44.5327 39.218 40.8132 42.191 37.1443C43.0848 36.0411 43.453 34.8355 43.4616 33.4594C43.4645 33.1057 43.3519 32.9959 42.9981 32.9959C36.8572 33.0046 30.7149 33.006 24.574 32.9945C24.1842 32.9931 24.0773 33.1216 24.0845 33.4955C24.1062 34.4947 24.1264 35.4953 24.0773 36.4931C24.0499 37.0591 24.239 37.1832 24.779 37.1804C28.6516 37.1573 32.5241 37.1659 36.3952 37.1688C36.7042 37.1674 37.0175 37.1212 37.3987 37.2728ZM59.4066 55.5121C59.7762 56.8275 60.2469 57.1798 61.6056 57.187C62.0013 57.1899 62.3983 57.1625 62.7925 57.1928C63.2315 57.2274 63.3614 57.0585 63.3556 56.6253C63.334 54.9389 63.3455 53.2524 63.3455 51.5645C63.3455 47.5461 63.3383 43.5263 63.3556 39.5079C63.3571 39.0401 63.269 38.8307 62.7434 38.8668C62.0388 38.9159 61.3284 38.8784 60.6209 38.8784C59.5279 38.8784 59.5279 38.8784 59.4629 39.9541C59.4614 39.983 59.4167 40.009 59.3618 40.0725C57.3389 38.7037 55.1124 38.1088 52.6766 38.4495C50.2162 38.7917 48.1861 39.9396 46.6382 41.8759C43.8746 45.3326 43.837 50.1581 46.5054 53.5628C47.9204 55.3677 49.7339 56.5372 51.9777 57.0296C54.672 57.6216 57.1296 57.0094 59.4066 55.5121ZM83.0605 38.2402C77.8307 38.2431 73.5279 42.5632 73.5337 47.8046C73.5394 53.0242 77.8379 57.3617 83.0056 57.3617C88.2946 57.3617 92.596 53.0676 92.5859 47.7959C92.5772 42.5343 88.2932 38.2373 83.0605 38.2402ZM70.7946 44.9976C70.7946 41.1049 70.796 37.2121 70.7917 33.3194C70.7917 33.0551 70.9173 32.7173 70.412 32.7274C69.2886 32.7505 68.1638 32.7418 67.0405 32.7303C66.7358 32.7274 66.6434 32.8443 66.6506 33.1346C66.6665 33.7583 66.6549 34.3835 66.6549 35.0073C66.6549 41.8138 66.6535 48.6218 66.6564 55.4283C66.6564 56.6744 67.1589 57.174 68.3905 57.1856C68.9738 57.1913 69.5586 57.1552 70.1391 57.1942C70.6444 57.2289 70.8105 57.0888 70.8076 56.5488C70.783 52.6994 70.7946 48.8485 70.7946 44.9976Z" fill="#FDFEFE"/>
<path d="M29.3794 0.0115512C28.3528 0.784036 27.3016 1.52764 26.3024 2.33334C21.7181 6.02683 18.4274 10.7036 16.0017 16.0215C13.1991 22.1682 11.7422 28.6469 11.231 35.3639C10.6318 43.2563 11.4621 50.9898 13.8171 58.5457C15.0733 62.5756 16.7771 66.4178 19.1653 69.9121C20.0302 71.1784 20.2352 72.4995 20.0677 73.9377C19.737 76.7821 18.5054 79.2137 16.6139 81.3347C16.3381 81.6437 15.9699 81.9527 16.5099 82.3484C16.7929 82.6155 17.086 82.8739 17.3561 83.1526C18.4693 84.3005 19.5753 85.4556 20.6871 86.605C22.1253 88.0907 23.5706 89.5693 25.0044 91.0579C26.8468 92.9726 28.682 94.8929 30.5186 96.8119C31.3951 97.7273 32.2672 98.6442 33.1436 99.5596C33.2591 99.6809 33.3819 99.7964 33.3775 99.9827C22.5887 99.9827 11.7999 99.9798 1.01114 99.9942C0.583746 99.9971 0.5 99.9134 0.5 99.4845C0.512995 66.4944 0.512995 33.5027 0.5 0.512584C0.5 0.083746 0.583746 0 1.01114 0C10.4672 0.0158829 19.9233 0.0115512 29.3794 0.0115512Z" fill="#0068FE"/>
<path d="M33.3774 99.9842C33.3817 99.798 33.259 99.6825 33.1435 99.5612C32.267 98.6457 31.3949 97.7289 30.5185 96.8134C28.6818 94.8945 26.8466 92.9727 25.0042 91.0595C23.5704 89.5694 22.1236 88.0923 20.687 86.6066C19.5752 85.4572 18.4691 84.3007 17.3559 83.1542C17.0844 82.8755 16.7913 82.6171 16.5098 82.35C20.8617 82.7947 24.997 81.937 28.9923 80.2621C29.2536 80.1524 29.4442 80.1798 29.681 80.33C36.2507 84.4855 43.4948 86.7307 51.1272 87.8599C57.6781 88.8273 64.2392 88.8663 70.7988 87.9725C78.2696 86.9545 85.3995 84.8768 91.9332 81.0057C94.8874 79.2557 97.5658 77.1577 99.9107 74.6381C100.059 74.4779 100.126 74.1227 100.485 74.2425C100.485 82.6301 100.478 91.0177 100.501 99.4067C100.503 99.9438 100.355 99.9987 99.8775 99.9987C77.7108 99.9828 55.5441 99.9842 33.3774 99.9842Z" fill="#015BDF"/>
<path d="M37.3989 37.2729C37.0192 37.1213 36.7044 37.1675 36.3969 37.1675C32.5243 37.1646 28.6518 37.1559 24.7807 37.179C24.2422 37.1819 24.0516 37.0592 24.079 36.4917C24.1266 35.4955 24.1064 34.4934 24.0862 33.4942C24.079 33.1202 24.1858 32.9917 24.5757 32.9932C30.7166 33.0047 36.8589 33.0033 42.9998 32.9946C43.3536 32.9946 43.4662 33.1044 43.4633 33.4581C43.4547 34.8341 43.0865 36.0398 42.1927 37.1429C39.2183 40.8133 36.3059 44.5314 33.369 48.2306C32.2052 49.6977 31.04 51.1647 29.8777 52.6317C29.742 52.8035 29.6163 52.984 29.4777 53.1717C29.7376 53.3449 29.9715 53.2771 30.1881 53.2771C34.3725 53.2814 38.557 53.2915 42.7414 53.2684C43.3045 53.2655 43.5326 53.4013 43.4691 53.9904C43.4171 54.464 43.4734 54.9477 43.4518 55.4256C43.4041 56.4609 42.8063 57.0774 41.7783 57.1727C41.6137 57.1886 41.4462 57.1872 41.2787 57.1872C35.5955 57.1872 29.9123 57.1771 24.2277 57.1987C23.6444 57.2016 23.5173 57.0298 23.5058 56.4681C23.4783 55.1975 23.8624 54.1319 24.6652 53.1385C28.8034 48.0285 32.9113 42.894 37.0279 37.7667C37.1448 37.6252 37.2488 37.475 37.3989 37.2729Z" fill="#0468FB"/>
<path d="M59.4064 55.5121C57.1294 57.0109 54.6705 57.6231 51.9761 57.0311C49.7323 56.5387 47.9173 55.3692 46.5038 53.5643C43.8355 50.1581 43.873 45.334 46.6366 41.8773C48.1845 39.9411 50.2146 38.7946 52.675 38.451C55.1108 38.1117 57.3373 38.7051 59.3602 40.0739C59.4166 40.0104 59.4599 39.9844 59.4613 39.9555C59.5277 38.8798 59.5263 38.8798 60.6193 38.8798C61.3268 38.8798 62.0372 38.9159 62.7418 38.8683C63.2674 38.8322 63.3555 39.0401 63.3541 39.5093C63.3382 43.5277 63.344 47.5475 63.344 51.5659C63.344 53.2524 63.331 54.9403 63.3541 56.6268C63.3598 57.06 63.2299 57.2289 62.7909 57.1942C62.3982 57.1639 61.9997 57.1899 61.6041 57.1885C60.2468 57.1784 59.7761 56.8275 59.4064 55.5121ZM48.4227 47.7959C48.427 50.8815 50.9048 53.3665 53.9673 53.3578C56.985 53.3491 59.4714 50.8425 59.47 47.8074C59.4685 44.7319 56.9865 42.2499 53.9167 42.2513C50.8889 42.2528 48.4184 44.7464 48.4227 47.7959Z" fill="#0569FB"/>
<path d="M83.0605 38.2402C88.2932 38.2373 92.5773 42.5344 92.586 47.796C92.5961 53.0676 88.2947 57.3618 83.0057 57.3618C77.8394 57.3618 73.5395 53.0243 73.5337 47.8046C73.5279 42.5647 77.8307 38.2446 83.0605 38.2402ZM88.6412 47.8075C88.6441 44.6743 86.1837 42.2009 83.0692 42.2081C79.9432 42.2138 77.4741 44.6844 77.4799 47.7974C77.4857 50.9234 79.9562 53.407 83.0577 53.4055C86.175 53.4041 88.6383 50.935 88.6412 47.8075Z" fill="#0568FB"/>
<path d="M70.7947 44.9975C70.7947 48.8484 70.7832 52.6993 70.8077 56.5501C70.8106 57.0902 70.6445 57.2302 70.1392 57.1956C69.5587 57.1551 68.974 57.1912 68.3907 57.1869C67.1576 57.1754 66.6566 56.6758 66.6566 55.4297C66.6537 48.6232 66.6551 41.8152 66.6551 35.0087C66.6551 34.3849 66.6652 33.7597 66.6508 33.1359C66.6436 32.8442 66.736 32.7273 67.0406 32.7316C68.164 32.7446 69.2887 32.7518 70.4121 32.7287C70.9174 32.7186 70.7918 33.0565 70.7918 33.3207C70.7962 37.212 70.7947 41.1048 70.7947 44.9975Z" fill="#0569FB"/>
<path d="M48.4229 47.796C48.4185 44.7465 50.889 42.2529 53.9169 42.2515C56.9881 42.25 59.4687 44.7321 59.4701 47.8076C59.4716 50.8427 56.9866 53.3493 53.9674 53.3579C50.9049 53.3666 48.4272 50.8816 48.4229 47.796Z" fill="#FBFDFE"/>
<path d="M88.6414 47.8075C88.6385 50.935 86.1766 53.4041 83.0592 53.4055C79.9577 53.4069 77.4872 50.9234 77.4815 47.7974C77.4757 44.6843 79.9447 42.2152 83.0708 42.208C86.1824 42.2008 88.6428 44.6742 88.6414 47.8075Z" fill="#FBFDFE"/>
</svg>
