<svg width="100" height="100" viewBox="0 0 100 100" fill="none" xmlns="http://www.w3.org/2000/svg">
<path d="M28.8793 0.0115512C52.3932 0.0115512 75.9085 0.0129951 99.4223 0C99.8901 0 99.997 0.105405 99.9955 0.574671C99.9826 25.131 99.984 49.6859 99.984 74.2423C99.6245 74.121 99.558 74.4777 99.4093 74.6379C97.0644 77.1561 94.3875 79.2541 91.4318 81.0055C84.8982 84.8766 77.7682 86.9544 70.2975 87.9723C63.7393 88.8661 57.1768 88.8286 50.6258 87.8597C42.9934 86.732 35.7494 84.4853 29.1796 80.3298C28.9428 80.1796 28.7522 80.1522 28.4909 80.2619C24.4942 81.9368 20.3589 82.7945 16.0084 82.3512C15.4684 81.9542 15.8366 81.6466 16.1124 81.3376C18.0039 79.2165 19.2355 76.785 19.5662 73.9405C19.7337 72.5024 19.5286 71.1813 18.6637 69.915C16.2755 66.4207 14.5717 62.5785 13.3155 58.5486C10.9605 50.9927 10.1303 43.2592 10.7295 35.3668C11.2392 28.6513 12.6961 22.171 15.5001 16.0244C17.9259 10.7051 21.2165 6.02972 25.8009 2.33623C26.8015 1.52764 27.8512 0.784036 28.8793 0.0115512ZM36.8987 37.2728C36.7485 37.4735 36.6446 37.6251 36.5291 37.768C32.4125 42.8953 28.3046 48.0298 24.1664 53.1398C23.3622 54.1317 22.9795 55.1987 23.0055 56.4694C23.0171 57.0296 23.1441 57.2014 23.7275 57.2C29.4107 57.1783 35.0938 57.1884 40.777 57.1884C40.9431 57.1884 41.1105 57.1899 41.2766 57.174C42.3047 57.0787 42.9024 56.4607 42.9501 55.4269C42.9717 54.949 42.9169 54.4653 42.9674 53.9917C43.0324 53.4011 42.8028 53.2668 42.2397 53.2697C38.0553 53.2914 33.8709 53.2827 29.6864 53.2784C29.4699 53.2784 29.2359 53.3448 28.976 53.173C29.1132 52.9867 29.2388 52.8048 29.376 52.6329C30.5383 51.1645 31.7036 49.6989 32.8673 48.2319C35.8042 44.5327 38.718 40.8132 41.691 37.1443C42.5848 36.0411 42.953 34.8355 42.9616 33.4594C42.9645 33.1057 42.8519 32.9959 42.4981 32.9959C36.3572 33.0046 30.2149 33.0061 24.074 32.9945C23.6842 32.9931 23.5773 33.1216 23.5845 33.4955C23.6062 34.4947 23.6264 35.4953 23.5773 36.4931C23.5499 37.0591 23.739 37.1832 24.279 37.1804C28.1516 37.1573 32.0241 37.1659 35.8952 37.1688C36.2042 37.1674 36.5175 37.1212 36.8987 37.2728ZM58.9066 55.5121C59.2762 56.8275 59.7469 57.1798 61.1056 57.187C61.5013 57.1899 61.8983 57.1625 62.2925 57.1928C62.7315 57.2274 62.8614 57.0585 62.8556 56.6253C62.834 54.9389 62.8455 53.2524 62.8455 51.5645C62.8455 47.5461 62.8383 43.5263 62.8556 39.5079C62.8571 39.0401 62.769 38.8307 62.2434 38.8668C61.5388 38.9159 60.8284 38.8784 60.1209 38.8784C59.0279 38.8784 59.0279 38.8784 58.9629 39.9541C58.9614 39.983 58.9167 40.0089 58.8618 40.0725C56.8389 38.7037 54.6124 38.1088 52.1766 38.4495C49.7162 38.7917 47.6861 39.9396 46.1382 41.8759C43.3746 45.3326 43.337 50.1581 46.0054 53.5628C47.4204 55.3677 49.2339 56.5372 51.4777 57.0296C54.172 57.6216 56.6296 57.0094 58.9066 55.5121ZM82.5605 38.2402C77.3307 38.2431 73.0279 42.5632 73.0337 47.8046C73.0394 53.0242 77.3379 57.3617 82.5056 57.3617C87.7946 57.3617 92.096 53.0676 92.0859 47.7959C92.0772 42.5343 87.7932 38.2373 82.5605 38.2402ZM70.2946 44.9976C70.2946 41.1049 70.296 37.2121 70.2917 33.3194C70.2917 33.0551 70.4173 32.7173 69.912 32.7274C68.7886 32.7505 67.6638 32.7418 66.5405 32.7303C66.2358 32.7274 66.1434 32.8443 66.1506 33.1346C66.1665 33.7583 66.1549 34.3835 66.1549 35.0073C66.1549 41.8138 66.1535 48.6218 66.1564 55.4283C66.1564 56.6744 66.6589 57.174 67.8905 57.1856C68.4738 57.1913 69.0586 57.1552 69.6391 57.1942C70.1444 57.2289 70.3105 57.0888 70.3076 56.5488C70.283 52.6994 70.2946 48.8485 70.2946 44.9976Z" fill="#FDFEFE"/>
<path d="M28.8794 0.0115512C27.8528 0.784036 26.8016 1.52764 25.8024 2.33334C21.2181 6.02683 17.9274 10.7036 15.5017 16.0215C12.6991 22.1682 11.2422 28.6469 10.731 35.3639C10.1318 43.2563 10.9621 50.9898 13.3171 58.5457C14.5733 62.5756 16.2771 66.4178 18.6653 69.9121C19.5302 71.1784 19.7352 72.4995 19.5677 73.9377C19.237 76.7821 18.0054 79.2137 16.1139 81.3347C15.8381 81.6437 15.4699 81.9527 16.0099 82.3484C16.2929 82.6155 16.586 82.8739 16.8561 83.1526C17.9693 84.3005 19.0753 85.4556 20.1871 86.605C21.6252 88.0907 23.0706 89.5693 24.5044 91.0579C26.3468 92.9725 28.182 94.8929 30.0186 96.8119C30.8951 97.7273 31.7672 98.6442 32.6436 99.5596C32.7591 99.6809 32.8819 99.7964 32.8775 99.9827C22.0887 99.9827 11.2999 99.9798 0.51114 99.9942C0.083746 99.9971 0 99.9134 0 99.4845C0.0129951 66.4944 0.0129951 33.5028 0 0.512584C0 0.083746 0.083746 0 0.51114 0C9.96722 0.0158829 19.4233 0.0115512 28.8794 0.0115512Z" fill="#0068FE"/>
<path d="M32.8774 99.9847C32.8817 99.7985 32.759 99.6829 32.6435 99.5617C31.767 98.6462 30.8949 97.7294 30.0185 96.8139C28.1818 94.895 26.3466 92.9732 24.5042 91.06C23.0704 89.5699 21.6236 88.0928 20.187 86.607C19.0752 85.4577 17.9691 84.3012 16.8559 83.1547C16.5844 82.876 16.2913 82.6176 16.0098 82.3505C20.3617 82.7952 24.497 81.9375 28.4923 80.2626C28.7536 80.1528 28.9442 80.1803 29.181 80.3304C35.7507 84.486 42.9948 86.7312 50.6272 87.8603C57.1782 88.8278 63.7392 88.8667 70.2988 87.973C77.7696 86.955 84.8995 84.8773 91.4332 81.0062C94.3874 79.2562 97.0658 77.1582 99.4107 74.6386C99.5594 74.4783 99.6258 74.1231 99.9854 74.243C99.9854 82.6306 99.9781 91.0181 100.001 99.4072C100.003 99.9443 99.8554 99.9992 99.3775 99.9992C77.2108 99.9833 55.0441 99.9847 32.8774 99.9847Z" fill="#015BDF"/>
<path d="M36.8989 37.2719C36.5192 37.1203 36.2044 37.1665 35.8969 37.1665C32.0243 37.1636 28.1518 37.155 24.2807 37.1781C23.7422 37.181 23.5516 37.0582 23.579 36.4908C23.6266 35.4945 23.6064 34.4924 23.5862 33.4932C23.579 33.1193 23.6858 32.9908 24.0757 32.9922C30.2166 33.0038 36.3589 33.0023 42.4998 32.9936C42.8536 32.9936 42.9662 33.1034 42.9633 33.4571C42.9547 34.8332 42.5865 36.0388 41.6927 37.142C38.7183 40.8124 35.8059 44.5304 32.869 48.2297C31.7052 49.6967 30.54 51.1637 29.3777 52.6307C29.242 52.8025 29.1163 52.983 28.9777 53.1707C29.2376 53.344 29.4715 53.2761 29.6881 53.2761C33.8725 53.2804 38.057 53.2905 42.2414 53.2674C42.8045 53.2646 43.0326 53.4003 42.9691 53.9894C42.9171 54.463 42.9734 54.9467 42.9518 55.4246C42.9041 56.4599 42.3063 57.0764 41.2783 57.1717C41.1137 57.1876 40.9462 57.1862 40.7787 57.1862C35.0955 57.1862 29.4123 57.1761 23.7277 57.1977C23.1444 57.2006 23.0173 57.0288 23.0058 56.4671C22.9783 55.1965 23.3624 54.1309 24.1652 53.1375C28.3034 48.0275 32.4113 42.893 36.5279 37.7657C36.6448 37.6242 36.7488 37.4741 36.8989 37.2719Z" fill="#0468FB"/>
<path d="M58.9064 55.514C56.6294 57.0128 54.1705 57.625 51.4761 57.033C49.2323 56.5407 47.4173 55.3711 46.0038 53.5662C43.3355 50.1601 43.373 45.336 46.1366 41.8793C47.6845 39.943 49.7146 38.7966 52.175 38.4529C54.6109 38.1136 56.8373 38.7071 58.8602 40.0759C58.9166 40.0123 58.9599 39.9863 58.9613 39.9575C59.0277 38.8818 59.0263 38.8818 60.1193 38.8818C60.8268 38.8818 61.5372 38.9179 62.2418 38.8702C62.7674 38.8341 62.8555 39.042 62.8541 39.5113C62.8382 43.5297 62.844 47.5495 62.844 51.5679C62.844 53.2543 62.831 54.9423 62.8541 56.6287C62.8598 57.0619 62.7299 57.2308 62.2909 57.1962C61.8982 57.1659 61.4997 57.1919 61.1041 57.1904C59.7468 57.1803 59.2761 56.8294 58.9064 55.514ZM47.9227 47.7978C47.927 50.8835 50.4048 53.3684 53.4673 53.3598C56.485 53.3511 58.9714 50.8445 58.97 47.8094C58.9685 44.7339 56.4865 42.2518 53.4167 42.2533C50.3889 42.2547 47.9184 44.7483 47.9227 47.7978Z" fill="#0569FB"/>
<path d="M82.5605 38.2383C87.7932 38.2354 92.0773 42.5324 92.086 47.794C92.0961 53.0657 87.7947 57.3598 82.5057 57.3598C77.3394 57.3598 73.0395 53.0224 73.0337 47.8027C73.0279 42.5628 77.3307 38.2426 82.5605 38.2383ZM88.1412 47.8056C88.1441 44.6723 85.6837 42.1989 82.5692 42.2061C79.4432 42.2119 76.9741 44.6824 76.9799 47.7955C76.9857 50.9215 79.4562 53.405 82.5577 53.4036C85.675 53.4021 88.1383 50.933 88.1412 47.8056Z" fill="#0568FB"/>
<path d="M70.2947 44.9995C70.2947 48.8504 70.2832 52.7012 70.3077 56.5521C70.3106 57.0921 70.1445 57.2322 69.6392 57.1975C69.0587 57.1571 68.474 57.1932 67.8907 57.1889C66.6576 57.1773 66.1566 56.6777 66.1566 55.4316C66.1537 48.6251 66.1551 41.8171 66.1551 35.0106C66.1551 34.3868 66.1652 33.7616 66.1508 33.1379C66.1436 32.8462 66.236 32.7292 66.5406 32.7336C67.664 32.7466 68.7887 32.7538 69.9121 32.7307C70.4174 32.7206 70.2918 33.0585 70.2918 33.3227C70.2962 37.214 70.2947 41.1067 70.2947 44.9995Z" fill="#0569FB"/>
<path d="M47.9229 47.7946C47.9185 44.7451 50.389 42.2514 53.4169 42.25C56.4881 42.2486 58.9687 44.7306 58.9701 47.8061C58.9716 50.8412 56.4866 53.3478 53.4674 53.3565C50.4049 53.3651 47.9272 50.8802 47.9229 47.7946Z" fill="#FBFDFE"/>
<path d="M88.1414 47.8065C88.1385 50.934 85.6766 53.4031 82.5592 53.4045C79.4577 53.406 76.9872 50.9225 76.9815 47.7964C76.9757 44.6833 79.4447 42.2143 82.5708 42.207C85.6824 42.1998 88.1428 44.6732 88.1414 47.8065Z" fill="#FBFDFE"/>
</svg>
