<svg width="20" height="20" viewBox="0 0 20 20" fill="none" xmlns="http://www.w3.org/2000/svg">
<path fill-rule="evenodd" clip-rule="evenodd" d="M6.28847 2.73161C6.42696 2.83158 6.6503 3.06121 6.6503 3.06121C7.51731 3.87382 8.8232 5.89495 9.24257 6.92036C9.25135 6.92036 9.50004 7.53007 9.50979 7.82007V7.85868C9.50979 8.30309 9.2611 8.7188 8.86124 8.9316C8.6964 9.01933 8.29546 9.10093 8.10202 9.14029C8.03795 9.15333 7.99665 9.16173 7.99422 9.1642C7.42271 9.2513 6.54594 9.30871 5.58335 9.30871C4.57297 9.30871 3.65816 9.2513 3.09543 9.1444C3.08568 9.1444 2.57171 9.0385 2.40006 8.9702C2.15234 8.86429 1.94266 8.6703 1.80905 8.42879C1.71347 8.23578 1.66666 8.03189 1.66666 7.82007C1.67543 7.59737 1.8188 7.18167 1.88512 7.01736C2.30448 5.93355 3.67669 3.86392 4.51543 3.0711C4.60255 2.98268 4.7017 2.89005 4.7707 2.82559C4.80751 2.7912 4.83574 2.76483 4.84897 2.7514C5.05865 2.5871 5.31612 2.5 5.5931 2.5C5.83985 2.5 6.08756 2.5772 6.28847 2.73161ZM15.1905 8.46815C15.1905 8.90465 14.8423 9.25801 14.4122 9.25801C13.9821 9.25801 13.634 8.90465 13.634 8.46815L13.4194 4.65246C13.4194 4.09619 13.8641 3.64583 14.4122 3.64583C14.9603 3.64583 15.4041 4.09619 15.4041 4.65246L15.1905 8.46815ZM17.5999 11.0297C17.8476 11.1366 18.0573 11.3296 18.1909 11.5711C18.2865 11.7641 18.3333 11.968 18.3333 12.1808C18.3245 12.4025 18.1812 12.8192 18.1139 12.9835C17.6955 14.0664 16.3223 16.1361 15.4846 16.9299C15.3989 17.0162 15.3016 17.107 15.2328 17.1712C15.1942 17.2071 15.1647 17.2347 15.151 17.2486C14.9404 17.4129 14.6839 17.5 14.4079 17.5C14.1592 17.5 13.9114 17.4228 13.7115 17.2674C13.573 17.1684 13.3497 16.9388 13.3497 16.9388C12.4817 16.1271 11.1768 14.105 10.7574 13.0795C10.7477 13.0795 10.4999 12.4708 10.4902 12.1808V12.1422C10.4902 11.6968 10.7379 11.2811 11.1387 11.0683C11.3033 10.9814 11.7029 10.8996 11.8968 10.8599L11.8968 10.8599C11.9615 10.8467 12.0033 10.8381 12.0058 10.8357C12.5773 10.7486 13.454 10.6911 14.4166 10.6911C15.427 10.6911 16.3418 10.7486 16.9045 10.8555C16.9133 10.8555 17.4283 10.9614 17.5999 11.0297ZM5.58793 10.7421C5.15784 10.7421 4.80967 11.0955 4.80967 11.532L4.59511 15.3476C4.59511 15.9038 5.03983 16.3542 5.58793 16.3542C6.13604 16.3542 6.57978 15.9038 6.57978 15.3476L6.3662 11.532C6.3662 11.0955 6.01803 10.7421 5.58793 10.7421Z" fill="#36FFB5"/>
</svg>
