<svg width="40" height="40" viewBox="0 0 40 40" fill="none" xmlns="http://www.w3.org/2000/svg">
<g clip-path="url(#clip0_1021_21500)">
<path d="M40 8.3999H0V31.9999H40V8.3999Z" fill="#CB1D23"/>
<path d="M3.8474 16.7993L4.59969 14.4804L2.62225 13.0484L5.07255 13.0431L5.83558 10.7295L6.59324 13.0431L9.04353 13.0484L7.0661 14.4857L7.81301 16.7993L5.83021 15.3727L3.8474 16.7993Z" fill="#F7DE29"/>
<path d="M10.6717 18.0495L11.4938 18.3807L12.0688 17.7021L12.0097 18.5838L12.8318 18.9204L11.9721 19.1341L11.9076 20.0157L11.4347 19.2677L10.5696 19.4814L11.1392 18.8028L10.6717 18.0495Z" fill="#F7DE29"/>
<path d="M15.137 13.5987L14.2612 13.4491L13.842 14.2292L13.7184 13.3529L12.8426 13.198L13.6378 12.8079L13.5196 11.9316L14.1376 12.5675L14.9382 12.1774L14.5245 12.9629L15.137 13.5987Z" fill="#F7DE29"/>
<path d="M13.2778 17.5637L13.5519 16.7248L12.8318 16.2012H13.7238L13.9979 15.3569L14.2773 16.2012H15.1639L14.4492 16.7248L14.7179 17.5637L13.9979 17.0454L13.2778 17.5637Z" fill="#F7DE29"/>
<path d="M10.7147 9.87455L11.5207 10.2486L12.1279 9.60205L12.0204 10.4783L12.8264 10.8577L11.9559 11.0287L11.8431 11.905L11.4132 11.1302L10.5374 11.2958L11.1446 10.6493L10.7147 9.87455Z" fill="#F7DE29"/>
</g>
<defs>
<clipPath id="clip0_1021_21500">
<rect width="40" height="23.6" fill="white" transform="translate(0 8.3999)"/>
</clipPath>
</defs>
</svg>
