<svg width="20" height="20" viewBox="0 0 20 20" fill="none" xmlns="http://www.w3.org/2000/svg">
<g clip-path="url(#clip0_970_15433)">
<path d="M10.4833 8.95558C10.1833 8.78891 9.77778 8.60558 9.26667 8.40558C8.79444 8.2278 8.43889 8.0778 8.20556 7.96669C7.97778 7.84447 7.80555 7.71669 7.68889 7.57224C7.57778 7.4278 7.52222 7.24447 7.52222 7.02224C7.52222 6.70558 7.63333 6.46113 7.85 6.28891C8.06667 6.11669 8.37778 6.0278 8.77222 6.0278C9.25 6.0278 9.62778 6.15002 9.9 6.40002C10.1778 6.63891 10.3167 6.93891 10.3167 7.28891V7.41113C10.3167 7.45002 10.3278 7.48336 10.35 7.51113C10.3778 7.53336 10.4111 7.54447 10.45 7.54447H11.4056C11.4444 7.54447 11.4722 7.53336 11.4944 7.51113C11.5222 7.48336 11.5389 7.45002 11.5389 7.41113V7.22224C11.5389 6.6278 11.35 6.1278 10.9778 5.72224C10.6111 5.31669 10.1056 5.06113 9.46667 4.95558C9.42778 4.93891 9.41111 4.91669 9.41111 4.88891L9.43333 4.04447C9.43333 4.00558 9.41667 3.9778 9.38889 3.95558C9.36667 3.9278 9.33889 3.91113 9.3 3.91113H8.42222C8.38333 3.91113 8.35 3.9278 8.32222 3.95558C8.3 3.9778 8.28889 4.00558 8.28889 4.04447L8.31111 4.8778C8.31111 4.90558 8.29444 4.9278 8.25555 4.94447C7.65555 5.03335 7.17778 5.26113 6.82778 5.63336C6.48333 6.00002 6.31111 6.47224 6.31111 7.03891C6.31111 7.48336 6.41667 7.85558 6.62778 8.15558C6.83889 8.45002 7.1 8.68335 7.41667 8.85558C7.73333 9.0278 8.13889 9.21113 8.64444 9.40558C9.09444 9.59447 9.43333 9.74447 9.65555 9.86669C9.88889 9.9778 10.0667 10.1111 10.1833 10.2611C10.3056 10.4056 10.3611 10.5778 10.3611 10.7889C10.3611 11.0945 10.25 11.35 10.0222 11.5445C9.80556 11.7389 9.47222 11.8389 9.03333 11.8389C8.52778 11.8389 8.13333 11.7278 7.83889 11.5C7.54444 11.2667 7.4 10.9778 7.4 10.6334V10.4167C7.4 10.3778 7.38333 10.35 7.35555 10.3278C7.33333 10.3 7.30555 10.2834 7.26667 10.2834H6.32222C6.28333 10.2834 6.25 10.3 6.22222 10.3278C6.2 10.35 6.18889 10.3778 6.18889 10.4167V10.7C6.18889 11.2945 6.37222 11.7834 6.73889 12.1778C7.11667 12.5611 7.62778 12.8056 8.28333 12.9111C8.32222 12.9278 8.33889 12.95 8.33889 12.9778L8.32778 13.7334C8.32778 13.7722 8.33889 13.8 8.36111 13.8222C8.38889 13.85 8.42222 13.8667 8.46111 13.8667H9.33889C9.37778 13.8667 9.40555 13.85 9.42778 13.8222C9.45555 13.8 9.47222 13.7722 9.47222 13.7334L9.46111 12.9889C9.46111 12.9611 9.47778 12.9389 9.51667 12.9222C10.1722 12.8389 10.6778 12.6056 11.05 12.2222C11.4167 11.8389 11.6 11.35 11.6 10.7556C11.6 10.3111 11.4889 9.94447 11.2722 9.65002C11.0556 9.35558 10.7889 9.12224 10.4833 8.95558Z" fill="#36FFB5"/>
<path d="M17.3833 11.5056C17.6389 10.6778 17.7778 9.8 17.7778 8.88889C17.7778 3.97778 13.8 0 8.88889 0C3.97778 0 0 3.97778 0 8.88889C0 13.8 3.97778 17.7778 8.88889 17.7778C9.8 17.7778 10.6778 17.6389 11.5056 17.3833C12.2056 18.9278 13.7556 20 15.5556 20C18.0111 20 20 18.0111 20 15.5556C20 13.7556 18.9278 12.2056 17.3833 11.5056ZM11.1111 15.5556C11.1111 15.6778 11.1222 15.8 11.1278 15.9222C10.4222 16.15 9.66667 16.2722 8.88889 16.2722C4.81111 16.2722 1.50556 12.9667 1.50556 8.88889C1.50556 4.81111 4.81111 1.50556 8.88889 1.50556C12.9667 1.50556 16.2722 4.81111 16.2722 8.88889C16.2722 9.67222 16.15 10.4222 15.9222 11.1278C15.8 11.1222 15.6778 11.1111 15.5556 11.1111C13.1 11.1111 11.1111 13.1 11.1111 15.5556ZM17.4611 15.7944C17.4611 15.8389 17.4278 15.8722 17.3833 15.8722H15.8778V17.3778C15.8778 17.4222 15.8444 17.4556 15.8 17.4556H15.3222C15.2778 17.4556 15.2444 17.4222 15.2444 17.3778V15.8722H13.7389C13.6944 15.8722 13.6611 15.8389 13.6611 15.7944V15.3167C13.6611 15.2722 13.6944 15.2389 13.7389 15.2389H15.2444V13.7333C15.2444 13.6889 15.2778 13.6556 15.3222 13.6556H15.8C15.8444 13.6556 15.8778 13.6889 15.8778 13.7333V15.2389H17.3833C17.4278 15.2389 17.4611 15.2722 17.4611 15.3167V15.7944Z" fill="#36FFB5"/>
</g>
<defs>
<clipPath id="clip0_970_15433">
<rect width="20" height="20" fill="white"/>
</clipPath>
</defs>
</svg>
