<svg width="20" height="20" viewBox="0 0 20 20" fill="none" xmlns="http://www.w3.org/2000/svg">
<path fill-rule="evenodd" clip-rule="evenodd" d="M17.0019 11.317C17.2999 11.4753 17.5299 11.7253 17.6917 11.9753C18.0068 12.492 17.9812 13.1253 17.6747 13.6837L17.0785 14.6837C16.7634 15.217 16.1758 15.5503 15.5711 15.5503C15.2731 15.5503 14.9409 15.467 14.6684 15.3003C14.447 15.1587 14.1915 15.1087 13.919 15.1087C13.0759 15.1087 12.369 15.8003 12.3435 16.6253C12.3435 17.5837 11.5599 18.3337 10.5806 18.3337H9.42236C8.43446 18.3337 7.65096 17.5837 7.65096 16.6253C7.63393 15.8003 6.92708 15.1087 6.08396 15.1087C5.80292 15.1087 5.54743 15.1587 5.33453 15.3003C5.062 15.467 4.72135 15.5503 4.4318 15.5503C3.81862 15.5503 3.231 15.217 2.91589 14.6837L2.32827 13.6837C2.01316 13.142 1.99613 12.492 2.31124 11.9753C2.4475 11.7253 2.70299 11.4753 2.99254 11.317C3.231 11.2003 3.38429 11.0087 3.52907 10.7837C3.95488 10.067 3.69939 9.12533 2.97551 8.70033C2.13239 8.22533 1.85987 7.16699 2.3453 6.34199L2.91589 5.35866C3.40984 4.53366 4.46586 4.24199 5.31749 4.72533C6.05841 5.12533 7.02076 4.85866 7.45509 4.15033C7.59135 3.91699 7.668 3.66699 7.65096 3.41699C7.63393 3.09199 7.72761 2.78366 7.88942 2.53366C8.20452 2.01699 8.77512 1.68366 9.39681 1.66699H10.5976C11.2278 1.66699 11.7984 2.01699 12.1135 2.53366C12.2668 2.78366 12.369 3.09199 12.3435 3.41699C12.3264 3.66699 12.4031 3.91699 12.5393 4.15033C12.9737 4.85866 13.936 5.12533 14.6854 4.72533C15.5286 4.24199 16.5931 4.53366 17.0785 5.35866L17.6491 6.34199C18.1431 7.16699 17.8705 8.22533 17.0189 8.70033C16.295 9.12533 16.0395 10.067 16.4739 10.7837C16.6101 11.0087 16.7634 11.2003 17.0019 11.317ZM7.59135 10.0087C7.59135 11.317 8.67292 12.3587 10.01 12.3587C11.347 12.3587 12.4031 11.317 12.4031 10.0087C12.4031 8.70033 11.347 7.65033 10.01 7.65033C8.67292 7.65033 7.59135 8.70033 7.59135 10.0087Z" fill="#36FFB5"/>
</svg>
