<svg width="40" height="40" viewBox="0 0 40 40" fill="none" xmlns="http://www.w3.org/2000/svg">
<rect width="40" height="40" rx="8" fill="#2AABEE"/>
<path fill-rule="evenodd" clip-rule="evenodd" d="M9.0531 19.7889C14.8835 17.2487 18.7714 15.574 20.7167 14.7649C26.2709 12.4547 27.425 12.0534 28.1772 12.0402C28.3427 12.0373 28.7126 12.0783 28.9522 12.2727C29.1546 12.4369 29.2102 12.6587 29.2369 12.8143C29.2635 12.97 29.2967 13.3246 29.2703 13.6017C28.9693 16.7641 27.667 24.4386 27.0044 27.9806C26.7241 29.4794 26.172 29.9819 25.6376 30.0311C24.4762 30.138 23.5942 29.2636 22.4693 28.5262C20.7091 27.3723 19.7146 26.654 18.006 25.528C16.0314 24.2268 17.3114 23.5116 18.4368 22.3428C18.7313 22.0369 23.8486 17.3823 23.9476 16.9601C23.96 16.9072 23.9715 16.7104 23.8546 16.6065C23.7376 16.5025 23.565 16.5381 23.4405 16.5663C23.2639 16.6064 20.4519 18.465 15.0044 22.1423C14.2062 22.6904 13.4832 22.9574 12.8354 22.9434C12.1213 22.928 10.7477 22.5397 9.72651 22.2077C8.47401 21.8006 7.47855 21.5853 7.56523 20.8939C7.61038 20.5337 8.10634 20.1654 9.0531 19.7889Z" fill="white"/>
</svg>
