<svg width="25" height="24" viewBox="0 0 25 24" fill="none" xmlns="http://www.w3.org/2000/svg">
<path fill-rule="evenodd" clip-rule="evenodd" d="M6.8277 8.34743L7.4307 15.5194C7.4747 16.0714 7.9257 16.4854 8.4767 16.4854H8.4807H19.3917H19.3937C19.9147 16.4854 20.3597 16.0974 20.4337 15.5824L21.3837 9.02343C21.4057 8.86743 21.3667 8.71143 21.2717 8.58543C21.1777 8.45843 21.0397 8.37643 20.8837 8.35443C20.6747 8.36243 12.0017 8.35043 6.8277 8.34743ZM8.4747 17.9854C7.1577 17.9854 6.0427 16.9574 5.9357 15.6424L5.0197 4.74843L3.5127 4.48843C3.1037 4.41643 2.8307 4.02943 2.9007 3.62043C2.9727 3.21143 3.3677 2.94543 3.7677 3.00943L5.8477 3.36943C6.1827 3.42843 6.4377 3.70643 6.4667 4.04643L6.7017 6.84743C20.9777 6.85343 21.0237 6.86043 21.0927 6.86843C21.6497 6.94943 22.1397 7.24043 22.4737 7.68843C22.8077 8.13543 22.9477 8.68643 22.8677 9.23843L21.9187 15.7964C21.7397 17.0444 20.6557 17.9854 19.3957 17.9854H19.3907H8.4827H8.4747Z" fill="white" fill-opacity="0.5"/>
<path fill-rule="evenodd" clip-rule="evenodd" d="M17.7876 12.0437H15.0156C14.6006 12.0437 14.2656 11.7077 14.2656 11.2937C14.2656 10.8797 14.6006 10.5437 15.0156 10.5437H17.7876C18.2016 10.5437 18.5376 10.8797 18.5376 11.2937C18.5376 11.7077 18.2016 12.0437 17.7876 12.0437Z" fill="white" fill-opacity="0.5"/>
<path fill-rule="evenodd" clip-rule="evenodd" d="M8.0435 22.5408C7.3295 22.5408 6.7495 21.9598 6.7495 21.2458C6.7495 20.5318 7.3295 19.9518 8.0435 19.9518C8.7575 19.9518 9.3385 20.5318 9.3385 21.2458C9.3385 21.9598 8.7575 22.5408 8.0435 22.5408Z" fill="white" fill-opacity="0.5"/>
<path fill-rule="evenodd" clip-rule="evenodd" d="M19.3239 22.5408C18.6099 22.5408 18.0299 21.9598 18.0299 21.2458C18.0299 20.5318 18.6099 19.9518 19.3239 19.9518C20.0389 19.9518 20.6199 20.5318 20.6199 21.2458C20.6199 21.9598 20.0389 22.5408 19.3239 22.5408Z" fill="white" fill-opacity="0.5"/>
</svg>
