<svg width="20" height="20" viewBox="0 0 20 20" fill="none" xmlns="http://www.w3.org/2000/svg">
<g clip-path="url(#clip0_970_15675)">
<path d="M10.4833 8.95558C10.1833 8.78891 9.77773 8.60558 9.26662 8.40558C8.7944 8.2278 8.43884 8.0778 8.20551 7.96669C7.97773 7.84447 7.80551 7.71669 7.68884 7.57224C7.57773 7.4278 7.52218 7.24447 7.52218 7.02224C7.52218 6.70558 7.63329 6.46113 7.84995 6.28891C8.06662 6.11669 8.37773 6.0278 8.77218 6.0278C9.24995 6.0278 9.62773 6.15002 9.89995 6.40002C10.1777 6.63891 10.3166 6.93891 10.3166 7.28891V7.41113C10.3166 7.45002 10.3277 7.48336 10.35 7.51113C10.3777 7.53336 10.4111 7.54447 10.45 7.54447H11.4055C11.4444 7.54447 11.4722 7.53336 11.4944 7.51113C11.5222 7.48336 11.5388 7.45002 11.5388 7.41113V7.22224C11.5388 6.6278 11.35 6.1278 10.9777 5.72224C10.6111 5.31669 10.1055 5.06113 9.46662 4.95558C9.42773 4.93891 9.41106 4.91669 9.41106 4.88891L9.43329 4.04447C9.43329 4.00558 9.41662 3.9778 9.38884 3.95558C9.36662 3.9278 9.33884 3.91113 9.29995 3.91113H8.42218C8.38329 3.91113 8.34995 3.9278 8.32218 3.95558C8.29995 3.9778 8.28884 4.00558 8.28884 4.04447L8.31106 4.8778C8.31106 4.90558 8.2944 4.9278 8.25551 4.94447C7.65551 5.03335 7.17773 5.26113 6.82773 5.63336C6.48329 6.00002 6.31106 6.47224 6.31106 7.03891C6.31106 7.48336 6.41662 7.85558 6.62773 8.15558C6.83884 8.45002 7.09995 8.68335 7.41662 8.85558C7.73329 9.0278 8.13884 9.21113 8.6444 9.40558C9.0944 9.59447 9.43329 9.74447 9.65551 9.86669C9.88884 9.9778 10.0666 10.1111 10.1833 10.2611C10.3055 10.4056 10.3611 10.5778 10.3611 10.7889C10.3611 11.0945 10.25 11.35 10.0222 11.5445C9.80551 11.7389 9.47218 11.8389 9.03329 11.8389C8.52773 11.8389 8.13329 11.7278 7.83884 11.5C7.5444 11.2667 7.39995 10.9778 7.39995 10.6334V10.4167C7.39995 10.3778 7.38329 10.35 7.35551 10.3278C7.33329 10.3 7.30551 10.2834 7.26662 10.2834H6.32218C6.28329 10.2834 6.24995 10.3 6.22218 10.3278C6.19995 10.35 6.18884 10.3778 6.18884 10.4167V10.7C6.18884 11.2945 6.37218 11.7834 6.73884 12.1778C7.11662 12.5611 7.62773 12.8056 8.28329 12.9111C8.32218 12.9278 8.33884 12.95 8.33884 12.9778L8.32773 13.7334C8.32773 13.7722 8.33884 13.8 8.36106 13.8222C8.38884 13.85 8.42218 13.8667 8.46106 13.8667H9.33884C9.37773 13.8667 9.40551 13.85 9.42773 13.8222C9.45551 13.8 9.47218 13.7722 9.47218 13.7334L9.46107 12.9889C9.46107 12.9611 9.47773 12.9389 9.51662 12.9222C10.1722 12.8389 10.6777 12.6056 11.05 12.2222C11.4166 11.8389 11.6 11.35 11.6 10.7556C11.6 10.3111 11.4888 9.94447 11.2722 9.65002C11.0555 9.35558 10.7888 9.12224 10.4833 8.95558Z" fill="#FF715E"/>
<path d="M17.3833 11.5056C17.6389 10.6778 17.7778 9.8 17.7778 8.88889C17.7778 3.97778 13.8 0 8.88889 0C3.97778 0 0 3.97778 0 8.88889C0 13.8 3.97778 17.7778 8.88889 17.7778C9.8 17.7778 10.6778 17.6389 11.5056 17.3833C12.2056 18.9278 13.7556 20 15.5556 20C18.0111 20 20 18.0111 20 15.5556C20 13.7556 18.9278 12.2056 17.3833 11.5056ZM11.1111 15.5556C11.1111 15.6778 11.1222 15.8 11.1278 15.9222C10.4222 16.15 9.66667 16.2722 8.88889 16.2722C4.81111 16.2722 1.50556 12.9667 1.50556 8.88889C1.50556 4.81111 4.81111 1.50556 8.88889 1.50556C12.9667 1.50556 16.2722 4.81111 16.2722 8.88889C16.2722 9.67222 16.15 10.4222 15.9222 11.1278C15.8 11.1222 15.6778 11.1111 15.5556 11.1111C13.1 11.1111 11.1111 13.1 11.1111 15.5556ZM17.4611 15.7944C17.4611 15.8389 17.4278 15.8722 17.3833 15.8722H13.7333C13.6889 15.8722 13.6556 15.8389 13.6556 15.7944V15.3167C13.6556 15.2722 13.6889 15.2389 13.7333 15.2389H17.3833C17.4278 15.2389 17.4611 15.2722 17.4611 15.3167V15.7944Z" fill="#FF715E"/>
</g>
<defs>
<clipPath id="clip0_970_15675">
<rect width="20" height="20" fill="white"/>
</clipPath>
</defs>
</svg>
